<svg width="50" height="50" viewBox="0 0 50 50" fill="none" xmlns="http://www.w3.org/2000/svg">
<path d="M0 16C0 7.16344 7.16344 0 16 0H34C42.8366 0 50 7.16344 50 16V34C50 42.8366 42.8366 50 34 50H16C7.16344 50 0 42.8366 0 34V16Z" fill="#0D3461"/>
<path d="M34 49V50H16V49H34ZM49 34V16C49 7.84502 42.4923 1.21 34.3867 1.00488L34 1H16C7.84502 1 1.21 7.50774 1.00488 15.6133L1 16V34C1 42.2843 7.71573 49 16 49V50L15.5869 49.9951C6.94127 49.776 0 42.6984 0 34V16C0 7.30155 6.94127 0.22398 15.5869 0.00488281L16 0H34C42.8366 0 50 7.16344 50 16V34C50 42.8366 42.8366 50 34 50V49C42.2843 49 49 42.2843 49 34Z" fill="#0A77F3"/>
<path d="M30.7773 12C34.7661 12 38 15.2339 38 19.2227V30.7773C38 34.7661 34.7661 38 30.7773 38H19.2227C15.2339 38 12 34.7661 12 30.7773V19.2227C12 15.2339 15.2339 12 19.2227 12H30.7773ZM21.5605 19.3828V26.2441C21.3199 26.0971 21.0693 25.9866 20.8086 25.9131C20.5478 25.8395 20.2636 25.8027 19.9561 25.8027C19.0735 25.8027 18.318 26.1168 17.6895 26.7451C17.0609 27.3737 16.7461 28.13 16.7461 29.0127C16.7461 29.8953 17.0609 30.6507 17.6895 31.2793C18.318 31.9078 19.0734 32.2227 19.9561 32.2227C20.8387 32.2226 21.5941 31.9078 22.2227 31.2793C22.8512 30.6507 23.166 29.8953 23.166 29.0127V22.5928L29.5859 21.3291V24.6387C29.3452 24.4916 29.0938 24.3812 28.833 24.3076C28.5723 24.2341 28.2879 24.1973 27.9805 24.1973C27.0979 24.1973 26.3424 24.5121 25.7139 25.1406C25.0853 25.7692 24.7706 26.5246 24.7705 27.4072C24.7705 28.2899 25.0853 29.0462 25.7139 29.6748C26.3424 30.3032 27.098 30.6171 27.9805 30.6172C28.8632 30.6172 29.6194 30.3034 30.248 29.6748C30.8766 29.0462 31.1904 28.2899 31.1904 27.4072V17.7783L21.5605 19.3828Z" fill="#0A77F3"/>
</svg>
