<svg width="105" height="51" viewBox="0 0 105 51" fill="none" xmlns="http://www.w3.org/2000/svg">
<path d="M63.3135 25.2036C63.3135 39.1231 52.0295 42.0059 38.1099 42.0059C24.1904 42.0059 12.9064 39.1231 12.9064 25.2036C12.9064 11.284 24.1904 0 38.1099 0C52.0295 0 63.3135 11.284 63.3135 25.2036Z" fill="white"/>
<path d="M90.6564 28.1083C90.6564 39.6743 81.2803 46.8067 69.7143 46.8067C58.1483 46.8067 48.7722 39.6743 48.7722 28.1083C48.7722 16.5424 58.1483 7.16626 69.7143 7.16626C81.2803 7.16626 90.6564 16.5424 90.6564 28.1083Z" fill="white"/>
<path d="M0.904785 36.0051C0.904785 29.3768 6.27813 24.0034 12.9065 24.0034H92.1177C98.746 24.0034 104.119 29.3768 104.119 36.0051C104.119 42.6335 98.746 48.0068 92.1177 48.0068H12.9065C6.27813 48.0068 0.904785 42.6335 0.904785 36.0051Z" fill="white"/>
<path d="M68.4458 18.437H78.9809L85.4114 30.7508L91.6139 18.437H102.149L86.0043 49.495H84.7273L68.4458 18.437ZM80.1211 35.9499H90.7018V50.4071H80.1211V35.9499Z" fill="#0A77F3"/>
<path d="M35.9083 18.437H46.489V30.1123L56.0208 18.437H68.1977L46.489 42.654V50.4071H35.9083V18.437ZM56.0664 30.1579L68.8818 50.4071H56.2488L48.9974 38.4582L56.0664 30.1579Z" fill="#0A77F3"/>
<path d="M29.5661 29.5192C28.502 28.8808 27.2858 28.2727 25.9176 27.695C24.5494 27.1173 23.2116 26.646 21.9042 26.2812C20.6273 25.9163 19.5175 25.7339 18.575 25.7339C17.9973 25.7339 17.526 25.8403 17.1612 26.0532C16.7963 26.266 16.6139 26.6308 16.6139 27.1477C16.6139 27.7558 16.9027 28.2575 17.4804 28.6527C18.0885 29.0176 18.879 29.3368 19.852 29.6105C20.8553 29.8841 21.9499 30.1881 23.1356 30.5226C24.3214 30.8266 25.492 31.2219 26.6473 31.7084C27.8331 32.1644 28.9124 32.7573 29.8854 33.487C30.8887 34.2167 31.6792 35.1592 32.2569 36.3146C32.865 37.47 33.169 38.8838 33.169 40.556C33.169 42.958 32.5457 44.9342 31.2992 46.4848C30.0526 48.0051 28.4108 49.1452 26.3737 49.9053C24.3366 50.635 22.1171 50.9999 19.7151 50.9999C17.8605 50.9999 15.9602 50.8023 14.0143 50.407C12.0989 49.9813 10.2594 49.3885 8.49595 48.6284C6.7325 47.8378 5.13628 46.8953 3.70728 45.8008L7.62943 37.8196C8.72398 38.7622 10.0162 39.6135 11.506 40.3736C12.9958 41.1337 14.4856 41.7418 15.9754 42.1978C17.4652 42.6539 18.7422 42.8819 19.8064 42.8819C20.5969 42.8819 21.2201 42.7451 21.6762 42.4715C22.1323 42.1674 22.3603 41.7114 22.3603 41.1033C22.3603 40.4952 22.0563 40.0087 21.4482 39.6439C20.8705 39.2486 20.08 38.9142 19.0766 38.6405C18.1037 38.3669 17.0244 38.0933 15.8386 37.8196C14.6528 37.5156 13.4671 37.1507 12.2813 36.7251C11.1259 36.269 10.0466 35.6913 9.04323 34.992C8.07029 34.2623 7.27978 33.3502 6.6717 32.2556C6.09401 31.1611 5.80517 29.7929 5.80517 28.1511C5.80517 25.9924 6.36765 24.1225 7.49261 22.5415C8.61757 20.9604 10.1986 19.7443 12.2357 18.8929C14.3032 18.0416 16.7203 17.616 19.4871 17.616C22.0107 17.616 24.5038 17.9656 26.9666 18.6649C29.4597 19.3642 31.6032 20.2915 33.3971 21.4469L29.5661 29.5192Z" fill="#0A77F3"/>
</svg>
