<svg width="63" height="18" viewBox="0 0 63 18" fill="none" xmlns="http://www.w3.org/2000/svg">
<path d="M0 9C0 4.02944 4.02944 0 9 0H54C58.9706 0 63 4.02944 63 9C63 13.9706 58.9706 18 54 18H9C4.02944 18 0 13.9706 0 9Z" fill="#0A77F3"/>
<path d="M27.6685 6.4H28.6845L30.4125 11.008L32.1565 6.4H33.1405L30.8765 12H29.9005L27.6685 6.4ZM33.848 7.752H34.76V12H33.848V7.752ZM34.304 6C34.4586 6 34.5866 6.05067 34.688 6.152C34.7893 6.25333 34.84 6.38133 34.84 6.536C34.84 6.68533 34.7893 6.81333 34.688 6.92C34.5866 7.02133 34.4586 7.072 34.304 7.072C34.1546 7.072 34.0266 7.02133 33.92 6.92C33.8186 6.81333 33.768 6.68533 33.768 6.536C33.768 6.38133 33.8186 6.25333 33.92 6.152C34.0266 6.05067 34.1546 6 34.304 6ZM37.7454 7.712C38.1401 7.712 38.4734 7.8 38.7454 7.976C39.0227 8.14667 39.2334 8.39467 39.3774 8.72C39.5267 9.04 39.5987 9.424 39.5934 9.872C39.5987 10.32 39.5294 10.7067 39.3854 11.032C39.2414 11.3573 39.0307 11.608 38.7534 11.784C38.4814 11.9547 38.1507 12.04 37.7614 12.04C37.3561 12.04 36.9987 11.9493 36.6894 11.768C36.3854 11.5813 36.1481 11.3253 35.9774 11C35.8067 10.6693 35.7214 10.2907 35.7214 9.864C35.7214 9.43733 35.8067 9.064 35.9774 8.744C36.1481 8.41867 36.3854 8.16533 36.6894 7.984C36.9934 7.80267 37.3454 7.712 37.7454 7.712ZM37.9534 8.456C37.6974 8.456 37.4707 8.51733 37.2734 8.64C37.0761 8.76267 36.9214 8.93333 36.8094 9.152C36.7027 9.36533 36.6467 9.61067 36.6414 9.888C36.6467 10.1653 36.7027 10.4107 36.8094 10.624C36.9214 10.8373 37.0761 11.0053 37.2734 11.128C37.4707 11.2507 37.6974 11.312 37.9534 11.312C38.2094 11.312 38.4361 11.2507 38.6334 11.128C38.8307 11.0053 38.9827 10.8373 39.0894 10.624C39.2014 10.4107 39.2574 10.1653 39.2574 9.888C39.2574 9.60533 39.2014 9.35733 39.0894 9.144C38.9827 8.93067 38.8307 8.76267 38.6334 8.64C38.4361 8.51733 38.2094 8.456 37.9534 8.456ZM39.2574 6.064H40.1774V12H39.2574V6.064ZM44.5185 9.568C44.5079 9.328 44.4519 9.12533 44.3505 8.96C44.2545 8.78933 44.1185 8.65867 43.9425 8.568C43.7665 8.472 43.5639 8.424 43.3345 8.424C43.0785 8.424 42.8545 8.48267 42.6625 8.6C42.4759 8.71733 42.3292 8.88267 42.2225 9.096C42.1159 9.304 42.0625 9.54933 42.0625 9.832C42.0625 10.136 42.1185 10.4 42.2305 10.624C42.3479 10.848 42.5079 11.0213 42.7105 11.144C42.9185 11.2667 43.1559 11.328 43.4225 11.328C43.8972 11.328 44.2972 11.16 44.6225 10.824L45.1105 11.312C44.9025 11.5413 44.6492 11.72 44.3505 11.848C44.0519 11.9707 43.7185 12.032 43.3505 12.032C42.9132 12.032 42.5319 11.9413 42.2065 11.76C41.8812 11.5787 41.6279 11.328 41.4465 11.008C41.2652 10.6827 41.1745 10.3067 41.1745 9.88C41.1745 9.45333 41.2652 9.08 41.4465 8.76C41.6279 8.43467 41.8812 8.18133 42.2065 8C42.5319 7.81867 42.9052 7.72533 43.3265 7.72C43.8279 7.72 44.2305 7.824 44.5345 8.032C44.8385 8.23467 45.0545 8.52267 45.1825 8.896C45.3105 9.26933 45.3559 9.712 45.3185 10.224H41.9185V9.568H44.5185ZM48.1017 7.72C48.539 7.72 48.923 7.81067 49.2537 7.992C49.5897 8.17333 49.851 8.42667 50.0377 8.752C50.2243 9.072 50.3177 9.44533 50.3177 9.872C50.3177 10.2987 50.2243 10.6747 50.0377 11C49.851 11.3253 49.5897 11.5787 49.2537 11.76C48.923 11.9413 48.539 12.032 48.1017 12.032C47.6643 12.032 47.2777 11.9413 46.9417 11.76C46.6057 11.5787 46.3443 11.3253 46.1577 11C45.971 10.6747 45.8777 10.2987 45.8777 9.872C45.8777 9.44533 45.971 9.072 46.1577 8.752C46.3443 8.42667 46.6057 8.17333 46.9417 7.992C47.2777 7.81067 47.6643 7.72 48.1017 7.72ZM48.1017 8.464C47.8457 8.464 47.619 8.52533 47.4217 8.648C47.2243 8.76533 47.0697 8.93067 46.9577 9.144C46.851 9.35733 46.7977 9.60267 46.7977 9.88C46.7977 10.1627 46.851 10.4107 46.9577 10.624C47.0697 10.8373 47.2243 11.0053 47.4217 11.128C47.619 11.2453 47.8457 11.304 48.1017 11.304C48.3577 11.304 48.5817 11.2453 48.7737 11.128C48.971 11.0053 49.123 10.8373 49.2297 10.624C49.3417 10.4107 49.3977 10.1627 49.3977 9.88C49.3977 9.60267 49.3417 9.35733 49.2297 9.144C49.123 8.93067 48.971 8.76533 48.7737 8.648C48.5817 8.52533 48.3577 8.464 48.1017 8.464ZM53.7017 8.784C53.515 8.672 53.3097 8.584 53.0857 8.52C52.867 8.45067 52.6643 8.416 52.4777 8.416C52.2963 8.416 52.147 8.45067 52.0297 8.52C51.9123 8.58933 51.8537 8.704 51.8537 8.864C51.8537 8.99733 51.907 9.104 52.0137 9.184C52.1257 9.25867 52.267 9.32267 52.4377 9.376C52.6083 9.42933 52.7897 9.48533 52.9817 9.544C53.1737 9.60267 53.355 9.68 53.5257 9.776C53.7017 9.86667 53.843 9.992 53.9497 10.152C54.0563 10.312 54.1097 10.5227 54.1097 10.784C54.1097 11.072 54.0323 11.3093 53.8777 11.496C53.7283 11.6773 53.5283 11.8133 53.2777 11.904C53.0323 11.9893 52.7657 12.032 52.4777 12.032C52.1683 12.032 51.859 11.9813 51.5497 11.88C51.2403 11.7787 50.979 11.632 50.7657 11.44L51.0937 10.816C51.2803 10.9813 51.507 11.112 51.7737 11.208C52.0403 11.2987 52.2883 11.344 52.5177 11.344C52.651 11.344 52.7683 11.328 52.8697 11.296C52.9763 11.2587 53.059 11.2053 53.1177 11.136C53.1817 11.0667 53.2137 10.976 53.2137 10.864C53.2137 10.7147 53.1603 10.5973 53.0537 10.512C52.947 10.4267 52.8083 10.3573 52.6377 10.304C52.467 10.2453 52.2857 10.1893 52.0937 10.136C51.9017 10.0773 51.7203 10.0027 51.5497 9.912C51.3843 9.82133 51.2483 9.69867 51.1417 9.544C51.035 9.38933 50.9817 9.184 50.9817 8.928C50.9817 8.64 51.0563 8.408 51.2057 8.232C51.355 8.05067 51.547 7.92 51.7817 7.84C52.0217 7.75467 52.2777 7.712 52.5497 7.712C52.8163 7.712 53.083 7.74933 53.3497 7.824C53.6163 7.89867 53.8457 8.00267 54.0377 8.136L53.7017 8.784Z" fill="white"/>
<mask id="mask0_1308_48" style="mask-type:alpha" maskUnits="userSpaceOnUse" x="7" y="3" width="12" height="12">
<rect x="7" y="3" width="12" height="12" fill="white"/>
</mask>
<g mask="url(#mask0_1308_48)">
<path d="M12.75 10.25L16.25 8L12.75 5.75V10.25ZM11 12C10.725 12 10.4896 11.9021 10.2938 11.7063C10.0979 11.5104 10 11.275 10 11V5C10 4.725 10.0979 4.48958 10.2938 4.29375C10.4896 4.09792 10.725 4 11 4H17C17.275 4 17.5104 4.09792 17.7063 4.29375C17.9021 4.48958 18 4.725 18 5V11C18 11.275 17.9021 11.5104 17.7063 11.7063C17.5104 11.9021 17.275 12 17 12H11ZM11 11H17V5H11V11ZM9 14C8.725 14 8.48958 13.9021 8.29375 13.7063C8.09792 13.5104 8 13.275 8 13V6H9V13H16V14H9Z" fill="white"/>
</g>
</svg>
