<svg width="78" height="18" viewBox="0 0 78 18" fill="none" xmlns="http://www.w3.org/2000/svg">
<rect width="78" height="18" rx="5" fill="white"/>
<g opacity="0.7">
<rect width="78" height="18" rx="5" fill="#0A77F3"/>
<path d="M27.3758 6.4C27.7971 6.4 28.1838 6.46933 28.5358 6.608C28.8878 6.74667 29.1918 6.94133 29.4478 7.192C29.7091 7.44267 29.9118 7.73867 30.0558 8.08C30.1998 8.42133 30.2718 8.79467 30.2718 9.2C30.2718 9.60533 30.1998 9.97867 30.0558 10.32C29.9118 10.656 29.7091 10.952 29.4478 11.208C29.1864 11.4587 28.8771 11.6533 28.5198 11.792C28.1624 11.9307 27.7731 12 27.3518 12H25.0798V6.4H27.3758ZM27.3998 11.192C27.6718 11.192 27.9224 11.144 28.1518 11.048C28.3864 10.952 28.5891 10.816 28.7598 10.64C28.9358 10.4587 29.0718 10.248 29.1678 10.008C29.2691 9.76267 29.3198 9.496 29.3198 9.208C29.3198 8.91467 29.2691 8.648 29.1678 8.408C29.0664 8.16267 28.9278 7.94933 28.7517 7.768C28.5758 7.58667 28.3678 7.448 28.1278 7.352C27.8931 7.256 27.6371 7.208 27.3598 7.208H26.0238V11.192H27.3998ZM33.0509 7.72C33.4882 7.72 33.8722 7.81067 34.2029 7.992C34.5389 8.17333 34.8002 8.42667 34.9869 8.752C35.1735 9.072 35.2669 9.44533 35.2669 9.872C35.2669 10.2987 35.1735 10.6747 34.9869 11C34.8002 11.3253 34.5389 11.5787 34.2029 11.76C33.8722 11.9413 33.4882 12.032 33.0509 12.032C32.6135 12.032 32.2269 11.9413 31.8909 11.76C31.5549 11.5787 31.2935 11.3253 31.1069 11C30.9202 10.6747 30.8269 10.2987 30.8269 9.872C30.8269 9.44533 30.9202 9.072 31.1069 8.752C31.2935 8.42667 31.5549 8.17333 31.8909 7.992C32.2269 7.81067 32.6135 7.72 33.0509 7.72ZM33.0509 8.464C32.7949 8.464 32.5682 8.52533 32.3709 8.648C32.1735 8.76533 32.0189 8.93067 31.9069 9.144C31.8002 9.35733 31.7469 9.60267 31.7469 9.88C31.7469 10.1627 31.8002 10.4107 31.9069 10.624C32.0189 10.8373 32.1735 11.0053 32.3709 11.128C32.5682 11.2453 32.7949 11.304 33.0509 11.304C33.3069 11.304 33.5309 11.2453 33.7229 11.128C33.9202 11.0053 34.0722 10.8373 34.1789 10.624C34.2909 10.4107 34.3469 10.1627 34.3469 9.88C34.3469 9.60267 34.2909 9.35733 34.1789 9.144C34.0722 8.93067 33.9202 8.76533 33.7229 8.648C33.5309 8.52533 33.3069 8.464 33.0509 8.464ZM39.2269 8.968C39.0775 8.81333 38.9015 8.69333 38.6989 8.608C38.4962 8.52267 38.2669 8.48 38.0109 8.48C37.7655 8.48 37.5469 8.53867 37.3549 8.656C37.1629 8.77333 37.0135 8.93867 36.9069 9.152C36.8002 9.36 36.7469 9.60267 36.7469 9.88C36.7469 10.1573 36.8002 10.4027 36.9069 10.616C37.0135 10.824 37.1629 10.9893 37.3549 11.112C37.5469 11.2293 37.7655 11.288 38.0109 11.288C38.2775 11.288 38.5175 11.2453 38.7309 11.16C38.9442 11.0693 39.1229 10.9387 39.2669 10.768L39.7789 11.272C39.5869 11.512 39.3362 11.6987 39.0269 11.832C38.7229 11.9653 38.3709 12.032 37.9709 12.032C37.5495 12.032 37.1762 11.9413 36.8509 11.76C36.5309 11.5787 36.2802 11.328 36.0989 11.008C35.9175 10.6827 35.8269 10.3067 35.8269 9.88C35.8269 9.45333 35.9175 9.08 36.0989 8.76C36.2802 8.43467 36.5309 8.18133 36.8509 8C37.1762 7.81333 37.5495 7.72 37.9709 7.72C38.3549 7.72 38.6935 7.77867 38.9869 7.896C39.2855 8.008 39.5335 8.168 39.7309 8.376L39.2269 8.968ZM41.5265 10.152C41.5265 10.4827 41.6145 10.744 41.7905 10.936C41.9665 11.1227 42.2092 11.216 42.5185 11.216C42.8865 11.2053 43.1718 11.0693 43.3745 10.808C43.5825 10.5467 43.6865 10.224 43.6865 9.84H43.9345C43.9345 10.3627 43.8625 10.784 43.7185 11.104C43.5745 11.424 43.3692 11.6587 43.1025 11.808C42.8412 11.952 42.5292 12.0267 42.1665 12.032C41.8412 12.032 41.5612 11.9653 41.3265 11.832C41.0972 11.6987 40.9185 11.5093 40.7905 11.264C40.6678 11.0187 40.6065 10.728 40.6065 10.392V7.752H41.5265V10.152ZM43.6865 7.752H44.6065V12H43.6865V7.752ZM49.0651 9.6C49.0651 9.264 48.9771 9.00267 48.8011 8.816C48.6251 8.624 48.3797 8.528 48.0651 8.528C47.6971 8.53867 47.4064 8.67467 47.1931 8.936C46.9851 9.19733 46.8811 9.52 46.8811 9.904H46.6251C46.6251 9.38133 46.6971 8.96 46.8411 8.64C46.9904 8.32 47.1984 8.088 47.4651 7.944C47.7371 7.79467 48.0571 7.72 48.4251 7.72C48.7504 7.72 49.0277 7.78667 49.2571 7.92C49.4917 8.05333 49.6704 8.24267 49.7931 8.488C49.9211 8.728 49.9851 9.01867 49.9851 9.36V12H49.0651V9.6ZM52.1611 9.6C52.1611 9.264 52.0704 9.00267 51.8891 8.816C51.7131 8.624 51.4677 8.528 51.1531 8.528C50.7904 8.53867 50.5051 8.67467 50.2971 8.936C50.0891 9.19733 49.9851 9.52 49.9851 9.904H49.7211C49.7211 9.38133 49.7931 8.96 49.9371 8.64C50.0864 8.32 50.2944 8.088 50.5611 7.944C50.8331 7.79467 51.1531 7.72 51.5211 7.72C51.8464 7.72 52.1237 7.78667 52.3531 7.92C52.5877 8.05333 52.7664 8.24267 52.8891 8.488C53.0171 8.728 53.0811 9.01867 53.0811 9.36V12H52.1611V9.6ZM45.9691 7.752H46.8811V12H45.9691V7.752ZM57.2568 9.568C57.2461 9.328 57.1901 9.12533 57.0888 8.96C56.9928 8.78933 56.8568 8.65867 56.6808 8.568C56.5048 8.472 56.3021 8.424 56.0728 8.424C55.8168 8.424 55.5928 8.48267 55.4008 8.6C55.2141 8.71733 55.0675 8.88267 54.9608 9.096C54.8541 9.304 54.8008 9.54933 54.8008 9.832C54.8008 10.136 54.8568 10.4 54.9688 10.624C55.0861 10.848 55.2461 11.0213 55.4488 11.144C55.6568 11.2667 55.8941 11.328 56.1608 11.328C56.6355 11.328 57.0355 11.16 57.3608 10.824L57.8488 11.312C57.6408 11.5413 57.3875 11.72 57.0888 11.848C56.7901 11.9707 56.4568 12.032 56.0888 12.032C55.6515 12.032 55.2701 11.9413 54.9448 11.76C54.6195 11.5787 54.3661 11.328 54.1848 11.008C54.0035 10.6827 53.9128 10.3067 53.9128 9.88C53.9128 9.45333 54.0035 9.08 54.1848 8.76C54.3661 8.43467 54.6195 8.18133 54.9448 8C55.2701 7.81867 55.6435 7.72533 56.0648 7.72C56.5661 7.72 56.9688 7.824 57.2728 8.032C57.5768 8.23467 57.7928 8.52267 57.9208 8.896C58.0488 9.26933 58.0941 9.712 58.0568 10.224H54.6568V9.568H57.2568ZM62.1679 9.6C62.1679 9.26933 62.0773 9.01067 61.8959 8.824C61.7146 8.632 61.4639 8.536 61.1439 8.536C60.7653 8.54133 60.4666 8.67467 60.2479 8.936C60.0346 9.19733 59.9279 9.52267 59.9279 9.912H59.6719C59.6719 9.384 59.7466 8.96 59.8959 8.64C60.0453 8.32 60.2559 8.088 60.5279 7.944C60.8053 7.79467 61.1306 7.72 61.5039 7.72C61.8346 7.72 62.1173 7.78667 62.3519 7.92C62.5919 8.05333 62.7733 8.24267 62.8959 8.488C63.0239 8.728 63.0879 9.01867 63.0879 9.36V12H62.1679V9.6ZM59.0159 7.752H59.9359V12H59.0159V7.752ZM65.4006 10.656C65.4006 10.8853 65.4406 11.0427 65.5206 11.128C65.6006 11.208 65.7126 11.248 65.8566 11.248C65.9526 11.248 66.0513 11.232 66.1526 11.2C66.2593 11.168 66.374 11.12 66.4966 11.056L66.7286 11.72C66.5633 11.8213 66.3926 11.9013 66.2166 11.96C66.0406 12.0133 65.862 12.04 65.6806 12.04C65.4673 12.04 65.27 12 65.0886 11.92C64.9073 11.8347 64.7606 11.7013 64.6486 11.52C64.542 11.3387 64.4886 11.104 64.4886 10.816V6.744H65.4006V10.656ZM63.8886 7.904H66.6566V8.56H63.8886V7.904ZM70.0024 8.784C69.8158 8.672 69.6104 8.584 69.3864 8.52C69.1678 8.45067 68.9651 8.416 68.7784 8.416C68.5971 8.416 68.4478 8.45067 68.3304 8.52C68.2131 8.58933 68.1544 8.704 68.1544 8.864C68.1544 8.99733 68.2078 9.104 68.3144 9.184C68.4264 9.25867 68.5678 9.32267 68.7384 9.376C68.9091 9.42933 69.0904 9.48533 69.2824 9.544C69.4744 9.60267 69.6558 9.68 69.8264 9.776C70.0024 9.86667 70.1438 9.992 70.2504 10.152C70.3571 10.312 70.4104 10.5227 70.4104 10.784C70.4104 11.072 70.3331 11.3093 70.1784 11.496C70.0291 11.6773 69.8291 11.8133 69.5784 11.904C69.3331 11.9893 69.0664 12.032 68.7784 12.032C68.4691 12.032 68.1598 11.9813 67.8504 11.88C67.5411 11.7787 67.2798 11.632 67.0664 11.44L67.3944 10.816C67.5811 10.9813 67.8078 11.112 68.0744 11.208C68.3411 11.2987 68.5891 11.344 68.8184 11.344C68.9518 11.344 69.0691 11.328 69.1704 11.296C69.2771 11.2587 69.3598 11.2053 69.4184 11.136C69.4824 11.0667 69.5144 10.976 69.5144 10.864C69.5144 10.7147 69.4611 10.5973 69.3544 10.512C69.2478 10.4267 69.1091 10.3573 68.9384 10.304C68.7678 10.2453 68.5864 10.1893 68.3944 10.136C68.2024 10.0773 68.0211 10.0027 67.8504 9.912C67.6851 9.82133 67.5491 9.69867 67.4424 9.544C67.3358 9.38933 67.2824 9.184 67.2824 8.928C67.2824 8.64 67.3571 8.408 67.5064 8.232C67.6558 8.05067 67.8478 7.92 68.0824 7.84C68.3224 7.75467 68.5784 7.712 68.8504 7.712C69.1171 7.712 69.3838 7.74933 69.6504 7.824C69.9171 7.89867 70.1464 8.00267 70.3384 8.136L70.0024 8.784Z" fill="white"/>
<mask id="mask0_190_34" style="mask-type:alpha" maskUnits="userSpaceOnUse" x="7" y="3" width="12" height="12">
<rect x="7" y="3" width="12" height="12" fill="white"/>
</mask>
<g mask="url(#mask0_190_34)">
<path d="M11 11H17V5H16V8.5L14.75 7.75L13.5 8.5V5H11V11ZM11 12C10.725 12 10.4896 11.9021 10.2938 11.7063C10.0979 11.5104 10 11.275 10 11V5C10 4.725 10.0979 4.48958 10.2938 4.29375C10.4896 4.09792 10.725 4 11 4H17C17.275 4 17.5104 4.09792 17.7063 4.29375C17.9021 4.48958 18 4.725 18 5V11C18 11.275 17.9021 11.5104 17.7063 11.7063C17.5104 11.9021 17.275 12 17 12H11ZM9 14C8.725 14 8.48958 13.9021 8.29375 13.7063C8.09792 13.5104 8 13.275 8 13V6H9V13H16V14H9Z" fill="white"/>
</g>
</g>
</svg>
