<svg width="74" height="36" viewBox="0 0 74 36" fill="none" xmlns="http://www.w3.org/2000/svg">
<path d="M44.958 17.7908C44.958 27.6163 36.9928 29.6513 27.1672 29.6513C17.3417 29.6513 9.37646 27.6163 9.37646 17.7908C9.37646 7.96519 17.3417 0 27.1672 0C36.9928 0 44.958 7.96519 44.958 17.7908Z" fill="#0B77F3"/>
<path d="M64.2589 19.8412C64.2589 28.0054 57.6405 33.04 49.4763 33.04C41.312 33.04 34.6936 28.0054 34.6936 19.8412C34.6936 11.677 41.312 5.05853 49.4763 5.05853C57.6405 5.05853 64.2589 11.677 64.2589 19.8412Z" fill="#0B77F3"/>
<path d="M0.904785 25.4153C0.904785 20.7365 4.69773 16.9435 9.37657 16.9435H65.2904C69.9692 16.9435 73.7621 20.7365 73.7621 25.4153C73.7621 30.0942 69.9692 33.8871 65.2904 33.8871H9.37657C4.69773 33.8871 0.904785 30.0942 0.904785 25.4153Z" fill="#0B77F3"/>
<path d="M48.5808 13.0143H56.0173L60.5565 21.7064L64.9347 13.0143H72.3713L60.975 34.9376H60.0736L48.5808 13.0143ZM56.8222 25.3764H64.2909V35.5815H56.8222V25.3764Z" fill="white"/>
<path d="M25.6132 13.0143H33.0819V21.2557L39.8102 13.0143H48.4056L33.0819 30.1087V35.5815H25.6132V13.0143ZM39.8424 21.2879L48.8885 35.5815H39.9711L34.8525 27.147L39.8424 21.2879Z" fill="white"/>
<path d="M21.1364 20.8372C20.3852 20.3865 19.5267 19.9573 18.5609 19.5495C17.5952 19.1417 16.6508 18.809 15.728 18.5515C14.8266 18.294 14.0432 18.1652 13.3779 18.1652C12.9701 18.1652 12.6375 18.2403 12.3799 18.3905C12.1224 18.5408 11.9936 18.7983 11.9936 19.1632C11.9936 19.5924 12.1975 19.9465 12.6053 20.2255C13.0345 20.4831 13.5925 20.7084 14.2793 20.9016C14.9875 21.0947 15.7602 21.3094 16.5972 21.5454C17.4342 21.7601 18.2605 22.0391 19.076 22.3824C19.913 22.7044 20.6749 23.1229 21.3617 23.638C22.07 24.1531 22.628 24.8184 23.0357 25.6339C23.465 26.4495 23.6796 27.4474 23.6796 28.6278C23.6796 30.3233 23.2396 31.7184 22.3597 32.8129C21.4798 33.886 20.3208 34.6908 18.8829 35.2274C17.4449 35.7425 15.8782 36 14.1827 36C12.8735 36 11.5322 35.8605 10.1586 35.5815C8.80653 35.281 7.50809 34.8625 6.2633 34.326C5.01851 33.768 3.89176 33.1026 2.88306 32.33L5.65163 26.6963C6.42426 27.3616 7.33639 27.9625 8.38802 28.4991C9.43966 29.0356 10.4913 29.4649 11.5429 29.7868C12.5945 30.1087 13.4959 30.2697 14.2471 30.2697C14.8051 30.2697 15.2451 30.1731 15.567 29.9799C15.8889 29.7653 16.0499 29.4434 16.0499 29.0142C16.0499 28.5849 15.8353 28.2415 15.406 27.984C14.9983 27.705 14.4403 27.4689 13.732 27.2758C13.0452 27.0826 12.2834 26.8894 11.4463 26.6963C10.6093 26.4817 9.77231 26.2241 8.9353 25.9237C8.11975 25.6017 7.35785 25.194 6.64961 24.7003C5.96283 24.1852 5.40483 23.5414 4.97559 22.7688C4.56781 21.9961 4.36393 21.0303 4.36393 19.8714C4.36393 18.3476 4.76097 17.0277 5.55506 15.9117C6.34915 14.7957 7.46517 13.9372 8.90311 13.3363C10.3625 12.7353 12.0687 12.4349 14.0218 12.4349C15.8031 12.4349 17.563 12.6817 19.3014 13.1753C21.0612 13.6689 22.5743 14.3235 23.8406 15.1391L21.1364 20.8372Z" fill="white"/>
</svg>
