<svg width="29" height="22" viewBox="0 0 29 22" fill="none" xmlns="http://www.w3.org/2000/svg">
<path d="M4.52321 8.44796C7.55255 8.31996 9.74988 8.9173 11.1152 10.24C12.4805 11.52 13.1632 13.0773 13.1632 14.912C13.1632 16.832 12.5445 18.4106 11.3072 19.648C10.0699 20.8426 8.49121 21.44 6.57121 21.44C4.86455 21.44 3.34988 20.8853 2.02721 19.776C0.704546 18.6666 0.0432129 17.0666 0.0432129 14.976C0.0432129 13.9946 0.21388 13.0773 0.555213 12.224C0.896546 11.3706 1.30188 10.5813 1.77121 9.85596L7.97921 0.511963H14.6352L8.61921 14.976L4.52321 8.44796ZM18.4752 8.44796C21.5045 8.31996 23.7019 8.9173 25.0672 10.24C26.4325 11.52 27.1152 13.0773 27.1152 14.912C27.1152 16.832 26.4965 18.4106 25.2592 19.648C24.0219 20.8426 22.4432 21.44 20.5232 21.44C18.8165 21.44 17.3019 20.8853 15.9792 19.776C14.6565 18.6666 13.9952 17.0666 13.9952 14.976C13.9952 13.9946 14.1659 13.0773 14.5072 12.224C14.8485 11.3706 15.2539 10.5813 15.7232 9.85596L21.9312 0.511963H28.5872L22.5712 14.976L18.4752 8.44796Z" fill="#0A77F3"/>
</svg>
