<svg width="63" height="18" viewBox="0 0 63 18" fill="none" xmlns="http://www.w3.org/2000/svg">
<rect width="63" height="18" rx="5" fill="white"/>
<g opacity="0.8">
<rect width="63" height="18" rx="5" fill="#0A77F3"/>
<path d="M27.2243 6.4H28.1683V12H27.2243V6.4ZM32.6783 9.6C32.6783 9.264 32.5903 9.00267 32.4143 8.816C32.2383 8.624 31.993 8.528 31.6783 8.528C31.3103 8.53867 31.0197 8.67467 30.8063 8.936C30.5983 9.19733 30.4943 9.52 30.4943 9.904H30.2383C30.2383 9.38133 30.3103 8.96 30.4543 8.64C30.6037 8.32 30.8117 8.088 31.0783 7.944C31.3503 7.79467 31.6703 7.72 32.0383 7.72C32.3637 7.72 32.641 7.78667 32.8703 7.92C33.105 8.05333 33.2837 8.24267 33.4063 8.488C33.5343 8.728 33.5983 9.01867 33.5983 9.36V12H32.6783V9.6ZM35.7743 9.6C35.7743 9.264 35.6837 9.00267 35.5023 8.816C35.3263 8.624 35.081 8.528 34.7663 8.528C34.4037 8.53867 34.1183 8.67467 33.9103 8.936C33.7023 9.19733 33.5983 9.52 33.5983 9.904H33.3343C33.3343 9.38133 33.4063 8.96 33.5503 8.64C33.6997 8.32 33.9077 8.088 34.1743 7.944C34.4463 7.79467 34.7663 7.72 35.1343 7.72C35.4597 7.72 35.737 7.78667 35.9663 7.92C36.201 8.05333 36.3797 8.24267 36.5023 8.488C36.6303 8.728 36.6943 9.01867 36.6943 9.36V12H35.7743V9.6ZM29.5823 7.752H30.4943V12H29.5823V7.752ZM39.3181 10.104C39.0194 10.104 38.7981 10.1493 38.6541 10.24C38.5101 10.3307 38.4381 10.48 38.4381 10.688C38.4381 10.8853 38.5101 11.0427 38.6541 11.16C38.8034 11.2773 39.0061 11.336 39.2621 11.336C39.4914 11.336 39.6968 11.296 39.8781 11.216C40.0594 11.136 40.2034 11.0293 40.3101 10.896C40.4168 10.7573 40.4728 10.6027 40.4781 10.432L40.6541 11.208C40.5208 11.4853 40.3181 11.6933 40.0461 11.832C39.7741 11.9707 39.4488 12.04 39.0701 12.04C38.7661 12.04 38.5021 11.9813 38.2781 11.864C38.0541 11.7467 37.8808 11.5893 37.7581 11.392C37.6354 11.1893 37.5741 10.9653 37.5741 10.72C37.5741 10.336 37.7128 10.0293 37.9901 9.8C38.2728 9.57067 38.6701 9.45333 39.1821 9.448H40.5901V10.104H39.3181ZM40.4701 9.304C40.4701 9.02667 40.3848 8.81067 40.2141 8.656C40.0434 8.50133 39.7901 8.424 39.4541 8.424C39.2514 8.424 39.0434 8.46133 38.8301 8.536C38.6221 8.61067 38.4114 8.72 38.1981 8.864L37.8221 8.272C38.0194 8.14933 38.2061 8.048 38.3821 7.968C38.5581 7.888 38.7448 7.82667 38.9421 7.784C39.1448 7.74133 39.3821 7.72 39.6541 7.72C40.2034 7.72 40.6248 7.85333 40.9181 8.12C41.2168 8.38133 41.3688 8.744 41.3741 9.208L41.3821 12H40.4781L40.4701 9.304ZM46.4536 11.576C46.4536 11.9867 46.3629 12.3413 46.1816 12.64C46.0003 12.9387 45.7443 13.168 45.4136 13.328C45.0829 13.4933 44.6936 13.576 44.2456 13.576C43.9149 13.576 43.6029 13.5253 43.3096 13.424C43.0163 13.328 42.7389 13.192 42.4776 13.016L42.8696 12.384C43.0723 12.5333 43.2803 12.648 43.4936 12.728C43.7069 12.8133 43.9443 12.856 44.2056 12.856C44.4776 12.856 44.7123 12.8027 44.9096 12.696C45.1123 12.5947 45.2669 12.4507 45.3736 12.264C45.4856 12.0773 45.5416 11.856 45.5416 11.6V7.752H46.4536V11.576ZM44.1016 7.72C44.4749 7.71467 44.7923 7.79467 45.0536 7.96C45.3203 8.12 45.5229 8.352 45.6616 8.656C45.8003 8.96 45.8669 9.32533 45.8616 9.752C45.8669 10.1787 45.8003 10.5467 45.6616 10.856C45.5283 11.16 45.3309 11.3947 45.0696 11.56C44.8136 11.72 44.5016 11.8 44.1336 11.8C43.7496 11.8 43.4136 11.7147 43.1256 11.544C42.8376 11.368 42.6136 11.1253 42.4536 10.816C42.2936 10.5067 42.2136 10.1493 42.2136 9.744C42.2136 9.344 42.2909 8.99467 42.4456 8.696C42.6056 8.392 42.8269 8.15467 43.1096 7.984C43.3976 7.808 43.7283 7.72 44.1016 7.72ZM44.3176 8.424C44.0776 8.424 43.8643 8.48267 43.6776 8.6C43.4909 8.712 43.3443 8.86933 43.2376 9.072C43.1363 9.27467 43.0829 9.50667 43.0776 9.768C43.0829 10.0293 43.1363 10.2613 43.2376 10.464C43.3443 10.6667 43.4883 10.8267 43.6696 10.944C43.8563 11.056 44.0723 11.112 44.3176 11.112C44.5576 11.112 44.7683 11.056 44.9496 10.944C45.1363 10.8267 45.2803 10.6667 45.3816 10.464C45.4883 10.2613 45.5416 10.0293 45.5416 9.768C45.5416 9.50133 45.4883 9.26933 45.3816 9.072C45.2803 8.86933 45.1363 8.712 44.9496 8.6C44.7683 8.48267 44.5576 8.424 44.3176 8.424ZM50.6748 9.568C50.6641 9.328 50.6081 9.12533 50.5068 8.96C50.4108 8.78933 50.2748 8.65867 50.0988 8.568C49.9228 8.472 49.7201 8.424 49.4908 8.424C49.2348 8.424 49.0108 8.48267 48.8188 8.6C48.6321 8.71733 48.4854 8.88267 48.3788 9.096C48.2721 9.304 48.2188 9.54933 48.2188 9.832C48.2188 10.136 48.2748 10.4 48.3868 10.624C48.5041 10.848 48.6641 11.0213 48.8668 11.144C49.0748 11.2667 49.3121 11.328 49.5788 11.328C50.0534 11.328 50.4534 11.16 50.7788 10.824L51.2668 11.312C51.0588 11.5413 50.8054 11.72 50.5068 11.848C50.2081 11.9707 49.8748 12.032 49.5068 12.032C49.0694 12.032 48.6881 11.9413 48.3628 11.76C48.0374 11.5787 47.7841 11.328 47.6028 11.008C47.4214 10.6827 47.3308 10.3067 47.3308 9.88C47.3308 9.45333 47.4214 9.08 47.6028 8.76C47.7841 8.43467 48.0374 8.18133 48.3628 8C48.6881 7.81867 49.0614 7.72533 49.4828 7.72C49.9841 7.72 50.3868 7.824 50.6908 8.032C50.9948 8.23467 51.2108 8.52267 51.3388 8.896C51.4668 9.26933 51.5121 9.712 51.4748 10.224H48.0748V9.568H50.6748ZM54.8579 8.784C54.6712 8.672 54.4659 8.584 54.2419 8.52C54.0232 8.45067 53.8206 8.416 53.6339 8.416C53.4526 8.416 53.3032 8.45067 53.1859 8.52C53.0686 8.58933 53.0099 8.704 53.0099 8.864C53.0099 8.99733 53.0632 9.104 53.1699 9.184C53.2819 9.25867 53.4232 9.32267 53.5939 9.376C53.7646 9.42933 53.9459 9.48533 54.1379 9.544C54.3299 9.60267 54.5112 9.68 54.6819 9.776C54.8579 9.86667 54.9992 9.992 55.1059 10.152C55.2126 10.312 55.2659 10.5227 55.2659 10.784C55.2659 11.072 55.1886 11.3093 55.0339 11.496C54.8846 11.6773 54.6846 11.8133 54.4339 11.904C54.1886 11.9893 53.9219 12.032 53.6339 12.032C53.3246 12.032 53.0152 11.9813 52.7059 11.88C52.3966 11.7787 52.1352 11.632 51.9219 11.44L52.2499 10.816C52.4366 10.9813 52.6632 11.112 52.9299 11.208C53.1966 11.2987 53.4446 11.344 53.6739 11.344C53.8072 11.344 53.9246 11.328 54.0259 11.296C54.1326 11.2587 54.2152 11.2053 54.2739 11.136C54.3379 11.0667 54.3699 10.976 54.3699 10.864C54.3699 10.7147 54.3166 10.5973 54.2099 10.512C54.1032 10.4267 53.9646 10.3573 53.7939 10.304C53.6232 10.2453 53.4419 10.1893 53.2499 10.136C53.0579 10.0773 52.8766 10.0027 52.7059 9.912C52.5406 9.82133 52.4046 9.69867 52.2979 9.544C52.1912 9.38933 52.1379 9.184 52.1379 8.928C52.1379 8.64 52.2126 8.408 52.3619 8.232C52.5112 8.05067 52.7032 7.92 52.9379 7.84C53.1779 7.75467 53.4339 7.712 53.7059 7.712C53.9726 7.712 54.2392 7.74933 54.5059 7.824C54.7726 7.89867 55.0019 8.00267 55.1939 8.136L54.8579 8.784Z" fill="white"/>
<mask id="mask0_190_34" style="mask-type:alpha" maskUnits="userSpaceOnUse" x="7" y="3" width="12" height="12">
<rect x="7" y="3" width="12" height="12" fill="#D9D9D9"/>
</mask>
<g mask="url(#mask0_190_34)">
<path d="M11.5 9.5H16.5L14.775 7.25L13.625 8.75L12.85 7.75L11.5 9.5ZM8.5 13.5C8.225 13.5 7.98958 13.4021 7.79375 13.2063C7.59792 13.0104 7.5 12.775 7.5 12.5V6H8.5V12.5H17V13.5H8.5ZM10.5 11.5C10.225 11.5 9.98958 11.4021 9.79375 11.2063C9.59792 11.0104 9.5 10.775 9.5 10.5V5C9.5 4.725 9.59792 4.48958 9.79375 4.29375C9.98958 4.09792 10.225 4 10.5 4H13L14 5H17.5C17.775 5 18.0104 5.09792 18.2063 5.29375C18.4021 5.48958 18.5 5.725 18.5 6V10.5C18.5 10.775 18.4021 11.0104 18.2063 11.2063C18.0104 11.4021 17.775 11.5 17.5 11.5H10.5ZM10.5 10.5H17.5V6H13.5875L12.5875 5H10.5V10.5Z" fill="white"/>
</g>
</g>
</svg>
