<svg width="266" height="266" viewBox="0 0 266 266" fill="none" xmlns="http://www.w3.org/2000/svg">
<g opacity="0.37">
<path d="M210.566 125.71C210.49 124.987 210.606 124.329 210.914 123.737C211.225 123.145 211.7 122.657 212.337 122.275C212.979 121.892 213.76 121.652 214.679 121.556C215.59 121.46 216.398 121.534 217.101 121.777C217.804 122.019 218.368 122.4 218.792 122.92C219.215 123.439 219.465 124.064 219.542 124.795C219.601 125.36 219.553 125.816 219.399 126.164C219.249 126.515 219.065 126.789 218.846 126.987C218.631 127.189 218.453 127.346 218.312 127.46L218.324 127.573L222.596 127.126L222.736 128.46L211.162 129.67L211.028 128.381L212.361 128.242L212.345 128.084C212.176 128.002 211.962 127.884 211.702 127.728C211.446 127.572 211.206 127.336 210.983 127.021C210.763 126.705 210.624 126.268 210.566 125.71ZM211.783 125.766C211.839 126.301 212.025 126.739 212.343 127.079C212.664 127.418 213.083 127.658 213.6 127.798C214.122 127.938 214.71 127.974 215.365 127.905C216.013 127.837 216.57 127.684 217.037 127.445C217.507 127.205 217.858 126.887 218.091 126.489C218.327 126.091 218.417 125.621 218.36 125.078C218.301 124.513 218.107 124.058 217.778 123.711C217.452 123.368 217.033 123.128 216.52 122.991C216.011 122.858 215.451 122.823 214.841 122.887C214.223 122.952 213.671 123.105 213.186 123.346C212.705 123.59 212.336 123.914 212.077 124.319C211.822 124.726 211.724 125.209 211.783 125.766Z" fill="#71C4FF"/>
<path d="M219.972 137.048L218.836 137.046L218.844 132.523L219.98 132.525L219.972 137.048ZM222.069 133.847L222.066 135.188L213.748 135.173C213.369 135.172 213.085 135.226 212.896 135.336C212.71 135.449 212.584 135.593 212.52 135.767C212.459 135.945 212.428 136.132 212.428 136.329C212.428 136.477 212.435 136.598 212.45 136.693C212.469 136.788 212.484 136.864 212.495 136.92L211.29 137.191C211.256 137.1 211.222 136.973 211.188 136.81C211.151 136.647 211.132 136.441 211.133 136.191C211.133 135.812 211.215 135.441 211.379 135.077C211.543 134.718 211.791 134.419 212.125 134.181C212.459 133.947 212.879 133.83 213.387 133.831L222.069 133.847Z" fill="#71C4FF"/>
<path d="M210.652 142.543C210.739 141.707 211 141.005 211.432 140.437C211.868 139.873 212.437 139.462 213.138 139.204C213.843 138.95 214.639 138.87 215.528 138.963C216.417 139.056 217.184 139.3 217.828 139.695C218.476 140.094 218.959 140.606 219.279 141.23C219.601 141.858 219.722 142.563 219.64 143.347C219.592 143.799 219.47 144.238 219.273 144.663C219.077 145.088 218.79 145.463 218.413 145.789C218.04 146.116 217.565 146.357 216.989 146.514C216.412 146.671 215.719 146.707 214.909 146.622L214.344 146.563L215.045 139.872L216.198 139.993L215.639 145.327C216.129 145.379 216.576 145.327 216.981 145.171C217.385 145.019 217.717 144.776 217.977 144.441C218.236 144.11 218.391 143.704 218.442 143.222C218.497 142.69 218.414 142.217 218.191 141.801C217.971 141.39 217.663 141.059 217.266 140.808C216.87 140.557 216.432 140.406 215.954 140.356L215.185 140.276C214.53 140.207 213.962 140.262 213.483 140.44C213.007 140.623 212.629 140.905 212.349 141.287C212.073 141.669 211.906 142.13 211.85 142.668C211.813 143.019 211.829 143.34 211.897 143.633C211.969 143.93 212.094 144.193 212.272 144.421C212.454 144.649 212.689 144.836 212.979 144.98L212.482 146.231C212.06 146.05 211.699 145.781 211.401 145.427C211.107 145.072 210.892 144.65 210.757 144.159C210.625 143.67 210.59 143.131 210.652 142.543Z" fill="#71C4FF"/>
<path d="M208.964 152.527C209.121 151.879 209.391 151.327 209.775 150.87C210.158 150.414 210.612 150.083 211.137 149.879C211.662 149.675 212.215 149.628 212.797 149.737L212.476 151.063C211.952 150.99 211.472 151.12 211.037 151.451C210.605 151.787 210.319 152.243 210.179 152.821C210.067 153.285 210.076 153.724 210.205 154.137C210.334 154.554 210.564 154.912 210.893 155.21C211.225 155.512 211.632 155.722 212.114 155.839C212.608 155.958 213.074 155.956 213.513 155.833C213.955 155.714 214.334 155.494 214.649 155.172C214.965 154.851 215.183 154.45 215.303 153.969C215.391 153.623 215.423 153.255 215.401 152.864C215.383 152.474 215.317 152.14 215.205 151.864L215.67 150.62L221.07 152.653L219.648 158.528L218.433 158.234L219.577 153.507L216.338 152.302L216.322 152.368C216.45 152.645 216.532 152.972 216.569 153.352C216.606 153.731 216.578 154.11 216.487 154.489C216.319 155.181 216.004 155.758 215.542 156.219C215.082 156.684 214.53 157.002 213.884 157.174C213.238 157.348 212.548 157.347 211.815 157.17C211.094 156.995 210.489 156.677 210 156.216C209.515 155.759 209.176 155.209 208.985 154.567C208.797 153.925 208.79 153.245 208.964 152.527Z" fill="#71C4FF"/>
<path d="M207.194 159.437L214.935 167.991L215.02 168.024L217.174 162.424L218.34 162.873L215.664 169.83L214.434 169.357L206.664 160.816L207.194 159.437Z" fill="#71C4FF"/>
<path d="M201.723 171.399C201.958 170.984 202.267 170.608 202.648 170.273C203.029 169.937 203.495 169.695 204.047 169.547C204.601 169.4 205.246 169.392 205.982 169.521C206.722 169.652 207.564 169.975 208.508 170.49C209.413 170.983 210.169 171.505 210.775 172.055C211.384 172.607 211.84 173.175 212.143 173.758C212.45 174.344 212.604 174.932 212.605 175.524C212.604 176.119 212.447 176.704 212.133 177.279C211.822 177.852 211.43 178.298 210.957 178.619C210.486 178.944 209.971 179.138 209.411 179.2C208.851 179.261 208.284 179.189 207.71 178.984L208.373 177.767C208.894 177.904 209.395 177.892 209.875 177.731C210.355 177.57 210.742 177.22 211.036 176.681C211.467 175.89 211.463 175.078 211.023 174.248C210.581 173.42 209.738 172.666 208.496 171.984L208.453 172.064C208.634 172.405 208.755 172.757 208.815 173.122C208.876 173.492 208.877 173.863 208.816 174.236C208.755 174.608 208.63 174.969 208.44 175.318C208.121 175.904 207.682 176.359 207.125 176.686C206.571 177.014 205.958 177.184 205.287 177.198C204.618 177.213 203.955 177.041 203.296 176.683C202.664 176.338 202.162 175.881 201.791 175.312C201.423 174.745 201.224 174.121 201.194 173.44C201.165 172.765 201.341 172.084 201.723 171.399ZM202.821 171.998C202.592 172.417 202.492 172.85 202.521 173.296C202.547 173.747 202.684 174.164 202.932 174.549C203.177 174.938 203.516 175.25 203.949 175.485C204.371 175.715 204.807 175.83 205.256 175.829C205.707 175.833 206.125 175.726 206.511 175.51C206.895 175.296 207.201 174.98 207.429 174.561C207.601 174.245 207.698 173.916 207.721 173.574C207.746 173.234 207.707 172.902 207.603 172.578C207.498 172.258 207.337 171.963 207.121 171.694C206.908 171.428 206.649 171.211 206.343 171.044C205.937 170.823 205.506 170.711 205.05 170.708C204.593 170.709 204.165 170.817 203.768 171.032C203.369 171.25 203.053 171.572 202.821 171.998Z" fill="#71C4FF"/>
<path d="M195.864 180.604C196.311 180.001 196.813 179.541 197.369 179.223C197.923 178.907 198.487 178.748 199.061 178.744C199.635 178.745 200.176 178.915 200.684 179.254L199.832 180.404C199.512 180.205 199.175 180.116 198.821 180.136C198.47 180.158 198.125 180.273 197.788 180.48C197.45 180.688 197.148 180.971 196.882 181.33C196.585 181.732 196.391 182.14 196.301 182.554C196.211 182.968 196.225 183.356 196.344 183.717C196.462 184.079 196.686 184.381 197.015 184.625C197.359 184.879 197.725 185.019 198.113 185.042C198.504 185.068 198.895 184.972 199.288 184.754C199.681 184.536 200.053 184.189 200.405 183.714L200.96 182.966L201.964 183.71L201.409 184.459C201.134 184.83 200.96 185.205 200.886 185.584C200.81 185.967 200.835 186.327 200.962 186.666C201.086 187.007 201.312 187.3 201.641 187.544C201.957 187.778 202.284 187.912 202.622 187.946C202.96 187.98 203.29 187.917 203.61 187.759C203.928 187.603 204.214 187.353 204.469 187.009C204.708 186.687 204.875 186.339 204.968 185.964C205.062 185.596 205.065 185.239 204.975 184.895C204.889 184.553 204.697 184.26 204.398 184.014L205.21 182.919C205.686 183.3 206.006 183.766 206.169 184.316C206.335 184.868 206.356 185.444 206.231 186.045C206.104 186.649 205.841 187.22 205.442 187.758C205.013 188.337 204.528 188.746 203.987 188.986C203.449 189.229 202.908 189.32 202.363 189.26C201.818 189.2 201.325 189.007 200.883 188.68C200.357 188.29 200.011 187.819 199.845 187.266C199.676 186.717 199.695 186.154 199.902 185.576L199.829 185.522C199.294 186.04 198.701 186.315 198.051 186.347C197.403 186.381 196.783 186.178 196.189 185.738C195.681 185.362 195.327 184.885 195.128 184.308C194.929 183.737 194.89 183.128 195.01 182.481C195.131 181.835 195.416 181.209 195.864 180.604Z" fill="#71C4FF"/>
<path d="M193.608 187.638L194.432 188.453L196.59 197.778L195.999 198.376L194.722 197.113L195.122 196.709L193.491 189.663L193.426 189.6L188.585 194.496L187.696 193.617L193.608 187.638ZM188.06 189.855L190.008 191.78L190.391 192.16L196.335 198.036L195.392 198.99L187.117 190.808L188.06 189.855Z" fill="#71C4FF"/>
<path d="M180.912 191.954C181.092 191.816 181.264 191.707 181.428 191.628C181.59 191.546 181.708 191.498 181.783 191.483L182.235 192.627C181.926 192.76 181.68 192.912 181.496 193.083C181.312 193.254 181.204 193.478 181.174 193.754C181.138 194.031 181.191 194.394 181.333 194.844L181.552 195.537L189.466 200.511L188.314 201.4L182.159 197.365L182.087 197.421L184.427 204.399L183.276 205.287L180.1 195.107C179.957 194.648 179.892 194.227 179.907 193.842C179.919 193.455 180.01 193.105 180.18 192.792C180.347 192.481 180.591 192.202 180.912 191.954Z" fill="#71C4FF"/>
<path d="M173.006 201.23C173.635 200.864 174.283 200.701 174.949 200.739C175.617 200.78 176.256 201.014 176.866 201.439C177.479 201.867 178.017 202.481 178.481 203.28C178.942 204.073 179.205 204.84 179.272 205.581C179.339 206.322 179.222 206.992 178.922 207.591C178.621 208.19 178.154 208.674 177.518 209.043C177.027 209.329 176.591 209.472 176.211 209.474C175.83 209.481 175.504 209.425 175.233 209.306C174.961 209.192 174.745 209.095 174.583 209.013L174.485 209.07L176.642 212.785L175.483 213.458L169.639 203.396L170.759 202.745L171.432 203.905L171.57 203.825C171.575 203.638 171.596 203.394 171.631 203.093C171.668 202.795 171.785 202.48 171.982 202.147C172.18 201.817 172.522 201.511 173.006 201.23ZM173.454 202.363C172.989 202.633 172.666 202.982 172.486 203.411C172.308 203.843 172.261 204.324 172.345 204.853C172.431 205.386 172.639 205.937 172.97 206.507C173.297 207.071 173.666 207.516 174.075 207.843C174.486 208.174 174.92 208.364 175.378 208.414C175.838 208.466 176.304 208.356 176.776 208.082C177.267 207.796 177.603 207.432 177.784 206.99C177.964 206.553 178.011 206.072 177.926 205.548C177.839 205.029 177.641 204.504 177.333 203.973C177.021 203.436 176.656 202.996 176.237 202.652C175.817 202.313 175.37 202.109 174.895 202.038C174.419 201.973 173.939 202.081 173.454 202.363Z" fill="#71C4FF"/>
<path d="M162.909 206.27C163.354 206.097 163.83 206.002 164.338 205.984C164.846 205.966 165.36 206.074 165.88 206.308C166.402 206.546 166.907 206.948 167.394 207.515C167.883 208.085 168.33 208.868 168.735 209.865C169.123 210.82 169.376 211.702 169.497 212.511C169.618 213.325 169.612 214.053 169.476 214.697C169.343 215.344 169.089 215.897 168.715 216.355C168.337 216.815 167.845 217.168 167.238 217.415C166.634 217.66 166.048 217.757 165.48 217.705C164.909 217.659 164.387 217.483 163.915 217.176C163.443 216.868 163.05 216.454 162.736 215.931L164.02 215.41C164.336 215.846 164.731 216.153 165.204 216.333C165.678 216.513 166.199 216.487 166.768 216.256C167.603 215.917 168.114 215.287 168.299 214.365C168.482 213.445 168.308 212.328 167.779 211.014L167.694 211.048C167.619 211.426 167.489 211.775 167.304 212.096C167.117 212.421 166.883 212.708 166.6 212.958C166.317 213.208 165.991 213.408 165.623 213.557C165.005 213.808 164.377 213.883 163.739 213.782C163.103 213.685 162.521 213.429 161.992 213.014C161.465 212.602 161.061 212.049 160.779 211.354C160.508 210.687 160.409 210.016 160.482 209.34C160.557 208.668 160.798 208.059 161.206 207.513C161.612 206.972 162.18 206.558 162.909 206.27ZM163.379 207.428C162.937 207.608 162.585 207.879 162.324 208.243C162.059 208.608 161.901 209.018 161.848 209.472C161.792 209.929 161.857 210.385 162.042 210.841C162.223 211.287 162.488 211.651 162.836 211.935C163.182 212.224 163.573 212.406 164.009 212.483C164.441 212.561 164.879 212.51 165.321 212.331C165.654 212.195 165.938 212.002 166.171 211.752C166.406 211.505 166.586 211.224 166.711 210.907C166.833 210.592 166.895 210.262 166.898 209.918C166.903 209.577 166.84 209.245 166.708 208.922C166.535 208.494 166.272 208.134 165.921 207.843C165.566 207.554 165.167 207.366 164.724 207.281C164.277 207.197 163.828 207.246 163.379 207.428Z" fill="#71C4FF"/>
<path d="M152.59 209.662C153.318 209.479 153.998 209.44 154.63 209.547C155.258 209.654 155.796 209.888 156.242 210.248C156.685 210.613 156.996 211.088 157.174 211.672L155.786 212.021C155.665 211.665 155.461 211.382 155.174 211.173C154.888 210.968 154.549 210.839 154.156 210.785C153.764 210.732 153.351 210.759 152.918 210.869C152.433 210.991 152.024 211.183 151.692 211.447C151.36 211.71 151.125 212.019 150.988 212.374C150.851 212.729 150.832 213.104 150.932 213.501C151.037 213.916 151.232 214.256 151.517 214.52C151.803 214.788 152.167 214.962 152.609 215.042C153.051 215.122 153.559 215.09 154.132 214.945L155.035 214.718L155.341 215.93L154.437 216.158C153.989 216.27 153.616 216.45 153.319 216.697C153.018 216.945 152.809 217.239 152.692 217.581C152.571 217.924 152.561 218.294 152.661 218.691C152.757 219.073 152.925 219.384 153.166 219.624C153.406 219.864 153.7 220.025 154.048 220.105C154.393 220.186 154.773 220.174 155.188 220.07C155.577 219.972 155.927 219.808 156.236 219.578C156.542 219.352 156.77 219.078 156.919 218.755C157.069 218.436 157.106 218.087 157.03 217.708L158.353 217.375C158.48 217.972 158.432 218.534 158.21 219.063C157.988 219.595 157.639 220.054 157.162 220.44C156.681 220.827 156.116 221.102 155.466 221.266C154.768 221.441 154.133 221.451 153.562 221.294C152.993 221.14 152.516 220.868 152.132 220.476C151.748 220.085 151.489 219.622 151.355 219.09C151.195 218.454 151.226 217.87 151.447 217.338C151.665 216.807 152.037 216.383 152.563 216.067L152.541 215.979C151.798 216.041 151.166 215.878 150.642 215.49C150.12 215.106 149.768 214.556 149.588 213.84C149.433 213.226 149.462 212.633 149.673 212.061C149.882 211.492 150.237 210.997 150.74 210.573C151.243 210.15 151.859 209.846 152.59 209.662Z" fill="#71C4FF"/>
<path d="M145.395 211.355L141.387 222.173L141.397 222.263L147.359 221.585L147.5 222.827L140.093 223.669L139.944 222.359L143.927 211.522L145.395 211.355Z" fill="#71C4FF"/>
<path d="M135.901 212.277L135.882 213.3L131.963 217.432C131.504 217.916 131.124 218.337 130.826 218.695C130.528 219.057 130.305 219.398 130.159 219.717C130.009 220.04 129.931 220.38 129.924 220.736C129.917 221.145 130.008 221.501 130.2 221.803C130.387 222.106 130.648 222.342 130.982 222.511C131.316 222.68 131.693 222.769 132.114 222.777C132.561 222.785 132.952 222.7 133.289 222.52C133.622 222.345 133.882 222.094 134.07 221.768C134.255 221.442 134.351 221.057 134.359 220.614L135.7 220.639C135.687 221.321 135.519 221.916 135.195 222.425C134.871 222.934 134.435 223.328 133.888 223.606C133.338 223.883 132.723 224.016 132.045 224.003C131.364 223.99 130.762 223.835 130.241 223.537C129.72 223.24 129.315 222.844 129.025 222.35C128.734 221.856 128.595 221.309 128.606 220.711C128.614 220.283 128.7 219.866 128.863 219.46C129.022 219.057 129.295 218.61 129.683 218.117C130.067 217.628 130.6 217.032 131.279 216.328L133.945 213.582L133.947 213.491L128.538 213.39L128.562 212.14L135.901 212.277Z" fill="#71C4FF"/>
<path d="M121.307 211.103C122.047 211.222 122.687 211.455 123.226 211.802C123.761 212.148 124.163 212.575 124.431 213.082C124.695 213.592 124.793 214.151 124.727 214.758L123.313 214.532C123.342 214.157 123.266 213.816 123.085 213.511C122.903 213.21 122.642 212.957 122.303 212.753C121.963 212.549 121.573 212.412 121.132 212.341C120.638 212.262 120.187 212.278 119.778 212.389C119.368 212.5 119.031 212.692 118.765 212.964C118.499 213.236 118.334 213.574 118.269 213.978C118.201 214.4 118.247 214.789 118.405 215.145C118.562 215.503 118.828 215.807 119.203 216.055C119.577 216.303 120.056 216.473 120.64 216.567L121.56 216.714L121.362 217.948L120.442 217.801C119.986 217.728 119.573 217.746 119.202 217.856C118.828 217.965 118.52 218.153 118.277 218.421C118.031 218.689 117.876 219.024 117.811 219.428C117.749 219.817 117.781 220.17 117.907 220.485C118.033 220.801 118.24 221.064 118.528 221.275C118.813 221.486 119.167 221.625 119.589 221.692C119.986 221.756 120.372 221.743 120.747 221.653C121.117 221.567 121.435 221.404 121.699 221.167C121.963 220.933 122.135 220.627 122.214 220.248L123.561 220.463C123.442 221.062 123.176 221.56 122.763 221.959C122.35 222.36 121.848 222.644 121.258 222.811C120.663 222.977 120.035 223.007 119.373 222.901C118.662 222.787 118.076 222.545 117.613 222.176C117.15 221.81 116.819 221.372 116.621 220.861C116.423 220.349 116.367 219.823 116.454 219.28C116.557 218.633 116.816 218.109 117.229 217.707C117.639 217.304 118.148 217.062 118.756 216.979L118.77 216.889C118.063 216.653 117.546 216.254 117.218 215.691C116.889 215.132 116.783 214.488 116.9 213.759C117 213.134 117.26 212.6 117.68 212.157C118.095 211.717 118.618 211.402 119.247 211.211C119.876 211.02 120.562 210.984 121.307 211.103Z" fill="#71C4FF"/>
<path d="M111.073 208.753C111.711 208.947 112.247 209.249 112.68 209.659C113.114 210.068 113.417 210.541 113.59 211.077C113.763 211.613 113.778 212.168 113.635 212.742L112.331 212.344C112.433 211.825 112.332 211.339 112.027 210.885C111.717 210.434 111.278 210.122 110.709 209.949C110.252 209.809 109.814 209.792 109.394 209.898C108.97 210.002 108.599 210.21 108.283 210.522C107.961 210.835 107.728 211.23 107.584 211.704C107.435 212.19 107.41 212.655 107.508 213.101C107.601 213.549 107.799 213.94 108.101 214.274C108.403 214.607 108.791 214.848 109.264 214.997C109.604 215.104 109.97 215.158 110.361 215.159C110.752 215.163 111.089 215.118 111.372 215.022L112.586 215.558L110.242 220.831L104.459 219.068L104.824 217.872L109.476 219.291L110.868 216.127L110.803 216.107C110.519 216.219 110.187 216.282 109.807 216.297C109.426 216.311 109.049 216.262 108.676 216.148C107.995 215.94 107.438 215.592 107.004 215.104C106.566 214.618 106.281 214.047 106.148 213.393C106.011 212.738 106.053 212.049 106.273 211.328C106.489 210.618 106.842 210.033 107.331 209.572C107.815 209.114 108.384 208.808 109.036 208.654C109.688 208.505 110.367 208.537 111.073 208.753Z" fill="#71C4FF"/>
<path d="M103.831 209.047L103.341 210.098L95.2911 215.275L94.5287 214.92L95.2864 213.292L95.8015 213.532L101.884 209.62L101.923 209.538L95.6794 206.632L96.2069 205.498L103.831 209.047ZM99.8719 204.572L98.7162 207.055L98.4884 207.544L94.9614 215.122L93.7457 214.556L98.6562 204.006L99.8719 204.572Z" fill="#71C4FF"/>
<path d="M91.4605 199.674C92.0201 200.037 92.4518 200.475 92.7559 200.987C93.06 201.5 93.2215 202.038 93.2405 202.601C93.2595 203.164 93.121 203.702 92.8252 204.214L91.6807 203.473C91.9225 203.002 91.959 202.507 91.7904 201.987C91.6165 201.468 91.28 201.047 90.7809 200.723C90.3803 200.464 89.9635 200.327 89.5305 200.313C89.0942 200.296 88.681 200.394 88.2909 200.606C87.8955 200.82 87.5629 201.135 87.2931 201.551C87.0171 201.977 86.8648 202.418 86.8361 202.873C86.8022 203.329 86.8845 203.76 87.0832 204.164C87.2818 204.568 87.5883 204.906 88.0027 205.179C88.2995 205.376 88.6361 205.528 89.0126 205.637C89.3871 205.749 89.7234 205.797 90.0216 205.783L91.0414 206.633L87.3362 211.057L82.2624 207.77L82.942 206.721L87.0239 209.365L89.2332 206.707L89.176 206.67C88.8727 206.699 88.5361 206.669 88.1661 206.578C87.7961 206.487 87.4474 206.336 87.12 206.124C86.5223 205.736 86.0825 205.248 85.8005 204.66C85.5133 204.072 85.3958 203.445 85.448 202.779C85.497 202.112 85.7264 201.461 86.1363 200.829C86.5399 200.206 87.0402 199.74 87.6371 199.431C88.2288 199.124 88.8595 198.987 89.5292 199.019C90.1968 199.054 90.8406 199.273 91.4605 199.674Z" fill="#71C4FF"/>
<path d="M84.1755 194.675L80.3108 202.94L79.2638 201.997L82.3338 195.769L82.2662 195.709L76.4098 199.426L75.3459 198.468L78.4344 192.288L78.3669 192.227L72.5087 195.913L71.4617 194.97L79.2781 190.265L80.2576 191.147L77.1893 197.406L77.2906 197.497L83.196 193.793L84.1755 194.675Z" fill="#71C4FF"/>
<path d="M73.5833 187.882L72.6767 188.604L63.1622 189.646L62.6382 188.989L64.0425 187.87L64.3965 188.314L71.5857 187.527L71.6568 187.47L67.3658 182.084L68.3434 181.305L73.5833 187.882ZM72.0367 182.111L69.8948 183.818L69.4726 184.154L62.9356 189.362L62.1001 188.313L71.2012 181.062L72.0367 182.111Z" fill="#71C4FF"/>
<path d="M68.2359 176.876L56.7258 177.651L56.6476 177.698L59.7081 182.858L58.633 183.496L54.8305 177.084L55.9643 176.412L67.4824 175.606L68.2359 176.876Z" fill="#71C4FF"/>
<path d="M54.0519 168.751L55.0819 168.271L57.069 172.535L56.0389 173.015L54.0519 168.751ZM63.3544 168.052L54.352 172.246C53.8987 172.458 53.4715 172.527 53.0701 172.455C52.6688 172.383 52.3134 172.212 52.0039 171.943C51.6945 171.673 51.4518 171.349 51.2758 170.972C51.1366 170.673 51.047 170.418 51.0071 170.207C50.9672 169.996 50.9462 169.834 50.9442 169.722L52.1581 169.583C52.1663 169.654 52.1805 169.752 52.2008 169.876C52.2195 169.997 52.2696 170.145 52.3512 170.32C52.5384 170.722 52.7749 170.965 53.0607 171.049C53.3448 171.13 53.6826 171.079 54.074 170.897L62.7881 166.836L63.3544 168.052Z" fill="#71C4FF"/>
<path d="M59.11 164.645L58.0127 165.018L48.7057 162.784L48.4348 161.988L50.1345 161.409L50.3175 161.947L57.35 163.635L57.436 163.606L55.2174 157.087L56.4008 156.684L59.11 164.645ZM59.6045 158.691L57.0118 159.573L56.5008 159.747L48.5885 162.44L48.1565 161.17L59.1724 157.421L59.6045 158.691Z" fill="#71C4FF"/>
<path d="M45.1555 151.445L59.5665 152.137L59.8283 153.336L45.4172 152.644L45.1555 151.445Z" fill="#71C4FF"/>
<path d="M51.3131 144.902L48.8198 145.106L50.3999 147.047L49.5161 147.701L48.1032 145.625L47.214 147.973L46.202 147.544L47.285 145.287L44.8131 145.672L44.6848 144.588L47.1781 144.385L45.5979 142.443L46.4817 141.789L47.8947 143.865L48.7838 141.517L49.7959 141.946L48.7128 144.203L51.1848 143.819L51.3131 144.902Z" fill="#71C4FF"/>
<path d="M43.5255 133.968L57.5334 137.423L57.5594 138.65L43.5514 135.195L43.5255 133.968Z" fill="#71C4FF"/>
<path d="M50.8261 128.857L48.3403 128.576L49.5161 130.786L48.5227 131.257L47.5369 128.947L46.2113 131.08L45.3011 130.463L46.7994 128.458L44.2997 128.358L44.383 127.27L46.8687 127.551L45.693 125.342L46.6863 124.871L47.6721 127.18L48.9978 125.047L49.9079 125.664L48.4097 127.669L50.9093 127.769L50.8261 128.857Z" fill="#71C4FF"/>
<path d="M51.9765 116.783L53.2051 117.014L52.2658 122.017L51.0373 121.787L51.9765 116.783Z" fill="#71C4FF"/>
<path d="M47.635 107.568L59.9985 115.004L59.661 116.184L47.2975 108.748L47.635 107.568Z" fill="#71C4FF"/>
<path d="M57.6892 108.081L56.6172 107.64L51.0788 99.8339L51.3986 99.0562L53.0591 99.7389L52.8431 100.264L57.0281 106.163L57.1122 106.197L59.7309 99.8283L60.887 100.304L57.6892 108.081ZM61.9792 103.923L59.4463 102.881L58.9471 102.676L51.2171 99.4976L51.727 98.2574L62.4891 102.682L61.9792 103.923Z" fill="#71C4FF"/>
<path d="M56.2083 89.5195L66.3841 95.1636L65.7007 96.3958L56.8166 91.4682L56.7836 91.5279L57.0552 94.9272L55.8031 94.2327L55.5248 90.7517L56.2083 89.5195Z" fill="#71C4FF"/>
<path d="M65.8472 91.2707L64.9069 90.593L61.3328 81.7139L61.8244 81.0317L63.281 82.0815L62.9488 82.5424L65.6497 89.2514L65.7234 89.3045L69.7497 83.7178L70.7638 84.4487L65.8472 91.2707ZM70.9856 88.2224L68.7638 86.6212L68.3259 86.3056L61.5454 81.4189L62.3294 80.3311L71.7696 87.1346L70.9856 88.2224Z" fill="#71C4FF"/>
<path d="M74.7406 83.3902L74.0031 82.6816L73.6326 76.9989C73.5898 76.3327 73.5384 75.7684 73.4783 75.3062C73.4154 74.8413 73.3165 74.4468 73.1814 74.1226C73.0462 73.7931 72.8503 73.505 72.5935 73.2583C72.2986 72.9749 71.9749 72.8005 71.6227 72.7352C71.2731 72.6672 70.9227 72.6983 70.5717 72.8285C70.2207 72.9587 69.8995 73.1754 69.6082 73.4786C69.2985 73.8009 69.0951 74.1465 68.998 74.5155C68.9008 74.8791 68.908 75.2406 69.0196 75.6C69.1339 75.9568 69.3508 76.2886 69.6704 76.5957L68.7413 77.5626C68.2497 77.0902 67.9271 76.5622 67.7734 75.9785C67.6198 75.3949 67.6268 74.8081 67.7946 74.218C67.9649 73.6253 68.285 73.0844 68.7547 72.5955C69.2272 72.1039 69.7496 71.768 70.3219 71.5878C70.8943 71.4076 71.4603 71.3789 72.02 71.5016C72.5797 71.6244 73.0753 71.8932 73.5069 72.3078C73.8155 72.6044 74.0635 72.9504 74.2509 73.3458C74.4382 73.7359 74.5808 74.2407 74.6789 74.8603C74.7769 75.4745 74.8531 76.27 74.9074 77.2467L75.1122 81.0682L75.1777 81.1312L78.9255 77.2308L79.8268 78.0969L74.7406 83.3902Z" fill="#71C4FF"/>
<path d="M85.4754 73.5015C84.8861 73.9654 84.2812 74.2779 83.6606 74.4387C83.0429 74.5972 82.4569 74.603 81.9025 74.4562C81.3488 74.304 80.8714 73.9977 80.4703 73.5373L81.5952 72.6516C81.851 72.9274 82.1526 73.1022 82.4999 73.1759C82.8448 73.2466 83.2073 73.2263 83.5874 73.1151C83.9674 73.0038 84.333 72.8099 84.6842 72.5334C85.0771 72.2241 85.3713 71.8815 85.5671 71.5056C85.7629 71.1296 85.851 70.7517 85.8314 70.3718C85.8119 69.9918 85.6756 69.6411 85.4225 69.3197C85.1577 68.9834 84.8412 68.7529 84.473 68.6282C84.1025 68.5005 83.6991 68.4903 83.2629 68.5976C82.8266 68.7048 82.3764 68.9412 81.9121 69.3068L81.18 69.8833L80.4067 68.9012L81.1388 68.3247C81.5019 68.0388 81.7688 67.7226 81.9394 67.3761C82.1131 67.0272 82.1836 66.6728 82.1509 66.3129C82.1211 65.9506 81.9797 65.6087 81.7266 65.2873C81.4829 64.9778 81.2024 64.7624 80.8851 64.641C80.5677 64.5197 80.2337 64.4934 79.8829 64.5623C79.5352 64.6288 79.1931 64.7945 78.8568 65.0593C78.5414 65.3077 78.2895 65.6001 78.1011 65.9364C77.9134 66.2674 77.8173 66.6107 77.8128 66.9662C77.8059 67.3187 77.9145 67.6526 78.1387 67.9679L77.0673 68.8115C76.7079 68.3183 76.5218 67.785 76.5091 67.2117C76.494 66.6354 76.6255 66.0738 76.9037 65.527C77.1848 64.9778 77.5887 64.4958 78.1154 64.081C78.6809 63.6358 79.2562 63.3684 79.8414 63.2788C80.4242 63.1863 80.9707 63.2405 81.4809 63.4415C81.9911 63.6424 82.416 63.9586 82.7558 64.3902C83.1612 64.905 83.3715 65.4506 83.3865 66.0269C83.4046 66.6009 83.238 67.1394 82.8869 67.6425L82.9431 67.7139C83.5955 67.3546 84.2397 67.2451 84.8757 67.3855C85.5094 67.5229 86.0548 67.8817 86.5117 68.4621C86.903 68.959 87.1191 69.5121 87.16 70.1211C87.2015 70.7249 87.0791 71.3226 86.793 71.9143C86.5068 72.5061 86.0676 73.0351 85.4754 73.5015Z" fill="#71C4FF"/>
<path d="M89.5016 67.3095L88.922 66.3058L89.3039 56.742L90.0321 56.3215L90.93 57.8763L90.438 58.1604L90.1497 65.3868L90.1951 65.4656L96.1585 62.0217L96.7836 63.1041L89.5016 67.3095ZM95.4382 66.6369L94.0686 64.2653L93.7987 63.7979L89.6188 56.5601L90.78 55.8896L96.5994 65.9663L95.4382 66.6369Z" fill="#71C4FF"/>
<path d="M104.31 62.5566C103.691 62.8054 103.085 62.9065 102.49 62.8598C101.896 62.8132 101.363 62.6355 100.892 62.327C100.421 62.0184 100.061 61.5957 99.8122 61.0588L101.077 60.5498C101.323 61.0185 101.707 61.3336 102.229 61.4951C102.754 61.6516 103.292 61.6189 103.843 61.397C104.286 61.2188 104.638 60.9568 104.899 60.611C105.163 60.2637 105.321 59.8695 105.372 59.4283C105.426 58.9823 105.36 58.5291 105.175 58.0687C104.985 57.5978 104.713 57.2196 104.357 56.934C104.003 56.6435 103.604 56.4631 103.159 56.393C102.715 56.3228 102.261 56.3785 101.8 56.5602C101.468 56.6896 101.149 56.8769 100.844 57.1223C100.537 57.3642 100.303 57.6112 100.144 57.8633L98.8612 58.2076L97.3775 52.6312L102.986 50.3751L103.453 51.5347L98.9404 53.3499L99.8416 56.6864L99.9049 56.661C100.056 56.3962 100.275 56.1387 100.562 55.8884C100.849 55.6381 101.174 55.4402 101.535 55.2946C102.196 55.0288 102.848 54.9502 103.492 55.0587C104.138 55.1622 104.718 55.427 105.233 55.8529C105.75 56.2775 106.15 56.8394 106.431 57.5387C106.708 58.2275 106.801 58.9047 106.71 59.5703C106.62 60.2309 106.369 60.8258 105.958 61.3549C105.544 61.8804 104.995 62.281 104.31 62.5566Z" fill="#71C4FF"/>
<path d="M114.34 59.2733C113.875 59.3823 113.39 59.4105 112.884 59.3578C112.379 59.3052 111.885 59.1267 111.402 58.8224C110.919 58.5143 110.475 58.0459 110.071 57.4171C109.666 56.7847 109.332 55.9468 109.07 54.9035C108.818 53.9043 108.69 52.9954 108.683 52.1769C108.675 51.3547 108.783 50.6343 109.007 50.0157C109.229 49.3934 109.557 48.8813 109.991 48.4792C110.429 48.0763 110.966 47.7949 111.601 47.6351C112.233 47.4763 112.827 47.4617 113.383 47.5914C113.942 47.7166 114.434 47.964 114.858 48.3336C115.283 48.7033 115.615 49.1687 115.854 49.7297L114.509 50.0677C114.257 49.5921 113.909 49.2325 113.465 48.9887C113.021 48.7449 112.501 48.6978 111.906 48.8474C111.032 49.0672 110.438 49.6206 110.126 50.5075C109.818 51.3936 109.835 52.524 110.176 53.8988L110.264 53.8767C110.392 53.5127 110.569 53.185 110.796 52.8934C111.027 52.5973 111.299 52.3452 111.614 52.1372C111.929 51.9292 112.279 51.7766 112.665 51.6797C113.311 51.5171 113.944 51.5301 114.561 51.7185C115.178 51.9033 115.719 52.2379 116.184 52.7224C116.649 53.2031 116.973 53.8072 117.156 54.5346C117.331 55.2326 117.336 55.911 117.169 56.5699C117.002 57.2252 116.678 57.7947 116.199 58.2786C115.722 58.7579 115.102 59.0894 114.34 59.2733ZM114.035 58.061C114.498 57.9446 114.884 57.7245 115.193 57.4007C115.506 57.076 115.72 56.6922 115.835 56.2492C115.954 55.8053 115.953 55.3446 115.833 54.8671C115.716 54.4005 115.504 54.0025 115.199 53.6731C114.896 53.3391 114.534 53.1039 114.114 52.9676C113.696 52.8304 113.256 52.8199 112.793 52.9363C112.444 53.024 112.137 53.1755 111.871 53.3909C111.604 53.6025 111.386 53.8564 111.218 54.1524C111.054 54.4475 110.947 54.7655 110.896 55.1064C110.844 55.4437 110.86 55.7813 110.945 56.1192C111.058 56.5674 111.268 56.9599 111.575 57.2966C111.886 57.6325 112.256 57.8736 112.683 58.02C113.114 58.1655 113.565 58.1792 114.035 58.061Z" fill="#71C4FF"/>
<path d="M126.637 50.1659L125.48 50.645C125.382 50.4545 125.248 50.2737 125.079 50.1029C124.913 49.9278 124.699 49.7928 124.436 49.6978C124.174 49.6028 123.848 49.578 123.461 49.6235C122.93 49.6858 122.503 49.86 122.178 50.1461C121.856 50.4279 121.717 50.7551 121.761 51.1275C121.8 51.4586 121.951 51.7059 122.214 51.8695C122.478 52.0331 122.873 52.1488 123.399 52.2166L124.723 52.3815C125.52 52.4786 126.131 52.6986 126.557 53.0415C126.982 53.3806 127.23 53.853 127.301 54.4587C127.359 54.9553 127.269 55.416 127.029 55.8408C126.792 56.2652 126.434 56.6201 125.952 56.9054C125.471 57.1908 124.893 57.373 124.22 57.4521C123.336 57.5559 122.582 57.45 121.957 57.1343C121.333 56.8186 120.9 56.3011 120.659 55.5819L121.886 55.1174C122.062 55.5698 122.33 55.8929 122.692 56.0868C123.058 56.2803 123.514 56.345 124.06 56.281C124.68 56.2081 125.158 56.0185 125.492 55.7123C125.829 55.4019 125.976 55.0605 125.932 54.6881C125.897 54.3871 125.762 54.1474 125.527 53.969C125.292 53.7869 124.951 53.6706 124.502 53.6203L123.018 53.4513C122.202 53.3564 121.585 53.1334 121.166 52.7821C120.75 52.4266 120.508 51.9498 120.437 51.3516C120.38 50.8626 120.466 50.4138 120.697 50.0053C120.931 49.5965 121.274 49.2567 121.727 48.9862C122.183 48.7152 122.716 48.5439 123.326 48.4724C124.183 48.3716 124.879 48.4807 125.412 48.7994C125.949 49.1178 126.357 49.5733 126.637 50.1659Z" fill="#71C4FF"/>
<path d="M130.817 56.7034L136.024 46.4093L136.024 46.3184L130.024 46.3169L130.024 45.0669L137.479 45.0687L137.479 46.3869L132.294 56.7038L130.817 56.7034Z" fill="#71C4FF"/>
<path d="M143.173 57.4848C142.338 57.3798 141.642 57.105 141.083 56.6606C140.529 56.2128 140.13 55.6357 139.886 54.9294C139.647 54.2197 139.584 53.4215 139.695 52.5345C139.807 51.6476 140.067 50.8862 140.475 50.2504C140.888 49.6113 141.409 49.1386 142.04 48.8324C142.674 48.5228 143.382 48.4172 144.164 48.5156C144.615 48.5724 145.051 48.7036 145.472 48.9093C145.892 49.115 146.262 49.4096 146.58 49.7933C146.899 50.1732 147.131 50.6528 147.275 51.2322C147.42 51.8117 147.441 52.5054 147.34 53.3134L147.269 53.8771L140.594 53.0371L140.739 51.887L146.061 52.5568C146.122 52.0683 146.079 51.62 145.932 51.2121C145.789 50.8046 145.552 50.4675 145.223 50.2009C144.898 49.9347 144.495 49.7713 144.014 49.7108C143.484 49.6441 143.009 49.7179 142.588 49.9322C142.172 50.1433 141.835 50.4444 141.576 50.8356C141.316 51.2267 141.157 51.6609 141.097 52.1382L141 52.9049C140.918 53.5588 140.961 54.1274 141.129 54.6105C141.302 55.0903 141.576 55.4742 141.952 55.762C142.329 56.0461 142.786 56.222 143.323 56.2896C143.673 56.3336 143.994 56.3245 144.289 56.2623C144.587 56.1968 144.852 56.0774 145.084 55.9042C145.316 55.7273 145.507 55.4956 145.658 55.2091L146.898 55.7317C146.708 56.1506 146.432 56.5054 146.071 56.7959C145.71 57.0826 145.284 57.2885 144.791 57.4135C144.298 57.5348 143.759 57.5586 143.173 57.4848Z" fill="#71C4FF"/>
<path d="M149.574 58.3529L151.596 49.863L152.856 50.1631L152.551 51.4455L152.639 51.4665C152.894 51.0833 153.255 50.8091 153.723 50.644C154.191 50.4789 154.679 50.4569 155.187 50.578C155.283 50.6008 155.402 50.6312 155.545 50.6691C155.688 50.707 155.795 50.7384 155.867 50.7633L155.551 52.0899C155.51 52.0683 155.412 52.0276 155.259 51.9677C155.111 51.9051 154.95 51.8531 154.777 51.8119C154.364 51.7136 153.975 51.7125 153.609 51.8084C153.248 51.9016 152.938 52.0769 152.678 52.3343C152.423 52.5889 152.249 52.9078 152.158 53.291L150.879 58.6635L149.574 58.3529Z" fill="#71C4FF"/>
<path d="M159.523 61.3586C158.79 61.0935 158.188 60.7292 157.719 60.2657C157.255 59.8 156.949 59.2807 156.802 58.7079C156.656 58.1315 156.691 57.5483 156.909 56.9582C157.072 56.4938 157.318 56.0991 157.644 55.7742C157.973 55.4457 158.345 55.2075 158.76 55.0598C159.181 54.9097 159.604 54.8711 160.029 54.9441L160.052 54.8799C159.577 54.5553 159.266 54.1108 159.12 53.5464C158.975 52.9784 159.009 52.4048 159.222 51.8254C159.42 51.2683 159.74 50.8222 160.183 50.487C160.626 50.1518 161.143 49.9478 161.733 49.8751C162.327 49.8036 162.944 49.8838 163.586 50.1155C164.22 50.3446 164.741 50.6757 165.148 51.1088C165.555 51.542 165.822 52.0291 165.949 52.5703C166.079 53.1127 166.046 53.6625 165.848 54.2195C165.635 54.7989 165.289 55.26 164.811 55.6027C164.338 55.9431 163.82 56.0884 163.258 56.0384L163.235 56.1025C163.605 56.3166 163.9 56.6146 164.12 56.9963C164.342 57.3745 164.476 57.7954 164.522 58.2591C164.569 58.7192 164.511 59.1814 164.347 59.6458C164.13 60.2359 163.779 60.7052 163.295 61.0538C162.815 61.4001 162.248 61.604 161.593 61.6655C160.944 61.7248 160.254 61.6225 159.523 61.3586ZM159.948 60.183C160.443 60.3619 160.9 60.4362 161.318 60.4059C161.735 60.3756 162.095 60.2498 162.396 60.0285C162.698 59.8071 162.921 59.5012 163.066 59.1106C163.212 58.6961 163.237 58.2923 163.142 57.8993C163.046 57.5063 162.849 57.1533 162.551 56.8403C162.257 56.5286 161.879 56.2891 161.416 56.1218C160.949 55.9532 160.499 55.8934 160.067 55.9425C159.638 55.9929 159.261 56.1387 158.936 56.3798C158.615 56.6222 158.381 56.9507 158.236 57.3652C158.09 57.7558 158.061 58.1319 158.148 58.4935C158.239 58.8564 158.436 59.1837 158.742 59.4753C159.047 59.7669 159.449 60.0028 159.948 60.183ZM161.825 54.9889C162.217 55.1305 162.592 55.1776 162.952 55.1303C163.315 55.0842 163.634 54.952 163.911 54.7337C164.187 54.5153 164.395 54.218 164.535 53.8416C164.665 53.4698 164.695 53.1159 164.623 52.7798C164.552 52.4401 164.392 52.1408 164.144 51.8818C163.896 51.6192 163.571 51.4152 163.169 51.2697C162.759 51.1217 162.373 51.0689 162.012 51.1114C161.651 51.1503 161.337 51.2785 161.069 51.4958C160.803 51.7097 160.604 52.0025 160.474 52.3742C160.334 52.7506 160.299 53.1104 160.368 53.4536C160.441 53.7981 160.602 54.1041 160.852 54.3715C161.102 54.639 161.426 54.8448 161.825 54.9889Z" fill="#71C4FF"/>
<path d="M169.611 65.792C168.948 65.4418 168.417 65.0156 168.018 64.5137C167.623 64.0135 167.38 63.4803 167.289 62.914C167.203 62.3462 167.29 61.7856 167.548 61.2321L168.814 61.9008C168.665 62.2466 168.628 62.5931 168.702 62.9404C168.777 63.2843 168.943 63.6074 169.198 63.9096C169.454 64.2119 169.78 64.4673 170.175 64.6761C170.617 64.9096 171.05 65.0395 171.473 65.0659C171.896 65.0923 172.277 65.0194 172.616 64.8474C172.956 64.6753 173.221 64.4084 173.412 64.0467C173.612 63.6682 173.694 63.2854 173.659 62.8983C173.625 62.5078 173.471 62.135 173.196 61.7798C172.92 61.4246 172.522 61.1091 171.999 60.8331L171.175 60.3979L171.759 59.2926L172.583 59.7278C172.992 59.9436 173.389 60.0592 173.775 60.0746C174.164 60.0917 174.517 60.0123 174.832 59.8363C175.151 59.6622 175.406 59.3942 175.598 59.0324C175.782 58.6841 175.865 58.3403 175.847 58.001C175.829 57.6617 175.717 57.3458 175.512 57.0532C175.31 56.7623 175.02 56.5169 174.641 56.317C174.286 56.1295 173.917 56.0179 173.533 55.9823C173.154 55.945 172.802 55.9965 172.475 56.1366C172.15 56.2734 171.889 56.5082 171.692 56.841L170.486 56.2042C170.791 55.6755 171.203 55.2891 171.721 55.0448C172.242 54.7971 172.809 54.6894 173.421 54.7217C174.037 54.7557 174.642 54.9293 175.235 55.2424C175.871 55.5785 176.349 55.9958 176.668 56.4943C176.989 56.9895 177.161 57.511 177.185 58.0588C177.208 58.6066 177.092 59.1233 176.835 59.609C176.529 60.1884 176.116 60.602 175.595 60.8496C175.078 61.0991 174.518 61.1654 173.916 61.0486L173.873 61.129C174.467 61.5794 174.828 62.1237 174.958 62.762C175.089 63.3969 174.983 64.041 174.638 64.6941C174.342 65.2535 173.925 65.6754 173.385 65.9599C172.85 66.2428 172.254 66.3736 171.597 66.3522C170.94 66.3308 170.278 66.144 169.611 65.792Z" fill="#71C4FF"/>
<path d="M176.899 66.9543L177.58 66.0161L186.47 62.4703L187.151 62.9642L186.096 64.4174L185.637 64.0837L178.919 66.7632L178.866 66.8368L184.44 70.8808L183.705 71.8926L176.899 66.9543ZM179.931 72.1024L181.539 69.8857L181.856 69.4488L186.765 62.6839L187.85 63.4713L181.016 72.8898L179.931 72.1024Z" fill="#71C4FF"/>
<path d="M187.251 78.5119C186.771 78.0494 186.43 77.5374 186.23 76.9758C186.029 76.4143 185.973 75.8555 186.062 75.2993C186.151 74.7431 186.389 74.2417 186.777 73.7952L187.759 74.7413C187.432 75.1572 187.302 75.6365 187.368 76.1791C187.44 76.7216 187.69 77.1991 188.118 77.6117C188.462 77.9428 188.845 78.1567 189.267 78.2533C189.693 78.3525 190.117 78.3353 190.54 78.2015C190.969 78.0676 191.356 77.8219 191.7 77.4646C192.052 77.099 192.286 76.6955 192.401 76.254C192.521 75.8125 192.522 75.3744 192.404 74.94C192.286 74.5055 192.05 74.1148 191.695 73.7678C191.441 73.518 191.14 73.304 190.791 73.1256C190.445 72.9446 190.124 72.8327 189.829 72.79L188.99 71.7608L193.471 68.1251L197.824 72.3194L196.957 73.2196L193.454 69.8452L190.779 72.0329L190.828 72.0802C191.131 72.1093 191.456 72.2037 191.802 72.3634C192.148 72.523 192.461 72.7382 192.742 73.0089C193.255 73.503 193.593 74.0659 193.758 74.6978C193.928 75.3295 193.924 75.9671 193.745 76.6107C193.57 77.2569 193.221 77.8515 192.698 78.3943C192.183 78.929 191.603 79.2907 190.958 79.4795C190.318 79.6683 189.673 79.683 189.022 79.5237C188.373 79.3616 187.783 79.0244 187.251 78.5119Z" fill="#71C4FF"/>
<path d="M194.423 86.4074C193.959 85.8184 193.646 85.2137 193.485 84.5931C193.326 83.9756 193.32 83.3896 193.467 82.8351C193.618 82.2813 193.924 81.8037 194.385 81.4023L195.271 82.5267C194.995 82.7827 194.821 83.0843 194.747 83.4317C194.677 83.7767 194.697 84.1391 194.809 84.5191C194.92 84.8991 195.114 85.2646 195.391 85.6156C195.7 86.0083 196.043 86.3024 196.419 86.4979C196.795 86.6935 197.173 86.7813 197.553 86.7616C197.933 86.7418 198.284 86.6053 198.605 86.352C198.941 86.087 199.172 85.7704 199.296 85.4021C199.423 85.0315 199.433 84.6281 199.326 84.192C199.218 83.7558 198.982 83.3057 198.616 82.8416L198.039 82.1099L199.021 81.336L199.598 82.0677C199.884 82.4306 200.2 82.6973 200.547 82.8678C200.896 83.0413 201.25 83.1115 201.61 83.0786C201.972 83.0487 202.314 82.907 202.635 82.6538C202.945 82.4099 203.16 82.1292 203.281 81.8118C203.402 81.4944 203.428 81.1603 203.359 80.8096C203.292 80.4619 203.127 80.12 202.862 79.7838C202.613 79.4685 202.32 79.2168 201.984 79.0286C201.653 78.8411 201.31 78.7452 200.954 78.7409C200.602 78.7342 200.268 78.8431 199.953 79.0674L199.108 77.9965C199.601 77.6368 200.134 77.4504 200.708 77.4374C201.284 77.4219 201.846 77.5531 202.393 77.8309C202.942 78.1117 203.424 78.5154 203.839 79.0419C204.285 79.607 204.553 80.1822 204.643 80.7673C204.736 81.3501 204.682 81.8966 204.481 82.4069C204.28 82.9172 203.964 83.3424 203.533 83.6824C203.018 84.0881 202.473 84.2987 201.897 84.3141C201.323 84.3325 200.784 84.1663 200.281 83.8154L200.209 83.8717C200.569 84.5238 200.679 85.1679 200.539 85.8041C200.402 86.4379 200.043 86.9834 199.463 87.4407C198.967 87.8324 198.414 88.0488 197.805 88.09C197.201 88.1318 196.603 88.0098 196.011 87.724C195.419 87.4382 194.89 86.9993 194.423 86.4074Z" fill="#71C4FF"/>
<path d="M200.618 90.4302L201.621 89.8499L211.185 90.2262L211.606 90.9542L210.052 91.853L209.767 91.3611L202.541 91.0771L202.462 91.1226L205.91 97.0839L204.827 97.7097L200.618 90.4302ZM201.294 96.3663L203.665 94.9953L204.132 94.7251L211.367 90.541L212.038 91.7018L201.965 97.5271L201.294 96.3663Z" fill="#71C4FF"/>
<path d="M205.418 105.329C205.128 104.605 205.001 103.913 205.036 103.255C205.075 102.598 205.26 102.025 205.59 101.534C205.924 101.042 206.383 100.681 206.969 100.451C207.424 100.265 207.882 100.186 208.342 100.214C208.806 100.241 209.231 100.361 209.618 100.573C210.009 100.788 210.319 101.078 210.547 101.444L210.61 101.419C210.537 100.848 210.663 100.321 210.988 99.8364C211.316 99.3505 211.767 98.9948 212.342 98.7692C212.889 98.5464 213.435 98.4893 213.98 98.5979C214.525 98.7064 215.021 98.957 215.468 99.3497C215.916 99.7458 216.266 100.261 216.519 100.894C216.769 101.52 216.868 102.129 216.815 102.721C216.762 103.313 216.575 103.837 216.255 104.291C215.936 104.749 215.503 105.089 214.956 105.312C214.381 105.537 213.807 105.585 213.233 105.456C212.664 105.328 212.211 105.038 211.875 104.585L211.812 104.61C211.897 105.028 211.871 105.447 211.732 105.865C211.597 106.283 211.371 106.662 211.055 107.005C210.743 107.346 210.359 107.609 209.903 107.796C209.318 108.025 208.734 108.075 208.151 107.945C207.574 107.816 207.045 107.528 206.564 107.08C206.088 106.634 205.706 106.05 205.418 105.329ZM206.579 104.865C206.774 105.354 207.022 105.745 207.322 106.037C207.622 106.329 207.955 106.514 208.321 106.592C208.687 106.67 209.064 106.634 209.452 106.483C209.859 106.316 210.177 106.067 210.407 105.734C210.637 105.402 210.77 105.02 210.806 104.59C210.844 104.163 210.771 103.72 210.588 103.263C210.404 102.802 210.15 102.427 209.826 102.136C209.503 101.849 209.144 101.664 208.748 101.582C208.353 101.503 207.953 101.547 207.546 101.713C207.158 101.864 206.857 102.092 206.645 102.398C206.434 102.706 206.321 103.072 206.306 103.494C206.291 103.916 206.382 104.373 206.579 104.865ZM211.707 102.816C211.862 103.203 212.076 103.515 212.35 103.752C212.626 103.993 212.937 104.144 213.284 104.205C213.631 104.267 213.991 104.225 214.365 104.079C214.73 103.93 215.014 103.716 215.217 103.439C215.424 103.161 215.542 102.842 215.57 102.484C215.602 102.125 215.538 101.746 215.379 101.349C215.218 100.945 215.001 100.621 214.729 100.379C214.46 100.136 214.156 99.9861 213.815 99.9304C213.478 99.8733 213.128 99.9195 212.763 100.069C212.389 100.215 212.097 100.427 211.886 100.707C211.677 100.991 211.556 101.314 211.522 101.679C211.488 102.043 211.55 102.422 211.707 102.816Z" fill="#71C4FF"/>
<path d="M208.065 112.245L219.325 114.752L219.414 114.73L217.935 108.915L219.147 108.607L220.983 115.832L219.706 116.156L208.429 113.676L208.065 112.245Z" fill="#71C4FF"/>
</g>
</svg>
