<svg width="63" height="18" viewBox="0 0 63 18" fill="none" xmlns="http://www.w3.org/2000/svg">
<rect width="63" height="18" rx="5" fill="white"/>
<g opacity="0.1">
<rect width="63" height="18" rx="5" fill="#0A77F3"/>
<path d="M30.0876 6.4H31.1836L33.1196 10.2L35.0396 6.4H36.1356V12H35.2636L35.2556 7.72L33.4156 11.416H32.8156L30.9596 7.72V12H30.0876V6.4ZM38.339 10.152C38.339 10.4827 38.427 10.744 38.603 10.936C38.779 11.1227 39.0217 11.216 39.331 11.216C39.699 11.2053 39.9843 11.0693 40.187 10.808C40.395 10.5467 40.499 10.224 40.499 9.84H40.747C40.747 10.3627 40.675 10.784 40.531 11.104C40.387 11.424 40.1817 11.6587 39.915 11.808C39.6537 11.952 39.3417 12.0267 38.979 12.032C38.6537 12.032 38.3737 11.9653 38.139 11.832C37.9097 11.6987 37.731 11.5093 37.603 11.264C37.4803 11.0187 37.419 10.728 37.419 10.392V7.752H38.339V10.152ZM40.499 7.752H41.419V12H40.499V7.752ZM45.2056 8.784C45.0189 8.672 44.8136 8.584 44.5896 8.52C44.3709 8.45067 44.1682 8.416 43.9816 8.416C43.8002 8.416 43.6509 8.45067 43.5336 8.52C43.4162 8.58933 43.3576 8.704 43.3576 8.864C43.3576 8.99733 43.4109 9.104 43.5176 9.184C43.6296 9.25867 43.7709 9.32267 43.9416 9.376C44.1122 9.42933 44.2936 9.48533 44.4856 9.544C44.6776 9.60267 44.8589 9.68 45.0296 9.776C45.2056 9.86667 45.3469 9.992 45.4536 10.152C45.5602 10.312 45.6136 10.5227 45.6136 10.784C45.6136 11.072 45.5362 11.3093 45.3816 11.496C45.2322 11.6773 45.0322 11.8133 44.7816 11.904C44.5362 11.9893 44.2696 12.032 43.9816 12.032C43.6722 12.032 43.3629 11.9813 43.0536 11.88C42.7442 11.7787 42.4829 11.632 42.2696 11.44L42.5976 10.816C42.7842 10.9813 43.0109 11.112 43.2776 11.208C43.5442 11.2987 43.7922 11.344 44.0216 11.344C44.1549 11.344 44.2722 11.328 44.3736 11.296C44.4802 11.2587 44.5629 11.2053 44.6216 11.136C44.6856 11.0667 44.7176 10.976 44.7176 10.864C44.7176 10.7147 44.6642 10.5973 44.5576 10.512C44.4509 10.4267 44.3122 10.3573 44.1416 10.304C43.9709 10.2453 43.7896 10.1893 43.5976 10.136C43.4056 10.0773 43.2242 10.0027 43.0536 9.912C42.8882 9.82133 42.7522 9.69867 42.6456 9.544C42.5389 9.38933 42.4856 9.184 42.4856 8.928C42.4856 8.64 42.5602 8.408 42.7096 8.232C42.8589 8.05067 43.0509 7.92 43.2856 7.84C43.5256 7.75467 43.7816 7.712 44.0536 7.712C44.3202 7.712 44.5869 7.74933 44.8536 7.824C45.1202 7.89867 45.3496 8.00267 45.5416 8.136L45.2056 8.784ZM46.5394 7.752H47.4514V12H46.5394V7.752ZM46.9954 6C47.15 6 47.278 6.05067 47.3794 6.152C47.4807 6.25333 47.5314 6.38133 47.5314 6.536C47.5314 6.68533 47.4807 6.81333 47.3794 6.92C47.278 7.02133 47.15 7.072 46.9954 7.072C46.846 7.072 46.718 7.02133 46.6114 6.92C46.51 6.81333 46.4594 6.68533 46.4594 6.536C46.4594 6.38133 46.51 6.25333 46.6114 6.152C46.718 6.05067 46.846 6 46.9954 6ZM51.8128 8.968C51.6635 8.81333 51.4875 8.69333 51.2848 8.608C51.0821 8.52267 50.8528 8.48 50.5968 8.48C50.3515 8.48 50.1328 8.53867 49.9408 8.656C49.7488 8.77333 49.5995 8.93867 49.4928 9.152C49.3861 9.36 49.3328 9.60267 49.3328 9.88C49.3328 10.1573 49.3861 10.4027 49.4928 10.616C49.5995 10.824 49.7488 10.9893 49.9408 11.112C50.1328 11.2293 50.3515 11.288 50.5968 11.288C50.8635 11.288 51.1035 11.2453 51.3168 11.16C51.5301 11.0693 51.7088 10.9387 51.8528 10.768L52.3648 11.272C52.1728 11.512 51.9221 11.6987 51.6128 11.832C51.3088 11.9653 50.9568 12.032 50.5568 12.032C50.1355 12.032 49.7621 11.9413 49.4368 11.76C49.1168 11.5787 48.8661 11.328 48.6848 11.008C48.5035 10.6827 48.4128 10.3067 48.4128 9.88C48.4128 9.45333 48.5035 9.08 48.6848 8.76C48.8661 8.43467 49.1168 8.18133 49.4368 8C49.7621 7.81333 50.1355 7.72 50.5568 7.72C50.9408 7.72 51.2795 7.77867 51.5728 7.896C51.8715 8.008 52.1195 8.168 52.3168 8.376L51.8128 8.968Z" fill="white"/>
<mask id="mask0_185_18" style="mask-type:alpha" maskUnits="userSpaceOnUse" x="7" y="3" width="12" height="12">
<rect x="7" y="3" width="12" height="12" fill="white"/>
</mask>
<g mask="url(#mask0_185_18)">
<path d="M13.25 10.5C13.6 10.5 13.8958 10.3792 14.1375 10.1375C14.3792 9.89583 14.5 9.6 14.5 9.25V6.5H16V5.5H14V8.25C13.8917 8.16667 13.775 8.10417 13.65 8.0625C13.525 8.02083 13.3917 8 13.25 8C12.9 8 12.6042 8.12083 12.3625 8.3625C12.1208 8.60417 12 8.9 12 9.25C12 9.6 12.1208 9.89583 12.3625 10.1375C12.6042 10.3792 12.9 10.5 13.25 10.5ZM11 12C10.725 12 10.4896 11.9021 10.2938 11.7063C10.0979 11.5104 10 11.275 10 11V5C10 4.725 10.0979 4.48958 10.2938 4.29375C10.4896 4.09792 10.725 4 11 4H17C17.275 4 17.5104 4.09792 17.7063 4.29375C17.9021 4.48958 18 4.725 18 5V11C18 11.275 17.9021 11.5104 17.7063 11.7063C17.5104 11.9021 17.275 12 17 12H11ZM11 11H17V5H11V11ZM9 14C8.725 14 8.48958 13.9021 8.29375 13.7063C8.09792 13.5104 8 13.275 8 13V6H9V13H16V14H9Z" fill="white"/>
</g>
</g>
</svg>
