<svg width="350" height="358" viewBox="0 0 350 358" fill="none" xmlns="http://www.w3.org/2000/svg">
<g opacity="0.5">
<path d="M102.378 238.024C102.83 238.594 103.085 239.211 103.144 239.875C103.199 240.542 103.061 241.208 102.728 241.874C102.393 242.542 101.863 243.163 101.14 243.738C100.422 244.308 99.701 244.679 98.9775 244.852C98.254 245.026 97.5741 245.007 96.9377 244.796C96.3013 244.586 95.7547 244.193 95.2977 243.617C94.9443 243.172 94.7393 242.762 94.6827 242.386C94.6208 242.01 94.6291 241.679 94.7076 241.394C94.7808 241.109 94.8461 240.88 94.9035 240.709L94.8328 240.62L91.469 243.291L90.6351 242.241L99.7476 235.005L100.553 236.019L99.5032 236.853L99.6021 236.978C99.788 236.956 100.032 236.941 100.335 236.932C100.635 236.926 100.964 236.996 101.322 237.143C101.677 237.291 102.029 237.585 102.378 238.024ZM101.321 238.631C100.987 238.21 100.594 237.941 100.144 237.824C99.6906 237.71 99.2081 237.733 98.6964 237.893C98.1817 238.055 97.6663 238.341 97.1502 238.751C96.64 239.156 96.2525 239.584 95.9876 240.037C95.7197 240.491 95.5945 240.949 95.6117 241.409C95.626 241.872 95.8028 242.317 96.142 242.744C96.4954 243.189 96.904 243.469 97.368 243.584C97.8266 243.699 98.3091 243.676 98.8155 243.516C99.3166 243.355 99.8074 243.083 100.288 242.702C100.774 242.315 101.157 241.89 101.437 241.426C101.712 240.962 101.849 240.49 101.85 240.01C101.846 239.529 101.67 239.07 101.321 238.631Z" fill="#0A77F3"/>
<path d="M86.9835 231.73L87.9432 231.122L90.3653 234.941L89.4056 235.55L86.9835 231.73ZM86.9339 235.556L86.2158 234.424L93.2405 229.969C93.5604 229.766 93.7709 229.568 93.872 229.374C93.9679 229.178 93.9964 228.99 93.9575 228.808C93.9133 228.625 93.8385 228.451 93.733 228.284C93.6539 228.16 93.5826 228.061 93.5191 227.99C93.4524 227.92 93.399 227.864 93.359 227.822L94.2302 226.947C94.3076 227.005 94.4044 227.094 94.5204 227.213C94.6396 227.331 94.7662 227.495 94.9001 227.706C95.1029 228.026 95.2329 228.383 95.2901 228.777C95.3453 229.168 95.296 229.554 95.1423 229.934C94.9866 230.311 94.6944 230.635 94.2657 230.907L86.9339 235.556Z" fill="#0A77F3"/>
<path d="M91.2292 221.071C91.6045 221.824 91.7622 222.556 91.7022 223.267C91.6372 223.977 91.3782 224.629 90.9253 225.223C90.4674 225.815 89.8384 226.311 89.0384 226.71C88.2385 227.109 87.4608 227.315 86.7052 227.328C85.9446 227.339 85.2621 227.167 84.6577 226.813C84.0482 226.456 83.5676 225.925 83.216 225.22C83.0131 224.814 82.8805 224.378 82.8183 223.914C82.7561 223.45 82.7963 222.979 82.9391 222.501C83.0785 222.025 83.3491 221.567 83.751 221.125C84.1529 220.683 84.7182 220.281 85.447 219.917L85.9555 219.663L88.9581 225.683L87.9209 226.201L85.5269 221.401C85.0862 221.621 84.737 221.905 84.4792 222.254C84.2197 222.599 84.0702 222.983 84.0308 223.404C83.9898 223.823 84.0774 224.249 84.2939 224.683C84.5322 225.161 84.8571 225.515 85.2686 225.746C85.6749 225.975 86.1127 226.089 86.5819 226.088C87.0512 226.086 87.501 225.978 87.9315 225.764L88.623 225.419C89.2128 225.125 89.662 224.774 89.9707 224.366C90.2744 223.956 90.4416 223.515 90.4726 223.042C90.5002 222.571 90.3931 222.094 90.1513 221.609C89.994 221.294 89.808 221.031 89.593 220.821C89.373 220.609 89.1267 220.454 88.8541 220.357C88.578 220.262 88.2791 220.231 87.9572 220.265L87.7044 218.943C88.1584 218.869 88.6065 218.902 89.0485 219.041C89.4871 219.182 89.8951 219.423 90.2725 219.764C90.6465 220.107 90.9654 220.542 91.2292 221.071Z" fill="#0A77F3"/>
<path d="M86.3444 209.822C86.5601 210.453 86.6288 211.064 86.5507 211.655C86.4726 212.246 86.267 212.769 85.9338 213.223C85.6007 213.677 85.1595 214.014 84.6102 214.234L84.169 212.944C84.6501 212.723 84.9851 212.356 85.174 211.843C85.3581 211.328 85.354 210.789 85.1616 210.226C85.0072 209.775 84.7643 209.409 84.4327 209.131C84.0999 208.848 83.7146 208.669 83.2769 208.595C82.8342 208.518 82.3782 208.56 81.9087 208.72C81.4284 208.885 81.0362 209.137 80.7322 209.477C80.4233 209.815 80.222 210.204 80.1284 210.644C80.0347 211.084 80.0664 211.54 80.2233 212.011C80.3349 212.349 80.5051 212.677 80.7339 212.995C80.9592 213.314 81.1935 213.561 81.4368 213.734L81.7126 215.032L76.0654 216.218L74.1098 210.498L75.2926 210.094L76.8659 214.696L80.2455 213.973L80.2235 213.908C79.9671 213.744 79.7215 213.511 79.4868 213.211C79.2521 212.911 79.0717 212.577 78.9455 212.207C78.7151 211.534 78.6712 210.878 78.8136 210.241C78.9513 209.601 79.2464 209.036 79.699 208.545C80.1504 208.051 80.7328 207.681 81.446 207.437C82.1485 207.197 82.8297 207.141 83.4895 207.267C84.1445 207.392 84.7252 207.673 85.2317 208.113C85.7346 208.553 86.1055 209.123 86.3444 209.822Z" fill="#0A77F3"/>
<path d="M83.4373 200.975L72.3138 197.917L72.2247 197.935L73.4153 203.816L72.1902 204.064L70.7109 196.758L72.0029 196.496L83.1441 199.527L83.4373 200.975Z" fill="#0A77F3"/>
<path d="M81.2278 185.95C81.2527 186.427 81.1945 186.909 81.0531 187.397C80.9117 187.885 80.6484 188.34 80.2633 188.761C79.8744 189.182 79.3347 189.536 78.6442 189.822C77.9499 190.109 77.0662 190.289 75.9929 190.362C74.965 190.432 74.0477 190.397 73.2409 190.259C72.4304 190.12 71.7405 189.886 71.1714 189.557C70.5984 189.228 70.1526 188.814 69.8339 188.315C69.5149 187.813 69.3331 187.235 69.2886 186.581C69.2443 185.931 69.3353 185.344 69.5615 184.82C69.7837 184.293 70.1144 183.852 70.5536 183.5C70.9928 183.147 71.5096 182.903 72.104 182.768L72.1983 184.151C71.6855 184.315 71.2698 184.594 70.9511 184.987C70.6325 185.381 70.494 185.884 70.5357 186.496C70.597 187.396 71.0364 188.078 71.854 188.542C72.6713 189.003 73.7867 189.187 75.2004 189.094L75.1942 189.004C74.8586 188.814 74.5674 188.581 74.3209 188.306C74.0703 188.027 73.8705 187.714 73.7216 187.367C73.5727 187.02 73.4847 186.649 73.4576 186.252C73.4123 185.587 73.5371 184.967 73.8321 184.393C74.1233 183.818 74.5485 183.345 75.1079 182.973C75.6634 182.601 76.3153 182.39 77.0636 182.339C77.7816 182.29 78.4501 182.405 79.0691 182.686C79.6843 182.967 80.1875 183.386 80.5786 183.944C80.9657 184.499 81.1821 185.167 81.2278 185.95ZM79.9807 186.035C79.9483 185.559 79.8001 185.14 79.5363 184.778C79.2722 184.413 78.9324 184.134 78.5169 183.942C78.1011 183.747 77.6476 183.666 77.1563 183.699C76.6763 183.732 76.2472 183.869 75.8688 184.111C75.4865 184.35 75.1909 184.664 74.982 185.055C74.773 185.441 74.6847 185.872 74.7171 186.348C74.7416 186.707 74.8362 187.037 75.0009 187.337C75.1618 187.637 75.3731 187.896 75.6347 188.114C75.8961 188.328 76.19 188.49 76.5164 188.6C76.8391 188.711 77.1743 188.755 77.522 188.731C77.983 188.7 78.4065 188.563 78.7924 188.32C79.1781 188.074 79.4808 187.753 79.7007 187.358C79.9204 186.96 80.0137 186.519 79.9807 186.035Z" fill="#0A77F3"/>
<path d="M81.0848 172.764C81.0317 173.512 80.8559 174.17 80.5575 174.737C80.2593 175.301 79.8694 175.738 79.3878 176.05C78.9027 176.357 78.355 176.504 77.7445 176.491L77.8458 175.063C78.222 175.059 78.5542 174.954 78.8423 174.746C79.1266 174.539 79.3555 174.257 79.5288 173.901C79.7022 173.545 79.8047 173.144 79.8363 172.698C79.8717 172.199 79.8161 171.751 79.6696 171.353C79.5232 170.956 79.3028 170.636 79.0085 170.395C78.7142 170.154 78.363 170.019 77.955 169.99C77.528 169.96 77.1446 170.039 76.8046 170.227C76.4609 170.416 76.182 170.707 75.9679 171.102C75.7538 171.497 75.6259 171.989 75.5841 172.579L75.5182 173.508L74.2713 173.42L74.3372 172.49C74.3699 172.029 74.3155 171.619 74.1739 171.26C74.0325 170.897 73.8177 170.606 73.5294 170.388C73.2413 170.166 72.8932 170.041 72.4852 170.012C72.0922 169.984 71.7441 170.047 71.4408 170.2C71.1376 170.353 70.8935 170.583 70.7085 170.889C70.5238 171.191 70.4163 171.555 70.386 171.982C70.3576 172.383 70.4045 172.766 70.5266 173.131C70.6453 173.493 70.8346 173.795 71.0946 174.037C71.3509 174.28 71.671 174.424 72.0551 174.47L71.9586 175.83C71.3519 175.765 70.8321 175.543 70.3993 175.167C69.9627 174.791 69.6357 174.316 69.4181 173.742C69.2009 173.165 69.116 172.541 69.1634 171.873C69.2143 171.155 69.4035 170.549 69.7308 170.056C70.0544 169.562 70.4622 169.195 70.954 168.952C71.4459 168.71 71.9658 168.608 72.5136 168.647C73.1673 168.693 73.7124 168.905 74.149 169.281C74.5858 169.654 74.8723 170.14 75.0083 170.738L75.099 170.744C75.2719 170.02 75.6242 169.47 76.1559 169.093C76.6839 168.717 77.3163 168.555 78.0531 168.607C78.6841 168.652 79.2386 168.864 79.7168 169.243C80.1914 169.619 80.5514 170.111 80.7967 170.721C81.0421 171.331 81.1381 172.012 81.0848 172.764Z" fill="#0A77F3"/>
<path d="M79.3823 163.347L78.2494 163.102L71.4207 156.395L71.5983 155.573L73.3532 155.952L73.2333 156.508L78.3932 161.575L78.4821 161.594L79.9362 154.863L81.158 155.127L79.3823 163.347ZM82.8715 158.497L80.1946 157.919L79.667 157.805L71.4975 156.04L71.7806 154.729L83.1546 157.186L82.8715 158.497Z" fill="#0A77F3"/>
<path d="M88.2941 150.588C88.2169 150.802 88.1302 150.986 88.0341 151.14C87.9415 151.296 87.8676 151.4 87.8124 151.453L86.8167 150.731C87.0058 150.453 87.1321 150.192 87.1957 149.949C87.2592 149.706 87.2294 149.46 87.1063 149.21C86.9879 148.958 86.748 148.68 86.3866 148.376L85.8303 147.909L76.4829 147.964L76.9771 146.596L84.3365 146.693L84.3674 146.608L78.6451 141.979L79.1393 140.611L87.2857 147.493C87.653 147.803 87.9338 148.124 88.128 148.456C88.3258 148.789 88.437 149.133 88.4617 149.488C88.4877 149.84 88.4318 150.207 88.2941 150.588Z" fill="#0A77F3"/>
<path d="M90.6671 136.631C90.3328 137.277 89.8745 137.763 89.2922 138.088C88.7066 138.412 88.0422 138.559 87.2988 138.528C86.5522 138.496 85.7684 138.267 84.9476 137.842C84.1336 137.421 83.4994 136.915 83.0451 136.326C82.5909 135.737 82.3294 135.109 82.2608 134.442C82.1922 133.776 82.3268 133.116 82.6646 132.463C82.9258 131.959 83.2162 131.604 83.5359 131.398C83.854 131.187 84.159 131.059 84.451 131.014C84.7415 130.964 84.9766 130.93 85.1564 130.912L85.2086 130.812L81.3939 128.837L82.0103 127.646L92.3444 132.995L91.7489 134.146L90.558 133.529L90.4849 133.671C90.5809 133.831 90.6948 134.048 90.8265 134.321C90.9548 134.592 91.0256 134.921 91.0389 135.307C91.0487 135.692 90.9248 136.133 90.6671 136.631ZM89.681 135.916C89.9282 135.438 90.0127 134.97 89.9344 134.512C89.8527 134.051 89.6343 133.62 89.279 133.219C88.9204 132.816 88.4485 132.463 87.8631 132.16C87.2845 131.86 86.7347 131.682 86.2137 131.626C85.6894 131.568 85.2207 131.641 84.8079 131.845C84.3917 132.048 84.0582 132.391 83.8075 132.876C83.5463 133.38 83.4582 133.868 83.5431 134.338C83.6263 134.804 83.8448 135.235 84.1984 135.631C84.5504 136.022 84.9989 136.359 85.5438 136.641C86.0955 136.926 86.6403 137.102 87.1781 137.167C87.7143 137.227 88.2015 137.159 88.6396 136.964C89.0761 136.763 89.4232 136.414 89.681 135.916Z" fill="#0A77F3"/>
<path d="M97.5287 124.954C97.2459 125.338 96.8953 125.675 96.4767 125.963C96.0581 126.251 95.5665 126.436 95.0017 126.517C94.4338 126.597 93.7921 126.529 93.0766 126.313C92.3579 126.095 91.5602 125.674 90.6835 125.051C89.8438 124.454 89.1558 123.846 88.6195 123.227C88.08 122.607 87.6945 121.989 87.4629 121.373C87.2282 120.756 87.1454 120.153 87.2146 119.565C87.286 118.975 87.5116 118.412 87.8913 117.878C88.2688 117.347 88.7112 116.951 89.2183 116.689C89.7246 116.421 90.2593 116.29 90.8225 116.295C91.3857 116.301 91.9401 116.439 92.4859 116.711L91.6825 117.841C91.1818 117.643 90.6835 117.596 90.1875 117.698C89.6914 117.801 89.2656 118.103 88.91 118.603C88.3876 119.337 88.2956 120.143 88.6339 121.021C88.9744 121.895 89.7208 122.744 90.8732 123.568L90.9258 123.494C90.7864 123.134 90.7085 122.77 90.6923 122.401C90.6752 122.026 90.7189 121.657 90.8233 121.295C90.9278 120.932 91.0953 120.589 91.3257 120.265C91.7121 119.721 92.2013 119.321 92.7934 119.063C93.3825 118.803 94.0113 118.707 94.6798 118.773C95.3453 118.837 95.9837 119.087 96.5949 119.521C97.1815 119.938 97.6253 120.452 97.9265 121.061C98.2246 121.668 98.3482 122.311 98.2972 122.991C98.2454 123.665 97.9892 124.319 97.5287 124.954ZM96.51 124.23C96.7865 123.841 96.9373 123.423 96.9623 122.976C96.9896 122.526 96.9032 122.095 96.7033 121.683C96.5056 121.268 96.206 120.918 95.8047 120.633C95.4127 120.354 94.9936 120.188 94.5474 120.136C94.1003 120.078 93.6724 120.134 93.2637 120.304C92.8572 120.47 92.5157 120.748 92.2391 121.137C92.0306 121.43 91.895 121.745 91.8323 122.082C91.7665 122.416 91.7659 122.75 91.8305 123.084C91.8973 123.415 92.0219 123.727 92.2044 124.02C92.3838 124.31 92.6155 124.556 92.8995 124.758C93.2761 125.026 93.6906 125.188 94.1429 125.245C94.5975 125.298 95.0348 125.242 95.455 125.076C95.8773 124.907 96.229 124.625 96.51 124.23Z" fill="#0A77F3"/>
<path d="M105.738 114.709C105.222 115.254 104.67 115.651 104.079 115.901C103.491 116.148 102.912 116.239 102.343 116.175C101.773 116.105 101.256 115.872 100.791 115.475L101.775 114.435C102.068 114.67 102.392 114.799 102.746 114.821C103.098 114.841 103.454 114.768 103.813 114.602C104.173 114.437 104.506 114.191 104.813 113.866C105.157 113.503 105.398 113.121 105.537 112.721C105.675 112.32 105.707 111.933 105.632 111.56C105.558 111.187 105.372 110.86 105.074 110.579C104.763 110.285 104.416 110.104 104.034 110.034C103.649 109.962 103.248 110.011 102.832 110.181C102.416 110.35 102.005 110.65 101.6 111.08L100.96 111.757L100.051 110.898L100.691 110.221C101.008 109.885 101.226 109.533 101.345 109.166C101.465 108.795 101.483 108.434 101.398 108.083C101.316 107.729 101.126 107.411 100.829 107.13C100.542 106.86 100.233 106.688 99.9018 106.614C99.5701 106.54 99.2358 106.563 98.8989 106.683C98.5646 106.799 98.2504 107.013 97.9565 107.324C97.6807 107.616 97.4742 107.942 97.337 108.302C97.1997 108.657 97.1547 109.011 97.2022 109.363C97.247 109.713 97.4032 110.027 97.671 110.306L96.7344 111.298C96.3068 110.862 96.0448 110.362 95.9484 109.797C95.8493 109.229 95.8973 108.654 96.0926 108.072C96.2904 107.488 96.6196 106.952 97.0801 106.465C97.5744 105.942 98.1044 105.593 98.6702 105.419C99.2333 105.242 99.7819 105.216 100.316 105.34C100.85 105.464 101.317 105.715 101.716 106.092C102.192 106.543 102.48 107.052 102.579 107.619C102.681 108.185 102.595 108.742 102.321 109.291L102.387 109.353C102.98 108.902 103.601 108.7 104.251 108.746C104.898 108.789 105.49 109.064 106.026 109.572C106.486 110.006 106.781 110.522 106.91 111.118C107.039 111.709 107.006 112.319 106.809 112.946C106.612 113.573 106.255 114.161 105.738 114.709Z" fill="#0A77F3"/>
<path d="M112.487 107.763L110.057 96.4859L110 96.4153L105.336 100.189L104.549 99.2173L110.345 94.5286L111.174 95.5534L113.635 106.834L112.487 107.763Z" fill="#0A77F3"/>
<path d="M121.62 100.583L121.087 99.7105L122.173 94.1202C122.301 93.465 122.395 92.9062 122.454 92.4439C122.511 91.9783 122.516 91.5716 122.468 91.2238C122.421 90.8707 122.305 90.5423 122.119 90.2384C121.906 89.8893 121.637 89.6384 121.313 89.4857C120.992 89.331 120.645 89.272 120.273 89.3087C119.9 89.3455 119.535 89.4734 119.176 89.6926C118.794 89.9256 118.51 90.2081 118.322 90.5403C118.136 90.8672 118.051 91.2187 118.067 91.5947C118.087 91.9687 118.212 92.3448 118.444 92.7231L117.299 93.422C116.944 92.8401 116.766 92.2475 116.766 91.6439C116.766 91.0404 116.922 90.4747 117.234 89.9466C117.549 89.4167 117.996 88.9749 118.575 88.6215C119.157 88.2661 119.747 88.074 120.347 88.0453C120.946 88.0165 121.501 88.1326 122.011 88.3937C122.521 88.6547 122.932 89.0406 123.244 89.5513C123.467 89.9166 123.619 90.3143 123.7 90.7443C123.782 91.1692 123.791 91.6937 123.729 92.3179C123.667 92.9368 123.539 93.7255 123.343 94.684L122.57 98.432L122.617 98.5095L127.233 95.6901L127.885 96.7568L121.62 100.583Z" fill="#0A77F3"/>
<path d="M136.492 92.5717C135.804 92.8695 135.139 93.0168 134.498 93.0136C133.86 93.0088 133.292 92.8645 132.794 92.5807C132.297 92.292 131.914 91.8738 131.644 91.3261L132.958 90.7575C133.135 91.0897 133.382 91.3358 133.699 91.4958C134.014 91.6524 134.37 91.7255 134.766 91.7152C135.161 91.7049 135.564 91.611 135.975 91.4335C136.434 91.235 136.806 90.979 137.091 90.6657C137.377 90.3524 137.558 90.0096 137.637 89.6372C137.715 89.2649 137.673 88.8911 137.51 88.5156C137.341 88.1228 137.094 87.819 136.769 87.6042C136.444 87.386 136.057 87.2729 135.607 87.265C135.158 87.2571 134.663 87.3705 134.12 87.6052L133.265 87.9752L132.769 86.8279L133.624 86.4579C134.048 86.2744 134.387 86.037 134.641 85.7457C134.898 85.4528 135.056 85.1282 135.117 84.7719C135.181 84.4141 135.132 84.0474 134.969 83.672C134.813 83.3104 134.597 83.0304 134.321 82.8319C134.045 82.6334 133.729 82.5226 133.372 82.4994C133.019 82.4748 132.646 82.5474 132.253 82.7174C131.885 82.8768 131.566 83.095 131.298 83.372C131.032 83.644 130.851 83.9513 130.756 84.2938C130.659 84.6328 130.679 84.9834 130.815 85.3455L129.563 85.887C129.342 85.3183 129.299 84.7551 129.433 84.1976C129.566 83.6366 129.837 83.1274 130.245 82.6699C130.658 82.2109 131.171 81.8482 131.787 81.582C132.447 81.2962 133.072 81.1849 133.66 81.248C134.247 81.3077 134.762 81.4999 135.204 81.8246C135.646 82.1494 135.975 82.5638 136.194 83.0679C136.454 83.6693 136.517 84.2505 136.385 84.8115C136.255 85.371 135.956 85.8491 135.488 86.2456L135.524 86.329C136.247 86.1485 136.898 86.2074 137.477 86.5058C138.054 86.8008 138.49 87.2872 138.783 87.9651C139.034 88.5457 139.102 89.1356 138.985 89.7348C138.871 90.3291 138.6 90.8756 138.172 91.3745C137.744 91.8733 137.184 92.2724 136.492 92.5717Z" fill="#0A77F3"/>
<path d="M148.475 88.1719C147.832 88.3503 147.218 88.3833 146.633 88.2708C146.047 88.1583 145.538 87.9226 145.104 87.5635C144.67 87.2045 144.359 86.7443 144.172 86.1831L145.486 85.818C145.678 86.3111 146.024 86.6669 146.525 86.8855C147.029 87.0994 147.567 87.1267 148.14 86.9675C148.6 86.8397 148.979 86.6185 149.277 86.3038C149.578 85.9881 149.779 85.6139 149.879 85.1812C149.981 84.7438 149.966 84.2861 149.833 83.808C149.697 83.3189 149.469 82.9127 149.147 82.5893C148.828 82.2613 148.451 82.0377 148.017 81.9185C147.583 81.7993 147.126 81.8043 146.647 81.9335C146.303 82.0251 145.966 82.1759 145.635 82.3858C145.303 82.592 145.043 82.8115 144.856 83.0443L143.544 83.2439L142.689 77.5371L148.514 75.9186L148.849 77.123L144.163 78.4251L144.687 81.8411L144.753 81.8229C144.932 81.5765 145.178 81.3449 145.492 81.1282C145.805 80.9114 146.149 80.7508 146.525 80.6463C147.211 80.4557 147.868 80.4501 148.496 80.6295C149.127 80.8042 149.674 81.1318 150.137 81.6124C150.605 82.0919 150.939 82.6947 151.141 83.421C151.34 84.1363 151.357 84.8196 151.192 85.4709C151.029 86.1175 150.714 86.6808 150.246 87.1608C149.777 87.6371 149.186 87.9741 148.475 88.1719Z" fill="#0A77F3"/>
<path d="M156.537 83.4552L156.385 82.3061L160.395 73.6152L161.229 73.5051L161.464 75.2851L160.901 75.3595L157.871 81.9265L157.883 82.0166L164.71 81.1147L164.874 82.3539L156.537 83.4552ZM162.28 85.1037L161.921 82.3887L161.85 81.8536L160.756 73.5676L162.085 73.392L163.609 84.9281L162.28 85.1037Z" fill="#0A77F3"/>
<path d="M174.356 84.4267C173.689 84.4215 173.09 84.2842 172.558 84.0149C172.026 83.7455 171.6 83.3785 171.282 82.9139C170.964 82.4492 170.792 81.9214 170.766 81.3302L172.13 81.341C172.179 81.8679 172.414 82.3053 172.835 82.6534C173.261 82.9976 173.771 83.1721 174.365 83.1768C174.843 83.1805 175.268 83.0721 175.641 82.8516C176.017 82.631 176.313 82.3265 176.529 81.938C176.748 81.5458 176.859 81.1016 176.863 80.6054C176.867 80.0978 176.759 79.6443 176.538 79.2449C176.322 78.8416 176.021 78.523 175.637 78.2889C175.252 78.0548 174.812 77.9339 174.316 77.9262C173.96 77.9196 173.594 77.9717 173.218 78.0824C172.842 78.1893 172.532 78.3289 172.288 78.5012L170.972 78.3318L171.721 72.6102L177.766 72.6577L177.757 73.9077L172.893 73.8694L172.457 77.2979L172.525 77.2985C172.765 77.111 173.066 76.9561 173.427 76.834C173.787 76.7118 174.163 76.6522 174.553 76.6553C175.265 76.6609 175.898 76.8363 176.452 77.1816C177.01 77.5231 177.446 77.9887 177.76 78.5783C178.077 79.1679 178.233 79.8396 178.227 80.5934C178.221 81.3358 178.049 81.9973 177.711 82.578C177.377 83.155 176.919 83.6097 176.337 83.9423C175.755 84.2711 175.094 84.4325 174.356 84.4267Z" fill="#0A77F3"/>
<path d="M185.405 84.7357L184.226 75.6888L185.615 75.9219L186.371 82.8237L186.46 82.8387L189.403 76.5572L190.816 76.7941L191.53 83.666L191.619 83.681L194.581 77.4257L195.971 77.6587L191.905 85.8259L190.605 85.6079L189.831 78.6799L189.696 78.6574L186.705 84.9538L185.405 84.7357Z" fill="#0A77F3"/>
<path d="M200.922 85.3126L201.299 84.2164L208.765 78.2272L209.56 78.5005L208.977 80.1985L208.439 80.0138L202.798 84.5395L202.769 84.6254L209.281 86.864L208.875 88.0461L200.922 85.3126ZM205.326 89.3498L206.217 86.7599L206.392 86.2494L209.109 78.3454L210.377 78.7813L206.595 89.7857L205.326 89.3498Z" fill="#0A77F3"/>
<path d="M213.573 92.5138L222.865 85.678L222.906 85.5969L217.553 82.8875L218.117 81.7722L224.769 85.1384L224.173 86.3145L214.891 93.1809L213.573 92.5138Z" fill="#0A77F3"/>
<path d="M231.708 92.6957L231.097 93.6537L227.131 91.1239L227.742 90.1658L231.708 92.6957ZM224.237 98.2816L229.578 89.908C229.847 89.4864 230.17 89.1983 230.547 89.0435C230.924 88.8888 231.316 88.842 231.721 88.9031C232.127 88.9643 232.506 89.1069 232.857 89.3309C233.135 89.5081 233.347 89.6751 233.494 89.8318C233.642 89.9886 233.746 90.1136 233.808 90.2069L232.859 90.9764C232.814 90.9206 232.749 90.8457 232.665 90.7518C232.584 90.6599 232.463 90.562 232.3 90.4581C231.926 90.2198 231.596 90.1419 231.31 90.2244C231.027 90.3089 230.769 90.5332 230.537 90.8973L225.367 99.0027L224.237 98.2816Z" fill="#0A77F3"/>
<path d="M230.658 99.494L231.383 98.5896L240.433 95.4756L241.089 96.0016L239.966 97.4024L239.523 97.047L232.684 99.4002L232.628 99.4712L238 103.779L237.219 104.754L230.658 99.494ZM233.438 104.782L235.151 102.645L235.489 102.224L240.717 95.703L241.763 96.5418L234.485 105.621L233.438 104.782Z" fill="#0A77F3"/>
<path d="M251.313 104.619L238.786 111.776L237.921 110.905L250.449 103.748L251.313 104.619Z" fill="#0A77F3"/>
<path d="M250.602 114.415L252.595 112.904L250.22 112.115L250.614 111.089L252.921 112.08L252.409 109.622L253.494 109.441L253.792 111.926L255.671 110.274L256.361 111.119L254.367 112.63L256.743 113.419L256.349 114.445L254.042 113.453L254.553 115.912L253.469 116.093L253.17 113.608L251.292 115.26L250.602 114.415Z" fill="#0A77F3"/>
<path d="M264.179 120.874L250.507 125.483L249.827 124.462L263.498 119.853L264.179 120.874Z" fill="#0A77F3"/>
<path d="M261.516 130.223L263.764 129.125L261.586 127.892L262.171 126.961L264.243 128.38L264.215 125.869L265.314 125.901L265.128 128.397L267.29 127.139L267.804 128.101L265.556 129.199L267.735 130.431L267.15 131.362L265.078 129.943L265.105 132.454L264.006 132.423L264.193 129.927L262.03 131.185L261.516 130.223Z" fill="#0A77F3"/>
<path d="M267.885 142.65L266.725 143.115L264.83 138.39L265.99 137.925L267.885 142.65Z" fill="#0A77F3"/>
<path d="M277.108 149.652L262.685 150.019L262.336 148.842L276.759 148.475L277.108 149.652Z" fill="#0A77F3"/>
<path d="M268.756 155.925L269.897 155.721L278.761 159.331L278.909 160.159L277.142 160.475L277.042 159.916L270.344 157.188L270.254 157.204L271.466 163.983L270.235 164.203L268.756 155.925ZM267.37 161.737L270.066 161.255L270.598 161.16L278.825 159.689L279.061 161.009L267.606 163.057L267.37 161.737Z" fill="#0A77F3"/>
<path d="M280.343 173.026L268.728 173.731L268.643 172.324L278.783 171.709L278.779 171.641L276.724 168.92L278.153 168.833L280.258 171.62L280.343 173.026Z" fill="#0A77F3"/>
<path d="M271.379 178.257L272.536 178.324L280.319 183.894L280.271 184.733L278.479 184.63L278.511 184.063L272.63 179.854L272.539 179.849L272.143 186.724L270.895 186.652L271.379 178.257ZM268.681 183.588L271.416 183.746L271.954 183.777L280.299 184.257L280.221 185.596L268.604 184.927L268.681 183.588Z" fill="#0A77F3"/>
<path d="M267.955 192.046L268.958 192.247L272.323 196.842C272.717 197.381 273.063 197.829 273.362 198.187C273.665 198.545 273.96 198.825 274.248 199.026C274.539 199.231 274.859 199.369 275.208 199.439C275.609 199.52 275.976 199.493 276.308 199.359C276.639 199.229 276.918 199.014 277.144 198.716C277.371 198.417 277.525 198.062 277.608 197.65C277.696 197.212 277.682 196.811 277.566 196.448C277.453 196.089 277.252 195.788 276.965 195.544C276.677 195.305 276.316 195.141 275.881 195.054L276.146 193.739C276.814 193.874 277.37 194.146 277.813 194.556C278.256 194.966 278.565 195.464 278.741 196.052C278.915 196.644 278.936 197.272 278.802 197.936C278.668 198.605 278.408 199.169 278.022 199.628C277.635 200.088 277.173 200.416 276.635 200.613C276.097 200.81 275.535 200.849 274.948 200.731C274.529 200.647 274.134 200.488 273.763 200.255C273.396 200.027 273.004 199.678 272.589 199.208C272.176 198.742 271.685 198.112 271.114 197.318L268.889 194.204L268.8 194.186L267.733 199.489L266.508 199.243L267.955 192.046Z" fill="#0A77F3"/>
<path d="M263.757 208.35C264.005 207.642 264.348 207.054 264.785 206.584C265.221 206.119 265.712 205.799 266.258 205.626C266.807 205.456 267.374 205.458 267.96 205.631L267.487 206.983C267.123 206.887 266.775 206.902 266.442 207.026C266.113 207.152 265.818 207.364 265.558 207.662C265.297 207.96 265.092 208.32 264.945 208.741C264.779 209.213 264.715 209.66 264.752 210.083C264.789 210.505 264.917 210.871 265.138 211.181C265.359 211.491 265.662 211.714 266.048 211.849C266.452 211.99 266.843 212.015 267.22 211.922C267.601 211.831 267.947 211.623 268.258 211.298C268.568 210.973 268.821 210.532 269.016 209.974L269.324 209.095L270.504 209.508L270.196 210.387C270.043 210.824 269.988 211.234 270.03 211.618C270.071 212.005 270.202 212.342 270.423 212.628C270.642 212.918 270.945 213.13 271.331 213.265C271.703 213.395 272.055 213.426 272.388 213.358C272.721 213.29 273.017 213.133 273.276 212.887C273.534 212.644 273.733 212.32 273.875 211.916C274.007 211.537 274.063 211.155 274.041 210.77C274.021 210.39 273.918 210.049 273.731 209.747C273.548 209.446 273.277 209.223 272.918 209.077L273.369 207.79C273.937 208.013 274.38 208.363 274.699 208.84C275.021 209.318 275.212 209.862 275.271 210.473C275.329 211.087 275.247 211.71 275.025 212.343C274.788 213.022 274.446 213.557 274 213.947C273.558 214.338 273.068 214.586 272.53 214.69C271.992 214.795 271.463 214.756 270.945 214.575C270.327 214.358 269.856 214.011 269.534 213.533C269.21 213.058 269.062 212.515 269.088 211.902L269.002 211.872C268.645 212.525 268.16 212.964 267.548 213.187C266.94 213.411 266.287 213.401 265.59 213.157C264.993 212.948 264.514 212.598 264.152 212.106C263.793 211.619 263.575 211.049 263.498 210.396C263.422 209.743 263.508 209.061 263.757 208.35Z" fill="#0A77F3"/>
<path d="M262.923 217.882L263.952 218.418L268.766 226.69L268.378 227.436L266.785 226.607L267.048 226.103L263.409 219.852L263.329 219.81L260.148 225.918L259.04 225.341L262.923 217.882ZM258.277 221.638L260.706 222.903L261.185 223.153L268.598 227.013L267.979 228.202L257.658 222.828L258.277 221.638Z" fill="#0A77F3"/>
<path d="M251.869 231.943C252.257 231.401 252.715 230.99 253.241 230.71C253.768 230.43 254.313 230.294 254.876 230.301C255.439 230.308 255.969 230.471 256.468 230.791L255.674 231.899C255.215 231.636 254.722 231.576 254.194 231.721C253.668 231.87 253.232 232.187 252.886 232.67C252.608 233.058 252.452 233.468 252.417 233.9C252.381 234.335 252.459 234.753 252.653 235.152C252.848 235.557 253.147 235.904 253.55 236.193C253.963 236.488 254.396 236.661 254.849 236.711C255.304 236.766 255.737 236.704 256.15 236.524C256.563 236.344 256.915 236.054 257.207 235.653C257.418 235.365 257.586 235.036 257.712 234.665C257.841 234.296 257.905 233.963 257.904 233.664L258.801 232.685L263.048 236.592L259.528 241.507L258.512 240.78L261.343 236.825L258.791 234.495L258.751 234.55C258.767 234.854 258.72 235.189 258.612 235.554C258.504 235.92 258.337 236.261 258.11 236.578C257.695 237.157 257.187 237.574 256.586 237.828C255.986 238.088 255.354 238.176 254.691 238.093C254.027 238.013 253.388 237.754 252.775 237.315C252.171 236.883 251.729 236.361 251.449 235.751C251.17 235.145 251.062 234.509 251.125 233.842C251.191 233.176 251.439 232.543 251.869 231.943Z" fill="#0A77F3"/>
<path d="M243.899 241.862C244.232 241.52 244.626 241.236 245.081 241.009C245.535 240.782 246.048 240.667 246.619 240.665C247.192 240.665 247.818 240.821 248.497 241.135C249.178 241.451 249.909 241.978 250.691 242.717C251.44 243.425 252.036 244.123 252.482 244.81C252.93 245.499 253.226 246.165 253.369 246.807C253.516 247.451 253.514 248.059 253.364 248.632C253.211 249.207 252.91 249.732 252.459 250.208C252.012 250.682 251.519 251.013 250.98 251.202C250.441 251.397 249.894 251.452 249.337 251.368C248.78 251.285 248.25 251.07 247.747 250.725L248.7 249.718C249.168 249.984 249.655 250.1 250.161 250.067C250.666 250.034 251.13 249.795 251.551 249.349C252.171 248.694 252.374 247.909 252.161 246.993C251.945 246.08 251.324 245.135 250.297 244.159L250.235 244.225C250.323 244.601 250.349 244.972 250.314 245.34C250.279 245.714 250.184 246.073 250.031 246.417C249.877 246.762 249.663 247.079 249.39 247.368C248.932 247.852 248.392 248.181 247.77 248.354C247.15 248.529 246.514 248.537 245.861 248.379C245.211 248.223 244.613 247.887 244.069 247.372C243.546 246.877 243.177 246.307 242.964 245.662C242.753 245.019 242.72 244.365 242.865 243.699C243.01 243.039 243.355 242.426 243.899 241.862ZM244.807 242.721C244.479 243.068 244.272 243.461 244.185 243.9C244.095 244.342 244.121 244.78 244.262 245.216C244.4 245.654 244.648 246.042 245.006 246.381C245.355 246.711 245.747 246.934 246.182 247.047C246.616 247.167 247.048 247.171 247.476 247.059C247.902 246.951 248.279 246.724 248.607 246.377C248.854 246.115 249.032 245.822 249.141 245.498C249.252 245.176 249.299 244.845 249.282 244.505C249.262 244.168 249.182 243.842 249.042 243.527C248.904 243.215 248.709 242.939 248.456 242.699C248.12 242.382 247.732 242.164 247.292 242.045C246.849 241.928 246.408 241.923 245.969 242.029C245.528 242.138 245.14 242.369 244.807 242.721Z" fill="#0A77F3"/>
<path d="M236.825 257.799L237.543 256.774C237.728 256.881 237.938 256.962 238.172 257.016C238.406 257.074 238.659 257.073 238.932 257.012C239.205 256.951 239.492 256.797 239.795 256.551C240.209 256.213 240.476 255.837 240.596 255.421C240.716 255.01 240.658 254.66 240.421 254.369C240.21 254.111 239.95 253.983 239.64 253.987C239.33 253.99 238.935 254.105 238.454 254.33L237.249 254.902C236.524 255.248 235.891 255.391 235.348 255.33C234.807 255.273 234.344 255.007 233.959 254.535C233.643 254.147 233.472 253.71 233.446 253.223C233.418 252.738 233.53 252.246 233.782 251.746C234.035 251.247 234.424 250.783 234.95 250.355C235.64 249.793 236.333 249.477 237.029 249.408C237.725 249.339 238.368 249.543 238.958 250.02L238.172 251.071C237.782 250.783 237.381 250.655 236.972 250.686C236.559 250.719 236.14 250.91 235.714 251.257C235.23 251.652 234.929 252.068 234.812 252.506C234.694 252.949 234.753 253.315 234.99 253.606C235.182 253.841 235.424 253.971 235.718 253.995C236.014 254.023 236.365 253.937 236.77 253.739L238.113 253.084C238.852 252.726 239.492 252.583 240.034 252.654C240.576 252.731 241.037 253.002 241.417 253.469C241.728 253.851 241.896 254.276 241.921 254.744C241.943 255.215 241.836 255.686 241.6 256.157C241.36 256.631 241.003 257.062 240.527 257.449C239.858 257.995 239.213 258.276 238.592 258.294C237.968 258.314 237.379 258.149 236.825 257.799Z" fill="#0A77F3"/>
<path d="M228.281 255.744L229.418 267.224L229.467 267.301L234.529 264.079L235.2 265.134L228.911 269.136L228.203 268.024L227.035 256.537L228.281 255.744Z" fill="#0A77F3"/>
<path d="M215.824 262.744C216.585 262.385 217.32 262.242 218.03 262.317C218.738 262.397 219.384 262.67 219.969 263.135C220.552 263.605 221.034 264.244 221.416 265.052C221.798 265.86 221.988 266.642 221.985 267.398C221.98 268.159 221.794 268.837 221.427 269.434C221.058 270.036 220.518 270.505 219.805 270.842C219.394 271.037 218.956 271.16 218.491 271.213C218.025 271.265 217.555 271.215 217.081 271.062C216.608 270.913 216.155 270.633 215.722 270.222C215.289 269.811 214.898 269.237 214.55 268.501L214.307 267.987L220.388 265.111L220.884 266.159L216.035 268.452C216.246 268.897 216.522 269.252 216.866 269.517C217.206 269.784 217.586 269.941 218.007 269.99C218.424 270.039 218.852 269.961 219.29 269.753C219.773 269.525 220.134 269.208 220.374 268.801C220.611 268.4 220.734 267.964 220.743 267.495C220.751 267.026 220.653 266.574 220.447 266.139L220.117 265.441C219.835 264.845 219.493 264.388 219.092 264.071C218.689 263.759 218.251 263.583 217.779 263.542C217.309 263.504 216.829 263.601 216.339 263.833C216.021 263.984 215.754 264.164 215.54 264.375C215.323 264.59 215.164 264.833 215.061 265.104C214.96 265.378 214.923 265.676 214.95 265.999L213.623 266.224C213.559 265.768 213.601 265.321 213.749 264.882C213.9 264.446 214.149 264.044 214.498 263.673C214.848 263.307 215.29 262.997 215.824 262.744Z" fill="#0A77F3"/>
<path d="M208.045 266.326L210.899 274.573L209.675 274.997L209.244 273.751L209.158 273.781C209.149 274.241 208.992 274.666 208.686 275.056C208.38 275.447 207.98 275.728 207.486 275.899C207.393 275.931 207.276 275.969 207.135 276.014C206.995 276.059 206.887 276.09 206.813 276.107L206.367 274.819C206.414 274.815 206.518 274.797 206.679 274.765C206.838 274.738 207.002 274.695 207.17 274.637C207.571 274.498 207.9 274.29 208.156 274.013C208.411 273.741 208.579 273.426 208.659 273.069C208.738 272.717 208.713 272.355 208.584 271.983L206.778 266.764L208.045 266.326Z" fill="#0A77F3"/>
<path d="M196.693 269.614C197.454 269.444 198.157 269.428 198.801 269.567C199.443 269.711 199.98 269.984 200.412 270.388C200.845 270.796 201.128 271.307 201.262 271.921C201.373 272.401 201.378 272.866 201.277 273.315C201.177 273.769 200.991 274.169 200.719 274.518C200.445 274.87 200.109 275.13 199.712 275.296L199.726 275.363C200.301 275.382 200.802 275.59 201.229 275.987C201.656 276.388 201.936 276.891 202.067 277.494C202.2 278.07 202.169 278.618 201.975 279.139C201.781 279.66 201.455 280.109 200.996 280.488C200.534 280.867 199.97 281.131 199.305 281.28C198.647 281.427 198.03 281.427 197.453 281.281C196.877 281.134 196.39 280.867 195.993 280.478C195.591 280.091 195.324 279.609 195.192 279.033C195.06 278.43 195.104 277.855 195.324 277.309C195.54 276.768 195.899 276.367 196.4 276.108L196.385 276.041C195.958 276.059 195.549 275.966 195.158 275.763C194.768 275.563 194.429 275.28 194.141 274.913C193.854 274.55 193.655 274.129 193.544 273.65C193.41 273.035 193.454 272.451 193.675 271.897C193.894 271.347 194.263 270.87 194.782 270.467C195.298 270.068 195.935 269.784 196.693 269.614ZM196.966 270.834C196.452 270.949 196.027 271.131 195.691 271.381C195.355 271.631 195.119 271.93 194.984 272.279C194.848 272.628 194.824 273.006 194.911 273.413C195.011 273.841 195.207 274.195 195.499 274.475C195.79 274.755 196.146 274.948 196.565 275.052C196.981 275.157 197.429 275.155 197.909 275.048C198.393 274.939 198.805 274.748 199.143 274.474C199.478 274.201 199.718 273.876 199.862 273.498C200.003 273.121 200.023 272.719 199.924 272.291C199.836 271.884 199.659 271.551 199.392 271.292C199.12 271.035 198.778 270.865 198.363 270.783C197.949 270.701 197.483 270.718 196.966 270.834ZM198.172 276.223C197.766 276.314 197.424 276.476 197.146 276.709C196.864 276.943 196.666 277.226 196.55 277.559C196.434 277.891 196.418 278.254 196.502 278.647C196.592 279.03 196.758 279.344 196.999 279.589C197.241 279.838 197.536 280.005 197.885 280.09C198.235 280.178 198.619 280.176 199.036 280.082C199.461 279.987 199.815 279.824 200.097 279.594C200.381 279.368 200.577 279.091 200.686 278.764C200.796 278.44 200.806 278.087 200.716 277.703C200.632 277.31 200.469 276.988 200.226 276.736C199.98 276.484 199.679 276.313 199.325 276.221C198.971 276.13 198.586 276.13 198.172 276.223Z" fill="#0A77F3"/>
<path d="M183.58 271.777C184.327 271.716 185.004 271.79 185.61 271.999C186.212 272.209 186.704 272.528 187.084 272.957C187.462 273.39 187.69 273.909 187.77 274.514L186.343 274.63C186.282 274.259 186.127 273.947 185.879 273.693C185.63 273.444 185.317 273.26 184.939 273.143C184.561 273.025 184.149 272.984 183.703 273.021C183.205 273.061 182.77 273.184 182.399 273.389C182.029 273.594 181.746 273.86 181.552 274.187C181.358 274.515 181.278 274.882 181.311 275.29C181.346 275.717 181.482 276.084 181.72 276.391C181.958 276.702 182.289 276.934 182.711 277.086C183.134 277.238 183.64 277.29 184.229 277.242L185.158 277.166L185.259 278.412L184.33 278.488C183.87 278.525 183.472 278.641 183.138 278.835C182.801 279.03 182.546 279.286 182.374 279.604C182.199 279.923 182.128 280.286 182.161 280.693C182.193 281.086 182.307 281.421 182.505 281.697C182.702 281.974 182.966 282.181 183.296 282.317C183.623 282.454 183.999 282.505 184.426 282.47C184.826 282.438 185.198 282.334 185.54 282.158C185.88 281.986 186.15 281.753 186.35 281.459C186.551 281.169 186.645 280.831 186.633 280.444L187.992 280.334C188.018 280.943 187.879 281.491 187.572 281.975C187.266 282.464 186.846 282.859 186.312 283.161C185.774 283.463 185.171 283.641 184.502 283.695C183.785 283.754 183.158 283.658 182.621 283.409C182.084 283.164 181.659 282.817 181.345 282.367C181.031 281.918 180.852 281.419 180.807 280.872C180.754 280.219 180.881 279.648 181.187 279.159C181.489 278.671 181.926 278.315 182.496 278.09L182.489 277.999C181.747 277.938 181.15 277.673 180.697 277.204C180.245 276.739 179.989 276.138 179.929 275.402C179.878 274.772 180.004 274.191 180.307 273.661C180.606 273.135 181.039 272.705 181.604 272.37C182.17 272.035 182.828 271.838 183.58 271.777Z" fill="#0A77F3"/>
<path d="M174.537 274.884L174.467 276.041L168.872 283.807L168.033 283.756L168.142 281.963L168.709 281.998L172.936 276.13L172.942 276.039L166.068 275.621L166.144 274.374L174.537 274.884ZM169.215 272.17L169.049 274.903L169.016 275.442L168.509 283.784L167.171 283.703L167.877 272.088L169.215 272.17Z" fill="#0A77F3"/>
<path d="M157.236 270.531C157.89 270.664 158.452 270.913 158.923 271.279C159.394 271.645 159.741 272.086 159.965 272.603C160.189 273.12 160.257 273.671 160.169 274.256L158.833 273.985C158.885 273.459 158.738 272.984 158.39 272.562C158.039 272.143 157.571 271.875 156.988 271.757C156.521 271.662 156.083 271.687 155.674 271.833C155.263 271.977 154.914 272.22 154.629 272.56C154.339 272.903 154.145 273.318 154.046 273.804C153.946 274.302 153.965 274.768 154.105 275.202C154.241 275.639 154.475 276.009 154.808 276.312C155.141 276.615 155.55 276.818 156.036 276.92C156.384 276.995 156.753 277.013 157.143 276.976C157.532 276.943 157.863 276.865 158.135 276.742L159.396 277.16L157.569 282.634L151.644 281.434L151.892 280.209L156.658 281.174L157.74 277.891L157.674 277.878C157.402 278.016 157.078 278.111 156.7 278.162C156.323 278.213 155.943 278.2 155.56 278.123C154.862 277.981 154.274 277.688 153.796 277.244C153.314 276.802 152.975 276.262 152.779 275.623C152.58 274.984 152.556 274.295 152.705 273.556C152.853 272.828 153.147 272.212 153.59 271.706C154.028 271.204 154.564 270.845 155.199 270.629C155.833 270.417 156.512 270.385 157.236 270.531Z" fill="#0A77F3"/>
<path d="M144.807 267.281C145.515 267.528 146.104 267.87 146.573 268.307C147.039 268.743 147.359 269.234 147.533 269.78C147.702 270.329 147.701 270.896 147.528 271.482L146.177 271.009C146.272 270.645 146.257 270.297 146.132 269.965C146.006 269.636 145.795 269.341 145.496 269.08C145.198 268.82 144.838 268.616 144.416 268.468C143.944 268.303 143.497 268.239 143.075 268.276C142.653 268.313 142.287 268.442 141.977 268.663C141.667 268.884 141.445 269.187 141.31 269.573C141.168 269.977 141.144 270.368 141.237 270.746C141.328 271.127 141.537 271.472 141.862 271.783C142.187 272.093 142.628 272.345 143.186 272.54L144.066 272.848L143.653 274.028L142.773 273.72C142.337 273.568 141.927 273.513 141.543 273.555C141.156 273.596 140.819 273.727 140.533 273.948C140.244 274.168 140.031 274.471 139.896 274.857C139.766 275.229 139.736 275.582 139.804 275.915C139.872 276.247 140.03 276.543 140.276 276.802C140.519 277.059 140.843 277.259 141.247 277.4C141.626 277.532 142.008 277.588 142.393 277.566C142.773 277.546 143.114 277.442 143.416 277.255C143.717 277.071 143.94 276.8 144.085 276.442L145.373 276.892C145.15 277.46 144.801 277.903 144.324 278.222C143.846 278.545 143.302 278.736 142.691 278.795C142.077 278.854 141.453 278.772 140.821 278.551C140.141 278.314 139.606 277.972 139.216 277.527C138.825 277.085 138.577 276.595 138.472 276.057C138.367 275.519 138.405 274.99 138.587 274.472C138.803 273.853 139.15 273.383 139.628 273.06C140.102 272.736 140.646 272.587 141.259 272.613L141.288 272.527C140.635 272.17 140.196 271.686 139.973 271.074C139.748 270.466 139.757 269.813 140.001 269.116C140.21 268.519 140.56 268.039 141.051 267.677C141.538 267.318 142.108 267.1 142.761 267.023C143.413 266.946 144.096 267.032 144.807 267.281Z" fill="#0A77F3"/>
<path d="M135.274 266.452L134.739 267.481L126.469 272.3L125.723 271.912L126.551 270.319L127.056 270.581L133.304 266.94L133.346 266.859L127.236 263.682L127.813 262.573L135.274 266.452ZM131.515 261.808L130.251 264.238L130.002 264.717L126.147 272.132L124.957 271.514L130.325 261.19L131.515 261.808Z" fill="#0A77F3"/>
<path d="M121.119 255.348C121.752 255.804 122.231 256.319 122.555 256.893C122.874 257.467 123.026 258.051 123.012 258.642C122.995 259.236 122.801 259.788 122.431 260.296C122.146 260.698 121.802 261.01 121.399 261.233C120.994 261.46 120.571 261.587 120.13 261.615C119.684 261.645 119.267 261.566 118.879 261.38L118.839 261.435C119.207 261.877 119.384 262.39 119.371 262.973C119.355 263.559 119.165 264.101 118.802 264.6C118.46 265.082 118.029 265.424 117.511 265.625C116.993 265.826 116.44 265.881 115.853 265.79C115.262 265.696 114.69 265.45 114.137 265.052C113.59 264.658 113.179 264.197 112.906 263.669C112.632 263.141 112.509 262.6 112.535 262.044C112.558 261.487 112.741 260.967 113.083 260.485C113.446 259.987 113.905 259.638 114.459 259.439C115.007 259.241 115.545 259.243 116.072 259.444L116.111 259.389C115.814 259.082 115.612 258.715 115.504 258.287C115.394 257.863 115.381 257.421 115.463 256.963C115.544 256.507 115.726 256.078 116.011 255.677C116.381 255.168 116.847 254.813 117.408 254.61C117.964 254.408 118.565 254.367 119.212 254.487C119.853 254.607 120.488 254.895 121.119 255.348ZM120.389 256.363C119.961 256.055 119.543 255.859 119.132 255.774C118.722 255.689 118.342 255.711 117.992 255.842C117.641 255.972 117.343 256.206 117.096 256.542C116.843 256.9 116.708 257.282 116.693 257.686C116.677 258.09 116.77 258.484 116.971 258.866C117.168 259.246 117.467 259.58 117.867 259.868C118.27 260.158 118.686 260.338 119.115 260.409C119.542 260.478 119.944 260.441 120.322 260.298C120.698 260.152 121.012 259.9 121.265 259.541C121.512 259.205 121.643 258.852 121.658 258.48C121.67 258.106 121.57 257.737 121.356 257.373C121.141 257.009 120.819 256.672 120.389 256.363ZM117.163 260.846C116.825 260.602 116.477 260.454 116.118 260.401C115.756 260.347 115.413 260.386 115.087 260.521C114.762 260.655 114.48 260.884 114.243 261.208C114.016 261.53 113.891 261.863 113.868 262.205C113.843 262.552 113.915 262.883 114.083 263.2C114.249 263.521 114.506 263.806 114.854 264.056C115.207 264.31 115.564 264.466 115.923 264.524C116.281 264.585 116.618 264.548 116.935 264.412C117.25 264.279 117.521 264.052 117.748 263.73C117.985 263.406 118.118 263.07 118.145 262.721C118.169 262.37 118.098 262.031 117.93 261.706C117.763 261.38 117.508 261.093 117.163 260.846Z" fill="#0A77F3"/>
<path d="M113.354 249.605L102.509 253.538L102.447 253.604L106.817 257.716L105.961 258.626L100.531 253.518L101.434 252.558L112.278 248.593L113.354 249.605Z" fill="#0A77F3"/>
</g>
</svg>
