<svg width="266" height="266" viewBox="0 0 266 266" fill="none" xmlns="http://www.w3.org/2000/svg">
<g opacity="0.37">
<path d="M190.27 127.701C190.195 126.978 190.311 126.32 190.618 125.728C190.929 125.136 191.404 124.648 192.042 124.266C192.684 123.882 193.464 123.643 194.383 123.547C195.295 123.451 196.102 123.525 196.806 123.768C197.509 124.01 198.072 124.391 198.496 124.911C198.92 125.43 199.17 126.055 199.246 126.786C199.305 127.351 199.258 127.807 199.104 128.155C198.954 128.506 198.769 128.78 198.55 128.978C198.335 129.18 198.157 129.337 198.017 129.451L198.029 129.564L202.301 129.117L202.44 130.451L190.867 131.661L190.732 130.372L192.066 130.233L192.049 130.075C191.881 129.993 191.667 129.875 191.407 129.719C191.15 129.563 190.911 129.327 190.687 129.012C190.467 128.696 190.328 128.259 190.27 127.701ZM191.487 127.757C191.543 128.292 191.73 128.729 192.047 129.07C192.368 129.409 192.787 129.649 193.305 129.789C193.826 129.929 194.414 129.965 195.07 129.896C195.718 129.828 196.275 129.675 196.741 129.436C197.211 129.196 197.563 128.878 197.795 128.48C198.032 128.082 198.122 127.612 198.065 127.069C198.006 126.504 197.812 126.049 197.482 125.702C197.157 125.359 196.738 125.119 196.224 124.982C195.715 124.849 195.156 124.814 194.545 124.878C193.927 124.943 193.376 125.095 192.891 125.337C192.41 125.581 192.04 125.905 191.781 126.309C191.527 126.717 191.429 127.199 191.487 127.757Z" fill="#71C4FF"/>
<path d="M199.44 136.364L198.304 136.362L198.312 131.839L199.448 131.841L199.44 136.364ZM201.537 133.163L201.534 134.504L193.216 134.489C192.837 134.488 192.553 134.543 192.364 134.652C192.178 134.766 192.052 134.909 191.988 135.083C191.927 135.261 191.896 135.449 191.896 135.646C191.896 135.793 191.903 135.915 191.918 136.009C191.937 136.104 191.952 136.18 191.963 136.237L190.758 136.507C190.724 136.416 190.69 136.289 190.656 136.126C190.619 135.963 190.6 135.757 190.601 135.507C190.601 135.128 190.683 134.757 190.847 134.394C191.011 134.034 191.259 133.735 191.593 133.497C191.927 133.263 192.347 133.147 192.855 133.148L201.537 133.163Z" fill="#71C4FF"/>
<path d="M190.106 140.392C190.194 139.555 190.454 138.853 190.887 138.285C191.323 137.722 191.891 137.311 192.592 137.053C193.297 136.799 194.094 136.719 194.983 136.812C195.872 136.905 196.639 137.149 197.283 137.544C197.93 137.943 198.414 138.455 198.733 139.078C199.056 139.706 199.176 140.412 199.094 141.196C199.047 141.648 198.925 142.086 198.728 142.511C198.531 142.936 198.244 143.312 197.867 143.638C197.494 143.965 197.019 144.206 196.443 144.363C195.867 144.52 195.174 144.556 194.364 144.471L193.799 144.412L194.499 137.721L195.652 137.842L195.093 143.176C195.583 143.227 196.031 143.175 196.435 143.02C196.84 142.868 197.172 142.624 197.431 142.29C197.691 141.959 197.846 141.552 197.896 141.07C197.952 140.539 197.868 140.066 197.645 139.65C197.425 139.239 197.117 138.907 196.721 138.656C196.324 138.405 195.887 138.255 195.408 138.205L194.64 138.124C193.984 138.056 193.417 138.11 192.937 138.289C192.461 138.471 192.083 138.753 191.803 139.135C191.527 139.518 191.361 139.978 191.304 140.517C191.268 140.868 191.283 141.189 191.352 141.482C191.424 141.779 191.548 142.041 191.726 142.27C191.908 142.498 192.144 142.685 192.433 142.829L191.937 144.08C191.514 143.898 191.154 143.63 190.856 143.275C190.561 142.921 190.347 142.498 190.211 142.008C190.08 141.518 190.045 140.979 190.106 140.392Z" fill="#71C4FF"/>
<path d="M188.702 147.823C188.859 147.175 189.129 146.623 189.513 146.166C189.896 145.71 190.35 145.379 190.875 145.175C191.4 144.971 191.953 144.924 192.535 145.033L192.214 146.358C191.689 146.286 191.21 146.416 190.775 146.747C190.343 147.083 190.057 147.539 189.917 148.117C189.805 148.581 189.813 149.02 189.943 149.433C190.072 149.85 190.301 150.208 190.631 150.506C190.963 150.808 191.37 151.018 191.852 151.135C192.345 151.254 192.812 151.252 193.251 151.129C193.693 151.01 194.071 150.79 194.387 150.468C194.702 150.147 194.92 149.746 195.041 149.265C195.128 148.919 195.161 148.551 195.139 148.16C195.12 147.77 195.055 147.436 194.943 147.16L195.407 145.916L200.808 147.949L199.385 153.824L198.17 153.53L199.315 148.803L196.076 147.598L196.06 147.664C196.188 147.941 196.27 148.268 196.307 148.648C196.344 149.027 196.316 149.406 196.224 149.785C196.057 150.477 195.742 151.054 195.279 151.515C194.82 151.98 194.267 152.298 193.622 152.469C192.975 152.644 192.286 152.643 191.553 152.466C190.832 152.291 190.227 151.973 189.738 151.512C189.252 151.055 188.914 150.505 188.723 149.863C188.535 149.221 188.528 148.541 188.702 147.823Z" fill="#71C4FF"/>
<path d="M187.569 152.201L195.309 160.755L195.394 160.787L197.548 155.187L198.715 155.636L196.039 162.593L194.808 162.12L187.038 153.579L187.569 152.201Z" fill="#71C4FF"/>
<path d="M182.983 161.885C183.218 161.469 183.526 161.094 183.907 160.758C184.289 160.422 184.755 160.18 185.306 160.032C185.86 159.885 186.506 159.877 187.242 160.006C187.981 160.137 188.823 160.46 189.768 160.975C190.673 161.468 191.428 161.99 192.034 162.54C192.644 163.092 193.1 163.66 193.403 164.244C193.709 164.829 193.863 165.417 193.864 166.009C193.864 166.604 193.707 167.189 193.393 167.765C193.081 168.337 192.689 168.783 192.217 169.104C191.746 169.429 191.231 169.623 190.671 169.685C190.111 169.746 189.544 169.675 188.97 169.47L189.633 168.252C190.154 168.389 190.654 168.377 191.134 168.216C191.615 168.055 192.002 167.705 192.295 167.166C192.727 166.375 192.722 165.564 192.282 164.733C191.84 163.905 190.998 163.151 189.756 162.47L189.712 162.549C189.894 162.89 190.014 163.242 190.074 163.607C190.136 163.977 190.136 164.348 190.076 164.721C190.015 165.093 189.89 165.454 189.699 165.804C189.38 166.389 188.942 166.845 188.385 167.171C187.831 167.499 187.218 167.669 186.546 167.683C185.878 167.698 185.214 167.527 184.556 167.168C183.924 166.823 183.422 166.367 183.051 165.798C182.682 165.23 182.483 164.606 182.453 163.925C182.424 163.25 182.601 162.57 182.983 161.885ZM184.08 162.483C183.852 162.902 183.752 163.335 183.78 163.782C183.807 164.232 183.944 164.649 184.191 165.034C184.437 165.423 184.776 165.735 185.208 165.97C185.631 166.201 186.066 166.315 186.516 166.314C186.966 166.318 187.385 166.212 187.77 165.995C188.154 165.781 188.46 165.465 188.689 165.046C188.861 164.73 188.958 164.401 188.98 164.059C189.006 163.72 188.967 163.388 188.863 163.064C188.757 162.743 188.596 162.448 188.38 162.18C188.168 161.913 187.909 161.696 187.603 161.529C187.197 161.308 186.766 161.196 186.31 161.194C185.852 161.194 185.425 161.302 185.027 161.517C184.628 161.735 184.312 162.057 184.08 162.483Z" fill="#71C4FF"/>
<path d="M178.449 168.698C178.896 168.095 179.397 167.635 179.954 167.317C180.508 167.001 181.072 166.842 181.646 166.838C182.22 166.839 182.761 167.009 183.269 167.348L182.416 168.498C182.097 168.299 181.76 168.21 181.406 168.23C181.054 168.252 180.71 168.367 180.372 168.575C180.035 168.782 179.733 169.065 179.467 169.424C179.169 169.826 178.975 170.234 178.885 170.648C178.795 171.062 178.81 171.45 178.928 171.811C179.047 172.173 179.271 172.475 179.6 172.719C179.943 172.974 180.309 173.113 180.697 173.136C181.088 173.162 181.48 173.066 181.873 172.848C182.266 172.63 182.638 172.283 182.99 171.809L183.545 171.06L184.549 171.804L183.994 172.553C183.719 172.924 183.545 173.299 183.471 173.679C183.395 174.061 183.42 174.421 183.546 174.76C183.67 175.102 183.897 175.394 184.225 175.638C184.542 175.872 184.869 176.007 185.207 176.04C185.545 176.074 185.874 176.011 186.195 175.853C186.513 175.697 186.799 175.447 187.054 175.104C187.293 174.781 187.459 174.433 187.553 174.059C187.647 173.69 187.649 173.333 187.56 172.989C187.474 172.647 187.282 172.354 186.983 172.108L187.794 171.013C188.271 171.394 188.591 171.86 188.754 172.41C188.92 172.962 188.94 173.538 188.816 174.139C188.689 174.743 188.426 175.314 188.027 175.853C187.598 176.431 187.113 176.84 186.572 177.08C186.034 177.323 185.493 177.414 184.948 177.354C184.403 177.294 183.909 177.101 183.468 176.774C182.942 176.384 182.595 175.913 182.429 175.361C182.261 174.812 182.28 174.248 182.487 173.671L182.414 173.616C181.879 174.135 181.286 174.41 180.636 174.441C179.988 174.475 179.367 174.272 178.774 173.833C178.266 173.456 177.912 172.979 177.712 172.402C177.514 171.831 177.475 171.222 177.595 170.576C177.716 169.929 178 169.304 178.449 168.698Z" fill="#71C4FF"/>
<path d="M177.834 173.546L178.658 174.361L180.816 183.686L180.225 184.284L178.948 183.021L179.347 182.617L177.717 175.571L177.652 175.507L172.81 180.404L171.921 179.525L177.834 173.546ZM172.286 175.763L174.233 177.688L174.617 178.068L180.56 183.944L179.617 184.898L171.343 176.716L172.286 175.763Z" fill="#71C4FF"/>
<path d="M167.144 175.878C167.324 175.739 167.496 175.63 167.66 175.551C167.822 175.469 167.94 175.421 168.015 175.407L168.467 176.55C168.158 176.683 167.912 176.835 167.728 177.006C167.543 177.177 167.436 177.401 167.406 177.678C167.37 177.954 167.423 178.317 167.565 178.768L167.784 179.46L175.698 184.435L174.546 185.323L168.39 181.288L168.319 181.344L170.659 188.322L169.508 189.21L166.332 179.03C166.189 178.571 166.124 178.15 166.139 177.765C166.151 177.378 166.242 177.028 166.412 176.715C166.579 176.404 166.823 176.125 167.144 175.878Z" fill="#71C4FF"/>
<path d="M161.152 183.687C161.781 183.321 162.428 183.158 163.094 183.196C163.762 183.237 164.401 183.47 165.012 183.896C165.624 184.324 166.163 184.938 166.627 185.737C167.087 186.53 167.351 187.297 167.417 188.037C167.484 188.778 167.368 189.449 167.067 190.048C166.767 190.647 166.299 191.131 165.664 191.5C165.172 191.786 164.737 191.929 164.357 191.931C163.975 191.938 163.649 191.882 163.379 191.763C163.107 191.649 162.89 191.552 162.729 191.47L162.631 191.527L164.788 195.242L163.628 195.915L157.784 185.853L158.905 185.202L159.578 186.362L159.716 186.282C159.721 186.095 159.741 185.851 159.777 185.55C159.814 185.252 159.931 184.937 160.127 184.604C160.326 184.274 160.667 183.968 161.152 183.687ZM161.6 184.82C161.135 185.09 160.812 185.439 160.632 185.868C160.453 186.3 160.406 186.781 160.49 187.31C160.576 187.843 160.785 188.394 161.116 188.964C161.443 189.527 161.811 189.973 162.22 190.3C162.631 190.631 163.066 190.821 163.524 190.87C163.984 190.923 164.45 190.813 164.921 190.539C165.413 190.253 165.749 189.889 165.93 189.447C166.109 189.01 166.157 188.529 166.071 188.005C165.984 187.486 165.787 186.961 165.479 186.43C165.167 185.893 164.801 185.452 164.383 185.109C163.963 184.77 163.515 184.566 163.041 184.495C162.565 184.43 162.084 184.538 161.6 184.82Z" fill="#71C4FF"/>
<path d="M153.409 187.381C153.854 187.209 154.331 187.113 154.839 187.095C155.346 187.077 155.86 187.185 156.381 187.42C156.903 187.657 157.407 188.06 157.895 188.626C158.384 189.196 158.831 189.979 159.235 190.976C159.623 191.931 159.877 192.813 159.997 193.623C160.119 194.436 160.112 195.164 159.977 195.808C159.843 196.455 159.589 197.008 159.215 197.466C158.838 197.926 158.346 198.279 157.738 198.526C157.135 198.771 156.549 198.868 155.98 198.817C155.409 198.77 154.888 198.594 154.416 198.287C153.944 197.98 153.55 197.565 153.236 197.043L154.521 196.521C154.836 196.957 155.231 197.265 155.705 197.444C156.179 197.624 156.7 197.599 157.268 197.368C158.103 197.029 158.614 196.398 158.8 195.476C158.982 194.556 158.809 193.439 158.279 192.125L158.195 192.159C158.119 192.537 157.989 192.886 157.805 193.207C157.618 193.532 157.383 193.819 157.1 194.069C156.817 194.319 156.492 194.519 156.123 194.668C155.505 194.919 154.878 194.994 154.24 194.893C153.603 194.796 153.021 194.54 152.493 194.125C151.966 193.713 151.561 193.16 151.279 192.465C151.008 191.798 150.91 191.127 150.983 190.451C151.057 189.779 151.299 189.17 151.707 188.625C152.112 188.084 152.68 187.669 153.409 187.381ZM153.88 188.539C153.437 188.719 153.086 188.99 152.825 189.354C152.56 189.719 152.401 190.129 152.349 190.584C152.293 191.04 152.357 191.496 152.543 191.952C152.724 192.398 152.988 192.763 153.337 193.046C153.683 193.335 154.074 193.518 154.509 193.594C154.942 193.672 155.379 193.621 155.821 193.442C156.155 193.306 156.438 193.114 156.672 192.863C156.907 192.617 157.087 192.335 157.212 192.019C157.333 191.704 157.396 191.374 157.399 191.029C157.403 190.688 157.34 190.356 157.209 190.033C157.035 189.605 156.773 189.245 156.421 188.954C156.067 188.665 155.668 188.478 155.224 188.392C154.777 188.308 154.329 188.357 153.88 188.539Z" fill="#71C4FF"/>
<path d="M145.621 189.767C146.348 189.584 147.028 189.545 147.66 189.652C148.288 189.759 148.826 189.993 149.272 190.353C149.715 190.718 150.026 191.192 150.205 191.776L148.816 192.126C148.695 191.77 148.491 191.487 148.204 191.278C147.918 191.073 147.579 190.943 147.187 190.89C146.794 190.836 146.381 190.864 145.948 190.973C145.463 191.095 145.054 191.288 144.722 191.551C144.39 191.815 144.156 192.124 144.018 192.479C143.881 192.834 143.863 193.209 143.962 193.606C144.067 194.021 144.262 194.361 144.547 194.625C144.833 194.893 145.197 195.066 145.639 195.147C146.081 195.227 146.589 195.195 147.162 195.05L148.066 194.823L148.371 196.035L147.467 196.262C147.019 196.375 146.646 196.555 146.349 196.802C146.048 197.049 145.839 197.344 145.722 197.686C145.602 198.029 145.591 198.399 145.691 198.796C145.787 199.178 145.955 199.489 146.196 199.729C146.436 199.969 146.73 200.13 147.078 200.21C147.423 200.291 147.803 200.279 148.218 200.175C148.607 200.077 148.957 199.913 149.266 199.682C149.572 199.457 149.8 199.183 149.949 198.86C150.099 198.541 150.137 198.192 150.061 197.812L151.383 197.479C151.51 198.076 151.462 198.639 151.24 199.168C151.018 199.7 150.669 200.159 150.192 200.545C149.711 200.932 149.146 201.207 148.496 201.37C147.798 201.546 147.163 201.556 146.593 201.399C146.023 201.245 145.546 200.973 145.162 200.581C144.778 200.189 144.519 199.727 144.385 199.195C144.225 198.559 144.256 197.975 144.477 197.443C144.695 196.912 145.067 196.488 145.593 196.172L145.571 196.084C144.828 196.146 144.196 195.983 143.672 195.595C143.15 195.211 142.798 194.661 142.618 193.945C142.464 193.331 142.492 192.738 142.703 192.165C142.912 191.597 143.267 191.101 143.77 190.678C144.273 190.255 144.89 189.951 145.621 189.767Z" fill="#71C4FF"/>
<path d="M141.095 190.815L137.087 201.633L137.097 201.723L143.059 201.045L143.2 202.287L135.793 203.129L135.644 201.82L139.627 190.982L141.095 190.815Z" fill="#71C4FF"/>
<path d="M134.082 191.466L134.063 192.489L130.144 196.621C129.684 197.105 129.305 197.526 129.006 197.884C128.708 198.246 128.486 198.586 128.34 198.906C128.19 199.229 128.111 199.568 128.105 199.924C128.097 200.333 128.189 200.689 128.38 200.992C128.568 201.295 128.829 201.531 129.163 201.7C129.497 201.869 129.874 201.958 130.294 201.966C130.741 201.974 131.133 201.888 131.47 201.709C131.802 201.533 132.063 201.283 132.251 200.956C132.435 200.63 132.531 200.246 132.539 199.803L133.88 199.828C133.867 200.509 133.699 201.105 133.375 201.614C133.051 202.123 132.616 202.517 132.069 202.794C131.518 203.072 130.904 203.204 130.226 203.192C129.544 203.179 128.943 203.024 128.422 202.726C127.901 202.428 127.495 202.033 127.205 201.538C126.915 201.044 126.775 200.498 126.787 199.9C126.795 199.472 126.88 199.055 127.043 198.649C127.202 198.246 127.476 197.799 127.864 197.306C128.248 196.817 128.78 196.22 129.46 195.517L132.125 192.771L132.127 192.68L126.719 192.579L126.742 191.329L134.082 191.466Z" fill="#71C4FF"/>
<path d="M122.19 190.362C122.931 190.48 123.57 190.713 124.109 191.06C124.645 191.407 125.046 191.833 125.314 192.34C125.578 192.851 125.677 193.409 125.61 194.016L124.196 193.79C124.226 193.415 124.15 193.075 123.968 192.769C123.786 192.468 123.526 192.215 123.186 192.011C122.847 191.807 122.456 191.67 122.015 191.6C121.521 191.521 121.07 191.537 120.661 191.648C120.252 191.759 119.914 191.95 119.648 192.222C119.382 192.494 119.217 192.832 119.152 193.236C119.085 193.659 119.13 194.048 119.288 194.403C119.445 194.762 119.711 195.065 120.086 195.313C120.46 195.561 120.939 195.732 121.523 195.825L122.443 195.972L122.246 197.206L121.326 197.059C120.869 196.986 120.456 197.004 120.085 197.114C119.711 197.223 119.403 197.411 119.161 197.679C118.914 197.947 118.759 198.283 118.694 198.687C118.632 199.076 118.664 199.428 118.79 199.743C118.916 200.059 119.123 200.322 119.412 200.533C119.696 200.744 120.05 200.883 120.473 200.951C120.869 201.014 121.255 201.001 121.63 200.911C122 200.825 122.318 200.663 122.582 200.425C122.846 200.191 123.018 199.885 123.098 199.506L124.444 199.722C124.325 200.32 124.059 200.819 123.647 201.217C123.233 201.619 122.731 201.903 122.141 202.069C121.547 202.235 120.918 202.265 120.256 202.159C119.546 202.045 118.959 201.804 118.497 201.434C118.033 201.069 117.703 200.63 117.504 200.119C117.306 199.608 117.25 199.081 117.337 198.539C117.441 197.891 117.699 197.367 118.113 196.965C118.522 196.563 119.031 196.32 119.639 196.237L119.653 196.147C118.947 195.911 118.429 195.512 118.101 194.949C117.773 194.39 117.667 193.746 117.783 193.017C117.883 192.392 118.143 191.859 118.563 191.416C118.979 190.976 119.501 190.66 120.13 190.469C120.759 190.278 121.446 190.243 122.19 190.362Z" fill="#71C4FF"/>
<path d="M114.639 188.463C115.277 188.657 115.812 188.959 116.246 189.369C116.679 189.778 116.983 190.251 117.156 190.787C117.329 191.322 117.344 191.877 117.201 192.452L115.896 192.054C115.999 191.535 115.898 191.048 115.593 190.595C115.283 190.144 114.843 189.832 114.274 189.658C113.818 189.519 113.379 189.502 112.959 189.608C112.535 189.712 112.165 189.92 111.848 190.231C111.527 190.545 111.294 190.939 111.149 191.414C111.001 191.9 110.976 192.365 111.074 192.811C111.167 193.259 111.364 193.65 111.666 193.984C111.969 194.317 112.357 194.558 112.83 194.707C113.17 194.814 113.535 194.868 113.927 194.869C114.318 194.873 114.654 194.827 114.937 194.731L116.152 195.268L113.807 200.541L108.025 198.778L108.389 197.582L113.041 199L114.434 195.837L114.368 195.817C114.085 195.929 113.753 195.992 113.372 196.007C112.992 196.021 112.615 195.972 112.241 195.858C111.56 195.65 111.003 195.302 110.57 194.813C110.132 194.327 109.847 193.757 109.713 193.103C109.577 192.447 109.618 191.759 109.838 191.038C110.055 190.328 110.407 189.743 110.896 189.282C111.381 188.824 111.949 188.518 112.602 188.364C113.253 188.215 113.932 188.247 114.639 188.463Z" fill="#71C4FF"/>
<path d="M109.905 189.535L109.416 190.585L101.365 195.763L100.603 195.408L101.361 193.78L101.876 194.02L107.958 190.108L107.997 190.025L101.754 187.119L102.281 185.986L109.905 189.535ZM105.946 185.06L104.79 187.543L104.563 188.032L101.036 195.609L99.82 195.043L104.73 184.494L105.946 185.06Z" fill="#71C4FF"/>
<path d="M100.096 181.384C100.655 181.746 101.087 182.184 101.391 182.697C101.695 183.21 101.857 183.748 101.876 184.311C101.895 184.873 101.756 185.411 101.46 185.924L100.316 185.182C100.558 184.711 100.594 184.216 100.426 183.696C100.252 183.177 99.9152 182.756 99.4161 182.433C99.0156 182.173 98.5988 182.036 98.1657 182.022C97.7295 182.006 97.3163 182.104 96.9261 182.316C96.5307 182.529 96.1981 182.844 95.9283 183.26C95.6524 183.686 95.5 184.127 95.4713 184.582C95.4374 185.039 95.5198 185.469 95.7184 185.873C95.917 186.277 96.2236 186.615 96.638 186.888C96.9347 187.085 97.2714 187.238 97.6479 187.346C98.0223 187.458 98.3587 187.507 98.6569 187.492L99.6767 188.343L95.9714 192.766L90.8976 189.479L91.5772 188.43L95.6592 191.075L97.8684 188.417L97.8112 188.38C97.5079 188.409 97.1713 188.378 96.8013 188.287C96.4314 188.197 96.0827 188.045 95.7552 187.833C95.1576 187.446 94.7177 186.958 94.4358 186.369C94.1486 185.781 94.0311 185.154 94.0832 184.489C94.1322 183.821 94.3617 183.171 94.7715 182.538C95.1752 181.915 95.6755 181.449 96.2724 181.141C96.8641 180.834 97.4948 180.696 98.1644 180.728C98.8321 180.764 99.4759 180.982 100.096 181.384Z" fill="#71C4FF"/>
<path d="M95.0565 177.827L91.1919 186.092L90.1448 185.149L93.2148 178.922L93.1473 178.861L87.2908 182.578L86.2269 181.62L89.3154 175.44L89.2479 175.379L83.3898 179.065L82.3427 178.122L90.1591 173.417L91.1386 174.299L88.0703 180.558L88.1716 180.65L94.0771 176.945L95.0565 177.827Z" fill="#71C4FF"/>
<path d="M87.0801 173.464L86.1735 174.186L76.659 175.228L76.135 174.571L77.5393 173.452L77.8933 173.896L85.0825 173.109L85.1536 173.052L80.8625 167.666L81.8402 166.887L87.0801 173.464ZM85.5335 167.693L83.3916 169.4L82.9694 169.736L76.4324 174.944L75.5968 173.895L84.698 166.644L85.5335 167.693Z" fill="#71C4FF"/>
<path d="M83.4744 164.692L71.9643 165.467L71.8861 165.514L74.9466 170.674L73.8715 171.312L70.069 164.9L71.2028 164.228L82.7209 163.421L83.4744 164.692Z" fill="#71C4FF"/>
<path d="M70.5032 158.68L71.5333 158.2L73.5203 162.465L72.4902 162.945L70.5032 158.68ZM79.8057 157.981L70.8033 162.176C70.35 162.387 69.9228 162.457 69.5214 162.385C69.1201 162.313 68.7647 162.142 68.4553 161.872C68.1458 161.603 67.9031 161.279 67.7271 160.901C67.5879 160.603 67.4983 160.348 67.4584 160.137C67.4185 159.925 67.3975 159.764 67.3955 159.652L68.6094 159.513C68.6176 159.584 68.6318 159.682 68.6521 159.806C68.6708 159.927 68.7209 160.075 68.8025 160.25C68.9897 160.652 69.2262 160.895 69.512 160.979C69.7961 161.059 70.1339 161.009 70.5253 160.826L79.2394 156.766L79.8057 157.981Z" fill="#71C4FF"/>
<path d="M76.1888 155.863L75.0915 156.236L65.7845 154.002L65.5136 153.206L67.2133 152.628L67.3964 153.166L74.4288 154.853L74.5148 154.824L72.2962 148.305L73.4796 147.902L76.1888 155.863ZM76.6833 149.909L74.0906 150.791L73.5797 150.965L65.6673 153.658L65.2353 152.388L76.2513 148.64L76.6833 149.909Z" fill="#71C4FF"/>
<path d="M63.0885 145.313L77.4995 146.005L77.7613 147.204L63.3502 146.512L63.0885 145.313Z" fill="#71C4FF"/>
<path d="M69.6002 140.379L67.1068 140.583L68.687 142.524L67.8032 143.178L66.3902 141.102L65.5011 143.45L64.489 143.021L65.5721 140.764L63.1001 141.149L62.9718 140.065L65.4652 139.861L63.885 137.92L64.7688 137.266L66.1818 139.342L67.0709 136.994L68.083 137.423L66.9999 139.68L69.4719 139.295L69.6002 140.379Z" fill="#71C4FF"/>
<path d="M62.046 131.607L76.0539 135.062L76.0798 136.289L62.0719 132.834L62.046 131.607Z" fill="#71C4FF"/>
<path d="M69.3852 128.114L66.8994 127.833L68.0751 130.043L67.0818 130.514L66.096 128.204L64.7703 130.337L63.8602 129.72L65.3584 127.715L62.8588 127.615L62.942 126.527L65.4278 126.809L64.252 124.599L65.2454 124.128L66.2312 126.437L67.5568 124.305L68.467 124.921L66.9687 126.926L69.4684 127.026L69.3852 128.114Z" fill="#71C4FF"/>
<path d="M70.3514 118.233L71.58 118.464L70.6407 123.467L69.4122 123.237L70.3514 118.233Z" fill="#71C4FF"/>
<path d="M65.6225 110.985L77.986 118.422L77.6485 119.602L65.285 112.165L65.6225 110.985Z" fill="#71C4FF"/>
<path d="M75.2394 113.089L74.1674 112.649L68.6289 104.842L68.9487 104.065L70.6093 104.747L70.3932 105.273L74.5783 111.171L74.6624 111.206L77.2811 104.837L78.4372 105.312L75.2394 113.089ZM79.5294 108.931L76.9965 107.89L76.4973 107.684L68.7672 104.506L69.2771 103.266L80.0393 107.691L79.5294 108.931Z" fill="#71C4FF"/>
<path d="M72.6905 97.0227L82.8664 102.667L82.1829 103.899L73.2989 98.9715L73.2658 99.0311L73.5374 102.43L72.2853 101.736L72.007 98.255L72.6905 97.0227Z" fill="#71C4FF"/>
<path d="M81.4449 100.398L80.5046 99.7201L76.9304 90.841L77.4221 90.1588L78.8787 91.2085L78.5465 91.6695L81.2473 98.3784L81.3211 98.4316L85.3474 92.8449L86.3615 93.5757L81.4449 100.398ZM86.5833 97.3494L84.3615 95.7482L83.9236 95.4326L77.1431 90.546L77.927 89.4581L87.3673 96.2616L86.5833 97.3494Z" fill="#71C4FF"/>
<path d="M88.6573 94.807L87.9199 94.0984L87.5493 88.4156C87.5066 87.7494 87.4551 87.1852 87.395 86.7229C87.3322 86.258 87.2332 85.8635 87.0981 85.5394C86.963 85.2099 86.767 84.9218 86.5103 84.6751C86.2153 84.3916 85.8917 84.2173 85.5394 84.152C85.1898 84.0839 84.8395 84.115 84.4885 84.2453C84.1374 84.3755 83.8163 84.5922 83.525 84.8954C83.2153 85.2177 83.0119 85.5633 82.9147 85.9322C82.8175 86.2958 82.8247 86.6574 82.9364 87.0168C83.0507 87.3735 83.2676 87.7054 83.5871 88.0124L82.6581 88.9793C82.1664 88.5069 81.8438 87.9789 81.6902 87.3953C81.5365 86.8117 81.5436 86.2248 81.7113 85.6348C81.8817 85.042 82.2017 84.5012 82.6715 84.0123C83.1439 83.5206 83.6663 83.1847 84.2387 83.0045C84.8111 82.8243 85.3771 82.7956 85.9368 82.9184C86.4964 83.0412 86.9921 83.3099 87.4236 83.7246C87.7322 84.0211 87.9803 84.3671 88.1676 84.7626C88.3549 85.1526 88.4976 85.6575 88.5957 86.277C88.6937 86.8912 88.7698 87.6867 88.8241 88.6634L89.0289 92.4849L89.0945 92.5479L92.8422 88.6476L93.7436 89.5137L88.6573 94.807Z" fill="#71C4FF"/>
<path d="M97.5152 86.8458C96.9259 87.3098 96.321 87.6222 95.7004 87.7831C95.0827 87.9416 94.4967 87.9474 93.9423 87.8006C93.3886 87.6484 92.9112 87.3421 92.5101 86.8817L93.635 85.9959C93.8908 86.2718 94.1924 86.4466 94.5397 86.5203C94.8846 86.5909 95.2471 86.5707 95.6272 86.4594C96.0072 86.3482 96.3729 86.1543 96.724 85.8778C97.1169 85.5685 97.4112 85.2259 97.6069 84.8499C97.8027 84.474 97.8908 84.0961 97.8712 83.7161C97.8517 83.3362 97.7154 82.9855 97.4623 82.6641C97.1975 82.3278 96.881 82.0973 96.5128 81.9726C96.1423 81.8449 95.7389 81.8347 95.3027 81.942C94.8664 82.0492 94.4162 82.2856 93.9519 82.6512L93.2198 83.2277L92.4465 82.2456L93.1786 81.6691C93.5417 81.3832 93.8086 81.067 93.9793 80.7205C94.1529 80.3716 94.2234 80.0172 94.1907 79.6572C94.1609 79.295 94.0195 78.9531 93.7664 78.6317C93.5227 78.3222 93.2422 78.1068 92.9249 77.9854C92.6075 77.8641 92.2735 77.8378 91.9227 77.9067C91.575 77.9732 91.2329 78.1389 90.8966 78.4037C90.5812 78.6521 90.3293 78.9444 90.1409 79.2808C89.9532 79.6118 89.8571 79.9551 89.8526 80.3106C89.8457 80.6631 89.9543 80.997 90.1785 81.3123L89.1071 82.1559C88.7477 81.6627 88.5616 81.1294 88.5489 80.5561C88.5338 79.9798 88.6653 79.4182 88.9435 78.8713C89.2246 78.3221 89.6285 77.8402 90.1553 77.4254C90.7207 76.9801 91.296 76.7128 91.8812 76.6232C92.464 76.5307 93.0105 76.5849 93.5207 76.7858C94.0309 76.9868 94.4558 77.303 94.7956 77.7345C95.201 78.2494 95.4113 78.795 95.4263 79.3713C95.4444 79.9453 95.2778 80.4838 94.9267 80.9869L94.9829 81.0583C95.6353 80.6989 96.2795 80.5894 96.9155 80.7298C97.5492 80.8672 98.0946 81.2261 98.5515 81.8064C98.9429 82.3034 99.1589 82.8564 99.1998 83.4655C99.2413 84.0692 99.1189 84.667 98.8328 85.2587C98.5466 85.8505 98.1074 86.3795 97.5152 86.8458Z" fill="#71C4FF"/>
<path d="M99.3833 82.3325L98.8036 81.3287L99.1856 71.7649L99.9138 71.3444L100.812 72.8992L100.32 73.1834L100.031 80.4098L100.077 80.4885L106.04 77.0446L106.665 78.1271L99.3833 82.3325ZM105.32 81.6598L103.95 79.2882L103.68 78.8208L99.5005 71.5831L100.662 70.9125L106.481 80.9892L105.32 81.6598Z" fill="#71C4FF"/>
<path d="M111.711 78.9796C111.093 79.2284 110.486 79.3294 109.892 79.2827C109.297 79.2361 108.765 79.0585 108.293 78.7499C107.822 78.4413 107.462 78.0186 107.214 77.4817L108.479 76.9727C108.725 77.4414 109.108 77.7565 109.631 77.918C110.155 78.0745 110.693 78.0418 111.245 77.8199C111.688 77.6417 112.039 77.3797 112.3 77.0339C112.565 76.6866 112.723 76.2924 112.774 75.8512C112.827 75.4052 112.761 74.952 112.576 74.4916C112.387 74.0207 112.114 73.6425 111.758 73.3569C111.405 73.0664 111.006 72.886 110.561 72.8159C110.116 72.7457 109.663 72.8014 109.201 72.9831C108.869 73.1125 108.551 73.2998 108.245 73.5452C107.938 73.7871 107.705 74.0341 107.545 74.2862L106.263 74.6306L104.779 69.0541L110.388 66.798L110.854 67.9577L106.342 69.7728L107.243 73.1093L107.306 73.0839C107.457 72.8191 107.676 72.5616 107.963 72.3113C108.25 72.0611 108.575 71.8631 108.937 71.7175C109.598 71.4517 110.25 71.3731 110.894 71.4816C111.54 71.5851 112.12 71.8499 112.634 72.2758C113.152 72.7004 113.551 73.2623 113.833 73.9616C114.11 74.6504 114.203 75.3276 114.111 75.9932C114.022 76.6538 113.771 77.2487 113.359 77.7778C112.946 78.3033 112.397 78.7039 111.711 78.9796Z" fill="#71C4FF"/>
<path d="M119.316 76.6564C118.851 76.7655 118.366 76.7937 117.86 76.741C117.355 76.6884 116.861 76.5099 116.378 76.2056C115.895 75.8975 115.451 75.4291 115.047 74.8003C114.642 74.1679 114.308 73.33 114.046 72.2867C113.794 71.2875 113.666 70.3786 113.659 69.5601C113.651 68.7378 113.759 68.0174 113.983 67.3989C114.205 66.7766 114.533 66.2645 114.967 65.8624C115.405 65.4595 115.942 65.1781 116.577 65.0183C117.209 64.8595 117.803 64.8449 118.359 64.9746C118.918 65.0998 119.41 65.3472 119.834 65.7168C120.259 66.0865 120.591 66.5519 120.83 67.1129L119.485 67.4509C119.233 66.9753 118.885 66.6157 118.441 66.3719C117.997 66.1281 117.477 66.081 116.882 66.2306C116.008 66.4504 115.414 67.0038 115.102 67.8907C114.794 68.7768 114.811 69.9072 115.152 71.282L115.24 71.2599C115.368 70.8959 115.545 70.5682 115.772 70.2766C116.003 69.9805 116.275 69.7284 116.59 69.5204C116.905 69.3123 117.255 69.1598 117.641 69.0629C118.287 68.9003 118.92 68.9133 119.537 69.1017C120.154 69.2865 120.695 69.6211 121.16 70.1055C121.625 70.5863 121.949 71.1904 122.132 71.9178C122.307 72.6158 122.312 73.2942 122.145 73.9531C121.978 74.6084 121.654 75.1779 121.175 75.6618C120.698 76.1411 120.078 76.4726 119.316 76.6564ZM119.011 75.4442C119.474 75.3278 119.86 75.1077 120.169 74.7839C120.482 74.4592 120.696 74.0754 120.811 73.6324C120.93 73.1885 120.929 72.7278 120.809 72.2502C120.692 71.7837 120.48 71.3857 120.175 71.0563C119.872 70.7223 119.51 70.4871 119.09 70.3508C118.672 70.2136 118.232 70.2031 117.769 70.3195C117.42 70.4072 117.113 70.5587 116.847 70.7741C116.58 70.9857 116.362 71.2396 116.194 71.5356C116.03 71.8307 115.923 72.1487 115.872 72.4896C115.82 72.8269 115.836 73.1645 115.921 73.5024C116.034 73.9506 116.244 74.3431 116.551 74.6798C116.862 75.0157 117.232 75.2568 117.659 75.4032C118.09 75.5487 118.541 75.5624 119.011 75.4442Z" fill="#71C4FF"/>
<path d="M128.942 68.1889L127.785 68.668C127.687 68.4774 127.553 68.2967 127.384 68.1259C127.219 67.9508 127.005 67.8158 126.742 67.7208C126.479 67.6258 126.154 67.601 125.766 67.6465C125.236 67.7088 124.808 67.883 124.483 68.1691C124.162 68.4509 124.023 68.7781 124.066 69.1505C124.105 69.4816 124.256 69.7289 124.52 69.8925C124.783 70.0561 125.178 70.1718 125.705 70.2396L127.028 70.4045C127.825 70.5016 128.437 70.7216 128.862 71.0645C129.287 71.4036 129.535 71.876 129.606 72.4817C129.665 72.9782 129.574 73.439 129.334 73.8638C129.098 74.2882 128.739 74.643 128.257 74.9284C127.776 75.2138 127.199 75.396 126.525 75.4751C125.641 75.5789 124.887 75.4729 124.263 75.1572C123.638 74.8416 123.206 74.3241 122.965 73.6048L124.192 73.1404C124.367 73.5927 124.636 73.9159 124.998 74.1098C125.364 74.3033 125.819 74.368 126.365 74.304C126.986 74.2311 127.463 74.0415 127.797 73.7353C128.134 73.4249 128.281 73.0835 128.237 72.7111C128.202 72.4101 128.067 72.1704 127.833 71.992C127.598 71.8098 127.256 71.6936 126.808 71.6433L125.323 71.4743C124.507 71.3794 123.89 71.1564 123.471 70.8051C123.056 70.4496 122.813 69.9728 122.743 69.3746C122.685 68.8855 122.772 68.4368 123.002 68.0283C123.236 67.6194 123.58 67.2797 124.032 67.0092C124.489 66.7382 125.022 66.5669 125.631 66.4954C126.489 66.3946 127.184 66.5037 127.718 66.8224C128.255 67.1408 128.663 67.5963 128.942 68.1889Z" fill="#71C4FF"/>
<path d="M130.817 74.9825L136.024 64.6883L136.024 64.5974L130.024 64.5959L130.025 63.3459L137.479 63.3477L137.479 64.6659L132.294 74.9828L130.817 74.9825Z" fill="#71C4FF"/>
<path d="M140.877 75.7558C140.043 75.6508 139.346 75.3761 138.788 74.9316C138.233 74.4839 137.834 73.9068 137.591 73.2005C137.352 72.4908 137.288 71.6925 137.4 70.8056C137.512 69.9186 137.772 69.1573 138.18 68.5215C138.593 67.8824 139.114 67.4097 139.744 67.1034C140.379 66.7939 141.087 66.6883 141.869 66.7867C142.32 66.8435 142.755 66.9747 143.176 67.1804C143.597 67.386 143.967 67.6807 144.285 68.0643C144.603 68.4442 144.835 68.9239 144.98 69.5033C145.125 70.0827 145.146 70.7765 145.044 71.5845L144.973 72.1482L138.299 71.3081L138.444 70.1581L143.765 70.8279C143.827 70.3393 143.784 69.8911 143.637 69.4831C143.493 69.0757 143.257 68.7386 142.928 68.4719C142.602 68.2057 142.199 68.0424 141.718 67.9818C141.188 67.9151 140.713 67.989 140.293 68.2033C139.877 68.4144 139.539 68.7155 139.28 69.1066C139.021 69.4978 138.861 69.932 138.801 70.4093L138.705 71.176C138.623 71.8299 138.665 72.3984 138.834 72.8816C139.006 73.3614 139.281 73.7453 139.657 74.0331C140.033 74.3172 140.49 74.4931 141.028 74.5607C141.377 74.6047 141.699 74.5956 141.993 74.5333C142.292 74.4678 142.557 74.3485 142.788 74.1753C143.021 73.9984 143.212 73.7667 143.363 73.4802L144.603 74.0028C144.412 74.4217 144.137 74.7764 143.776 75.0669C143.415 75.3537 142.988 75.5596 142.495 75.6846C142.003 75.8059 141.463 75.8296 140.877 75.7558Z" fill="#71C4FF"/>
<path d="M144.787 76.2765L146.809 67.7866L148.069 68.0867L147.763 69.369L147.852 69.3901C148.107 69.0068 148.468 68.7327 148.936 68.5676C149.403 68.4025 149.891 68.3805 150.4 68.5016C150.496 68.5244 150.615 68.5547 150.758 68.5926C150.901 68.6305 151.008 68.662 151.08 68.6869L150.764 70.0134C150.722 69.9918 150.625 69.9511 150.472 69.8913C150.323 69.8286 150.162 69.7767 149.989 69.7354C149.576 69.6372 149.187 69.636 148.822 69.732C148.461 69.8252 148.15 70.0004 147.891 70.2578C147.635 70.5124 147.462 70.8314 147.371 71.2146L146.091 76.5871L144.787 76.2765Z" fill="#71C4FF"/>
<path d="M153.058 78.8969C152.324 78.6318 151.722 78.2675 151.253 77.804C150.789 77.3383 150.484 76.8191 150.336 76.2462C150.19 75.6698 150.225 75.0866 150.443 74.4965C150.606 74.0321 150.852 73.6374 151.179 73.3125C151.507 72.984 151.879 72.7459 152.295 72.5981C152.715 72.448 153.138 72.4095 153.563 72.4824L153.586 72.4182C153.111 72.0937 152.801 71.6492 152.654 71.0847C152.509 70.5168 152.543 69.9431 152.756 69.3637C152.954 68.8066 153.274 68.3605 153.717 68.0253C154.161 67.6901 154.677 67.4861 155.267 67.4134C155.861 67.342 156.479 67.4221 157.12 67.6538C157.754 67.8829 158.275 68.214 158.682 68.6472C159.089 69.0803 159.356 69.5674 159.483 70.1086C159.613 70.6511 159.58 71.2008 159.383 71.7578C159.169 72.3372 158.823 72.7983 158.345 73.141C157.872 73.4815 157.354 73.6267 156.792 73.5767L156.769 73.6408C157.139 73.855 157.434 74.1529 157.654 74.5346C157.876 74.9128 158.01 75.3337 158.056 75.7974C158.103 76.2575 158.045 76.7197 157.881 77.1841C157.664 77.7742 157.313 78.2435 156.829 78.5921C156.349 78.9384 155.782 79.1423 155.128 79.2038C154.478 79.2631 153.788 79.1608 153.058 78.8969ZM153.482 77.7213C153.977 77.9002 154.434 77.9745 154.852 77.9442C155.269 77.9139 155.629 77.7881 155.93 77.5668C156.232 77.3455 156.455 77.0395 156.6 76.6489C156.746 76.2344 156.771 75.8306 156.676 75.4376C156.58 75.0446 156.383 74.6916 156.086 74.3786C155.791 74.0669 155.413 73.8274 154.95 73.6601C154.483 73.4915 154.033 73.4317 153.601 73.4808C153.172 73.5312 152.795 73.677 152.47 73.9181C152.149 74.1605 151.915 74.489 151.77 74.9035C151.625 75.2941 151.595 75.6702 151.682 76.0318C151.773 76.3947 151.971 76.722 152.276 77.0136C152.581 77.3052 152.984 77.5411 153.482 77.7213ZM155.359 72.5272C155.751 72.6688 156.127 72.7159 156.486 72.6686C156.849 72.6226 157.169 72.4903 157.445 72.272C157.721 72.0536 157.929 71.7563 158.069 71.3799C158.2 71.0082 158.229 70.6542 158.157 70.3181C158.086 69.9785 157.927 69.6791 157.678 69.4201C157.43 69.1575 157.105 68.9535 156.703 68.808C156.293 68.66 155.907 68.6072 155.546 68.6497C155.185 68.6886 154.871 68.8168 154.603 69.0342C154.337 69.248 154.138 69.5408 154.008 69.9126C153.868 70.2889 153.833 70.6487 153.902 70.9919C153.975 71.3364 154.136 71.6424 154.386 71.9098C154.636 72.1773 154.96 72.3831 155.359 72.5272Z" fill="#71C4FF"/>
<path d="M160.587 82.385C159.924 82.0348 159.393 81.6086 158.994 81.1067C158.598 80.6065 158.355 80.0733 158.264 79.507C158.179 78.9392 158.265 78.3786 158.523 77.8251L159.789 78.4938C159.641 78.8396 159.603 79.1861 159.677 79.5334C159.752 79.8773 159.918 80.2004 160.174 80.5026C160.43 80.8049 160.755 81.0603 161.15 81.2691C161.593 81.5026 162.025 81.6325 162.448 81.6589C162.871 81.6853 163.252 81.6124 163.592 81.4404C163.931 81.2683 164.196 81.0014 164.387 80.6397C164.587 80.2612 164.669 79.8784 164.634 79.4913C164.6 79.1008 164.446 78.728 164.171 78.3728C163.896 78.0176 163.497 77.7021 162.974 77.4261L162.15 76.9909L162.734 75.8856L163.558 76.3208C163.967 76.5366 164.364 76.6522 164.75 76.6676C165.139 76.6847 165.492 76.6053 165.808 76.4294C166.127 76.2552 166.382 75.9872 166.573 75.6254C166.757 75.2771 166.84 74.9333 166.822 74.594C166.804 74.2547 166.693 73.9388 166.487 73.6462C166.285 73.3553 165.995 73.1099 165.617 72.91C165.262 72.7225 164.892 72.6109 164.508 72.5753C164.13 72.538 163.777 72.5895 163.45 72.7296C163.125 72.8664 162.864 73.1012 162.667 73.434L161.461 72.7972C161.766 72.2685 162.178 71.8821 162.697 71.6378C163.217 71.3901 163.784 71.2824 164.397 71.3147C165.013 71.3487 165.617 71.5223 166.21 71.8354C166.846 72.1716 167.324 72.5889 167.643 73.0873C167.965 73.5825 168.137 74.104 168.16 74.6518C168.184 75.1996 168.067 75.7163 167.81 76.202C167.504 76.7814 167.091 77.195 166.57 77.4427C166.053 77.6921 165.493 77.7584 164.891 77.6416L164.849 77.722C165.442 78.1724 165.803 78.7167 165.933 79.355C166.065 79.99 165.958 80.634 165.613 81.2871C165.318 81.8465 164.9 82.2684 164.36 82.5529C163.825 82.8358 163.229 82.9666 162.572 82.9452C161.915 82.9238 161.253 82.737 160.587 82.385Z" fill="#71C4FF"/>
<path d="M165.467 82.2574L166.148 81.3192L175.038 77.7734L175.719 78.2672L174.664 79.7205L174.204 79.3868L167.487 82.0663L167.434 82.1399L173.007 86.1839L172.273 87.1957L165.467 82.2574ZM168.499 87.4055L170.107 85.1888L170.424 84.7519L175.332 77.987L176.418 78.7744L169.584 88.1929L168.499 87.4055Z" fill="#71C4FF"/>
<path d="M173.538 92.1277C173.058 91.6652 172.718 91.1532 172.517 90.5917C172.317 90.0301 172.261 89.4713 172.349 88.9151C172.438 88.3589 172.677 87.8575 173.065 87.411L174.047 88.3571C173.72 88.773 173.589 89.2523 173.656 89.7949C173.727 90.3374 173.977 90.8149 174.406 91.2275C174.749 91.5586 175.133 91.7725 175.555 91.8691C175.98 91.9684 176.404 91.9511 176.828 91.8173C177.257 91.6834 177.643 91.4377 177.987 91.0804C178.34 90.7148 178.573 90.3113 178.688 89.8698C178.808 89.4283 178.81 88.9902 178.692 88.5558C178.574 88.1213 178.337 87.7306 177.983 87.3836C177.729 87.1338 177.428 86.9198 177.079 86.7414C176.732 86.5604 176.412 86.4485 176.116 86.4058L175.277 85.3766L179.758 81.7409L184.112 85.9352L183.245 86.8354L179.742 83.461L177.066 85.6487L177.115 85.696C177.419 85.7251 177.743 85.8196 178.089 85.9792C178.435 86.1388 178.748 86.354 179.029 86.6247C179.542 87.1188 179.881 87.6817 180.045 88.3136C180.215 88.9453 180.211 89.5829 180.033 90.2265C179.857 90.8727 179.508 91.4673 178.985 92.0101C178.47 92.5448 177.89 92.9065 177.245 93.0954C176.606 93.2841 175.961 93.2988 175.309 93.1395C174.661 92.9774 174.07 92.6402 173.538 92.1277Z" fill="#71C4FF"/>
<path d="M178.835 98.1948C178.37 97.6059 178.057 97.0011 177.896 96.3806C177.737 95.763 177.731 95.177 177.878 94.6226C178.03 94.0687 178.336 93.5911 178.796 93.1898L179.682 94.3142C179.406 94.5702 179.232 94.8718 179.158 95.2191C179.088 95.5641 179.108 95.9266 179.22 96.3066C179.331 96.6866 179.525 97.0521 179.802 97.4031C180.112 97.7958 180.454 98.0898 180.831 98.2854C181.207 98.4809 181.585 98.5688 181.964 98.549C182.344 98.5293 182.695 98.3927 183.016 98.1395C183.352 97.8745 183.583 97.5578 183.707 97.1896C183.835 96.819 183.845 96.4156 183.737 95.9794C183.63 95.5432 183.393 95.0931 183.027 94.6291L182.45 93.8973L183.432 93.1234L184.009 93.8552C184.295 94.2181 184.611 94.4848 184.958 94.6553C185.307 94.8287 185.661 94.899 186.021 94.8661C186.383 94.8361 186.725 94.6945 187.046 94.4412C187.356 94.1973 187.571 93.9167 187.692 93.5993C187.813 93.2819 187.839 92.9478 187.77 92.5971C187.704 92.2494 187.538 91.9074 187.273 91.5713C187.024 91.256 186.732 91.0042 186.395 90.8161C186.064 90.6286 185.721 90.5327 185.365 90.5283C185.013 90.5217 184.679 90.6305 184.364 90.8549L183.52 89.784C184.012 89.4243 184.546 89.2379 185.119 89.2248C185.695 89.2094 186.257 89.3406 186.804 89.6184C187.353 89.8992 187.836 90.3028 188.251 90.8293C188.696 91.3945 188.964 91.9697 189.054 92.5548C189.147 93.1376 189.093 93.6841 188.892 94.1944C188.692 94.7047 188.376 95.1298 187.944 95.4699C187.43 95.8756 186.884 96.0861 186.308 96.1016C185.734 96.1199 185.195 95.9537 184.692 95.6029L184.621 95.6592C184.98 96.3113 185.09 96.9554 184.95 97.5915C184.813 98.2253 184.455 98.7709 183.875 99.2282C183.378 99.6198 182.825 99.8362 182.216 99.8774C181.612 99.9193 181.014 99.7973 180.422 99.5115C179.831 99.2257 179.301 98.7868 178.835 98.1948Z" fill="#71C4FF"/>
<path d="M183.349 100.06L184.352 99.4799L193.916 99.8562L194.337 100.584L192.783 101.483L192.499 100.991L185.272 100.707L185.193 100.753L188.641 106.714L187.559 107.34L183.349 100.06ZM184.025 105.996L186.396 104.625L186.863 104.355L194.099 100.171L194.77 101.332L184.697 107.157L184.025 105.996Z" fill="#71C4FF"/>
<path d="M186.742 112.476C186.452 111.751 186.325 111.059 186.36 110.401C186.399 109.745 186.584 109.171 186.914 108.68C187.248 108.188 187.707 107.827 188.293 107.597C188.749 107.411 189.207 107.332 189.667 107.361C190.13 107.387 190.555 107.507 190.942 107.72C191.334 107.934 191.643 108.225 191.871 108.591L191.935 108.565C191.862 107.995 191.987 107.467 192.312 106.983C192.64 106.497 193.091 106.141 193.666 105.916C194.213 105.693 194.759 105.636 195.305 105.744C195.85 105.853 196.345 106.103 196.792 106.496C197.24 106.892 197.59 107.407 197.843 108.04C198.093 108.666 198.192 109.275 198.139 109.868C198.086 110.46 197.899 110.983 197.579 111.437C197.26 111.895 196.827 112.235 196.28 112.458C195.705 112.684 195.131 112.732 194.557 112.602C193.988 112.474 193.535 112.184 193.199 111.731L193.136 111.756C193.222 112.175 193.195 112.593 193.056 113.012C192.921 113.429 192.696 113.809 192.38 114.151C192.067 114.492 191.683 114.756 191.227 114.942C190.642 115.172 190.058 115.221 189.476 115.091C188.898 114.963 188.369 114.675 187.888 114.226C187.412 113.78 187.03 113.197 186.742 112.476ZM187.903 112.012C188.098 112.501 188.346 112.891 188.646 113.183C188.946 113.475 189.279 113.66 189.645 113.739C190.011 113.817 190.388 113.78 190.776 113.629C191.183 113.463 191.501 113.213 191.731 112.881C191.961 112.548 192.095 112.166 192.131 111.736C192.168 111.309 192.095 110.867 191.913 110.41C191.729 109.949 191.475 109.573 191.15 109.282C190.828 108.995 190.468 108.811 190.072 108.728C189.678 108.649 189.277 108.693 188.87 108.86C188.482 109.011 188.182 109.239 187.969 109.544C187.758 109.853 187.645 110.218 187.63 110.64C187.615 111.062 187.706 111.519 187.903 112.012ZM193.031 109.963C193.186 110.35 193.4 110.662 193.675 110.899C193.95 111.139 194.261 111.29 194.608 111.352C194.955 111.413 195.315 111.371 195.69 111.226C196.054 111.076 196.338 110.863 196.541 110.585C196.748 110.307 196.866 109.989 196.894 109.631C196.926 109.271 196.862 108.893 196.704 108.495C196.542 108.091 196.325 107.768 196.053 107.526C195.784 107.282 195.48 107.132 195.139 107.077C194.803 107.02 194.452 107.066 194.087 107.216C193.713 107.361 193.421 107.574 193.21 107.854C193.001 108.137 192.88 108.461 192.846 108.825C192.812 109.19 192.874 109.569 193.031 109.963Z" fill="#71C4FF"/>
<path d="M188.412 116.876L199.672 119.383L199.76 119.361L198.282 113.546L199.493 113.238L201.33 120.463L200.053 120.787L188.776 118.308L188.412 116.876Z" fill="#71C4FF"/>
</g>
</svg>
