<svg width="266" height="266" viewBox="0 0 266 266" fill="none" xmlns="http://www.w3.org/2000/svg">
<g clip-path="url(#clip0_98_357)">
<g opacity="0.23">
<path d="M69.7356 184.238C70.1879 184.808 70.4433 185.425 70.5018 186.089C70.5574 186.756 70.4189 187.422 70.0864 188.088C69.751 188.756 69.2214 189.377 68.4976 189.952C67.7797 190.522 67.0591 190.893 66.3355 191.066C65.612 191.24 64.9321 191.221 64.2957 191.01C63.6593 190.8 63.1127 190.407 62.6557 189.831C62.3023 189.386 62.0973 188.976 62.0407 188.6C61.9788 188.224 61.9871 187.893 62.0656 187.608C62.1388 187.323 62.2041 187.094 62.2615 186.923L62.1908 186.834L58.827 189.505L57.9931 188.455L67.1057 181.219L67.9113 182.233L66.8612 183.067L66.9601 183.192C67.146 183.17 67.3903 183.155 67.6933 183.146C67.9932 183.14 68.3222 183.21 68.6801 183.357C69.0351 183.505 69.3869 183.799 69.7356 184.238ZM68.6792 184.845C68.3447 184.424 67.9523 184.155 67.5019 184.038C67.0486 183.924 66.5661 183.947 66.0544 184.107C65.5397 184.269 65.0243 184.555 64.5082 184.965C63.998 185.37 63.6105 185.798 63.3456 186.251C63.0777 186.705 62.9525 187.163 62.9697 187.623C62.984 188.086 63.1608 188.531 63.5 188.958C63.8534 189.403 64.262 189.683 64.726 189.798C65.1846 189.913 65.6671 189.89 66.1735 189.73C66.6746 189.569 67.1654 189.297 67.6459 188.916C68.1324 188.529 68.5155 188.104 68.7952 187.64C69.0696 187.176 69.2073 186.704 69.2084 186.224C69.2043 185.743 69.0278 185.284 68.6792 184.845Z" fill="#71C4FF"/>
<path d="M55.3775 179.295L56.3372 178.686L58.7593 182.506L57.7996 183.114L55.3775 179.295ZM55.3279 183.121L54.6098 181.989L61.6345 177.534C61.9544 177.331 62.1649 177.132 62.2661 176.938C62.3619 176.743 62.3904 176.554 62.3515 176.373C62.3073 176.19 62.2325 176.015 62.127 175.849C62.0479 175.724 61.9766 175.626 61.9131 175.554C61.8464 175.484 61.793 175.428 61.753 175.387L62.6242 174.511C62.7017 174.57 62.7984 174.659 62.9144 174.778C63.0336 174.895 63.1602 175.059 63.2941 175.27C63.4969 175.59 63.627 175.947 63.6841 176.342C63.7393 176.733 63.69 177.118 63.5363 177.498C63.3806 177.875 63.0884 178.2 62.6598 178.472L55.3279 183.121Z" fill="#71C4FF"/>
<path d="M60.1353 169.426C60.5107 170.178 60.6684 170.91 60.6084 171.622C60.5433 172.331 60.2843 172.983 59.8315 173.577C59.3735 174.17 58.7446 174.666 57.9446 175.065C57.1447 175.464 56.3669 175.67 55.6114 175.682C54.8508 175.693 54.1683 175.522 53.5639 175.167C52.9544 174.811 52.4738 174.28 52.1221 173.575C51.9192 173.168 51.7867 172.733 51.7245 172.269C51.6622 171.804 51.7025 171.333 51.8453 170.856C51.9846 170.38 52.2553 169.921 52.6572 169.479C53.0591 169.038 53.6244 168.635 54.3532 168.272L54.8616 168.018L57.8643 174.038L56.8271 174.555L54.4331 169.756C53.9924 169.975 53.6432 170.26 53.3853 170.608C53.1258 170.954 52.9764 171.337 52.937 171.759C52.8959 172.177 52.9836 172.604 53.2 173.037C53.4384 173.515 53.7633 173.87 54.1747 174.1C54.5811 174.33 55.0188 174.443 55.4881 174.442C55.9573 174.441 56.4072 174.333 56.8377 174.118L57.5291 173.773C58.1189 173.479 58.5682 173.128 58.8769 172.72C59.1805 172.311 59.3478 171.869 59.3788 171.397C59.4063 170.926 59.2992 170.448 59.0574 169.963C58.9002 169.648 58.7141 169.385 58.4992 169.175C58.2792 168.963 58.0329 168.809 57.7602 168.712C57.4842 168.617 57.1852 168.586 56.8633 168.62L56.6105 167.298C57.0646 167.224 57.5126 167.257 57.9546 167.396C58.3932 167.537 58.8012 167.778 59.1787 168.119C59.5527 168.461 59.8716 168.897 60.1353 169.426Z" fill="#71C4FF"/>
<path d="M55.97 159.646C56.1856 160.277 56.2544 160.888 56.1763 161.479C56.0981 162.07 55.8925 162.593 55.5594 163.047C55.2263 163.501 54.785 163.838 54.2357 164.058L53.7946 162.768C54.2756 162.547 54.6106 162.18 54.7996 161.667C54.9837 161.152 54.9795 160.613 54.7872 160.05C54.6328 159.599 54.3898 159.234 54.0582 158.955C53.7255 158.672 53.3402 158.494 52.9024 158.419C52.4598 158.342 52.0037 158.384 51.5342 158.544C51.0539 158.709 50.6617 158.961 50.3577 159.301C50.0488 159.639 49.8476 160.028 49.7539 160.468C49.6603 160.908 49.6919 161.364 49.8488 161.835C49.9604 162.173 50.1307 162.501 50.3595 162.819C50.5847 163.138 50.819 163.385 51.0623 163.558L51.3382 164.856L45.6909 166.042L43.7353 160.322L44.9181 159.918L46.4914 164.52L49.8711 163.797L49.849 163.732C49.5926 163.568 49.3471 163.335 49.1124 163.035C48.8777 162.735 48.6972 162.401 48.571 162.031C48.3407 161.358 48.2967 160.702 48.4392 160.065C48.5768 159.425 48.872 158.86 49.3246 158.369C49.776 157.875 50.3583 157.505 51.0716 157.262C51.7741 157.021 52.4552 156.965 53.115 157.091C53.77 157.216 54.3507 157.498 54.8572 157.937C55.3601 158.377 55.731 158.947 55.97 159.646Z" fill="#71C4FF"/>
<path d="M53.5846 152.377L42.4611 149.319L42.372 149.337L43.5626 155.218L42.3375 155.466L40.8582 148.16L42.1502 147.898L53.2915 150.93L53.5846 152.377Z" fill="#71C4FF"/>
<path d="M51.6772 138.881C51.7021 139.357 51.6438 139.84 51.5024 140.328C51.361 140.816 51.0978 141.27 50.7126 141.691C50.3237 142.113 49.784 142.466 49.0935 142.753C48.3993 143.039 47.5155 143.219 46.4422 143.292C45.4143 143.362 44.497 143.328 43.6902 143.189C42.8797 143.051 42.1899 142.817 41.6207 142.487C41.0477 142.158 40.6019 141.744 40.2832 141.246C39.9642 140.744 39.7825 140.166 39.7379 139.512C39.6936 138.862 39.7846 138.275 40.0109 137.751C40.2331 137.223 40.5638 136.783 41.0029 136.43C41.4421 136.077 41.9589 135.833 42.5533 135.698L42.6476 137.081C42.1348 137.245 41.7191 137.524 41.4005 137.918C41.0818 138.312 40.9433 138.815 40.985 139.427C41.0463 140.326 41.4857 141.008 42.3033 141.473C43.1206 141.933 44.2361 142.117 45.6497 142.025L45.6435 141.934C45.3079 141.744 45.0168 141.512 44.7702 141.236C44.5196 140.957 44.3198 140.644 44.1709 140.298C44.022 139.951 43.934 139.579 43.907 139.182C43.8617 138.517 43.9865 137.897 44.2814 137.323C44.5726 136.749 44.9979 136.276 45.5572 135.903C46.1127 135.531 46.7647 135.32 47.5129 135.269C48.2309 135.22 48.8995 135.336 49.5184 135.616C50.1337 135.897 50.6368 136.317 51.0279 136.875C51.415 137.429 51.6314 138.098 51.6772 138.881ZM50.4301 138.966C50.3976 138.489 50.2495 138.07 49.9856 137.709C49.7215 137.343 49.3817 137.065 48.9662 136.873C48.5504 136.677 48.0969 136.596 47.6056 136.629C47.1257 136.662 46.6965 136.8 46.3182 137.042C45.9358 137.28 45.6402 137.595 45.4314 137.985C45.2223 138.371 45.134 138.802 45.1664 139.279C45.1909 139.638 45.2855 139.967 45.4502 140.267C45.6112 140.568 45.8224 140.827 46.0841 141.044C46.3454 141.258 46.6393 141.42 46.9658 141.531C47.2884 141.642 47.6236 141.685 47.9713 141.662C48.4324 141.63 48.8558 141.493 49.2417 141.25C49.6274 141.004 49.9302 140.683 50.1501 140.289C50.3697 139.89 50.463 139.449 50.4301 138.966Z" fill="#71C4FF"/>
<path d="M51.6383 127.432C51.5852 128.18 51.4095 128.838 51.111 129.405C50.8128 129.969 50.4229 130.406 49.9413 130.718C49.4563 131.025 48.9085 131.172 48.298 131.159L48.3993 129.731C48.7755 129.727 49.1077 129.622 49.3958 129.414C49.6802 129.207 49.909 128.925 50.0824 128.569C50.2557 128.213 50.3582 127.812 50.3898 127.366C50.4252 126.867 50.3696 126.419 50.2232 126.021C50.0767 125.624 49.8563 125.304 49.562 125.063C49.2678 124.822 48.9166 124.687 48.5085 124.658C48.0816 124.628 47.6981 124.707 47.3582 124.895C47.0144 125.084 46.7355 125.375 46.5214 125.77C46.3074 126.165 46.1794 126.657 46.1376 127.247L46.0717 128.176L44.8248 128.088L44.8907 127.158C44.9234 126.697 44.869 126.287 44.7274 125.928C44.5861 125.565 44.3712 125.274 44.0829 125.056C43.7948 124.834 43.4468 124.709 43.0387 124.68C42.6457 124.652 42.2976 124.715 41.9944 124.868C41.6911 125.021 41.447 125.251 41.262 125.557C41.0773 125.859 40.9698 126.223 40.9395 126.65C40.9111 127.051 40.958 127.434 41.0802 127.799C41.1988 128.161 41.3881 128.463 41.6482 128.706C41.9044 128.948 42.2245 129.092 42.6086 129.138L42.5121 130.498C41.9054 130.433 41.3856 130.212 40.9528 129.835C40.5163 129.459 40.1892 128.984 39.9717 128.41C39.7544 127.833 39.6695 127.21 39.7169 126.541C39.7678 125.823 39.957 125.217 40.2844 124.724C40.608 124.231 41.0157 123.863 41.5076 123.62C41.9994 123.378 42.5193 123.276 43.0672 123.315C43.7208 123.361 44.2659 123.573 44.7025 123.949C45.1394 124.322 45.4258 124.808 45.5618 125.406L45.6525 125.412C45.8254 124.688 46.1777 124.138 46.7095 123.761C47.2374 123.385 47.8698 123.223 48.6066 123.275C49.2376 123.32 49.7921 123.532 50.2703 123.911C50.7449 124.287 51.1049 124.779 51.3503 125.389C51.5956 125.999 51.6916 126.68 51.6383 127.432Z" fill="#71C4FF"/>
<path d="M49.7994 119.75L48.6665 119.506L41.8378 112.799L42.0154 111.977L43.7703 112.356L43.6504 112.911L48.8103 117.979L48.8991 117.998L50.3533 111.267L51.5751 111.531L49.7994 119.75ZM53.2886 114.9L50.6117 114.322L50.0841 114.208L41.9146 112.443L42.1977 111.133L53.5717 113.59L53.2886 114.9Z" fill="#71C4FF"/>
<path d="M58.3116 108.741C58.2344 108.955 58.1477 109.139 58.0516 109.294C57.959 109.45 57.8851 109.554 57.8299 109.606L56.8342 108.884C57.0233 108.606 57.1496 108.346 57.2132 108.103C57.2767 107.86 57.2469 107.614 57.1238 107.364C57.0054 107.111 56.7655 106.833 56.4041 106.53L55.8478 106.063L46.5004 106.117L46.9946 104.749L54.354 104.847L54.3849 104.761L48.6626 100.132L49.1568 98.7644L57.3032 105.646C57.6705 105.956 57.9513 106.277 58.1455 106.609C58.3433 106.942 58.4545 107.287 58.4792 107.642C58.5052 107.994 58.4493 108.36 58.3116 108.741Z" fill="#71C4FF"/>
<path d="M60.1552 96.2275C59.8209 96.8734 59.3626 97.3592 58.7804 97.6848C58.1948 98.0086 57.5303 98.1552 56.787 98.1245C56.0403 98.092 55.2566 97.8633 54.4358 97.4385C53.6217 97.0171 52.9875 96.5118 52.5333 95.9227C52.079 95.3335 51.8176 94.7056 51.749 94.0388C51.6804 93.3721 51.815 92.7124 52.1528 92.0598C52.4139 91.5552 52.7044 91.2001 53.0241 90.9945C53.3421 90.7838 53.6472 90.6559 53.9392 90.6108C54.2296 90.5607 54.4647 90.5267 54.6445 90.5089L54.6968 90.408L50.882 88.4334L51.4984 87.2426L61.8325 92.5916L61.237 93.7421L60.0462 93.1257L59.973 93.267C60.0691 93.4276 60.1829 93.6443 60.3146 93.9172C60.443 94.1884 60.5138 94.5172 60.527 94.9037C60.5369 95.2884 60.4129 95.7297 60.1552 96.2275ZM59.1691 95.5124C59.4163 95.0347 59.5008 94.5666 59.4225 94.1081C59.3409 93.6478 59.1224 93.217 58.7672 92.8156C58.4086 92.4124 57.9366 92.0594 57.3513 91.7564C56.7727 91.4569 56.2229 91.279 55.7019 91.2225C55.1775 91.1644 54.7089 91.2374 54.296 91.4417C53.8798 91.6443 53.5464 91.9878 53.2956 92.4722C53.0344 92.9768 52.9463 93.4643 53.0312 93.9348C53.1145 94.4001 53.3329 94.831 53.6865 95.2273C54.0385 95.6185 54.487 95.9551 55.032 96.2372C55.5837 96.5227 56.1284 96.6981 56.6663 96.7632C57.2025 96.8232 57.6896 96.7555 58.1278 96.56C58.5643 96.3594 58.9114 96.0102 59.1691 95.5124Z" fill="#71C4FF"/>
<path d="M66.2098 86.0781C65.9271 86.4627 65.5764 86.799 65.1578 87.087C64.7392 87.375 64.2476 87.5599 63.6828 87.6417C63.1149 87.7213 62.4732 87.6531 61.7577 87.4371C61.039 87.2189 60.2413 86.7982 59.3646 86.1748C58.5249 85.5777 57.8369 84.97 57.3006 84.3516C56.7611 83.731 56.3756 83.113 56.144 82.4974C55.9093 81.8797 55.8265 81.2771 55.8957 80.6895C55.9671 80.0989 56.1927 79.5365 56.5724 79.0025C56.9499 78.4715 57.3923 78.0749 57.8994 77.8127C58.4057 77.5452 58.9404 77.4142 59.5036 77.4195C60.0668 77.4249 60.6212 77.5636 61.167 77.8354L60.3636 78.9652C59.8629 78.7673 59.3646 78.7197 58.8686 78.8225C58.3725 78.9253 57.9467 79.2267 57.5911 79.7268C57.0687 80.4616 56.9767 81.2676 57.315 82.1449C57.6555 83.0191 58.4019 83.8682 59.5543 84.6922L59.6069 84.6181C59.4675 84.2587 59.3896 83.8942 59.3734 83.5248C59.3563 83.1501 59.4 82.7815 59.5045 82.4189C59.6089 82.0562 59.7764 81.7129 60.0069 81.3887C60.3932 80.8454 60.8824 80.445 61.4745 80.1874C62.0636 79.9277 62.6924 79.831 63.361 79.8974C64.0264 79.9615 64.6648 80.2109 65.276 80.6455C65.8626 81.0626 66.3064 81.5757 66.6076 82.1849C66.9057 82.792 67.0293 83.4352 66.9784 84.1148C66.9265 84.789 66.6703 85.4435 66.2098 86.0781ZM65.1911 85.3538C65.4676 84.9648 65.6184 84.5468 65.6435 84.0998C65.6707 83.6497 65.5843 83.2188 65.3844 82.8071C65.1867 82.3923 64.8872 82.0422 64.4858 81.7569C64.0938 81.4781 63.6747 81.3126 63.2285 81.2603C62.7814 81.2027 62.3535 81.2586 61.9448 81.4281C61.5383 81.5946 61.1968 81.8723 60.9202 82.2613C60.7117 82.5545 60.5761 82.8694 60.5134 83.206C60.4476 83.5403 60.447 83.8746 60.5116 84.2086C60.5784 84.5396 60.703 84.8513 60.8855 85.1438C61.0649 85.434 61.2966 85.6801 61.5806 85.882C61.9572 86.1498 62.3717 86.3121 62.824 86.3688C63.2786 86.4224 63.7159 86.3662 64.1361 86.2002C64.5585 86.031 64.9101 85.7489 65.1911 85.3538Z" fill="#71C4FF"/>
<path d="M73.4026 77.2371C72.8875 77.7822 72.3347 78.1796 71.7442 78.4295C71.1564 78.6765 70.5775 78.7679 70.0076 78.7036C69.4376 78.634 68.9206 78.4008 68.4565 78.004L69.4399 76.9633C69.7333 77.1988 70.0571 77.3277 70.4115 77.3498C70.763 77.3693 71.1187 77.2963 71.4784 77.1307C71.8381 76.9651 72.1715 76.7199 72.4785 76.395C72.8219 76.0316 73.063 75.6497 73.2017 75.2492C73.3404 74.8487 73.3724 74.4619 73.2975 74.0889C73.2226 73.7159 73.0365 73.3889 72.7392 73.1079C72.4281 72.814 72.0813 72.6322 71.6989 72.5626C71.3137 72.4904 70.9131 72.5393 70.4972 72.7091C70.0814 72.879 69.6705 73.1787 69.2646 73.6081L68.6246 74.2854L67.7161 73.4269L68.3561 72.7496C68.6735 72.4137 68.8913 72.0619 69.0095 71.6942C69.1304 71.3236 69.1483 70.9627 69.0633 70.6114C68.981 70.2574 68.7911 69.9399 68.4938 69.6589C68.2075 69.3883 67.8985 69.2162 67.5668 69.1425C67.2352 69.0688 66.9009 69.0917 66.5639 69.2111C66.2296 69.3277 65.9155 69.5416 65.6215 69.8527C65.3457 70.1445 65.1392 70.4706 65.002 70.8308C64.8647 71.1857 64.8198 71.5393 64.8673 71.8917C64.912 72.2414 65.0682 72.5559 65.3361 72.835L64.3995 73.8261C63.9718 73.3907 63.7098 72.8904 63.6134 72.3251C63.5143 71.7571 63.5624 71.1824 63.7576 70.6007C63.9554 70.0164 64.2846 69.4805 64.7451 68.9932C65.2394 68.4702 65.7695 68.1216 66.3353 67.9475C66.8983 67.7708 67.4469 67.7445 67.9809 67.8688C68.515 67.993 68.9816 68.2437 69.3808 68.621C69.8571 69.0711 70.1448 69.5801 70.2439 70.148C70.3457 70.7132 70.2596 71.2703 69.9857 71.8193L70.0518 71.8817C70.6446 71.4309 71.2659 71.2284 71.9157 71.2743C72.5626 71.3177 73.1546 71.593 73.6914 72.1003C74.1512 72.5348 74.4458 73.0503 74.5752 73.6469C74.7044 74.238 74.6708 74.8472 74.4741 75.4745C74.2775 76.1017 73.9203 76.6892 73.4026 77.2371Z" fill="#71C4FF"/>
<path d="M78.9379 71.5489L76.5085 60.2714L76.4513 60.2008L71.7868 63.9746L71.0006 63.0028L76.7959 58.3141L77.625 59.3389L80.0864 70.6198L78.9379 71.5489Z" fill="#71C4FF"/>
<path d="M86.8296 65.3619L86.2965 64.4891L87.3828 58.8989C87.5108 58.2437 87.6044 57.6849 87.6638 57.2226C87.7212 56.757 87.7258 56.3503 87.6776 56.0024C87.6306 55.6494 87.5143 55.321 87.3287 55.0171C87.1155 54.668 86.8468 54.4171 86.5227 54.2644C86.2019 54.1097 85.8552 54.0507 85.4826 54.0874C85.11 54.1241 84.7443 54.2521 84.3855 54.4712C84.004 54.7042 83.7194 54.9868 83.5317 55.3189C83.3452 55.6459 83.2603 55.9974 83.2769 56.3734C83.2968 56.7474 83.4222 57.1235 83.6532 57.5017L82.5089 58.2007C82.1535 57.6188 81.9757 57.0261 81.9754 56.4226C81.9752 55.8191 82.1312 55.2533 82.4434 54.7253C82.7589 54.1953 83.2059 53.7536 83.7845 53.4002C84.3664 53.0448 84.957 52.8527 85.5564 52.8239C86.1558 52.7952 86.7105 52.9113 87.2206 53.1723C87.7307 53.4334 88.1417 53.8192 88.4537 54.33C88.6768 54.6953 88.8287 55.0929 88.9094 55.523C88.9913 55.9479 89.001 56.4724 88.9384 57.0965C88.877 57.7155 88.7484 58.5042 88.5527 59.4626L87.7793 63.2106L87.8267 63.2882L92.4428 60.4687L93.0944 61.5355L86.8296 65.3619Z" fill="#71C4FF"/>
<path d="M100.224 58.2356C99.5361 58.5334 98.8714 58.6806 98.2303 58.6774C97.5926 58.6726 97.0246 58.5284 96.5263 58.2446C96.0299 57.9558 95.6467 57.5376 95.3767 56.9899L96.6908 56.4214C96.8676 56.7535 97.1144 56.9996 97.4312 57.1597C97.7466 57.3162 98.1022 57.3894 98.4981 57.3791C98.894 57.3687 99.297 57.2748 99.7073 57.0974C100.166 56.8988 100.538 56.6429 100.824 56.3295C101.109 56.0162 101.291 55.6734 101.369 55.3011C101.448 54.9288 101.405 54.5549 101.243 54.1794C101.073 53.7866 100.826 53.4828 100.502 53.2681C100.177 53.0498 99.7892 52.9368 99.34 52.9289C98.8908 52.921 98.3951 53.0343 97.8528 53.269L96.9976 53.639L96.5012 52.4918L97.3564 52.1218C97.7806 51.9383 98.1194 51.7008 98.3731 51.4095C98.6302 51.1166 98.789 50.7921 98.8495 50.4357C98.9134 50.0779 98.8641 49.7112 98.7017 49.3358C98.5452 48.9742 98.3292 48.6942 98.0534 48.4957C97.7777 48.2972 97.4615 48.1864 97.1048 48.1633C96.7516 48.1386 96.3785 48.2113 95.9857 48.3812C95.6172 48.5407 95.2989 48.7589 95.0308 49.0358C94.7646 49.3078 94.5839 49.6151 94.4886 49.9576C94.3917 50.2967 94.4114 50.6472 94.5474 51.0094L93.2959 51.5508C93.0746 50.9821 93.0311 50.419 93.1655 49.8615C93.2983 49.3005 93.5691 48.7912 93.9779 48.3337C94.3901 47.8747 94.9039 47.5121 95.5192 47.2458C96.1797 46.9601 96.8043 46.8487 97.3929 46.9119C97.98 46.9715 98.4945 47.1637 98.9363 47.4885C99.3781 47.8132 99.708 48.2277 99.9261 48.7317C100.186 49.3332 100.25 49.9144 100.117 50.4754C99.9878 51.0349 99.689 51.5129 99.2209 51.9094L99.257 51.9928C99.9795 51.8123 100.63 51.8712 101.209 52.1696C101.787 52.4646 102.222 52.951 102.515 53.6289C102.767 54.2095 102.834 54.7994 102.718 55.3986C102.603 55.9929 102.332 56.5395 101.904 57.0383C101.476 57.5372 100.916 57.9362 100.224 58.2356Z" fill="#71C4FF"/>
<path d="M110.612 54.5086C109.969 54.687 109.355 54.72 108.77 54.6075C108.184 54.495 107.674 54.2593 107.24 53.9002C106.807 53.5411 106.496 53.081 106.308 52.5198L107.622 52.1547C107.814 52.6478 108.161 53.0036 108.662 53.2222C109.166 53.4361 109.704 53.4634 110.277 53.3042C110.737 53.1764 111.116 52.9552 111.413 52.6405C111.715 52.3248 111.916 51.9505 112.016 51.5178C112.118 51.0805 112.103 50.6228 111.97 50.1447C111.834 49.6556 111.605 49.2494 111.284 48.926C110.965 48.598 110.588 48.3743 110.154 48.2551C109.72 48.136 109.263 48.141 108.784 48.2701C108.44 48.3618 108.102 48.5126 107.771 48.7225C107.44 48.9287 107.18 49.1482 106.993 49.381L105.681 49.5806L104.826 43.8738L110.651 42.2553L110.986 43.4597L106.299 44.7617L106.824 48.1778L106.89 48.1596C107.069 47.9132 107.315 47.6816 107.628 47.4649C107.942 47.2481 108.286 47.0875 108.662 46.983C109.348 46.7924 110.005 46.7868 110.633 46.9662C111.263 47.1409 111.81 47.4685 112.274 47.949C112.742 48.4285 113.076 49.0314 113.278 49.7577C113.477 50.473 113.494 51.1563 113.329 51.8076C113.166 52.4542 112.851 53.0175 112.383 53.4975C111.914 53.9738 111.323 54.3108 110.612 54.5086Z" fill="#71C4FF"/>
<path d="M117.059 50.2302L116.907 49.081L120.917 40.3901L121.75 40.28L121.986 42.06L121.422 42.1344L118.393 48.7014L118.405 48.7915L125.232 47.8896L125.395 49.1289L117.059 50.2302ZM122.801 51.8786L122.443 49.1636L122.372 48.6285L121.277 40.3425L122.607 40.1669L124.131 51.703L122.801 51.8786Z" fill="#71C4FF"/>
<path d="M133.084 51.4192C132.418 51.414 131.818 51.2767 131.286 51.0074C130.754 50.738 130.329 50.371 130.011 49.9064C129.693 49.4418 129.521 48.9139 129.495 48.3227L130.859 48.3335C130.907 48.8604 131.143 49.2979 131.564 49.6459C131.99 49.9901 132.5 50.1646 133.094 50.1693C133.571 50.173 133.997 50.0646 134.37 49.8441C134.746 49.6235 135.042 49.319 135.257 48.9306C135.476 48.5383 135.588 48.0941 135.592 47.5979C135.596 47.0904 135.488 46.6368 135.267 46.2374C135.051 45.8341 134.75 45.5155 134.366 45.2814C133.981 45.0473 133.541 44.9264 133.045 44.9187C132.689 44.9121 132.323 44.9642 131.947 45.0749C131.571 45.1818 131.261 45.3214 131.017 45.4937L129.7 45.3243L130.45 39.6027L136.495 39.6502L136.485 40.9002L131.622 40.862L131.186 44.2905L131.254 44.291C131.494 44.1035 131.795 43.9486 132.155 43.8265C132.516 43.7043 132.892 43.6448 133.282 43.6478C133.994 43.6534 134.627 43.8289 135.181 44.1741C135.739 44.5157 136.175 44.9812 136.488 45.5708C136.806 46.1605 136.961 46.8322 136.956 47.5859C136.95 48.3283 136.778 48.9899 136.44 49.5706C136.106 50.1475 135.648 50.6022 135.066 50.9348C134.483 51.2636 133.823 51.425 133.084 51.4192Z" fill="#71C4FF"/>
<path d="M142.429 51.7182L141.25 42.6713L142.64 42.9044L143.395 49.8062L143.485 49.8212L146.428 43.5397L147.84 43.7766L148.554 50.6484L148.644 50.6635L151.605 44.4081L152.995 44.6412L148.929 52.8084L147.629 52.5904L146.855 45.6624L146.721 45.6398L143.729 51.9362L142.429 51.7182Z" fill="#71C4FF"/>
<path d="M155.715 51.8824L156.092 50.7862L163.558 44.797L164.353 45.0704L163.769 46.7683L163.232 46.5836L157.591 51.1093L157.561 51.1953L164.074 53.4338L163.667 54.6159L155.715 51.8824ZM160.119 55.9196L161.009 53.3297L161.185 52.8193L163.902 44.9152L165.17 45.3511L161.387 56.3555L160.119 55.9196Z" fill="#71C4FF"/>
<path d="M166.668 58.4783L175.961 51.6425L176.002 51.5613L170.648 48.852L171.213 47.7367L177.864 51.1029L177.269 52.279L167.986 59.1454L166.668 58.4783Z" fill="#71C4FF"/>
<path d="M183.436 57.9419L182.824 58.9L178.858 56.3701L179.469 55.412L183.436 57.9419ZM175.964 63.5278L181.305 55.1542C181.574 54.7327 181.897 54.4445 182.274 54.2898C182.651 54.135 183.043 54.0882 183.449 54.1493C183.854 54.2105 184.233 54.3531 184.584 54.5771C184.862 54.7543 185.075 54.9213 185.222 55.0781C185.369 55.2348 185.473 55.3598 185.535 55.4532L184.586 56.2226C184.541 56.1668 184.476 56.0919 184.392 55.998C184.312 55.9061 184.19 55.8082 184.027 55.7043C183.653 55.466 183.323 55.3881 183.037 55.4706C182.754 55.5552 182.496 55.7795 182.264 56.1435L177.095 64.2489L175.964 63.5278Z" fill="#71C4FF"/>
<path d="M181.601 64.2563L182.326 63.3519L191.376 60.2379L192.032 60.7639L190.909 62.1647L190.466 61.8093L183.627 64.1626L183.57 64.2335L188.943 68.541L188.161 69.5162L181.601 64.2563ZM184.381 69.5442L186.094 67.4075L186.432 66.9864L191.66 60.4653L192.706 61.3041L185.428 70.383L184.381 69.5442Z" fill="#71C4FF"/>
<path d="M200.898 68.2539L188.37 75.4102L187.505 74.5394L200.033 67.3831L200.898 68.2539Z" fill="#71C4FF"/>
<path d="M199.443 77.3034L201.437 75.7924L199.062 75.0036L199.456 73.9773L201.763 74.9692L201.251 72.5109L202.336 72.3296L202.634 74.8148L204.513 73.163L205.203 74.0079L203.209 75.5189L205.585 76.3077L205.191 77.334L202.884 76.3422L203.395 78.8004L202.311 78.9818L202.012 76.4965L200.133 78.1483L199.443 77.3034Z" fill="#71C4FF"/>
<path d="M212.159 82.6834L198.488 87.2927L197.807 86.2716L211.479 81.6623L212.159 82.6834Z" fill="#71C4FF"/>
<path d="M208.922 91.1721L211.17 90.0744L208.991 88.8419L209.576 87.911L211.648 89.3294L211.621 86.8187L212.72 86.8501L212.533 89.3462L214.695 88.088L215.209 89.0503L212.961 90.148L215.14 91.3805L214.555 92.3114L212.483 90.893L212.51 93.4037L211.411 93.3723L211.598 90.8762L209.436 92.1343L208.922 91.1721Z" fill="#71C4FF"/>
<path d="M214.641 102.359L213.481 102.824L211.585 98.0993L212.746 97.634L214.641 102.359Z" fill="#71C4FF"/>
<path d="M223.4 108.173L208.977 108.54L208.628 107.364L223.051 106.996L223.4 108.173Z" fill="#71C4FF"/>
<path d="M214.739 113.435L215.88 113.231L224.744 116.842L224.892 117.669L223.125 117.985L223.025 117.426L216.327 114.698L216.237 114.714L217.449 121.493L216.218 121.713L214.739 113.435ZM213.353 119.247L216.049 118.765L216.581 118.67L224.808 117.199L225.044 118.519L213.589 120.567L213.353 119.247Z" fill="#71C4FF"/>
<path d="M226.049 128.836L214.434 129.541L214.348 128.134L224.489 127.519L224.485 127.451L222.43 124.73L223.859 124.643L225.963 127.43L226.049 128.836Z" fill="#71C4FF"/>
<path d="M217.005 132.887L218.162 132.953L225.946 138.523L225.898 139.363L224.105 139.26L224.138 138.692L218.256 134.484L218.166 134.479L217.77 141.354L216.522 141.282L217.005 132.887ZM214.308 138.218L217.042 138.375L217.581 138.406L225.925 138.886L225.848 140.225L214.231 139.556L214.308 138.218Z" fill="#71C4FF"/>
<path d="M213.704 144.872L214.707 145.073L218.071 149.668C218.465 150.207 218.812 150.655 219.111 151.013C219.413 151.371 219.709 151.651 219.997 151.852C220.288 152.057 220.608 152.195 220.957 152.265C221.358 152.346 221.724 152.319 222.057 152.185C222.388 152.055 222.667 151.84 222.893 151.542C223.119 151.243 223.274 150.888 223.357 150.476C223.445 150.038 223.431 149.637 223.314 149.274C223.201 148.915 223.001 148.614 222.714 148.37C222.426 148.131 222.065 147.967 221.63 147.88L221.894 146.565C222.563 146.7 223.119 146.972 223.562 147.382C224.005 147.791 224.314 148.29 224.489 148.878C224.664 149.47 224.685 150.098 224.551 150.762C224.416 151.431 224.156 151.995 223.77 152.454C223.384 152.914 222.922 153.242 222.384 153.439C221.846 153.636 221.284 153.675 220.697 153.557C220.277 153.473 219.882 153.314 219.512 153.081C219.144 152.853 218.753 152.504 218.337 152.034C217.925 151.568 217.433 150.938 216.863 150.144L214.638 147.03L214.549 147.012L213.482 152.315L212.257 152.069L213.704 144.872Z" fill="#71C4FF"/>
<path d="M209.857 159.498C210.105 158.791 210.447 158.202 210.884 157.733C211.32 157.268 211.812 156.948 212.358 156.774C212.907 156.605 213.474 156.607 214.06 156.78L213.586 158.131C213.223 158.036 212.874 158.051 212.542 158.175C212.213 158.301 211.918 158.512 211.657 158.81C211.396 159.108 211.192 159.468 211.044 159.89C210.879 160.362 210.815 160.809 210.852 161.231C210.888 161.654 211.017 162.02 211.238 162.33C211.458 162.64 211.761 162.862 212.148 162.997C212.552 163.139 212.942 163.163 213.32 163.071C213.701 162.979 214.047 162.771 214.357 162.447C214.668 162.122 214.92 161.681 215.116 161.123L215.424 160.243L216.603 160.656L216.295 161.536C216.143 161.972 216.087 162.382 216.13 162.766C216.17 163.154 216.301 163.491 216.522 163.777C216.742 164.066 217.045 164.279 217.431 164.414C217.803 164.544 218.155 164.575 218.488 164.507C218.821 164.439 219.117 164.282 219.376 164.035C219.633 163.792 219.833 163.469 219.974 163.065C220.107 162.686 220.162 162.304 220.14 161.919C220.121 161.539 220.018 161.198 219.831 160.895C219.647 160.594 219.376 160.371 219.018 160.226L219.468 158.939C220.036 159.162 220.48 159.511 220.798 159.988C221.121 160.466 221.311 161.011 221.37 161.621C221.428 162.235 221.346 162.859 221.125 163.492C220.887 164.171 220.545 164.706 220.1 165.095C219.658 165.486 219.168 165.734 218.63 165.839C218.091 165.943 217.563 165.905 217.045 165.723C216.426 165.507 215.956 165.159 215.634 164.681C215.31 164.207 215.161 163.663 215.187 163.05L215.101 163.02C214.744 163.674 214.26 164.112 213.648 164.335C213.039 164.56 212.387 164.55 211.689 164.306C211.092 164.097 210.613 163.746 210.252 163.255C209.892 162.768 209.674 162.198 209.598 161.545C209.522 160.892 209.608 160.21 209.857 159.498Z" fill="#71C4FF"/>
<path d="M209.611 167.391L210.639 167.927L215.453 176.199L215.065 176.945L213.473 176.116L213.735 175.612L210.097 169.361L210.016 169.319L206.836 175.427L205.727 174.85L209.611 167.391ZM204.965 171.147L207.394 172.412L207.872 172.662L215.286 176.522L214.666 177.711L204.345 172.337L204.965 171.147Z" fill="#71C4FF"/>
<path d="M199.411 179.854C199.799 179.312 200.257 178.901 200.783 178.621C201.31 178.341 201.855 178.204 202.418 178.212C202.981 178.219 203.512 178.382 204.01 178.701L203.216 179.81C202.757 179.547 202.264 179.487 201.737 179.632C201.21 179.781 200.774 180.098 200.428 180.581C200.15 180.969 199.994 181.379 199.959 181.811C199.923 182.246 200.001 182.664 200.195 183.063C200.39 183.468 200.689 183.815 201.092 184.104C201.505 184.399 201.938 184.572 202.392 184.622C202.846 184.677 203.28 184.615 203.692 184.435C204.105 184.255 204.457 183.965 204.749 183.564C204.96 183.276 205.128 182.947 205.254 182.576C205.383 182.207 205.447 181.873 205.446 181.575L206.343 180.596L210.59 184.503L207.071 189.418L206.054 188.69L208.885 184.736L206.333 182.405L206.294 182.461C206.309 182.765 206.262 183.1 206.154 183.465C206.047 183.831 205.879 184.172 205.652 184.489C205.237 185.068 204.729 185.485 204.128 185.739C203.528 185.999 202.896 186.087 202.234 186.004C201.569 185.924 200.93 185.665 200.317 185.226C199.713 184.794 199.271 184.272 198.991 183.662C198.712 183.056 198.604 182.42 198.667 181.752C198.733 181.087 198.981 180.454 199.411 179.854Z" fill="#71C4FF"/>
<path d="M192.418 188.428C192.751 188.087 193.145 187.802 193.6 187.575C194.054 187.348 194.567 187.233 195.137 187.231C195.711 187.231 196.337 187.388 197.015 187.701C197.697 188.017 198.428 188.544 199.21 189.284C199.958 189.992 200.555 190.689 201 191.376C201.448 192.065 201.744 192.731 201.888 193.373C202.035 194.017 202.033 194.625 201.883 195.198C201.73 195.773 201.428 196.298 200.978 196.774C200.531 197.248 200.037 197.579 199.499 197.768C198.96 197.963 198.412 198.018 197.855 197.935C197.299 197.851 196.769 197.637 196.266 197.292L197.219 196.284C197.687 196.55 198.174 196.666 198.679 196.633C199.185 196.601 199.648 196.361 200.07 195.915C200.689 195.26 200.893 194.475 200.68 193.559C200.464 192.646 199.843 191.702 198.816 190.725L198.753 190.791C198.842 191.167 198.868 191.539 198.833 191.907C198.798 192.28 198.703 192.639 198.549 192.984C198.396 193.328 198.182 193.645 197.909 193.934C197.451 194.418 196.91 194.747 196.288 194.92C195.669 195.095 195.033 195.103 194.38 194.945C193.73 194.789 193.132 194.453 192.587 193.938C192.064 193.443 191.696 192.873 191.483 192.228C191.272 191.586 191.239 190.931 191.384 190.266C191.529 189.605 191.873 188.993 192.418 188.428ZM193.326 189.287C192.998 189.634 192.79 190.027 192.704 190.466C192.614 190.908 192.64 191.347 192.78 191.782C192.919 192.22 193.167 192.609 193.524 192.947C193.874 193.277 194.266 193.5 194.7 193.613C195.135 193.733 195.567 193.737 195.995 193.626C196.421 193.517 196.797 193.29 197.125 192.943C197.373 192.682 197.551 192.389 197.66 192.064C197.771 191.742 197.818 191.411 197.801 191.071C197.781 190.734 197.7 190.408 197.56 190.093C197.423 189.781 197.228 189.505 196.975 189.266C196.639 188.948 196.251 188.73 195.811 188.611C195.368 188.494 194.927 188.489 194.488 188.595C194.046 188.704 193.659 188.935 193.326 189.287Z" fill="#71C4FF"/>
<path d="M186.558 203.111L187.277 202.086C187.462 202.193 187.672 202.274 187.906 202.328C188.14 202.386 188.393 202.385 188.666 202.324C188.938 202.263 189.226 202.109 189.528 201.863C189.942 201.525 190.21 201.149 190.33 200.733C190.45 200.322 190.391 199.972 190.155 199.681C189.944 199.423 189.684 199.295 189.374 199.299C189.064 199.302 188.668 199.417 188.188 199.642L186.983 200.214C186.258 200.56 185.624 200.703 185.081 200.642C184.541 200.585 184.078 200.319 183.692 199.847C183.376 199.459 183.206 199.022 183.18 198.535C183.151 198.05 183.263 197.558 183.516 197.058C183.769 196.559 184.158 196.095 184.683 195.667C185.373 195.105 186.067 194.789 186.763 194.72C187.459 194.651 188.102 194.855 188.691 195.332L187.906 196.383C187.515 196.095 187.115 195.967 186.705 195.998C186.293 196.031 185.873 196.222 185.448 196.569C184.963 196.964 184.662 197.38 184.545 197.817C184.427 198.26 184.487 198.627 184.724 198.918C184.915 199.153 185.158 199.283 185.451 199.307C185.748 199.335 186.098 199.249 186.503 199.051L187.846 198.396C188.585 198.038 189.226 197.894 189.768 197.966C190.309 198.043 190.77 198.314 191.151 198.781C191.462 199.163 191.63 199.588 191.655 200.056C191.677 200.527 191.57 200.998 191.333 201.469C191.094 201.943 190.736 202.374 190.261 202.761C189.591 203.307 188.946 203.588 188.325 203.606C187.701 203.626 187.112 203.461 186.558 203.111Z" fill="#71C4FF"/>
<path d="M179.166 200.131L180.303 211.611L180.352 211.688L185.414 208.467L186.085 209.521L179.796 213.524L179.088 212.412L177.92 200.925L179.166 200.131Z" fill="#71C4FF"/>
<path d="M167.948 206.351C168.708 205.992 169.443 205.849 170.153 205.924C170.861 206.004 171.508 206.277 172.092 206.742C172.675 207.212 173.158 207.851 173.54 208.659C173.922 209.467 174.112 210.249 174.109 211.005C174.104 211.766 173.918 212.444 173.551 213.041C173.182 213.643 172.641 214.113 171.929 214.449C171.518 214.644 171.08 214.767 170.614 214.82C170.149 214.872 169.679 214.822 169.205 214.669C168.732 214.52 168.279 214.24 167.845 213.829C167.412 213.418 167.021 212.844 166.673 212.108L166.43 211.594L172.512 208.718L173.007 209.766L168.159 212.059C168.369 212.504 168.646 212.859 168.989 213.124C169.329 213.391 169.709 213.549 170.13 213.597C170.548 213.647 170.976 213.568 171.414 213.36C171.897 213.132 172.258 212.815 172.497 212.408C172.735 212.007 172.858 211.571 172.866 211.102C172.875 210.633 172.776 210.181 172.571 209.746L172.24 209.048C171.958 208.452 171.617 207.995 171.215 207.678C170.812 207.366 170.375 207.19 169.903 207.149C169.433 207.111 168.953 207.209 168.463 207.44C168.144 207.591 167.878 207.771 167.663 207.982C167.447 208.197 167.287 208.44 167.185 208.711C167.084 208.985 167.047 209.283 167.074 209.606L165.747 209.831C165.682 209.375 165.724 208.928 165.873 208.489C166.023 208.054 166.273 207.651 166.621 207.28C166.972 206.914 167.414 206.604 167.948 206.351Z" fill="#71C4FF"/>
<path d="M161.621 209.27L164.476 217.517L163.252 217.941L162.821 216.695L162.735 216.725C162.726 217.185 162.568 217.61 162.262 218.001C161.957 218.391 161.557 218.672 161.063 218.843C160.97 218.875 160.853 218.914 160.712 218.958C160.571 219.003 160.464 219.034 160.39 219.052L159.944 217.763C159.99 217.759 160.094 217.741 160.256 217.709C160.415 217.682 160.578 217.64 160.746 217.582C161.147 217.443 161.476 217.235 161.733 216.958C161.987 216.685 162.155 216.371 162.236 216.014C162.315 215.662 162.29 215.3 162.161 214.928L160.354 209.709L161.621 209.27Z" fill="#71C4FF"/>
<path d="M151.309 212.191C152.071 212.021 152.774 212.005 153.418 212.144C154.06 212.288 154.596 212.561 155.029 212.965C155.461 213.373 155.745 213.884 155.878 214.499C155.99 214.978 155.995 215.443 155.894 215.893C155.793 216.346 155.607 216.747 155.336 217.095C155.062 217.447 154.726 217.707 154.328 217.873L154.343 217.94C154.918 217.959 155.419 218.167 155.845 218.564C156.273 218.965 156.552 219.468 156.684 220.071C156.816 220.647 156.786 221.195 156.592 221.716C156.398 222.237 156.072 222.686 155.613 223.065C155.15 223.444 154.587 223.708 153.921 223.857C153.263 224.004 152.646 224.005 152.07 223.858C151.494 223.711 151.007 223.444 150.609 223.055C150.208 222.668 149.941 222.186 149.808 221.61C149.677 221.007 149.721 220.432 149.941 219.886C150.157 219.345 150.516 218.944 151.016 218.685L151.002 218.618C150.575 218.636 150.166 218.543 149.775 218.34C149.384 218.14 149.045 217.857 148.758 217.49C148.471 217.128 148.272 216.706 148.16 216.227C148.027 215.612 148.071 215.028 148.292 214.474C148.51 213.924 148.879 213.447 149.398 213.044C149.915 212.645 150.552 212.361 151.309 212.191ZM151.582 213.411C151.069 213.526 150.644 213.708 150.308 213.958C149.971 214.208 149.736 214.508 149.6 214.856C149.465 215.205 149.441 215.583 149.528 215.99C149.628 216.418 149.824 216.772 150.115 217.052C150.407 217.333 150.763 217.525 151.182 217.629C151.597 217.734 152.045 217.732 152.526 217.625C153.01 217.516 153.421 217.325 153.76 217.051C154.095 216.779 154.334 216.453 154.479 216.075C154.62 215.698 154.64 215.296 154.54 214.868C154.453 214.461 154.276 214.128 154.008 213.869C153.737 213.612 153.394 213.442 152.98 213.36C152.566 213.278 152.1 213.295 151.582 213.411ZM152.789 218.8C152.382 218.891 152.04 219.053 151.763 219.286C151.481 219.52 151.282 219.803 151.167 220.136C151.051 220.468 151.035 220.831 151.119 221.224C151.209 221.607 151.374 221.921 151.616 222.166C151.857 222.415 152.153 222.582 152.502 222.667C152.852 222.755 153.235 222.753 153.653 222.659C154.078 222.564 154.432 222.401 154.714 222.171C154.997 221.945 155.193 221.668 155.303 221.341C155.413 221.017 155.423 220.664 155.333 220.28C155.249 219.887 155.086 219.565 154.843 219.313C154.596 219.061 154.296 218.89 153.942 218.798C153.587 218.707 153.203 218.708 152.789 218.8Z" fill="#71C4FF"/>
<path d="M139.894 213.988C140.642 213.927 141.319 214.002 141.925 214.211C142.527 214.42 143.019 214.739 143.399 215.168C143.777 215.601 144.005 216.121 144.085 216.726L142.657 216.842C142.597 216.471 142.442 216.158 142.194 215.905C141.945 215.655 141.632 215.472 141.254 215.354C140.876 215.237 140.464 215.196 140.018 215.232C139.52 215.273 139.085 215.395 138.714 215.6C138.343 215.805 138.061 216.071 137.867 216.399C137.673 216.726 137.593 217.094 137.626 217.502C137.661 217.928 137.797 218.295 138.035 218.603C138.273 218.914 138.603 219.146 139.026 219.297C139.449 219.449 139.955 219.501 140.544 219.453L141.473 219.378L141.574 220.624L140.645 220.699C140.184 220.737 139.787 220.853 139.453 221.047C139.116 221.242 138.861 221.498 138.689 221.816C138.514 222.134 138.443 222.497 138.476 222.905C138.508 223.298 138.622 223.632 138.819 223.909C139.017 224.185 139.281 224.392 139.611 224.529C139.937 224.666 140.314 224.717 140.741 224.682C141.141 224.649 141.512 224.545 141.855 224.369C142.195 224.197 142.465 223.964 142.665 223.671C142.866 223.381 142.96 223.042 142.947 222.656L144.307 222.545C144.333 223.155 144.193 223.702 143.887 224.187C143.581 224.675 143.161 225.071 142.627 225.372C142.089 225.675 141.486 225.853 140.817 225.907C140.1 225.965 139.473 225.87 138.936 225.621C138.399 225.376 137.974 225.028 137.66 224.579C137.346 224.129 137.166 223.631 137.122 223.083C137.069 222.43 137.195 221.859 137.502 221.371C137.804 220.883 138.241 220.526 138.811 220.301L138.804 220.21C138.062 220.149 137.464 219.884 137.012 219.416C136.56 218.951 136.304 218.35 136.244 217.614C136.193 216.983 136.319 216.403 136.622 215.873C136.921 215.347 137.353 214.917 137.919 214.582C138.485 214.247 139.143 214.049 139.894 213.988Z" fill="#71C4FF"/>
<path d="M132.587 216.967L132.517 218.124L126.922 225.89L126.083 225.839L126.192 224.047L126.759 224.081L130.986 218.213L130.992 218.123L124.118 217.705L124.194 216.457L132.587 216.967ZM127.265 214.253L127.099 216.987L127.066 217.525L126.559 225.868L125.221 225.787L125.926 214.172L127.265 214.253Z" fill="#71C4FF"/>
<path d="M117.086 212.743C117.74 212.876 118.302 213.125 118.773 213.491C119.244 213.857 119.591 214.298 119.815 214.815C120.039 215.332 120.107 215.883 120.019 216.468L118.683 216.197C118.735 215.671 118.588 215.196 118.24 214.774C117.889 214.355 117.421 214.087 116.838 213.969C116.371 213.874 115.933 213.899 115.524 214.045C115.112 214.189 114.764 214.432 114.479 214.772C114.189 215.115 113.995 215.53 113.896 216.016C113.795 216.514 113.815 216.98 113.955 217.414C114.091 217.851 114.325 218.221 114.658 218.524C114.991 218.827 115.4 219.03 115.886 219.132C116.234 219.207 116.603 219.225 116.993 219.188C117.382 219.155 117.713 219.077 117.985 218.954L119.246 219.372L117.419 224.846L111.493 223.646L111.741 222.421L116.508 223.386L117.59 220.103L117.524 220.09C117.252 220.228 116.928 220.323 116.55 220.374C116.173 220.425 115.793 220.412 115.41 220.335C114.712 220.193 114.124 219.9 113.646 219.456C113.164 219.014 112.825 218.474 112.629 217.835C112.43 217.196 112.406 216.507 112.555 215.768C112.702 215.04 112.997 214.424 113.44 213.918C113.878 213.416 114.414 213.057 115.049 212.841C115.683 212.629 116.362 212.597 117.086 212.743Z" fill="#71C4FF"/>
<path d="M106.291 209.835C106.999 210.083 107.587 210.425 108.057 210.862C108.522 211.297 108.842 211.788 109.017 212.335C109.186 212.883 109.184 213.45 109.012 214.036L107.66 213.564C107.755 213.2 107.74 212.852 107.616 212.519C107.49 212.19 107.278 211.896 106.98 211.635C106.682 211.374 106.322 211.17 105.9 211.023C105.428 210.858 104.981 210.794 104.559 210.831C104.136 210.868 103.77 210.997 103.46 211.217C103.151 211.438 102.928 211.742 102.793 212.128C102.652 212.532 102.628 212.923 102.721 213.3C102.812 213.681 103.02 214.027 103.345 214.337C103.67 214.647 104.112 214.9 104.669 215.095L105.549 215.402L105.137 216.582L104.257 216.275C103.821 216.122 103.411 216.067 103.027 216.11C102.639 216.151 102.303 216.282 102.017 216.503C101.727 216.723 101.515 217.026 101.38 217.412C101.25 217.784 101.219 218.136 101.287 218.469C101.356 218.802 101.513 219.098 101.76 219.356C102.003 219.614 102.326 219.813 102.73 219.954C103.109 220.087 103.491 220.142 103.876 220.12C104.256 220.1 104.597 219.997 104.9 219.81C105.201 219.626 105.424 219.355 105.569 218.996L106.856 219.446C106.634 220.014 106.284 220.458 105.807 220.777C105.33 221.099 104.785 221.29 104.175 221.35C103.561 221.408 102.937 221.327 102.304 221.105C101.625 220.868 101.09 220.527 100.7 220.081C100.309 219.64 100.06 219.15 99.9556 218.612C99.8508 218.073 99.8889 217.545 100.07 217.027C100.286 216.408 100.633 215.937 101.111 215.615C101.585 215.291 102.129 215.142 102.742 215.168L102.772 215.082C102.118 214.725 101.68 214.241 101.456 213.629C101.231 213.021 101.241 212.368 101.484 211.671C101.693 211.073 102.043 210.594 102.535 210.232C103.022 209.872 103.591 209.654 104.244 209.577C104.897 209.501 105.579 209.587 106.291 209.835Z" fill="#71C4FF"/>
<path d="M98.3972 209.593L97.8624 210.622L89.5929 215.441L88.8468 215.053L89.6751 213.46L90.1792 213.722L96.4275 210.081L96.4695 210L90.3597 206.823L90.9364 205.714L98.3972 209.593ZM94.6385 204.949L93.3751 207.379L93.126 207.858L89.2702 215.273L88.0805 214.655L93.4488 204.331L94.6385 204.949Z" fill="#71C4FF"/>
<path d="M85.8463 199.344C86.4796 199.8 86.9585 200.315 87.2828 200.889C87.6018 201.463 87.7539 202.046 87.7391 202.638C87.7221 203.232 87.5285 203.783 87.1581 204.292C86.8736 204.694 86.5298 205.006 86.1265 205.229C85.7211 205.456 85.2981 205.583 84.8577 205.611C84.412 205.641 83.9948 205.562 83.6062 205.376L83.5664 205.431C83.9343 205.873 84.1115 206.386 84.0981 206.969C84.0824 207.555 83.8927 208.097 83.5291 208.596C83.187 209.078 82.757 209.42 82.2389 209.621C81.7208 209.822 81.168 209.877 80.5805 209.786C79.9898 209.692 79.4178 209.446 78.8644 209.048C78.3171 208.654 77.9067 208.193 77.6333 207.665C77.3599 207.137 77.2363 206.595 77.2624 206.04C77.2855 205.483 77.468 204.963 77.8101 204.481C78.1737 203.982 78.6325 203.634 79.1862 203.435C79.7347 203.237 80.2723 203.238 80.7991 203.44L80.8389 203.385C80.5419 203.078 80.3395 202.71 80.2318 202.283C80.1218 201.859 80.1082 201.417 80.1908 200.959C80.2711 200.503 80.4536 200.074 80.7381 199.672C81.1084 199.164 81.5742 198.809 82.1355 198.606C82.6914 198.404 83.2926 198.363 83.939 198.483C84.5802 198.603 85.2159 198.89 85.8463 199.344ZM85.1162 200.359C84.6888 200.051 84.2701 199.855 83.86 199.77C83.4499 199.685 83.0696 199.707 82.7191 199.838C82.3685 199.968 82.0701 200.201 81.8236 200.537C81.5701 200.896 81.4356 201.278 81.4201 201.682C81.4046 202.086 81.4973 202.48 81.6981 202.862C81.8958 203.242 82.1945 203.576 82.5942 203.864C82.997 204.154 83.4132 204.334 83.8427 204.405C84.2691 204.474 84.6715 204.437 85.0498 204.294C85.425 204.148 85.7394 203.896 85.993 203.537C86.2394 203.201 86.3703 202.848 86.3857 202.476C86.398 202.102 86.2971 201.733 86.083 201.369C85.8689 201.005 85.5467 200.668 85.1162 200.359ZM81.8907 204.842C81.5525 204.598 81.2041 204.45 80.8454 204.397C80.4836 204.342 80.14 204.382 79.8146 204.517C79.4891 204.651 79.2076 204.88 78.9701 205.204C78.7431 205.526 78.6182 205.858 78.5954 206.201C78.5705 206.547 78.6422 206.879 78.8106 207.196C78.9769 207.516 79.2337 207.802 79.5811 208.052C79.9347 208.306 80.2913 208.462 80.6509 208.52C81.0082 208.581 81.3454 208.544 81.6625 208.408C81.9773 208.275 82.2483 208.048 82.4753 207.726C82.7128 207.402 82.8452 207.066 82.8724 206.717C82.8965 206.365 82.825 206.027 82.6579 205.702C82.4908 205.376 82.2351 205.089 81.8907 204.842Z" fill="#71C4FF"/>
<path d="M79.4647 194.619L68.6196 198.552L68.5573 198.618L72.9275 202.729L72.071 203.639L66.6413 198.532L67.5445 197.571L78.3887 193.607L79.4647 194.619Z" fill="#71C4FF"/>
</g>
</g>
<defs>
<clipPath id="clip0_98_357">
<rect width="266" height="266" fill="white"/>
</clipPath>
</defs>
</svg>
