<svg width="266" height="266" viewBox="0 0 266 266" fill="none" xmlns="http://www.w3.org/2000/svg">
<g clip-path="url(#clip0_74_163)">
<g opacity="0.15">
<path d="M248.544 139.572C248.596 138.846 248.824 138.219 249.23 137.689C249.64 137.16 250.192 136.762 250.887 136.496C251.585 136.231 252.395 136.13 253.317 136.196C254.232 136.26 255.014 136.473 255.664 136.834C256.315 137.196 256.803 137.669 257.13 138.254C257.457 138.839 257.595 139.498 257.543 140.231C257.503 140.798 257.377 141.239 257.165 141.554C256.956 141.874 256.726 142.112 256.476 142.269C256.229 142.43 256.027 142.554 255.869 142.642L255.861 142.755L260.145 143.058L260.051 144.396L248.443 143.575L248.535 142.282L249.872 142.377L249.884 142.218C249.732 142.109 249.541 141.955 249.312 141.756C249.087 141.558 248.892 141.284 248.727 140.935C248.566 140.585 248.505 140.131 248.544 139.572ZM249.733 139.838C249.695 140.375 249.803 140.838 250.056 141.228C250.313 141.618 250.685 141.928 251.17 142.156C251.659 142.384 252.232 142.521 252.889 142.568C253.539 142.614 254.114 142.559 254.615 142.405C255.12 142.251 255.521 141.998 255.819 141.647C256.121 141.296 256.292 140.849 256.33 140.305C256.37 139.738 256.258 139.256 255.994 138.857C255.733 138.463 255.362 138.154 254.881 137.93C254.402 137.71 253.857 137.578 253.245 137.535C252.626 137.491 252.056 137.546 251.536 137.699C251.02 137.856 250.6 138.111 250.275 138.464C249.953 138.821 249.773 139.279 249.733 139.838Z" fill="#71C4FF"/>
<path d="M255.389 157.518L254.27 157.318L255.065 152.866L256.184 153.066L255.389 157.518ZM258.01 154.731L257.775 156.051L249.586 154.589C249.213 154.523 248.924 154.527 248.718 154.602C248.515 154.681 248.367 154.801 248.273 154.961C248.182 155.126 248.119 155.305 248.085 155.499C248.059 155.644 248.045 155.765 248.043 155.861C248.045 155.957 248.047 156.034 248.048 156.092L246.814 156.149C246.797 156.054 246.785 155.923 246.78 155.756C246.772 155.589 246.789 155.383 246.833 155.137C246.9 154.764 247.045 154.413 247.269 154.083C247.493 153.758 247.79 153.507 248.16 153.33C248.529 153.158 248.964 153.116 249.464 153.205L258.01 154.731Z" fill="#71C4FF"/>
<path d="M244.792 164.088C245.023 163.28 245.402 162.634 245.927 162.15C246.454 161.67 247.085 161.365 247.821 161.233C248.559 161.105 249.357 161.165 250.217 161.411C251.076 161.657 251.788 162.031 252.354 162.532C252.922 163.038 253.31 163.625 253.516 164.295C253.724 164.97 253.72 165.686 253.503 166.443C253.378 166.88 253.181 167.291 252.913 167.675C252.646 168.059 252.298 168.379 251.87 168.635C251.446 168.891 250.936 169.047 250.341 169.101C249.747 169.155 249.058 169.07 248.275 168.846L247.729 168.689L249.582 162.222L250.696 162.542L249.219 167.698C249.692 167.833 250.142 167.86 250.567 167.777C250.992 167.697 251.361 167.516 251.675 167.231C251.988 166.951 252.211 166.577 252.345 166.111C252.492 165.598 252.492 165.117 252.345 164.669C252.2 164.225 251.954 163.846 251.607 163.53C251.26 163.213 250.856 162.989 250.393 162.857L249.651 162.644C249.017 162.462 248.449 162.417 247.945 162.51C247.445 162.607 247.023 162.819 246.681 163.146C246.343 163.475 246.099 163.899 245.95 164.42C245.853 164.759 245.812 165.078 245.829 165.378C245.848 165.683 245.925 165.964 246.061 166.219C246.2 166.476 246.4 166.7 246.66 166.893L245.953 168.038C245.568 167.786 245.26 167.459 245.028 167.058C244.8 166.658 244.662 166.205 244.614 165.698C244.57 165.193 244.629 164.656 244.792 164.088Z" fill="#71C4FF"/>
<path d="M240.005 178.364C240.272 177.754 240.634 177.257 241.091 176.874C241.548 176.491 242.053 176.244 242.605 176.134C243.158 176.025 243.711 176.074 244.264 176.283L243.718 177.533C243.214 177.37 242.719 177.414 242.234 177.665C241.75 177.92 241.389 178.32 241.15 178.865C240.959 179.303 240.891 179.736 240.947 180.166C241.002 180.599 241.165 180.991 241.438 181.341C241.712 181.697 242.076 181.974 242.531 182.173C242.996 182.377 243.456 182.456 243.91 182.41C244.365 182.37 244.777 182.219 245.143 181.958C245.51 181.696 245.794 181.339 245.997 180.886C246.143 180.561 246.239 180.205 246.285 179.815C246.335 179.428 246.328 179.088 246.266 178.796L246.94 177.652L251.905 180.593L249.482 186.132L248.337 185.631L250.286 181.175L247.306 179.425L247.278 179.487C247.356 179.782 247.38 180.119 247.351 180.499C247.321 180.878 247.228 181.247 247.072 181.604C246.786 182.257 246.376 182.77 245.84 183.143C245.307 183.522 244.707 183.739 244.042 183.795C243.375 183.855 242.696 183.734 242.005 183.432C241.325 183.134 240.785 182.716 240.384 182.177C239.985 181.642 239.747 181.042 239.671 180.376C239.598 179.712 239.709 179.041 240.005 178.364Z" fill="#71C4FF"/>
<path d="M235.01 189.444L241.144 199.214L241.222 199.261L244.318 194.121L245.388 194.766L241.543 201.152L240.414 200.472L234.247 190.71L235.01 189.444Z" fill="#71C4FF"/>
<path d="M225.105 204.288C225.409 203.92 225.778 203.604 226.212 203.34C226.646 203.075 227.147 202.918 227.716 202.868C228.287 202.82 228.924 202.924 229.626 203.179C230.332 203.437 231.105 203.901 231.945 204.573C232.751 205.215 233.404 205.86 233.905 206.508C234.409 207.157 234.76 207.796 234.957 208.423C235.157 209.053 235.206 209.659 235.104 210.242C235 210.828 234.743 211.377 234.334 211.889C233.928 212.398 233.464 212.77 232.943 213.003C232.423 213.242 231.882 213.343 231.32 213.307C230.758 213.27 230.212 213.101 229.682 212.799L230.547 211.715C231.036 211.941 231.531 212.016 232.032 211.941C232.533 211.866 232.975 211.589 233.358 211.109C233.92 210.405 234.057 209.605 233.768 208.71C233.476 207.818 232.778 206.929 231.674 206.042L231.617 206.113C231.736 206.48 231.794 206.848 231.789 207.218C231.785 207.593 231.721 207.959 231.597 208.315C231.472 208.671 231.286 209.005 231.038 209.315C230.622 209.836 230.111 210.209 229.506 210.433C228.903 210.66 228.27 210.721 227.606 210.618C226.945 210.517 226.322 210.232 225.736 209.764C225.173 209.315 224.759 208.778 224.492 208.153C224.228 207.531 224.14 206.882 224.229 206.206C224.318 205.536 224.61 204.896 225.105 204.288ZM226.082 205.068C225.785 205.441 225.611 205.85 225.561 206.295C225.509 206.743 225.571 207.178 225.748 207.6C225.922 208.025 226.202 208.392 226.586 208.699C226.962 208.999 227.372 209.187 227.814 209.265C228.257 209.347 228.688 209.315 229.105 209.168C229.52 209.025 229.877 208.766 230.175 208.393C230.399 208.112 230.552 207.805 230.633 207.473C230.718 207.143 230.737 206.809 230.691 206.472C230.643 206.138 230.536 205.82 230.37 205.517C230.207 205.218 229.989 204.959 229.717 204.742C229.355 204.453 228.951 204.268 228.502 204.186C228.051 204.108 227.612 204.139 227.183 204.282C226.752 204.427 226.385 204.689 226.082 205.068Z" fill="#71C4FF"/>
<path d="M214.428 216.418C214.973 215.902 215.547 215.536 216.15 215.319C216.751 215.105 217.334 215.046 217.899 215.142C218.464 215.243 218.968 215.504 219.409 215.926L218.37 216.911C218.09 216.659 217.773 216.513 217.421 216.471C217.071 216.432 216.712 216.485 216.343 216.631C215.975 216.776 215.629 217.002 215.304 217.31C214.941 217.653 214.679 218.021 214.519 218.414C214.358 218.806 214.304 219.19 214.359 219.567C214.413 219.943 214.58 220.28 214.862 220.577C215.156 220.888 215.492 221.089 215.87 221.179C216.251 221.273 216.653 221.246 217.078 221.1C217.503 220.953 217.93 220.677 218.359 220.27L219.035 219.63L219.895 220.537L219.218 221.178C218.883 221.496 218.646 221.835 218.507 222.196C218.366 222.559 218.328 222.918 218.393 223.274C218.456 223.632 218.628 223.959 218.909 224.256C219.18 224.542 219.479 224.731 219.806 224.823C220.133 224.915 220.468 224.911 220.811 224.81C221.152 224.713 221.477 224.516 221.788 224.222C222.079 223.946 222.304 223.632 222.461 223.28C222.617 222.933 222.682 222.582 222.654 222.228C222.629 221.876 222.49 221.554 222.238 221.26L223.228 220.322C223.631 220.781 223.865 221.295 223.93 221.865C223.997 222.437 223.918 223.009 223.69 223.579C223.46 224.151 223.102 224.668 222.615 225.129C222.093 225.624 221.544 225.942 220.97 226.085C220.398 226.23 219.848 226.226 219.322 226.072C218.796 225.918 218.344 225.642 217.966 225.243C217.515 224.768 217.256 224.244 217.189 223.671C217.119 223.101 217.236 222.55 217.539 222.017L217.477 221.951C216.86 222.368 216.228 222.536 215.582 222.454C214.939 222.375 214.363 222.067 213.855 221.531C213.42 221.071 213.154 220.54 213.058 219.937C212.962 219.34 213.029 218.734 213.261 218.118C213.492 217.503 213.881 216.936 214.428 216.418Z" fill="#71C4FF"/>
<path d="M207.148 226.543L207.818 227.489L208.321 237.047L207.635 237.533L206.597 236.068L207.061 235.74L206.68 228.518L206.627 228.443L201.008 232.424L200.285 231.403L207.148 226.543ZM201.299 227.762L202.881 229.996L203.193 230.437L208.024 237.257L206.93 238.032L200.204 228.537L201.299 227.762Z" fill="#71C4FF"/>
<path d="M189.432 231.674C189.633 231.569 189.822 231.492 189.997 231.443C190.17 231.39 190.295 231.363 190.372 231.362L190.618 232.567C190.29 232.644 190.021 232.751 189.81 232.887C189.599 233.023 189.455 233.225 189.377 233.492C189.294 233.758 189.283 234.125 189.344 234.593L189.439 235.313L196.367 241.588L195.079 242.263L189.719 237.219L189.638 237.262L190.73 244.54L189.441 245.215L188.084 234.637C188.023 234.161 188.033 233.734 188.114 233.358C188.193 232.979 188.344 232.65 188.566 232.371C188.784 232.095 189.073 231.862 189.432 231.674Z" fill="#71C4FF"/>
<path d="M175.923 241.569C176.606 241.319 177.272 241.271 177.921 241.424C178.572 241.581 179.16 241.922 179.688 242.447C180.216 242.975 180.64 243.673 180.958 244.541C181.273 245.401 181.399 246.202 181.336 246.944C181.273 247.685 181.042 248.325 180.642 248.862C180.242 249.4 179.697 249.796 179.007 250.049C178.474 250.244 178.02 250.31 177.645 250.245C177.268 250.186 176.957 250.074 176.711 249.91C176.463 249.751 176.267 249.617 176.122 249.509L176.015 249.548L177.494 253.581L176.235 254.042L172.23 243.117L173.446 242.671L173.908 243.93L174.057 243.875C174.095 243.692 174.157 243.455 174.245 243.165C174.333 242.878 174.503 242.588 174.754 242.294C175.007 242.004 175.397 241.762 175.923 241.569ZM176.167 242.763C175.662 242.948 175.283 243.236 175.031 243.627C174.78 244.022 174.65 244.487 174.641 245.023C174.633 245.562 174.743 246.141 174.969 246.76C175.194 247.372 175.479 247.875 175.825 248.268C176.172 248.665 176.567 248.928 177.009 249.056C177.453 249.188 177.931 249.16 178.443 248.973C178.977 248.777 179.371 248.477 179.626 248.073C179.879 247.674 180.009 247.208 180.016 246.677C180.021 246.151 179.918 245.6 179.707 245.024C179.493 244.44 179.21 243.943 178.857 243.532C178.502 243.125 178.097 242.846 177.642 242.694C177.185 242.547 176.693 242.57 176.167 242.763Z" fill="#71C4FF"/>
<path d="M160.195 246.538C160.664 246.446 161.149 246.435 161.652 246.505C162.156 246.576 162.643 246.771 163.115 247.093C163.587 247.418 164.014 247.901 164.396 248.544C164.778 249.19 165.082 250.04 165.307 251.092C165.523 252.099 165.62 253.012 165.597 253.83C165.576 254.652 165.442 255.368 165.197 255.979C164.953 256.593 164.607 257.093 164.159 257.479C163.707 257.866 163.161 258.129 162.52 258.266C161.883 258.402 161.289 258.396 160.738 258.246C160.184 258.102 159.701 257.837 159.29 257.453C158.878 257.068 158.563 256.591 158.344 256.022L159.7 255.732C159.935 256.216 160.271 256.588 160.706 256.847C161.141 257.107 161.659 257.172 162.259 257.044C163.14 256.855 163.753 256.323 164.096 255.447C164.435 254.573 164.459 253.443 164.166 252.056L164.077 252.075C163.937 252.435 163.748 252.756 163.51 253.039C163.27 253.327 162.989 253.569 162.667 253.766C162.345 253.963 161.989 254.103 161.6 254.186C160.948 254.326 160.317 254.29 159.707 254.08C159.097 253.874 158.568 253.52 158.12 253.02C157.673 252.523 157.37 251.908 157.213 251.174C157.063 250.47 157.082 249.792 157.272 249.14C157.462 248.491 157.806 247.933 158.302 247.466C158.796 247.004 159.427 246.695 160.195 246.538ZM160.457 247.76C159.99 247.86 159.597 248.067 159.276 248.379C158.952 248.693 158.725 249.069 158.594 249.507C158.459 249.947 158.444 250.407 158.547 250.889C158.648 251.359 158.845 251.764 159.138 252.104C159.429 252.449 159.782 252.697 160.198 252.848C160.61 253 161.05 253.026 161.516 252.926C161.868 252.85 162.181 252.71 162.455 252.504C162.729 252.302 162.955 252.056 163.133 251.766C163.308 251.477 163.426 251.163 163.489 250.824C163.553 250.489 163.549 250.151 163.476 249.81C163.379 249.358 163.183 248.959 162.888 248.611C162.589 248.265 162.229 248.011 161.807 247.849C161.381 247.689 160.931 247.659 160.457 247.76Z" fill="#71C4FF"/>
<path d="M144.32 249.144C145.068 249.091 145.744 249.171 146.348 249.386C146.948 249.601 147.437 249.924 147.814 250.357C148.187 250.793 148.41 251.315 148.484 251.921L147.056 252.023C146.999 251.652 146.847 251.338 146.601 251.082C146.355 250.83 146.044 250.644 145.666 250.523C145.289 250.402 144.878 250.357 144.432 250.39C143.933 250.425 143.498 250.544 143.125 250.746C142.752 250.947 142.467 251.211 142.27 251.536C142.073 251.862 141.99 252.229 142.019 252.637C142.05 253.064 142.183 253.432 142.418 253.742C142.653 254.055 142.981 254.29 143.403 254.446C143.824 254.601 144.329 254.658 144.919 254.616L145.848 254.549L145.938 255.795L145.009 255.862C144.548 255.895 144.149 256.008 143.814 256.199C143.474 256.391 143.217 256.644 143.043 256.961C142.864 257.278 142.79 257.64 142.819 258.048C142.847 258.441 142.959 258.777 143.153 259.055C143.348 259.333 143.61 259.542 143.939 259.682C144.264 259.822 144.641 259.876 145.068 259.846C145.468 259.817 145.84 259.716 146.185 259.543C146.526 259.374 146.798 259.144 147.001 258.852C147.204 258.564 147.302 258.226 147.293 257.84L148.653 257.742C148.674 258.352 148.529 258.898 148.218 259.379C147.908 259.865 147.484 260.256 146.947 260.553C146.406 260.851 145.802 261.023 145.133 261.071C144.415 261.123 143.789 261.022 143.254 260.768C142.72 260.518 142.297 260.167 141.988 259.714C141.678 259.262 141.503 258.762 141.464 258.214C141.417 257.56 141.548 256.991 141.859 256.505C142.166 256.02 142.606 255.667 143.179 255.447L143.172 255.357C142.43 255.288 141.836 255.018 141.388 254.545C140.94 254.076 140.689 253.473 140.636 252.736C140.591 252.106 140.722 251.526 141.03 250.999C141.334 250.476 141.77 250.05 142.339 249.72C142.908 249.39 143.568 249.199 144.32 249.144Z" fill="#71C4FF"/>
<path d="M131.669 249.889L125.841 259.845L125.835 259.936L131.824 260.305L131.747 261.552L124.306 261.094L124.388 259.778L130.194 249.798L131.669 249.889Z" fill="#71C4FF"/>
<path d="M117.373 248.832L117.177 249.836L112.599 253.224C112.062 253.62 111.616 253.969 111.259 254.27C110.903 254.574 110.624 254.871 110.425 255.16C110.221 255.452 110.085 255.773 110.016 256.122C109.938 256.524 109.966 256.89 110.102 257.222C110.234 257.552 110.45 257.83 110.749 258.055C111.049 258.279 111.405 258.432 111.818 258.513C112.256 258.599 112.657 258.583 113.02 258.465C113.378 258.35 113.678 258.148 113.92 257.86C114.158 257.57 114.32 257.208 114.405 256.773L115.721 257.031C115.59 257.7 115.32 258.257 114.913 258.703C114.505 259.148 114.008 259.459 113.421 259.638C112.83 259.815 112.202 259.839 111.537 259.709C110.868 259.578 110.303 259.32 109.841 258.936C109.38 258.553 109.05 258.092 108.85 257.555C108.65 257.018 108.608 256.456 108.723 255.869C108.805 255.449 108.962 255.053 109.193 254.681C109.419 254.313 109.767 253.919 110.235 253.502C110.698 253.087 111.326 252.592 112.117 252.018L115.22 249.777L115.237 249.688L109.929 248.648L110.169 247.421L117.373 248.832Z" fill="#71C4FF"/>
<path d="M98.1125 244.104C98.8212 244.35 99.4108 244.69 99.8812 245.126C100.348 245.56 100.669 246.05 100.845 246.596C101.016 247.145 101.016 247.712 100.845 248.298L99.4921 247.829C99.5862 247.465 99.5705 247.117 99.445 246.785C99.3182 246.456 99.1055 246.162 98.8066 245.902C98.5078 245.642 98.1472 245.439 97.7248 245.293C97.2524 245.129 96.8051 245.067 96.383 245.105C95.9609 245.143 95.5952 245.273 95.2859 245.494C94.9767 245.716 94.7551 246.02 94.6212 246.407C94.4811 246.811 94.458 247.202 94.5518 247.579C94.6444 247.96 94.8536 248.305 95.1794 248.614C95.5052 248.924 95.9473 249.175 96.5056 249.368L97.3861 249.673L96.977 250.855L96.0965 250.55C95.6598 250.398 95.2496 250.344 94.8657 250.388C94.4783 250.43 94.142 250.562 93.8566 250.784C93.5678 251.005 93.3564 251.308 93.2225 251.695C93.0935 252.067 93.0637 252.419 93.1328 252.752C93.202 253.085 93.3603 253.38 93.6076 253.638C93.8514 253.895 94.1755 254.093 94.58 254.233C94.9594 254.365 95.3415 254.419 95.7263 254.396C96.1063 254.375 96.4471 254.271 96.7488 254.083C97.0492 253.898 97.2716 253.626 97.416 253.268L98.7045 253.714C98.4834 254.283 98.135 254.727 97.6593 255.047C97.1823 255.371 96.6386 255.564 96.0281 255.625C95.4141 255.685 94.7903 255.605 94.1568 255.386C93.4768 255.15 92.9411 254.81 92.5498 254.366C92.1572 253.925 91.9078 253.436 91.8015 252.898C91.6951 252.36 91.7319 251.832 91.9116 251.313C92.1261 250.694 92.4718 250.222 92.9488 249.898C93.4222 249.573 93.9654 249.423 94.5785 249.447L94.6082 249.361C93.9535 249.006 93.5135 248.522 93.2883 247.911C93.0618 247.304 93.0694 246.651 93.3112 245.953C93.5182 245.355 93.8671 244.875 94.3577 244.512C94.8434 244.151 95.4126 243.931 96.0652 243.852C96.7178 243.774 97.4002 243.858 98.1125 244.104Z" fill="#71C4FF"/>
<path d="M83.5169 238.26C84.111 238.562 84.586 238.952 84.9417 239.431C85.2974 239.91 85.514 240.428 85.5913 240.986C85.6686 241.544 85.5868 242.093 85.3458 242.633L84.1305 242.015C84.322 241.521 84.3069 241.025 84.0852 240.525C83.8583 240.027 83.4799 239.643 82.9499 239.374C82.5246 239.157 82.0958 239.064 81.6636 239.095C81.228 239.124 80.8272 239.264 80.4612 239.516C80.0901 239.769 79.792 240.117 79.567 240.559C79.3367 241.011 79.231 241.466 79.2498 241.921C79.2635 242.379 79.3901 242.798 79.6296 243.179C79.8691 243.561 80.2092 243.865 80.6497 244.094C80.9653 244.259 81.316 244.375 81.7017 244.444C82.0858 244.516 82.4253 244.53 82.7204 244.485L83.823 245.224L80.5974 250.009L75.2096 247.267L75.7765 246.153L80.1111 248.359L82.0323 245.486L81.9715 245.455C81.6729 245.516 81.3349 245.52 80.9575 245.468C80.5801 245.416 80.2176 245.302 79.8699 245.125C79.2352 244.802 78.7471 244.362 78.4054 243.806C78.0587 243.251 77.8767 242.64 77.8595 241.972C77.8388 241.303 77.9995 240.633 78.3414 239.961C78.6781 239.299 79.1273 238.784 79.689 238.415C80.2455 238.048 80.8585 237.846 81.5279 237.808C82.1956 237.774 82.8586 237.925 83.5169 238.26Z" fill="#71C4FF"/>
<path d="M71.8444 234.98L71.18 235.93L62.3519 239.628L61.6629 239.146L62.6921 237.675L63.1577 238L69.828 235.206L69.8801 235.131L64.2375 231.184L64.954 230.16L71.8444 234.98ZM68.7243 229.885L67.1544 232.129L66.845 232.571L62.054 239.42L60.9552 238.651L67.6255 229.116L68.7243 229.885Z" fill="#71C4FF"/>
<path d="M56.8518 220.431C57.3397 220.885 57.6888 221.391 57.8991 221.949C58.1093 222.507 58.1748 223.065 58.0956 223.622C58.0164 224.18 57.7865 224.685 57.4061 225.139L56.408 224.209C56.7279 223.788 56.8501 223.307 56.7744 222.765C56.6934 222.224 56.4353 221.751 56 221.346C55.6507 221.02 55.264 220.813 54.8401 220.724C54.4133 220.632 53.9894 220.656 53.5683 220.797C53.1418 220.939 52.7596 221.191 52.4214 221.554C52.0756 221.925 51.849 222.333 51.7415 222.776C51.6287 223.22 51.635 223.658 51.7604 224.09C51.8857 224.523 52.1287 224.909 52.4893 225.25C52.7474 225.496 53.0523 225.704 53.4042 225.877C53.7535 226.052 54.0763 226.158 54.3725 226.196L55.2289 227.211L50.8107 230.922L46.3859 226.803L47.2376 225.888L50.7975 229.202L53.4353 226.969L53.3854 226.923C53.0816 226.899 52.7555 226.81 52.4069 226.656C52.0584 226.502 51.7413 226.293 51.4558 226.027C50.9345 225.542 50.5863 224.985 50.411 224.356C50.2304 223.727 50.2237 223.089 50.3909 222.443C50.5553 221.794 50.8943 221.193 51.4079 220.641C51.9137 220.098 52.4874 219.726 53.1289 219.527C53.7649 219.327 54.4099 219.301 55.0638 219.449C55.7151 219.6 56.3111 219.927 56.8518 220.431Z" fill="#71C4FF"/>
<path d="M46.7796 210.763L41.5366 218.229L40.6695 217.118L44.7757 211.52L44.7197 211.448L38.306 214.091L37.4249 212.962L41.5411 207.413L41.4852 207.342L35.0754 209.952L34.2083 208.842L42.7239 205.567L43.535 206.606L39.4249 212.237L39.5088 212.344L45.9684 209.723L46.7796 210.763Z" fill="#71C4FF"/>
<path d="M33.3877 196.755L32.3693 197.309L22.8186 196.68L22.4169 195.942L23.9944 195.084L24.2658 195.583L31.4823 196.058L31.5622 196.014L28.2732 189.964L29.3715 189.367L33.3877 196.755ZM32.8683 190.803L30.4622 192.111L29.988 192.369L22.6449 196.361L22.0045 195.183L32.2279 189.625L32.8683 190.803Z" fill="#71C4FF"/>
<path d="M27.4844 180.176L16.0149 178.937L15.9298 178.97L18.0463 184.584L16.8766 185.025L14.2471 178.049L15.4806 177.584L26.9633 178.794L27.4844 180.176Z" fill="#71C4FF"/>
<path d="M13.3387 165.298L14.4365 165.004L15.6516 169.549L14.5538 169.843L13.3387 165.298ZM22.621 166.227L13.0262 168.792C12.5432 168.922 12.1103 168.916 11.7276 168.775C11.3449 168.634 11.0247 168.404 10.7668 168.085C10.5089 167.766 10.3262 167.405 10.2186 167.002C10.1334 166.684 10.0896 166.417 10.087 166.202C10.0844 165.987 10.0919 165.825 10.1094 165.714L11.3289 165.788C11.3246 165.86 11.3216 165.958 11.32 166.084C11.3174 166.207 11.341 166.361 11.3909 166.548C11.5054 166.976 11.696 167.256 11.9628 167.389C12.2286 167.518 12.5701 167.526 12.9872 167.415L22.2747 164.932L22.621 166.227Z" fill="#71C4FF"/>
<path d="M18.277 159.49L17.1315 159.667L8.35487 155.848L8.22652 155.017L10.0009 154.743L10.0877 155.304L16.7194 158.19L16.8092 158.176L15.7581 151.37L16.9935 151.179L18.277 159.49ZM19.7994 153.713L17.0928 154.131L16.5594 154.213L8.29937 155.489L8.09471 154.163L19.5947 152.387L19.7994 153.713Z" fill="#71C4FF"/>
<path d="M6.09814 138.759L20.1693 141.947L20.2185 143.173L6.1474 139.985L6.09814 138.759Z" fill="#71C4FF"/>
<path d="M13.1668 130.224L10.676 129.991L11.8945 132.178L10.9104 132.668L9.87993 130.378L8.596 132.536L7.67403 131.937L9.13302 129.903L6.6319 129.852L6.69397 128.763L9.18474 128.996L7.96626 126.809L8.95029 126.319L9.98079 128.608L11.2647 126.451L12.1867 127.05L10.7277 129.084L13.2288 129.135L13.1668 130.224Z" fill="#71C4FF"/>
<path d="M7.67992 113.93L20.8736 119.768L20.6857 120.981L7.49207 115.143L7.67992 113.93Z" fill="#71C4FF"/>
<path d="M16.2249 107.093L13.8259 106.383L14.5995 108.764L13.5393 109.055L12.9701 106.61L11.2939 108.479L10.5049 107.713L12.329 105.999L9.88482 105.466L10.1559 104.409L12.5549 105.119L11.7814 102.738L12.8415 102.447L13.4107 104.892L15.087 103.023L15.876 103.789L14.0519 105.503L16.496 106.036L16.2249 107.093Z" fill="#71C4FF"/>
<path d="M20.5388 91.3125L21.7085 91.7532L19.9134 96.5172L18.7437 96.0764L20.5388 91.3125Z" fill="#71C4FF"/>
<path d="M19.257 77.8862L30.1388 87.3596L29.6012 88.4629L18.7194 78.9895L19.257 77.8862Z" fill="#71C4FF"/>
<path d="M30.4263 77.2776L29.4473 76.6571L25.3508 68.0066L25.801 67.2963L27.3175 68.2575L27.0133 68.7374L30.1089 75.2736L30.1857 75.3223L33.8721 69.5057L34.9279 70.1749L30.4263 77.2776ZM35.3741 73.9287L33.0609 72.4627L32.605 72.1737L25.5455 67.6995L26.2633 66.5669L36.0919 72.7961L35.3741 73.9287Z" fill="#71C4FF"/>
<path d="M35.0522 54.3727L44.0915 61.7005L43.2042 62.7951L35.3125 56.3976L35.2695 56.4505L34.9459 59.8453L33.8336 58.9436L34.1649 55.4673L35.0522 54.3727Z" fill="#71C4FF"/>
<path d="M46.4542 54.9974L45.646 54.1665L43.6705 44.8012L44.2733 44.2149L45.5251 45.502L45.1178 45.8981L46.6108 52.9745L46.6742 53.0397L51.6107 48.2383L52.4822 49.1344L46.4542 54.9974ZM52.0444 52.8892L50.1349 50.926L49.7586 50.5391L43.9312 44.5477L44.8924 43.6127L53.0056 51.9543L52.0444 52.8892Z" fill="#71C4FF"/>
<path d="M60.5294 45.0097L59.9264 44.1836L60.5497 38.523C60.6235 37.8596 60.671 37.295 60.6921 36.8293C60.7111 36.3606 60.6823 35.9549 60.6056 35.6122C60.5298 35.2642 60.387 34.9464 60.177 34.6588C59.9358 34.3284 59.6475 34.1004 59.3119 33.9748C58.9795 33.847 58.6291 33.8167 58.2608 33.8839C57.8924 33.9511 57.5385 34.1087 57.1989 34.3566C56.8379 34.6201 56.5774 34.9251 56.4176 35.2715C56.2587 35.6127 56.2029 35.9699 56.2503 36.3433C56.3008 36.7145 56.4567 37.079 56.718 37.437L55.635 38.2276C55.233 37.6768 55.0071 37.1008 54.9573 36.4993C54.9075 35.8979 55.0165 35.3212 55.2843 34.7693C55.5551 34.2152 55.9644 33.7383 56.512 33.3385C57.0627 32.9365 57.6356 32.6966 58.2306 32.6187C58.8256 32.5407 59.3879 32.6109 59.9177 32.8292C60.4475 33.0474 60.8889 33.3982 61.2417 33.8816C61.4941 34.2273 61.6781 34.6112 61.7939 35.0332C61.9105 35.4499 61.9632 35.9718 61.952 36.599C61.9417 37.2209 61.8784 38.0175 61.762 38.9888L61.2991 42.7877L61.3527 42.8611L65.7217 39.6719L66.4586 40.6816L60.5294 45.0097Z" fill="#71C4FF"/>
<path d="M77.0166 34.116C76.3556 34.4704 75.7055 34.6729 75.0664 34.7234C74.4306 34.772 73.8525 34.6759 73.3321 34.4348C72.8133 34.1887 72.3964 33.804 72.0815 33.2809L73.3433 32.6043C73.5473 32.9204 73.8138 33.145 74.143 33.2779C74.4704 33.4075 74.8309 33.4506 75.2245 33.4071C75.6181 33.3637 76.0119 33.2364 76.4058 33.0251C76.8464 32.7888 77.1958 32.5026 77.454 32.1665C77.7121 31.8303 77.8646 31.4735 77.9114 31.0959C77.9583 30.7183 77.885 30.3493 77.6917 29.9888C77.4894 29.6116 77.2178 29.3295 76.8769 29.1427C76.5343 28.9525 76.1388 28.8723 75.6906 28.9021C75.2423 28.9318 74.7578 29.0863 74.2371 29.3656L73.4159 29.806L72.8251 28.7044L73.6463 28.264C74.0536 28.0456 74.3714 27.7806 74.5997 27.469C74.8314 27.1557 74.9625 26.8189 74.9928 26.4588C75.0266 26.0969 74.9467 25.7356 74.7534 25.3751C74.5672 25.0279 74.3285 24.767 74.0371 24.5923C73.7457 24.4176 73.4213 24.3337 73.0639 24.3405C72.7099 24.3455 72.3442 24.4492 71.967 24.6515C71.6132 24.8412 71.3142 25.0853 71.0703 25.3838C70.8278 25.6771 70.6735 25.9984 70.6072 26.3477C70.5391 26.6937 70.5881 27.0414 70.754 27.3909L69.5522 28.0353C69.284 27.4871 69.1935 26.9296 69.2807 26.3628C69.3661 25.7926 69.5933 25.2625 69.9623 24.7723C70.3346 24.2804 70.8162 23.876 71.407 23.5592C72.0413 23.219 72.6543 23.0558 73.2462 23.0694C73.8362 23.0796 74.365 23.228 74.8324 23.5146C75.2999 23.8012 75.6634 24.1865 75.9229 24.6706C76.2326 25.2481 76.3448 25.8219 76.2594 26.3921C76.1774 26.9605 75.9197 27.4618 75.4864 27.8962L75.5294 27.9763C76.2343 27.7358 76.8877 27.74 77.4896 27.9889C78.0898 28.2344 78.5644 28.6827 78.9135 29.3336C79.2124 29.8911 79.329 30.4733 79.2634 31.0801C79.1992 31.6819 78.9748 32.2492 78.5901 32.7822C78.2054 33.3152 77.6809 33.7598 77.0166 34.116Z" fill="#71C4FF"/>
<path d="M86.7042 26.2616L86.3079 25.1723L88.3473 15.8207L89.1375 15.5332L89.7513 17.2204L89.2174 17.4147L87.6767 24.4809L87.7078 24.5663L94.1792 22.212L94.6066 23.3866L86.7042 26.2616ZM92.6673 26.6315L91.731 24.0579L91.5464 23.5507L88.689 15.6964L89.9491 15.2379L93.9274 26.1731L92.6673 26.6315Z" fill="#71C4FF"/>
<path d="M107.276 22.3342C106.624 22.4716 106.009 22.4657 105.432 22.3163C104.855 22.167 104.361 21.8994 103.95 21.5136C103.54 21.1278 103.259 20.6489 103.108 20.0769L104.442 19.7958C104.602 20.3 104.926 20.6771 105.412 20.9269C105.901 21.1723 106.437 21.2336 107.019 21.111C107.486 21.0126 107.878 20.8158 108.195 20.5206C108.516 20.2246 108.74 19.8638 108.867 19.4383C108.997 19.0083 109.011 18.5506 108.908 18.065C108.804 17.5683 108.601 17.1485 108.3 16.8054C108.003 16.4578 107.641 16.2107 107.215 16.0643C106.789 15.9179 106.333 15.8939 105.847 15.9925C105.498 16.0622 105.152 16.1914 104.808 16.3799C104.464 16.5647 104.191 16.7673 103.99 16.9878L102.667 17.1039L102.176 11.3544L108.091 10.108L108.349 11.3311L103.59 12.3339L103.897 15.7763L103.964 15.7623C104.158 15.5277 104.419 15.3122 104.745 15.1157C105.071 14.9192 105.425 14.7807 105.807 14.7003C106.504 14.5535 107.16 14.5895 107.775 14.8082C108.393 15.0225 108.918 15.3841 109.351 15.8931C109.787 16.4012 110.083 17.024 110.238 17.7616C110.391 18.4881 110.365 19.1711 110.159 19.8106C109.956 20.4457 109.606 20.9879 109.108 21.4372C108.61 21.8829 107.999 22.1819 107.276 22.3342Z" fill="#71C4FF"/>
<path d="M122.636 19.837C122.16 19.8636 121.677 19.807 121.189 19.6673C120.7 19.5276 120.245 19.2659 119.822 18.8822C119.399 18.4948 119.044 17.9563 118.755 17.2668C118.466 16.5736 118.283 15.6904 118.207 14.6174C118.133 13.5898 118.164 12.6723 118.3 11.8651C118.436 11.0541 118.667 10.3634 118.995 9.79312C119.322 9.21903 119.734 8.77177 120.231 8.45133C120.733 8.13062 121.31 7.94686 121.964 7.90004C122.613 7.8535 123.201 7.94245 123.726 8.16688C124.254 8.38727 124.695 8.71643 125.05 9.15437C125.404 9.59231 125.65 10.1083 125.787 10.7022L124.404 10.8013C124.238 10.2891 123.958 9.87434 123.563 9.55704C123.168 9.23974 122.665 9.10301 122.053 9.14685C121.154 9.21125 120.473 9.65304 120.012 10.4722C119.554 11.2911 119.374 12.4072 119.471 13.8205L119.562 13.814C119.75 13.4777 119.982 13.1858 120.257 12.9383C120.535 12.6867 120.847 12.4858 121.193 12.3357C121.539 12.1856 121.911 12.0963 122.308 12.0679C122.973 12.0203 123.593 12.143 124.168 12.436C124.743 12.7251 125.218 13.1488 125.592 13.7068C125.966 14.261 126.18 14.9122 126.233 15.6603C126.285 16.3781 126.171 17.0471 125.893 17.667C125.614 18.2832 125.197 18.7878 124.64 19.1809C124.087 19.5698 123.419 19.7886 122.636 19.837ZM122.547 18.5902C123.023 18.5561 123.441 18.4065 123.802 18.1415C124.167 17.8761 124.444 17.5353 124.635 17.1191C124.829 16.7027 124.908 16.2489 124.873 15.7577C124.839 15.2779 124.7 14.8492 124.456 14.4717C124.216 14.0901 123.901 13.7956 123.51 13.5882C123.123 13.3804 122.692 13.2936 122.216 13.3277C121.857 13.3534 121.527 13.4492 121.228 13.6149C120.928 13.7769 120.67 13.9891 120.453 14.2514C120.24 14.5135 120.079 14.808 119.97 15.1348C119.86 15.4579 119.817 15.7932 119.842 16.1408C119.875 16.6018 120.014 17.0248 120.258 17.4098C120.506 17.7946 120.827 18.0963 121.223 18.3148C121.622 18.5331 122.063 18.6249 122.547 18.5902Z" fill="#71C4FF"/>
<path d="M141.601 12.6877L140.378 12.9583C140.314 12.7535 140.214 12.5523 140.078 12.3547C139.945 12.1535 139.758 11.9832 139.515 11.844C139.273 11.7047 138.957 11.6238 138.568 11.6012C138.034 11.5703 137.583 11.6675 137.213 11.8927C136.848 12.1143 136.654 12.4123 136.632 12.7867C136.613 13.1194 136.719 13.3893 136.949 13.5962C137.18 13.8031 137.549 13.9857 138.056 14.1441L139.331 14.5367C140.099 14.7709 140.663 15.0938 141.022 15.5055C141.382 15.9133 141.544 16.4217 141.508 17.0305C141.479 17.5297 141.31 17.9676 141 18.3442C140.693 18.721 140.278 19.0081 139.755 19.2054C139.231 19.4027 138.631 19.4817 137.954 19.4425C137.065 19.391 136.341 19.1555 135.781 18.736C135.221 18.3165 134.885 17.7317 134.773 16.9816L136.062 16.7376C136.155 17.2135 136.364 17.5784 136.687 17.8324C137.014 18.0866 137.451 18.2296 137.999 18.2613C138.623 18.2975 139.126 18.1939 139.509 17.9504C139.895 17.7034 140.099 17.3927 140.12 17.0183C140.138 16.7158 140.047 16.4563 139.847 16.2398C139.647 16.0196 139.331 15.8457 138.898 15.7182L137.466 15.2937C136.679 15.0583 136.11 14.7313 135.758 14.3125C135.411 13.8902 135.255 13.3784 135.29 12.7771C135.318 12.2855 135.481 11.8587 135.779 11.4965C136.081 11.1346 136.478 10.8598 136.971 10.6721C137.468 10.4846 138.022 10.4086 138.635 10.4441C139.497 10.4941 140.163 10.7224 140.632 11.129C141.106 11.5359 141.429 12.0554 141.601 12.6877Z" fill="#71C4FF"/>
<path d="M149.03 20.1376L155.948 10.9058L155.963 10.8163L150.055 9.77141L150.273 8.54051L157.613 9.8387L157.384 11.1367L150.484 20.3949L149.03 20.1376Z" fill="#71C4FF"/>
<path d="M165.403 23.8368C164.6 23.5883 163.962 23.1966 163.489 22.6618C163.021 22.1244 162.728 21.4868 162.611 20.7489C162.5 20.0085 162.576 19.2113 162.84 18.3573C163.104 17.5033 163.492 16.7987 164.005 16.2436C164.523 15.686 165.118 15.3112 165.792 15.1192C166.471 14.9248 167.187 14.9439 167.939 15.1768C168.374 15.3111 168.78 15.5161 169.159 15.7918C169.537 16.0676 169.85 16.422 170.096 16.8551C170.344 17.2847 170.489 17.7973 170.531 18.3931C170.572 18.9888 170.473 19.6757 170.232 20.4537L170.064 20.9965L163.638 19.0085L163.98 17.9012L169.104 19.4862C169.25 19.0158 169.285 18.5669 169.211 18.1396C169.141 17.7134 168.967 17.3404 168.689 17.0205C168.415 16.7018 168.047 16.4708 167.583 16.3275C167.073 16.1697 166.592 16.1598 166.141 16.2978C165.695 16.4333 165.31 16.6711 164.987 17.0112C164.664 17.3513 164.431 17.7512 164.289 18.2107L164.06 18.949C163.866 19.5786 163.809 20.146 163.891 20.651C163.977 21.1535 164.181 21.5792 164.501 21.9281C164.822 22.2733 165.242 22.526 165.759 22.6861C166.096 22.7902 166.414 22.8372 166.715 22.827C167.02 22.8144 167.302 22.743 167.56 22.6127C167.82 22.4789 168.048 22.284 168.246 22.0281L169.377 22.7583C169.117 23.1378 168.783 23.4392 168.377 23.6625C167.972 23.8822 167.516 24.0107 167.009 24.0481C166.503 24.0819 165.968 24.0114 165.403 23.8368Z" fill="#71C4FF"/>
<path d="M176.16 27.2962L179.628 19.2873L180.817 19.802L180.293 21.0116L180.376 21.0478C180.694 20.7147 181.097 20.5075 181.586 20.4263C182.076 20.345 182.56 20.4082 183.04 20.6159C183.13 20.655 183.242 20.7057 183.377 20.7678C183.511 20.83 183.611 20.8796 183.677 20.9166L183.136 22.168C183.098 22.1396 183.01 22.0825 182.869 21.997C182.734 21.9094 182.584 21.8303 182.421 21.7596C182.032 21.591 181.649 21.5222 181.272 21.5532C180.9 21.5821 180.564 21.7008 180.263 21.909C179.968 22.1154 179.742 22.3993 179.585 22.7608L177.391 27.8289L176.16 27.2962Z" fill="#71C4FF"/>
<path d="M188.481 33.2745C187.804 32.8858 187.275 32.4225 186.894 31.8846C186.518 31.3452 186.307 30.7807 186.262 30.191C186.218 29.5979 186.354 29.0298 186.671 28.4865C186.913 28.0576 187.223 27.7116 187.602 27.4485C187.982 27.182 188.39 27.0122 188.825 26.939C189.265 26.8644 189.688 26.8999 190.094 27.0456L190.128 26.9865C189.717 26.5843 189.488 26.0925 189.442 25.5112C189.398 24.9267 189.531 24.3677 189.842 23.8342C190.133 23.3199 190.526 22.9363 191.021 22.6833C191.516 22.4303 192.06 22.3193 192.654 22.3503C193.251 22.3832 193.845 22.5695 194.436 22.9092C195.021 23.2451 195.476 23.6617 195.802 24.1591C196.128 24.6565 196.306 25.1826 196.337 25.7376C196.371 26.2944 196.242 26.83 195.951 27.3442C195.64 27.8777 195.219 28.2716 194.689 28.5259C194.163 28.7788 193.628 28.8318 193.084 28.6849L193.05 28.744C193.377 29.0192 193.615 29.3639 193.766 29.7781C193.919 30.1891 193.977 30.6269 193.942 31.0915C193.908 31.5528 193.771 31.9979 193.529 32.4267C193.212 32.97 192.785 33.3712 192.247 33.6302C191.715 33.8878 191.121 33.99 190.466 33.9368C189.816 33.8821 189.154 33.6614 188.481 33.2745ZM189.103 32.1907C189.56 32.453 189.997 32.6056 190.413 32.6484C190.83 32.6912 191.206 32.6298 191.541 32.4643C191.877 32.2988 192.15 32.0363 192.361 31.6769C192.576 31.2941 192.671 30.9008 192.645 30.4971C192.619 30.0935 192.487 29.7117 192.248 29.3517C192.013 28.9936 191.682 28.6919 191.255 28.4466C190.824 28.1994 190.392 28.0623 189.958 28.0355C189.526 28.0105 189.13 28.0885 188.768 28.2694C188.41 28.4523 188.123 28.7351 187.907 29.118C187.696 29.4774 187.602 29.8427 187.625 30.2139C187.651 30.587 187.788 30.9437 188.039 31.284C188.289 31.6243 188.644 31.9265 189.103 32.1907ZM191.855 27.4022C192.216 27.6097 192.578 27.7215 192.94 27.7374C193.306 27.7551 193.643 27.6805 193.953 27.5135C194.263 27.3465 194.52 27.0899 194.723 26.7437C194.916 26.4002 195.007 26.0567 194.994 25.7133C194.984 25.3665 194.879 25.044 194.679 24.7456C194.481 24.444 194.196 24.1865 193.825 23.9733C193.447 23.7563 193.077 23.6372 192.713 23.6162C192.351 23.5918 192.02 23.6634 191.718 23.8309C191.418 23.9951 191.172 24.2489 190.979 24.5924C190.776 24.9386 190.678 25.2868 190.687 25.6368C190.699 25.9887 190.804 26.3181 191.004 26.6249C191.203 26.9317 191.487 27.1908 191.855 27.4022Z" fill="#71C4FF"/>
<path d="M202.172 42.0384C201.58 41.5781 201.131 41.0662 200.826 40.5025C200.523 39.9411 200.376 39.3738 200.386 38.8004C200.4 38.2263 200.582 37.6892 200.933 37.1891L202.063 38.0677C201.857 38.3824 201.76 38.7172 201.772 39.072C201.786 39.4238 201.893 39.7708 202.093 40.1129C202.292 40.455 202.568 40.7632 202.921 41.0375C203.316 41.3443 203.719 41.5475 204.131 41.647C204.543 41.7466 204.931 41.7411 205.296 41.6307C205.66 41.5203 205.967 41.3036 206.218 40.9806C206.481 40.6426 206.628 40.2799 206.661 39.8926C206.696 39.5022 206.608 39.1082 206.399 38.7106C206.19 38.313 205.852 37.9329 205.386 37.5703L204.65 36.9985L205.417 36.0115L206.153 36.5833C206.518 36.8669 206.889 37.0499 207.266 37.1321C207.647 37.2167 208.008 37.1998 208.349 37.0814C208.694 36.9654 208.992 36.7458 209.243 36.4228C209.484 36.1118 209.626 35.7877 209.667 35.4505C209.709 35.1132 209.654 34.7827 209.503 34.4588C209.354 34.1373 209.111 33.8452 208.773 33.5825C208.456 33.3361 208.112 33.162 207.74 33.0601C207.374 32.9576 207.017 32.9469 206.671 33.0281C206.327 33.1063 206.029 33.2921 205.777 33.5855L204.701 32.7487C205.093 32.2811 205.566 31.9722 206.119 31.8218C206.675 31.6685 207.251 31.661 207.849 31.7993C208.45 31.94 209.015 32.216 209.544 32.6275C210.113 33.0691 210.511 33.5632 210.738 34.1096C210.968 34.653 211.047 35.1965 210.975 35.74C210.903 36.2836 210.698 36.7722 210.361 37.2058C209.959 37.7232 209.48 38.0586 208.924 38.2119C208.371 38.3676 207.809 38.3356 207.236 38.1158L207.18 38.1876C207.686 38.7343 207.947 39.3332 207.964 39.9843C207.983 40.6325 207.766 41.2482 207.313 41.8313C206.925 42.3308 206.44 42.6736 205.859 42.8599C205.283 43.0455 204.673 43.0706 204.03 42.9353C203.387 42.7999 202.767 42.501 202.172 42.0384Z" fill="#71C4FF"/>
<path d="M213.274 47.6958L214.107 46.8903L223.479 44.9447L224.063 45.5493L222.772 46.7971L222.377 46.3885L215.296 47.8589L215.231 47.9221L220.016 52.8738L219.117 53.7425L213.274 47.6958ZM215.364 53.2927L217.333 51.3895L217.721 51.0144L223.731 45.2061L224.663 46.1704L216.296 54.2569L215.364 53.2927Z" fill="#71C4FF"/>
<path d="M225.212 64.8337C224.819 64.2947 224.573 63.7313 224.473 63.1434C224.373 62.5556 224.415 61.9955 224.599 61.4632C224.783 60.9309 225.105 60.4787 225.565 60.1064L226.368 61.2089C225.973 61.5616 225.762 62.0109 225.733 62.5568C225.709 63.1035 225.872 63.6172 226.222 64.098C226.503 64.4839 226.843 64.7611 227.242 64.9297C227.644 65.1013 228.064 65.1581 228.505 65.1C228.95 65.0427 229.374 64.868 229.775 64.576C230.185 64.2772 230.485 63.9205 230.675 63.5057C230.871 63.0918 230.948 62.6607 230.907 62.2123C230.867 61.764 230.702 61.3381 230.413 60.9347C230.207 60.6446 229.947 60.3814 229.635 60.1451C229.325 59.9066 229.029 59.7406 228.745 59.6471L228.098 58.4878L233.143 55.6867L236.701 60.5743L235.69 61.31L232.828 57.3779L229.812 59.0669L229.853 59.122C230.146 59.2034 230.449 59.3529 230.762 59.5702C231.075 59.7876 231.346 60.054 231.576 60.3694C231.995 60.9451 232.231 61.5584 232.283 62.2092C232.34 62.8609 232.225 63.4881 231.938 64.0908C231.652 64.6967 231.205 65.2214 230.596 65.6651C229.996 66.102 229.361 66.3574 228.694 66.4312C228.031 66.5058 227.393 66.4081 226.78 66.138C226.169 65.8656 225.646 65.4308 225.212 64.8337Z" fill="#71C4FF"/>
<path d="M233.843 77.9434C233.488 77.2827 233.286 76.6328 233.235 75.9936C233.186 75.3579 233.281 74.7797 233.522 74.2592C233.768 73.7402 234.152 73.3231 234.675 73.0079L235.353 74.2693C235.037 74.4734 234.812 74.7401 234.68 75.0694C234.55 75.3969 234.507 75.7574 234.551 76.151C234.595 76.5446 234.722 76.9383 234.934 77.332C235.17 77.7725 235.457 78.1218 235.793 78.3797C236.129 78.6377 236.486 78.7899 236.864 78.8365C237.241 78.8832 237.61 78.8097 237.971 78.6161C238.348 78.4136 238.63 78.1419 238.816 77.8009C239.006 77.4581 239.086 77.0626 239.056 76.6144C239.026 76.1661 238.872 75.6817 238.592 75.1611L238.151 74.3402L239.252 73.7488L239.693 74.5697C239.912 74.9769 240.177 75.2945 240.489 75.5227C240.802 75.7542 241.139 75.885 241.499 75.9152C241.861 75.9487 242.222 75.8687 242.583 75.6751C242.93 75.4887 243.191 75.2498 243.365 74.9583C243.54 74.6668 243.623 74.3424 243.616 73.985C243.611 73.631 243.507 73.2654 243.305 72.8883C243.115 72.5346 242.87 72.2358 242.572 71.992C242.278 71.7497 241.957 71.5956 241.608 71.5295C241.262 71.4616 240.914 71.5108 240.565 71.6769L239.919 70.4755C240.468 70.207 241.025 70.1162 241.592 70.203C242.162 70.288 242.692 70.5149 243.183 70.8836C243.675 71.2556 244.08 71.737 244.397 72.3277C244.737 72.9617 244.901 73.5747 244.888 74.1665C244.878 74.7566 244.73 75.2854 244.443 75.753C244.157 76.2206 243.772 76.5844 243.288 76.8442C242.711 77.1543 242.137 77.2668 241.567 77.1817C240.998 77.1 240.497 76.8426 240.062 76.4096L239.982 76.4526C240.223 77.1574 240.219 77.8108 239.971 78.4129C239.725 79.0132 239.277 79.4881 238.627 79.8375C238.069 80.1368 237.487 80.2538 236.88 80.1884C236.279 80.1247 235.711 79.9006 235.178 79.5162C234.645 79.1318 234.2 78.6075 233.843 77.9434Z" fill="#71C4FF"/>
<path d="M241.703 87.6267L242.792 87.2297L252.145 89.2635L252.433 90.0536L250.746 90.6684L250.552 90.1346L243.485 88.5981L243.399 88.6293L245.757 95.0993L244.583 95.5273L241.703 87.6267ZM241.337 93.59L243.91 92.6521L244.417 92.4673L252.27 89.6052L252.729 90.865L241.796 94.8498L241.337 93.59Z" fill="#71C4FF"/>
<path d="M245.674 108.305C245.515 107.541 245.509 106.838 245.658 106.196C245.811 105.556 246.093 105.024 246.503 104.598C246.918 104.171 247.433 103.895 248.049 103.771C248.53 103.667 248.995 103.669 249.443 103.777C249.895 103.884 250.293 104.076 250.637 104.352C250.985 104.632 251.24 104.971 251.4 105.371L251.467 105.357C251.494 104.783 251.71 104.285 252.114 103.865C252.521 103.443 253.028 103.171 253.633 103.049C254.211 102.925 254.758 102.964 255.276 103.165C255.794 103.367 256.239 103.7 256.61 104.164C256.982 104.632 257.238 105.2 257.377 105.868C257.515 106.528 257.506 107.145 257.351 107.719C257.195 108.293 256.921 108.776 256.526 109.167C256.133 109.563 255.647 109.822 255.069 109.947C254.464 110.069 253.89 110.016 253.348 109.789C252.809 109.564 252.414 109.2 252.162 108.695L252.095 108.709C252.107 109.136 252.008 109.543 251.799 109.931C251.593 110.319 251.305 110.653 250.934 110.936C250.567 111.217 250.143 111.41 249.662 111.514C249.045 111.638 248.462 111.586 247.911 111.356C247.365 111.129 246.894 110.754 246.498 110.229C246.107 109.706 245.832 109.065 245.674 108.305ZM246.897 108.05C247.005 108.566 247.181 108.993 247.426 109.333C247.671 109.673 247.966 109.913 248.313 110.054C248.659 110.194 249.037 110.224 249.446 110.143C249.875 110.049 250.232 109.859 250.517 109.572C250.801 109.284 250.998 108.931 251.109 108.514C251.22 108.1 251.225 107.652 251.125 107.17C251.024 106.684 250.839 106.27 250.57 105.927C250.302 105.588 249.98 105.344 249.605 105.194C249.23 105.048 248.828 105.021 248.399 105.114C247.99 105.196 247.654 105.368 247.392 105.631C247.13 105.899 246.955 106.239 246.867 106.652C246.779 107.065 246.789 107.531 246.897 108.05ZM252.304 106.924C252.389 107.332 252.546 107.677 252.775 107.958C253.004 108.243 253.285 108.446 253.615 108.566C253.946 108.687 254.308 108.708 254.702 108.63C255.087 108.546 255.404 108.385 255.652 108.148C255.905 107.91 256.076 107.617 256.166 107.269C256.26 106.921 256.263 106.537 256.176 106.118C256.087 105.691 255.929 105.335 255.704 105.05C255.481 104.763 255.208 104.563 254.882 104.449C254.56 104.334 254.207 104.319 253.822 104.403C253.428 104.481 253.103 104.639 252.847 104.878C252.592 105.121 252.416 105.419 252.319 105.772C252.223 106.125 252.218 106.509 252.304 106.924Z" fill="#71C4FF"/>
<path d="M248.089 120.665L258.742 125.092L258.832 125.086L258.388 119.102L259.634 119.01L260.187 126.444L258.872 126.541L248.198 122.138L248.089 120.665Z" fill="#71C4FF"/>
</g>
</g>
<defs>
<clipPath id="clip0_74_163">
<rect width="266" height="266" fill="white"/>
</clipPath>
</defs>
</svg>
