<svg width="350" height="358" viewBox="0 0 350 358" fill="none" xmlns="http://www.w3.org/2000/svg">
<g opacity="0.25">
<path d="M169.866 314.549C170.592 314.601 171.219 314.829 171.749 315.235C172.278 315.645 172.676 316.197 172.942 316.891C173.207 317.59 173.308 318.4 173.242 319.322C173.178 320.237 172.965 321.019 172.604 321.669C172.242 322.32 171.769 322.808 171.184 323.135C170.599 323.462 169.94 323.6 169.207 323.548C168.64 323.508 168.199 323.382 167.884 323.169C167.564 322.961 167.326 322.731 167.169 322.481C167.008 322.234 166.884 322.032 166.796 321.874L166.683 321.866L166.38 326.15L165.042 326.056L165.863 314.448L167.156 314.54L167.061 315.877L167.22 315.889C167.329 315.737 167.483 315.546 167.682 315.317C167.88 315.092 168.154 314.897 168.503 314.732C168.853 314.571 169.307 314.51 169.866 314.549ZM169.6 315.738C169.063 315.7 168.6 315.808 168.21 316.061C167.82 316.318 167.511 316.689 167.283 317.175C167.054 317.664 166.917 318.237 166.87 318.894C166.824 319.544 166.879 320.119 167.033 320.62C167.187 321.125 167.44 321.526 167.791 321.824C168.142 322.126 168.589 322.297 169.133 322.335C169.7 322.375 170.183 322.263 170.581 321.999C170.975 321.738 171.284 321.367 171.508 320.886C171.728 320.407 171.86 319.862 171.903 319.25C171.947 318.631 171.892 318.061 171.739 317.541C171.582 317.025 171.327 316.604 170.974 316.28C170.617 315.958 170.159 315.778 169.6 315.738Z" fill="#0A77F3"/>
<path d="M149.092 321.148L149.292 320.029L153.744 320.824L153.544 321.943L149.092 321.148ZM151.879 323.77L150.559 323.534L152.021 315.345C152.087 314.972 152.083 314.683 152.008 314.477C151.929 314.274 151.809 314.126 151.649 314.032C151.485 313.941 151.305 313.878 151.111 313.844C150.966 313.818 150.845 313.804 150.749 313.802C150.653 313.804 150.576 313.806 150.518 313.807L150.461 312.573C150.556 312.556 150.687 312.545 150.854 312.54C151.021 312.531 151.227 312.549 151.473 312.592C151.846 312.659 152.197 312.804 152.527 313.029C152.852 313.252 153.103 313.549 153.28 313.919C153.452 314.289 153.494 314.723 153.405 315.223L151.879 323.77Z" fill="#0A77F3"/>
<path d="M140.987 310.294C141.796 310.525 142.442 310.904 142.926 311.428C143.405 311.956 143.711 312.587 143.843 313.323C143.97 314.06 143.911 314.859 143.665 315.718C143.418 316.578 143.045 317.29 142.544 317.856C142.038 318.424 141.45 318.811 140.78 319.017C140.106 319.226 139.39 319.222 138.633 319.005C138.196 318.879 137.785 318.683 137.401 318.415C137.017 318.147 136.697 317.8 136.441 317.372C136.184 316.948 136.029 316.438 135.975 315.843C135.92 315.249 136.006 314.56 136.23 313.777L136.387 313.231L142.853 315.084L142.534 316.198L137.378 314.721C137.242 315.194 137.216 315.643 137.299 316.069C137.378 316.494 137.56 316.863 137.844 317.177C138.125 317.49 138.498 317.713 138.965 317.847C139.478 317.994 139.959 317.994 140.407 317.846C140.85 317.702 141.23 317.456 141.546 317.109C141.862 316.762 142.087 316.358 142.219 315.895L142.432 315.152C142.614 314.519 142.658 313.95 142.566 313.447C142.469 312.947 142.257 312.525 141.929 312.183C141.601 311.845 141.176 311.601 140.655 311.452C140.317 311.354 139.997 311.314 139.697 311.331C139.392 311.35 139.112 311.427 138.856 311.562C138.6 311.702 138.375 311.901 138.182 312.161L137.037 311.455C137.289 311.07 137.616 310.762 138.018 310.53C138.418 310.302 138.871 310.164 139.377 310.116C139.883 310.072 140.419 310.131 140.987 310.294Z" fill="#0A77F3"/>
<path d="M124.102 304.741C124.713 305.008 125.21 305.37 125.593 305.827C125.976 306.284 126.223 306.789 126.332 307.342C126.442 307.894 126.392 308.447 126.183 309L124.934 308.454C125.096 307.95 125.052 307.456 124.802 306.97C124.546 306.486 124.146 306.125 123.601 305.886C123.164 305.695 122.731 305.627 122.301 305.683C121.868 305.738 121.476 305.901 121.125 306.174C120.77 306.448 120.492 306.813 120.293 307.267C120.09 307.732 120.011 308.192 120.056 308.646C120.097 309.102 120.247 309.513 120.509 309.879C120.77 310.246 121.127 310.53 121.581 310.733C121.905 310.879 122.262 310.975 122.651 311.021C123.039 311.071 123.379 311.065 123.671 311.002L124.814 311.676L121.874 316.641L116.335 314.218L116.836 313.073L121.292 315.022L123.042 312.042L122.98 312.015C122.685 312.092 122.348 312.116 121.968 312.087C121.588 312.057 121.22 311.964 120.862 311.808C120.21 311.522 119.697 311.112 119.323 310.576C118.945 310.043 118.727 309.443 118.671 308.778C118.612 308.111 118.733 307.432 119.035 306.742C119.332 306.061 119.751 305.521 120.29 305.12C120.824 304.721 121.424 304.483 122.09 304.407C122.755 304.334 123.426 304.445 124.102 304.741Z" fill="#0A77F3"/>
<path d="M110.501 298.615L100.731 304.75L100.685 304.828L105.825 307.923L105.18 308.994L98.7936 305.149L99.4736 304.019L109.236 297.853L110.501 298.615Z" fill="#0A77F3"/>
<path d="M93.4453 287.368C93.8136 287.672 94.1298 288.04 94.3941 288.474C94.6584 288.908 94.8156 289.41 94.8659 289.978C94.9138 290.549 94.81 291.186 94.5545 291.889C94.2967 292.594 93.8322 293.367 93.161 294.208C92.5182 295.013 91.8732 295.666 91.2259 296.167C90.5763 296.671 89.9377 297.022 89.3103 297.219C88.6804 297.419 88.0741 297.468 87.4913 297.366C86.9056 297.262 86.3566 297.006 85.8445 296.597C85.3354 296.19 84.964 295.727 84.7304 295.206C84.4915 294.685 84.3904 294.144 84.4271 293.582C84.4638 293.02 84.6331 292.474 84.9348 291.944L86.0182 292.809C85.7928 293.298 85.7175 293.793 85.7926 294.294C85.8676 294.795 86.1449 295.237 86.6244 295.62C87.329 296.182 88.1286 296.319 89.0234 296.03C89.9151 295.739 90.8045 295.041 91.6913 293.936L91.6203 293.879C91.2536 293.999 90.8854 294.056 90.5157 294.052C90.1406 294.048 89.775 293.984 89.4187 293.859C89.0625 293.735 88.729 293.549 88.4181 293.3C87.8971 292.884 87.5245 292.374 87.3003 291.768C87.0738 291.166 87.0122 290.532 87.1156 289.869C87.2167 289.208 87.5013 288.584 87.9692 287.998C88.4182 287.436 88.9553 287.021 89.5803 286.754C90.2029 286.49 90.8521 286.403 91.5278 286.491C92.1981 286.581 92.8373 286.873 93.4453 287.368ZM92.6654 288.345C92.2924 288.047 91.8835 287.873 91.4386 287.823C90.9907 287.771 90.5557 287.833 90.1335 288.01C89.7083 288.184 89.3421 288.464 89.0349 288.849C88.7347 289.225 88.5461 289.634 88.4691 290.077C88.3867 290.52 88.4188 290.95 88.5653 291.368C88.7089 291.783 88.9671 292.139 89.3401 292.437C89.6213 292.661 89.9282 292.814 90.2608 292.896C90.5909 292.98 90.9246 292.999 91.2618 292.953C91.5959 292.905 91.9141 292.798 92.2162 292.632C92.516 292.469 92.7746 292.251 92.992 291.979C93.2803 291.618 93.4654 291.213 93.5472 290.765C93.626 290.314 93.5942 289.874 93.4518 289.445C93.3064 289.014 93.0443 288.647 92.6654 288.345Z" fill="#0A77F3"/>
<path d="M79.0689 274.869C79.5846 275.413 79.9509 275.987 80.1676 276.591C80.3816 277.191 80.4408 277.774 80.3451 278.34C80.2439 278.905 79.9824 279.408 79.5604 279.85L78.5759 278.81C78.8273 278.53 78.9739 278.214 79.0157 277.861C79.0547 277.512 79.0015 277.152 78.8561 276.784C78.7107 276.416 78.4843 276.069 78.177 275.745C77.8332 275.382 77.4652 275.12 77.073 274.959C76.6808 274.798 76.2964 274.745 75.9198 274.799C75.5432 274.853 75.2064 275.021 74.9094 275.302C74.5986 275.596 74.3979 275.933 74.3072 276.311C74.2138 276.691 74.2404 277.094 74.3869 277.519C74.5334 277.943 74.8099 278.37 75.2162 278.799L75.8569 279.476L74.9493 280.335L74.3086 279.659C73.9908 279.323 73.6516 279.086 73.291 278.948C72.9278 278.807 72.5684 278.769 72.2129 278.834C71.8549 278.897 71.5273 279.069 71.2303 279.35C70.9443 279.621 70.7553 279.92 70.6633 280.247C70.5714 280.574 70.5757 280.909 70.6762 281.252C70.7741 281.592 70.9702 281.918 71.2645 282.228C71.5406 282.52 71.8547 282.744 72.2068 282.901C72.5536 283.058 72.9042 283.122 73.2586 283.095C73.6103 283.069 73.9329 282.931 74.2265 282.679L75.1641 283.669C74.7057 284.072 74.1916 284.306 73.6218 284.37C73.0492 284.438 72.478 284.358 71.9081 284.131C71.3356 283.901 70.8188 283.543 70.3578 283.056C69.863 282.533 69.5443 281.985 69.4018 281.41C69.2566 280.838 69.2608 280.289 69.4145 279.763C69.5681 279.236 69.8443 278.784 70.2431 278.407C70.7189 277.956 71.2431 277.697 71.8157 277.629C72.3856 277.559 72.9371 277.676 73.4701 277.98L73.5361 277.917C73.1188 277.301 72.9511 276.669 73.033 276.023C73.1121 275.379 73.4198 274.803 73.9561 274.296C74.4154 273.861 74.9464 273.595 75.5493 273.499C76.1467 273.403 76.7531 273.47 77.3684 273.701C77.9838 273.932 78.5506 274.321 79.0689 274.869Z" fill="#0A77F3"/>
<path d="M66.9667 265.475L66.0208 266.145L56.4626 266.648L55.9766 265.962L57.4418 264.924L57.7702 265.388L64.9923 265.007L65.0665 264.955L61.0863 259.335L62.1064 258.613L66.9667 265.475ZM65.7483 259.626L63.5135 261.209L63.073 261.521L56.2524 266.351L55.4774 265.257L64.9733 258.532L65.7483 259.626Z" fill="#0A77F3"/>
<path d="M60.1378 245.303C60.2432 245.505 60.3204 245.693 60.3695 245.868C60.4218 246.042 60.4487 246.167 60.4502 246.243L59.245 246.489C59.1678 246.162 59.0611 245.893 58.925 245.682C58.7889 245.471 58.5871 245.326 58.3197 245.248C58.0538 245.165 57.6868 245.154 57.2186 245.216L56.4986 245.31L50.2237 252.239L49.549 250.95L54.5927 245.59L54.5505 245.509L47.2719 246.601L46.5972 245.312L57.1747 243.956C57.6514 243.894 58.0777 243.904 58.4536 243.985C58.8329 244.065 59.1619 244.215 59.4405 244.437C59.7174 244.656 59.9498 244.944 60.1378 245.303Z" fill="#0A77F3"/>
<path d="M49.0666 229.529C49.3169 230.212 49.3654 230.878 49.2121 231.527C49.0552 232.177 48.7144 232.766 48.1895 233.294C47.6611 233.822 46.9631 234.246 46.0953 234.564C45.2346 234.879 44.4337 235.005 43.6924 234.942C42.9511 234.879 42.3116 234.648 41.7736 234.248C41.2357 233.848 40.8403 233.303 40.5873 232.613C40.3918 232.079 40.3262 231.625 40.3906 231.251C40.4501 230.874 40.5619 230.563 40.726 230.317C40.8852 230.069 41.019 229.873 41.1274 229.728L41.0883 229.621L37.0553 231.1L36.5938 229.841L47.5191 225.836L47.965 227.052L46.706 227.514L46.7608 227.663C46.9441 227.701 47.1808 227.763 47.471 227.85C47.7576 227.939 48.0479 228.109 48.3417 228.36C48.632 228.613 48.8737 229.002 49.0666 229.529ZM47.8731 229.773C47.688 229.268 47.3999 228.889 47.009 228.637C46.6145 228.386 46.1492 228.256 45.6133 228.247C45.0738 228.239 44.4947 228.348 43.8758 228.575C43.2641 228.8 42.7615 229.085 42.3679 229.431C41.9707 229.778 41.708 230.173 41.5797 230.615C41.4479 231.059 41.4758 231.537 41.6635 232.049C41.8591 232.582 42.159 232.977 42.5632 233.232C42.9626 233.485 43.4278 233.615 43.9589 233.622C44.4851 233.627 45.0363 233.524 45.6124 233.312C46.1957 233.099 46.693 232.816 47.1044 232.463C47.5109 232.108 47.7901 231.703 47.942 231.248C48.089 230.791 48.066 230.299 47.8731 229.773Z" fill="#0A77F3"/>
<path d="M43.1301 211.098C43.2226 211.566 43.2336 212.052 43.1631 212.555C43.0927 213.058 42.8968 213.546 42.5756 214.018C42.2506 214.49 41.7668 214.917 41.1241 215.299C40.4777 215.681 39.6286 215.985 38.5767 216.21C37.5692 216.426 36.6563 216.522 35.838 216.5C35.0161 216.479 34.2999 216.345 33.6896 216.1C33.0757 215.856 32.5754 215.51 32.189 215.062C31.8018 214.61 31.5396 214.064 31.4024 213.423C31.266 212.786 31.2724 212.192 31.4217 211.641C31.5665 211.087 31.8312 210.604 32.2157 210.193C32.6001 209.781 33.0769 209.466 33.646 209.247L33.9363 210.603C33.4521 210.838 33.0803 211.173 32.821 211.609C32.5616 212.044 32.4962 212.561 32.6247 213.161C32.8134 214.043 33.3455 214.655 34.2208 214.999C35.0954 215.338 36.2257 215.362 37.6118 215.069L37.5927 214.98C37.2335 214.84 36.9122 214.651 36.6289 214.413C36.3411 214.173 36.0988 213.892 35.9021 213.57C35.7053 213.248 35.5653 212.892 35.482 212.503C35.3424 211.851 35.3777 211.22 35.5879 210.609C35.7943 210 36.1479 209.471 36.6485 209.023C37.1454 208.575 37.7606 208.273 38.494 208.116C39.1977 207.966 39.8759 207.985 40.5285 208.175C41.1774 208.365 41.7352 208.708 42.2018 209.205C42.6639 209.699 42.9733 210.33 43.1301 211.098ZM41.9078 211.36C41.8078 210.893 41.6016 210.5 41.2889 210.179C40.9755 209.855 40.5994 209.628 40.1608 209.497C39.7214 209.362 39.261 209.347 38.7794 209.45C38.309 209.55 37.9038 209.748 37.5638 210.041C37.2193 210.332 36.9715 210.685 36.8204 211.101C36.6684 211.513 36.6424 211.953 36.7424 212.419C36.8177 212.771 36.9583 213.084 37.164 213.357C37.3661 213.632 37.6121 213.858 37.902 214.036C38.1912 214.211 38.5052 214.329 38.844 214.392C39.1792 214.456 39.5172 214.452 39.858 214.379C40.3098 214.282 40.7095 214.086 41.0569 213.791C41.4035 213.492 41.6576 213.131 41.819 212.709C41.9797 212.284 42.0093 211.834 41.9078 211.36Z" fill="#0A77F3"/>
<path d="M39.9415 192.401C39.9953 193.149 39.9149 193.825 39.7002 194.429C39.4851 195.029 39.1614 195.518 38.7291 195.895C38.2926 196.268 37.7713 196.491 37.1652 196.565L37.0624 195.137C37.4343 195.08 37.748 194.928 38.0037 194.682C38.2557 194.436 38.4421 194.125 38.5631 193.748C38.684 193.37 38.7284 192.959 38.6963 192.513C38.6604 192.015 38.5417 191.579 38.3401 191.206C38.1386 190.833 37.875 190.548 37.5495 190.351C37.2239 190.155 36.8571 190.071 36.449 190.1C36.0221 190.131 35.6538 190.264 35.3441 190.499C35.0307 190.734 34.7961 191.062 34.6403 191.484C34.4846 191.905 34.4279 192.41 34.4704 193L34.5373 193.929L33.2905 194.019L33.2236 193.09C33.1904 192.629 33.0782 192.23 32.8869 191.895C32.6954 191.555 32.4414 191.298 32.125 191.124C31.8083 190.945 31.446 190.871 31.038 190.9C30.645 190.928 30.3094 191.04 30.031 191.235C29.7526 191.429 29.5436 191.691 29.404 192.02C29.2641 192.346 29.2095 192.722 29.2403 193.149C29.2691 193.549 29.37 193.922 29.5429 194.266C29.7118 194.607 29.9421 194.879 30.234 195.082C30.5221 195.286 30.8595 195.383 31.2462 195.374L31.3441 196.734C30.7342 196.755 30.1883 196.61 29.7064 196.299C29.2207 195.989 28.8294 195.565 28.5325 195.028C28.2354 194.487 28.0627 193.883 28.0145 193.214C27.9628 192.496 28.0639 191.87 28.3179 191.335C28.568 190.801 28.9193 190.379 29.3717 190.069C29.8241 189.759 30.3242 189.584 30.872 189.545C31.5256 189.498 32.0953 189.63 32.5809 189.94C33.0664 190.247 33.4189 190.687 33.6387 191.26L33.7294 191.253C33.7975 190.511 34.0679 189.917 34.5408 189.469C35.0098 189.021 35.6127 188.77 36.3494 188.717C36.9804 188.672 37.5595 188.803 38.0867 189.111C38.6099 189.415 39.0363 189.851 39.3659 190.42C39.6955 190.989 39.8873 191.649 39.9415 192.401Z" fill="#0A77F3"/>
<path d="M39.0171 176.849L29.0613 171.021L28.9705 171.015L28.6015 177.004L27.3538 176.927L27.8124 169.487L29.1281 169.568L39.108 175.375L39.0171 176.849Z" fill="#0A77F3"/>
<path d="M40.2483 159.918L39.2447 159.722L35.8571 155.144C35.4605 154.607 35.1118 154.16 34.811 153.804C34.5066 153.447 34.2098 153.169 33.9208 152.97C33.6288 152.766 33.3081 152.63 32.9587 152.561C32.5572 152.483 32.1907 152.511 31.8592 152.647C31.5284 152.779 31.2506 152.995 31.026 153.294C30.8013 153.594 30.6486 153.95 30.5677 154.362C30.4818 154.801 30.4979 155.202 30.6159 155.565C30.731 155.923 30.9327 156.223 31.2212 156.465C31.5103 156.703 31.8724 156.864 32.3073 156.95L32.0495 158.266C31.3804 158.134 30.8233 157.865 30.3782 157.458C29.9331 157.05 29.6214 156.553 29.443 155.966C29.2654 155.375 29.2417 154.747 29.3721 154.082C29.5032 153.413 29.7606 152.847 30.1443 152.386C30.5281 151.925 30.9885 151.594 31.5255 151.395C32.0626 151.195 32.6248 151.153 33.2121 151.268C33.6321 151.35 34.028 151.507 34.3996 151.738C34.7682 151.964 35.1614 152.311 35.5792 152.779C35.9941 153.243 36.4887 153.87 37.0631 154.662L39.3039 157.765L39.3931 157.782L40.4331 152.474L41.6597 152.714L40.2483 159.918Z" fill="#0A77F3"/>
<path d="M45.5473 137.853C45.3018 138.562 44.9613 139.151 44.5257 139.622C44.0914 140.089 43.6013 140.41 43.0554 140.586C42.5071 140.757 41.9399 140.757 41.3537 140.586L41.8224 139.233C42.1866 139.327 42.5348 139.311 42.8669 139.186C43.1954 139.059 43.4896 138.846 43.7494 138.547C44.0093 138.248 44.2124 137.888 44.3587 137.465C44.5223 136.993 44.585 136.546 44.5469 136.124C44.5087 135.701 44.3788 135.336 44.1572 135.026C43.9356 134.717 43.6315 134.496 43.245 134.362C42.8405 134.222 42.4497 134.199 42.0724 134.292C41.6916 134.385 41.3465 134.594 41.0373 134.92C40.728 135.246 40.4766 135.688 40.2832 136.246L39.9783 137.127L38.7971 136.718L39.1021 135.837C39.2533 135.4 39.3073 134.99 39.2638 134.606C39.2216 134.219 39.0896 133.882 38.8677 133.597C38.6471 133.308 38.3435 133.097 37.957 132.963C37.5847 132.834 37.2323 132.804 36.8996 132.873C36.567 132.943 36.2717 133.101 36.0136 133.348C35.7568 133.592 35.5584 133.916 35.4183 134.321C35.2869 134.7 35.2327 135.082 35.2557 135.467C35.2764 135.847 35.3809 136.188 35.569 136.489C35.7536 136.79 36.0253 137.012 36.3842 137.156L35.9378 138.445C35.369 138.224 34.9245 137.876 34.6042 137.4C34.2804 136.923 34.0879 136.379 34.0267 135.769C33.9668 135.155 34.0466 134.531 34.266 133.897C34.5016 133.217 34.8415 132.682 35.2857 132.29C35.7263 131.898 36.2156 131.648 36.7535 131.542C37.2914 131.436 37.8199 131.472 38.3389 131.652C38.9581 131.867 39.4296 132.212 39.7534 132.689C40.0785 133.163 40.2291 133.706 40.2052 134.319L40.2911 134.349C40.6461 133.694 41.1292 133.254 41.7404 133.029C42.348 132.802 43.0008 132.81 43.6987 133.052C44.2965 133.259 44.7769 133.608 45.1402 134.098C45.501 134.584 45.7208 135.153 45.7994 135.806C45.878 136.458 45.794 137.141 45.5473 137.853Z" fill="#0A77F3"/>
<path d="M52.3574 120.545C52.055 121.14 51.6646 121.615 51.186 121.97C50.7075 122.326 50.1892 122.542 49.6314 122.62C49.0735 122.697 48.5243 122.615 47.984 122.374L48.6025 121.159C49.0958 121.351 49.5922 121.335 50.0918 121.114C50.5898 120.887 50.9737 120.508 51.2434 119.978C51.4599 119.553 51.5527 119.124 51.5219 118.692C51.4928 118.257 51.3525 117.856 51.101 117.49C50.8479 117.119 50.5002 116.821 50.058 116.595C49.6056 116.365 49.1515 116.26 48.6957 116.278C48.2382 116.292 47.8189 116.419 47.4377 116.658C47.0565 116.898 46.7517 117.238 46.5233 117.678C46.3584 117.994 46.2416 118.345 46.1727 118.73C46.1005 119.114 46.0871 119.454 46.1324 119.749L45.3928 120.852L40.6081 117.626L43.3501 112.238L44.4642 112.805L42.2581 117.14L45.1311 119.061L45.162 119C45.1015 118.701 45.0971 118.363 45.1489 117.986C45.2007 117.609 45.3151 117.246 45.4921 116.898C45.8151 116.264 46.2548 115.776 46.8111 115.434C47.3659 115.087 47.977 114.905 48.6446 114.888C49.3139 114.867 49.9844 115.028 50.6562 115.37C51.3179 115.707 51.8331 116.156 52.2017 116.717C52.5688 117.274 52.7711 117.887 52.8087 118.556C52.8429 119.224 52.6925 119.887 52.3574 120.545Z" fill="#0A77F3"/>
<path d="M56.9103 106.401L55.9605 105.737L52.2622 96.9089L52.7442 96.2198L54.2154 97.249L53.8897 97.7146L56.6844 104.385L56.7589 104.437L60.7064 98.7944L61.7306 99.511L56.9103 106.401ZM62.0054 103.281L59.7614 101.711L59.3191 101.402L52.4706 96.6109L53.2393 95.5122L62.774 102.182L62.0054 103.281Z" fill="#0A77F3"/>
<path d="M73.2044 88.9658C72.7502 89.4537 72.244 89.8028 71.6861 90.0131C71.1281 90.2233 70.5703 90.2888 70.0126 90.2096C69.455 90.1304 68.9496 89.9006 68.4965 89.5201L69.4256 88.522C69.8471 88.842 70.3286 88.9641 70.8699 88.8885C71.4111 88.8075 71.8843 88.5493 72.2895 88.114C72.6147 87.7647 72.822 87.3781 72.9114 86.9541C73.0033 86.5273 72.9788 86.1034 72.8377 85.6823C72.6965 85.2559 72.4443 84.8736 72.0811 84.5355C71.7096 84.1896 71.3022 83.963 70.8588 83.8555C70.4152 83.7428 69.9772 83.749 69.5448 83.8744C69.1124 83.9997 68.7258 84.2427 68.3849 84.6033C68.1395 84.8614 67.9307 85.1663 67.7583 85.5182C67.5832 85.8676 67.4768 86.1903 67.4392 86.4865L66.4246 87.3429L62.7127 82.9248L66.8319 78.4999L67.7468 79.3516L64.4328 82.9115L66.666 85.5493L66.7124 85.4994C66.7364 85.1957 66.8252 84.8695 66.9789 84.521C67.1326 84.1724 67.3424 83.8553 67.6082 83.5698C68.0935 83.0486 68.6505 82.7003 69.2795 82.5251C69.9082 82.3444 70.5458 82.3377 71.1924 82.5049C71.8415 82.6693 72.4419 83.0083 72.9936 83.5219C73.537 84.0278 73.9086 84.6014 74.1085 85.2429C74.3081 85.879 74.3339 86.524 74.1857 87.1779C74.0348 87.8292 73.7077 88.4251 73.2044 88.9658Z" fill="#0A77F3"/>
<path d="M84.7925 76.8182L77.3261 71.5752L78.4369 70.7081L84.0355 74.8143L84.1071 74.7583L81.4645 68.3446L82.5931 67.4635L88.1419 71.5797L88.2135 71.5238L85.6028 65.114L86.7135 64.2469L89.9878 72.7624L88.9488 73.5736L83.3182 69.4635L83.2108 69.5474L85.8316 76.007L84.7925 76.8182Z" fill="#0A77F3"/>
<path d="M101.814 61.1492L101.26 60.1309L101.888 50.5801L102.627 50.1785L103.485 51.7559L102.986 52.0273L102.511 59.2439L102.554 59.3238L108.605 56.0348L109.202 57.133L101.814 61.1492ZM107.766 60.6299L106.458 58.2238L106.2 57.7495L102.208 50.4064L103.386 49.766L108.944 59.9894L107.766 60.6299Z" fill="#0A77F3"/>
<path d="M121.041 53.8425L122.28 42.3729L122.248 42.2879L116.633 44.4043L116.192 43.2346L123.168 40.6051L123.633 41.8386L122.423 53.3214L121.041 53.8425Z" fill="#0A77F3"/>
<path d="M138.343 38.8235L138.637 39.9213L134.092 41.1365L133.798 40.0387L138.343 38.8235ZM137.414 48.1059L134.848 38.5111C134.719 38.028 134.725 37.5952 134.866 37.2125C135.007 36.8298 135.237 36.5095 135.556 36.2516C135.875 35.9938 136.236 35.811 136.639 35.7034C136.957 35.6183 137.224 35.5744 137.439 35.5719C137.654 35.5693 137.816 35.5767 137.927 35.5942L137.853 36.8138C137.781 36.8094 137.682 36.8065 137.556 36.8048C137.434 36.8022 137.28 36.8259 137.093 36.8758C136.665 36.9902 136.385 37.1809 136.252 37.4476C136.123 37.7134 136.115 38.0549 136.226 38.4721L138.709 47.7595L137.414 48.1059Z" fill="#0A77F3"/>
<path d="M145.613 43.3448L145.437 42.1993L149.255 33.4227L150.086 33.2944L150.36 35.0688L149.799 35.1555L146.914 41.7872L146.928 41.8771L153.733 40.826L153.924 42.0613L145.613 43.3448ZM151.391 44.8672L150.973 42.1607L150.89 41.6272L149.615 33.3672L150.94 33.1625L152.716 44.6626L151.391 44.8672Z" fill="#0A77F3"/>
<path d="M169.261 30.7639L166.073 44.835L164.847 44.8842L168.034 30.8131L169.261 30.7639Z" fill="#0A77F3"/>
<path d="M179.538 37.7599L179.771 35.2691L177.585 36.4876L177.094 35.5036L179.384 34.4731L177.226 33.1892L177.825 32.2672L179.859 33.7262L179.911 31.2251L181 31.2871L180.767 33.7779L182.953 32.5594L183.444 33.5434L181.154 34.5739L183.312 35.8579L182.713 36.7798L180.679 35.3208L180.627 37.822L179.538 37.7599Z" fill="#0A77F3"/>
<path d="M198.128 32.4282L192.29 45.6218L191.077 45.434L196.915 32.2403L198.128 32.4282Z" fill="#0A77F3"/>
<path d="M206.66 41.2315L207.369 38.8325L204.988 39.606L204.697 38.5459L207.143 37.9767L205.273 36.3004L206.039 35.5114L207.753 37.3355L208.286 34.8914L209.343 35.1625L208.634 37.5615L211.014 36.7879L211.305 37.8481L208.86 38.4173L210.729 40.0935L209.964 40.8826L208.25 39.0584L207.716 41.5026L206.66 41.2315Z" fill="#0A77F3"/>
<path d="M224.691 46.1411L224.251 47.3108L219.487 45.5157L219.927 44.346L224.691 46.1411Z" fill="#0A77F3"/>
<path d="M240.096 45.6255L230.622 56.5073L229.519 55.9698L238.992 45.088L240.096 45.6255Z" fill="#0A77F3"/>
<path d="M242.284 57.5455L242.905 56.5665L251.555 52.47L252.266 52.9202L251.304 54.4367L250.824 54.1325L244.288 57.2281L244.24 57.3049L250.056 60.9913L249.387 62.0471L242.284 57.5455ZM245.633 62.4933L247.099 60.1801L247.388 59.7242L251.862 52.6647L252.995 53.3825L246.766 63.2111L245.633 62.4933Z" fill="#0A77F3"/>
<path d="M267.591 63.743L260.263 72.7823L259.168 71.895L265.566 64.0032L265.513 63.9603L262.118 63.6366L263.02 62.5244L266.496 62.8557L267.591 63.743Z" fill="#0A77F3"/>
<path d="M268.497 76.3683L269.327 75.5601L278.693 73.5846L279.279 74.1874L277.992 75.4392L277.596 75.0319L270.519 76.5249L270.454 76.5883L275.256 81.5248L274.36 82.3963L268.497 76.3683ZM270.605 81.9585L272.568 80.049L272.955 79.6727L278.946 73.8453L279.881 74.8065L271.54 82.9197L270.605 81.9585Z" fill="#0A77F3"/>
<path d="M280.561 92.6164L281.387 92.0134L287.048 92.6367C287.711 92.7105 288.276 92.758 288.741 92.7791C289.21 92.7981 289.616 92.7693 289.959 92.6926C290.307 92.6168 290.624 92.474 290.912 92.264C291.242 92.0228 291.47 91.7345 291.596 91.3989C291.724 91.0665 291.754 90.7161 291.687 90.3478C291.62 89.9794 291.462 89.6255 291.214 89.2859C290.951 88.9249 290.646 88.6644 290.299 88.5046C289.958 88.3457 289.601 88.2899 289.227 88.3373C288.856 88.3878 288.492 88.5437 288.134 88.805L287.343 87.722C287.894 87.32 288.47 87.0941 289.071 87.0443C289.673 86.9945 290.249 87.1035 290.801 87.3713C291.355 87.6421 291.832 88.0514 292.232 88.599C292.634 89.1497 292.874 89.7226 292.952 90.3176C293.03 90.9126 292.96 91.4749 292.742 92.0047C292.523 92.5345 292.172 92.9759 291.689 93.3287C291.343 93.5811 290.959 93.7651 290.538 93.8809C290.121 93.9975 289.599 94.0502 288.972 94.039C288.35 94.0287 287.553 93.9654 286.582 93.849L282.783 93.3861L282.71 93.4397L285.899 97.8087L284.889 98.5456L280.561 92.6164Z" fill="#0A77F3"/>
<path d="M293.117 111.415C292.763 110.754 292.56 110.104 292.51 109.465C292.461 108.829 292.557 108.251 292.798 107.731C293.044 107.212 293.429 106.795 293.952 106.48L294.629 107.742C294.313 107.946 294.088 108.213 293.955 108.542C293.826 108.869 293.782 109.23 293.826 109.623C293.869 110.017 293.997 110.411 294.208 110.805C294.444 111.245 294.73 111.595 295.067 111.853C295.403 112.111 295.76 112.263 296.137 112.31C296.515 112.357 296.884 112.284 297.244 112.09C297.621 111.888 297.904 111.617 298.09 111.276C298.281 110.933 298.361 110.538 298.331 110.089C298.301 109.641 298.147 109.157 297.867 108.636L297.427 107.815L298.529 107.224L298.969 108.045C299.187 108.452 299.452 108.77 299.764 108.998C300.077 109.23 300.414 109.361 300.774 109.392C301.136 109.425 301.497 109.345 301.858 109.152C302.205 108.966 302.466 108.727 302.641 108.436C302.815 108.144 302.899 107.82 302.893 107.463C302.888 107.109 302.784 106.743 302.582 106.366C302.392 106.012 302.148 105.713 301.849 105.469C301.556 105.227 301.235 105.072 300.885 105.006C300.539 104.938 300.192 104.987 299.842 105.153L299.198 103.951C299.746 103.683 300.303 103.592 300.87 103.679C301.44 103.765 301.971 103.992 302.461 104.361C302.953 104.733 303.357 105.215 303.674 105.806C304.014 106.44 304.177 107.053 304.164 107.645C304.153 108.235 304.005 108.764 303.718 109.231C303.432 109.699 303.047 110.062 302.562 110.322C301.985 110.631 301.411 110.744 300.841 110.658C300.273 110.576 299.771 110.318 299.337 109.885L299.257 109.928C299.497 110.633 299.493 111.286 299.244 111.888C298.999 112.489 298.55 112.963 297.899 113.312C297.342 113.611 296.76 113.728 296.153 113.662C295.551 113.598 294.984 113.374 294.451 112.989C293.918 112.604 293.473 112.08 293.117 111.415Z" fill="#0A77F3"/>
<path d="M302.323 123.662L303.412 123.266L312.764 125.305L313.052 126.095L311.364 126.709L311.17 126.175L304.104 124.635L304.018 124.666L306.373 131.137L305.198 131.564L302.323 123.662ZM301.953 129.625L304.527 128.689L305.034 128.504L312.888 125.647L313.347 126.907L302.412 130.885L301.953 129.625Z" fill="#0A77F3"/>
<path d="M307.252 147.076C307.115 146.424 307.121 145.809 307.27 145.232C307.419 144.654 307.687 144.161 308.073 143.75C308.458 143.34 308.937 143.059 309.509 142.908L309.79 144.242C309.286 144.402 308.909 144.726 308.659 145.212C308.414 145.701 308.353 146.237 308.475 146.818C308.574 147.285 308.77 147.678 309.066 147.995C309.362 148.316 309.722 148.54 310.148 148.667C310.578 148.797 311.036 148.811 311.521 148.708C312.018 148.604 312.438 148.401 312.781 148.1C313.128 147.803 313.375 147.441 313.522 147.015C313.668 146.589 313.692 146.133 313.594 145.647C313.524 145.298 313.395 144.952 313.206 144.608C313.022 144.264 312.819 143.991 312.598 143.79L312.482 142.467L318.232 141.976L319.478 147.891L318.255 148.149L317.252 143.39L313.81 143.697L313.824 143.764C314.058 143.958 314.274 144.219 314.47 144.545C314.667 144.871 314.805 145.225 314.886 145.607C315.033 146.304 314.997 146.96 314.778 147.575C314.564 148.193 314.202 148.718 313.693 149.151C313.185 149.587 312.562 149.883 311.825 150.038C311.098 150.191 310.415 150.165 309.776 149.959C309.141 149.756 308.598 149.405 308.149 148.908C307.703 148.409 307.404 147.799 307.252 147.076Z" fill="#0A77F3"/>
<path d="M310.303 165.141C310.277 164.665 310.333 164.182 310.473 163.694C310.613 163.205 310.874 162.75 311.258 162.327C311.645 161.904 312.184 161.549 312.873 161.26C313.567 160.971 314.45 160.788 315.523 160.711C316.55 160.638 317.468 160.669 318.275 160.805C319.086 160.94 319.777 161.172 320.347 161.5C320.921 161.827 321.368 162.239 321.689 162.736C322.009 163.237 322.193 163.815 322.24 164.468C322.287 165.118 322.198 165.706 321.973 166.231C321.753 166.759 321.424 167.2 320.986 167.555C320.548 167.909 320.032 168.155 319.438 168.292L319.339 166.909C319.851 166.743 320.266 166.463 320.583 166.068C320.9 165.673 321.037 165.17 320.993 164.558C320.929 163.659 320.487 162.978 319.668 162.517C318.849 162.059 317.733 161.879 316.32 161.976L316.326 162.067C316.662 162.255 316.954 162.487 317.202 162.762C317.453 163.04 317.654 163.352 317.804 163.698C317.954 164.044 318.044 164.416 318.072 164.813C318.12 165.478 317.997 166.098 317.704 166.673C317.415 167.248 316.991 167.723 316.433 168.097C315.879 168.471 315.228 168.685 314.48 168.738C313.762 168.79 313.093 168.676 312.473 168.398C311.857 168.119 311.352 167.702 310.959 167.145C310.57 166.592 310.352 165.924 310.303 165.141ZM311.55 165.052C311.584 165.528 311.734 165.946 311.999 166.307C312.264 166.672 312.605 166.949 313.021 167.14C313.437 167.334 313.891 167.413 314.382 167.378C314.862 167.344 315.291 167.205 315.668 166.961C316.05 166.721 316.344 166.406 316.552 166.015C316.76 165.628 316.846 165.197 316.812 164.721C316.787 164.362 316.691 164.032 316.525 163.733C316.363 163.433 316.151 163.175 315.889 162.958C315.627 162.745 315.332 162.584 315.005 162.475C314.682 162.365 314.347 162.322 313.999 162.347C313.538 162.38 313.115 162.519 312.73 162.763C312.345 163.011 312.044 163.332 311.825 163.728C311.607 164.127 311.515 164.568 311.55 165.052Z" fill="#0A77F3"/>
<path d="M317.626 187.006L317.356 185.784C317.561 185.72 317.762 185.62 317.959 185.483C318.161 185.351 318.331 185.163 318.47 184.921C318.609 184.679 318.69 184.363 318.713 183.973C318.744 183.44 318.647 182.989 318.421 182.619C318.2 182.253 317.902 182.06 317.527 182.038C317.195 182.019 316.925 182.124 316.718 182.355C316.511 182.586 316.328 182.955 316.17 183.462L315.777 184.737C315.543 185.505 315.22 186.068 314.809 186.428C314.401 186.787 313.892 186.949 313.284 186.914C312.784 186.885 312.347 186.716 311.97 186.405C311.593 186.099 311.306 185.684 311.109 185.16C310.911 184.637 310.832 184.036 310.872 183.359C310.923 182.471 311.159 181.746 311.578 181.186C311.998 180.626 312.582 180.29 313.333 180.178L313.577 181.467C313.101 181.561 312.736 181.77 312.482 182.093C312.227 182.419 312.085 182.857 312.053 183.405C312.017 184.029 312.12 184.532 312.364 184.914C312.611 185.3 312.921 185.504 313.296 185.526C313.598 185.544 313.858 185.452 314.074 185.253C314.294 185.053 314.468 184.737 314.596 184.304L315.02 182.871C315.256 182.085 315.583 181.515 316.002 181.164C316.424 180.817 316.936 180.66 317.537 180.695C318.029 180.724 318.455 180.887 318.818 181.185C319.179 181.487 319.454 181.884 319.642 182.377C319.829 182.873 319.905 183.428 319.87 184.04C319.82 184.903 319.592 185.569 319.185 186.038C318.778 186.512 318.259 186.834 317.626 187.006Z" fill="#0A77F3"/>
<path d="M310.019 196.885L319.25 203.803L319.34 203.818L320.385 197.91L321.616 198.128L320.317 205.468L319.019 205.239L309.761 198.339L310.019 196.885Z" fill="#0A77F3"/>
<path d="M305.888 215.65C306.136 214.847 306.528 214.209 307.063 213.736C307.6 213.268 308.238 212.975 308.976 212.858C309.716 212.746 310.513 212.823 311.367 213.087C312.221 213.351 312.926 213.739 313.481 214.252C314.039 214.77 314.413 215.365 314.605 216.039C314.8 216.718 314.781 217.434 314.548 218.186C314.414 218.621 314.209 219.027 313.933 219.406C313.657 219.784 313.303 220.097 312.87 220.343C312.44 220.591 311.927 220.736 311.332 220.778C310.736 220.819 310.049 220.72 309.271 220.479L308.728 220.311L310.716 213.885L311.824 214.227L310.238 219.351C310.709 219.497 311.158 219.532 311.585 219.458C312.011 219.388 312.384 219.214 312.704 218.936C313.023 218.662 313.254 218.293 313.397 217.83C313.555 217.32 313.565 216.839 313.427 216.388C313.291 215.942 313.054 215.557 312.713 215.234C312.373 214.911 311.974 214.678 311.514 214.536L310.776 214.307C310.146 214.113 309.579 214.056 309.074 214.138C308.571 214.224 308.145 214.427 307.797 214.748C307.451 215.069 307.199 215.489 307.039 216.006C306.935 216.343 306.888 216.661 306.898 216.962C306.91 217.267 306.982 217.549 307.112 217.807C307.246 218.067 307.441 218.295 307.697 218.493L306.966 219.624C306.587 219.363 306.285 219.03 306.062 218.624C305.843 218.219 305.714 217.763 305.677 217.256C305.643 216.75 305.713 216.215 305.888 215.65Z" fill="#0A77F3"/>
<path d="M301.607 228.939L309.616 232.406L309.102 233.595L307.892 233.071L307.856 233.155C308.189 233.472 308.396 233.876 308.477 234.365C308.559 234.854 308.495 235.339 308.288 235.818C308.249 235.909 308.198 236.021 308.136 236.155C308.074 236.289 308.024 236.389 307.987 236.456L306.735 235.914C306.764 235.877 306.821 235.788 306.907 235.648C306.994 235.512 307.073 235.363 307.144 235.199C307.313 234.81 307.381 234.427 307.35 234.05C307.321 233.679 307.203 233.343 306.994 233.042C306.788 232.746 306.504 232.52 306.143 232.364L301.075 230.169L301.607 228.939Z" fill="#0A77F3"/>
<path d="M294.917 242.939C295.306 242.262 295.769 241.734 296.307 241.352C296.846 240.976 297.411 240.766 298.001 240.72C298.594 240.676 299.162 240.813 299.705 241.129C300.134 241.371 300.48 241.682 300.743 242.06C301.01 242.44 301.179 242.848 301.253 243.283C301.327 243.724 301.292 244.147 301.146 244.552L301.205 244.586C301.607 244.175 302.099 243.946 302.68 243.9C303.265 243.856 303.824 243.99 304.357 244.3C304.872 244.591 305.255 244.984 305.508 245.479C305.761 245.974 305.872 246.519 305.841 247.112C305.808 247.709 305.622 248.304 305.282 248.895C304.946 249.479 304.53 249.935 304.032 250.26C303.535 250.586 303.009 250.764 302.454 250.795C301.897 250.829 301.362 250.7 300.847 250.409C300.314 250.098 299.92 249.678 299.666 249.147C299.413 248.622 299.36 248.087 299.507 247.542L299.448 247.508C299.172 247.835 298.828 248.074 298.413 248.224C298.002 248.377 297.565 248.436 297.1 248.4C296.639 248.367 296.194 248.229 295.765 247.987C295.222 247.67 294.82 247.243 294.561 246.706C294.304 246.173 294.202 245.579 294.255 244.924C294.309 244.274 294.53 243.612 294.917 242.939ZM296.001 243.562C295.739 244.018 295.586 244.455 295.543 244.871C295.5 245.288 295.562 245.664 295.727 246C295.893 246.335 296.155 246.608 296.515 246.819C296.898 247.035 297.291 247.129 297.694 247.104C298.098 247.078 298.48 246.945 298.84 246.707C299.198 246.471 299.5 246.14 299.745 245.713C299.992 245.283 300.129 244.85 300.156 244.416C300.181 243.985 300.103 243.588 299.922 243.226C299.739 242.868 299.456 242.581 299.074 242.365C298.714 242.154 298.349 242.06 297.978 242.083C297.605 242.109 297.248 242.247 296.908 242.497C296.567 242.747 296.265 243.102 296.001 243.562ZM300.789 246.313C300.582 246.674 300.47 247.036 300.454 247.398C300.436 247.764 300.511 248.102 300.678 248.412C300.845 248.722 301.102 248.978 301.448 249.182C301.791 249.375 302.135 249.465 302.478 249.453C302.825 249.442 303.148 249.337 303.446 249.137C303.748 248.939 304.005 248.654 304.218 248.283C304.435 247.906 304.554 247.535 304.575 247.171C304.6 246.81 304.528 246.478 304.361 246.176C304.196 245.877 303.943 245.63 303.599 245.437C303.253 245.234 302.905 245.137 302.555 245.145C302.203 245.157 301.873 245.263 301.567 245.462C301.26 245.662 301.001 245.945 300.789 246.313Z" fill="#0A77F3"/>
<path d="M284.697 259.123C285.157 258.531 285.669 258.082 286.232 257.776C286.794 257.474 287.361 257.327 287.935 257.336C288.509 257.351 289.046 257.533 289.546 257.883L288.667 259.014C288.352 258.808 288.018 258.711 287.663 258.723C287.311 258.737 286.964 258.844 286.622 259.044C286.28 259.243 285.972 259.519 285.697 259.872C285.391 260.267 285.187 260.67 285.088 261.082C284.988 261.494 284.994 261.882 285.104 262.246C285.215 262.61 285.431 262.918 285.754 263.169C286.092 263.432 286.455 263.579 286.842 263.612C287.233 263.646 287.627 263.559 288.024 263.35C288.422 263.141 288.802 262.803 289.165 262.337L289.736 261.601L290.723 262.368L290.152 263.104C289.868 263.469 289.685 263.84 289.603 264.217C289.518 264.598 289.535 264.959 289.653 265.3C289.77 265.644 289.989 265.942 290.312 266.193C290.623 266.435 290.947 266.577 291.284 266.618C291.622 266.659 291.952 266.605 292.276 266.453C292.598 266.305 292.89 266.062 293.152 265.724C293.399 265.407 293.573 265.062 293.675 264.691C293.777 264.324 293.788 263.968 293.707 263.622C293.629 263.278 293.443 262.98 293.149 262.728L293.986 261.651C294.454 262.043 294.763 262.516 294.913 263.07C295.066 263.625 295.074 264.202 294.936 264.8C294.795 265.401 294.519 265.966 294.107 266.495C293.666 267.063 293.172 267.461 292.625 267.689C292.082 267.919 291.538 267.998 290.995 267.926C290.451 267.854 289.963 267.649 289.529 267.312C289.012 266.91 288.676 266.431 288.523 265.875C288.367 265.322 288.399 264.759 288.619 264.187L288.547 264.131C288.001 264.637 287.402 264.898 286.751 264.915C286.102 264.934 285.487 264.717 284.904 264.264C284.404 263.875 284.061 263.391 283.875 262.809C283.689 262.233 283.664 261.624 283.8 260.98C283.935 260.337 284.234 259.718 284.697 259.123Z" fill="#0A77F3"/>
<path d="M277.25 272.496L278.056 273.33L280.002 282.701L279.397 283.285L278.149 281.994L278.558 281.6L277.087 274.518L277.024 274.453L272.072 279.239L271.204 278.34L277.25 272.496ZM271.654 274.586L273.557 276.556L273.932 276.944L279.74 282.954L278.776 283.886L270.689 275.518L271.654 274.586Z" fill="#0A77F3"/>
<path d="M257.934 286.499C258.473 286.107 259.037 285.861 259.625 285.761C260.212 285.661 260.773 285.703 261.305 285.887C261.837 286.071 262.289 286.393 262.662 286.853L261.559 287.656C261.206 287.261 260.757 287.049 260.211 287.02C259.665 286.997 259.151 287.16 258.67 287.51C258.284 287.791 258.007 288.131 257.838 288.53C257.667 288.931 257.61 289.352 257.668 289.792C257.725 290.238 257.9 290.661 258.192 291.062C258.491 291.473 258.848 291.773 259.262 291.963C259.676 292.158 260.107 292.236 260.556 292.195C261.004 292.155 261.43 291.99 261.833 291.701C262.123 291.494 262.387 291.235 262.623 290.922C262.861 290.613 263.027 290.316 263.121 290.033L264.28 289.385L267.081 294.43L262.194 297.988L261.458 296.978L265.39 294.115L263.701 291.1L263.646 291.14C263.565 291.434 263.415 291.737 263.198 292.05C262.98 292.363 262.714 292.634 262.399 292.863C261.823 293.283 261.21 293.518 260.559 293.57C259.907 293.628 259.28 293.513 258.677 293.225C258.071 292.94 257.547 292.493 257.103 291.883C256.666 291.283 256.411 290.649 256.337 289.981C256.262 289.319 256.36 288.681 256.63 288.067C256.902 287.457 257.337 286.934 257.934 286.499Z" fill="#0A77F3"/>
<path d="M242.573 296.749C243.233 296.394 243.883 296.191 244.522 296.14C245.158 296.091 245.736 296.187 246.257 296.428C246.776 296.674 247.193 297.058 247.508 297.581L246.247 298.258C246.043 297.942 245.776 297.718 245.447 297.585C245.119 297.456 244.759 297.413 244.365 297.457C243.972 297.5 243.578 297.628 243.184 297.839C242.744 298.076 242.394 298.362 242.136 298.699C241.878 299.035 241.726 299.392 241.68 299.769C241.633 300.147 241.706 300.516 241.9 300.876C242.102 301.254 242.374 301.535 242.715 301.722C243.058 301.912 243.453 301.992 243.902 301.962C244.35 301.932 244.834 301.777 245.355 301.498L246.176 301.057L246.767 302.158L245.946 302.599C245.539 302.817 245.222 303.083 244.993 303.394C244.762 303.708 244.631 304.045 244.601 304.405C244.567 304.767 244.647 305.128 244.841 305.488C245.027 305.835 245.266 306.096 245.558 306.271C245.849 306.445 246.174 306.529 246.531 306.522C246.885 306.517 247.251 306.413 247.628 306.21C247.982 306.02 248.28 305.776 248.524 305.478C248.766 305.184 248.921 304.863 248.987 304.513C249.054 304.167 249.005 303.82 248.839 303.47L250.041 302.825C250.309 303.373 250.4 303.931 250.313 304.497C250.228 305.068 250.001 305.598 249.632 306.088C249.26 306.58 248.779 306.985 248.188 307.302C247.554 307.643 246.941 307.806 246.35 307.793C245.76 307.783 245.231 307.635 244.763 307.349C244.295 307.063 243.932 306.677 243.672 306.194C243.362 305.616 243.249 305.043 243.334 304.472C243.416 303.904 243.673 303.402 244.106 302.968L244.063 302.888C243.359 303.129 242.705 303.125 242.103 302.876C241.503 302.631 241.028 302.183 240.679 301.532C240.379 300.975 240.262 300.393 240.328 299.786C240.391 299.184 240.616 298.617 241 298.084C241.384 297.55 241.909 297.105 242.573 296.749Z" fill="#0A77F3"/>
<path d="M230.331 305.962L230.728 307.051L228.694 316.404L227.904 316.692L227.289 315.005L227.823 314.811L229.359 307.744L229.328 307.658L222.858 310.016L222.43 308.842L230.331 305.962ZM224.367 305.596L225.305 308.169L225.49 308.676L228.352 316.529L227.092 316.988L223.108 306.055L224.367 305.596Z" fill="#0A77F3"/>
<path d="M206.805 310.941C207.569 310.782 208.272 310.777 208.914 310.926C209.553 311.079 210.086 311.361 210.512 311.771C210.939 312.185 211.214 312.7 211.339 313.317C211.443 313.798 211.441 314.263 211.333 314.711C211.226 315.163 211.034 315.56 210.758 315.904C210.478 316.253 210.138 316.507 209.738 316.668L209.752 316.735C210.327 316.762 210.824 316.978 211.245 317.381C211.667 317.789 211.938 318.295 212.061 318.901C212.185 319.478 212.146 320.026 211.944 320.544C211.743 321.062 211.41 321.507 210.945 321.878C210.477 322.25 209.909 322.506 209.242 322.645C208.582 322.782 207.965 322.773 207.391 322.618C206.817 322.463 206.334 322.188 205.942 321.794C205.547 321.4 205.287 320.915 205.163 320.337C205.041 319.732 205.094 319.158 205.321 318.615C205.546 318.077 205.91 317.682 206.415 317.43L206.401 317.363C205.974 317.375 205.566 317.276 205.178 317.066C204.791 316.861 204.456 316.572 204.174 316.202C203.893 315.835 203.7 315.411 203.596 314.929C203.471 314.313 203.524 313.729 203.754 313.178C203.98 312.632 204.356 312.161 204.881 311.765C205.403 311.374 206.044 311.1 206.805 310.941ZM207.059 312.165C206.544 312.272 206.116 312.448 205.777 312.693C205.437 312.938 205.197 313.234 205.056 313.58C204.915 313.927 204.886 314.305 204.967 314.713C205.06 315.143 205.251 315.5 205.538 315.784C205.826 316.069 206.178 316.266 206.596 316.376C207.01 316.488 207.458 316.493 207.94 316.392C208.426 316.291 208.84 316.106 209.182 315.838C209.521 315.57 209.766 315.248 209.916 314.872C210.062 314.498 210.089 314.096 209.995 313.666C209.914 313.257 209.742 312.922 209.478 312.66C209.211 312.398 208.871 312.223 208.458 312.135C208.045 312.047 207.579 312.057 207.059 312.165ZM208.185 317.572C207.778 317.657 207.433 317.814 207.152 318.042C206.867 318.272 206.664 318.552 206.543 318.883C206.423 319.214 206.401 319.576 206.479 319.97C206.564 320.355 206.724 320.671 206.962 320.92C207.2 321.172 207.493 321.343 207.841 321.433C208.189 321.527 208.573 321.53 208.992 321.443C209.418 321.354 209.774 321.197 210.06 320.971C210.346 320.749 210.547 320.475 210.661 320.15C210.776 319.828 210.791 319.474 210.707 319.09C210.629 318.696 210.47 318.371 210.231 318.115C209.989 317.86 209.691 317.684 209.338 317.587C208.985 317.49 208.601 317.485 208.185 317.572Z" fill="#0A77F3"/>
<path d="M191.644 313.911L187.217 324.564L187.223 324.655L193.207 324.21L193.299 325.457L185.865 326.009L185.768 324.694L190.171 314.021L191.644 313.911Z" fill="#0A77F3"/>
</g>
</svg>
