<svg width="350" height="358" viewBox="0 0 350 358" fill="none" xmlns="http://www.w3.org/2000/svg">
<g opacity="0.7">
<path d="M288.924 163.67C288.848 162.946 288.964 162.289 289.272 161.697C289.583 161.104 290.058 160.617 290.696 160.234C291.337 159.851 292.118 159.611 293.037 159.515C293.949 159.42 294.756 159.493 295.46 159.736C296.163 159.979 296.726 160.36 297.15 160.879C297.574 161.398 297.824 162.023 297.9 162.754C297.959 163.319 297.912 163.776 297.758 164.123C297.608 164.474 297.423 164.748 297.204 164.947C296.989 165.148 296.811 165.306 296.671 165.419L296.682 165.532L300.955 165.086L301.094 166.419L289.521 167.629L289.386 166.341L290.72 166.201L290.703 166.043C290.535 165.962 290.32 165.843 290.06 165.688C289.804 165.532 289.564 165.296 289.341 164.98C289.121 164.664 288.982 164.227 288.924 163.67ZM290.141 163.725C290.197 164.26 290.384 164.698 290.701 165.038C291.022 165.378 291.441 165.618 291.959 165.758C292.48 165.897 293.068 165.933 293.724 165.865C294.372 165.797 294.929 165.643 295.395 165.404C295.865 165.165 296.217 164.846 296.449 164.448C296.686 164.051 296.775 163.58 296.719 163.038C296.66 162.473 296.465 162.017 296.136 161.671C295.811 161.327 295.391 161.088 294.878 160.951C294.369 160.817 293.809 160.783 293.199 160.846C292.581 160.911 292.03 161.064 291.545 161.305C291.064 161.55 290.694 161.874 290.435 162.278C290.181 162.685 290.083 163.168 290.141 163.725Z" fill="#0A77F3"/>
<path d="M298.785 180.152L297.649 180.15L297.657 175.628L298.794 175.63L298.785 180.152ZM300.882 176.952L300.88 178.293L292.562 178.277C292.183 178.277 291.899 178.331 291.709 178.441C291.523 178.554 291.398 178.698 291.333 178.872C291.272 179.05 291.242 179.237 291.241 179.434C291.241 179.582 291.248 179.703 291.263 179.798C291.282 179.892 291.297 179.968 291.308 180.025L290.103 180.296C290.069 180.205 290.036 180.078 290.002 179.915C289.964 179.752 289.946 179.545 289.946 179.295C289.947 178.916 290.029 178.545 290.192 178.182C290.356 177.822 290.605 177.524 290.938 177.286C291.272 177.051 291.693 176.935 292.2 176.936L300.882 176.952Z" fill="#0A77F3"/>
<path d="M289.492 188.465C289.58 187.629 289.84 186.927 290.273 186.359C290.709 185.795 291.277 185.384 291.979 185.126C292.683 184.873 293.48 184.792 294.369 184.885C295.258 184.979 296.025 185.223 296.669 185.618C297.316 186.017 297.8 186.528 298.119 187.152C298.442 187.78 298.562 188.486 298.48 189.269C298.433 189.721 298.311 190.16 298.114 190.585C297.917 191.01 297.63 191.385 297.253 191.712C296.88 192.038 296.406 192.28 295.829 192.437C295.253 192.593 294.56 192.629 293.75 192.544L293.185 192.485L293.885 185.795L295.038 185.915L294.48 191.25C294.969 191.301 295.417 191.249 295.821 191.093C296.226 190.941 296.558 190.698 296.818 190.363C297.077 190.033 297.232 189.626 297.282 189.144C297.338 188.613 297.254 188.139 297.031 187.724C296.811 187.312 296.503 186.981 296.107 186.73C295.71 186.479 295.273 186.328 294.794 186.278L294.026 186.198C293.37 186.129 292.803 186.184 292.323 186.362C291.847 186.545 291.469 186.827 291.189 187.209C290.913 187.591 290.747 188.052 290.69 188.591C290.654 188.941 290.67 189.263 290.738 189.555C290.81 189.852 290.935 190.115 291.113 190.343C291.294 190.572 291.53 190.758 291.819 190.903L291.323 192.153C290.9 191.972 290.54 191.704 290.242 191.349C289.948 190.994 289.733 190.572 289.597 190.082C289.466 189.592 289.431 189.053 289.492 188.465Z" fill="#0A77F3"/>
<path d="M287.261 203.356C287.418 202.708 287.688 202.156 288.072 201.699C288.455 201.243 288.909 200.912 289.434 200.708C289.959 200.504 290.512 200.457 291.094 200.566L290.773 201.892C290.249 201.819 289.769 201.949 289.334 202.28C288.902 202.616 288.616 203.072 288.476 203.65C288.364 204.114 288.373 204.553 288.502 204.966C288.631 205.383 288.86 205.741 289.19 206.039C289.522 206.341 289.929 206.551 290.411 206.668C290.905 206.787 291.371 206.785 291.81 206.662C292.252 206.543 292.631 206.323 292.946 206.001C293.262 205.68 293.48 205.279 293.6 204.798C293.688 204.453 293.72 204.084 293.698 203.693C293.679 203.303 293.614 202.969 293.502 202.693L293.967 201.449L299.367 203.482L297.944 209.357L296.73 209.063L297.874 204.336L294.635 203.131L294.619 203.197C294.747 203.474 294.829 203.801 294.866 204.181C294.903 204.56 294.875 204.939 294.784 205.318C294.616 206.01 294.301 206.587 293.839 207.048C293.379 207.513 292.826 207.832 292.181 208.003C291.535 208.177 290.845 208.176 290.112 207.999C289.391 207.824 288.786 207.506 288.297 207.045C287.812 206.588 287.473 206.038 287.282 205.396C287.094 204.754 287.087 204.074 287.261 203.356Z" fill="#0A77F3"/>
<path d="M284.269 215.136L292.009 223.69L292.094 223.723L294.248 218.123L295.415 218.571L292.738 225.529L291.508 225.056L283.738 216.515L284.269 215.136Z" fill="#0A77F3"/>
<path d="M277.097 231.476C277.332 231.061 277.64 230.685 278.022 230.35C278.403 230.014 278.869 229.772 279.42 229.624C279.975 229.477 280.62 229.468 281.356 229.598C282.095 229.729 282.938 230.052 283.882 230.567C284.787 231.06 285.542 231.581 286.148 232.132C286.758 232.684 287.214 233.252 287.517 233.835C287.823 234.421 287.977 235.009 287.978 235.601C287.978 236.196 287.821 236.781 287.507 237.356C287.195 237.928 286.803 238.375 286.331 238.695C285.86 239.021 285.345 239.215 284.785 239.276C284.225 239.338 283.658 239.266 283.084 239.061L283.747 237.844C284.268 237.981 284.768 237.969 285.249 237.808C285.729 237.647 286.116 237.297 286.409 236.758C286.841 235.967 286.836 235.155 286.396 234.325C285.954 233.497 285.112 232.743 283.87 232.061L283.827 232.141C284.008 232.482 284.128 232.834 284.188 233.199C284.25 233.569 284.25 233.94 284.19 234.313C284.129 234.685 284.004 235.046 283.813 235.395C283.494 235.981 283.056 236.436 282.499 236.763C281.945 237.09 281.332 237.261 280.66 237.275C279.992 237.29 279.328 237.118 278.67 236.759C278.038 236.415 277.536 235.958 277.165 235.389C276.797 234.822 276.597 234.198 276.567 233.517C276.538 232.842 276.715 232.161 277.097 231.476ZM278.195 232.075C277.966 232.494 277.866 232.927 277.894 233.373C277.921 233.823 278.058 234.241 278.305 234.626C278.551 235.014 278.89 235.326 279.322 235.562C279.745 235.792 280.181 235.907 280.63 235.906C281.08 235.91 281.499 235.803 281.884 235.586C282.268 235.373 282.574 235.057 282.803 234.637C282.975 234.322 283.072 233.993 283.094 233.651C283.12 233.311 283.081 232.979 282.977 232.655C282.871 232.335 282.711 232.04 282.495 231.771C282.282 231.504 282.023 231.288 281.717 231.121C281.311 230.9 280.88 230.788 280.424 230.785C279.966 230.786 279.539 230.894 279.141 231.109C278.742 231.327 278.427 231.649 278.195 232.075Z" fill="#0A77F3"/>
<path d="M268.692 245.278C269.138 244.675 269.64 244.215 270.196 243.896C270.751 243.581 271.315 243.421 271.888 243.417C272.462 243.419 273.003 243.589 273.511 243.928L272.659 245.078C272.34 244.879 272.003 244.79 271.648 244.81C271.297 244.832 270.952 244.947 270.615 245.154C270.278 245.362 269.976 245.645 269.71 246.004C269.412 246.406 269.218 246.813 269.128 247.228C269.038 247.642 269.052 248.03 269.171 248.391C269.29 248.752 269.513 249.055 269.842 249.299C270.186 249.553 270.552 249.693 270.94 249.716C271.331 249.742 271.723 249.646 272.116 249.428C272.508 249.209 272.881 248.863 273.232 248.388L273.787 247.64L274.791 248.384L274.237 249.133C273.961 249.504 273.787 249.879 273.714 250.258C273.638 250.641 273.663 251.001 273.789 251.34C273.913 251.681 274.139 251.974 274.468 252.218C274.784 252.452 275.112 252.586 275.45 252.62C275.788 252.654 276.117 252.591 276.437 252.433C276.755 252.277 277.042 252.027 277.297 251.683C277.536 251.361 277.702 251.012 277.795 250.638C277.889 250.27 277.892 249.913 277.803 249.569C277.717 249.227 277.524 248.934 277.225 248.688L278.037 247.593C278.513 247.974 278.833 248.44 278.996 248.99C279.162 249.542 279.183 250.118 279.058 250.719C278.931 251.322 278.668 251.894 278.269 252.432C277.841 253.011 277.356 253.42 276.815 253.66C276.277 253.902 275.735 253.994 275.19 253.934C274.645 253.874 274.152 253.681 273.711 253.354C273.184 252.964 272.838 252.492 272.672 251.94C272.504 251.391 272.523 250.828 272.729 250.25L272.656 250.196C272.121 250.714 271.529 250.989 270.878 251.021C270.231 251.055 269.61 250.852 269.017 250.412C268.508 250.036 268.155 249.559 267.955 248.982C267.756 248.41 267.717 247.802 267.838 247.155C267.958 246.509 268.243 245.883 268.692 245.278Z" fill="#0A77F3"/>
<path d="M263.283 256.515L264.107 257.33L266.265 266.655L265.674 267.253L264.397 265.991L264.797 265.587L263.166 258.541L263.101 258.477L258.259 263.374L257.37 262.495L263.283 256.515ZM257.735 258.732L259.682 260.658L260.066 261.037L266.009 266.914L265.067 267.867L256.792 259.686L257.735 258.732Z" fill="#0A77F3"/>
<path d="M246.73 264.649C246.91 264.51 247.082 264.401 247.246 264.322C247.407 264.241 247.526 264.192 247.601 264.178L248.053 265.322C247.744 265.455 247.497 265.607 247.313 265.777C247.129 265.948 247.022 266.172 246.992 266.449C246.956 266.725 247.009 267.088 247.151 267.539L247.369 268.231L255.283 273.206L254.132 274.094L247.976 270.06L247.904 270.115L250.245 277.093L249.093 277.982L245.918 267.801C245.775 267.342 245.71 266.921 245.725 266.537C245.737 266.149 245.828 265.799 245.998 265.486C246.165 265.176 246.409 264.896 246.73 264.649Z" fill="#0A77F3"/>
<path d="M235.147 276.743C235.776 276.377 236.424 276.214 237.09 276.252C237.758 276.293 238.397 276.526 239.007 276.952C239.62 277.38 240.158 277.994 240.622 278.793C241.083 279.586 241.346 280.353 241.413 281.094C241.48 281.834 241.363 282.505 241.063 283.104C240.762 283.703 240.295 284.187 239.659 284.556C239.168 284.842 238.732 284.985 238.352 284.987C237.971 284.994 237.645 284.938 237.374 284.819C237.102 284.705 236.886 284.608 236.724 284.526L236.626 284.583L238.783 288.298L237.624 288.971L231.78 278.909L232.9 278.258L233.573 279.418L233.711 279.338C233.716 279.151 233.737 278.907 233.772 278.606C233.809 278.308 233.926 277.993 234.123 277.66C234.321 277.33 234.663 277.024 235.147 276.743ZM235.595 277.876C235.13 278.146 234.807 278.495 234.627 278.924C234.449 279.356 234.402 279.837 234.486 280.366C234.572 280.899 234.78 281.45 235.111 282.02C235.438 282.584 235.807 283.029 236.216 283.356C236.627 283.687 237.061 283.877 237.519 283.927C237.979 283.979 238.445 283.869 238.917 283.595C239.408 283.309 239.744 282.945 239.925 282.503C240.105 282.066 240.152 281.585 240.067 281.061C239.98 280.542 239.782 280.017 239.474 279.486C239.162 278.949 238.797 278.508 238.378 278.165C237.958 277.826 237.511 277.622 237.036 277.551C236.56 277.486 236.08 277.594 235.595 277.876Z" fill="#0A77F3"/>
<path d="M220.523 284.371C220.968 284.198 221.445 284.103 221.953 284.085C222.46 284.067 222.974 284.175 223.495 284.409C224.017 284.647 224.521 285.049 225.009 285.616C225.498 286.186 225.945 286.969 226.349 287.966C226.737 288.92 226.991 289.802 227.111 290.612C227.233 291.425 227.226 292.154 227.091 292.797C226.957 293.445 226.703 293.997 226.329 294.456C225.952 294.916 225.46 295.269 224.852 295.515C224.249 295.76 223.663 295.857 223.094 295.806C222.523 295.76 222.002 295.583 221.53 295.276C221.058 294.969 220.664 294.555 220.35 294.032L221.635 293.511C221.951 293.946 222.345 294.254 222.819 294.434C223.293 294.614 223.814 294.588 224.382 294.357C225.217 294.018 225.728 293.388 225.914 292.466C226.096 291.546 225.923 290.428 225.393 289.114L225.309 289.149C225.233 289.527 225.103 289.876 224.919 290.196C224.732 290.522 224.497 290.809 224.214 291.059C223.931 291.309 223.606 291.508 223.237 291.658C222.619 291.909 221.992 291.984 221.354 291.883C220.717 291.786 220.135 291.529 219.607 291.114C219.08 290.703 218.675 290.15 218.393 289.455C218.122 288.788 218.024 288.117 218.097 287.441C218.171 286.769 218.413 286.16 218.821 285.614C219.226 285.073 219.794 284.659 220.523 284.371ZM220.994 285.529C220.551 285.708 220.2 285.98 219.939 286.344C219.674 286.709 219.515 287.119 219.463 287.573C219.407 288.029 219.471 288.485 219.657 288.942C219.838 289.387 220.102 289.752 220.451 290.036C220.797 290.325 221.188 290.507 221.624 290.584C222.056 290.662 222.493 290.611 222.935 290.431C223.269 290.296 223.552 290.103 223.786 289.853C224.021 289.606 224.201 289.325 224.326 289.008C224.447 288.693 224.51 288.363 224.513 288.019C224.517 287.677 224.454 287.345 224.323 287.022C224.149 286.594 223.887 286.235 223.535 285.944C223.181 285.655 222.782 285.467 222.338 285.382C221.891 285.297 221.443 285.346 220.994 285.529Z" fill="#0A77F3"/>
<path d="M205.343 289.698C206.07 289.515 206.75 289.477 207.382 289.583C208.011 289.69 208.548 289.924 208.994 290.285C209.438 290.649 209.749 291.124 209.927 291.708L208.539 292.057C208.418 291.701 208.214 291.419 207.927 291.21C207.641 291.004 207.301 290.875 206.909 290.821C206.517 290.768 206.104 290.796 205.67 290.905C205.185 291.027 204.777 291.22 204.445 291.483C204.113 291.746 203.878 292.055 203.741 292.41C203.604 292.765 203.585 293.141 203.685 293.537C203.789 293.953 203.984 294.292 204.269 294.556C204.556 294.824 204.92 294.998 205.362 295.078C205.804 295.158 206.311 295.126 206.884 294.982L207.788 294.754L208.093 295.966L207.19 296.194C206.741 296.307 206.369 296.487 206.072 296.733C205.771 296.981 205.562 297.276 205.445 297.618C205.324 297.961 205.314 298.33 205.413 298.727C205.51 299.109 205.678 299.42 205.918 299.66C206.158 299.901 206.452 300.061 206.801 300.141C207.145 300.222 207.525 300.211 207.94 300.106C208.33 300.008 208.679 299.844 208.988 299.614C209.295 299.388 209.523 299.114 209.672 298.791C209.822 298.472 209.859 298.123 209.783 297.744L211.105 297.411C211.232 298.008 211.184 298.571 210.962 299.099C210.741 299.632 210.391 300.091 209.914 300.476C209.434 300.863 208.868 301.138 208.218 301.302C207.52 301.478 206.886 301.487 206.315 301.33C205.745 301.177 205.268 300.904 204.885 300.512C204.501 300.121 204.242 299.659 204.108 299.126C203.948 298.491 203.978 297.907 204.2 297.374C204.418 296.843 204.789 296.419 205.315 296.103L205.293 296.015C204.551 296.077 203.918 295.914 203.395 295.526C202.872 295.142 202.521 294.592 202.34 293.876C202.186 293.263 202.214 292.67 202.426 292.097C202.634 291.529 202.99 291.033 203.492 290.609C203.995 290.186 204.612 289.882 205.343 289.698Z" fill="#0A77F3"/>
<path d="M193.014 292.632L189.006 303.449L189.017 303.539L194.978 302.861L195.119 304.103L187.713 304.946L187.564 303.636L191.546 292.798L193.014 292.632Z" fill="#0A77F3"/>
<path d="M178.753 294.077L178.734 295.1L174.815 299.232C174.355 299.716 173.976 300.137 173.678 300.495C173.379 300.857 173.157 301.197 173.011 301.517C172.861 301.84 172.783 302.179 172.776 302.535C172.768 302.944 172.86 303.3 173.052 303.603C173.239 303.906 173.5 304.142 173.834 304.311C174.168 304.48 174.545 304.568 174.965 304.576C175.412 304.585 175.804 304.499 176.141 304.32C176.474 304.144 176.734 303.893 176.922 303.567C177.106 303.241 177.203 302.856 177.211 302.413L178.551 302.438C178.539 303.12 178.37 303.716 178.046 304.225C177.723 304.734 177.287 305.127 176.74 305.405C176.189 305.683 175.575 305.815 174.897 305.803C174.215 305.79 173.614 305.635 173.093 305.337C172.572 305.039 172.166 304.643 171.876 304.149C171.586 303.655 171.447 303.109 171.458 302.51C171.466 302.083 171.551 301.665 171.714 301.259C171.873 300.857 172.147 300.409 172.535 299.916C172.919 299.427 173.451 298.831 174.131 298.128L176.797 295.382L176.798 295.291L171.39 295.19L171.413 293.94L178.753 294.077Z" fill="#0A77F3"/>
<path d="M158.963 292.771C159.704 292.889 160.344 293.122 160.883 293.469C161.418 293.816 161.82 294.242 162.088 294.749C162.351 295.26 162.45 295.818 162.383 296.425L160.97 296.199C160.999 295.824 160.923 295.484 160.742 295.178C160.56 294.877 160.299 294.624 159.959 294.42C159.62 294.216 159.23 294.079 158.788 294.009C158.295 293.93 157.843 293.946 157.434 294.057C157.025 294.168 156.688 294.359 156.422 294.631C156.156 294.903 155.99 295.241 155.926 295.645C155.858 296.068 155.903 296.457 156.061 296.812C156.219 297.171 156.485 297.474 156.859 297.722C157.234 297.97 157.713 298.141 158.296 298.234L159.216 298.381L159.019 299.615L158.099 299.468C157.643 299.395 157.229 299.413 156.859 299.523C156.485 299.632 156.176 299.82 155.934 300.089C155.688 300.356 155.532 300.692 155.468 301.096C155.406 301.485 155.437 301.837 155.563 302.153C155.689 302.468 155.897 302.731 156.185 302.942C156.47 303.153 156.823 303.292 157.246 303.36C157.643 303.423 158.028 303.41 158.403 303.32C158.774 303.234 159.091 303.072 159.356 302.834C159.619 302.6 159.791 302.294 159.871 301.915L161.217 302.131C161.099 302.729 160.833 303.228 160.42 303.626C160.007 304.028 159.505 304.312 158.914 304.478C158.32 304.644 157.692 304.674 157.03 304.568C156.319 304.454 155.732 304.213 155.27 303.843C154.807 303.478 154.476 303.039 154.278 302.528C154.079 302.017 154.024 301.49 154.111 300.948C154.214 300.301 154.472 299.776 154.886 299.374C155.295 298.972 155.804 298.729 156.412 298.646L156.426 298.556C155.72 298.32 155.203 297.921 154.875 297.359C154.546 296.8 154.44 296.155 154.557 295.426C154.657 294.801 154.917 294.268 155.336 293.825C155.752 293.385 156.274 293.069 156.903 292.878C157.532 292.688 158.219 292.652 158.963 292.771Z" fill="#0A77F3"/>
<path d="M143.574 289.553C144.211 289.748 144.747 290.05 145.181 290.459C145.614 290.868 145.918 291.341 146.091 291.877C146.264 292.413 146.279 292.968 146.135 293.542L144.831 293.144C144.934 292.625 144.833 292.139 144.527 291.685C144.217 291.234 143.778 290.922 143.209 290.749C142.753 290.61 142.314 290.593 141.894 290.698C141.47 290.803 141.1 291.011 140.783 291.322C140.462 291.636 140.229 292.03 140.084 292.505C139.936 292.99 139.911 293.456 140.009 293.901C140.102 294.349 140.299 294.74 140.601 295.074C140.904 295.408 141.291 295.649 141.765 295.797C142.104 295.905 142.47 295.959 142.862 295.959C143.253 295.964 143.589 295.918 143.872 295.822L145.086 296.358L142.742 301.631L136.959 299.868L137.324 298.672L141.976 300.091L143.369 296.928L143.303 296.908C143.02 297.019 142.688 297.082 142.307 297.097C141.926 297.112 141.549 297.062 141.176 296.948C140.495 296.74 139.938 296.392 139.505 295.904C139.067 295.418 138.781 294.848 138.648 294.193C138.512 293.538 138.553 292.85 138.773 292.129C138.99 291.418 139.342 290.833 139.831 290.372C140.316 289.914 140.884 289.608 141.537 289.455C142.188 289.305 142.867 289.338 143.574 289.553Z" fill="#0A77F3"/>
<path d="M131.509 288.353L131.02 289.404L122.969 294.581L122.207 294.227L122.965 292.599L123.48 292.839L129.562 288.926L129.601 288.844L123.358 285.938L123.885 284.805L131.509 288.353ZM127.55 283.879L126.394 286.361L126.167 286.851L122.64 294.428L121.424 293.862L126.334 283.313L127.55 283.879Z" fill="#0A77F3"/>
<path d="M114.214 276.633C114.774 276.996 115.206 277.433 115.51 277.946C115.814 278.459 115.975 278.997 115.994 279.56C116.013 280.123 115.875 280.661 115.579 281.173L114.434 280.432C114.676 279.961 114.713 279.465 114.544 278.946C114.37 278.427 114.034 278.006 113.535 277.682C113.134 277.423 112.717 277.286 112.284 277.272C111.848 277.255 111.435 277.353 111.045 277.565C110.649 277.778 110.317 278.093 110.047 278.51C109.771 278.936 109.618 279.376 109.59 279.832C109.556 280.288 109.638 280.718 109.837 281.122C110.036 281.526 110.342 281.865 110.756 282.138C111.053 282.335 111.39 282.487 111.766 282.596C112.141 282.707 112.477 282.756 112.775 282.742L113.795 283.592L110.09 288.016L105.016 284.729L105.696 283.68L109.778 286.324L111.987 283.666L111.93 283.629C111.626 283.658 111.29 283.627 110.92 283.537C110.55 283.446 110.201 283.295 109.874 283.082C109.276 282.695 108.836 282.207 108.554 281.618C108.267 281.031 108.15 280.404 108.202 279.738C108.251 279.07 108.48 278.42 108.89 277.787C109.294 277.164 109.794 276.699 110.391 276.39C110.983 276.083 111.613 275.946 112.283 275.978C112.951 276.013 113.594 276.232 114.214 276.633Z" fill="#0A77F3"/>
<path d="M102.614 268.864L98.7497 277.128L97.7027 276.185L100.773 269.958L100.705 269.897L94.8487 273.615L93.7847 272.657L96.8733 266.477L96.8057 266.416L90.9476 270.101L89.9006 269.158L97.717 264.453L98.6964 265.335L95.6281 271.595L95.7295 271.686L101.635 267.982L102.614 268.864Z" fill="#0A77F3"/>
<path d="M86.9906 257.399L86.084 258.121L76.5695 259.163L76.0455 258.506L77.4498 257.387L77.8039 257.831L84.993 257.044L85.0641 256.987L80.7731 251.601L81.7507 250.822L86.9906 257.399ZM85.4441 251.628L83.3021 253.335L82.8799 253.671L76.3429 258.879L75.5074 257.83L84.6085 250.579L85.4441 251.628Z" fill="#0A77F3"/>
<path d="M78.2938 242.099L66.7837 242.874L66.7055 242.92L69.7661 248.081L68.6909 248.719L64.8884 242.307L66.0222 241.635L77.5403 240.828L78.2938 242.099Z" fill="#0A77F3"/>
<path d="M61.7763 229.907L62.8063 229.427L64.7933 233.692L63.7633 234.172L61.7763 229.907ZM71.0788 229.208L62.0763 233.403C61.6231 233.614 61.1958 233.684 60.7945 233.612C60.3931 233.54 60.0377 233.369 59.7283 233.1C59.4188 232.83 59.1761 232.506 59.0001 232.129C58.8609 231.83 58.7714 231.575 58.7315 231.364C58.6915 231.153 58.6706 230.991 58.6686 230.879L59.8824 230.74C59.8906 230.811 59.9048 230.909 59.9251 231.033C59.9438 231.154 59.994 231.302 60.0756 231.477C60.2628 231.879 60.4992 232.122 60.785 232.206C61.0692 232.287 61.4069 232.236 61.7984 232.053L70.5124 227.993L71.0788 229.208Z" fill="#0A77F3"/>
<path d="M65.6294 223.329L64.5321 223.703L55.2251 221.469L54.9542 220.672L56.6539 220.094L56.8369 220.632L63.8694 222.32L63.9554 222.291L61.7368 215.771L62.9202 215.369L65.6294 223.329ZM66.1238 217.375L63.5312 218.258L63.0202 218.432L55.1079 221.124L54.6759 219.855L65.6918 216.106L66.1238 217.375Z" fill="#0A77F3"/>
<path d="M50.031 205.032L64.442 205.724L64.7038 206.923L50.2927 206.231L50.031 205.032Z" fill="#0A77F3"/>
<path d="M55.5075 195.398L53.0142 195.602L54.5943 197.543L53.7106 198.197L52.2976 196.122L51.4085 198.47L50.3964 198.04L51.4794 195.784L49.0075 196.168L48.8792 195.085L51.3725 194.881L49.7924 192.94L50.6761 192.286L52.0891 194.361L52.9782 192.013L53.9903 192.443L52.9073 194.699L55.3792 194.315L55.5075 195.398Z" fill="#0A77F3"/>
<path d="M47.2707 180.306L61.2786 183.761L61.3046 184.988L47.2966 181.533L47.2707 180.306Z" fill="#0A77F3"/>
<path d="M54.4966 172.087L52.0108 171.806L53.1866 174.016L52.1932 174.487L51.2074 172.178L49.8818 174.31L48.9716 173.693L50.4699 171.688L47.9702 171.588L48.0534 170.5L50.5392 170.782L49.3634 168.572L50.3568 168.101L51.3426 170.41L52.6682 168.278L53.5784 168.894L52.0802 170.9L54.5798 171L54.4966 172.087Z" fill="#0A77F3"/>
<path d="M56.0001 155.798L57.2287 156.028L56.2894 161.032L55.0609 160.801L56.0001 155.798Z" fill="#0A77F3"/>
<path d="M52.4032 142.799L64.7666 150.235L64.4291 151.415L52.0657 143.979L52.4032 142.799Z" fill="#0A77F3"/>
<path d="M63.2964 140.257L62.2244 139.816L56.686 132.01L57.0058 131.232L58.6663 131.915L58.4503 132.44L62.6353 138.339L62.7194 138.373L65.3381 132.004L66.4942 132.48L63.2964 140.257ZM67.5864 136.099L65.0535 135.057L64.5543 134.852L56.8243 131.674L57.3342 130.433L68.0963 134.859L67.5864 136.099Z" fill="#0A77F3"/>
<path d="M63.8683 116.897L74.0442 122.541L73.3607 123.773L64.4767 118.845L64.4436 118.905L64.7153 122.304L63.4632 121.61L63.1849 118.129L63.8683 116.897Z" fill="#0A77F3"/>
<path d="M75.2053 115.529L74.265 114.851L70.6909 105.972L71.1825 105.29L72.6391 106.34L72.3069 106.801L75.0078 113.51L75.0815 113.563L79.1078 107.976L80.1219 108.707L75.2053 115.529ZM80.3437 112.481L78.1219 110.879L77.684 110.564L70.9035 105.677L71.6875 104.589L81.1277 111.393L80.3437 112.481Z" fill="#0A77F3"/>
<path d="M87.3292 103.246L86.5918 102.537L86.2212 96.8543C86.1785 96.1881 86.127 95.6239 86.0669 95.1616C86.004 94.6967 85.9051 94.3022 85.77 93.9781C85.6349 93.6486 85.4389 93.3605 85.1822 93.1138C84.8872 92.8303 84.5636 92.6559 84.2113 92.5906C83.8617 92.5226 83.5114 92.5537 83.1603 92.6839C82.8093 92.8142 82.4881 93.0309 82.1968 93.3341C81.8871 93.6564 81.6837 94.002 81.5866 94.3709C81.4894 94.7345 81.4966 95.096 81.6083 95.4555C81.7225 95.8122 81.9395 96.1441 82.259 96.4511L81.3299 97.418C80.8383 96.9456 80.5157 96.4176 80.362 95.834C80.2084 95.2503 80.2155 94.6635 80.3832 94.0735C80.5535 93.4807 80.8736 92.9399 81.3434 92.4509C81.8158 91.9593 82.3382 91.6234 82.9106 91.4432C83.4829 91.263 84.049 91.2343 84.6086 91.3571C85.1683 91.4799 85.6639 91.7486 86.0955 92.1633C86.4041 92.4598 86.6521 92.8058 86.8395 93.2012C87.0268 93.5913 87.1695 94.0961 87.2676 94.7157C87.3655 95.3299 87.4417 96.1254 87.496 97.1021L87.7008 100.924L87.7664 100.987L91.5141 97.0863L92.4155 97.9523L87.3292 103.246Z" fill="#0A77F3"/>
<path d="M101.671 89.6507C101.081 90.1147 100.476 90.4271 99.8558 90.588C99.2382 90.7465 98.6522 90.7523 98.0978 90.6054C97.5441 90.4533 97.0667 90.147 96.6656 89.6866L97.7905 88.8008C98.0463 89.0767 98.3479 89.2515 98.6951 89.3251C99.0401 89.3958 99.4026 89.3756 99.7827 89.2643C100.163 89.1531 100.528 88.9592 100.88 88.6827C101.272 88.3734 101.567 88.0307 101.762 87.6548C101.958 87.2789 102.046 86.901 102.027 86.521C102.007 86.1411 101.871 85.7904 101.618 85.469C101.353 85.1327 101.036 84.9022 100.668 84.7775C100.298 84.6498 99.8944 84.6396 99.4581 84.7468C99.0219 84.8541 98.5717 85.0905 98.1074 85.4561L97.3753 86.0325L96.602 85.0504L97.3341 84.474C97.6972 84.1881 97.9641 83.8719 98.1347 83.5253C98.3084 83.1765 98.3789 82.8221 98.3462 82.4621C98.3164 82.0998 98.175 81.758 97.9219 81.4366C97.6782 81.1271 97.3977 80.9117 97.0804 80.7903C96.763 80.6689 96.429 80.6427 96.0782 80.7116C95.7305 80.7781 95.3884 80.9438 95.0521 81.2086C94.7367 81.457 94.4848 81.7493 94.2964 82.0857C94.1087 82.4167 94.0126 82.7599 94.0081 83.1155C94.0012 83.468 94.1098 83.8019 94.334 84.1172L93.2626 84.9608C92.9032 84.4676 92.7171 83.9343 92.7044 83.361C92.6893 82.7846 92.8208 82.2231 93.099 81.6762C93.3801 81.127 93.784 80.645 94.3107 80.2303C94.8762 79.785 95.4515 79.5176 96.0367 79.4281C96.6195 79.3356 97.166 79.3898 97.6762 79.5907C98.1863 79.7917 98.6113 80.1079 98.9511 80.5394C99.3565 81.0543 99.5667 81.5998 99.5818 82.1762C99.5999 82.7501 99.4333 83.2887 99.0822 83.7918L99.1384 83.8632C99.7908 83.5038 100.435 83.3943 101.071 83.5347C101.705 83.6721 102.25 84.031 102.707 84.6113C103.098 85.1083 103.314 85.6613 103.355 86.2704C103.397 86.8741 103.274 87.4719 102.988 88.0636C102.702 88.6553 102.263 89.1844 101.671 89.6507Z" fill="#0A77F3"/>
<path d="M109.845 80.2312L109.265 79.2275L109.647 69.6637L110.375 69.2432L111.273 70.798L110.781 71.0821L110.493 78.3085L110.538 78.3873L116.501 74.9434L117.127 76.0258L109.845 80.2312ZM115.781 79.5586L114.412 77.187L114.142 76.7196L109.962 69.4819L111.123 68.8113L116.942 78.888L115.781 79.5586Z" fill="#0A77F3"/>
<path d="M129.42 72.7861C128.802 73.0349 128.195 73.1359 127.601 73.0893C127.006 73.0426 126.473 72.865 126.002 72.5564C125.531 72.2478 125.171 71.8251 124.922 71.2882L126.188 70.7793C126.433 71.248 126.817 71.563 127.339 71.7245C127.864 71.881 128.402 71.8483 128.954 71.6264C129.396 71.4483 129.748 71.1863 130.009 70.8404C130.274 70.4931 130.432 70.0989 130.483 69.6578C130.536 69.2117 130.47 68.7585 130.285 68.2982C130.095 67.8273 129.823 67.449 129.467 67.1634C129.113 66.8729 128.714 66.6926 128.27 66.6224C127.825 66.5522 127.372 66.608 126.91 66.7896C126.578 66.919 126.259 67.1064 125.954 67.3517C125.647 67.5936 125.414 67.8406 125.254 68.0927L123.971 68.4371L122.488 62.8607L128.096 60.6045L128.563 61.7642L124.051 63.5793L124.952 66.9158L125.015 66.8904C125.166 66.6256 125.385 66.3681 125.672 66.1178C125.959 65.8676 126.284 65.6696 126.646 65.524C127.306 65.2583 127.959 65.1796 128.602 65.2881C129.248 65.3916 129.828 65.6564 130.343 66.0824C130.861 66.5069 131.26 67.0688 131.541 67.7682C131.819 68.4569 131.911 69.1341 131.82 69.7997C131.73 70.4604 131.48 71.0552 131.068 71.5843C130.655 72.1098 130.105 72.5104 129.42 72.7861Z" fill="#0A77F3"/>
<path d="M144.112 67.6558C143.647 67.7648 143.162 67.793 142.657 67.7404C142.151 67.6878 141.657 67.5093 141.175 67.2049C140.691 66.8969 140.247 66.4285 139.843 65.7997C139.438 65.1672 139.104 64.3294 138.842 63.2861C138.591 62.2869 138.462 61.378 138.455 60.5594C138.448 59.7372 138.556 59.0168 138.779 58.3982C139.002 57.776 139.33 57.2638 139.764 56.8618C140.201 56.4588 140.738 56.1775 141.374 56.0177C142.005 55.8588 142.599 55.8443 143.155 55.974C143.714 56.0991 144.206 56.3465 144.631 56.7162C145.056 57.0859 145.388 57.5512 145.626 58.1122L144.282 58.4502C144.029 57.9747 143.681 57.615 143.237 57.3712C142.793 57.1274 142.273 57.0803 141.678 57.23C140.804 57.4498 140.211 58.0031 139.899 58.8901C139.59 59.7761 139.607 60.9066 139.949 62.2814L140.037 62.2592C140.164 61.8953 140.341 61.5675 140.569 61.276C140.799 60.9799 141.072 60.7278 141.386 60.5197C141.701 60.3117 142.052 60.1592 142.437 60.0622C143.084 59.8997 143.716 59.9126 144.334 60.1011C144.95 60.2858 145.491 60.6204 145.957 61.1049C146.421 61.5857 146.745 62.1898 146.928 62.9171C147.103 63.6151 147.108 64.2936 146.942 64.9525C146.774 65.6077 146.451 66.1773 145.971 66.6612C145.494 67.1404 144.874 67.472 144.112 67.6558ZM143.807 66.4435C144.27 66.3272 144.656 66.1071 144.965 65.7833C145.278 65.4586 145.492 65.0747 145.607 64.6318C145.726 64.1879 145.726 63.7272 145.605 63.2496C145.488 62.7831 145.277 62.3851 144.971 62.0557C144.669 61.7217 144.307 61.4865 143.886 61.3502C143.469 61.2129 143.029 61.2025 142.566 61.3188C142.217 61.4066 141.909 61.5581 141.643 61.7734C141.376 61.9851 141.159 62.2389 140.991 62.535C140.827 62.8301 140.719 63.1481 140.668 63.489C140.616 63.8262 140.633 64.1638 140.718 64.5018C140.83 64.95 141.04 65.3424 141.348 65.6792C141.659 66.015 142.028 66.2562 142.455 66.4026C142.886 66.5481 143.337 66.5617 143.807 66.4435Z" fill="#0A77F3"/>
<path d="M161.544 57.3173L160.388 57.7964C160.289 57.6058 160.155 57.4251 159.986 57.2542C159.821 57.0792 159.607 56.9441 159.344 56.8491C159.081 56.7541 158.756 56.7294 158.368 56.7749C157.838 56.8372 157.41 57.0114 157.085 57.2974C156.764 57.5793 156.625 57.9064 156.669 58.2789C156.707 58.6099 156.858 58.8573 157.122 59.0208C157.385 59.1844 157.78 59.3001 158.307 59.368L159.63 59.5329C160.427 59.63 161.039 59.85 161.464 60.1928C161.889 60.532 162.137 61.0043 162.208 61.61C162.267 62.1066 162.176 62.5673 161.936 62.9922C161.7 63.4165 161.341 63.7714 160.86 64.0568C160.378 64.3421 159.801 64.5244 159.127 64.6034C158.243 64.7073 157.489 64.6013 156.865 64.2856C156.24 63.9699 155.808 63.4525 155.567 62.7332L156.794 62.2688C156.969 62.7211 157.238 63.0443 157.6 63.2382C157.966 63.4317 158.422 63.4964 158.967 63.4323C159.588 63.3594 160.065 63.1699 160.399 62.8637C160.736 62.5533 160.883 62.2119 160.84 61.8394C160.804 61.5385 160.669 61.2988 160.435 61.1204C160.2 60.9382 159.858 60.822 159.41 60.7716L157.925 60.6027C157.11 60.5078 156.492 60.2847 156.073 59.9334C155.658 59.578 155.415 59.1011 155.345 58.503C155.287 58.0139 155.374 57.5652 155.604 57.1567C155.838 56.7478 156.182 56.4081 156.634 56.1376C157.091 55.8666 157.624 55.6953 158.233 55.6237C159.091 55.523 159.786 55.632 160.32 55.9508C160.857 56.2691 161.265 56.7246 161.544 57.3173Z" fill="#0A77F3"/>
<path d="M170.155 63.3618L175.362 53.0676L175.362 52.9767L169.362 52.9752L169.363 51.7252L176.817 51.727L176.817 53.0452L171.633 63.3621L170.155 63.3618Z" fill="#0A77F3"/>
<path d="M186.923 64.1572C186.088 64.0522 185.392 63.7775 184.833 63.333C184.279 62.8852 183.88 62.3082 183.636 61.6018C183.397 60.8922 183.334 60.0939 183.445 59.207C183.557 58.32 183.817 57.5586 184.225 56.9228C184.638 56.2838 185.159 55.8111 185.79 55.5048C186.424 55.1953 187.132 55.0897 187.914 55.1881C188.365 55.2448 188.801 55.3761 189.222 55.5817C189.642 55.7874 190.012 56.0821 190.33 56.4657C190.649 56.8456 190.881 57.3253 191.025 57.9047C191.17 58.4841 191.191 59.1778 191.09 59.9859L191.019 60.5496L184.344 59.7095L184.489 58.5595L189.811 59.2293C189.872 58.7407 189.829 58.2925 189.682 57.8845C189.539 57.4771 189.302 57.14 188.973 56.8733C188.648 56.6071 188.245 56.4437 187.764 56.3832C187.234 56.3165 186.759 56.3903 186.338 56.6047C185.922 56.8158 185.585 57.1169 185.326 57.508C185.066 57.8992 184.907 58.3334 184.847 58.8107L184.75 59.5774C184.668 60.2313 184.711 60.7998 184.879 61.2829C185.052 61.7628 185.326 62.1466 185.702 62.4345C186.079 62.7186 186.536 62.8944 187.073 62.9621C187.423 63.0061 187.744 62.997 188.039 62.9347C188.337 62.8692 188.602 62.7499 188.834 62.5767C189.066 62.3998 189.257 62.1681 189.408 61.8816L190.648 62.4042C190.458 62.8231 190.182 63.1778 189.821 63.4683C189.46 63.7551 189.034 63.961 188.541 64.086C188.048 64.2073 187.509 64.231 186.923 64.1572Z" fill="#0A77F3"/>
<path d="M198.118 65.6931L200.14 57.2032L201.4 57.5033L201.094 58.7856L201.183 58.8067C201.438 58.4235 201.799 58.1493 202.267 57.9842C202.734 57.8191 203.222 57.7971 203.731 57.9182C203.827 57.941 203.946 57.9714 204.089 58.0093C204.232 58.0472 204.339 58.0786 204.411 58.1035L204.095 59.43C204.053 59.4085 203.956 59.3677 203.803 59.3079C203.654 59.2453 203.493 59.1933 203.32 59.1521C202.907 59.0538 202.518 59.0526 202.153 59.1486C201.792 59.2418 201.481 59.4171 201.222 59.6745C200.966 59.9291 200.793 60.248 200.702 60.6312L199.422 66.0037L198.118 65.6931Z" fill="#0A77F3"/>
<path d="M211.29 69.4378C210.556 69.1726 209.955 68.8083 209.486 68.3449C209.022 67.8792 208.716 67.3599 208.569 66.7871C208.423 66.2107 208.458 65.6274 208.675 65.0374C208.839 64.5729 209.084 64.1783 209.411 63.8533C209.739 63.5248 210.111 63.2867 210.527 63.1389C210.948 62.9889 211.371 62.9503 211.795 63.0232L211.819 62.9591C211.344 62.6345 211.033 62.19 210.887 61.6256C210.742 61.0576 210.776 60.4839 210.989 59.9045C211.186 59.3475 211.507 58.9014 211.95 58.5662C212.393 58.2309 212.91 58.027 213.5 57.9542C214.094 57.8828 214.711 57.9629 215.352 58.1946C215.987 58.4237 216.507 58.7549 216.915 59.188C217.322 59.6211 217.589 60.1083 217.716 60.6494C217.846 61.1919 217.812 61.7416 217.615 62.2987C217.402 62.8781 217.056 63.3391 216.578 63.6818C216.104 64.0223 215.587 64.1675 215.025 64.1175L215.002 64.1817C215.371 64.3958 215.666 64.6937 215.887 65.0755C216.109 65.4537 216.243 65.8746 216.289 66.3382C216.336 66.7983 216.278 67.2606 216.114 67.725C215.897 68.3151 215.546 68.7844 215.061 69.133C214.582 69.4792 214.015 69.6832 213.36 69.7447C212.71 69.8039 212.02 69.7016 211.29 69.4378ZM211.715 68.2622C212.21 68.4411 212.667 68.5154 213.084 68.4851C213.502 68.4548 213.862 68.3289 214.163 68.1076C214.465 67.8863 214.688 67.5803 214.833 67.1898C214.979 66.7752 215.004 66.3715 214.908 65.9784C214.813 65.5854 214.616 65.2325 214.318 64.9195C214.024 64.6078 213.645 64.3683 213.182 64.2009C212.716 64.0323 212.266 63.9726 211.833 64.0217C211.404 64.0721 211.027 64.2178 210.703 64.4589C210.382 64.7013 210.148 65.0298 210.002 65.4443C209.857 65.8349 209.828 66.211 209.915 66.5727C210.005 66.9356 210.203 67.2628 210.509 67.5544C210.814 67.846 211.216 68.082 211.715 68.2622ZM213.592 63.0681C213.983 63.2097 214.359 63.2568 214.719 63.2094C215.082 63.1634 215.401 63.0312 215.677 62.8128C215.954 62.5945 216.162 62.2971 216.302 61.9208C216.432 61.549 216.461 61.1951 216.389 60.859C216.319 60.5193 216.159 60.22 215.91 59.9609C215.663 59.6983 215.338 59.4943 214.935 59.3489C214.526 59.2008 214.14 59.1481 213.778 59.1905C213.418 59.2295 213.104 59.3576 212.836 59.575C212.569 59.7888 212.371 60.0816 212.241 60.4534C212.101 60.8297 212.065 61.1895 212.135 61.5327C212.207 61.8772 212.369 62.1832 212.618 62.4507C212.868 62.7181 213.193 62.9239 213.592 63.0681Z" fill="#0A77F3"/>
<path d="M226.297 75.6871C225.634 75.3368 225.103 74.9107 224.704 74.4087C224.308 73.9085 224.065 73.3753 223.974 72.8091C223.889 72.2412 223.975 71.6806 224.233 71.1272L225.499 71.7959C225.351 72.1416 225.313 72.4881 225.387 72.8354C225.462 73.1794 225.628 73.5025 225.884 73.8047C226.14 74.1069 226.465 74.3624 226.861 74.5711C227.303 74.8046 227.735 74.9346 228.158 74.9609C228.581 74.9873 228.962 74.9145 229.302 74.7424C229.641 74.5703 229.906 74.3035 230.097 73.9417C230.297 73.5632 230.379 73.1804 230.344 72.7933C230.31 72.4028 230.156 72.03 229.881 71.6749C229.606 71.3197 229.207 71.0041 228.685 70.7282L227.861 70.293L228.444 69.1877L229.268 69.6228C229.677 69.8387 230.074 69.9543 230.46 69.9696C230.85 69.9868 231.202 69.9074 231.518 69.7314C231.837 69.5572 232.092 69.2892 232.283 68.9275C232.467 68.5791 232.55 68.2353 232.532 67.8961C232.514 67.5568 232.403 67.2408 232.197 66.9482C231.995 66.6573 231.705 66.412 231.327 66.2121C230.972 66.0246 230.602 65.913 230.218 65.8773C229.84 65.8401 229.487 65.8915 229.16 66.0317C228.835 66.1685 228.574 66.4033 228.377 66.736L227.171 66.0992C227.476 65.5706 227.888 65.1841 228.407 64.9398C228.927 64.6921 229.494 64.5845 230.107 64.6167C230.723 64.6508 231.327 64.8244 231.92 65.1375C232.556 65.4736 233.034 65.8909 233.354 66.3894C233.675 66.8845 233.847 67.406 233.87 67.9538C233.894 68.5016 233.777 69.0184 233.521 69.504C233.215 70.0835 232.801 70.497 232.281 70.7447C231.763 70.9941 231.204 71.0604 230.601 70.9437L230.559 71.024C231.152 71.4744 231.513 72.0187 231.643 72.657C231.775 73.292 231.668 73.936 231.323 74.5892C231.028 75.1485 230.61 75.5704 230.07 75.8549C229.535 76.1379 228.939 76.2686 228.282 76.2472C227.625 76.2258 226.963 76.0391 226.297 75.6871Z" fill="#0A77F3"/>
<path d="M238.213 79.3277L238.894 78.3895L247.784 74.8437L248.465 75.3376L247.41 76.7908L246.95 76.4571L240.233 79.1366L240.18 79.2102L245.753 83.2542L245.019 84.266L238.213 79.3277ZM241.245 84.4758L242.853 82.2591L243.17 81.8222L248.078 75.0573L249.164 75.8447L242.33 85.2632L241.245 84.4758Z" fill="#0A77F3"/>
<path d="M252.95 94.1282C252.47 93.6657 252.129 93.1537 251.928 92.5922C251.728 92.0307 251.672 91.4718 251.761 90.9156C251.849 90.3595 252.088 89.8581 252.476 89.4115L253.458 90.3576C253.131 90.7736 253.001 91.2528 253.067 91.7954C253.139 92.3379 253.389 92.8154 253.817 93.228C254.161 93.5592 254.544 93.773 254.966 93.8696C255.391 93.9689 255.815 93.9516 256.239 93.8178C256.668 93.6839 257.054 93.4383 257.399 93.0809C257.751 92.7154 257.984 92.3119 258.099 91.8704C258.22 91.4288 258.221 90.9908 258.103 90.5563C257.985 90.1218 257.749 89.7311 257.394 89.3841C257.14 89.1343 256.839 88.9203 256.49 88.742C256.144 88.5609 255.823 88.449 255.527 88.4063L254.688 87.3772L259.169 83.7414L263.523 87.9358L262.656 88.836L259.153 85.4616L256.478 87.6492L256.527 87.6965C256.83 87.7257 257.154 87.8201 257.5 87.9797C257.846 88.1394 258.16 88.3545 258.441 88.6252C258.953 89.1193 259.292 89.6823 259.457 90.3141C259.626 90.9458 259.622 91.5835 259.444 92.2271C259.269 92.8733 258.919 93.4678 258.396 94.0106C257.881 94.5453 257.301 94.9071 256.657 95.0959C256.017 95.2846 255.372 95.2993 254.72 95.14C254.072 94.978 253.482 94.6407 252.95 94.1282Z" fill="#0A77F3"/>
<path d="M263.729 105.537C263.265 104.948 262.952 104.343 262.791 103.723C262.632 103.105 262.626 102.519 262.773 101.965C262.924 101.411 263.23 100.933 263.691 100.532L264.577 101.657C264.301 101.913 264.127 102.214 264.053 102.561C263.983 102.906 264.003 103.269 264.115 103.649C264.226 104.029 264.42 104.394 264.697 104.745C265.007 105.138 265.349 105.432 265.725 105.628C266.101 105.823 266.479 105.911 266.859 105.891C267.239 105.872 267.59 105.735 267.911 105.482C268.247 105.217 268.478 104.9 268.602 104.532C268.73 104.161 268.74 103.758 268.632 103.322C268.524 102.886 268.288 102.435 267.922 101.971L267.345 101.24L268.327 100.466L268.904 101.198C269.19 101.56 269.506 101.827 269.853 101.998C270.202 102.171 270.556 102.241 270.916 102.208C271.278 102.178 271.62 102.037 271.941 101.784C272.251 101.54 272.466 101.259 272.587 100.942C272.708 100.624 272.734 100.29 272.665 99.9395C272.599 99.5917 272.433 99.2498 272.168 98.9136C271.919 98.5983 271.627 98.3466 271.29 98.1585C270.959 97.9709 270.616 97.875 270.26 97.8707C269.908 97.864 269.574 97.9729 269.259 98.1972L268.414 97.1263C268.907 96.7666 269.441 96.5802 270.014 96.5672C270.59 96.5518 271.152 96.6829 271.699 96.9607C272.248 97.2415 272.73 97.6452 273.146 98.1717C273.591 98.7369 273.859 99.312 273.949 99.8971C274.042 100.48 273.988 101.026 273.787 101.537C273.586 102.047 273.27 102.472 272.839 102.812C272.325 103.218 271.779 103.428 271.203 103.444C270.629 103.462 270.09 103.296 269.587 102.945L269.515 103.002C269.875 103.654 269.985 104.298 269.845 104.934C269.708 105.568 269.35 106.113 268.769 106.571C268.273 106.962 267.72 107.179 267.111 107.22C266.507 107.262 265.909 107.14 265.317 106.854C264.725 106.568 264.196 106.129 263.729 105.537Z" fill="#0A77F3"/>
<path d="M273.154 113.706L274.157 113.126L283.721 113.502L284.142 114.23L282.588 115.129L282.304 114.637L275.077 114.353L274.998 114.398L278.446 120.36L277.364 120.985L273.154 113.706ZM273.83 119.642L276.201 118.271L276.668 118.001L283.903 113.817L284.575 114.978L274.501 120.803L273.83 119.642Z" fill="#0A77F3"/>
<path d="M280.66 133.379C280.37 132.654 280.243 131.963 280.278 131.304C280.317 130.648 280.502 130.074 280.832 129.584C281.166 129.091 281.625 128.73 282.211 128.501C282.666 128.314 283.124 128.235 283.584 128.264C284.048 128.291 284.473 128.41 284.86 128.623C285.252 128.838 285.561 129.128 285.789 129.494L285.852 129.468C285.779 128.898 285.905 128.371 286.23 127.886C286.558 127.4 287.009 127.044 287.584 126.819C288.131 126.596 288.677 126.539 289.222 126.647C289.767 126.756 290.263 127.007 290.71 127.399C291.158 127.795 291.508 128.31 291.761 128.943C292.011 129.569 292.11 130.179 292.057 130.771C292.004 131.363 291.817 131.886 291.497 132.341C291.178 132.798 290.745 133.139 290.198 133.361C289.623 133.587 289.049 133.635 288.475 133.505C287.906 133.378 287.453 133.087 287.117 132.634L287.054 132.66C287.14 133.078 287.113 133.497 286.974 133.915C286.839 134.332 286.613 134.712 286.298 135.054C285.985 135.395 285.601 135.659 285.145 135.845C284.56 136.075 283.976 136.125 283.394 135.994C282.816 135.866 282.287 135.578 281.806 135.13C281.33 134.683 280.948 134.1 280.66 133.379ZM281.821 132.915C282.016 133.404 282.264 133.794 282.564 134.086C282.864 134.378 283.197 134.564 283.563 134.642C283.929 134.72 284.306 134.684 284.694 134.532C285.101 134.366 285.419 134.116 285.649 133.784C285.879 133.451 286.012 133.07 286.048 132.639C286.086 132.212 286.013 131.77 285.831 131.313C285.646 130.852 285.392 130.476 285.068 130.186C284.745 129.899 284.386 129.714 283.99 129.631C283.595 129.552 283.195 129.596 282.788 129.763C282.4 129.914 282.099 130.142 281.887 130.447C281.676 130.756 281.563 131.121 281.548 131.543C281.533 131.965 281.624 132.422 281.821 132.915ZM286.949 130.866C287.104 131.253 287.318 131.565 287.592 131.802C287.868 132.043 288.179 132.194 288.526 132.255C288.873 132.316 289.233 132.274 289.607 132.129C289.972 131.979 290.256 131.766 290.459 131.489C290.666 131.21 290.784 130.892 290.812 130.534C290.844 130.175 290.78 129.796 290.621 129.399C290.46 128.994 290.243 128.671 289.971 128.429C289.702 128.185 289.398 128.036 289.057 127.98C288.72 127.923 288.37 127.969 288.005 128.119C287.631 128.264 287.339 128.477 287.128 128.757C286.919 129.04 286.798 129.364 286.764 129.728C286.73 130.093 286.792 130.472 286.949 130.866Z" fill="#0A77F3"/>
<path d="M285.188 145.13L296.448 147.638L296.536 147.615L295.058 141.8L296.269 141.492L298.106 148.717L296.828 149.042L285.552 146.562L285.188 145.13Z" fill="#0A77F3"/>
</g>
</svg>
