<svg width="350" height="358" viewBox="0 0 350 358" fill="none" xmlns="http://www.w3.org/2000/svg">
<path d="M244.17 171.808C244.095 171.085 244.211 170.427 244.518 169.835C244.829 169.243 245.304 168.755 245.942 168.372C246.584 167.989 247.364 167.749 248.283 167.653C249.195 167.558 250.002 167.632 250.706 167.874C251.409 168.117 251.972 168.498 252.396 169.017C252.82 169.536 253.07 170.162 253.146 170.892C253.205 171.458 253.158 171.914 253.004 172.261C252.854 172.612 252.669 172.887 252.45 173.085C252.235 173.286 252.057 173.444 251.917 173.557L251.929 173.67L256.201 173.224L256.34 174.557L244.767 175.767L244.632 174.479L245.966 174.339L245.949 174.181C245.781 174.1 245.567 173.981 245.307 173.826C245.05 173.67 244.811 173.434 244.587 173.118C244.367 172.802 244.228 172.365 244.17 171.808ZM245.387 171.864C245.443 172.398 245.63 172.836 245.947 173.176C246.268 173.516 246.687 173.756 247.205 173.896C247.726 174.036 248.314 174.071 248.97 174.003C249.618 173.935 250.175 173.781 250.641 173.542C251.111 173.303 251.463 172.984 251.695 172.587C251.932 172.189 252.022 171.718 251.965 171.176C251.906 170.611 251.712 170.155 251.382 169.809C251.057 169.466 250.638 169.226 250.124 169.089C249.615 168.955 249.056 168.921 248.445 168.984C247.827 169.049 247.276 169.202 246.791 169.443C246.31 169.688 245.94 170.012 245.681 170.416C245.427 170.823 245.329 171.306 245.387 171.864Z" fill="#0A77F3"/>
<path d="M253.486 182.086L252.349 182.084L252.358 177.561L253.494 177.563L253.486 182.086ZM255.582 178.885L255.58 180.226L247.262 180.211C246.883 180.21 246.599 180.264 246.409 180.374C246.223 180.487 246.098 180.631 246.033 180.805C245.972 180.983 245.942 181.17 245.941 181.367C245.941 181.515 245.949 181.636 245.964 181.731C245.982 181.826 245.997 181.902 246.009 181.958L244.804 182.229C244.77 182.138 244.736 182.011 244.702 181.848C244.664 181.685 244.646 181.479 244.646 181.229C244.647 180.85 244.729 180.479 244.893 180.115C245.056 179.756 245.305 179.457 245.639 179.219C245.972 178.985 246.393 178.868 246.901 178.869L255.582 178.885Z" fill="#0A77F3"/>
<path d="M244.165 186.968C244.252 186.131 244.512 185.429 244.945 184.861C245.381 184.298 245.95 183.887 246.651 183.629C247.355 183.375 248.152 183.295 249.041 183.388C249.93 183.481 250.697 183.725 251.341 184.12C251.989 184.519 252.472 185.03 252.792 185.654C253.114 186.282 253.235 186.988 253.153 187.772C253.105 188.224 252.983 188.662 252.786 189.087C252.59 189.512 252.303 189.888 251.926 190.214C251.553 190.54 251.078 190.782 250.502 190.939C249.925 191.096 249.232 191.132 248.422 191.047L247.857 190.988L248.558 184.297L249.71 184.418L249.152 189.752C249.642 189.803 250.089 189.751 250.494 189.595C250.898 189.444 251.23 189.2 251.49 188.866C251.749 188.535 251.904 188.128 251.955 187.646C252.01 187.115 251.927 186.641 251.703 186.226C251.484 185.814 251.176 185.483 250.779 185.232C250.383 184.981 249.945 184.831 249.467 184.781L248.698 184.7C248.043 184.631 247.475 184.686 246.996 184.865C246.52 185.047 246.142 185.329 245.862 185.711C245.585 186.094 245.419 186.554 245.363 187.093C245.326 187.443 245.342 187.765 245.41 188.058C245.482 188.355 245.607 188.617 245.785 188.845C245.967 189.074 246.202 189.26 246.492 189.405L245.995 190.656C245.572 190.474 245.212 190.206 244.914 189.851C244.62 189.497 244.405 189.074 244.27 188.584C244.138 188.094 244.103 187.555 244.165 186.968Z" fill="#0A77F3"/>
<path d="M242.598 195.919C242.755 195.271 243.025 194.718 243.408 194.262C243.792 193.805 244.246 193.474 244.771 193.27C245.296 193.066 245.849 193.019 246.43 193.129L246.109 194.454C245.585 194.381 245.106 194.511 244.671 194.842C244.239 195.178 243.953 195.635 243.813 196.213C243.7 196.677 243.709 197.115 243.839 197.529C243.968 197.946 244.197 198.303 244.526 198.601C244.858 198.904 245.266 199.113 245.748 199.23C246.241 199.35 246.707 199.348 247.147 199.224C247.589 199.105 247.967 198.885 248.283 198.564C248.598 198.243 248.816 197.841 248.937 197.36C249.024 197.015 249.057 196.647 249.035 196.255C249.016 195.865 248.951 195.532 248.838 195.255L249.303 194.011L254.704 196.044L253.281 201.92L252.066 201.625L253.211 196.898L249.972 195.693L249.956 195.759C250.084 196.036 250.166 196.364 250.203 196.743C250.239 197.122 250.212 197.501 250.12 197.88C249.953 198.572 249.638 199.149 249.175 199.61C248.716 200.075 248.163 200.394 247.518 200.565C246.871 200.74 246.182 200.738 245.449 200.561C244.727 200.386 244.122 200.068 243.634 199.607C243.148 199.15 242.81 198.601 242.618 197.958C242.431 197.316 242.424 196.636 242.598 195.919Z" fill="#0A77F3"/>
<path d="M241.09 201.808L248.83 210.362L248.915 210.395L251.069 204.795L252.236 205.243L249.559 212.201L248.329 211.728L240.559 203.187L241.09 201.808Z" fill="#0A77F3"/>
<path d="M235.984 212.847C236.219 212.431 236.527 212.056 236.909 211.72C237.29 211.384 237.756 211.142 238.307 210.994C238.862 210.847 239.507 210.839 240.243 210.968C240.983 211.099 241.825 211.422 242.769 211.937C243.674 212.43 244.429 212.952 245.035 213.502C245.645 214.054 246.101 214.622 246.404 215.206C246.711 215.791 246.864 216.379 246.865 216.971C246.865 217.566 246.708 218.151 246.394 218.727C246.082 219.299 245.69 219.745 245.218 220.066C244.747 220.391 244.232 220.585 243.672 220.647C243.112 220.708 242.545 220.637 241.971 220.432L242.634 219.214C243.155 219.351 243.655 219.339 244.136 219.178C244.616 219.017 245.003 218.667 245.296 218.128C245.728 217.337 245.723 216.526 245.283 215.695C244.841 214.867 243.999 214.113 242.757 213.432L242.714 213.511C242.895 213.852 243.015 214.204 243.075 214.569C243.137 214.939 243.137 215.31 243.077 215.683C243.016 216.055 242.891 216.416 242.7 216.766C242.381 217.351 241.943 217.807 241.386 218.133C240.832 218.461 240.219 218.631 239.547 218.645C238.879 218.66 238.215 218.489 237.557 218.13C236.925 217.785 236.423 217.329 236.052 216.76C235.684 216.192 235.484 215.568 235.454 214.887C235.426 214.212 235.602 213.532 235.984 212.847ZM237.082 213.445C236.853 213.864 236.753 214.297 236.781 214.744C236.808 215.194 236.945 215.611 237.192 215.996C237.438 216.385 237.777 216.697 238.209 216.932C238.632 217.163 239.068 217.277 239.517 217.276C239.968 217.28 240.386 217.174 240.771 216.957C241.155 216.743 241.461 216.427 241.69 216.008C241.862 215.692 241.959 215.363 241.981 215.021C242.007 214.682 241.968 214.35 241.864 214.026C241.758 213.705 241.598 213.41 241.382 213.142C241.169 212.875 240.91 212.658 240.604 212.491C240.198 212.27 239.767 212.158 239.311 212.156C238.854 212.156 238.426 212.264 238.029 212.479C237.629 212.697 237.314 213.019 237.082 213.445Z" fill="#0A77F3"/>
<path d="M230.666 221.087C231.113 220.485 231.615 220.024 232.171 219.706C232.725 219.391 233.289 219.231 233.863 219.227C234.437 219.228 234.978 219.398 235.486 219.737L234.634 220.887C234.314 220.688 233.977 220.599 233.623 220.619C233.272 220.642 232.927 220.757 232.59 220.964C232.252 221.171 231.95 221.454 231.684 221.813C231.387 222.215 231.193 222.623 231.103 223.037C231.013 223.451 231.027 223.839 231.146 224.201C231.264 224.562 231.488 224.864 231.817 225.108C232.161 225.363 232.527 225.502 232.915 225.526C233.306 225.551 233.697 225.455 234.09 225.237C234.483 225.019 234.855 224.673 235.207 224.198L235.762 223.449L236.766 224.193L236.211 224.942C235.936 225.313 235.762 225.689 235.688 226.068C235.612 226.45 235.637 226.811 235.764 227.149C235.888 227.491 236.114 227.784 236.443 228.027C236.759 228.262 237.086 228.396 237.424 228.43C237.762 228.463 238.092 228.401 238.412 228.242C238.73 228.086 239.016 227.837 239.271 227.493C239.51 227.17 239.677 226.822 239.77 226.448C239.864 226.079 239.867 225.723 239.777 225.379C239.691 225.037 239.499 224.743 239.2 224.498L240.012 223.402C240.488 223.784 240.808 224.249 240.971 224.799C241.137 225.351 241.158 225.928 241.033 226.528C240.906 227.132 240.643 227.703 240.244 228.242C239.815 228.82 239.33 229.229 238.789 229.469C238.251 229.712 237.71 229.803 237.165 229.744C236.62 229.684 236.127 229.49 235.685 229.163C235.159 228.773 234.813 228.302 234.647 227.75C234.478 227.201 234.497 226.637 234.704 226.06L234.631 226.006C234.096 226.524 233.503 226.799 232.853 226.831C232.205 226.865 231.585 226.662 230.991 226.222C230.483 225.845 230.129 225.368 229.93 224.792C229.731 224.22 229.692 223.611 229.812 222.965C229.933 222.319 230.218 221.693 230.666 221.087Z" fill="#0A77F3"/>
<path d="M229.08 227.24L229.904 228.055L232.062 237.38L231.471 237.978L230.194 236.716L230.594 236.312L228.963 229.266L228.898 229.202L224.056 234.099L223.167 233.22L229.08 227.24ZM223.532 229.457L225.479 231.383L225.863 231.762L231.806 237.639L230.864 238.592L222.589 230.411L223.532 229.457Z" fill="#0A77F3"/>
<path d="M217.194 230.763C217.374 230.624 217.546 230.516 217.71 230.437C217.872 230.355 217.99 230.307 218.065 230.292L218.517 231.436C218.208 231.569 217.962 231.721 217.778 231.892C217.594 232.062 217.486 232.286 217.456 232.563C217.42 232.839 217.473 233.203 217.615 233.653L217.834 234.346L225.748 239.32L224.596 240.209L218.441 236.174L218.369 236.23L220.709 243.207L219.558 244.096L216.382 233.915C216.239 233.457 216.174 233.035 216.189 232.651C216.201 232.264 216.292 231.913 216.462 231.601C216.629 231.29 216.873 231.011 217.194 230.763Z" fill="#0A77F3"/>
<path d="M210.07 239.447C210.699 239.081 211.347 238.918 212.013 238.956C212.681 238.997 213.32 239.23 213.93 239.656C214.543 240.084 215.081 240.698 215.545 241.497C216.006 242.29 216.269 243.056 216.336 243.797C216.403 244.538 216.286 245.208 215.986 245.808C215.685 246.407 215.218 246.891 214.582 247.26C214.091 247.546 213.655 247.689 213.275 247.691C212.894 247.698 212.568 247.642 212.297 247.523C212.025 247.409 211.809 247.312 211.647 247.23L211.549 247.287L213.706 251.002L212.547 251.675L206.703 241.613L207.823 240.962L208.496 242.122L208.634 242.042C208.639 241.855 208.66 241.611 208.695 241.31C208.732 241.012 208.849 240.697 209.046 240.364C209.244 240.034 209.586 239.728 210.07 239.447ZM210.518 240.579C210.053 240.85 209.73 241.199 209.55 241.628C209.372 242.06 209.325 242.541 209.409 243.07C209.495 243.603 209.703 244.154 210.034 244.724C210.361 245.287 210.73 245.733 211.139 246.06C211.55 246.391 211.984 246.581 212.442 246.63C212.902 246.683 213.368 246.572 213.84 246.299C214.331 246.013 214.667 245.649 214.848 245.207C215.028 244.77 215.075 244.289 214.99 243.765C214.903 243.246 214.705 242.721 214.397 242.19C214.085 241.653 213.72 241.212 213.301 240.869C212.881 240.53 212.434 240.325 211.959 240.255C211.483 240.19 211.003 240.298 210.518 240.579Z" fill="#0A77F3"/>
<path d="M200.93 243.948C201.375 243.775 201.851 243.68 202.359 243.662C202.867 243.643 203.381 243.752 203.901 243.986C204.423 244.224 204.927 244.626 205.415 245.192C205.904 245.762 206.351 246.546 206.756 247.543C207.143 248.497 207.397 249.379 207.517 250.189C207.639 251.002 207.632 251.731 207.497 252.374C207.363 253.021 207.11 253.574 206.736 254.033C206.358 254.492 205.866 254.846 205.259 255.092C204.655 255.337 204.069 255.434 203.5 255.383C202.93 255.337 202.408 255.16 201.936 254.853C201.464 254.546 201.071 254.131 200.756 253.609L202.041 253.087C202.357 253.523 202.752 253.831 203.225 254.011C203.699 254.19 204.22 254.165 204.788 253.934C205.624 253.595 206.134 252.964 206.32 252.043C206.502 251.122 206.329 250.005 205.799 248.691L205.715 248.725C205.64 249.104 205.51 249.453 205.325 249.773C205.138 250.098 204.903 250.386 204.62 250.636C204.338 250.885 204.012 251.085 203.643 251.235C203.026 251.486 202.398 251.561 201.76 251.46C201.124 251.363 200.541 251.106 200.013 250.691C199.486 250.28 199.082 249.726 198.799 249.032C198.529 248.365 198.43 247.694 198.503 247.018C198.578 246.346 198.819 245.737 199.227 245.191C199.633 244.65 200.2 244.236 200.93 243.948ZM201.4 245.106C200.958 245.285 200.606 245.557 200.345 245.92C200.08 246.286 199.922 246.695 199.869 247.15C199.813 247.606 199.878 248.062 200.063 248.519C200.244 248.964 200.509 249.329 200.857 249.613C201.203 249.901 201.594 250.084 202.03 250.161C202.462 250.239 202.899 250.188 203.342 250.008C203.675 249.873 203.958 249.68 204.192 249.43C204.427 249.183 204.607 248.901 204.732 248.585C204.854 248.27 204.916 247.94 204.919 247.595C204.924 247.254 204.86 246.922 204.729 246.599C204.555 246.171 204.293 245.812 203.942 245.521C203.587 245.231 203.188 245.044 202.744 244.958C202.297 244.874 201.849 244.923 201.4 245.106Z" fill="#0A77F3"/>
<path d="M191.636 246.939C192.364 246.755 193.043 246.717 193.676 246.823C194.304 246.931 194.842 247.165 195.288 247.525C195.731 247.89 196.042 248.364 196.22 248.948L194.832 249.298C194.711 248.942 194.507 248.659 194.22 248.45C193.934 248.245 193.595 248.115 193.202 248.062C192.81 248.008 192.397 248.036 191.964 248.145C191.479 248.267 191.07 248.46 190.738 248.723C190.406 248.987 190.171 249.296 190.034 249.651C189.897 250.005 189.878 250.381 189.978 250.778C190.083 251.193 190.278 251.533 190.563 251.797C190.849 252.064 191.213 252.238 191.655 252.318C192.097 252.399 192.605 252.366 193.178 252.222L194.081 251.995L194.387 253.207L193.483 253.434C193.035 253.547 192.662 253.727 192.365 253.974C192.064 254.221 191.855 254.516 191.738 254.858C191.617 255.201 191.607 255.571 191.707 255.967C191.803 256.349 191.971 256.661 192.211 256.901C192.452 257.141 192.746 257.301 193.094 257.382C193.439 257.463 193.819 257.451 194.234 257.347C194.623 257.249 194.972 257.084 195.282 256.854C195.588 256.629 195.816 256.355 195.965 256.032C196.115 255.713 196.152 255.364 196.076 254.984L197.399 254.651C197.526 255.248 197.478 255.811 197.255 256.34C197.034 256.872 196.685 257.331 196.208 257.717C195.727 258.103 195.162 258.379 194.511 258.542C193.814 258.718 193.179 258.727 192.608 258.57C192.039 258.417 191.562 258.145 191.178 257.753C190.794 257.361 190.535 256.899 190.401 256.367C190.241 255.731 190.272 255.147 190.493 254.615C190.711 254.083 191.083 253.66 191.609 253.344L191.586 253.256C190.844 253.318 190.211 253.155 189.688 252.767C189.166 252.383 188.814 251.833 188.634 251.116C188.479 250.503 188.508 249.91 188.719 249.337C188.927 248.769 189.283 248.273 189.786 247.85C190.289 247.426 190.905 247.123 191.636 246.939Z" fill="#0A77F3"/>
<path d="M185.517 248.377L181.51 259.195L181.52 259.285L187.481 258.607L187.623 259.849L180.216 260.692L180.067 259.382L184.05 248.544L185.517 248.377Z" fill="#0A77F3"/>
<path d="M177.03 249.196L177.011 250.218L173.093 254.35C172.633 254.834 172.254 255.255 171.955 255.613C171.657 255.975 171.434 256.316 171.288 256.635C171.138 256.958 171.06 257.298 171.053 257.654C171.046 258.063 171.138 258.419 171.329 258.722C171.516 259.024 171.777 259.26 172.111 259.429C172.445 259.599 172.822 259.687 173.243 259.695C173.69 259.703 174.082 259.618 174.418 259.438C174.751 259.263 175.012 259.012 175.2 258.686C175.384 258.36 175.48 257.975 175.488 257.532L176.829 257.557C176.816 258.239 176.648 258.834 176.324 259.343C176 259.853 175.564 260.246 175.017 260.524C174.467 260.801 173.852 260.934 173.174 260.921C172.493 260.908 171.891 260.753 171.37 260.456C170.849 260.158 170.444 259.762 170.154 259.268C169.864 258.774 169.724 258.227 169.735 257.629C169.743 257.201 169.829 256.784 169.992 256.378C170.151 255.976 170.424 255.528 170.812 255.035C171.197 254.546 171.729 253.95 172.409 253.246L175.074 250.5L175.076 250.409L169.668 250.308L169.691 249.059L177.03 249.196Z" fill="#0A77F3"/>
<path d="M163.53 248.056C164.271 248.175 164.91 248.407 165.45 248.755C165.985 249.101 166.386 249.528 166.654 250.035C166.918 250.545 167.017 251.104 166.95 251.711L165.536 251.484C165.566 251.109 165.49 250.769 165.308 250.464C165.126 250.162 164.866 249.91 164.526 249.706C164.187 249.502 163.796 249.365 163.355 249.294C162.861 249.215 162.41 249.231 162.001 249.342C161.592 249.453 161.254 249.645 160.988 249.917C160.722 250.189 160.557 250.527 160.492 250.931C160.425 251.353 160.47 251.742 160.628 252.097C160.785 252.456 161.051 252.76 161.426 253.008C161.801 253.255 162.28 253.426 162.863 253.519L163.783 253.667L163.586 254.901L162.666 254.754C162.209 254.681 161.796 254.699 161.426 254.808C161.051 254.917 160.743 255.106 160.501 255.374C160.255 255.642 160.099 255.977 160.035 256.381C159.972 256.77 160.004 257.122 160.13 257.438C160.256 257.754 160.463 258.017 160.752 258.228C161.037 258.438 161.39 258.578 161.813 258.645C162.209 258.709 162.595 258.695 162.97 258.606C163.341 258.519 163.658 258.357 163.922 258.12C164.186 257.886 164.358 257.579 164.438 257.201L165.784 257.416C165.665 258.015 165.4 258.513 164.987 258.911C164.573 259.313 164.071 259.597 163.481 259.764C162.887 259.929 162.259 259.959 161.597 259.853C160.886 259.74 160.299 259.498 159.837 259.129C159.373 258.763 159.043 258.325 158.844 257.813C158.646 257.302 158.591 256.775 158.677 256.233C158.781 255.586 159.039 255.062 159.453 254.66C159.862 254.257 160.371 254.014 160.979 253.931L160.993 253.842C160.287 253.606 159.77 253.207 159.441 252.644C159.113 252.085 159.007 251.441 159.123 250.712C159.223 250.087 159.483 249.553 159.903 249.11C160.319 248.67 160.841 248.355 161.47 248.164C162.099 247.973 162.786 247.937 163.53 248.056Z" fill="#0A77F3"/>
<path d="M154.38 245.894C155.017 246.089 155.553 246.391 155.986 246.8C156.42 247.21 156.723 247.682 156.896 248.218C157.07 248.754 157.085 249.309 156.941 249.883L155.637 249.485C155.74 248.966 155.638 248.48 155.333 248.027C155.023 247.576 154.584 247.264 154.015 247.09C153.558 246.951 153.12 246.934 152.7 247.04C152.276 247.144 151.906 247.352 151.589 247.663C151.267 247.977 151.034 248.371 150.89 248.846C150.742 249.331 150.716 249.797 150.814 250.242C150.907 250.691 151.105 251.082 151.407 251.415C151.709 251.749 152.097 251.99 152.571 252.138C152.91 252.246 153.276 252.3 153.668 252.301C154.058 252.305 154.395 252.259 154.678 252.163L155.892 252.7L153.548 257.973L147.765 256.209L148.13 255.014L152.782 256.432L154.174 253.269L154.109 253.249C153.826 253.361 153.493 253.424 153.113 253.438C152.732 253.453 152.355 253.403 151.982 253.289C151.301 253.082 150.744 252.734 150.311 252.245C149.873 251.759 149.587 251.189 149.454 250.535C149.317 249.879 149.359 249.191 149.579 248.47C149.795 247.76 150.148 247.174 150.637 246.713C151.121 246.255 151.69 245.949 152.342 245.796C152.994 245.646 153.673 245.679 154.38 245.894Z" fill="#0A77F3"/>
<path d="M148.153 246.511L147.664 247.561L139.614 252.739L138.851 252.384L139.609 250.756L140.124 250.996L146.207 247.084L146.245 247.001L140.002 244.095L140.529 242.962L148.153 246.511ZM144.194 242.036L143.039 244.519L142.811 245.008L139.284 252.585L138.068 252.019L142.979 241.47L144.194 242.036Z" fill="#0A77F3"/>
<path d="M136.812 237.636C137.372 237.998 137.804 238.436 138.108 238.949C138.412 239.462 138.573 240 138.592 240.563C138.611 241.126 138.473 241.663 138.177 242.176L137.033 241.434C137.274 240.964 137.311 240.468 137.142 239.948C136.968 239.429 136.632 239.008 136.133 238.685C135.732 238.425 135.315 238.289 134.882 238.274C134.446 238.258 134.033 238.356 133.643 238.568C133.247 238.781 132.915 239.096 132.645 239.512C132.369 239.938 132.217 240.379 132.188 240.834C132.154 241.291 132.236 241.721 132.435 242.125C132.634 242.529 132.94 242.868 133.355 243.141C133.651 243.337 133.988 243.49 134.364 243.598C134.739 243.71 135.075 243.759 135.373 243.744L136.393 244.595L132.688 249.018L127.614 245.731L128.294 244.682L132.376 247.327L134.585 244.669L134.528 244.632C134.225 244.661 133.888 244.63 133.518 244.539C133.148 244.449 132.799 244.297 132.472 244.085C131.874 243.698 131.434 243.21 131.152 242.621C130.865 242.033 130.748 241.407 130.8 240.741C130.849 240.073 131.078 239.423 131.488 238.79C131.892 238.167 132.392 237.701 132.989 237.393C133.581 237.086 134.211 236.948 134.881 236.98C135.549 237.016 136.192 237.234 136.812 237.636Z" fill="#0A77F3"/>
<path d="M130.444 233.237L126.579 241.501L125.532 240.558L128.602 234.331L128.535 234.27L122.678 237.988L121.614 237.029L124.703 230.849L124.635 230.789L118.777 234.474L117.73 233.531L125.546 228.826L126.526 229.708L123.458 235.968L123.559 236.059L129.464 232.355L130.444 233.237Z" fill="#0A77F3"/>
<path d="M120.894 227.423L119.988 228.146L110.473 229.188L109.949 228.53L111.354 227.411L111.708 227.856L118.897 227.068L118.968 227.011L114.677 221.625L115.654 220.847L120.894 227.423ZM119.348 221.653L117.206 223.359L116.784 223.695L110.247 228.903L109.411 227.855L118.512 220.604L119.348 221.653Z" fill="#0A77F3"/>
<path d="M116.244 217.32L104.734 218.095L104.655 218.142L107.716 223.302L106.641 223.94L102.838 217.528L103.972 216.856L115.49 216.05L116.244 217.32Z" fill="#0A77F3"/>
<path d="M102.539 210.035L103.569 209.555L105.556 213.819L104.526 214.299L102.539 210.035ZM111.841 209.336L102.839 213.531C102.386 213.742 101.958 213.812 101.557 213.739C101.156 213.667 100.8 213.497 100.491 213.227C100.181 212.958 99.9386 212.634 99.7626 212.256C99.6234 211.958 99.5339 211.703 99.4939 211.491C99.454 211.28 99.4331 211.119 99.4311 211.007L100.645 210.867C100.653 210.939 100.667 211.037 100.688 211.161C100.706 211.282 100.756 211.43 100.838 211.605C101.025 212.006 101.262 212.249 101.547 212.334C101.832 212.414 102.169 212.363 102.561 212.181L111.275 208.121L111.841 209.336Z" fill="#0A77F3"/>
<path d="M107.857 206.476L106.759 206.849L97.4523 204.615L97.1814 203.819L98.8811 203.24L99.0641 203.778L106.097 205.466L106.183 205.437L103.964 198.918L105.147 198.515L107.857 206.476ZM108.351 200.522L105.758 201.404L105.247 201.578L97.3351 204.271L96.9031 203.001L107.919 199.252L108.351 200.522Z" fill="#0A77F3"/>
<path d="M94.2378 194.328L108.649 195.02L108.911 196.219L94.4995 195.527L94.2378 194.328Z" fill="#0A77F3"/>
<path d="M100.537 188.446L98.0439 188.65L99.624 190.591L98.7403 191.245L97.3273 189.17L96.4382 191.518L95.4261 191.088L96.5091 188.832L94.0372 189.216L93.9089 188.132L96.4022 187.929L94.8221 185.988L95.7058 185.334L97.1188 187.409L98.0079 185.061L99.02 185.49L97.937 187.747L100.409 187.363L100.537 188.446Z" fill="#0A77F3"/>
<path d="M92.8402 178.376L106.848 181.831L106.874 183.058L92.8661 179.603L92.8402 178.376Z" fill="#0A77F3"/>
<path d="M100.153 173.931L97.6672 173.65L98.843 175.859L97.8496 176.33L96.8638 174.021L95.5382 176.154L94.628 175.537L96.1263 173.532L93.6266 173.432L93.7099 172.344L96.1956 172.625L95.0199 170.415L96.0133 169.944L96.9991 172.254L98.3247 170.121L99.2348 170.738L97.7366 172.743L100.236 172.843L100.153 173.931Z" fill="#0A77F3"/>
<path d="M101.226 162.741L102.454 162.972L101.515 167.975L100.286 167.745L101.226 162.741Z" fill="#0A77F3"/>
<path d="M96.7261 154.314L109.09 161.751L108.752 162.931L96.3886 155.494L96.7261 154.314Z" fill="#0A77F3"/>
<path d="M106.593 155.489L105.521 155.048L99.9823 147.242L100.302 146.464L101.963 147.147L101.747 147.672L105.932 153.57L106.016 153.605L108.635 147.236L109.791 147.711L106.593 155.489ZM110.883 151.33L108.35 150.289L107.851 150.084L100.121 146.905L100.631 145.665L111.393 150.09L110.883 151.33Z" fill="#0A77F3"/>
<path d="M104.683 137.92L114.859 143.564L114.175 144.796L105.291 139.869L105.258 139.928L105.53 143.328L104.278 142.633L103.999 139.152L104.683 137.92Z" fill="#0A77F3"/>
<path d="M113.951 140.34L113.01 139.662L109.436 130.783L109.928 130.101L111.385 131.151L111.052 131.612L113.753 138.321L113.827 138.374L117.853 132.787L118.867 133.518L113.951 140.34ZM119.089 137.292L116.867 135.69L116.429 135.375L109.649 130.488L110.433 129.4L119.873 136.204L119.089 137.292Z" fill="#0A77F3"/>
<path d="M122.161 133.379L121.424 132.671L121.053 126.988C121.01 126.322 120.959 125.757 120.899 125.295C120.836 124.83 120.737 124.436 120.602 124.112C120.467 123.782 120.271 123.494 120.014 123.247C119.719 122.964 119.396 122.79 119.043 122.724C118.694 122.656 118.343 122.687 117.992 122.818C117.641 122.948 117.32 123.164 117.029 123.468C116.719 123.79 116.516 124.136 116.419 124.505C116.321 124.868 116.329 125.23 116.44 125.589C116.555 125.946 116.771 126.278 117.091 126.585L116.162 127.552C115.67 127.079 115.348 126.551 115.194 125.968C115.04 125.384 115.047 124.797 115.215 124.207C115.386 123.614 115.706 123.073 116.175 122.585C116.648 122.093 117.17 121.757 117.743 121.577C118.315 121.397 118.881 121.368 119.441 121.491C120 121.613 120.496 121.882 120.928 122.297C121.236 122.593 121.484 122.939 121.672 123.335C121.859 123.725 122.001 124.23 122.1 124.849C122.198 125.464 122.274 126.259 122.328 127.236L122.533 131.057L122.598 131.12L126.346 127.22L127.247 128.086L122.161 133.379Z" fill="#0A77F3"/>
<path d="M132.132 124.266C131.542 124.73 130.937 125.043 130.317 125.203C129.699 125.362 129.113 125.368 128.559 125.221C128.005 125.069 127.528 124.762 127.127 124.302L128.251 123.416C128.507 123.692 128.809 123.867 129.156 123.941C129.501 124.011 129.864 123.991 130.244 123.88C130.624 123.769 130.989 123.575 131.34 123.298C131.733 122.989 132.028 122.646 132.223 122.27C132.419 121.894 132.507 121.516 132.488 121.137C132.468 120.757 132.332 120.406 132.079 120.084C131.814 119.748 131.497 119.518 131.129 119.393C130.759 119.265 130.355 119.255 129.919 119.362C129.483 119.47 129.033 119.706 128.568 120.072L127.836 120.648L127.063 119.666L127.795 119.089C128.158 118.804 128.425 118.487 128.596 118.141C128.769 117.792 128.84 117.438 128.807 117.078C128.777 116.715 128.636 116.373 128.383 116.052C128.139 115.743 127.859 115.527 127.541 115.406C127.224 115.284 126.89 115.258 126.539 115.327C126.191 115.394 125.849 115.559 125.513 115.824C125.198 116.072 124.946 116.365 124.757 116.701C124.57 117.032 124.474 117.375 124.469 117.731C124.462 118.083 124.571 118.417 124.795 118.733L123.724 119.576C123.364 119.083 123.178 118.55 123.165 117.976C123.15 117.4 123.282 116.839 123.56 116.292C123.841 115.743 124.245 115.261 124.772 114.846C125.337 114.401 125.912 114.133 126.498 114.044C127.08 113.951 127.627 114.005 128.137 114.206C128.647 114.407 129.072 114.723 129.412 115.155C129.817 115.67 130.028 116.215 130.043 116.792C130.061 117.366 129.894 117.904 129.543 118.407L129.599 118.479C130.252 118.119 130.896 118.01 131.532 118.15C132.166 118.288 132.711 118.646 133.168 119.227C133.559 119.724 133.775 120.277 133.816 120.886C133.858 121.49 133.735 122.087 133.449 122.679C133.163 123.271 132.724 123.8 132.132 124.266Z" fill="#0A77F3"/>
<path d="M135.279 118.749L134.699 117.745L135.081 108.182L135.809 107.761L136.707 109.316L136.215 109.6L135.927 116.826L135.972 116.905L141.936 113.461L142.561 114.544L135.279 118.749ZM141.216 118.076L139.846 115.705L139.576 115.237L135.396 108L136.557 107.329L142.377 117.406L141.216 118.076Z" fill="#0A77F3"/>
<path d="M149.084 114.555C148.465 114.804 147.859 114.905 147.264 114.859C146.67 114.812 146.137 114.634 145.666 114.326C145.195 114.017 144.835 113.594 144.586 113.058L145.851 112.549C146.097 113.017 146.481 113.332 147.003 113.494C147.527 113.65 148.065 113.618 148.617 113.396C149.06 113.218 149.412 112.956 149.673 112.61C149.937 112.262 150.095 111.868 150.146 111.427C150.2 110.981 150.134 110.528 149.949 110.068C149.759 109.597 149.487 109.218 149.131 108.933C148.777 108.642 148.378 108.462 147.933 108.392C147.489 108.322 147.035 108.377 146.574 108.559C146.242 108.688 145.923 108.876 145.618 109.121C145.311 109.363 145.077 109.61 144.917 109.862L143.635 110.206L142.151 104.63L147.76 102.374L148.227 103.534L143.714 105.349L144.616 108.685L144.679 108.66C144.83 108.395 145.048 108.137 145.336 107.887C145.623 107.637 145.947 107.439 146.309 107.293C146.97 107.028 147.622 106.949 148.266 107.057C148.912 107.161 149.492 107.426 150.006 107.852C150.524 108.276 150.924 108.838 151.205 109.538C151.482 110.226 151.575 110.904 151.483 111.569C151.394 112.23 151.143 112.825 150.732 113.354C150.318 113.879 149.769 114.28 149.084 114.555Z" fill="#0A77F3"/>
<path d="M158.128 111.656C157.663 111.765 157.178 111.793 156.673 111.74C156.168 111.688 155.674 111.509 155.191 111.205C154.707 110.897 154.263 110.428 153.859 109.8C153.454 109.167 153.121 108.329 152.858 107.286C152.607 106.287 152.478 105.378 152.472 104.559C152.464 103.737 152.572 103.017 152.795 102.398C153.018 101.776 153.346 101.264 153.78 100.862C154.218 100.459 154.754 100.177 155.39 100.018C156.022 99.8587 156.616 99.8442 157.172 99.9739C157.73 100.099 158.222 100.346 158.647 100.716C159.072 101.086 159.404 101.551 159.642 102.112L158.298 102.45C158.046 101.975 157.697 101.615 157.253 101.371C156.809 101.127 156.29 101.08 155.695 101.23C154.82 101.45 154.227 102.003 153.915 102.89C153.607 103.776 153.623 104.906 153.965 106.281L154.053 106.259C154.18 105.895 154.358 105.567 154.585 105.276C154.815 104.98 155.088 104.728 155.403 104.52C155.717 104.312 156.068 104.159 156.453 104.062C157.1 103.9 157.732 103.913 158.35 104.101C158.966 104.286 159.507 104.62 159.973 105.105C160.438 105.586 160.761 106.19 160.944 106.917C161.12 107.615 161.124 108.293 160.958 108.952C160.791 109.608 160.467 110.177 159.987 110.661C159.51 111.14 158.89 111.472 158.128 111.656ZM157.823 110.443C158.286 110.327 158.672 110.107 158.981 109.783C159.294 109.458 159.508 109.075 159.623 108.632C159.742 108.188 159.742 107.727 159.622 107.249C159.504 106.783 159.293 106.385 158.988 106.056C158.685 105.722 158.323 105.486 157.902 105.35C157.485 105.213 157.045 105.202 156.582 105.319C156.233 105.406 155.925 105.558 155.659 105.773C155.392 105.985 155.175 106.239 155.007 106.535C154.843 106.83 154.735 107.148 154.684 107.489C154.633 107.826 154.649 108.164 154.734 108.502C154.847 108.95 155.057 109.342 155.364 109.679C155.675 110.015 156.044 110.256 156.471 110.402C156.903 110.548 157.353 110.562 157.823 110.443Z" fill="#0A77F3"/>
<path d="M169.352 102.8L168.195 103.279C168.097 103.089 167.963 102.908 167.794 102.737C167.629 102.562 167.414 102.427 167.152 102.332C166.889 102.237 166.563 102.212 166.176 102.258C165.646 102.32 165.218 102.494 164.893 102.78C164.571 103.062 164.432 103.389 164.476 103.762C164.515 104.093 164.666 104.34 164.929 104.504C165.193 104.667 165.588 104.783 166.114 104.851L167.438 105.016C168.235 105.113 168.846 105.333 169.272 105.676C169.697 106.015 169.945 106.487 170.016 107.093C170.074 107.589 169.984 108.05 169.744 108.475C169.507 108.899 169.149 109.254 168.667 109.54C168.186 109.825 167.609 110.007 166.935 110.086C166.051 110.19 165.297 110.084 164.672 109.768C164.048 109.453 163.615 108.935 163.375 108.216L164.601 107.752C164.777 108.204 165.045 108.527 165.408 108.721C165.773 108.914 166.229 108.979 166.775 108.915C167.395 108.842 167.873 108.653 168.207 108.346C168.544 108.036 168.691 107.695 168.647 107.322C168.612 107.021 168.477 106.782 168.242 106.603C168.007 106.421 167.666 106.305 167.217 106.254L165.733 106.085C164.917 105.991 164.3 105.768 163.881 105.416C163.465 105.061 163.223 104.584 163.152 103.986C163.095 103.497 163.181 103.048 163.412 102.64C163.646 102.231 163.989 101.891 164.442 101.62C164.898 101.349 165.431 101.178 166.041 101.107C166.899 101.006 167.594 101.115 168.127 101.434C168.664 101.752 169.072 102.207 169.352 102.8Z" fill="#0A77F3"/>
<path d="M172.6 109.437L177.807 99.1425L177.807 99.0516L171.807 99.0501L171.808 97.8001L179.262 97.802L179.262 99.1201L174.078 109.437L172.6 109.437Z" fill="#0A77F3"/>
<path d="M184.022 110.209C183.187 110.104 182.491 109.829 181.932 109.385C181.378 108.937 180.979 108.36 180.736 107.654C180.497 106.944 180.433 106.146 180.544 105.259C180.656 104.372 180.916 103.611 181.324 102.975C181.737 102.336 182.258 101.863 182.889 101.557C183.523 101.247 184.231 101.142 185.013 101.24C185.464 101.297 185.9 101.428 186.321 101.634C186.742 101.839 187.111 102.134 187.429 102.518C187.748 102.898 187.98 103.377 188.124 103.957C188.269 104.536 188.291 105.23 188.189 106.038L188.118 106.602L181.443 105.762L181.588 104.612L186.91 105.281C186.971 104.793 186.928 104.344 186.781 103.937C186.638 103.529 186.401 103.192 186.072 102.925C185.747 102.659 185.344 102.496 184.863 102.435C184.333 102.369 183.858 102.442 183.438 102.657C183.022 102.868 182.684 103.169 182.425 103.56C182.166 103.951 182.006 104.385 181.946 104.863L181.849 105.629C181.767 106.283 181.81 106.852 181.978 107.335C182.151 107.815 182.425 108.199 182.801 108.487C183.178 108.771 183.635 108.946 184.172 109.014C184.522 109.058 184.843 109.049 185.138 108.987C185.436 108.921 185.701 108.802 185.933 108.629C186.165 108.452 186.357 108.22 186.507 107.934L187.747 108.456C187.557 108.875 187.281 109.23 186.92 109.52C186.56 109.807 186.133 110.013 185.64 110.138C185.147 110.259 184.608 110.283 184.022 110.209Z" fill="#0A77F3"/>
<path d="M189.431 110.935L191.452 102.446L192.712 102.746L192.407 104.028L192.495 104.049C192.75 103.666 193.112 103.392 193.579 103.227C194.047 103.061 194.535 103.039 195.043 103.161C195.139 103.183 195.258 103.214 195.401 103.252C195.544 103.29 195.652 103.321 195.723 103.346L195.408 104.672C195.366 104.651 195.269 104.61 195.115 104.55C194.967 104.488 194.806 104.436 194.633 104.394C194.22 104.296 193.831 104.295 193.465 104.391C193.104 104.484 192.794 104.659 192.534 104.917C192.279 105.171 192.106 105.49 192.014 105.874L190.735 111.246L189.431 110.935Z" fill="#0A77F3"/>
<path d="M198.684 113.776C197.95 113.511 197.349 113.147 196.88 112.683C196.416 112.218 196.11 111.698 195.963 111.126C195.817 110.549 195.852 109.966 196.069 109.376C196.233 108.911 196.479 108.517 196.805 108.192C197.134 107.863 197.506 107.625 197.921 107.477C198.342 107.327 198.765 107.289 199.19 107.362L199.213 107.298C198.738 106.973 198.427 106.529 198.281 105.964C198.136 105.396 198.17 104.822 198.383 104.243C198.58 103.686 198.901 103.24 199.344 102.905C199.787 102.569 200.304 102.365 200.894 102.293C201.488 102.221 202.105 102.301 202.747 102.533C203.381 102.762 203.901 103.093 204.309 103.527C204.716 103.96 204.983 104.447 205.11 104.988C205.24 105.53 205.207 106.08 205.009 106.637C204.796 107.217 204.45 107.678 203.972 108.02C203.499 108.361 202.981 108.506 202.419 108.456L202.396 108.52C202.765 108.734 203.061 109.032 203.281 109.414C203.503 109.792 203.637 110.213 203.683 110.677C203.73 111.137 203.672 111.599 203.508 112.063C203.291 112.654 202.94 113.123 202.455 113.471C201.976 113.818 201.409 114.022 200.754 114.083C200.105 114.142 199.415 114.04 198.684 113.776ZM199.109 112.601C199.604 112.78 200.061 112.854 200.478 112.824C200.896 112.793 201.256 112.667 201.557 112.446C201.859 112.225 202.082 111.919 202.227 111.528C202.373 111.114 202.398 110.71 202.302 110.317C202.207 109.924 202.01 109.571 201.712 109.258C201.418 108.946 201.04 108.707 200.576 108.539C200.11 108.371 199.66 108.311 199.228 108.36C198.799 108.411 198.422 108.556 198.097 108.797C197.776 109.04 197.542 109.368 197.397 109.783C197.251 110.173 197.222 110.55 197.309 110.911C197.399 111.274 197.597 111.601 197.903 111.893C198.208 112.185 198.61 112.42 199.109 112.601ZM200.986 107.407C201.378 107.548 201.753 107.595 202.113 107.548C202.476 107.502 202.795 107.37 203.072 107.151C203.348 106.933 203.556 106.636 203.696 106.259C203.826 105.888 203.856 105.534 203.784 105.197C203.713 104.858 203.553 104.558 203.305 104.299C203.057 104.037 202.732 103.833 202.33 103.687C201.92 103.539 201.534 103.487 201.172 103.529C200.812 103.568 200.498 103.696 200.23 103.914C199.964 104.127 199.765 104.42 199.635 104.792C199.495 105.168 199.459 105.528 199.529 105.871C199.602 106.216 199.763 106.522 200.013 106.789C200.262 107.057 200.587 107.262 200.986 107.407Z" fill="#0A77F3"/>
<path d="M207.74 117.821C207.077 117.471 206.546 117.045 206.147 116.543C205.751 116.043 205.508 115.51 205.417 114.943C205.332 114.376 205.418 113.815 205.676 113.262L206.942 113.93C206.794 114.276 206.756 114.622 206.83 114.97C206.905 115.314 207.071 115.637 207.327 115.939C207.583 116.241 207.908 116.497 208.304 116.705C208.746 116.939 209.178 117.069 209.601 117.095C210.024 117.122 210.405 117.049 210.745 116.877C211.084 116.705 211.349 116.438 211.54 116.076C211.74 115.698 211.822 115.315 211.787 114.928C211.753 114.537 211.599 114.164 211.324 113.809C211.049 113.454 210.65 113.138 210.128 112.863L209.304 112.427L209.887 111.322L210.711 111.757C211.12 111.973 211.517 112.089 211.903 112.104C212.293 112.121 212.645 112.042 212.961 111.866C213.28 111.692 213.535 111.424 213.726 111.062C213.91 110.713 213.993 110.37 213.975 110.03C213.957 109.691 213.846 109.375 213.64 109.083C213.438 108.792 213.148 108.546 212.77 108.346C212.415 108.159 212.045 108.047 211.661 108.012C211.283 107.974 210.93 108.026 210.603 108.166C210.278 108.303 210.017 108.538 209.82 108.87L208.614 108.234C208.919 107.705 209.331 107.318 209.85 107.074C210.37 106.826 210.937 106.719 211.55 106.751C212.166 106.785 212.77 106.959 213.363 107.272C213.999 107.608 214.477 108.025 214.797 108.524C215.118 109.019 215.29 109.54 215.313 110.088C215.337 110.636 215.22 111.153 214.964 111.638C214.658 112.218 214.244 112.631 213.724 112.879C213.206 113.128 212.647 113.195 212.044 113.078L212.002 113.158C212.595 113.609 212.956 114.153 213.086 114.791C213.218 115.426 213.111 116.07 212.766 116.724C212.471 117.283 212.053 117.705 211.513 117.989C210.978 118.272 210.382 118.403 209.725 118.382C209.068 118.36 208.406 118.173 207.74 117.821Z" fill="#0A77F3"/>
<path d="M214.056 118.455L214.736 117.517L223.627 113.971L224.307 114.465L223.253 115.918L222.793 115.585L216.076 118.264L216.022 118.338L221.596 122.382L220.862 123.393L214.056 118.455ZM217.088 123.603L218.696 121.387L219.013 120.95L223.921 114.185L225.006 114.972L218.173 124.391L217.088 123.603Z" fill="#0A77F3"/>
<path d="M223.492 129.328C223.012 128.866 222.672 128.354 222.471 127.792C222.271 127.231 222.215 126.672 222.303 126.116C222.392 125.56 222.631 125.058 223.019 124.612L224.001 125.558C223.674 125.974 223.543 126.453 223.61 126.995C223.681 127.538 223.931 128.016 224.36 128.428C224.703 128.759 225.086 128.973 225.509 129.07C225.934 129.169 226.358 129.152 226.782 129.018C227.21 128.884 227.597 128.638 227.941 128.281C228.293 127.915 228.527 127.512 228.642 127.07C228.762 126.629 228.764 126.191 228.646 125.756C228.528 125.322 228.291 124.931 227.937 124.584C227.683 124.334 227.382 124.12 227.033 123.942C226.686 123.761 226.366 123.649 226.07 123.606L225.231 122.577L229.712 118.941L234.066 123.136L233.199 124.036L229.696 120.662L227.02 122.849L227.069 122.897C227.373 122.926 227.697 123.02 228.043 123.18C228.389 123.339 228.702 123.555 228.983 123.825C229.496 124.319 229.835 124.882 229.999 125.514C230.169 126.146 230.165 126.784 229.987 127.427C229.811 128.073 229.462 128.668 228.939 129.211C228.424 129.745 227.844 130.107 227.199 130.296C226.56 130.485 225.915 130.499 225.263 130.34C224.615 130.178 224.024 129.841 223.492 129.328Z" fill="#0A77F3"/>
<path d="M229.909 136.479C229.445 135.89 229.132 135.285 228.971 134.664C228.812 134.047 228.806 133.461 228.952 132.906C229.104 132.353 229.41 131.875 229.87 131.474L230.757 132.598C230.481 132.854 230.306 133.156 230.233 133.503C230.162 133.848 230.183 134.21 230.294 134.59C230.406 134.97 230.6 135.336 230.877 135.687C231.186 136.08 231.529 136.374 231.905 136.569C232.281 136.765 232.659 136.853 233.039 136.833C233.419 136.813 233.769 136.677 234.091 136.423C234.427 136.158 234.657 135.842 234.782 135.473C234.909 135.103 234.919 134.699 234.812 134.263C234.704 133.827 234.467 133.377 234.101 132.913L233.525 132.181L234.506 131.407L235.083 132.139C235.369 132.502 235.686 132.769 236.032 132.939C236.381 133.113 236.736 133.183 237.096 133.15C237.458 133.12 237.8 132.978 238.121 132.725C238.43 132.481 238.645 132.2 238.767 131.883C238.888 131.566 238.914 131.232 238.845 130.881C238.778 130.533 238.612 130.191 238.347 129.855C238.099 129.54 237.806 129.288 237.47 129.1C237.139 128.912 236.795 128.816 236.44 128.812C236.087 128.805 235.753 128.914 235.438 129.139L234.594 128.068C235.087 127.708 235.62 127.522 236.193 127.509C236.77 127.493 237.331 127.624 237.878 127.902C238.428 128.183 238.91 128.587 239.325 129.113C239.771 129.678 240.038 130.253 240.128 130.839C240.221 131.421 240.167 131.968 239.967 132.478C239.766 132.988 239.45 133.414 239.019 133.754C238.504 134.159 237.959 134.37 237.382 134.385C236.808 134.404 236.27 134.238 235.766 133.887L235.695 133.943C236.055 134.595 236.165 135.239 236.025 135.875C235.888 136.509 235.529 137.055 234.949 137.512C234.452 137.904 233.899 138.12 233.29 138.161C232.687 138.203 232.089 138.081 231.497 137.795C230.905 137.509 230.376 137.071 229.909 136.479Z" fill="#0A77F3"/>
<path d="M235.428 139.622L236.431 139.042L245.995 139.418L246.416 140.146L244.862 141.045L244.577 140.553L237.351 140.269L237.272 140.315L240.72 146.276L239.638 146.902L235.428 139.622ZM236.104 145.559L238.475 144.188L238.942 143.917L246.177 139.733L246.849 140.894L236.775 146.719L236.104 145.559Z" fill="#0A77F3"/>
<path d="M239.665 153.515C239.376 152.79 239.248 152.099 239.283 151.44C239.323 150.784 239.508 150.211 239.838 149.72C240.171 149.228 240.631 148.867 241.216 148.637C241.672 148.451 242.13 148.372 242.59 148.4C243.053 148.427 243.479 148.547 243.865 148.759C244.257 148.974 244.567 149.264 244.795 149.63L244.858 149.605C244.785 149.034 244.911 148.507 245.235 148.022C245.563 147.536 246.014 147.181 246.589 146.955C247.137 146.732 247.683 146.675 248.228 146.784C248.773 146.892 249.269 147.143 249.715 147.535C250.163 147.932 250.514 148.446 250.767 149.079C251.017 149.706 251.115 150.315 251.062 150.907C251.009 151.499 250.823 152.022 250.502 152.477C250.184 152.934 249.751 153.275 249.203 153.498C248.629 153.723 248.054 153.771 247.48 153.641C246.911 153.514 246.459 153.224 246.123 152.77L246.059 152.796C246.145 153.214 246.119 153.633 245.98 154.051C245.845 154.468 245.619 154.848 245.303 155.19C244.991 155.531 244.606 155.795 244.151 155.981C243.565 156.211 242.981 156.261 242.399 156.13C241.822 156.002 241.292 155.714 240.811 155.266C240.335 154.82 239.953 154.236 239.665 153.515ZM240.826 153.051C241.021 153.54 241.269 153.931 241.569 154.223C241.87 154.515 242.203 154.7 242.568 154.778C242.934 154.856 243.311 154.82 243.699 154.669C244.106 154.502 244.424 154.253 244.655 153.92C244.885 153.587 245.018 153.206 245.054 152.775C245.091 152.348 245.019 151.906 244.836 151.449C244.652 150.988 244.398 150.612 244.074 150.322C243.751 150.035 243.392 149.85 242.996 149.767C242.601 149.689 242.2 149.732 241.794 149.899C241.405 150.05 241.105 150.278 240.892 150.583C240.681 150.892 240.568 151.257 240.553 151.679C240.538 152.101 240.629 152.559 240.826 153.051ZM245.955 151.002C246.109 151.389 246.324 151.701 246.598 151.938C246.873 152.179 247.185 152.33 247.531 152.391C247.878 152.452 248.239 152.41 248.613 152.265C248.977 152.115 249.261 151.902 249.465 151.625C249.672 151.346 249.789 151.028 249.817 150.67C249.849 150.311 249.786 149.932 249.627 149.535C249.465 149.13 249.248 148.807 248.976 148.565C248.708 148.321 248.403 148.172 248.063 148.116C247.726 148.059 247.375 148.105 247.011 148.255C246.636 148.4 246.344 148.613 246.134 148.893C245.925 149.176 245.803 149.5 245.769 149.865C245.735 150.229 245.797 150.608 245.955 151.002Z" fill="#0A77F3"/>
<path d="M241.924 159.416L253.184 161.923L253.272 161.901L251.794 156.086L253.006 155.778L254.842 163.002L253.565 163.327L242.288 160.847L241.924 159.416Z" fill="#0A77F3"/>
</svg>
