<svg width="266" height="266" viewBox="0 0 266 266" fill="none" xmlns="http://www.w3.org/2000/svg">
<g clip-path="url(#clip0_74_163)">
<g opacity="0.23">
<path d="M60.3109 194.86C60.7632 195.43 61.0186 196.047 61.0772 196.711C61.1327 197.378 60.9943 198.044 60.6618 198.71C60.3263 199.378 59.7967 199.999 59.0729 200.574C58.3551 201.144 57.6344 201.515 56.9109 201.689C56.1874 201.862 55.5074 201.843 54.871 201.632C54.2347 201.422 53.688 201.029 53.231 200.453C52.8777 200.009 52.6727 199.598 52.6161 199.222C52.5541 198.846 52.5624 198.515 52.6409 198.23C52.7141 197.945 52.7794 197.716 52.8368 197.545L52.7662 197.456L49.4024 200.127L48.5685 199.077L57.681 191.841L58.4866 192.855L57.4365 193.689L57.5355 193.814C57.7213 193.792 57.9657 193.777 58.2686 193.768C58.5685 193.762 58.8975 193.833 59.2555 193.979C59.6105 194.127 59.9623 194.421 60.3109 194.86ZM59.2546 195.467C58.9201 195.046 58.5276 194.777 58.0773 194.66C57.6239 194.546 57.1414 194.569 56.6297 194.729C56.1151 194.891 55.5997 195.177 55.0836 195.587C54.5733 195.992 54.1858 196.421 53.9209 196.873C53.6531 197.327 53.5278 197.785 53.5451 198.245C53.5594 198.708 53.7362 199.153 54.0754 199.58C54.4287 200.025 54.8374 200.305 55.3013 200.42C55.76 200.535 56.2425 200.512 56.7489 200.352C57.2499 200.191 57.7407 199.919 58.2212 199.538C58.7077 199.152 59.0908 198.726 59.3705 198.262C59.6449 197.798 59.7827 197.326 59.7838 196.846C59.7796 196.366 59.6032 195.906 59.2546 195.467Z" fill="#71C4FF"/>
<path d="M44.7899 188.401L45.7496 187.792L48.1717 191.612L47.212 192.22L44.7899 188.401ZM44.7403 192.227L44.0222 191.094L51.0469 186.64C51.3668 186.437 51.5773 186.238 51.6784 186.044C51.7743 185.849 51.8028 185.66 51.7639 185.478C51.7197 185.296 51.6449 185.121 51.5394 184.955C51.4603 184.83 51.389 184.732 51.3255 184.66C51.2588 184.59 51.2054 184.534 51.1654 184.492L52.0366 183.617C52.114 183.675 52.2108 183.764 52.3268 183.884C52.446 184.001 52.5726 184.165 52.7065 184.376C52.9093 184.696 53.0393 185.053 53.0965 185.447C53.1517 185.839 53.1024 186.224 52.9487 186.604C52.793 186.981 52.5008 187.305 52.0721 187.577L44.7403 192.227Z" fill="#71C4FF"/>
<path d="M48.9709 177.639C49.3462 178.392 49.5039 179.124 49.4439 179.835C49.3788 180.545 49.1199 181.197 48.667 181.791C48.2091 182.384 47.5801 182.879 46.7801 183.278C45.9802 183.677 45.2025 183.883 44.4469 183.896C43.6863 183.907 43.0038 183.735 42.3994 183.381C41.7899 183.024 41.3093 182.494 40.9577 181.789C40.7548 181.382 40.6222 180.946 40.56 180.482C40.4978 180.018 40.538 179.547 40.6808 179.07C40.8202 178.594 41.0908 178.135 41.4927 177.693C41.8946 177.251 42.4599 176.849 43.1887 176.485L43.6972 176.232L46.6998 182.252L45.6626 182.769L43.2686 177.969C42.8279 178.189 42.4787 178.473 42.2209 178.822C41.9614 179.167 41.8119 179.551 41.7725 179.973C41.7315 180.391 41.8191 180.817 42.0356 181.251C42.2739 181.729 42.5988 182.083 43.0103 182.314C43.4166 182.543 43.8544 182.657 44.3236 182.656C44.7929 182.655 45.2427 182.547 45.6732 182.332L46.3647 181.987C46.9545 181.693 47.4037 181.342 47.7124 180.934C48.0161 180.524 48.1833 180.083 48.2143 179.611C48.2419 179.14 48.1348 178.662 47.893 178.177C47.7357 177.862 47.5497 177.599 47.3347 177.389C47.1147 177.177 46.8684 177.023 46.5958 176.926C46.3197 176.831 46.0208 176.8 45.6989 176.833L45.4461 175.512C45.9001 175.438 46.3482 175.47 46.7902 175.61C47.2288 175.751 47.6368 175.992 48.0142 176.332C48.3882 176.675 48.7071 177.111 48.9709 177.639Z" fill="#71C4FF"/>
<path d="M43.997 166.206C44.2127 166.837 44.2814 167.448 44.2033 168.039C44.1252 168.63 43.9196 169.153 43.5864 169.607C43.2533 170.061 42.8121 170.398 42.2627 170.618L41.8216 169.328C42.3027 169.107 42.6377 168.74 42.8266 168.228C43.0107 167.712 43.0066 167.173 42.8142 166.611C42.6598 166.159 42.4168 165.794 42.0853 165.515C41.7525 165.232 41.3672 165.054 40.9294 164.979C40.4868 164.902 40.0308 164.944 39.5612 165.105C39.081 165.269 38.6888 165.521 38.3847 165.861C38.0759 166.199 37.8746 166.588 37.781 167.028C37.6873 167.469 37.719 167.924 37.8759 168.395C37.9875 168.733 38.1577 169.061 38.3865 169.379C38.6118 169.698 38.8461 169.945 39.0894 170.118L39.3652 171.416L33.718 172.602L31.7624 166.882L32.9452 166.478L34.5185 171.08L37.8981 170.357L37.8761 170.292C37.6196 170.128 37.3741 169.895 37.1394 169.595C36.9047 169.295 36.7243 168.961 36.5981 168.592C36.3677 167.918 36.3238 167.262 36.4662 166.625C36.6039 165.985 36.899 165.42 37.3516 164.929C37.803 164.435 38.3854 164.065 39.0986 163.822C39.8011 163.581 40.4823 163.525 41.1421 163.651C41.7971 163.776 42.3778 164.058 42.8843 164.497C43.3871 164.938 43.7581 165.507 43.997 166.206Z" fill="#71C4FF"/>
<path d="M41.0252 157.163L29.9017 154.105L29.8126 154.123L31.0032 160.003L29.7781 160.251L28.2988 152.945L29.5908 152.683L40.732 155.715L41.0252 157.163Z" fill="#71C4FF"/>
<path d="M38.7789 141.945C38.8038 142.422 38.7455 142.904 38.6041 143.392C38.4627 143.881 38.1994 144.335 37.8143 144.756C37.4254 145.178 36.8857 145.531 36.1952 145.818C35.501 146.104 34.6172 146.284 33.5439 146.357C32.516 146.427 31.5987 146.393 30.7919 146.254C29.9814 146.116 29.2916 145.882 28.7224 145.552C28.1494 145.223 27.7036 144.809 27.3849 144.311C27.0659 143.809 26.8842 143.231 26.8396 142.577C26.7953 141.927 26.8863 141.34 27.1126 140.815C27.3348 140.288 27.6655 139.848 28.1046 139.495C28.5438 139.142 29.0606 138.898 29.655 138.763L29.7493 140.146C29.2365 140.31 28.8208 140.589 28.5021 140.983C28.1835 141.377 28.045 141.88 28.0867 142.492C28.148 143.391 28.5874 144.073 29.405 144.538C30.2223 144.998 31.3378 145.182 32.7514 145.09L32.7452 144.999C32.4096 144.809 32.1185 144.577 31.8719 144.301C31.6213 144.022 31.4215 143.709 31.2726 143.362C31.1237 143.016 31.0357 142.644 31.0087 142.247C30.9633 141.582 31.0882 140.962 31.3831 140.388C31.6743 139.814 32.0996 139.34 32.6589 138.968C33.2144 138.596 33.8663 138.385 34.6146 138.334C35.3326 138.285 36.0011 138.401 36.6201 138.681C37.2353 138.962 37.7385 139.381 38.1296 139.939C38.5167 140.494 38.7331 141.163 38.7789 141.945ZM37.5318 142.03C37.4993 141.554 37.3512 141.135 37.0873 140.774C36.8232 140.408 36.4834 140.129 36.0679 139.938C35.6521 139.742 35.1986 139.661 34.7073 139.694C34.2274 139.727 33.7982 139.864 33.4199 140.107C33.0375 140.345 32.7419 140.66 32.5331 141.05C32.324 141.436 32.2357 141.867 32.2681 142.344C32.2926 142.703 32.3872 143.032 32.5519 143.332C32.7129 143.633 32.9241 143.892 33.1857 144.109C33.4471 144.323 33.741 144.485 34.0675 144.596C34.3901 144.707 34.7253 144.75 35.073 144.727C35.534 144.695 35.9575 144.558 36.3434 144.315C36.7291 144.069 37.0319 143.748 37.2517 143.354C37.4714 142.955 37.5647 142.514 37.5318 142.03Z" fill="#71C4FF"/>
<path d="M38.6241 128.542C38.571 129.29 38.3952 129.948 38.0968 130.516C37.7986 131.079 37.4087 131.517 36.9271 131.828C36.442 132.136 35.8943 132.283 35.2838 132.27L35.3851 130.842C35.7613 130.838 36.0935 130.732 36.3816 130.525C36.6659 130.317 36.8948 130.035 37.0681 129.679C37.2415 129.323 37.344 128.922 37.3756 128.476C37.411 127.978 37.3554 127.529 37.2089 127.132C37.0625 126.734 36.8421 126.415 36.5478 126.173C36.2535 125.932 35.9024 125.797 35.4943 125.768C35.0673 125.738 34.6839 125.817 34.3439 126.006C34.0002 126.194 33.7213 126.486 33.5072 126.881C33.2931 127.276 33.1652 127.768 33.1234 128.357L33.0575 129.287L31.8106 129.198L31.8765 128.269C31.9092 127.808 31.8548 127.398 31.7132 127.038C31.5718 126.675 31.357 126.384 31.0687 126.167C30.7806 125.945 30.4325 125.82 30.0245 125.791C29.6315 125.763 29.2834 125.825 28.9801 125.979C28.6769 126.132 28.4328 126.361 28.2478 126.667C28.0631 126.969 27.9556 127.334 27.9253 127.761C27.8969 128.161 27.9438 128.544 28.0659 128.91C28.1846 129.271 28.3739 129.573 28.6339 129.816C28.8902 130.058 29.2103 130.202 29.5944 130.249L29.4979 131.609C28.8912 131.543 28.3714 131.322 27.9386 130.946C27.502 130.569 27.175 130.094 26.9575 129.52C26.7402 128.943 26.6553 128.32 26.7027 127.651C26.7536 126.933 26.9428 126.328 27.2701 125.834C27.5937 125.341 28.0015 124.973 28.4933 124.731C28.9852 124.488 29.5051 124.387 30.0529 124.426C30.7066 124.472 31.2517 124.683 31.6883 125.06C32.1251 125.433 32.4116 125.918 32.5476 126.516L32.6383 126.523C32.8112 125.798 33.1635 125.248 33.6953 124.872C34.2232 124.495 34.8556 124.333 35.5924 124.386C36.2234 124.43 36.7779 124.642 37.2561 125.022C37.7307 125.397 38.0907 125.89 38.336 126.5C38.5814 127.109 38.6774 127.79 38.6241 128.542Z" fill="#71C4FF"/>
<path d="M36.9392 118.908L35.8063 118.663L28.9776 111.956L29.1552 111.134L30.9101 111.514L30.7902 112.069L35.9501 117.136L36.0389 117.156L37.4931 110.425L38.7149 110.688L36.9392 118.908ZM40.4284 114.058L37.7515 113.48L37.2239 113.366L29.0544 111.601L29.3375 110.29L40.7115 112.747L40.4284 114.058Z" fill="#71C4FF"/>
<path d="M45.902 105.932C45.8248 106.146 45.7381 106.33 45.642 106.485C45.5494 106.64 45.4755 106.745 45.4203 106.797L44.4246 106.075C44.6137 105.797 44.74 105.536 44.8036 105.294C44.8671 105.051 44.8373 104.804 44.7142 104.555C44.5958 104.302 44.3559 104.024 43.9945 103.721L43.4382 103.254L34.0908 103.308L34.585 101.94L41.9444 102.038L41.9753 101.952L36.253 97.3233L36.7472 95.9553L44.8936 102.837C45.2609 103.147 45.5417 103.468 45.7359 103.8C45.9337 104.133 46.0449 104.477 46.0696 104.833C46.0956 105.184 46.0397 105.551 45.902 105.932Z" fill="#71C4FF"/>
<path d="M48.3419 91.7946C48.0076 92.4405 47.5493 92.9262 46.967 93.2518C46.3814 93.5757 45.717 93.7222 44.9737 93.6915C44.227 93.659 43.4432 93.4304 42.6224 93.0055C41.8084 92.5841 41.1742 92.0789 40.7199 91.4897C40.2657 90.9006 40.0042 90.2726 39.9356 89.6059C39.867 88.9391 40.0016 88.2794 40.3394 87.6268C40.6006 87.1222 40.891 86.7671 41.2107 86.5615C41.5288 86.3508 41.8338 86.2229 42.1259 86.1779C42.4163 86.1277 42.6514 86.0938 42.8312 86.076L42.8834 85.975L39.0687 84.0005L39.6851 82.8097L50.0192 88.1587L49.4237 89.3092L48.2328 88.6928L48.1597 88.834C48.2557 88.9946 48.3696 89.2114 48.5013 89.4843C48.6296 89.7555 48.7004 90.0843 48.7137 90.4707C48.7235 90.8554 48.5996 91.2967 48.3419 91.7946ZM47.3558 91.0794C47.603 90.6017 47.6875 90.1336 47.6092 89.6751C47.5275 89.2149 47.3091 88.784 46.9539 88.3826C46.5952 87.9795 46.1233 87.6264 45.538 87.3235C44.9594 87.024 44.4095 86.846 43.8885 86.7896C43.3642 86.7314 42.8956 86.8045 42.4827 87.0088C42.0665 87.2114 41.733 87.5548 41.4823 88.0392C41.2211 88.5438 41.133 89.0314 41.2179 89.5018C41.3012 89.9672 41.5196 90.398 41.8732 90.7943C42.2252 91.1855 42.6737 91.5222 43.2186 91.8042C43.7703 92.0898 44.3151 92.2651 44.8529 92.3303C45.3891 92.3903 45.8763 92.3226 46.3144 92.1271C46.7509 91.9265 47.0981 91.5773 47.3558 91.0794Z" fill="#71C4FF"/>
<path d="M55.3053 79.9269C55.0226 80.3115 54.6719 80.6478 54.2533 80.9358C53.8347 81.2238 53.3431 81.4087 52.7783 81.4905C52.2104 81.5701 51.5687 81.5019 50.8532 81.2859C50.1345 81.0678 49.3368 80.647 48.4601 80.0236C47.6204 79.4266 46.9324 78.8188 46.3961 78.2004C45.8566 77.5799 45.4711 76.9618 45.2395 76.3463C45.0048 75.7285 44.922 75.1259 44.9912 74.5384C45.0626 73.9477 45.2882 73.3854 45.6679 72.8513C46.0454 72.3203 46.4878 71.9237 46.9949 71.6615C47.5012 71.394 48.0359 71.263 48.5991 71.2684C49.1623 71.2738 49.7167 71.4124 50.2625 71.6842L49.4591 72.8141C48.9584 72.6161 48.4601 72.5685 47.9641 72.6713C47.468 72.7741 47.0422 73.0756 46.6866 73.5757C46.1642 74.3104 46.0722 75.1164 46.4105 75.9937C46.751 76.8679 47.4974 77.717 48.6498 78.541L48.7024 78.4669C48.563 78.1075 48.4851 77.7431 48.4689 77.3737C48.4518 76.999 48.4955 76.6303 48.6 76.2677C48.7044 75.9051 48.8719 75.5617 49.1024 75.2376C49.4887 74.6942 49.9779 74.2938 50.57 74.0362C51.1591 73.7765 51.7879 73.6798 52.4565 73.7462C53.1219 73.8104 53.7603 74.0598 54.3715 74.4944C54.9581 74.9114 55.4019 75.4245 55.7031 76.0338C56.0012 76.6408 56.1248 77.2841 56.0739 77.9636C56.022 78.6379 55.7658 79.2923 55.3053 79.9269ZM54.2866 79.2026C54.5631 78.8136 54.7139 78.3956 54.739 77.9486C54.7662 77.4986 54.6798 77.0677 54.4799 76.6559C54.2822 76.2411 53.9827 75.8911 53.5813 75.6057C53.1893 75.3269 52.7702 75.1614 52.324 75.1091C51.8769 75.0515 51.449 75.1074 51.0403 75.277C50.6338 75.4434 50.2923 75.7211 50.0157 76.1101C49.8072 76.4034 49.6716 76.7183 49.6089 77.0548C49.5431 77.3892 49.5425 77.7234 49.6071 78.0575C49.6739 78.3884 49.7985 78.7002 49.981 78.9926C50.1604 79.2828 50.3921 79.5289 50.6761 79.7308C51.0527 79.9986 51.4672 80.1609 51.9195 80.2176C52.3741 80.2712 52.8114 80.215 53.2316 80.049C53.654 79.8799 54.0056 79.5977 54.2866 79.2026Z" fill="#71C4FF"/>
<path d="M63.6419 69.5066C63.1268 70.0517 62.574 70.4491 61.9835 70.699C61.3956 70.946 60.8168 71.0374 60.2469 70.9732C59.6769 70.9035 59.1598 70.6703 58.6958 70.2735L59.6792 69.2328C59.9726 69.4683 60.2964 69.5972 60.6507 69.6193C61.0023 69.6388 61.3579 69.5658 61.7177 69.4002C62.0774 69.2346 62.4108 68.9894 62.7177 68.6646C63.0612 68.3011 63.3022 67.9192 63.441 67.5187C63.5797 67.1182 63.6116 66.7315 63.5368 66.3584C63.4619 65.9854 63.2758 65.6584 62.9785 65.3775C62.6674 65.0835 62.3206 64.9017 61.9381 64.8321C61.5529 64.76 61.1524 64.8088 60.7365 64.9787C60.3206 65.1485 59.9098 65.4482 59.5039 65.8777L58.8639 66.5549L57.9554 65.6964L58.5954 65.0191C58.9128 64.6832 59.1306 64.3314 59.2488 63.9637C59.3696 63.5932 59.3876 63.2323 59.3026 62.881C59.2202 62.5269 59.0304 62.2094 58.7331 61.9284C58.4467 61.6579 58.1377 61.4857 57.8061 61.412C57.4744 61.3384 57.1401 61.3612 56.8032 61.4806C56.4689 61.5972 56.1547 61.8111 55.8607 62.1222C55.585 62.414 55.3785 62.7401 55.2413 63.1003C55.104 63.4552 55.059 63.8089 55.1065 64.1612C55.1512 64.511 55.3075 64.8254 55.5753 65.1045L54.6387 66.0956C54.2111 65.6603 53.9491 65.1599 53.8527 64.5946C53.7536 64.0266 53.8016 63.4519 53.9969 62.8702C54.1947 62.2859 54.5239 61.75 54.9844 61.2628C55.4787 60.7397 56.0087 60.3911 56.5745 60.217C57.1376 60.0403 57.6862 60.0141 58.2202 60.1383C58.7543 60.2625 59.2209 60.5133 59.6201 60.8905C60.0964 61.3406 60.3841 61.8496 60.4832 62.4175C60.5849 62.9827 60.4989 63.5398 60.225 64.0888L60.2911 64.1512C60.8839 63.7004 61.5052 63.4979 62.1549 63.5439C62.8019 63.5872 63.3938 63.8625 63.9307 64.3698C64.3904 64.8043 64.685 65.3198 64.8144 65.9164C64.9437 66.5076 64.91 67.1168 64.7134 67.744C64.5168 68.3712 64.1596 68.9587 63.6419 69.5066Z" fill="#71C4FF"/>
<path d="M70.543 62.4057L68.1136 51.1283L68.0564 51.0576L63.3918 54.8314L62.6056 53.8596L68.401 49.1709L69.2301 50.1957L71.6914 61.4766L70.543 62.4057Z" fill="#71C4FF"/>
<path d="M79.8321 55.1018L79.299 54.229L80.3852 48.6388C80.5132 47.9836 80.6069 47.4248 80.6663 46.9624C80.7236 46.4968 80.7282 46.0901 80.68 45.7423C80.633 45.3893 80.5168 45.0608 80.3312 44.757C80.1179 44.4079 79.8493 44.1569 79.5252 44.0042C79.2044 43.8496 78.8576 43.7906 78.485 43.8273C78.1124 43.864 77.7467 43.992 77.3879 44.2111C77.0065 44.4441 76.7219 44.7267 76.5342 45.0588C76.3477 45.3858 76.2628 45.7372 76.2794 46.1132C76.2992 46.4873 76.4247 46.8634 76.6557 47.2416L75.5113 47.9406C75.1559 47.3587 74.9781 46.766 74.9779 46.1625C74.9777 45.559 75.1337 44.9932 75.4459 44.4652C75.7613 43.9352 76.2083 43.4935 76.787 43.1401C77.3688 42.7847 77.9595 42.5926 78.5589 42.5638C79.1582 42.5351 79.713 42.6512 80.2231 42.9122C80.7331 43.1732 81.1442 43.5591 81.4561 44.0699C81.6792 44.4351 81.8311 44.8328 81.9118 45.2629C81.9938 45.6878 82.0035 46.2123 81.9408 46.8364C81.8794 47.4554 81.7509 48.2441 81.5551 49.2025L80.7818 52.9505L80.8291 53.0281L85.4453 50.2086L86.0968 51.2754L79.8321 55.1018Z" fill="#71C4FF"/>
<path d="M94.8894 46.9801C94.2011 47.2779 93.5363 47.4252 92.8952 47.422C92.2575 47.4172 91.6895 47.2729 91.1912 46.9891C90.6948 46.7004 90.3116 46.2822 90.0416 45.7345L91.3557 45.1659C91.5325 45.4981 91.7793 45.7442 92.0961 45.9042C92.4115 46.0608 92.7672 46.1339 93.163 46.1236C93.5589 46.1133 93.962 46.0194 94.3722 45.8419C94.8311 45.6434 95.2032 45.3874 95.4886 45.0741C95.774 44.7608 95.9559 44.418 96.0342 44.0456C96.1125 43.6733 96.0704 43.2995 95.908 42.924C95.738 42.5312 95.491 42.2274 95.167 42.0126C94.8414 41.7944 94.4541 41.6813 94.0049 41.6734C93.5558 41.6655 93.06 41.7789 92.5177 42.0136L91.6625 42.3836L91.1661 41.2363L92.0213 40.8663C92.4455 40.6828 92.7843 40.4454 93.038 40.1541C93.2951 39.8612 93.4539 39.5366 93.5144 39.1803C93.5783 38.8225 93.529 38.4558 93.3666 38.0804C93.2102 37.7188 92.9941 37.4388 92.7183 37.2403C92.4426 37.0418 92.1264 36.931 91.7697 36.9078C91.4165 36.8832 91.0434 36.9558 90.6506 37.1258C90.2821 37.2852 89.9638 37.5034 89.6957 37.7804C89.4295 38.0524 89.2488 38.3597 89.1535 38.7022C89.0567 39.0412 89.0763 39.3918 89.2123 39.7539L87.9608 40.2954C87.7395 39.7267 87.696 39.1635 87.8304 38.606C87.9632 38.045 88.234 37.5358 88.6428 37.0783C89.055 36.6193 89.5688 36.2566 90.1841 35.9904C90.8447 35.7046 91.4692 35.5933 92.0578 35.6564C92.6449 35.7161 93.1594 35.9083 93.6012 36.233C94.043 36.5578 94.3729 36.9722 94.591 37.4763C94.8512 38.0777 94.9149 38.6589 94.7821 39.2199C94.6527 39.7794 94.3539 40.2575 93.8858 40.654L93.9219 40.7374C94.6444 40.5569 95.2952 40.6158 95.8742 40.9142C96.4516 41.2092 96.887 41.6956 97.1803 42.3735C97.4315 42.9541 97.499 43.544 97.3827 44.1432C97.2683 44.7375 96.9971 45.284 96.5691 45.7829C96.1411 46.2817 95.5812 46.6808 94.8894 46.9801Z" fill="#71C4FF"/>
<path d="M107.071 42.4973C106.429 42.6758 105.815 42.7088 105.23 42.5963C104.644 42.4838 104.134 42.248 103.7 41.889C103.266 41.5299 102.956 41.0698 102.768 40.5086L104.082 40.1435C104.274 40.6366 104.621 40.9924 105.122 41.211C105.625 41.4248 106.164 41.4522 106.737 41.293C107.197 41.1652 107.576 40.944 107.873 40.6293C108.175 40.3135 108.376 39.9393 108.475 39.5066C108.578 39.0693 108.563 38.6115 108.43 38.1334C108.294 37.6444 108.065 37.2382 107.744 36.9148C107.424 36.5867 107.048 36.3631 106.614 36.2439C106.179 36.1247 105.723 36.1297 105.244 36.2589C104.9 36.3506 104.562 36.5014 104.231 36.7113C103.899 36.9175 103.64 37.137 103.453 37.3698L102.14 37.5694L101.286 31.8625L107.111 30.2441L107.445 31.4485L102.759 32.7505L103.284 36.1666L103.35 36.1483C103.529 35.902 103.775 35.6704 104.088 35.4536C104.402 35.2369 104.746 35.0763 105.122 34.9718C105.808 34.7812 106.465 34.7756 107.093 34.955C107.723 35.1297 108.27 35.4573 108.734 35.9378C109.201 36.4173 109.536 37.0202 109.738 37.7465C109.937 38.4618 109.953 39.1451 109.788 39.7964C109.626 40.443 109.311 41.0063 108.843 41.4863C108.374 41.9626 107.783 42.2996 107.071 42.4973Z" fill="#71C4FF"/>
<path d="M115.337 37.7266L115.185 36.5775L119.195 27.8866L120.028 27.7764L120.264 29.5564L119.7 29.6308L116.671 36.1978L116.682 36.288L123.51 35.3861L123.673 36.6253L115.337 37.7266ZM121.079 39.3751L120.721 36.66L120.65 36.1249L119.555 27.8389L120.885 27.6633L122.409 39.1995L121.079 39.3751Z" fill="#71C4FF"/>
<path d="M133.378 38.6721C132.712 38.6668 132.112 38.5295 131.58 38.2602C131.048 37.9909 130.623 37.6239 130.305 37.1592C129.987 36.6946 129.815 36.1667 129.789 35.5756L131.152 35.5863C131.201 36.1132 131.437 36.5507 131.858 36.8987C132.283 37.243 132.793 37.4174 133.388 37.4221C133.865 37.4259 134.29 37.3175 134.663 37.0969C135.04 36.8764 135.336 36.5719 135.551 36.1834C135.77 35.7912 135.882 35.347 135.886 34.8508C135.89 34.3432 135.781 33.8897 135.561 33.4902C135.345 33.087 135.044 32.7683 134.66 32.5342C134.275 32.3001 133.835 32.1793 133.338 32.1716C132.982 32.165 132.617 32.217 132.241 32.3277C131.865 32.4346 131.555 32.5742 131.311 32.7466L129.994 32.5771L130.744 26.8555L136.789 26.9031L136.779 28.153L131.916 28.1148L131.48 31.5433L131.548 31.5438C131.788 31.3563 132.088 31.2015 132.449 31.0793C132.81 30.9571 133.186 30.8976 133.576 30.9007C134.288 30.9063 134.921 31.0817 135.475 31.427C136.033 31.7685 136.469 32.2341 136.782 32.8237C137.1 33.4133 137.255 34.085 137.249 34.8388C137.244 35.5812 137.072 36.2427 136.734 36.8234C136.4 37.4003 135.942 37.8551 135.359 38.1876C134.777 38.5164 134.117 38.6779 133.378 38.6721Z" fill="#71C4FF"/>
<path d="M144.643 38.984L143.464 29.9371L144.854 30.1702L145.609 37.072L145.699 37.087L148.642 30.8055L150.054 31.0423L150.768 37.9142L150.858 37.9292L153.819 31.6739L155.209 31.907L151.143 40.0742L149.843 39.8562L149.069 32.9282L148.935 32.9056L145.943 39.202L144.643 38.984Z" fill="#71C4FF"/>
<path d="M160.437 39.6131L160.814 38.517L168.28 32.5277L169.075 32.8011L168.491 34.499L167.954 34.3143L162.313 38.84L162.283 38.926L168.796 41.1645L168.389 42.3466L160.437 39.6131ZM164.841 43.6504L165.731 41.0605L165.907 40.55L168.624 32.646L169.892 33.0818L166.109 44.0862L164.841 43.6504Z" fill="#71C4FF"/>
<path d="M173.298 46.8906L182.591 40.0548L182.632 39.9737L177.279 37.2643L177.843 36.149L184.494 39.5152L183.899 40.6914L174.616 47.5577L173.298 46.8906Z" fill="#71C4FF"/>
<path d="M191.602 47.1615L190.991 48.1196L187.025 45.5897L187.636 44.6317L191.602 47.1615ZM184.131 52.7474L189.472 44.3738C189.741 43.9523 190.064 43.6641 190.441 43.5094C190.818 43.3546 191.21 43.3078 191.615 43.3689C192.021 43.4301 192.4 43.5727 192.751 43.7967C193.029 43.974 193.241 44.1409 193.389 44.2977C193.536 44.4544 193.64 44.5794 193.702 44.6728L192.753 45.4422C192.708 45.3864 192.643 45.3115 192.559 45.2176C192.479 45.1257 192.357 45.0278 192.194 44.924C191.82 44.6856 191.49 44.6077 191.204 44.6902C190.921 44.7748 190.663 44.9991 190.431 45.3631L185.261 53.4685L184.131 52.7474Z" fill="#71C4FF"/>
<path d="M190.653 54.0228L191.378 53.1184L200.428 50.0044L201.084 50.5304L199.961 51.9312L199.518 51.5758L192.679 53.929L192.622 54L197.995 58.3074L197.213 59.2827L190.653 54.0228ZM193.433 59.3107L195.146 57.174L195.484 56.7529L200.712 50.2318L201.758 51.0706L194.479 60.1495L193.433 59.3107Z" fill="#71C4FF"/>
<path d="M211.475 59.287L198.947 66.4433L198.083 65.5725L210.61 58.4162L211.475 59.287Z" fill="#71C4FF"/>
<path d="M210.856 69.1774L212.85 67.6664L210.475 66.8776L210.869 65.8513L213.176 66.8431L212.664 64.3849L213.749 64.2035L214.047 66.6888L215.926 65.037L216.616 65.8819L214.622 67.3929L216.998 68.1817L216.604 69.208L214.297 68.2161L214.808 70.6744L213.724 70.8557L213.425 68.3705L211.546 70.0223L210.856 69.1774Z" fill="#71C4FF"/>
<path d="M224.54 75.7705L210.869 80.3798L210.188 79.3587L223.859 74.7494L224.54 75.7705Z" fill="#71C4FF"/>
<path d="M221.95 85.228L224.198 84.1303L222.019 82.8978L222.604 81.9669L224.676 83.3853L224.649 80.8746L225.748 80.906L225.561 83.4021L227.723 82.1439L228.237 83.1062L225.989 84.2039L228.168 85.4364L227.583 86.3673L225.511 84.9489L225.538 87.4596L224.44 87.4282L224.626 84.9321L222.464 86.1902L221.95 85.228Z" fill="#71C4FF"/>
<path d="M228.399 97.8107L227.239 98.276L225.344 93.551L226.504 93.0856L228.399 97.8107Z" fill="#71C4FF"/>
<path d="M237.679 104.96L223.256 105.327L222.907 104.15L237.33 103.783L237.679 104.96Z" fill="#71C4FF"/>
<path d="M229.366 111.363L230.507 111.159L239.371 114.769L239.519 115.597L237.752 115.913L237.652 115.353L230.953 112.626L230.864 112.642L232.076 119.421L230.845 119.641L229.366 111.363ZM227.98 117.174L230.676 116.693L231.207 116.598L239.435 115.127L239.671 116.447L228.216 118.494L227.98 117.174Z" fill="#71C4FF"/>
<path d="M240.987 128.674L229.372 129.378L229.286 127.972L239.427 127.357L239.423 127.289L237.368 124.567L238.797 124.48L240.901 127.267L240.987 128.674Z" fill="#71C4FF"/>
<path d="M232.031 134.055L233.189 134.121L240.972 139.691L240.924 140.531L239.131 140.428L239.164 139.861L233.283 135.652L233.192 135.647L232.796 142.522L231.548 142.45L232.031 134.055ZM229.334 139.386L232.068 139.543L232.607 139.574L240.951 140.055L240.874 141.393L229.257 140.725L229.334 139.386Z" fill="#71C4FF"/>
<path d="M228.592 148.068L229.595 148.27L232.959 152.865C233.353 153.404 233.7 153.852 233.999 154.21C234.301 154.568 234.597 154.848 234.885 155.048C235.176 155.254 235.496 155.392 235.845 155.462C236.246 155.542 236.613 155.516 236.945 155.382C237.276 155.251 237.555 155.037 237.781 154.738C238.007 154.44 238.162 154.085 238.245 153.672C238.333 153.234 238.319 152.834 238.203 152.47C238.089 152.111 237.889 151.81 237.602 151.567C237.314 151.327 236.953 151.164 236.518 151.077L236.782 149.762C237.451 149.896 238.007 150.169 238.45 150.578C238.893 150.988 239.202 151.487 239.377 152.075C239.552 152.666 239.573 153.294 239.439 153.959C239.304 154.627 239.044 155.191 238.658 155.651C238.272 156.11 237.81 156.438 237.272 156.635C236.734 156.833 236.172 156.872 235.585 156.754C235.165 156.67 234.77 156.511 234.4 156.278C234.032 156.05 233.641 155.7 233.225 155.231C232.813 154.765 232.321 154.135 231.751 153.34L229.526 150.227L229.437 150.209L228.37 155.512L227.145 155.265L228.592 148.068Z" fill="#71C4FF"/>
<path d="M224.349 164.581C224.597 163.874 224.94 163.285 225.377 162.816C225.813 162.351 226.304 162.031 226.85 161.857C227.399 161.688 227.966 161.69 228.552 161.863L228.079 163.214C227.715 163.119 227.367 163.134 227.034 163.258C226.705 163.384 226.41 163.595 226.149 163.893C225.888 164.191 225.684 164.551 225.537 164.973C225.371 165.445 225.307 165.892 225.344 166.314C225.381 166.737 225.509 167.103 225.73 167.413C225.95 167.723 226.254 167.945 226.64 168.08C227.044 168.222 227.435 168.246 227.812 168.154C228.193 168.062 228.539 167.854 228.849 167.53C229.16 167.205 229.413 166.764 229.608 166.206L229.916 165.326L231.096 165.74L230.788 166.619C230.635 167.055 230.58 167.465 230.622 167.849C230.663 168.237 230.794 168.574 231.014 168.86C231.234 169.149 231.537 169.362 231.923 169.497C232.295 169.627 232.647 169.658 232.98 169.59C233.313 169.522 233.609 169.365 233.868 169.118C234.125 168.875 234.325 168.552 234.466 168.148C234.599 167.769 234.654 167.387 234.633 167.002C234.613 166.622 234.51 166.281 234.323 165.979C234.139 165.677 233.868 165.454 233.51 165.309L233.961 164.022C234.529 164.245 234.972 164.594 235.291 165.071C235.613 165.549 235.804 166.094 235.863 166.704C235.921 167.319 235.839 167.942 235.617 168.575C235.379 169.254 235.038 169.789 234.592 170.178C234.15 170.57 233.66 170.817 233.122 170.922C232.584 171.026 232.055 170.988 231.537 170.806C230.918 170.59 230.448 170.243 230.126 169.764C229.802 169.29 229.653 168.746 229.679 168.133L229.594 168.103C229.236 168.757 228.752 169.195 228.14 169.418C227.532 169.643 226.879 169.633 226.182 169.389C225.585 169.18 225.105 168.829 224.744 168.338C224.385 167.851 224.167 167.281 224.09 166.628C224.014 165.975 224.1 165.293 224.349 164.581Z" fill="#71C4FF"/>
<path d="M223.441 174.319L224.469 174.855L229.283 183.127L228.895 183.873L227.302 183.044L227.565 182.54L223.927 176.289L223.846 176.247L220.666 182.355L219.557 181.778L223.441 174.319ZM218.794 178.075L221.223 179.34L221.702 179.589L229.115 183.45L228.496 184.639L218.175 179.265L218.794 178.075Z" fill="#71C4FF"/>
<path d="M212.279 188.578C212.667 188.036 213.125 187.625 213.651 187.345C214.178 187.065 214.722 186.929 215.286 186.936C215.849 186.944 216.379 187.107 216.878 187.426L216.084 188.535C215.625 188.272 215.132 188.212 214.604 188.356C214.078 188.506 213.642 188.822 213.296 189.306C213.018 189.694 212.862 190.104 212.827 190.536C212.791 190.971 212.869 191.388 213.063 191.788C213.258 192.193 213.557 192.54 213.96 192.829C214.373 193.124 214.806 193.297 215.259 193.346C215.714 193.402 216.147 193.339 216.56 193.16C216.973 192.98 217.325 192.69 217.617 192.288C217.828 192.001 217.996 191.672 218.122 191.301C218.251 190.932 218.315 190.598 218.314 190.3L219.211 189.32L223.458 193.227L219.938 198.143L218.922 197.415L221.753 193.461L219.201 191.13L219.161 191.186C219.176 191.49 219.13 191.825 219.022 192.19C218.914 192.555 218.747 192.897 218.52 193.214C218.105 193.793 217.597 194.21 216.996 194.464C216.395 194.724 215.764 194.812 215.101 194.729C214.437 194.649 213.798 194.389 213.185 193.951C212.581 193.518 212.139 192.997 211.859 192.386C211.579 191.781 211.471 191.145 211.535 190.477C211.601 189.812 211.849 189.179 212.279 188.578Z" fill="#71C4FF"/>
<path d="M204.186 198.665C204.519 198.324 204.913 198.039 205.368 197.812C205.822 197.585 206.335 197.471 206.905 197.468C207.479 197.468 208.105 197.625 208.783 197.938C209.465 198.254 210.196 198.782 210.978 199.521C211.726 200.229 212.323 200.926 212.769 201.613C213.216 202.303 213.512 202.968 213.656 203.61C213.803 204.254 213.801 204.863 213.651 205.435C213.498 206.01 213.197 206.535 212.746 207.011C212.299 207.485 211.805 207.816 211.267 208.005C210.728 208.2 210.181 208.255 209.624 208.172C209.067 208.088 208.537 207.874 208.034 207.529L208.987 206.522C209.455 206.787 209.942 206.903 210.447 206.871C210.953 206.838 211.416 206.598 211.838 206.153C212.458 205.498 212.661 204.712 212.448 203.796C212.232 202.883 211.611 201.939 210.584 200.963L210.522 201.029C210.61 201.404 210.636 201.776 210.601 202.144C210.566 202.517 210.471 202.876 210.317 203.221C210.164 203.565 209.95 203.882 209.677 204.171C209.219 204.655 208.679 204.984 208.056 205.157C207.437 205.332 206.801 205.341 206.148 205.182C205.498 205.026 204.9 204.69 204.355 204.175C203.833 203.68 203.464 203.111 203.251 202.465C203.04 201.823 203.007 201.169 203.152 200.503C203.297 199.842 203.641 199.23 204.186 198.665ZM205.094 199.524C204.766 199.871 204.558 200.264 204.472 200.703C204.382 201.145 204.408 201.584 204.549 202.019C204.687 202.457 204.935 202.846 205.292 203.184C205.642 203.515 206.034 203.737 206.469 203.851C206.903 203.97 207.335 203.974 207.763 203.863C208.189 203.754 208.566 203.527 208.894 203.18C209.141 202.919 209.319 202.626 209.428 202.301C209.539 201.979 209.586 201.648 209.569 201.308C209.549 200.971 209.469 200.645 209.328 200.33C209.191 200.018 208.996 199.742 208.743 199.503C208.407 199.185 208.019 198.967 207.579 198.848C207.136 198.732 206.695 198.727 206.256 198.833C205.814 198.941 205.427 199.172 205.094 199.524Z" fill="#71C4FF"/>
<path d="M196.96 214.757L197.678 213.732C197.864 213.84 198.074 213.92 198.308 213.974C198.542 214.033 198.795 214.032 199.068 213.971C199.34 213.909 199.628 213.756 199.93 213.509C200.344 213.172 200.612 212.795 200.732 212.379C200.852 211.969 200.793 211.618 200.556 211.328C200.346 211.069 200.086 210.942 199.776 210.945C199.466 210.949 199.07 211.063 198.59 211.289L197.384 211.861C196.66 212.207 196.026 212.35 195.483 212.289C194.942 212.231 194.479 211.966 194.094 211.493C193.778 211.106 193.607 210.668 193.582 210.181C193.553 209.696 193.665 209.204 193.918 208.705C194.171 208.206 194.56 207.742 195.085 207.313C195.775 206.751 196.468 206.435 197.165 206.366C197.861 206.297 198.504 206.501 199.093 206.979L198.308 208.029C197.917 207.742 197.517 207.614 197.107 207.645C196.695 207.678 196.275 207.868 195.85 208.215C195.365 208.61 195.064 209.026 194.947 209.464C194.829 209.907 194.889 210.274 195.126 210.564C195.317 210.799 195.56 210.929 195.853 210.954C196.149 210.981 196.5 210.896 196.905 210.697L198.248 210.042C198.987 209.684 199.628 209.541 200.17 209.612C200.711 209.689 201.172 209.961 201.553 210.428C201.864 210.809 202.032 211.234 202.057 211.703C202.079 212.173 201.972 212.644 201.735 213.116C201.496 213.589 201.138 214.02 200.663 214.408C199.993 214.953 199.348 215.235 198.727 215.252C198.103 215.272 197.514 215.107 196.96 214.757Z" fill="#71C4FF"/>
<path d="M188.273 212.817L189.409 224.297L189.458 224.374L194.52 221.153L195.191 222.207L188.902 226.209L188.194 225.097L187.026 213.61L188.273 212.817Z" fill="#71C4FF"/>
<path d="M175.66 219.915C176.42 219.555 177.155 219.413 177.865 219.487C178.573 219.567 179.22 219.84 179.804 220.305C180.387 220.775 180.869 221.414 181.252 222.223C181.634 223.031 181.823 223.813 181.821 224.568C181.816 225.329 181.63 226.008 181.263 226.605C180.894 227.206 180.353 227.676 179.641 228.013C179.23 228.207 178.792 228.33 178.326 228.383C177.861 228.436 177.391 228.385 176.916 228.233C176.444 228.083 175.991 227.803 175.557 227.392C175.124 226.981 174.733 226.408 174.385 225.671L174.142 225.158L180.224 222.281L180.719 223.329L175.87 225.622C176.081 226.068 176.358 226.423 176.701 226.688C177.041 226.954 177.421 227.112 177.842 227.16C178.26 227.21 178.687 227.131 179.126 226.924C179.609 226.695 179.97 226.378 180.209 225.972C180.446 225.57 180.57 225.135 180.578 224.666C180.587 224.196 180.488 223.744 180.282 223.31L179.952 222.611C179.67 222.015 179.329 221.559 178.927 221.242C178.524 220.929 178.086 220.753 177.615 220.712C177.144 220.675 176.664 220.772 176.175 221.003C175.856 221.154 175.59 221.335 175.375 221.545C175.159 221.761 174.999 222.004 174.897 222.274C174.796 222.548 174.759 222.846 174.785 223.169L173.459 223.394C173.394 222.939 173.436 222.491 173.585 222.052C173.735 221.617 173.984 221.214 174.333 220.844C174.683 220.477 175.126 220.167 175.66 219.915Z" fill="#71C4FF"/>
<path d="M167.7 223.577L170.555 231.825L169.331 232.248L168.9 231.003L168.814 231.032C168.805 231.492 168.647 231.918 168.341 232.308C168.036 232.699 167.636 232.979 167.142 233.15C167.049 233.183 166.932 233.221 166.791 233.266C166.65 233.31 166.543 233.342 166.468 233.359L166.022 232.071C166.069 232.067 166.173 232.049 166.335 232.017C166.494 231.99 166.657 231.947 166.825 231.889C167.226 231.75 167.555 231.542 167.812 231.265C168.066 230.992 168.234 230.678 168.315 230.321C168.394 229.969 168.368 229.607 168.24 229.235L166.433 224.016L167.7 223.577Z" fill="#71C4FF"/>
<path d="M156.216 226.912C156.977 226.741 157.68 226.726 158.324 226.865C158.966 227.008 159.503 227.282 159.935 227.686C160.368 228.094 160.651 228.605 160.785 229.219C160.896 229.699 160.901 230.164 160.8 230.613C160.699 231.067 160.514 231.467 160.242 231.815C159.968 232.168 159.632 232.427 159.235 232.594L159.249 232.661C159.824 232.679 160.325 232.888 160.752 233.285C161.179 233.686 161.459 234.188 161.59 234.792C161.723 235.368 161.692 235.916 161.498 236.437C161.304 236.958 160.978 237.407 160.519 237.785C160.057 238.165 159.493 238.429 158.828 238.578C158.17 238.725 157.552 238.725 156.976 238.579C156.4 238.432 155.913 238.165 155.516 237.776C155.114 237.389 154.847 236.907 154.715 236.331C154.583 235.728 154.627 235.153 154.847 234.607C155.063 234.066 155.422 233.665 155.923 233.406L155.908 233.339C155.481 233.357 155.072 233.264 154.681 233.061C154.291 232.861 153.952 232.578 153.664 232.211C153.377 231.848 153.178 231.427 153.067 230.947C152.933 230.333 152.977 229.749 153.198 229.195C153.417 228.645 153.786 228.168 154.305 227.765C154.821 227.366 155.458 227.082 156.216 226.912ZM156.489 228.132C155.975 228.247 155.55 228.429 155.214 228.679C154.878 228.929 154.642 229.228 154.507 229.577C154.371 229.926 154.347 230.304 154.434 230.711C154.534 231.139 154.73 231.493 155.022 231.773C155.313 232.053 155.669 232.245 156.088 232.35C156.504 232.454 156.952 232.453 157.432 232.346C157.916 232.237 158.328 232.046 158.666 231.772C159.001 231.499 159.241 231.174 159.385 230.796C159.526 230.419 159.546 230.017 159.447 229.589C159.359 229.181 159.182 228.848 158.914 228.59C158.643 228.332 158.301 228.163 157.886 228.081C157.472 227.999 157.006 228.016 156.489 228.132ZM157.695 233.521C157.289 233.612 156.947 233.774 156.669 234.007C156.387 234.241 156.189 234.524 156.073 234.857C155.957 235.189 155.941 235.552 156.025 235.944C156.115 236.328 156.281 236.642 156.522 236.887C156.764 237.136 157.059 237.302 157.408 237.387C157.758 237.476 158.142 237.474 158.559 237.38C158.984 237.285 159.338 237.122 159.62 236.892C159.904 236.666 160.1 236.389 160.209 236.062C160.319 235.738 160.329 235.385 160.239 235.001C160.155 234.608 159.992 234.286 159.749 234.034C159.502 233.782 159.202 233.611 158.848 233.519C158.493 233.428 158.109 233.428 157.695 233.521Z" fill="#71C4FF"/>
<path d="M142.89 229.119C143.638 229.058 144.314 229.132 144.921 229.341C145.523 229.551 146.014 229.87 146.395 230.299C146.772 230.732 147.001 231.251 147.08 231.857L145.653 231.973C145.593 231.601 145.438 231.289 145.189 231.036C144.941 230.786 144.628 230.602 144.25 230.485C143.871 230.367 143.46 230.327 143.014 230.363C142.516 230.403 142.081 230.526 141.71 230.731C141.339 230.936 141.057 231.202 140.863 231.53C140.669 231.857 140.589 232.225 140.622 232.632C140.656 233.059 140.793 233.426 141.031 233.733C141.269 234.045 141.599 234.276 142.022 234.428C142.445 234.58 142.951 234.632 143.539 234.584L144.468 234.509L144.569 235.755L143.641 235.83C143.18 235.868 142.783 235.983 142.449 236.178C142.111 236.372 141.857 236.629 141.685 236.947C141.509 237.265 141.438 237.628 141.471 238.036C141.503 238.428 141.618 238.763 141.815 239.04C142.012 239.316 142.276 239.523 142.607 239.659C142.933 239.796 143.31 239.847 143.736 239.813C144.136 239.78 144.508 239.676 144.851 239.5C145.19 239.328 145.46 239.095 145.661 238.801C145.861 238.511 145.955 238.173 145.943 237.786L147.302 237.676C147.329 238.286 147.189 238.833 146.883 239.318C146.577 239.806 146.156 240.201 145.622 240.503C145.084 240.805 144.481 240.983 143.813 241.038C143.096 241.096 142.469 241.001 141.931 240.752C141.395 240.507 140.969 240.159 140.655 239.71C140.341 239.26 140.162 238.762 140.118 238.214C140.065 237.561 140.191 236.99 140.497 236.502C140.8 236.013 141.236 235.657 141.807 235.432L141.8 235.341C141.057 235.28 140.46 235.015 140.008 234.546C139.556 234.081 139.3 233.481 139.24 232.745C139.189 232.114 139.315 231.534 139.617 231.004C139.917 230.478 140.349 230.047 140.915 229.713C141.48 229.378 142.139 229.18 142.89 229.119Z" fill="#71C4FF"/>
<path d="M133.631 232.241L133.561 233.398L127.966 241.164L127.126 241.113L127.235 239.321L127.803 239.355L132.03 233.487L132.035 233.397L125.162 232.979L125.237 231.731L133.631 232.241ZM128.308 229.527L128.142 232.261L128.11 232.8L127.603 241.142L126.264 241.061L126.97 229.446L128.308 229.527Z" fill="#71C4FF"/>
<path d="M116.106 227.872C116.759 228.005 117.321 228.254 117.792 228.619C118.263 228.985 118.61 229.427 118.834 229.943C119.058 230.46 119.126 231.011 119.039 231.596L117.702 231.326C117.755 230.799 117.607 230.325 117.26 229.903C116.908 229.484 116.441 229.215 115.858 229.097C115.39 229.003 114.952 229.028 114.544 229.173C114.132 229.318 113.783 229.56 113.498 229.901C113.208 230.244 113.014 230.659 112.916 231.145C112.815 231.643 112.835 232.108 112.975 232.543C113.11 232.98 113.345 233.35 113.677 233.653C114.01 233.956 114.419 234.159 114.905 234.261C115.253 234.335 115.622 234.354 116.013 234.317C116.402 234.284 116.733 234.206 117.005 234.083L118.265 234.501L116.438 239.974L110.513 238.775L110.761 237.549L115.528 238.515L116.61 235.232L116.543 235.219C116.272 235.357 115.947 235.452 115.57 235.503C115.192 235.554 114.812 235.541 114.43 235.463C113.732 235.322 113.144 235.029 112.666 234.584C112.183 234.143 111.844 233.603 111.649 232.964C111.45 232.325 111.425 231.636 111.575 230.897C111.722 230.169 112.017 229.553 112.459 229.047C112.897 228.544 113.434 228.185 114.069 227.97C114.703 227.758 115.382 227.726 116.106 227.872Z" fill="#71C4FF"/>
<path d="M103.472 224.578C104.181 224.825 104.769 225.167 105.238 225.604C105.704 226.04 106.024 226.531 106.198 227.077C106.368 227.626 106.366 228.193 106.193 228.779L104.842 228.306C104.937 227.942 104.922 227.594 104.798 227.262C104.672 226.933 104.46 226.638 104.162 226.377C103.864 226.117 103.504 225.913 103.082 225.765C102.61 225.6 102.162 225.536 101.74 225.573C101.318 225.61 100.952 225.739 100.642 225.96C100.332 226.181 100.11 226.484 99.9749 226.87C99.8337 227.274 99.8095 227.665 99.9022 228.043C99.9938 228.424 100.202 228.769 100.527 229.079C100.852 229.39 101.293 229.642 101.851 229.837L102.731 230.145L102.318 231.325L101.439 231.017C101.003 230.865 100.592 230.81 100.208 230.852C99.8209 230.893 99.4842 231.024 99.1983 231.245C98.9088 231.465 98.6966 231.768 98.5616 232.154C98.4317 232.526 98.4008 232.879 98.4691 233.211C98.5374 233.544 98.6948 233.84 98.9415 234.099C99.1845 234.356 99.5081 234.556 99.9121 234.697C100.291 234.829 100.673 234.884 101.058 234.862C101.438 234.843 101.779 234.739 102.081 234.552C102.382 234.368 102.605 234.097 102.751 233.739L104.038 234.189C103.815 234.757 103.466 235.2 102.989 235.519C102.511 235.842 101.967 236.033 101.356 236.092C100.742 236.151 100.119 236.069 99.4858 235.848C98.8064 235.61 98.2717 235.269 97.8816 234.824C97.4902 234.382 97.2421 233.892 97.1373 233.354C97.0325 232.816 97.0707 232.287 97.2518 231.769C97.468 231.15 97.815 230.68 98.2929 230.357C98.7672 230.033 99.3108 229.884 99.9238 229.91L99.9538 229.824C99.3001 229.467 98.8614 228.983 98.6378 228.371C98.413 227.763 98.4225 227.11 98.6661 226.413C98.8748 225.816 99.225 225.336 99.7166 224.974C100.203 224.615 100.773 224.397 101.426 224.32C102.079 224.243 102.761 224.329 103.472 224.578Z" fill="#71C4FF"/>
<path d="M93.734 223.675L93.1992 224.703L84.9297 229.522L84.1836 229.134L85.0119 227.541L85.516 227.804L91.7644 224.162L91.8063 224.081L85.6965 220.904L86.2732 219.795L93.734 223.675ZM89.9753 219.03L88.7119 221.46L88.4629 221.939L84.6071 229.355L83.4174 228.736L88.7856 218.412L89.9753 219.03Z" fill="#71C4FF"/>
<path d="M79.3795 212.463C80.0129 212.919 80.4918 213.433 80.8161 214.007C81.1351 214.582 81.2872 215.165 81.2724 215.757C81.2554 216.351 81.0617 216.902 80.6914 217.411C80.4069 217.812 80.063 218.125 79.6598 218.348C79.2543 218.574 78.8314 218.702 78.391 218.73C77.9452 218.76 77.5281 218.681 77.1395 218.495L77.0996 218.55C77.4676 218.992 77.6448 219.505 77.6313 220.088C77.6157 220.674 77.426 221.216 77.0623 221.715C76.7203 222.197 76.2902 222.539 75.7721 222.74C75.2541 222.941 74.7012 222.996 74.1137 222.904C73.5231 222.811 72.9511 222.565 72.3976 222.167C71.8503 221.773 71.44 221.312 71.1666 220.784C70.8932 220.256 70.7696 219.714 70.7957 219.159C70.8187 218.602 71.0013 218.082 71.3433 217.6C71.707 217.101 72.1657 216.752 72.7195 216.554C73.2679 216.355 73.8056 216.357 74.3324 216.559L74.3722 216.504C74.0752 216.197 73.8728 215.829 73.765 215.402C73.6551 214.977 73.6414 214.536 73.724 214.077C73.8044 213.622 73.9869 213.193 74.2714 212.791C74.6417 212.283 75.1075 211.928 75.6687 211.725C76.2247 211.523 76.8259 211.482 77.4723 211.602C78.1135 211.722 78.7492 212.009 79.3795 212.463ZM78.6495 213.477C78.2221 213.17 77.8033 212.974 77.3932 212.889C76.9831 212.804 76.6028 212.826 76.2523 212.957C75.9018 213.087 75.6033 213.32 75.3569 213.656C75.1034 214.015 74.9688 214.397 74.9534 214.801C74.9379 215.205 75.0305 215.598 75.2313 215.981C75.4291 216.361 75.7278 216.695 76.1275 216.983C76.5303 217.272 76.9464 217.453 77.376 217.524C77.8024 217.593 78.2048 217.556 78.5831 217.413C78.9583 217.267 79.2727 217.015 79.5262 216.656C79.7727 216.32 79.9036 215.966 79.9189 215.595C79.9312 215.221 79.8303 214.852 79.6163 214.488C79.4022 214.124 79.0799 213.787 78.6495 213.477ZM75.424 217.96C75.0858 217.717 74.7373 217.569 74.3786 217.516C74.0169 217.461 73.6733 217.501 73.3478 217.636C73.0224 217.77 72.7409 217.999 72.5033 218.323C72.2763 218.645 72.1514 218.977 72.1287 219.32C72.1037 219.666 72.1755 219.998 72.3439 220.315C72.5101 220.635 72.767 220.92 73.1144 221.17C73.468 221.425 73.8246 221.581 74.1841 221.639C74.5415 221.7 74.8787 221.663 75.1957 221.527C75.5106 221.394 75.7815 221.167 76.0085 220.845C76.2461 220.521 76.3785 220.185 76.4056 219.836C76.4298 219.484 76.3583 219.146 76.1912 218.82C76.0241 218.495 75.7684 218.208 75.424 217.96Z" fill="#71C4FF"/>
<path d="M71.4431 206.593L60.598 210.526L60.5357 210.592L64.9059 214.703L64.0494 215.614L58.6197 210.506L59.5229 209.546L70.3671 205.581L71.4431 206.593Z" fill="#71C4FF"/>
</g>
</g>
<defs>
<clipPath id="clip0_74_163">
<rect width="266" height="266" fill="white"/>
</clipPath>
</defs>
</svg>
