<svg width="266" height="266" viewBox="0 0 266 266" fill="none" xmlns="http://www.w3.org/2000/svg">
<g opacity="0.15">
<path d="M237.287 138.231C237.339 137.505 237.567 136.878 237.973 136.348C238.383 135.819 238.935 135.421 239.63 135.155C240.328 134.889 241.138 134.789 242.06 134.854C242.975 134.919 243.757 135.132 244.407 135.493C245.058 135.854 245.546 136.328 245.873 136.913C246.2 137.498 246.338 138.157 246.286 138.89C246.246 139.457 246.12 139.898 245.908 140.213C245.699 140.533 245.469 140.771 245.219 140.928C244.972 141.089 244.77 141.213 244.612 141.301L244.604 141.414L248.888 141.717L248.794 143.055L237.186 142.233L237.278 140.941L238.615 141.036L238.627 140.877C238.475 140.768 238.285 140.614 238.056 140.415C237.83 140.217 237.635 139.943 237.47 139.593C237.309 139.244 237.248 138.79 237.287 138.231ZM238.476 138.497C238.438 139.033 238.546 139.497 238.799 139.887C239.056 140.277 239.428 140.586 239.913 140.814C240.402 141.043 240.975 141.18 241.632 141.226C242.282 141.272 242.857 141.218 243.358 141.064C243.863 140.91 244.264 140.657 244.562 140.306C244.865 139.955 245.035 139.508 245.073 138.964C245.113 138.397 245.001 137.914 244.737 137.516C244.476 137.122 244.105 136.812 243.624 136.588C243.146 136.369 242.6 136.237 241.988 136.194C241.369 136.15 240.799 136.204 240.279 136.357C239.763 136.515 239.343 136.77 239.018 137.123C238.696 137.48 238.516 137.938 238.476 138.497Z" fill="#71C4FF"/>
<path d="M244.254 154.776L243.135 154.577L243.93 150.124L245.049 150.324L244.254 154.776ZM246.875 151.989L246.64 153.309L238.451 151.847C238.078 151.781 237.789 151.785 237.583 151.86C237.38 151.939 237.232 152.059 237.138 152.219C237.047 152.384 236.984 152.563 236.95 152.757C236.924 152.902 236.91 153.023 236.908 153.119C236.91 153.215 236.912 153.292 236.913 153.35L235.679 153.407C235.662 153.312 235.65 153.181 235.645 153.015C235.637 152.848 235.654 152.641 235.698 152.395C235.765 152.022 235.91 151.671 236.135 151.341C236.358 151.016 236.655 150.765 237.025 150.589C237.394 150.416 237.829 150.374 238.329 150.463L246.875 151.989Z" fill="#71C4FF"/>
<path d="M233.784 160.586C234.016 159.778 234.394 159.132 234.919 158.648C235.446 158.169 236.078 157.863 236.813 157.731C237.551 157.603 238.35 157.663 239.209 157.909C240.068 158.155 240.781 158.529 241.346 159.03C241.915 159.536 242.302 160.123 242.508 160.793C242.717 161.468 242.712 162.184 242.495 162.941C242.37 163.378 242.174 163.789 241.906 164.173C241.638 164.557 241.29 164.877 240.862 165.133C240.438 165.389 239.929 165.545 239.334 165.599C238.739 165.653 238.05 165.568 237.267 165.344L236.721 165.187L238.575 158.72L239.689 159.04L238.211 164.196C238.684 164.331 239.134 164.358 239.56 164.275C239.984 164.196 240.354 164.014 240.668 163.729C240.98 163.449 241.204 163.075 241.337 162.609C241.484 162.096 241.484 161.615 241.337 161.167C241.192 160.723 240.946 160.344 240.6 160.028C240.253 159.711 239.848 159.487 239.386 159.355L238.643 159.142C238.009 158.96 237.441 158.915 236.938 159.008C236.437 159.105 236.016 159.317 235.674 159.644C235.335 159.973 235.091 160.398 234.942 160.918C234.845 161.257 234.805 161.576 234.821 161.877C234.84 162.181 234.917 162.462 235.053 162.717C235.192 162.974 235.392 163.199 235.652 163.391L234.945 164.536C234.561 164.284 234.252 163.958 234.021 163.556C233.792 163.156 233.654 162.703 233.606 162.196C233.562 161.691 233.621 161.154 233.784 160.586Z" fill="#71C4FF"/>
<path d="M229.377 173.571C229.644 172.96 230.006 172.463 230.463 172.08C230.92 171.697 231.424 171.45 231.977 171.341C232.529 171.231 233.082 171.28 233.636 171.49L233.089 172.739C232.586 172.576 232.091 172.62 231.605 172.871C231.121 173.127 230.76 173.527 230.522 174.072C230.33 174.509 230.263 174.942 230.319 175.372C230.373 175.805 230.537 176.197 230.809 176.548C231.083 176.903 231.448 177.181 231.903 177.38C232.368 177.583 232.827 177.662 233.281 177.617C233.737 177.576 234.148 177.425 234.515 177.164C234.881 176.903 235.166 176.545 235.368 176.092C235.514 175.768 235.61 175.411 235.657 175.022C235.706 174.634 235.7 174.294 235.637 174.002L236.311 172.858L241.276 175.799L238.853 181.338L237.708 180.837L239.657 176.381L236.677 174.631L236.65 174.693C236.728 174.988 236.752 175.325 236.722 175.705C236.692 176.085 236.599 176.453 236.443 176.811C236.158 177.463 235.747 177.976 235.212 178.35C234.678 178.728 234.079 178.945 233.413 179.002C232.746 179.061 232.067 178.94 231.377 178.638C230.697 178.34 230.156 177.922 229.755 177.383C229.356 176.849 229.119 176.249 229.042 175.582C228.969 174.918 229.08 174.247 229.377 173.571Z" fill="#71C4FF"/>
<path d="M224.941 183.401L231.076 193.171L231.154 193.218L234.249 188.078L235.32 188.723L231.474 195.109L230.345 194.429L224.179 184.667L224.941 183.401Z" fill="#71C4FF"/>
<path d="M215.702 197.15C216.006 196.782 216.374 196.466 216.808 196.201C217.242 195.937 217.744 195.78 218.312 195.73C218.883 195.682 219.52 195.785 220.223 196.041C220.928 196.299 221.701 196.763 222.542 197.434C223.347 198.077 224 198.722 224.501 199.37C225.005 200.019 225.356 200.658 225.553 201.285C225.753 201.915 225.802 202.521 225.7 203.104C225.596 203.69 225.34 204.239 224.931 204.751C224.524 205.26 224.061 205.631 223.54 205.865C223.019 206.104 222.478 206.205 221.916 206.168C221.354 206.132 220.808 205.962 220.278 205.661L221.143 204.577C221.632 204.803 222.127 204.878 222.628 204.803C223.129 204.728 223.571 204.451 223.954 203.971C224.516 203.266 224.653 202.467 224.364 201.572C224.073 200.68 223.375 199.791 222.27 198.904L222.213 198.975C222.333 199.342 222.39 199.71 222.386 200.08C222.382 200.455 222.318 200.82 222.193 201.177C222.069 201.533 221.883 201.867 221.634 202.177C221.218 202.698 220.708 203.071 220.102 203.295C219.5 203.522 218.866 203.583 218.203 203.48C217.542 203.379 216.918 203.094 216.332 202.626C215.77 202.177 215.355 201.64 215.088 201.015C214.824 200.393 214.737 199.743 214.825 199.068C214.915 198.397 215.207 197.758 215.702 197.15ZM216.679 197.93C216.381 198.303 216.207 198.712 216.157 199.157C216.105 199.605 216.167 200.04 216.344 200.462C216.518 200.887 216.798 201.253 217.183 201.561C217.559 201.861 217.968 202.049 218.411 202.126C218.854 202.209 219.284 202.177 219.702 202.03C220.117 201.887 220.473 201.628 220.771 201.255C220.996 200.974 221.148 200.667 221.23 200.335C221.314 200.005 221.333 199.671 221.287 199.334C221.239 199 221.132 198.681 220.966 198.379C220.803 198.079 220.585 197.821 220.313 197.603C219.952 197.315 219.547 197.13 219.099 197.048C218.648 196.969 218.208 197.001 217.779 197.144C217.348 197.289 216.981 197.551 216.679 197.93Z" fill="#71C4FF"/>
<path d="M205.927 208.166C206.471 207.651 207.045 207.284 207.649 207.068C208.249 206.854 208.832 206.795 209.398 206.89C209.963 206.991 210.466 207.253 210.908 207.675L209.868 208.659C209.588 208.408 209.272 208.261 208.92 208.22C208.57 208.181 208.21 208.234 207.842 208.379C207.474 208.525 207.127 208.751 206.803 209.058C206.44 209.402 206.178 209.77 206.017 210.162C205.856 210.555 205.803 210.939 205.857 211.316C205.911 211.692 206.079 212.029 206.36 212.326C206.655 212.637 206.991 212.837 207.369 212.928C207.749 213.022 208.152 212.995 208.577 212.848C209.001 212.702 209.428 212.425 209.857 212.019L210.534 211.378L211.393 212.286L210.717 212.927C210.381 213.245 210.144 213.584 210.006 213.944C209.865 214.308 209.827 214.667 209.892 215.022C209.955 215.38 210.127 215.708 210.408 216.005C210.679 216.291 210.978 216.48 211.305 216.572C211.632 216.664 211.967 216.66 212.31 216.559C212.65 216.461 212.976 216.265 213.287 215.971C213.578 215.695 213.802 215.381 213.959 215.029C214.116 214.682 214.181 214.331 214.153 213.977C214.127 213.625 213.989 213.302 213.737 213.009L214.727 212.071C215.13 212.53 215.364 213.044 215.429 213.614C215.496 214.186 215.416 214.757 215.189 215.327C214.959 215.9 214.601 216.416 214.114 216.878C213.591 217.372 213.043 217.691 212.468 217.834C211.896 217.979 211.347 217.975 210.821 217.821C210.294 217.667 209.842 217.391 209.465 216.992C209.014 216.516 208.755 215.992 208.688 215.42C208.617 214.85 208.734 214.298 209.038 213.765L208.976 213.699C208.359 214.117 207.727 214.284 207.081 214.202C206.437 214.123 205.862 213.816 205.354 213.279C204.919 212.82 204.653 212.289 204.557 211.686C204.461 211.089 204.528 210.482 204.759 209.867C204.99 209.252 205.379 208.685 205.927 208.166Z" fill="#71C4FF"/>
<path d="M199.693 217.313L200.363 218.259L200.866 227.817L200.18 228.303L199.142 226.838L199.606 226.51L199.225 219.288L199.173 219.213L193.553 223.193L192.831 222.173L199.693 217.313ZM193.844 218.532L195.427 220.766L195.739 221.207L200.569 228.027L199.475 228.802L192.75 219.307L193.844 218.532Z" fill="#71C4FF"/>
<path d="M183.194 221.603C183.395 221.498 183.583 221.42 183.759 221.371C183.932 221.319 184.057 221.292 184.133 221.291L184.379 222.496C184.052 222.573 183.783 222.68 183.572 222.816C183.361 222.952 183.217 223.154 183.139 223.421C183.056 223.687 183.045 224.054 183.106 224.522L183.201 225.242L190.129 231.517L188.84 232.192L183.48 227.148L183.4 227.19L184.491 234.469L183.203 235.144L181.846 224.566C181.785 224.09 181.795 223.663 181.876 223.287C181.955 222.908 182.106 222.579 182.327 222.3C182.546 222.024 182.835 221.791 183.194 221.603Z" fill="#71C4FF"/>
<path d="M170.806 230.916C171.489 230.666 172.155 230.617 172.805 230.771C173.455 230.927 174.044 231.268 174.571 231.793C175.1 232.322 175.523 233.02 175.841 233.887C176.157 234.748 176.283 235.549 176.22 236.29C176.157 237.032 175.925 237.671 175.525 238.209C175.125 238.747 174.581 239.142 173.891 239.395C173.357 239.591 172.903 239.657 172.528 239.592C172.152 239.533 171.84 239.421 171.595 239.257C171.347 239.097 171.15 238.964 171.006 238.855L170.899 238.894L172.377 242.927L171.118 243.389L167.113 232.464L168.33 232.018L168.791 233.277L168.941 233.222C168.978 233.039 169.041 232.802 169.128 232.512C169.217 232.225 169.387 231.935 169.638 231.641C169.891 231.351 170.28 231.109 170.806 230.916ZM171.05 232.11C170.545 232.295 170.167 232.583 169.915 232.974C169.664 233.368 169.534 233.833 169.525 234.369C169.517 234.909 169.626 235.488 169.853 236.107C170.077 236.719 170.362 237.221 170.708 237.615C171.056 238.012 171.45 238.275 171.893 238.403C172.337 238.535 172.814 238.507 173.327 238.319C173.86 238.124 174.254 237.824 174.51 237.42C174.763 237.02 174.893 236.555 174.9 236.024C174.905 235.498 174.801 234.946 174.59 234.37C174.376 233.787 174.093 233.29 173.741 232.878C173.386 232.472 172.981 232.193 172.526 232.041C172.068 231.894 171.577 231.917 171.05 232.11Z" fill="#71C4FF"/>
<path d="M156.417 235.405C156.886 235.313 157.371 235.302 157.875 235.372C158.378 235.443 158.865 235.638 159.337 235.96C159.809 236.285 160.236 236.768 160.618 237.411C161 238.057 161.304 238.907 161.529 239.959C161.745 240.966 161.842 241.879 161.819 242.697C161.798 243.519 161.664 244.235 161.419 244.846C161.175 245.46 160.829 245.96 160.381 246.346C159.929 246.733 159.383 246.996 158.742 247.133C158.105 247.269 157.511 247.263 156.96 247.113C156.406 246.969 155.923 246.704 155.512 246.32C155.1 245.935 154.785 245.458 154.566 244.889L155.922 244.599C156.157 245.083 156.493 245.455 156.928 245.714C157.363 245.974 157.881 246.039 158.481 245.911C159.362 245.722 159.975 245.19 160.318 244.314C160.657 243.44 160.681 242.31 160.388 240.923L160.299 240.942C160.159 241.302 159.97 241.623 159.733 241.906C159.492 242.194 159.211 242.436 158.889 242.633C158.567 242.83 158.211 242.97 157.822 243.053C157.17 243.193 156.539 243.157 155.929 242.947C155.319 242.741 154.79 242.387 154.342 241.887C153.895 241.39 153.593 240.775 153.435 240.041C153.285 239.337 153.304 238.659 153.494 238.007C153.684 237.358 154.028 236.8 154.524 236.333C155.018 235.871 155.649 235.562 156.417 235.405ZM156.679 236.627C156.212 236.727 155.819 236.934 155.498 237.246C155.174 237.56 154.947 237.936 154.816 238.374C154.682 238.814 154.666 239.274 154.769 239.756C154.87 240.226 155.067 240.631 155.36 240.971C155.651 241.316 156.004 241.564 156.42 241.715C156.832 241.867 157.272 241.893 157.738 241.793C158.09 241.718 158.403 241.577 158.677 241.371C158.951 241.169 159.177 240.923 159.355 240.633C159.53 240.344 159.648 240.03 159.712 239.691C159.775 239.356 159.771 239.018 159.698 238.677C159.601 238.225 159.405 237.826 159.11 237.478C158.811 237.132 158.451 236.878 158.029 236.716C157.603 236.556 157.153 236.526 156.679 236.627Z" fill="#71C4FF"/>
<path d="M141.939 237.723C142.687 237.669 143.363 237.749 143.968 237.964C144.568 238.179 145.056 238.503 145.433 238.935C145.806 239.372 146.03 239.893 146.104 240.499L144.676 240.602C144.619 240.23 144.467 239.916 144.221 239.661C143.975 239.409 143.663 239.222 143.286 239.101C142.909 238.98 142.498 238.936 142.052 238.968C141.553 239.004 141.117 239.123 140.744 239.324C140.372 239.526 140.087 239.789 139.89 240.115C139.693 240.441 139.609 240.807 139.639 241.215C139.67 241.642 139.802 242.011 140.037 242.32C140.273 242.634 140.601 242.868 141.022 243.024C141.444 243.18 141.949 243.236 142.538 243.194L143.468 243.127L143.558 244.374L142.628 244.441C142.167 244.474 141.769 244.586 141.433 244.777C141.094 244.969 140.837 245.223 140.662 245.539C140.484 245.856 140.409 246.218 140.439 246.626C140.467 247.019 140.578 247.355 140.773 247.633C140.968 247.912 141.23 248.121 141.559 248.26C141.884 248.4 142.26 248.455 142.687 248.424C143.088 248.395 143.46 248.294 143.805 248.121C144.146 247.953 144.418 247.722 144.621 247.43C144.824 247.142 144.921 246.805 144.912 246.418L146.273 246.32C146.294 246.93 146.149 247.476 145.838 247.958C145.527 248.444 145.104 248.835 144.567 249.132C144.026 249.429 143.421 249.602 142.753 249.65C142.035 249.702 141.409 249.6 140.874 249.347C140.339 249.096 139.917 248.745 139.607 248.293C139.297 247.84 139.123 247.34 139.083 246.792C139.036 246.139 139.168 245.569 139.479 245.083C139.786 244.598 140.225 244.245 140.798 244.026L140.792 243.935C140.05 243.867 139.455 243.596 139.007 243.124C138.559 242.655 138.309 242.052 138.256 241.315C138.211 240.684 138.342 240.105 138.649 239.578C138.953 239.054 139.39 238.628 139.959 238.298C140.527 237.969 141.188 237.777 141.939 237.723Z" fill="#71C4FF"/>
<path d="M130.725 238.379L124.897 248.334L124.891 248.425L130.88 248.794L130.803 250.042L123.363 249.583L123.444 248.268L129.25 238.288L130.725 238.379Z" fill="#71C4FF"/>
<path d="M117.735 237.408L117.538 238.412L112.961 241.8C112.424 242.196 111.977 242.545 111.621 242.846C111.264 243.15 110.986 243.447 110.787 243.736C110.583 244.028 110.447 244.349 110.378 244.698C110.299 245.099 110.328 245.466 110.464 245.798C110.596 246.128 110.812 246.406 111.111 246.631C111.411 246.855 111.767 247.008 112.179 247.089C112.618 247.175 113.019 247.159 113.381 247.041C113.74 246.926 114.04 246.724 114.282 246.436C114.52 246.146 114.681 245.784 114.767 245.349L116.082 245.607C115.951 246.276 115.682 246.833 115.274 247.278C114.867 247.724 114.37 248.035 113.783 248.214C113.192 248.391 112.564 248.415 111.899 248.285C111.23 248.153 110.664 247.896 110.203 247.512C109.742 247.129 109.411 246.668 109.211 246.131C109.012 245.594 108.969 245.032 109.085 244.445C109.167 244.025 109.324 243.629 109.555 243.257C109.781 242.889 110.128 242.495 110.596 242.077C111.06 241.663 111.687 241.168 112.479 240.594L115.582 238.353L115.599 238.264L110.291 237.224L110.531 235.997L117.735 237.408Z" fill="#71C4FF"/>
<path d="M99.8628 232.963C100.572 233.208 101.161 233.549 101.632 233.984C102.098 234.419 102.42 234.909 102.595 235.455C102.766 236.003 102.766 236.57 102.595 237.156L101.242 236.688C101.336 236.324 101.321 235.975 101.195 235.643C101.069 235.315 100.856 235.021 100.557 234.761C100.258 234.501 99.8975 234.298 99.4752 234.152C99.0027 233.988 98.5554 233.925 98.1333 233.963C97.7112 234.002 97.3455 234.131 97.0363 234.353C96.727 234.575 96.5054 234.879 96.3715 235.265C96.2314 235.67 96.2083 236.061 96.3021 236.438C96.3947 236.819 96.6039 237.164 96.9297 237.473C97.2555 237.782 97.6976 238.034 98.256 238.227L99.1364 238.532L98.7273 239.713L97.8468 239.408C97.4102 239.257 96.9999 239.203 96.6161 239.246C96.2286 239.289 95.8923 239.421 95.607 239.642C95.3181 239.863 95.1067 240.167 94.9728 240.553C94.8439 240.925 94.814 241.278 94.8832 241.611C94.9524 241.943 95.1106 242.238 95.358 242.497C95.6017 242.753 95.9259 242.952 96.3303 243.092C96.7097 243.223 97.0918 243.278 97.4766 243.254C97.8566 243.234 98.1974 243.129 98.4991 242.941C98.7995 242.757 99.0219 242.485 99.1663 242.126L100.455 242.572C100.234 243.141 99.8853 243.586 99.4096 243.906C98.9326 244.23 98.3889 244.422 97.7785 244.483C97.1645 244.543 96.5407 244.464 95.9071 244.244C95.2271 244.009 94.6914 243.669 94.3001 243.224C93.9075 242.784 93.6581 242.295 93.5518 241.757C93.4455 241.219 93.4822 240.69 93.662 240.171C93.8765 239.552 94.2222 239.081 94.6991 238.757C95.1725 238.432 95.7157 238.281 96.3288 238.305L96.3586 238.219C95.7039 237.864 95.2639 237.381 95.0386 236.77C94.8121 236.162 94.8198 235.509 95.0615 234.811C95.2686 234.214 95.6174 233.733 96.108 233.37C96.5938 233.009 97.163 232.789 97.8156 232.711C98.4681 232.632 99.1506 232.716 99.8628 232.963Z" fill="#71C4FF"/>
<path d="M86.6104 227.596C87.2046 227.898 87.6795 228.289 88.0352 228.767C88.391 229.246 88.6075 229.764 88.6848 230.322C88.7622 230.88 88.6803 231.429 88.4393 231.97L87.224 231.351C87.4156 230.858 87.4005 230.361 87.1787 229.862C86.9519 229.364 86.5735 228.98 86.0435 228.71C85.6181 228.494 85.1893 228.401 84.7571 228.432C84.3216 228.461 83.9208 228.601 83.5548 228.852C83.1837 229.106 82.8856 229.453 82.6605 229.896C82.4303 230.348 82.3246 230.802 82.3433 231.258C82.357 231.715 82.4836 232.135 82.7232 232.516C82.9627 232.897 83.3027 233.202 83.7432 233.43C84.0588 233.595 84.4095 233.712 84.7953 233.781C85.1793 233.853 85.5189 233.866 85.8139 233.821L86.9166 234.561L83.6909 239.345L78.3031 236.603L78.8701 235.489L83.2046 237.695L85.1258 234.822L85.065 234.791C84.7665 234.852 84.4285 234.856 84.0511 234.805C83.6737 234.753 83.3111 234.638 82.9634 234.461C82.3287 234.138 81.8406 233.699 81.499 233.142C81.1523 232.588 80.9703 231.976 80.953 231.309C80.9324 230.64 81.093 229.969 81.4349 229.297C81.7716 228.636 82.2208 228.12 82.7825 227.752C83.3391 227.385 83.9521 227.182 84.6215 227.145C85.2892 227.111 85.9521 227.261 86.6104 227.596Z" fill="#71C4FF"/>
<path d="M76.162 224.947L75.4976 225.897L66.6696 229.595L65.9805 229.113L67.0097 227.642L67.4753 227.968L74.1457 225.173L74.1978 225.098L68.5551 221.151L69.2717 220.127L76.162 224.947ZM73.0419 219.852L71.472 222.096L71.1626 222.538L66.3716 229.387L65.2729 228.618L71.9432 219.083L73.0419 219.852Z" fill="#71C4FF"/>
<path d="M62.3796 211.262C62.8676 211.716 63.2167 212.222 63.4269 212.78C63.6372 213.338 63.7027 213.896 63.6234 214.454C63.5442 215.011 63.3144 215.517 62.9339 215.97L61.9358 215.041C62.2558 214.619 62.3779 214.138 62.3023 213.597C62.2213 213.055 61.9632 212.582 61.5279 212.177C61.1785 211.852 60.7919 211.644 60.3679 211.555C59.9412 211.463 59.5172 211.488 59.0961 211.629C58.6697 211.77 58.2874 212.022 57.9493 212.385C57.6034 212.757 57.3768 213.164 57.2694 213.608C57.1566 214.051 57.1629 214.489 57.2882 214.922C57.4136 215.354 57.6566 215.741 58.0172 216.082C58.2752 216.327 58.5802 216.536 58.9321 216.708C59.2814 216.883 59.6041 216.99 59.9003 217.027L60.7567 218.042L56.3386 221.754L51.9137 217.635L52.7655 216.72L56.3253 220.034L58.9631 217.801L58.9132 217.754C58.6095 217.73 58.2834 217.641 57.9348 217.488C57.5862 217.334 57.2692 217.124 56.9836 216.858C56.4624 216.373 56.1141 215.816 55.9389 215.187C55.7583 214.558 55.7515 213.921 55.9187 213.274C56.0831 212.625 56.4221 212.025 56.9357 211.473C57.4416 210.929 58.0153 210.558 58.6567 210.358C59.2928 210.158 59.9378 210.133 60.5917 210.281C61.243 210.432 61.839 210.759 62.3796 211.262Z" fill="#71C4FF"/>
<path d="M53.3353 202.544L48.0923 210.011L47.2252 208.9L51.3314 203.301L51.2755 203.23L44.8617 205.872L43.9807 204.744L48.0969 199.195L48.0409 199.123L41.6311 201.734L40.764 200.623L49.2796 197.349L50.0908 198.388L45.9806 204.019L46.0646 204.126L52.5242 201.505L53.3353 202.544Z" fill="#71C4FF"/>
<path d="M41.0714 190.03L40.053 190.583L30.5023 189.955L30.1006 189.216L31.6781 188.358L31.9494 188.858L39.166 189.332L39.2459 189.289L35.9569 183.239L37.0551 182.642L41.0714 190.03ZM40.552 184.078L38.1459 185.386L37.6717 185.643L30.3286 189.635L29.6881 188.457L39.9116 182.9L40.552 184.078Z" fill="#71C4FF"/>
<path d="M35.8632 174.762L24.3936 173.524L24.3086 173.556L26.425 179.17L25.2553 179.611L22.6258 172.635L23.8593 172.17L35.3421 173.38L35.8632 174.762Z" fill="#71C4FF"/>
<path d="M22.1502 161.084L23.248 160.791L24.4631 165.336L23.3653 165.629L22.1502 161.084ZM31.4325 162.014L21.8377 164.579C21.3547 164.708 20.9218 164.702 20.5391 164.562C20.1565 164.421 19.8362 164.191 19.5783 163.872C19.3204 163.552 19.1377 163.192 19.0301 162.789C18.945 162.471 18.9011 162.204 18.8985 161.989C18.8959 161.774 18.9034 161.611 18.9209 161.501L20.1405 161.575C20.1361 161.646 20.1331 161.745 20.1315 161.871C20.1289 161.993 20.1525 162.148 20.2024 162.334C20.3169 162.763 20.5075 163.043 20.7743 163.175C21.0401 163.304 21.3816 163.313 21.7988 163.201L31.0862 160.718L31.4325 162.014Z" fill="#71C4FF"/>
<path d="M27.2951 156.001L26.1495 156.177L17.3729 152.359L17.2446 151.528L19.019 151.254L19.1057 151.815L25.7374 154.7L25.8273 154.686L24.7762 147.881L26.0116 147.69L27.2951 156.001ZM28.8175 150.223L26.1109 150.641L25.5775 150.724L17.3174 151.999L17.1128 150.674L28.6128 148.898L28.8175 150.223Z" fill="#71C4FF"/>
<path d="M15.3153 136.714L29.3864 139.902L29.4356 141.128L15.3645 137.94L15.3153 136.714Z" fill="#71C4FF"/>
<path d="M22.4198 129.043L19.9291 128.81L21.1475 130.996L20.1635 131.486L19.133 129.197L17.8491 131.354L16.9271 130.756L18.3861 128.722L15.885 128.67L15.9471 127.581L18.4378 127.814L17.2193 125.628L18.2034 125.137L19.2339 127.427L20.5178 125.269L21.4398 125.868L19.9808 127.902L22.4819 127.953L22.4198 129.043Z" fill="#71C4FF"/>
<path d="M16.8563 113.885L30.0499 119.723L29.8621 120.936L16.6684 115.098L16.8563 113.885Z" fill="#71C4FF"/>
<path d="M25.2734 107.887L22.8744 107.178L23.648 109.558L22.5878 109.849L22.0186 107.404L20.3424 109.273L19.5533 108.508L21.3774 106.794L18.9333 106.26L19.2044 105.204L21.6034 105.913L20.8298 103.533L21.89 103.241L22.4592 105.687L24.1354 103.818L24.9245 104.583L23.1003 106.297L25.5445 106.83L25.2734 107.887Z" fill="#71C4FF"/>
<path d="M29.292 93.2219L30.4617 93.6626L28.6666 98.4266L27.4969 97.9858L29.292 93.2219Z" fill="#71C4FF"/>
<path d="M27.631 80.7754L38.5127 90.2488L37.9752 91.3521L27.0934 81.8787L27.631 80.7754Z" fill="#71C4FF"/>
<path d="M38.4286 80.9491L37.4496 80.3286L33.3531 71.6782L33.8033 70.9679L35.3198 71.929L35.0156 72.409L38.1111 78.9452L38.1879 78.9938L41.8744 73.1773L42.9302 73.8464L38.4286 80.9491ZM43.3763 77.6003L41.0632 76.1342L40.6073 75.8453L33.5478 71.371L34.2656 70.2384L44.0942 76.4677L43.3763 77.6003Z" fill="#71C4FF"/>
<path d="M42.2762 59.2338L51.3154 66.5616L50.4281 67.6562L42.5364 61.2587L42.4934 61.3116L42.1698 64.7064L41.0575 63.8047L41.3888 60.3284L42.2762 59.2338Z" fill="#71C4FF"/>
<path d="M53.0726 60.6166L52.2644 59.7857L50.2889 50.4204L50.8917 49.8341L52.1436 51.1212L51.7363 51.5173L53.2292 58.5937L53.2926 58.6589L58.2291 53.8575L59.1006 54.7536L53.0726 60.6166ZM58.6628 58.5084L56.7534 56.5452L56.377 56.1583L50.5496 50.1669L51.5108 49.2319L59.624 57.5735L58.6628 58.5084Z" fill="#71C4FF"/>
<path d="M66.0714 51.6572L65.4684 50.8311L66.0917 45.1705C66.1655 44.507 66.213 43.9425 66.2341 43.4768C66.2531 43.0081 66.2243 42.6023 66.1476 42.2597C66.0718 41.9117 65.929 41.5939 65.719 41.3063C65.4778 40.9759 65.1895 40.7479 64.8539 40.6223C64.5215 40.4945 64.1711 40.4642 63.8028 40.5314C63.4344 40.5986 63.0805 40.7562 62.7409 41.0041C62.3799 41.2676 62.1194 41.5726 61.9596 41.919C61.8007 42.2602 61.7449 42.6174 61.7923 42.9908C61.8428 43.362 61.9987 43.7265 62.26 44.0845L61.177 44.875C60.775 44.3243 60.5491 43.7483 60.4993 43.1468C60.4495 42.5454 60.5585 41.9687 60.8263 41.4168C61.0971 40.8627 61.5064 40.3858 62.054 39.986C62.6047 39.584 63.1776 39.3441 63.7726 39.2661C64.3676 39.1882 64.93 39.2584 65.4597 39.4766C65.9895 39.6949 66.4309 40.0457 66.7837 40.5291C67.0361 40.8748 67.2201 41.2587 67.3359 41.6807C67.4525 42.0974 67.5052 42.6193 67.494 43.2465C67.4837 43.8684 67.4204 44.665 67.304 45.6363L66.8411 49.4351L66.8947 49.5086L71.2637 46.3194L72.0006 47.3291L66.0714 51.6572Z" fill="#71C4FF"/>
<path d="M81.4138 41.5872C80.7529 41.9416 80.1028 42.1441 79.4637 42.1945C78.8279 42.2432 78.2498 42.147 77.7294 41.906C77.2106 41.6599 76.7937 41.2752 76.4788 40.7521L77.7406 40.0754C77.9445 40.3916 78.2111 40.6161 78.5403 40.7491C78.8677 40.8787 79.2282 40.9218 79.6218 40.8783C80.0154 40.8349 80.4092 40.7075 80.8031 40.4963C81.2437 40.26 81.5931 39.9738 81.8513 39.6376C82.1094 39.3015 82.2619 38.9446 82.3087 38.5671C82.3556 38.1895 82.2823 37.8205 82.089 37.46C81.8867 37.0827 81.6151 36.8007 81.2742 36.6139C80.9315 36.4237 80.5361 36.3435 80.0878 36.3732C79.6396 36.403 79.1551 36.5575 78.6343 36.8368L77.8131 37.2771L77.2224 36.1755L78.0436 35.7352C78.4509 35.5168 78.7687 35.2518 78.997 34.9402C79.2287 34.6269 79.3597 34.2901 79.3901 33.93C79.4238 33.568 79.344 33.2068 79.1507 32.8463C78.9645 32.4991 78.7257 32.2382 78.4344 32.0635C78.143 31.8888 77.8186 31.8049 77.4612 31.8117C77.1071 31.8167 76.7415 31.9204 76.3643 32.1227C76.0104 32.3124 75.7115 32.5565 75.4676 32.855C75.2251 33.1483 75.0708 33.4696 75.0045 33.8189C74.9364 34.1649 74.9854 34.5126 75.1513 34.862L73.9495 35.5065C73.6813 34.9583 73.5908 34.4008 73.678 33.834C73.7634 33.2638 73.9906 32.7337 74.3596 32.2435C74.7319 31.7516 75.2135 31.3472 75.8043 31.0303C76.4386 30.6902 77.0516 30.527 77.6435 30.5405C78.2335 30.5508 78.7623 30.6992 79.2297 30.9858C79.6972 31.2724 80.0607 31.6577 80.3202 32.1418C80.6299 32.7193 80.7421 33.2931 80.6567 33.8633C80.5746 34.4316 80.317 34.933 79.8837 35.3674L79.9267 35.4475C80.6315 35.207 81.285 35.2112 81.8869 35.4601C82.4871 35.7056 82.9617 36.1538 83.3108 36.8048C83.6097 37.3623 83.7263 37.9444 83.6606 38.5513C83.5965 39.1531 83.3721 39.7204 82.9874 40.2534C82.6026 40.7863 82.0781 41.2309 81.4138 41.5872Z" fill="#71C4FF"/>
<path d="M89.834 34.4022L89.4377 33.3129L91.4771 23.9613L92.2673 23.6738L92.8811 25.361L92.3472 25.5553L90.8065 32.6214L90.8376 32.7069L97.309 30.3525L97.7364 31.5272L89.834 34.4022ZM95.7971 34.7721L94.8608 32.1985L94.6762 31.6913L91.8188 23.8369L93.0789 23.3785L97.0572 34.3137L95.7971 34.7721Z" fill="#71C4FF"/>
<path d="M108.998 30.9709C108.346 31.1083 107.731 31.1024 107.154 30.953C106.577 30.8037 106.083 30.5361 105.672 30.1503C105.262 29.7645 104.981 29.2856 104.83 28.7136L106.164 28.4325C106.324 28.9368 106.648 29.3138 107.134 29.5636C107.623 29.809 108.159 29.8703 108.741 29.7477C109.208 29.6493 109.6 29.4525 109.917 29.1573C110.238 28.8613 110.462 28.5006 110.589 28.075C110.719 27.6451 110.733 27.1873 110.63 26.7017C110.526 26.2051 110.323 25.7852 110.022 25.4421C109.725 25.0945 109.363 24.8475 108.937 24.701C108.512 24.5546 108.056 24.5307 107.569 24.6293C107.22 24.699 106.874 24.8281 106.53 25.0166C106.186 25.2014 105.913 25.404 105.712 25.6245L104.389 25.7406L103.898 19.9911L109.813 18.7447L110.071 19.9679L105.312 20.9706L105.619 24.413L105.686 24.399C105.88 24.1645 106.141 23.9489 106.467 23.7524C106.793 23.5559 107.147 23.4175 107.529 23.337C108.226 23.1902 108.882 23.2262 109.497 23.445C110.115 23.6593 110.64 24.0209 111.073 24.5298C111.509 25.0379 111.805 25.6608 111.96 26.3984C112.113 27.1248 112.087 27.8078 111.881 28.4473C111.678 29.0824 111.328 29.6246 110.83 30.074C110.332 30.5196 109.721 30.8186 108.998 30.9709Z" fill="#71C4FF"/>
<path d="M123.018 28.748C122.542 28.7745 122.059 28.718 121.571 28.5782C121.082 28.4385 120.627 28.1769 120.204 27.7932C119.782 27.4057 119.426 26.8672 119.137 26.1778C118.848 25.4845 118.666 24.6014 118.589 23.5284C118.515 22.5007 118.546 21.5833 118.682 20.776C118.818 19.965 119.049 19.2744 119.377 18.7041C119.704 18.13 120.116 17.6827 120.614 17.3623C121.115 17.0416 121.692 16.8578 122.346 16.811C122.996 16.7645 123.583 16.8534 124.108 17.0778C124.636 17.2982 125.078 17.6274 125.432 18.0653C125.786 18.5033 126.032 19.0192 126.169 19.6132L124.786 19.7122C124.621 19.2 124.34 18.7853 123.945 18.468C123.551 18.1507 123.047 18.014 122.435 18.0578C121.536 18.1222 120.855 18.564 120.394 19.3832C119.936 20.202 119.756 21.3181 119.853 22.7315L119.944 22.725C120.132 22.3887 120.364 22.0968 120.639 21.8492C120.917 21.5976 121.229 21.3968 121.575 21.2467C121.922 21.0966 122.293 21.0073 122.69 20.9789C123.355 20.9313 123.975 21.0539 124.55 21.3469C125.126 21.6361 125.6 22.0597 125.974 22.6177C126.348 23.172 126.562 23.8232 126.616 24.5712C126.667 25.2891 126.553 25.958 126.275 26.578C125.996 27.1941 125.579 27.6988 125.022 28.0918C124.469 28.4808 123.801 28.6995 123.018 28.748ZM122.929 27.5012C123.405 27.4671 123.824 27.3175 124.184 27.0524C124.549 26.7871 124.826 26.4463 125.017 26.0301C125.211 25.6136 125.291 25.1598 125.255 24.6687C125.221 24.1888 125.082 23.7602 124.839 23.3827C124.599 23.0011 124.283 22.7066 123.892 22.4991C123.505 22.2914 123.074 22.2046 122.598 22.2387C122.239 22.2644 121.91 22.3601 121.61 22.5259C121.31 22.6879 121.052 22.9 120.835 23.1624C120.622 23.4245 120.461 23.719 120.352 24.0458C120.242 24.3689 120.2 24.7042 120.224 25.0518C120.257 25.5127 120.396 25.9357 120.64 26.3208C120.888 26.7056 121.209 27.0072 121.605 27.2258C122.004 27.444 122.445 27.5358 122.929 27.5012Z" fill="#71C4FF"/>
<path d="M140.547 21.6851L139.324 21.9557C139.26 21.7509 139.16 21.5497 139.023 21.3521C138.891 21.1509 138.704 20.9807 138.461 20.8414C138.219 20.7021 137.903 20.6212 137.513 20.5987C136.98 20.5677 136.529 20.6649 136.159 20.8901C135.793 21.1117 135.6 21.4097 135.578 21.7841C135.559 22.1169 135.664 22.3867 135.895 22.5936C136.126 22.8005 136.495 22.9831 137.002 23.1415L138.277 23.5341C139.045 23.7683 139.608 24.0913 139.968 24.5029C140.327 24.9108 140.489 25.4191 140.454 26.0279C140.425 26.5271 140.256 26.965 139.945 27.3416C139.639 27.7184 139.224 28.0055 138.7 28.2028C138.177 28.4001 137.576 28.4791 136.9 28.4399C136.011 28.3884 135.287 28.1529 134.727 27.7334C134.167 27.314 133.831 26.7291 133.718 25.979L135.007 25.735C135.101 26.2109 135.31 26.5758 135.633 26.8298C135.959 27.084 136.397 27.227 136.945 27.2588C137.569 27.2949 138.072 27.1913 138.454 26.9478C138.841 26.7008 139.044 26.3901 139.066 26.0158C139.084 25.7132 138.993 25.4537 138.793 25.2373C138.593 25.017 138.277 24.8431 137.844 24.7156L136.412 24.2911C135.625 24.0558 135.055 23.7287 134.704 23.3099C134.357 22.8876 134.2 22.3758 134.235 21.7746C134.264 21.283 134.427 20.8561 134.725 20.4939C135.027 20.132 135.424 19.8572 135.917 19.6695C136.413 19.482 136.968 19.406 137.58 19.4415C138.443 19.4915 139.109 19.7198 139.578 20.1264C140.052 20.5333 140.375 21.0529 140.547 21.6851Z" fill="#71C4FF"/>
<path d="M146.762 29.0568L153.68 19.825L153.696 19.7355L147.788 18.6906L148.005 17.4597L155.346 18.7579L155.116 20.0559L148.217 29.314L146.762 29.0568Z" fill="#71C4FF"/>
<path d="M161.951 32.5423C161.148 32.2938 160.51 31.9021 160.037 31.3672C159.569 30.8299 159.276 30.1923 159.159 29.4544C159.047 28.714 159.124 27.9168 159.388 27.0627C159.652 26.2087 160.04 25.5042 160.553 24.9491C161.071 24.3915 161.666 24.0167 162.34 23.8247C163.019 23.6302 163.735 23.6494 164.487 23.8822C164.922 24.0166 165.328 24.2216 165.707 24.4973C166.085 24.773 166.398 25.1275 166.644 25.5606C166.892 25.9901 167.037 26.5028 167.079 27.0985C167.12 27.6943 167.021 28.3812 166.78 29.1592L166.612 29.702L160.186 27.7139L160.528 26.6066L165.652 28.1917C165.798 27.7212 165.833 27.2724 165.759 26.8451C165.689 26.4189 165.515 26.0458 165.237 25.726C164.963 25.4073 164.594 25.1763 164.131 25.033C163.621 24.8751 163.14 24.8652 162.689 25.0032C162.243 25.1388 161.858 25.3766 161.535 25.7167C161.212 26.0568 160.979 26.4566 160.837 26.9162L160.608 27.6544C160.414 28.2841 160.357 28.8514 160.439 29.3564C160.525 29.859 160.728 30.2847 161.049 30.6335C161.37 30.9788 161.79 31.2315 162.307 31.3915C162.644 31.4956 162.962 31.5426 163.263 31.5325C163.568 31.5199 163.85 31.4484 164.108 31.3182C164.368 31.1844 164.596 30.9895 164.794 30.7336L165.925 31.4638C165.664 31.8433 165.331 32.1447 164.925 32.3679C164.52 32.5876 164.064 32.7162 163.557 32.7536C163.051 32.7873 162.516 32.7169 161.951 32.5423Z" fill="#71C4FF"/>
<path d="M171.455 35.5952L174.922 27.5863L176.111 28.1009L175.587 29.3106L175.671 29.3467C175.988 29.0137 176.392 28.8065 176.881 28.7252C177.37 28.644 177.854 28.7072 178.334 28.9149C178.425 28.954 178.537 29.0046 178.671 29.0668C178.805 29.129 178.905 29.1786 178.972 29.2156L178.43 30.467C178.393 30.4385 178.304 30.3815 178.163 30.2959C178.028 30.2084 177.879 30.1293 177.715 30.0585C177.326 29.89 176.943 29.8212 176.566 29.8521C176.195 29.8811 175.858 29.9997 175.558 30.208C175.262 30.4143 175.036 30.6983 174.879 31.0598L172.685 36.1279L171.455 35.5952Z" fill="#71C4FF"/>
<path d="M182.943 41.2209C182.266 40.8322 181.737 40.3688 181.356 39.8309C180.98 39.2916 180.769 38.7271 180.724 38.1373C180.68 37.5443 180.816 36.9761 181.133 36.4328C181.375 36.004 181.685 35.658 182.064 35.3948C182.444 35.1284 182.852 34.9586 183.287 34.8854C183.727 34.8108 184.15 34.8463 184.556 34.992L184.59 34.9329C184.179 34.5307 183.95 34.0389 183.904 33.4576C183.86 32.873 183.993 32.314 184.304 31.7806C184.595 31.2663 184.988 30.8827 185.483 30.6297C185.978 30.3767 186.522 30.2657 187.116 30.2967C187.713 30.3296 188.307 30.5159 188.898 30.8555C189.483 31.1915 189.938 31.6081 190.264 32.1055C190.59 32.6029 190.768 33.129 190.799 33.684C190.833 34.2408 190.704 34.7763 190.413 35.2906C190.102 35.824 189.681 36.2179 189.151 36.4723C188.625 36.7252 188.09 36.7782 187.546 36.6313L187.512 36.6904C187.839 36.9655 188.077 37.3102 188.228 37.7245C188.381 38.1355 188.439 38.5733 188.404 39.0379C188.371 39.4992 188.233 39.9442 187.991 40.3731C187.674 40.9164 187.247 41.3176 186.709 41.5766C186.177 41.8342 185.583 41.9364 184.928 41.8832C184.278 41.8285 183.616 41.6078 182.943 41.2209ZM183.565 40.1371C184.022 40.3994 184.459 40.552 184.875 40.5948C185.292 40.6376 185.668 40.5762 186.003 40.4107C186.339 40.2451 186.612 39.9827 186.823 39.6233C187.038 39.2404 187.133 38.8472 187.107 38.4435C187.081 38.0399 186.949 37.6581 186.71 37.2981C186.475 36.94 186.144 36.6383 185.717 36.3929C185.287 36.1457 184.854 36.0087 184.42 35.9818C183.988 35.9568 183.592 36.0348 183.23 36.2158C182.872 36.3987 182.585 36.6815 182.369 37.0644C182.158 37.4238 182.064 37.7891 182.087 38.1603C182.113 38.5334 182.251 38.8901 182.501 39.2304C182.751 39.5707 183.106 39.8729 183.565 40.1371ZM186.317 35.3485C186.678 35.5561 187.04 35.6678 187.402 35.6837C187.768 35.7015 188.105 35.6269 188.415 35.4599C188.725 35.2929 188.982 35.0363 189.185 34.69C189.378 34.3466 189.469 34.0031 189.456 33.6596C189.446 33.3129 189.341 32.9903 189.141 32.692C188.943 32.3904 188.658 32.1329 188.287 31.9197C187.909 31.7027 187.539 31.5836 187.175 31.5626C186.813 31.5382 186.482 31.6098 186.18 31.7773C185.88 31.9415 185.634 32.1953 185.441 32.5387C185.238 32.885 185.14 33.2331 185.149 33.5832C185.161 33.9351 185.267 34.2645 185.466 34.5713C185.665 34.8781 185.949 35.1372 186.317 35.3485Z" fill="#71C4FF"/>
<path d="M195.4 49.2633C194.808 48.803 194.359 48.2911 194.053 47.7274C193.751 47.166 193.604 46.5987 193.613 46.0252C193.628 45.4512 193.81 44.9141 194.16 44.414L195.291 45.2926C195.085 45.6073 194.988 45.9421 195 46.2969C195.014 46.6487 195.121 46.9956 195.32 47.3378C195.52 47.6799 195.796 47.9881 196.149 48.2624C196.544 48.5692 196.947 48.7724 197.359 48.8719C197.771 48.9715 198.159 48.966 198.523 48.8556C198.887 48.7452 199.195 48.5285 199.446 48.2055C199.709 47.8675 199.856 47.5048 199.889 47.1175C199.923 46.7271 199.836 46.3331 199.627 45.9355C199.418 45.5379 199.08 45.1578 198.614 44.7952L197.878 44.2233L198.645 43.2364L199.381 43.8082C199.746 44.0918 200.117 44.2748 200.494 44.357C200.875 44.4416 201.235 44.4247 201.577 44.3063C201.921 44.1903 202.219 43.9707 202.47 43.6477C202.712 43.3367 202.854 43.0126 202.895 42.6753C202.936 42.3381 202.881 42.0076 202.73 41.6837C202.582 41.3622 202.339 41.0701 202.001 40.8074C201.684 40.561 201.339 40.3869 200.968 40.285C200.601 40.1825 200.245 40.1718 199.899 40.253C199.555 40.3312 199.257 40.517 199.005 40.8104L197.928 39.9736C198.32 39.506 198.793 39.1971 199.347 39.0467C199.902 38.8934 200.479 38.8859 201.077 39.0242C201.678 39.1649 202.243 39.4409 202.772 39.8524C203.34 40.294 203.738 40.7881 203.966 41.3345C204.196 41.8779 204.275 42.4214 204.203 42.9649C204.13 43.5085 203.926 43.9971 203.589 44.4307C203.187 44.9481 202.708 45.2835 202.152 45.4368C201.599 45.5925 201.036 45.5605 200.464 45.3407L200.408 45.4125C200.914 45.9592 201.175 46.5581 201.192 47.2092C201.211 47.8574 200.994 48.473 200.541 49.0562C200.152 49.5557 199.668 49.8985 199.086 50.0848C198.51 50.2704 197.901 50.2955 197.257 50.1601C196.614 50.0248 195.995 49.7259 195.4 49.2633Z" fill="#71C4FF"/>
<path d="M205.376 54.035L206.21 53.2295L215.581 51.2838L216.166 51.8885L214.875 53.1363L214.48 52.7277L207.399 54.1981L207.333 54.2613L212.119 59.213L211.22 60.0817L205.376 54.035ZM207.467 59.6319L209.436 57.7287L209.824 57.3536L215.834 51.5453L216.766 52.5095L208.398 60.5961L207.467 59.6319Z" fill="#71C4FF"/>
<path d="M216.292 70.094C215.899 69.555 215.653 68.9916 215.553 68.4037C215.453 67.8159 215.495 67.2558 215.679 66.7235C215.863 66.1913 216.185 65.739 216.645 65.3667L217.448 66.4692C217.053 66.8219 216.842 67.2712 216.813 67.8171C216.789 68.3638 216.952 68.8775 217.302 69.3583C217.583 69.7442 217.923 70.0214 218.322 70.19C218.724 70.3616 219.144 70.4184 219.585 70.3603C220.03 70.303 220.454 70.1283 220.855 69.8363C221.265 69.5376 221.565 69.1808 221.755 68.7661C221.951 68.3521 222.028 67.921 221.987 67.4726C221.947 67.0243 221.782 66.5984 221.493 66.195C221.287 65.9049 221.027 65.6417 220.715 65.4054C220.405 65.1669 220.108 65.0009 219.825 64.9075L219.178 63.7481L224.223 60.947L227.781 65.8346L226.77 66.5703L223.908 62.6382L220.892 64.3272L220.933 64.3823C221.226 64.4638 221.529 64.6132 221.842 64.8305C222.155 65.0479 222.426 65.3143 222.656 65.6297C223.075 66.2054 223.311 66.8187 223.363 67.4695C223.42 68.1212 223.305 68.7484 223.018 69.3512C222.732 69.957 222.285 70.4817 221.676 70.9254C221.075 71.3623 220.441 71.6177 219.774 71.6915C219.111 71.7662 218.473 71.6684 217.859 71.3983C217.249 71.1259 216.726 70.6911 216.292 70.094Z" fill="#71C4FF"/>
<path d="M224.121 82.0886C223.767 81.4279 223.564 80.778 223.513 80.1388C223.464 79.5031 223.56 78.9249 223.8 78.4044C224.046 77.8854 224.431 77.4683 224.954 77.1531L225.631 78.4145C225.315 78.6186 225.091 78.8853 224.958 79.2146C224.828 79.542 224.786 79.9026 224.829 80.2962C224.873 80.6898 225 81.0834 225.212 81.4772C225.449 81.9177 225.735 82.267 226.071 82.5249C226.408 82.7829 226.764 82.9351 227.142 82.9817C227.52 83.0283 227.889 82.9549 228.249 82.7613C228.626 82.5588 228.908 82.2871 229.095 81.9461C229.285 81.6033 229.365 81.2078 229.335 80.7595C229.305 80.3113 229.15 79.8269 228.87 79.3063L228.429 78.4854L229.531 77.894L229.971 78.7149C230.19 79.1221 230.455 79.4397 230.767 79.6679C231.08 79.8994 231.417 80.0302 231.777 80.0604C232.139 80.0939 232.501 80.0139 232.861 79.8203C233.208 79.6339 233.469 79.395 233.643 79.1035C233.818 78.812 233.902 78.4876 233.895 78.1302C233.889 77.7761 233.785 77.4106 233.583 77.0335C233.393 76.6797 233.149 76.381 232.85 76.1372C232.557 75.8949 232.235 75.7408 231.886 75.6747C231.54 75.6068 231.192 75.656 230.843 75.8221L230.198 74.6207C230.746 74.3522 231.303 74.2614 231.87 74.3482C232.44 74.4332 232.971 74.6601 233.461 75.0288C233.953 75.4008 234.358 75.8822 234.675 76.4729C235.015 77.1069 235.179 77.7199 235.166 78.3117C235.156 78.9018 235.008 79.4306 234.722 79.8982C234.435 80.3658 234.05 80.7296 233.566 80.9894C232.989 81.2995 232.415 81.4119 231.845 81.3269C231.276 81.2452 230.775 80.9878 230.34 80.5548L230.26 80.5978C230.501 81.3026 230.497 81.956 230.249 82.5581C230.004 83.1584 229.556 83.6333 228.905 83.9827C228.348 84.282 227.766 84.399 227.159 84.3336C226.557 84.2698 225.989 84.0458 225.456 83.6614C224.923 83.277 224.478 82.7527 224.121 82.0886Z" fill="#71C4FF"/>
<path d="M231.312 90.5047L232.401 90.1078L241.754 92.1416L242.041 92.9317L240.355 93.5465L240.16 93.0127L233.093 91.4762L233.008 91.5073L235.366 97.9773L234.191 98.4054L231.312 90.5047ZM230.945 96.468L233.518 95.5302L234.025 95.3454L241.878 92.4833L242.337 93.7431L231.404 97.7279L230.945 96.468Z" fill="#71C4FF"/>
<path d="M234.782 109.773C234.623 109.009 234.618 108.306 234.767 107.663C234.92 107.024 235.202 106.491 235.612 106.065C236.026 105.639 236.541 105.363 237.158 105.239C237.639 105.135 238.104 105.136 238.552 105.244C239.004 105.351 239.401 105.543 239.745 105.82C240.094 106.099 240.348 106.439 240.509 106.839L240.576 106.825C240.603 106.251 240.819 105.753 241.222 105.332C241.63 104.911 242.136 104.639 242.742 104.517C243.319 104.393 243.867 104.431 244.385 104.633C244.903 104.835 245.348 105.168 245.719 105.632C246.091 106.1 246.347 106.668 246.486 107.335C246.623 107.996 246.614 108.613 246.459 109.187C246.304 109.761 246.029 110.243 245.635 110.635C245.241 111.03 244.756 111.29 244.178 111.414C243.573 111.537 242.999 111.484 242.456 111.256C241.918 111.032 241.523 110.667 241.271 110.163L241.204 110.176C241.216 110.604 241.117 111.011 240.907 111.399C240.702 111.786 240.413 112.121 240.043 112.403C239.676 112.685 239.252 112.878 238.77 112.982C238.154 113.106 237.57 113.054 237.02 112.824C236.473 112.597 236.002 112.221 235.607 111.696C235.215 111.174 234.941 110.533 234.782 109.773ZM236.006 109.518C236.113 110.033 236.289 110.461 236.534 110.801C236.779 111.141 237.075 111.381 237.421 111.521C237.768 111.662 238.146 111.692 238.554 111.61C238.984 111.517 239.341 111.327 239.625 111.039C239.91 110.752 240.107 110.399 240.217 109.982C240.329 109.568 240.334 109.12 240.233 108.637C240.132 108.152 239.947 107.738 239.679 107.395C239.411 107.056 239.089 106.812 238.713 106.662C238.339 106.515 237.937 106.489 237.507 106.582C237.098 106.663 236.763 106.836 236.501 107.099C236.239 107.366 236.064 107.707 235.976 108.12C235.888 108.533 235.898 108.999 236.006 109.518ZM241.413 108.392C241.498 108.8 241.655 109.144 241.883 109.426C242.113 109.711 242.393 109.913 242.724 110.034C243.055 110.155 243.417 110.176 243.811 110.098C244.196 110.014 244.512 109.853 244.761 109.616C245.013 109.377 245.184 109.084 245.274 108.737C245.368 108.388 245.371 108.005 245.284 107.586C245.195 107.159 245.038 106.803 244.812 106.517C244.59 106.231 244.316 106.031 243.991 105.917C243.669 105.802 243.315 105.786 242.931 105.87C242.537 105.949 242.212 106.107 241.956 106.346C241.701 106.589 241.525 106.887 241.428 107.24C241.331 107.592 241.326 107.977 241.413 108.392Z" fill="#71C4FF"/>
<path d="M236.923 120.745L247.575 125.173L247.666 125.166L247.222 119.183L248.468 119.09L249.02 126.524L247.706 126.622L237.032 122.218L236.923 120.745Z" fill="#71C4FF"/>
</g>
</svg>
