<svg width="50" height="50" viewBox="0 0 50 50" fill="none" xmlns="http://www.w3.org/2000/svg">
<path d="M0 16C0 7.16344 7.16344 0 16 0H34C42.8366 0 50 7.16344 50 16V34C50 42.8366 42.8366 50 34 50H16C7.16344 50 0 42.8366 0 34V16Z" fill="#0D3461"/>
<path d="M34 49V50H16V49H34ZM49 34V16C49 7.84502 42.4923 1.21 34.3867 1.00488L34 1H16C7.84502 1 1.21 7.50774 1.00488 15.6133L1 16V34C1 42.2843 7.71573 49 16 49V50L15.5869 49.9951C6.94127 49.776 0 42.6984 0 34V16C0 7.30155 6.94127 0.22398 15.5869 0.00488281L16 0H34C42.8366 0 50 7.16344 50 16V34C50 42.8366 42.8366 50 34 50V49C42.2843 49 49 42.2843 49 34Z" fill="#0A77F3"/>
<path d="M27.8906 12C29.97 12.0002 31.9234 12.9961 33.1465 14.6777L35.1572 17.4414C35.9648 18.5522 36.4004 19.8903 36.4004 21.2637V31.5C36.4004 35.0897 33.4901 37.9998 29.9004 38H19.5C15.9102 38 13 35.0898 13 31.5V18.5C13 14.9101 15.9101 12 19.5 12H27.8906ZM19.5 14.5996C17.3461 14.5996 15.5996 16.3461 15.5996 18.5V31.5C15.5996 33.6539 17.3461 35.4004 19.5 35.4004H29.9004C32.0541 35.4002 33.7998 33.6538 33.7998 31.5V23.7002H29.9004C27.7465 23.7002 26 21.9537 26 19.7998V14.5996H19.5ZM28.5996 19.7998C28.5996 20.5178 29.1824 21.0996 29.9004 21.0996H33.7939C33.7616 20.3334 33.5062 19.5919 33.0537 18.9697L31.0439 16.2061C30.4513 15.3913 29.5728 14.8452 28.5996 14.665V19.7998Z" fill="#0A77F3"/>
</svg>
