<svg width="472" height="237" viewBox="0 0 472 237" fill="none" xmlns="http://www.w3.org/2000/svg">
<g filter="url(#filter0_d_54_3)">
<mask id="mask0_54_3" style="mask-type:alpha" maskUnits="userSpaceOnUse" x="242" y="120" width="31" height="31">
<rect x="242.699" y="120.466" width="29.5596" height="29.5596" fill="#0077FF"/>
</mask>
<g mask="url(#mask0_54_3)">
<rect x="248" y="126" width="19" height="18" fill="white"/>
<path d="M248.857 146.331C248.18 146.331 247.6 146.089 247.117 145.607C246.635 145.125 246.394 144.545 246.394 143.867V126.624C246.394 125.947 246.635 125.367 247.117 124.885C247.6 124.402 248.18 124.161 248.857 124.161H266.1C266.777 124.161 267.357 124.402 267.84 124.885C268.322 125.367 268.563 125.947 268.563 126.624V143.867C268.563 144.545 268.322 145.125 267.84 145.607C267.357 146.089 266.777 146.331 266.1 146.331H248.857ZM250.089 141.404H264.868L260.25 135.246L256.555 140.172L253.784 136.477L250.089 141.404ZM253.168 132.782C253.681 132.782 254.117 132.603 254.476 132.244C254.836 131.884 255.015 131.448 255.015 130.935C255.015 130.422 254.836 129.986 254.476 129.626C254.117 129.267 253.681 129.088 253.168 129.088C252.654 129.088 252.218 129.267 251.859 129.626C251.5 129.986 251.32 130.422 251.32 130.935C251.32 131.448 251.5 131.884 251.859 132.244C252.218 132.603 252.654 132.782 253.168 132.782Z" fill="#0B77F3"/>
</g>
<mask id="mask1_54_3" style="mask-type:alpha" maskUnits="userSpaceOnUse" x="344" y="155" width="30" height="31">
<rect x="344.186" y="155.609" width="29.5596" height="29.5596" fill="#0077FF"/>
</mask>
<g mask="url(#mask1_54_3)">
<path d="M367 181H350V159H367V181Z" fill="white"/>
<path d="M349.113 181.17V159H351.576V161.463H354.04V159H363.893V161.463H366.356V159H368.82V181.17H366.356V178.706H363.893V181.17H354.04V178.706H351.576V181.17H349.113ZM351.576 176.243H354.04V173.78H351.576V176.243ZM351.576 171.316H354.04V168.853H351.576V171.316ZM351.576 166.39H354.04V163.927H351.576V166.39ZM363.893 176.243H366.356V173.78H363.893V176.243ZM363.893 171.316H366.356V168.853H363.893V171.316ZM363.893 166.39H366.356V163.927H363.893V166.39Z" fill="#0B77F3"/>
</g>
<mask id="mask2_54_3" style="mask-type:alpha" maskUnits="userSpaceOnUse" x="102" y="155" width="31" height="31">
<rect x="102.701" y="155.938" width="29.5596" height="29.5596" fill="#0077FF"/>
</mask>
<g mask="url(#mask2_54_3)">
<path d="M115.018 181.802C113.663 181.802 112.503 181.32 111.538 180.355C110.574 179.39 110.091 178.23 110.091 176.876C110.091 175.521 110.574 174.361 111.538 173.396C112.503 172.431 113.663 171.949 115.018 171.949C115.49 171.949 115.926 172.005 116.326 172.118C116.727 172.231 117.112 172.401 117.481 172.626V159.632H124.871V164.559H119.944V176.876C119.944 178.23 119.462 179.39 118.497 180.355C117.532 181.32 116.373 181.802 115.018 181.802Z" fill="#0B77F3"/>
</g>
<mask id="mask3_54_3" style="mask-type:alpha" maskUnits="userSpaceOnUse" x="131" y="42" width="31" height="31">
<rect x="131.85" y="42.4616" width="29.5596" height="29.5596" fill="#0077FF"/>
</mask>
<g mask="url(#mask3_54_3)">
<path d="M149 46H138V67.5H155V53L149 46Z" fill="white"/>
<path d="M141.703 64.6313H151.557V62.168H141.703V64.6313ZM141.703 59.7047H151.557V57.2414H141.703V59.7047ZM139.24 69.5579C138.563 69.5579 137.983 69.3167 137.5 68.8343C137.018 68.3519 136.777 67.772 136.777 67.0946V47.3882C136.777 46.7108 137.018 46.1309 137.5 45.6485C137.983 45.1661 138.563 44.9249 139.24 44.9249H149.093L156.483 52.3148V67.0946C156.483 67.772 156.242 68.3519 155.76 68.8343C155.277 69.3167 154.697 69.5579 154.02 69.5579H139.24ZM147.862 53.5465H154.02L147.862 47.3882V53.5465Z" fill="#0B77F3"/>
</g>
</g>
<defs>
<filter id="filter0_d_54_3" x="109.091" y="44.9249" width="264.728" height="142.877" filterUnits="userSpaceOnUse" color-interpolation-filters="sRGB">
<feFlood flood-opacity="0" result="BackgroundImageFix"/>
<feColorMatrix in="SourceAlpha" type="matrix" values="0 0 0 0 0 0 0 0 0 0 0 0 0 0 0 0 0 0 127 0" result="hardAlpha"/>
<feOffset dx="2" dy="3"/>
<feGaussianBlur stdDeviation="1.5"/>
<feComposite in2="hardAlpha" operator="out"/>
<feColorMatrix type="matrix" values="0 0 0 0 0.442308 0 0 0 0 0.767628 0 0 0 0 1 0 0 0 0.55 0"/>
<feBlend mode="normal" in2="BackgroundImageFix" result="effect1_dropShadow_54_3"/>
<feBlend mode="normal" in="SourceGraphic" in2="effect1_dropShadow_54_3" result="shape"/>
</filter>
</defs>
</svg>
