<svg width="535" height="254" viewBox="0 0 535 254" fill="none" xmlns="http://www.w3.org/2000/svg">
<mask id="mask0_54_3" style="mask-type:alpha" maskUnits="userSpaceOnUse" x="278" y="130" width="31" height="31">
<rect x="278.912" y="130.992" width="29.5596" height="29.5596" fill="#0077FF"/>
</mask>
<g mask="url(#mask0_54_3)">
<path d="M285.07 156.857C284.393 156.857 283.813 156.615 283.33 156.133C282.848 155.651 282.607 155.071 282.607 154.393V137.15C282.607 136.473 282.848 135.893 283.33 135.411C283.813 134.928 284.393 134.687 285.07 134.687H302.313C302.99 134.687 303.57 134.928 304.053 135.411C304.535 135.893 304.776 136.473 304.776 137.15V154.393C304.776 155.071 304.535 155.651 304.053 156.133C303.57 156.615 302.99 156.857 302.313 156.857H285.07ZM286.302 151.93H301.081L296.463 145.772L292.768 150.698L289.997 147.003L286.302 151.93ZM289.381 143.309C289.894 143.309 290.33 143.129 290.689 142.77C291.049 142.41 291.228 141.974 291.228 141.461C291.228 140.948 291.049 140.512 290.689 140.152C290.33 139.793 289.894 139.614 289.381 139.614C288.868 139.614 288.431 139.793 288.072 140.152C287.713 140.512 287.533 140.948 287.533 141.461C287.533 141.974 287.713 142.41 288.072 142.77C288.431 143.129 288.868 143.309 289.381 143.309Z" fill="#0B77F3"/>
</g>
<mask id="mask1_54_3" style="mask-type:alpha" maskUnits="userSpaceOnUse" x="380" y="166" width="30" height="30">
<rect x="380.399" y="166.135" width="29.5596" height="29.5596" fill="#0077FF"/>
</mask>
<g mask="url(#mask1_54_3)">
<path d="M385.326 191.696V169.526H387.789V171.99H390.253V169.526H400.106V171.99H402.569V169.526H405.033V191.696H402.569V189.233H400.106V191.696H390.253V189.233H387.789V191.696H385.326ZM387.789 186.769H390.253V184.306H387.789V186.769ZM387.789 181.843H390.253V179.38H387.789V181.843ZM387.789 176.916H390.253V174.453H387.789V176.916ZM400.106 186.769H402.569V184.306H400.106V186.769ZM400.106 181.843H402.569V179.38H400.106V181.843ZM400.106 176.916H402.569V174.453H400.106V176.916Z" fill="#0B77F3"/>
</g>
<mask id="mask2_54_3" style="mask-type:alpha" maskUnits="userSpaceOnUse" x="138" y="166" width="31" height="31">
<rect x="138.914" y="166.464" width="29.5596" height="29.5596" fill="#0077FF"/>
</mask>
<g mask="url(#mask2_54_3)">
<path d="M151.231 192.328C149.876 192.328 148.716 191.846 147.751 190.881C146.786 189.916 146.304 188.757 146.304 187.402C146.304 186.047 146.786 184.887 147.751 183.922C148.716 182.958 149.876 182.475 151.231 182.475C151.703 182.475 152.139 182.532 152.539 182.645C152.939 182.757 153.324 182.927 153.694 183.153V170.159H161.084V175.085H156.157V187.402C156.157 188.757 155.675 189.916 154.71 190.881C153.745 191.846 152.585 192.328 151.231 192.328Z" fill="#0B77F3"/>
</g>
<mask id="mask3_54_3" style="mask-type:alpha" maskUnits="userSpaceOnUse" x="168" y="52" width="30" height="31">
<rect x="168.063" y="52.9878" width="29.5596" height="29.5596" fill="#0077FF"/>
</mask>
<g mask="url(#mask3_54_3)">
<path d="M177.916 75.1575H187.77V72.6943H177.916V75.1575ZM177.916 70.231H187.77V67.7677H177.916V70.231ZM175.453 80.0841C174.776 80.0841 174.196 79.8429 173.713 79.3606C173.231 78.8782 172.99 78.2983 172.99 77.6208V57.9145C172.99 57.2371 173.231 56.6572 173.713 56.1748C174.196 55.6924 174.776 55.4512 175.453 55.4512H185.306L192.696 62.8411V77.6208C192.696 78.2983 192.455 78.8782 191.973 79.3606C191.49 79.8429 190.91 80.0841 190.233 80.0841H175.453ZM184.075 64.0727H190.233L184.075 57.9145V64.0727Z" fill="#0B77F3"/>
</g>
</svg>
