<svg width="50" height="50" viewBox="0 0 50 50" fill="none" xmlns="http://www.w3.org/2000/svg">
<path d="M0 16C0 7.16344 7.16344 0 16 0H34C42.8366 0 50 7.16344 50 16V34C50 42.8366 42.8366 50 34 50H16C7.16344 50 0 42.8366 0 34V16Z" fill="#0D3461"/>
<path d="M34 49V50H16V49H34ZM49 34V16C49 7.84502 42.4923 1.21 34.3867 1.00488L34 1H16C7.84502 1 1.21 7.50774 1.00488 15.6133L1 16V34C1 42.2843 7.71573 49 16 49V50L15.5869 49.9951C6.94127 49.776 0 42.6984 0 34V16C0 7.30155 6.94127 0.22398 15.5869 0.00488281L16 0H34C42.8366 0 50 7.16344 50 16V34C50 42.8366 42.8366 50 34 50V49C42.2843 49 49 42.2843 49 34Z" fill="#0A77F3"/>
<path d="M30.7773 12C34.7661 12 38 15.2339 38 19.2227V30.7773C38 34.7661 34.7661 38 30.7773 38H19.2227C15.2339 38 12 34.7661 12 30.7773V19.2227C12 15.2339 15.2339 12 19.2227 12H30.7773ZM28.4775 22.9336C28.1895 22.5307 27.5899 22.5308 27.3018 22.9336L22.8555 29.1572L20.5371 25.8447C20.2497 25.4343 19.6412 25.4345 19.3535 25.8447L15.6855 31.085C15.3505 31.5636 15.693 32.2227 16.2773 32.2227H33.709C34.2955 32.2218 34.6363 31.5577 34.2959 31.0801L28.4775 22.9336ZM19 17C17.8954 17 17 17.8954 17 19C17 20.1046 17.8954 21 19 21C20.1046 21 21 20.1046 21 19C21 17.8954 20.1046 17 19 17Z" fill="#0A77F3"/>
</svg>
