<svg width="53" height="68" viewBox="0 0 53 68" fill="none" xmlns="http://www.w3.org/2000/svg">
<g filter="url(#filter0_d_1328_7307)">
<path d="M36.5234 24.9767C43.0053 25.3079 48.1602 30.7184 48.1602 37.3449V52.2062C48.1602 58.8327 43.0053 64.2432 36.5234 64.5744L35.8936 64.591H16.2666C9.49194 64.5909 4 59.046 4 52.2062V37.3449C4 30.5051 9.49194 24.9602 16.2666 24.9601H35.8936L36.5234 24.9767ZM16.2666 29.9142C12.2018 29.9143 8.90625 33.241 8.90625 37.3449V52.2062C8.90625 56.3101 12.2018 59.6368 16.2666 59.6369H35.8936C39.9583 59.6368 43.2539 56.3101 43.2539 52.2062V37.3449C43.2539 33.241 39.9583 29.9143 35.8936 29.9142H16.2666Z" fill="#0A77F3"/>
<path d="M16.6667 19.1579C16.6667 13.5769 20.8453 9.05263 26 9.05263C31.1547 9.05263 35.3333 13.5769 35.3333 19.1579V21.6842H40V19.1579C40 10.7864 33.732 4 26 4C18.268 4 12 10.7864 12 19.1579V26L16.6667 25.7928V19.1579Z" fill="#0A77F3"/>
<path d="M25.8263 54.4002C23.695 53.9048 21.9355 52.776 20.5478 51.0139C19.1601 49.2517 18.4663 47.2949 18.4663 45.1435V39.9632L25.8263 37.4155L33.1864 39.9632V45.1435C33.1864 47.2949 32.4925 49.2517 31.1048 51.0139C29.7172 52.776 27.9577 53.9048 25.8263 54.4002Z" fill="#0A77F3"/>
</g>
<defs>
<filter id="filter0_d_1328_7307" x="0" y="0" width="52.1602" height="68.591" filterUnits="userSpaceOnUse" color-interpolation-filters="sRGB">
<feFlood flood-opacity="0" result="BackgroundImageFix"/>
<feColorMatrix in="SourceAlpha" type="matrix" values="0 0 0 0 0 0 0 0 0 0 0 0 0 0 0 0 0 0 127 0" result="hardAlpha"/>
<feOffset/>
<feGaussianBlur stdDeviation="2"/>
<feComposite in2="hardAlpha" operator="out"/>
<feColorMatrix type="matrix" values="0 0 0 0 0.737255 0 0 0 0 0.858824 0 0 0 0 1 0 0 0 0.25 0"/>
<feBlend mode="normal" in2="BackgroundImageFix" result="effect1_dropShadow_1328_7307"/>
<feBlend mode="normal" in="SourceGraphic" in2="effect1_dropShadow_1328_7307" result="shape"/>
</filter>
</defs>
</svg>
