<svg width="266" height="266" viewBox="0 0 266 266" fill="none" xmlns="http://www.w3.org/2000/svg">
<circle cx="132.999" cy="133.245" r="46.5" stroke="#0A77F3"/>
<mask id="mask0_97_41" style="mask-type:alpha" maskUnits="userSpaceOnUse" x="90" y="92" width="86" height="86">
<rect x="90.5984" y="92.3447" width="84.8" height="84.8" fill="#0A77F3"/>
</mask>
<g mask="url(#mask0_97_41)">
<path d="M128.362 144.472H137.761L135.959 134.369C137.004 133.847 137.826 133.089 138.426 132.097C139.027 131.105 139.327 130.009 139.327 128.808C139.327 127.085 138.714 125.61 137.487 124.383C136.26 123.156 134.784 122.542 133.061 122.542C131.338 122.542 129.863 123.156 128.636 124.383C127.409 125.61 126.796 127.085 126.796 128.808C126.796 130.009 127.096 131.105 127.696 132.097C128.297 133.089 129.119 133.847 130.163 134.369L128.362 144.472ZM133.061 166.402C125.804 164.575 119.812 160.411 115.086 153.91C110.361 147.409 107.998 140.191 107.998 132.254V113.143L133.061 103.745L158.125 113.143V132.254C158.125 140.191 155.762 147.409 151.036 153.91C146.311 160.411 140.319 164.575 133.061 166.402Z" fill="#0A77F3"/>
</g>
<circle cx="133" cy="133" r="66.5" stroke="#0A77F3"/>
<mask id="mask1_97_41" style="mask-type:alpha" maskUnits="userSpaceOnUse" x="90" y="92" width="86" height="86">
<rect x="90.5984" y="92.3447" width="84.8" height="84.8" fill="#0A77F3"/>
</mask>
<g mask="url(#mask1_97_41)">
<path d="M128.362 144.472H137.761L135.959 134.369C137.004 133.847 137.826 133.089 138.426 132.097C139.027 131.105 139.327 130.009 139.327 128.808C139.327 127.085 138.714 125.61 137.487 124.383C136.26 123.156 134.784 122.542 133.061 122.542C131.338 122.542 129.863 123.156 128.636 124.383C127.409 125.61 126.796 127.085 126.796 128.808C126.796 130.009 127.096 131.105 127.696 132.097C128.297 133.089 129.119 133.847 130.163 134.369L128.362 144.472ZM133.061 166.402C125.804 164.575 119.812 160.411 115.086 153.91C110.361 147.409 107.998 140.191 107.998 132.254V113.143L133.061 103.745L158.125 113.143V132.254C158.125 140.191 155.762 147.409 151.036 153.91C146.311 160.411 140.319 164.575 133.061 166.402Z" fill="#0A77F3"/>
</g>
</svg>
