<svg width="370" height="88" viewBox="0 0 370 88" fill="none" xmlns="http://www.w3.org/2000/svg">
<path d="M111 43.8204C111 37.395 113.285 31.9432 117.851 27.4607C122.421 22.9783 127.982 20.7371 134.535 20.7371C141.088 20.7371 146.64 22.9783 151.197 27.4607C155.75 31.9432 158.031 37.3993 158.031 43.8204C158.031 50.1888 155.741 55.6406 151.158 60.18C146.575 64.7195 141.035 66.9914 134.539 66.9914C128.044 66.9914 122.496 64.7195 117.899 60.18C113.298 55.6406 111 50.1888 111 43.8204ZM125.39 34.7853C122.82 37.3555 121.535 40.3686 121.535 43.8248C121.535 47.2809 122.82 50.2941 125.39 52.8642C127.961 55.4344 131 56.7195 134.513 56.7195C138.026 56.7195 141.066 55.4344 143.636 52.8642C146.206 50.2941 147.491 47.2809 147.491 43.8248C147.491 40.3686 146.206 37.3555 143.636 34.7853C141.066 32.2151 138.026 30.93 134.513 30.93C131 30.93 127.961 32.2151 125.39 34.7853Z" fill="#FDFDFD"/>
<path d="M162.444 66.009V21.1625H173.497V25.4695C176.611 22.3686 181.019 20.7897 186.734 20.7327L186.006 32.3818C181.15 32.3818 177.852 33.2239 176.111 34.9125C174.37 36.6011 173.497 39.3599 173.497 43.1888V66.0046H162.444V66.009Z" fill="#FDFDFD"/>
<path d="M190.584 66.0088V6H201.549V24.7588C205.347 22.0746 209.672 20.7325 214.527 20.7325C221.066 20.7325 226.619 22.9737 231.189 27.4561C235.759 31.9386 238.04 37.3947 238.04 43.8158C238.04 50.1842 235.742 55.636 231.145 60.1754C226.549 64.7149 221.009 66.9868 214.527 66.9868C209.729 66.9868 205.404 65.6579 201.549 63.0044V66.0044H190.584V66.0088ZM205.36 34.7851C202.816 37.3553 201.549 40.3684 201.549 43.8246C201.549 47.2807 202.821 50.2938 205.36 52.864C207.9 55.4342 210.957 56.7193 214.527 56.7193C218.097 56.7193 221.15 55.4342 223.694 52.864C226.233 50.2938 227.505 47.2807 227.505 43.8246C227.505 40.3684 226.233 37.3553 223.694 34.7851C221.15 32.2149 218.097 30.9298 214.527 30.9298C210.957 30.9298 207.9 32.2149 205.36 34.7851Z" fill="#FDFDFD"/>
<path d="M240.479 43.8204C240.479 37.395 242.756 31.9432 247.313 27.4607C251.865 22.9783 257.427 20.7371 263.997 20.7371C270.909 20.7371 276.545 23.0485 280.914 27.6757C285.282 32.3028 287.466 37.9125 287.466 44.509C287.466 45.2239 287.409 46.2239 287.295 47.509H251.703C252.646 50.4213 254.238 52.6844 256.479 54.2985C258.721 55.9125 261.51 56.7195 264.852 56.7195C267.594 56.7195 269.883 56.2634 271.725 55.3511C273.567 54.4388 275.216 52.9958 276.672 51.0265L285.922 56.123C281.124 63.3774 274.102 67.0002 264.848 67.0002C257.822 67.0002 252.006 64.8028 247.396 60.4037C242.786 56.0002 240.479 50.4739 240.479 43.8204ZM251.962 38.8116H275.817C273.589 33.5572 269.651 30.93 263.997 30.93C261.37 30.93 258.971 31.6581 256.8 33.1142C254.629 34.5704 253.015 36.4695 251.962 38.8116Z" fill="#FDFDFD"/>
<path d="M290.124 43.8204C290.124 37.395 292.405 31.9432 296.962 27.4607C301.519 22.9783 307.085 20.7371 313.659 20.7371C318.506 20.7371 322.826 22.0792 326.615 24.7634V21.1669H337.58V66.0134H326.615V63.0134C322.76 65.6406 318.435 66.9695 313.637 66.9958C307.155 66.9958 301.615 64.7239 297.019 60.1844C292.422 55.6406 290.124 50.1888 290.124 43.8204ZM304.528 34.7853C301.949 37.3555 300.659 40.3686 300.659 43.8248C300.659 47.2809 301.949 50.2941 304.528 52.8642C307.106 55.4344 310.146 56.7195 313.637 56.7195C317.128 56.7195 320.163 55.4344 322.747 52.8642C325.326 50.2941 326.615 47.2809 326.615 43.8248C326.615 40.3686 325.326 37.3555 322.747 34.7853C320.168 32.2151 317.133 30.93 313.637 30.93C310.142 30.93 307.111 32.2151 304.528 34.7853Z" fill="#FDFDFD"/>
<path d="M340.877 31.3554V21.1624H346.232V9.42554H357.285V21.1624H367.394V31.3554H357.285V47.5878C357.285 50.7018 357.978 52.794 359.364 53.8641C360.75 54.9343 363.868 55.5001 368.723 55.5571L369.408 66.2632H367.052C360.254 66.2632 355.087 64.9211 351.548 62.2369C348.009 59.5527 346.237 54.6711 346.237 47.5878V31.3554H340.877Z" fill="#FDFDFD"/>
<path d="M0 23.6721V63.3279C0 75.8505 10.1495 86 22.6721 86H62.3279C74.8505 86 85 75.8505 85 63.3279V23.6721C85.0048 11.1495 74.8553 1 62.3327 1H22.6721C10.1495 1 0 11.1495 0 23.6721ZM72.5547 73.5547C62.0089 84.1006 40.0037 79.195 23.4068 62.5932C6.80986 45.9915 1.90425 23.996 12.4501 13.4501C20.1976 5.70262 34.1266 6.29709 47.553 13.7353C43.6575 16.9638 41.1685 21.8356 41.1685 27.2776C41.1685 36.9729 49.0561 44.8605 58.7514 44.8605C64.1934 44.8605 69.0604 42.3763 72.2889 38.4856C79.7077 51.9024 80.2974 65.8169 72.5547 73.5547ZM70.0463 27.2825C70.0463 27.5096 70.0367 27.732 70.027 27.9543C70.0222 28.0219 70.0173 28.0848 70.0125 28.1524C69.998 28.3119 69.9835 28.4714 69.9642 28.6261C69.9545 28.6938 69.9449 28.7662 69.94 28.8339C69.9159 29.0031 69.8917 29.1674 69.8579 29.3317C69.8482 29.3801 69.8434 29.4332 69.8289 29.4816C69.7854 29.699 69.737 29.9165 69.679 30.134C69.679 30.1389 69.679 30.1389 69.6742 30.1437C69.621 30.3515 69.5582 30.5593 69.4905 30.7623C69.476 30.8058 69.4615 30.8493 69.447 30.8928C69.389 31.062 69.331 31.2263 69.2634 31.3955C69.2489 31.439 69.2296 31.4776 69.2151 31.5211C69.1377 31.7145 69.0556 31.9029 68.9686 32.0914C68.9637 32.0963 68.9637 32.1059 68.9589 32.1108C68.8622 32.3186 68.7559 32.5216 68.6447 32.7246C66.7212 36.2141 63.0045 38.5823 58.7465 38.5823C52.5166 38.5823 47.4467 33.5124 47.4467 27.2825C47.4467 23.0197 49.8198 19.303 53.3141 17.3794C53.5123 17.2731 53.7104 17.1668 53.9134 17.0701C53.9327 17.0604 53.9472 17.0556 53.9666 17.0459C54.1406 16.9638 54.3242 16.8865 54.503 16.814C54.5514 16.7946 54.5997 16.7753 54.6432 16.756C54.8027 16.6931 54.9622 16.6351 55.1265 16.582C55.1748 16.5675 55.2232 16.5481 55.2715 16.5336C55.4697 16.4708 55.6727 16.408 55.8757 16.3548C55.8805 16.3548 55.8901 16.35 55.895 16.35C56.1076 16.292 56.3251 16.2436 56.5426 16.2001C56.5958 16.1905 56.6441 16.1808 56.6973 16.1711C56.8616 16.1422 57.0259 16.1132 57.1903 16.0938C57.2628 16.0842 57.3304 16.0745 57.4029 16.0648C57.5576 16.0455 57.7171 16.031 57.8766 16.0213C57.9442 16.0165 58.0119 16.0117 58.0747 16.0068C58.297 15.9923 58.5194 15.9875 58.7465 15.9875C64.9764 15.9827 70.0463 21.0478 70.0463 27.2825ZM77.2235 12.7251C77.2235 13.8851 76.8224 14.9484 76.1506 15.7893C75.8171 16.2098 75.4159 16.5723 74.9665 16.8671C74.9423 16.8816 74.9133 16.8961 74.8891 16.9154C74.7683 16.9879 74.6475 17.0604 74.5218 17.1233C74.4783 17.1474 74.4348 17.1668 74.3913 17.1861C74.2802 17.2393 74.1642 17.2876 74.0482 17.3311C73.995 17.3504 73.9418 17.3698 73.8838 17.3891C73.7727 17.4278 73.6567 17.4616 73.5407 17.4906C73.4827 17.5051 73.4247 17.5244 73.3619 17.5341C73.241 17.5631 73.1202 17.5824 72.9945 17.5969C72.9414 17.6066 72.8882 17.6163 72.8302 17.6211C72.6514 17.6404 72.4677 17.6549 72.2841 17.6549C72.1198 17.6549 71.9554 17.6453 71.7911 17.6308C71.7379 17.6259 71.6848 17.6163 71.6268 17.6066C71.5204 17.5921 71.4141 17.5776 71.3126 17.5583C71.2498 17.5438 71.187 17.5293 71.1193 17.5099C71.0275 17.4906 70.9405 17.4664 70.8486 17.4423C70.781 17.4229 70.7133 17.3988 70.6505 17.3746C70.5683 17.3456 70.4862 17.3166 70.4088 17.2876C70.3412 17.2586 70.2735 17.2296 70.2058 17.1958C70.1333 17.1619 70.0608 17.1281 69.9883 17.0894C69.9207 17.0556 69.853 17.0169 69.7902 16.9783C69.7225 16.9396 69.6597 16.901 69.592 16.8575C69.5244 16.814 69.4615 16.7656 69.3939 16.7221C69.3359 16.6786 69.2779 16.6351 69.2199 16.5916C69.1571 16.5385 69.0942 16.4853 69.0314 16.4321C68.9782 16.3886 68.9299 16.3403 68.8767 16.292C68.8139 16.234 68.7559 16.1712 68.6931 16.1083C68.6496 16.06 68.6061 16.0117 68.5626 15.9633C68.5046 15.8957 68.4466 15.828 68.3934 15.7555C68.3548 15.7072 68.3209 15.6588 68.2823 15.6105C68.2291 15.5332 68.1759 15.4607 68.1228 15.3785C68.0938 15.3302 68.0648 15.2819 68.0358 15.2335C67.9874 15.1514 67.9391 15.0644 67.8908 14.9774C67.8666 14.929 67.8473 14.8807 67.8231 14.8372C67.7796 14.7454 67.7361 14.6487 67.6975 14.5569C67.6781 14.5134 67.6636 14.4699 67.6491 14.4264C67.6105 14.3249 67.5766 14.2186 67.5428 14.1171C67.5331 14.0784 67.5235 14.0397 67.5138 14.0011C67.4848 13.8851 67.4558 13.7739 67.4316 13.6531C67.4268 13.6241 67.422 13.5999 67.4171 13.5709C67.393 13.4404 67.3736 13.3099 67.364 13.1795C67.3495 13.0296 67.3398 12.8798 67.3398 12.7251C67.3398 9.99926 69.5485 7.79536 72.2696 7.79536C75.0148 7.79536 77.2235 9.99926 77.2235 12.7251Z" fill="#07CB7D"/>
</svg>
