<svg width="259" height="88" viewBox="0 0 259 88" fill="none" xmlns="http://www.w3.org/2000/svg">
<path d="M109 44.5932V20.9097H120.044V41.7659C120.044 46.9391 120.698 50.6411 122.006 52.8854C123.314 55.1252 125.938 56.2473 129.878 56.2473C132.927 56.2473 135.334 55.3372 137.106 53.5127C138.873 51.6882 139.761 49.1524 139.761 45.9053V20.9097H150.806V66.0812H139.761V62.441C136.567 65.1579 132.512 66.5141 127.595 66.5141C115.198 66.5097 109 59.2072 109 44.5932Z" fill="#868686"/>
<path d="M154.126 31.1769V20.91H159.52V9.08813H170.653V20.91H180.836V31.1769H170.653V47.527C170.653 50.6636 171.351 52.7709 172.747 53.8488C174.143 54.9267 177.284 55.4966 182.175 55.5541L182.864 66.3378H180.491C173.644 66.3378 168.44 64.986 164.874 62.2823C161.309 59.5786 159.525 54.6617 159.525 47.527V31.1769H154.126Z" fill="#868686"/>
<path d="M186.572 16.7707V5.63794H197.705V16.7707H186.572ZM186.572 66.0816V20.9101H197.705V66.0816H186.572Z" fill="#868686"/>
<path d="M203.35 66.0816V5.63794H214.482V66.0816H203.35Z" fill="#868686"/>
<path d="M218.365 51.5825H230.099C230.271 53.5395 231.097 55.1476 232.582 56.4155C234.062 57.6834 236.24 58.3151 239.116 58.3151C241.36 58.3151 243.14 57.8557 244.466 56.9323C245.786 56.0135 246.449 54.9046 246.449 53.6058C246.449 52.7708 246.211 52.0817 245.738 51.5339C245.265 50.9861 244.51 50.5487 243.472 50.2174C242.438 49.886 241.607 49.6784 240.98 49.59C240.353 49.5017 239.509 49.3868 238.453 49.241C235.608 48.8037 234.185 48.5828 234.185 48.5828C234.185 48.5828 232.803 48.1984 230.028 47.4298C227.258 46.6611 225.266 45.8394 224.06 44.9602C222.854 44.0811 221.771 42.7867 220.826 41.077C219.876 39.3674 219.403 37.3882 219.403 35.144C219.403 30.7174 221.056 27.1611 224.365 24.4884C227.674 21.8156 232.228 20.4771 238.042 20.4771C243.763 20.4771 248.3 21.8068 251.653 24.4663C255.002 27.1258 256.866 30.7174 257.242 35.2323H245.937C245.822 34.1102 245.614 33.1693 245.309 32.405C245.009 31.6451 244.267 30.925 243.087 30.2491C241.908 29.5732 240.313 29.2375 238.298 29.2375C236.169 29.2375 234.495 29.5865 233.271 30.2845C232.047 30.9825 231.437 31.9146 231.437 33.0853C231.437 33.4829 231.495 33.8496 231.61 34.1765C231.725 34.5034 231.928 34.795 232.219 35.0512C232.511 35.3074 232.807 35.5416 233.112 35.7581C233.417 35.9701 233.836 36.1645 234.375 36.3279C234.91 36.4958 235.365 36.6372 235.736 36.7521C236.107 36.8669 236.611 37.0083 237.251 37.1673C237.892 37.3264 238.409 37.4412 238.802 37.5119C239.195 37.5826 239.743 37.6754 240.445 37.7991L242.005 38.073C244.594 38.475 246.772 38.9609 248.539 39.5176C250.306 40.0742 252.06 40.865 253.8 41.8722C255.541 42.8795 256.84 44.2313 257.706 45.9321C258.572 47.633 259 49.6872 259 52.1037C259 57.0516 257.171 60.7846 253.522 63.2983C249.869 65.8165 245.009 67.0711 238.939 67.0711C232.582 67.0711 227.621 65.7104 224.055 62.9935C220.495 60.2766 218.595 56.4729 218.365 51.5825Z" fill="#868686"/>
<path d="M70.258 16.4603L47.0387 3.11139C42.1408 0.296204 36.0592 0.296204 31.1613 3.11139L7.9387 16.4603C3.04078 19.2755 0 24.5207 0 30.1511V56.8489C0 62.4793 3.04078 67.7245 7.9387 70.5397L31.1613 83.8886C33.6086 85.2962 36.356 86 39.1 86C41.844 86 44.5914 85.2962 47.0387 83.8886L70.2613 70.5397C75.1592 67.7245 78.2 62.4793 78.2 56.8489V30.1511C78.1967 24.5207 75.1559 19.2755 70.258 16.4603ZM34.5488 8.95755C35.9525 8.15084 37.5229 7.74914 39.0967 7.74914C40.6704 7.74914 42.2408 8.15084 43.6445 8.95755L62.1759 19.6108C63.673 20.4706 63.6663 22.6285 62.1626 23.4783L42.0374 34.8453C40.2136 35.8744 37.9797 35.8744 36.1559 34.8453L15.9674 23.4451C14.4904 22.6119 14.4837 20.4938 15.9541 19.6506L34.5488 8.95755ZM11.3296 64.6936C8.52551 63.0801 6.78173 60.0757 6.78173 56.8489V37.541C6.78173 35.0212 9.5091 33.441 11.7097 34.6826L30.121 45.0802C31.9882 46.1326 33.1385 48.1046 33.1385 50.2425V71.539C33.1385 74.0687 30.3878 75.6489 28.1872 74.384L11.3296 64.6936ZM66.8671 64.6936L49.9061 74.4438C47.7522 75.6821 45.0582 74.1351 45.0582 71.6585V50.2458C45.0582 48.1112 46.2118 46.1392 48.079 45.0835L66.5904 34.6262C68.7442 33.4078 71.4149 34.9582 71.4149 37.4248V56.8489C71.4149 60.0757 69.6745 63.0801 66.8671 64.6936Z" fill="#868686"/>
</svg>
