<svg width="535" height="254" viewBox="0 0 535 254" fill="none" xmlns="http://www.w3.org/2000/svg">
<g filter="url(#filter0_d_54_3)">
<mask id="path-1-inside-1_54_3" fill="white">
<path d="M209.052 14C246.505 14 279.682 32.3047 300.127 60.4551C314.582 51.2906 331.725 45.9834 350.106 45.9834C395.456 45.9836 433.262 78.2818 441.777 121.13H450.096C479.679 121.13 503.66 145.112 503.66 174.695C503.66 204.278 479.679 228.261 450.096 228.261H96.5654C66.9822 228.261 43 204.279 43 174.695C43 145.112 66.9822 121.13 96.5654 121.13H96.6924C99.4885 61.4927 148.723 14.0001 209.052 14Z"/>
</mask>
<path d="M209.052 14C246.505 14 279.682 32.3047 300.127 60.4551C314.582 51.2906 331.725 45.9834 350.106 45.9834C395.456 45.9836 433.262 78.2818 441.777 121.13H450.096C479.679 121.13 503.66 145.112 503.66 174.695C503.66 204.278 479.679 228.261 450.096 228.261H96.5654C66.9822 228.261 43 204.279 43 174.695C43 145.112 66.9822 121.13 96.5654 121.13H96.6924C99.4885 61.4927 148.723 14.0001 209.052 14Z" fill="#FBFBFB"/>
<path d="M209.052 14V12V12V14ZM300.127 60.4551L298.509 61.6304L299.612 63.1496L301.198 62.1442L300.127 60.4551ZM350.106 45.9834V43.9834V43.9834V45.9834ZM441.777 121.13L439.816 121.52L440.136 123.13H441.777V121.13ZM450.096 121.13V119.13V119.13V121.13ZM503.66 174.695H505.66V174.695H503.66ZM450.096 228.261V230.261V230.261V228.261ZM43 174.695H41V174.695H43ZM96.6924 121.13V123.13H98.6008L98.6902 121.224L96.6924 121.13ZM209.052 14V16C245.837 16 278.424 33.9757 298.509 61.6304L300.127 60.4551L301.745 59.2798C280.94 30.6336 247.172 12 209.052 12V14ZM300.127 60.4551L301.198 62.1442C315.342 53.1767 332.115 47.9834 350.106 47.9834V45.9834V43.9834C331.334 43.9834 313.822 49.4044 299.056 58.766L300.127 60.4551ZM350.106 45.9834V47.9834C394.484 47.9836 431.482 79.5894 439.816 121.52L441.777 121.13L443.739 120.74C435.041 76.9742 396.429 43.9836 350.106 43.9834V45.9834ZM441.777 121.13V123.13H450.096V121.13V119.13H441.777V121.13ZM450.096 121.13V123.13C478.574 123.13 501.66 146.217 501.66 174.695H503.66H505.66C505.66 144.008 480.783 119.13 450.096 119.13V121.13ZM503.66 174.695H501.66C501.66 203.174 478.574 226.261 450.096 226.261V228.261V230.261C480.783 230.261 505.66 205.383 505.66 174.695H503.66ZM450.096 228.261V226.261H96.5654V228.261V230.261H450.096V228.261ZM96.5654 228.261V226.261C68.0868 226.261 45 203.174 45 174.695H43H41C41 205.383 65.8776 230.261 96.5654 230.261V228.261ZM43 174.695H45C45 146.217 68.0868 123.13 96.5654 123.13V121.13V119.13C65.8776 119.13 41 144.008 41 174.695H43ZM96.5654 121.13V123.13H96.6924V121.13V119.13H96.5654V121.13ZM96.6924 121.13L98.6902 121.224C101.437 62.6483 149.796 16.0001 209.052 16V14V12C147.65 12.0001 97.5405 60.3372 94.6946 121.036L96.6924 121.13Z" fill="#0B77F3" mask="url(#path-1-inside-1_54_3)"/>
</g>
<defs>
<filter id="filter0_d_54_3" x="32" y="6" width="482.66" height="236.261" filterUnits="userSpaceOnUse" color-interpolation-filters="sRGB">
<feFlood flood-opacity="0" result="BackgroundImageFix"/>
<feColorMatrix in="SourceAlpha" type="matrix" values="0 0 0 0 0 0 0 0 0 0 0 0 0 0 0 0 0 0 127 0" result="hardAlpha"/>
<feMorphology radius="4" operator="dilate" in="SourceAlpha" result="effect1_dropShadow_54_3"/>
<feOffset dy="3"/>
<feGaussianBlur stdDeviation="3.5"/>
<feComposite in2="hardAlpha" operator="out"/>
<feColorMatrix type="matrix" values="0 0 0 0 0.0431373 0 0 0 0 0.466667 0 0 0 0 0.952941 0 0 0 0.3 0"/>
<feBlend mode="normal" in2="BackgroundImageFix" result="effect1_dropShadow_54_3"/>
<feBlend mode="normal" in="SourceGraphic" in2="effect1_dropShadow_54_3" result="shape"/>
</filter>
</defs>
</svg>
