<svg width="472" height="237" viewBox="0 0 472 237" fill="none" xmlns="http://www.w3.org/2000/svg">
<g filter="url(#filter0_d_54_3)">
<mask id="path-1-inside-1_54_3" fill="white">
<path d="M172.052 2C209.505 2 242.682 20.3047 263.127 48.4551C277.582 39.2906 294.725 33.9834 313.106 33.9834C358.456 33.9836 396.262 66.2818 404.777 109.13H413.096C442.679 109.13 466.66 133.112 466.66 162.695C466.66 192.278 442.679 216.261 413.096 216.261H59.5654C29.9822 216.261 6.00002 192.279 6 162.695C6 133.112 29.9822 109.13 59.5654 109.13H59.6924C62.4885 49.4927 111.723 2.00014 172.052 2Z"/>
</mask>
<path d="M172.052 2C209.505 2 242.682 20.3047 263.127 48.4551C277.582 39.2906 294.725 33.9834 313.106 33.9834C358.456 33.9836 396.262 66.2818 404.777 109.13H413.096C442.679 109.13 466.66 133.112 466.66 162.695C466.66 192.278 442.679 216.261 413.096 216.261H59.5654C29.9822 216.261 6.00002 192.279 6 162.695C6 133.112 29.9822 109.13 59.5654 109.13H59.6924C62.4885 49.4927 111.723 2.00014 172.052 2Z" fill="#E6F2FF"/>
<path d="M172.052 2V0V2ZM263.127 48.4551L261.509 49.6304L262.612 51.1496L264.198 50.1442L263.127 48.4551ZM313.106 33.9834V31.9834V33.9834ZM404.777 109.13L402.816 109.52L403.136 111.13H404.777V109.13ZM413.096 109.13V107.13V109.13ZM466.66 162.695H468.66H466.66ZM413.096 216.261V218.261V216.261ZM6 162.695H4H6ZM59.6924 109.13V111.13H61.6008L61.6902 109.224L59.6924 109.13ZM172.052 2V4C208.837 4 241.424 21.9757 261.509 49.6304L263.127 48.4551L264.745 47.2798C243.94 18.6336 210.172 0 172.052 0V2ZM263.127 48.4551L264.198 50.1442C278.342 41.1767 295.115 35.9834 313.106 35.9834V33.9834V31.9834C294.334 31.9834 276.822 37.4044 262.056 46.766L263.127 48.4551ZM313.106 33.9834V35.9834C357.484 35.9836 394.482 67.5894 402.816 109.52L404.777 109.13L406.739 108.74C398.041 64.9742 359.429 31.9836 313.106 31.9834V33.9834ZM404.777 109.13V111.13H413.096V109.13V107.13H404.777V109.13ZM413.096 109.13V111.13C441.574 111.13 464.66 134.217 464.66 162.695H466.66H468.66C468.66 132.008 443.783 107.13 413.096 107.13V109.13ZM466.66 162.695H464.66C464.66 191.174 441.574 214.261 413.096 214.261V216.261V218.261C443.783 218.261 468.66 193.383 468.66 162.695H466.66ZM413.096 216.261V214.261H59.5654V216.261V218.261H413.096V216.261ZM59.5654 216.261V214.261C31.0868 214.261 8.00002 191.174 8 162.695H6H4C4.00003 193.383 28.8776 218.261 59.5654 218.261V216.261ZM6 162.695H8C8 134.217 31.0868 111.13 59.5654 111.13V109.13V107.13C28.8776 107.13 4 132.008 4 162.695H6ZM59.5654 109.13V111.13H59.6924V109.13V107.13H59.5654V109.13ZM59.6924 109.13L61.6902 109.224C64.4365 50.6483 112.796 4.00013 172.052 4V2V0C110.65 0.000137568 60.5405 48.3372 57.6946 109.036L59.6924 109.13Z" fill="url(#paint0_linear_54_3)" mask="url(#path-1-inside-1_54_3)"/>
</g>
<defs>
<filter id="filter0_d_54_3" x="2" y="2" width="468.66" height="222.261" filterUnits="userSpaceOnUse" color-interpolation-filters="sRGB">
<feFlood flood-opacity="0" result="BackgroundImageFix"/>
<feColorMatrix in="SourceAlpha" type="matrix" values="0 0 0 0 0 0 0 0 0 0 0 0 0 0 0 0 0 0 127 0" result="hardAlpha"/>
<feOffset dy="4"/>
<feGaussianBlur stdDeviation="2"/>
<feComposite in2="hardAlpha" operator="out"/>
<feColorMatrix type="matrix" values="0 0 0 0 0.442308 0 0 0 0 0.767628 0 0 0 0 1 0 0 0 0.33 0"/>
<feBlend mode="normal" in2="BackgroundImageFix" result="effect1_dropShadow_54_3"/>
<feBlend mode="normal" in="SourceGraphic" in2="effect1_dropShadow_54_3" result="shape"/>
</filter>
<linearGradient id="paint0_linear_54_3" x1="93.476" y1="12.6743" x2="350.727" y2="232.031" gradientUnits="userSpaceOnUse">
<stop stop-color="#71C4FF"/>
<stop offset="0.480769" stop-color="#71C4FF"/>
<stop offset="1" stop-color="#0B77F3"/>
</linearGradient>
</defs>
</svg>
