<svg width="472" height="237" viewBox="0 0 472 237" fill="none" xmlns="http://www.w3.org/2000/svg">
<mask id="path-1-inside-1_54_3" fill="white">
<path d="M172.052 9C209.505 9 242.682 27.3047 263.127 55.4551C277.582 46.2906 294.725 40.9834 313.106 40.9834C358.456 40.9836 396.262 73.2818 404.777 116.13H413.096C442.679 116.13 466.66 140.112 466.66 169.695C466.66 199.278 442.679 223.261 413.096 223.261H59.5654C29.9822 223.261 6.00002 199.279 6 169.695C6 140.112 29.9822 116.13 59.5654 116.13H59.6924C62.4885 56.4927 111.723 9.00013 172.052 9Z"/>
</mask>
<path d="M172.052 9C209.505 9 242.682 27.3047 263.127 55.4551C277.582 46.2906 294.725 40.9834 313.106 40.9834C358.456 40.9836 396.262 73.2818 404.777 116.13H413.096C442.679 116.13 466.66 140.112 466.66 169.695C466.66 199.278 442.679 223.261 413.096 223.261H59.5654C29.9822 223.261 6.00002 199.279 6 169.695C6 140.112 29.9822 116.13 59.5654 116.13H59.6924C62.4885 56.4927 111.723 9.00013 172.052 9Z" fill="#252525"/>
<path d="M172.052 9V7V7V9ZM263.127 55.4551L261.509 56.6304L262.612 58.1496L264.198 57.1442L263.127 55.4551ZM313.106 40.9834V38.9834V38.9834V40.9834ZM404.777 116.13L402.816 116.52L403.136 118.13H404.777V116.13ZM413.096 116.13V114.13V114.13V116.13ZM466.66 169.695H468.66V169.695H466.66ZM413.096 223.261V225.261V225.261V223.261ZM6 169.695H4V169.695H6ZM59.6924 116.13V118.13H61.6008L61.6902 116.224L59.6924 116.13ZM172.052 9V11C208.837 11 241.424 28.9757 261.509 56.6304L263.127 55.4551L264.745 54.2798C243.94 25.6336 210.172 7 172.052 7V9ZM263.127 55.4551L264.198 57.1442C278.342 48.1767 295.115 42.9834 313.106 42.9834V40.9834V38.9834C294.334 38.9834 276.822 44.4044 262.056 53.766L263.127 55.4551ZM313.106 40.9834V42.9834C357.484 42.9836 394.482 74.5894 402.816 116.52L404.777 116.13L406.739 115.74C398.041 71.9742 359.429 38.9836 313.106 38.9834V40.9834ZM404.777 116.13V118.13H413.096V116.13V114.13H404.777V116.13ZM413.096 116.13V118.13C441.574 118.13 464.66 141.217 464.66 169.695H466.66H468.66C468.66 139.008 443.783 114.13 413.096 114.13V116.13ZM466.66 169.695H464.66C464.66 198.174 441.574 221.261 413.096 221.261V223.261V225.261C443.783 225.261 468.66 200.383 468.66 169.695H466.66ZM413.096 223.261V221.261H59.5654V223.261V225.261H413.096V223.261ZM59.5654 223.261V221.261C31.0868 221.261 8.00002 198.174 8 169.695H6H4C4.00003 200.383 28.8776 225.261 59.5654 225.261V223.261ZM6 169.695H8C8 141.217 31.0868 118.13 59.5654 118.13V116.13V114.13C28.8776 114.13 4 139.008 4 169.695H6ZM59.5654 116.13V118.13H59.6924V116.13V114.13H59.5654V116.13ZM59.6924 116.13L61.6902 116.224C64.4365 57.6483 112.796 11.0001 172.052 11V9V7C110.65 7.00014 60.5405 55.3372 57.6946 116.036L59.6924 116.13Z" fill="url(#paint0_linear_54_3)" mask="url(#path-1-inside-1_54_3)"/>
<defs>
<linearGradient id="paint0_linear_54_3" x1="93.476" y1="19.6743" x2="350.727" y2="239.031" gradientUnits="userSpaceOnUse">
<stop stop-color="#71C4FF"/>
<stop offset="0.480769" stop-color="#71C4FF"/>
<stop offset="1" stop-color="#0B77F3"/>
</linearGradient>
</defs>
</svg>
