<svg width="468" height="222" viewBox="0 0 468 222" fill="none" xmlns="http://www.w3.org/2000/svg">
<g filter="url(#filter0_d_46_37)">
<mask id="path-1-inside-1_46_37" fill="white">
<path d="M169.814 0C207.214 0.000128805 240.343 18.2785 260.759 46.3887C275.193 37.2374 292.311 31.9385 310.666 31.9385C355.951 31.9385 393.701 64.1898 402.205 106.977H410.512C440.053 106.977 464 130.924 464 160.465C464 190.006 440.053 213.953 410.512 213.953H57.4883C27.9476 213.953 4 190.006 4 160.465C4.00007 130.924 27.9476 106.977 57.4883 106.977H57.6152C60.4072 47.4247 109.572 0 169.814 0Z"/>
</mask>
<path d="M169.814 0C207.214 0.000128805 240.343 18.2785 260.759 46.3887C275.193 37.2374 292.311 31.9385 310.666 31.9385C355.951 31.9385 393.701 64.1898 402.205 106.977H410.512C440.053 106.977 464 130.924 464 160.465C464 190.006 440.053 213.953 410.512 213.953H57.4883C27.9476 213.953 4 190.006 4 160.465C4.00007 130.924 27.9476 106.977 57.4883 106.977H57.6152C60.4072 47.4247 109.572 0 169.814 0Z" fill="#E6F2FF"/>
<path d="M169.814 0L169.814 -2H169.814V0ZM260.759 46.3887L259.141 47.564L260.244 49.0832L261.83 48.0778L260.759 46.3887ZM310.666 31.9385L310.666 29.9385L310.666 29.9385L310.666 31.9385ZM402.205 106.977L400.243 107.366L400.563 108.977H402.205V106.977ZM464 160.465L466 160.465L466 160.465L464 160.465ZM57.4883 213.953L57.4883 215.953H57.4883V213.953ZM4 160.465L2 160.465V160.465H4ZM57.4883 106.977L57.4883 104.977L57.4883 104.977L57.4883 106.977ZM57.6152 106.977V108.977H59.5237L59.613 107.07L57.6152 106.977ZM169.814 0L169.814 2C206.546 2.00013 239.085 19.9496 259.141 47.564L260.759 46.3887L262.377 45.2134C241.601 16.6075 207.881 -1.99987 169.814 -2L169.814 0ZM260.759 46.3887L261.83 48.0778C275.953 39.1235 292.701 33.9385 310.666 33.9385L310.666 31.9385L310.666 29.9385C291.92 29.9385 274.433 35.3512 259.688 44.6995L260.759 46.3887ZM310.666 31.9385V33.9385C354.978 33.9385 391.922 65.4974 400.243 107.366L402.205 106.977L404.167 106.587C395.481 62.8822 356.924 29.9385 310.666 29.9385V31.9385ZM402.205 106.977V108.977H410.512V106.977V104.977H402.205V106.977ZM410.512 106.977V108.977C438.948 108.977 462 132.029 462 160.465L464 160.465L466 160.465C466 129.82 441.157 104.977 410.512 104.977V106.977ZM464 160.465H462C462 188.901 438.948 211.953 410.512 211.953V213.953V215.953C441.157 215.953 466 191.11 466 160.465H464ZM410.512 213.953V211.953H57.4883V213.953V215.953H410.512V213.953ZM57.4883 213.953L57.4883 211.953C29.0522 211.953 6 188.901 6 160.465H4H2C2 191.11 26.843 215.953 57.4883 215.953L57.4883 213.953ZM4 160.465L6 160.465C6.00007 132.029 29.0522 108.977 57.4883 108.977L57.4883 106.977L57.4883 104.977C26.8431 104.977 2.00007 129.82 2 160.465L4 160.465ZM57.4883 106.977V108.977H57.6152V106.977V104.977H57.4883V106.977ZM57.6152 106.977L59.613 107.07C62.3553 48.5803 110.645 2 169.814 2V0V-2C108.499 -2 58.4592 46.2691 55.6174 106.883L57.6152 106.977Z" fill="url(#paint0_linear_46_37)" mask="url(#path-1-inside-1_46_37)"/>
</g>
<defs>
<filter id="filter0_d_46_37" x="0" y="0" width="468" height="221.953" filterUnits="userSpaceOnUse" color-interpolation-filters="sRGB">
<feFlood flood-opacity="0" result="BackgroundImageFix"/>
<feColorMatrix in="SourceAlpha" type="matrix" values="0 0 0 0 0 0 0 0 0 0 0 0 0 0 0 0 0 0 127 0" result="hardAlpha"/>
<feOffset dy="4"/>
<feGaussianBlur stdDeviation="2"/>
<feComposite in2="hardAlpha" operator="out"/>
<feColorMatrix type="matrix" values="0 0 0 0 0.443137 0 0 0 0 0.768627 0 0 0 0 1 0 0 0 0.25 0"/>
<feBlend mode="normal" in2="BackgroundImageFix" result="effect1_dropShadow_46_37"/>
<feBlend mode="normal" in="SourceGraphic" in2="effect1_dropShadow_46_37" result="shape"/>
</filter>
<linearGradient id="paint0_linear_46_37" x1="91.3506" y1="10.659" x2="348.232" y2="229.701" gradientUnits="userSpaceOnUse">
<stop stop-color="#71C4FF"/>
<stop offset="0.480769" stop-color="#71C4FF"/>
<stop offset="1" stop-color="#0B77F3"/>
</linearGradient>
</defs>
</svg>
