<?xml version='1.0' encoding='utf-8'?>
<svg xmlns="http://www.w3.org/2000/svg" width="472" height="237" viewBox="0 0 472 237" fill="none">
<mask id="path-1-inside-1_54_3" fill="white">
<path d="M171.814 3C209.214 3.00013 242.343 21.2785 262.759 49.3887C277.193 40.2374 294.311 34.9385 312.666 34.9385C357.951 34.9385 395.701 67.1898 404.205 109.977H412.512C442.053 109.977 466 133.924 466 163.465C466 193.006 442.053 216.953 412.512 216.953H59.4883C29.9476 216.953 6 193.006 6 163.465C6.00007 133.924 29.9476 109.977 59.4883 109.977H59.6152C62.4072 50.4247 111.572 3 171.814 3Z" />
</mask>
<path d="M171.814 3C209.214 3.00013 242.343 21.2785 262.759 49.3887C277.193 40.2374 294.311 34.9385 312.666 34.9385C357.951 34.9385 395.701 67.1898 404.205 109.977H412.512C442.053 109.977 466 133.924 466 163.465C466 193.006 442.053 216.953 412.512 216.953H59.4883C29.9476 216.953 6 193.006 6 163.465C6.00007 133.924 29.9476 109.977 59.4883 109.977H59.6152C62.4072 50.4247 111.572 3 171.814 3Z" fill="#E6F2FF" />
<path d="M171.814 3L171.814 1H171.814V3ZM262.759 49.3887L261.141 50.564L262.244 52.0832L263.83 51.0778L262.759 49.3887ZM312.666 34.9385L312.666 32.9385H312.666L312.666 34.9385ZM404.205 109.977L402.243 110.366L402.563 111.977H404.205V109.977ZM466 163.465L468 163.465L468 163.465L466 163.465ZM59.4883 216.953L59.4883 218.953H59.4883V216.953ZM6 163.465L4 163.465V163.465H6ZM59.4883 109.977L59.4883 107.977L59.4883 107.977L59.4883 109.977ZM59.6152 109.977V111.977H61.5237L61.613 110.07L59.6152 109.977ZM171.814 3L171.814 5C208.546 5.00013 241.085 22.9496 261.141 50.564L262.759 49.3887L264.377 48.2134C243.601 19.6075 209.881 1.00013 171.814 1L171.814 3ZM262.759 49.3887L263.83 51.0778C277.953 42.1235 294.701 36.9385 312.666 36.9385L312.666 34.9385L312.666 32.9385C293.92 32.9385 276.433 38.3512 261.688 47.6995L262.759 49.3887ZM312.666 34.9385V36.9385C356.978 36.9385 393.922 68.4974 402.243 110.366L404.205 109.977L406.167 109.587C397.481 65.8822 358.924 32.9385 312.666 32.9385V34.9385ZM404.205 109.977V111.977H412.512V109.977V107.977H404.205V109.977ZM412.512 109.977V111.977C440.948 111.977 464 135.029 464 163.465L466 163.465L468 163.465C468 132.82 443.157 107.977 412.512 107.977V109.977ZM466 163.465H464C464 191.901 440.948 214.953 412.512 214.953V216.953V218.953C443.157 218.953 468 194.11 468 163.465H466ZM412.512 216.953V214.953H59.4883V216.953V218.953H412.512V216.953ZM59.4883 216.953L59.4883 214.953C31.0522 214.953 8 191.901 8 163.465H6H4C4 194.11 28.843 218.953 59.4883 218.953L59.4883 216.953ZM6 163.465L8 163.465C8.00007 135.029 31.0522 111.977 59.4883 111.977L59.4883 109.977L59.4883 107.977C28.8431 107.977 4.00007 132.82 4 163.465L6 163.465ZM59.4883 109.977V111.977H59.6152V109.977V107.977H59.4883V109.977ZM59.6152 109.977L61.613 110.07C64.3553 51.5803 112.645 5 171.814 5V3V1C110.499 1 60.4592 49.2691 57.6174 109.883L59.6152 109.977Z" fill="url(#paint0_linear_54_3)" mask="url(#path-1-inside-1_54_3)" />
<defs>
<linearGradient id="paint0_linear_54_3" x1="93.3506" y1="13.659" x2="350.232" y2="232.701" gradientUnits="userSpaceOnUse">
<stop stop-color="#71C4FF" />
<stop offset="0.480769" stop-color="#71C4FF" />
<stop offset="1" stop-color="#0B77F3" />
</linearGradient>
<filter id="glow" x="-50%" y="-50%" width="200%" height="200%"><feGaussianBlur in="SourceGraphic" stdDeviation="0" result="blur"><animate attributeName="stdDeviation" values="0;6;0" dur="2s" repeatCount="indefinite" /></feGaussianBlur><feMerge><feMergeNode in="blur" /><feMergeNode in="SourceGraphic" /></feMerge></filter></defs>
</svg>