<svg width="266" height="266" viewBox="0 0 266 266" fill="none" xmlns="http://www.w3.org/2000/svg">
<path opacity="0.3" d="M133.075 24.5C193.042 24.5 241.651 72.8899 241.651 132.577C241.651 192.265 193.042 240.655 133.075 240.655C73.1086 240.655 24.5 192.264 24.5 132.577C24.5002 72.89 73.1087 24.5002 133.075 24.5Z" stroke="#0B77F3"/>
<mask id="mask0_74_163" style="mask-type:alpha" maskUnits="userSpaceOnUse" x="16" y="115" width="22" height="23">
<rect x="16.5" y="116.336" width="21" height="21" fill="#AFD5FF" stroke="white"/>
</mask>
<g mask="url(#mask0_74_163)">
<path d="M27.0002 119.669C27.8344 119.669 28.5575 119.957 29.135 120.534C29.7125 121.112 30.0002 121.835 30.0002 122.669C30.0002 123.492 29.7101 124.21 29.137 124.791C28.7725 125.161 28.3492 125.413 27.8762 125.549C28.5407 125.616 29.2281 125.757 29.9368 125.972C30.286 126.078 30.6075 126.202 30.8967 126.344C30.7445 125.983 30.6663 125.59 30.6663 125.169C30.6663 124.333 30.9598 123.608 31.5452 123.031C32.1265 122.459 32.8433 122.169 33.6663 122.169C34.5004 122.169 35.2235 122.457 35.801 123.034C36.3786 123.612 36.6663 124.335 36.6663 125.169C36.6663 125.992 36.3771 126.71 35.804 127.291C35.4704 127.629 35.0864 127.866 34.6614 128.009C35.1927 128.043 35.6615 128.248 36.0413 128.628C36.459 129.046 36.6663 129.571 36.6663 130.169V134.002H29.8333V132.493C29.5378 132.644 29.2315 132.772 28.9133 132.874C28.2999 133.071 27.6613 133.169 27.0002 133.169C26.3498 133.169 25.7136 133.066 25.094 132.862C24.7727 132.757 24.4634 132.627 24.1663 132.474V134.002H17.3333V130.169C17.3333 129.568 17.5468 129.041 17.9729 128.624C18.3565 128.249 18.822 128.041 19.3479 128.008C18.9268 127.865 18.5447 127.629 18.2092 127.293C17.6283 126.712 17.3333 125.995 17.3333 125.169C17.3333 124.333 17.6258 123.608 18.2112 123.031C18.7926 122.458 19.51 122.169 20.3333 122.169C21.1675 122.169 21.8905 122.457 22.468 123.034C23.0456 123.612 23.3333 124.335 23.3333 125.169C23.3333 125.59 23.256 125.982 23.1057 126.343C23.3943 126.201 23.7154 126.077 24.0637 125.972C24.7756 125.756 25.4657 125.615 26.1331 125.548C25.6643 125.412 25.2421 125.16 24.8752 124.793C24.2945 124.212 24.0002 123.494 24.0002 122.669C24.0002 121.833 24.2928 121.108 24.8782 120.531C25.4596 119.958 26.1771 119.669 27.0002 119.669ZM32.5081 128.002H32.6624C32.5946 127.979 32.5278 127.953 32.4622 127.925L32.5081 128.002ZM21.5305 127.935C21.4714 127.96 21.4108 127.981 21.3499 128.002H21.4915L21.5305 127.935Z" fill="#AFD5FF" stroke="white"/>
</g>
<circle cx="26" cy="128" r="16" fill="#AFD5FF"/>
<circle cx="12" cy="142" r="2" fill="#AFD5FF"/>
</svg>
