<svg width="266" height="266" viewBox="0 0 266 266" fill="none" xmlns="http://www.w3.org/2000/svg">
<g clip-path="url(#clip0_109_2)">
<ellipse opacity="0.5" cx="131.258" cy="133.258" rx="82.5" ry="82" stroke="#0B77F3" stroke-linecap="round" stroke-dasharray="1 3"/>
<circle cx="131.258" cy="133.258" r="53" stroke="#0B77F3" stroke-linecap="round" stroke-dasharray="1 3"/>
<circle opacity="0.1" cx="131" cy="133" r="133" stroke="#0B77F3" stroke-linecap="round" stroke-dasharray="1 3"/>
<ellipse opacity="0.3" cx="131.258" cy="133.258" rx="109.5" ry="109" stroke="#0B77F3" stroke-linecap="round" stroke-dasharray="1 3"/>
<rect x="75" y="55" width="78" height="18" rx="5" fill="white"/>
<g opacity="0.7">
<rect x="75" y="55" width="78" height="18" rx="5" fill="#0A77F3"/>
<path d="M102.376 61.4C102.797 61.4 103.184 61.4693 103.536 61.608C103.888 61.7467 104.192 61.9413 104.448 62.192C104.709 62.4427 104.912 62.7387 105.056 63.08C105.2 63.4213 105.272 63.7947 105.272 64.2C105.272 64.6053 105.2 64.9787 105.056 65.32C104.912 65.656 104.709 65.952 104.448 66.208C104.186 66.4587 103.877 66.6533 103.52 66.792C103.162 66.9307 102.773 67 102.352 67H100.08V61.4H102.376ZM102.4 66.192C102.672 66.192 102.922 66.144 103.152 66.048C103.386 65.952 103.589 65.816 103.76 65.64C103.936 65.4587 104.072 65.248 104.168 65.008C104.269 64.7627 104.32 64.496 104.32 64.208C104.32 63.9147 104.269 63.648 104.168 63.408C104.066 63.1627 103.928 62.9493 103.752 62.768C103.576 62.5867 103.368 62.448 103.128 62.352C102.893 62.256 102.637 62.208 102.36 62.208H101.024V66.192H102.4ZM108.051 62.72C108.488 62.72 108.872 62.8107 109.203 62.992C109.539 63.1733 109.8 63.4267 109.987 63.752C110.174 64.072 110.267 64.4453 110.267 64.872C110.267 65.2987 110.174 65.6747 109.987 66C109.8 66.3253 109.539 66.5787 109.203 66.76C108.872 66.9413 108.488 67.032 108.051 67.032C107.614 67.032 107.227 66.9413 106.891 66.76C106.555 66.5787 106.294 66.3253 106.107 66C105.92 65.6747 105.827 65.2987 105.827 64.872C105.827 64.4453 105.92 64.072 106.107 63.752C106.294 63.4267 106.555 63.1733 106.891 62.992C107.227 62.8107 107.614 62.72 108.051 62.72ZM108.051 63.464C107.795 63.464 107.568 63.5253 107.371 63.648C107.174 63.7653 107.019 63.9307 106.907 64.144C106.8 64.3573 106.747 64.6027 106.747 64.88C106.747 65.1627 106.8 65.4107 106.907 65.624C107.019 65.8373 107.174 66.0053 107.371 66.128C107.568 66.2453 107.795 66.304 108.051 66.304C108.307 66.304 108.531 66.2453 108.723 66.128C108.92 66.0053 109.072 65.8373 109.179 65.624C109.291 65.4107 109.347 65.1627 109.347 64.88C109.347 64.6027 109.291 64.3573 109.179 64.144C109.072 63.9307 108.92 63.7653 108.723 63.648C108.531 63.5253 108.307 63.464 108.051 63.464ZM114.227 63.968C114.078 63.8133 113.902 63.6933 113.699 63.608C113.496 63.5227 113.267 63.48 113.011 63.48C112.766 63.48 112.547 63.5387 112.355 63.656C112.163 63.7733 112.014 63.9387 111.907 64.152C111.8 64.36 111.747 64.6027 111.747 64.88C111.747 65.1573 111.8 65.4027 111.907 65.616C112.014 65.824 112.163 65.9893 112.355 66.112C112.547 66.2293 112.766 66.288 113.011 66.288C113.278 66.288 113.518 66.2453 113.731 66.16C113.944 66.0693 114.123 65.9387 114.267 65.768L114.779 66.272C114.587 66.512 114.336 66.6987 114.027 66.832C113.723 66.9653 113.371 67.032 112.971 67.032C112.55 67.032 112.176 66.9413 111.851 66.76C111.531 66.5787 111.28 66.328 111.099 66.008C110.918 65.6827 110.827 65.3067 110.827 64.88C110.827 64.4533 110.918 64.08 111.099 63.76C111.28 63.4347 111.531 63.1813 111.851 63C112.176 62.8133 112.55 62.72 112.971 62.72C113.355 62.72 113.694 62.7787 113.987 62.896C114.286 63.008 114.534 63.168 114.731 63.376L114.227 63.968ZM116.527 65.152C116.527 65.4827 116.615 65.744 116.791 65.936C116.967 66.1227 117.209 66.216 117.519 66.216C117.887 66.2053 118.172 66.0693 118.375 65.808C118.583 65.5467 118.687 65.224 118.687 64.84H118.935C118.935 65.3627 118.863 65.784 118.719 66.104C118.575 66.424 118.369 66.6587 118.103 66.808C117.841 66.952 117.529 67.0267 117.167 67.032C116.841 67.032 116.561 66.9653 116.327 66.832C116.097 66.6987 115.919 66.5093 115.791 66.264C115.668 66.0187 115.607 65.728 115.607 65.392V62.752H116.527V65.152ZM118.687 62.752H119.607V67H118.687V62.752ZM124.065 64.6C124.065 64.264 123.977 64.0027 123.801 63.816C123.625 63.624 123.38 63.528 123.065 63.528C122.697 63.5387 122.406 63.6747 122.193 63.936C121.985 64.1973 121.881 64.52 121.881 64.904H121.625C121.625 64.3813 121.697 63.96 121.841 63.64C121.99 63.32 122.198 63.088 122.465 62.944C122.737 62.7947 123.057 62.72 123.425 62.72C123.75 62.72 124.028 62.7867 124.257 62.92C124.492 63.0533 124.67 63.2427 124.793 63.488C124.921 63.728 124.985 64.0187 124.985 64.36V67H124.065V64.6ZM127.161 64.6C127.161 64.264 127.07 64.0027 126.889 63.816C126.713 63.624 126.468 63.528 126.153 63.528C125.79 63.5387 125.505 63.6747 125.297 63.936C125.089 64.1973 124.985 64.52 124.985 64.904H124.721C124.721 64.3813 124.793 63.96 124.937 63.64C125.086 63.32 125.294 63.088 125.561 62.944C125.833 62.7947 126.153 62.72 126.521 62.72C126.846 62.72 127.124 62.7867 127.353 62.92C127.588 63.0533 127.766 63.2427 127.889 63.488C128.017 63.728 128.081 64.0187 128.081 64.36V67H127.161V64.6ZM120.969 62.752H121.881V67H120.969V62.752ZM132.257 64.568C132.246 64.328 132.19 64.1253 132.089 63.96C131.993 63.7893 131.857 63.6587 131.681 63.568C131.505 63.472 131.302 63.424 131.073 63.424C130.817 63.424 130.593 63.4827 130.401 63.6C130.214 63.7173 130.067 63.8827 129.961 64.096C129.854 64.304 129.801 64.5493 129.801 64.832C129.801 65.136 129.857 65.4 129.969 65.624C130.086 65.848 130.246 66.0213 130.449 66.144C130.657 66.2667 130.894 66.328 131.161 66.328C131.635 66.328 132.035 66.16 132.361 65.824L132.849 66.312C132.641 66.5413 132.387 66.72 132.089 66.848C131.79 66.9707 131.457 67.032 131.089 67.032C130.651 67.032 130.27 66.9413 129.945 66.76C129.619 66.5787 129.366 66.328 129.185 66.008C129.003 65.6827 128.913 65.3067 128.913 64.88C128.913 64.4533 129.003 64.08 129.185 63.76C129.366 63.4347 129.619 63.1813 129.945 63C130.27 62.8187 130.643 62.7253 131.065 62.72C131.566 62.72 131.969 62.824 132.273 63.032C132.577 63.2347 132.793 63.5227 132.921 63.896C133.049 64.2693 133.094 64.712 133.057 65.224H129.657V64.568H132.257ZM137.168 64.6C137.168 64.2693 137.077 64.0107 136.896 63.824C136.715 63.632 136.464 63.536 136.144 63.536C135.765 63.5413 135.467 63.6747 135.248 63.936C135.035 64.1973 134.928 64.5227 134.928 64.912H134.672C134.672 64.384 134.747 63.96 134.896 63.64C135.045 63.32 135.256 63.088 135.528 62.944C135.805 62.7947 136.131 62.72 136.504 62.72C136.835 62.72 137.117 62.7867 137.352 62.92C137.592 63.0533 137.773 63.2427 137.896 63.488C138.024 63.728 138.088 64.0187 138.088 64.36V67H137.168V64.6ZM134.016 62.752H134.936V67H134.016V62.752ZM140.401 65.656C140.401 65.8853 140.441 66.0427 140.521 66.128C140.601 66.208 140.713 66.248 140.857 66.248C140.953 66.248 141.051 66.232 141.153 66.2C141.259 66.168 141.374 66.12 141.497 66.056L141.729 66.72C141.563 66.8213 141.393 66.9013 141.217 66.96C141.041 67.0133 140.862 67.04 140.681 67.04C140.467 67.04 140.27 67 140.089 66.92C139.907 66.8347 139.761 66.7013 139.649 66.52C139.542 66.3387 139.489 66.104 139.489 65.816V61.744H140.401V65.656ZM138.889 62.904H141.657V63.56H138.889V62.904ZM145.002 63.784C144.816 63.672 144.61 63.584 144.386 63.52C144.168 63.4507 143.965 63.416 143.778 63.416C143.597 63.416 143.448 63.4507 143.33 63.52C143.213 63.5893 143.154 63.704 143.154 63.864C143.154 63.9973 143.208 64.104 143.314 64.184C143.426 64.2587 143.568 64.3227 143.738 64.376C143.909 64.4293 144.09 64.4853 144.282 64.544C144.474 64.6027 144.656 64.68 144.826 64.776C145.002 64.8667 145.144 64.992 145.25 65.152C145.357 65.312 145.41 65.5227 145.41 65.784C145.41 66.072 145.333 66.3093 145.178 66.496C145.029 66.6773 144.829 66.8133 144.578 66.904C144.333 66.9893 144.066 67.032 143.778 67.032C143.469 67.032 143.16 66.9813 142.85 66.88C142.541 66.7787 142.28 66.632 142.066 66.44L142.394 65.816C142.581 65.9813 142.808 66.112 143.074 66.208C143.341 66.2987 143.589 66.344 143.818 66.344C143.952 66.344 144.069 66.328 144.17 66.296C144.277 66.2587 144.36 66.2053 144.418 66.136C144.482 66.0667 144.514 65.976 144.514 65.864C144.514 65.7147 144.461 65.5973 144.354 65.512C144.248 65.4267 144.109 65.3573 143.938 65.304C143.768 65.2453 143.586 65.1893 143.394 65.136C143.202 65.0773 143.021 65.0027 142.85 64.912C142.685 64.8213 142.549 64.6987 142.442 64.544C142.336 64.3893 142.282 64.184 142.282 63.928C142.282 63.64 142.357 63.408 142.506 63.232C142.656 63.0507 142.848 62.92 143.082 62.84C143.322 62.7547 143.578 62.712 143.85 62.712C144.117 62.712 144.384 62.7493 144.65 62.824C144.917 62.8987 145.146 63.0027 145.338 63.136L145.002 63.784Z" fill="white"/>
<mask id="mask0_109_2" style="mask-type:alpha" maskUnits="userSpaceOnUse" x="82" y="58" width="12" height="12">
<rect x="82" y="58" width="12" height="12" fill="white"/>
</mask>
<g mask="url(#mask0_109_2)">
<path d="M86 66H92V60H91V63.5L89.75 62.75L88.5 63.5V60H86V66ZM86 67C85.725 67 85.4896 66.9021 85.2938 66.7063C85.0979 66.5104 85 66.275 85 66V60C85 59.725 85.0979 59.4896 85.2938 59.2938C85.4896 59.0979 85.725 59 86 59H92C92.275 59 92.5104 59.0979 92.7063 59.2938C92.9021 59.4896 93 59.725 93 60V66C93 66.275 92.9021 66.5104 92.7063 66.7063C92.5104 66.9021 92.275 67 92 67H86ZM84 69C83.725 69 83.4896 68.9021 83.2938 68.7063C83.0979 68.5104 83 68.275 83 68V61H84V68H91V69H84Z" fill="white"/>
</g>
</g>
<rect x="173" y="124" width="63" height="18" rx="5" fill="white"/>
<g opacity="0.8">
<rect x="173" y="124" width="63" height="18" rx="5" fill="#0A77F3"/>
<path d="M200.224 130.4H201.168V136H200.224V130.4ZM205.678 133.6C205.678 133.264 205.59 133.003 205.414 132.816C205.238 132.624 204.993 132.528 204.678 132.528C204.31 132.539 204.02 132.675 203.806 132.936C203.598 133.197 203.494 133.52 203.494 133.904H203.238C203.238 133.381 203.31 132.96 203.454 132.64C203.604 132.32 203.812 132.088 204.078 131.944C204.35 131.795 204.67 131.72 205.038 131.72C205.364 131.72 205.641 131.787 205.87 131.92C206.105 132.053 206.284 132.243 206.406 132.488C206.534 132.728 206.598 133.019 206.598 133.36V136H205.678V133.6ZM208.774 133.6C208.774 133.264 208.684 133.003 208.502 132.816C208.326 132.624 208.081 132.528 207.766 132.528C207.404 132.539 207.118 132.675 206.91 132.936C206.702 133.197 206.598 133.52 206.598 133.904H206.334C206.334 133.381 206.406 132.96 206.55 132.64C206.7 132.32 206.908 132.088 207.174 131.944C207.446 131.795 207.766 131.72 208.134 131.72C208.46 131.72 208.737 131.787 208.966 131.92C209.201 132.053 209.38 132.243 209.502 132.488C209.63 132.728 209.694 133.019 209.694 133.36V136H208.774V133.6ZM202.582 131.752H203.494V136H202.582V131.752ZM212.318 134.104C212.019 134.104 211.798 134.149 211.654 134.24C211.51 134.331 211.438 134.48 211.438 134.688C211.438 134.885 211.51 135.043 211.654 135.16C211.803 135.277 212.006 135.336 212.262 135.336C212.491 135.336 212.697 135.296 212.878 135.216C213.059 135.136 213.203 135.029 213.31 134.896C213.417 134.757 213.473 134.603 213.478 134.432L213.654 135.208C213.521 135.485 213.318 135.693 213.046 135.832C212.774 135.971 212.449 136.04 212.07 136.04C211.766 136.04 211.502 135.981 211.278 135.864C211.054 135.747 210.881 135.589 210.758 135.392C210.635 135.189 210.574 134.965 210.574 134.72C210.574 134.336 210.713 134.029 210.99 133.8C211.273 133.571 211.67 133.453 212.182 133.448H213.59V134.104H212.318ZM213.47 133.304C213.47 133.027 213.385 132.811 213.214 132.656C213.043 132.501 212.79 132.424 212.454 132.424C212.251 132.424 212.043 132.461 211.83 132.536C211.622 132.611 211.411 132.72 211.198 132.864L210.822 132.272C211.019 132.149 211.206 132.048 211.382 131.968C211.558 131.888 211.745 131.827 211.942 131.784C212.145 131.741 212.382 131.72 212.654 131.72C213.203 131.72 213.625 131.853 213.918 132.12C214.217 132.381 214.369 132.744 214.374 133.208L214.382 136H213.478L213.47 133.304ZM219.454 135.576C219.454 135.987 219.363 136.341 219.182 136.64C219 136.939 218.744 137.168 218.414 137.328C218.083 137.493 217.694 137.576 217.246 137.576C216.915 137.576 216.603 137.525 216.31 137.424C216.016 137.328 215.739 137.192 215.478 137.016L215.87 136.384C216.072 136.533 216.28 136.648 216.494 136.728C216.707 136.813 216.944 136.856 217.206 136.856C217.478 136.856 217.712 136.803 217.91 136.696C218.112 136.595 218.267 136.451 218.374 136.264C218.486 136.077 218.542 135.856 218.542 135.6V131.752H219.454V135.576ZM217.102 131.72C217.475 131.715 217.792 131.795 218.054 131.96C218.32 132.12 218.523 132.352 218.662 132.656C218.8 132.96 218.867 133.325 218.862 133.752C218.867 134.179 218.8 134.547 218.662 134.856C218.528 135.16 218.331 135.395 218.07 135.56C217.814 135.72 217.502 135.8 217.134 135.8C216.75 135.8 216.414 135.715 216.126 135.544C215.838 135.368 215.614 135.125 215.454 134.816C215.294 134.507 215.214 134.149 215.214 133.744C215.214 133.344 215.291 132.995 215.446 132.696C215.606 132.392 215.827 132.155 216.11 131.984C216.398 131.808 216.728 131.72 217.102 131.72ZM217.318 132.424C217.078 132.424 216.864 132.483 216.678 132.6C216.491 132.712 216.344 132.869 216.238 133.072C216.136 133.275 216.083 133.507 216.078 133.768C216.083 134.029 216.136 134.261 216.238 134.464C216.344 134.667 216.488 134.827 216.67 134.944C216.856 135.056 217.072 135.112 217.318 135.112C217.558 135.112 217.768 135.056 217.95 134.944C218.136 134.827 218.28 134.667 218.382 134.464C218.488 134.261 218.542 134.029 218.542 133.768C218.542 133.501 218.488 133.269 218.382 133.072C218.28 132.869 218.136 132.712 217.95 132.6C217.768 132.483 217.558 132.424 217.318 132.424ZM223.675 133.568C223.664 133.328 223.608 133.125 223.507 132.96C223.411 132.789 223.275 132.659 223.099 132.568C222.923 132.472 222.72 132.424 222.491 132.424C222.235 132.424 222.011 132.483 221.819 132.6C221.632 132.717 221.485 132.883 221.379 133.096C221.272 133.304 221.219 133.549 221.219 133.832C221.219 134.136 221.275 134.4 221.387 134.624C221.504 134.848 221.664 135.021 221.867 135.144C222.075 135.267 222.312 135.328 222.579 135.328C223.053 135.328 223.453 135.16 223.779 134.824L224.267 135.312C224.059 135.541 223.805 135.72 223.507 135.848C223.208 135.971 222.875 136.032 222.507 136.032C222.069 136.032 221.688 135.941 221.363 135.76C221.037 135.579 220.784 135.328 220.603 135.008C220.421 134.683 220.331 134.307 220.331 133.88C220.331 133.453 220.421 133.08 220.603 132.76C220.784 132.435 221.037 132.181 221.363 132C221.688 131.819 222.061 131.725 222.483 131.72C222.984 131.72 223.387 131.824 223.691 132.032C223.995 132.235 224.211 132.523 224.339 132.896C224.467 133.269 224.512 133.712 224.475 134.224H221.075V133.568H223.675ZM227.858 132.784C227.671 132.672 227.466 132.584 227.242 132.52C227.023 132.451 226.821 132.416 226.634 132.416C226.453 132.416 226.303 132.451 226.186 132.52C226.069 132.589 226.01 132.704 226.01 132.864C226.01 132.997 226.063 133.104 226.17 133.184C226.282 133.259 226.423 133.323 226.594 133.376C226.765 133.429 226.946 133.485 227.138 133.544C227.33 133.603 227.511 133.68 227.682 133.776C227.858 133.867 227.999 133.992 228.106 134.152C228.213 134.312 228.266 134.523 228.266 134.784C228.266 135.072 228.189 135.309 228.034 135.496C227.885 135.677 227.685 135.813 227.434 135.904C227.189 135.989 226.922 136.032 226.634 136.032C226.325 136.032 226.015 135.981 225.706 135.88C225.397 135.779 225.135 135.632 224.922 135.44L225.25 134.816C225.437 134.981 225.663 135.112 225.93 135.208C226.197 135.299 226.445 135.344 226.674 135.344C226.807 135.344 226.925 135.328 227.026 135.296C227.133 135.259 227.215 135.205 227.274 135.136C227.338 135.067 227.37 134.976 227.37 134.864C227.37 134.715 227.317 134.597 227.21 134.512C227.103 134.427 226.965 134.357 226.794 134.304C226.623 134.245 226.442 134.189 226.25 134.136C226.058 134.077 225.877 134.003 225.706 133.912C225.541 133.821 225.405 133.699 225.298 133.544C225.191 133.389 225.138 133.184 225.138 132.928C225.138 132.64 225.213 132.408 225.362 132.232C225.511 132.051 225.703 131.92 225.938 131.84C226.178 131.755 226.434 131.712 226.706 131.712C226.973 131.712 227.239 131.749 227.506 131.824C227.773 131.899 228.002 132.003 228.194 132.136L227.858 132.784Z" fill="white"/>
<mask id="mask1_109_2" style="mask-type:alpha" maskUnits="userSpaceOnUse" x="180" y="127" width="12" height="12">
<rect x="180" y="127" width="12" height="12" fill="#D9D9D9"/>
</mask>
<g mask="url(#mask1_109_2)">
<path d="M184.5 133.5H189.5L187.775 131.25L186.625 132.75L185.85 131.75L184.5 133.5ZM181.5 137.5C181.225 137.5 180.99 137.402 180.794 137.206C180.598 137.01 180.5 136.775 180.5 136.5V130H181.5V136.5H190V137.5H181.5ZM183.5 135.5C183.225 135.5 182.99 135.402 182.794 135.206C182.598 135.01 182.5 134.775 182.5 134.5V129C182.5 128.725 182.598 128.49 182.794 128.294C182.99 128.098 183.225 128 183.5 128H186L187 129H190.5C190.775 129 191.01 129.098 191.206 129.294C191.402 129.49 191.5 129.725 191.5 130V134.5C191.5 134.775 191.402 135.01 191.206 135.206C191.01 135.402 190.775 135.5 190.5 135.5H183.5ZM183.5 134.5H190.5V130H186.588L185.588 129H183.5V134.5Z" fill="white"/>
</g>
</g>
<rect x="133" y="233" width="63" height="18" rx="5" fill="white"/>
<g opacity="0.4">
<rect x="133" y="233" width="63" height="18" rx="5" fill="#0A77F3"/>
<path d="M160.669 239.4H161.685L163.413 244.008L165.157 239.4H166.141L163.877 245H162.901L160.669 239.4ZM166.848 240.752H167.76V245H166.848V240.752ZM167.304 239C167.459 239 167.587 239.051 167.688 239.152C167.789 239.253 167.84 239.381 167.84 239.536C167.84 239.685 167.789 239.813 167.688 239.92C167.587 240.021 167.459 240.072 167.304 240.072C167.155 240.072 167.027 240.021 166.92 239.92C166.819 239.813 166.768 239.685 166.768 239.536C166.768 239.381 166.819 239.253 166.92 239.152C167.027 239.051 167.155 239 167.304 239ZM170.745 240.712C171.14 240.712 171.473 240.8 171.745 240.976C172.023 241.147 172.233 241.395 172.377 241.72C172.527 242.04 172.599 242.424 172.593 242.872C172.599 243.32 172.529 243.707 172.385 244.032C172.241 244.357 172.031 244.608 171.753 244.784C171.481 244.955 171.151 245.04 170.761 245.04C170.356 245.04 169.999 244.949 169.689 244.768C169.385 244.581 169.148 244.325 168.977 244C168.807 243.669 168.721 243.291 168.721 242.864C168.721 242.437 168.807 242.064 168.977 241.744C169.148 241.419 169.385 241.165 169.689 240.984C169.993 240.803 170.345 240.712 170.745 240.712ZM170.953 241.456C170.697 241.456 170.471 241.517 170.273 241.64C170.076 241.763 169.921 241.933 169.809 242.152C169.703 242.365 169.647 242.611 169.641 242.888C169.647 243.165 169.703 243.411 169.809 243.624C169.921 243.837 170.076 244.005 170.273 244.128C170.471 244.251 170.697 244.312 170.953 244.312C171.209 244.312 171.436 244.251 171.633 244.128C171.831 244.005 171.983 243.837 172.089 243.624C172.201 243.411 172.257 243.165 172.257 242.888C172.257 242.605 172.201 242.357 172.089 242.144C171.983 241.931 171.831 241.763 171.633 241.64C171.436 241.517 171.209 241.456 170.953 241.456ZM172.257 239.064H173.177V245H172.257V239.064ZM177.519 242.568C177.508 242.328 177.452 242.125 177.351 241.96C177.255 241.789 177.119 241.659 176.943 241.568C176.767 241.472 176.564 241.424 176.335 241.424C176.079 241.424 175.855 241.483 175.663 241.6C175.476 241.717 175.329 241.883 175.223 242.096C175.116 242.304 175.063 242.549 175.063 242.832C175.063 243.136 175.119 243.4 175.231 243.624C175.348 243.848 175.508 244.021 175.711 244.144C175.919 244.267 176.156 244.328 176.423 244.328C176.897 244.328 177.297 244.16 177.623 243.824L178.111 244.312C177.903 244.541 177.649 244.72 177.351 244.848C177.052 244.971 176.719 245.032 176.351 245.032C175.913 245.032 175.532 244.941 175.207 244.76C174.881 244.579 174.628 244.328 174.447 244.008C174.265 243.683 174.175 243.307 174.175 242.88C174.175 242.453 174.265 242.08 174.447 241.76C174.628 241.435 174.881 241.181 175.207 241C175.532 240.819 175.905 240.725 176.327 240.72C176.828 240.72 177.231 240.824 177.535 241.032C177.839 241.235 178.055 241.523 178.183 241.896C178.311 242.269 178.356 242.712 178.319 243.224H174.919V242.568H177.519ZM181.102 240.72C181.539 240.72 181.923 240.811 182.254 240.992C182.59 241.173 182.851 241.427 183.038 241.752C183.224 242.072 183.318 242.445 183.318 242.872C183.318 243.299 183.224 243.675 183.038 244C182.851 244.325 182.59 244.579 182.254 244.76C181.923 244.941 181.539 245.032 181.102 245.032C180.664 245.032 180.278 244.941 179.942 244.76C179.606 244.579 179.344 244.325 179.158 244C178.971 243.675 178.878 243.299 178.878 242.872C178.878 242.445 178.971 242.072 179.158 241.752C179.344 241.427 179.606 241.173 179.942 240.992C180.278 240.811 180.664 240.72 181.102 240.72ZM181.102 241.464C180.846 241.464 180.619 241.525 180.422 241.648C180.224 241.765 180.07 241.931 179.958 242.144C179.851 242.357 179.798 242.603 179.798 242.88C179.798 243.163 179.851 243.411 179.958 243.624C180.07 243.837 180.224 244.005 180.422 244.128C180.619 244.245 180.846 244.304 181.102 244.304C181.358 244.304 181.582 244.245 181.774 244.128C181.971 244.005 182.123 243.837 182.23 243.624C182.342 243.411 182.398 243.163 182.398 242.88C182.398 242.603 182.342 242.357 182.23 242.144C182.123 241.931 181.971 241.765 181.774 241.648C181.582 241.525 181.358 241.464 181.102 241.464ZM186.702 241.784C186.515 241.672 186.31 241.584 186.086 241.52C185.867 241.451 185.664 241.416 185.478 241.416C185.296 241.416 185.147 241.451 185.03 241.52C184.912 241.589 184.854 241.704 184.854 241.864C184.854 241.997 184.907 242.104 185.014 242.184C185.126 242.259 185.267 242.323 185.438 242.376C185.608 242.429 185.79 242.485 185.982 242.544C186.174 242.603 186.355 242.68 186.526 242.776C186.702 242.867 186.843 242.992 186.95 243.152C187.056 243.312 187.11 243.523 187.11 243.784C187.11 244.072 187.032 244.309 186.878 244.496C186.728 244.677 186.528 244.813 186.278 244.904C186.032 244.989 185.766 245.032 185.478 245.032C185.168 245.032 184.859 244.981 184.55 244.88C184.24 244.779 183.979 244.632 183.766 244.44L184.094 243.816C184.28 243.981 184.507 244.112 184.774 244.208C185.04 244.299 185.288 244.344 185.518 244.344C185.651 244.344 185.768 244.328 185.87 244.296C185.976 244.259 186.059 244.205 186.118 244.136C186.182 244.067 186.214 243.976 186.214 243.864C186.214 243.715 186.16 243.597 186.054 243.512C185.947 243.427 185.808 243.357 185.638 243.304C185.467 243.245 185.286 243.189 185.094 243.136C184.902 243.077 184.72 243.003 184.55 242.912C184.384 242.821 184.248 242.699 184.142 242.544C184.035 242.389 183.982 242.184 183.982 241.928C183.982 241.64 184.056 241.408 184.206 241.232C184.355 241.051 184.547 240.92 184.782 240.84C185.022 240.755 185.278 240.712 185.55 240.712C185.816 240.712 186.083 240.749 186.35 240.824C186.616 240.899 186.846 241.003 187.038 241.136L186.702 241.784Z" fill="white"/>
<mask id="mask2_109_2" style="mask-type:alpha" maskUnits="userSpaceOnUse" x="140" y="236" width="12" height="12">
<rect x="140" y="236" width="12" height="12" fill="white"/>
</mask>
<g mask="url(#mask2_109_2)">
<path d="M145.75 243.25L149.25 241L145.75 238.75V243.25ZM144 245C143.725 245 143.49 244.902 143.294 244.706C143.098 244.51 143 244.275 143 244V238C143 237.725 143.098 237.49 143.294 237.294C143.49 237.098 143.725 237 144 237H150C150.275 237 150.51 237.098 150.706 237.294C150.902 237.49 151 237.725 151 238V244C151 244.275 150.902 244.51 150.706 244.706C150.51 244.902 150.275 245 150 245H144ZM144 244H150V238H144V244ZM142 247C141.725 247 141.49 246.902 141.294 246.706C141.098 246.51 141 246.275 141 246V239H142V246H149V247H142Z" fill="white"/>
</g>
</g>
<rect x="15" y="209" width="63" height="18" rx="5" fill="white"/>
<g opacity="0.1">
<rect x="15" y="209" width="63" height="18" rx="5" fill="#0A77F3"/>
<path d="M45.0876 215.4H46.1836L48.1196 219.2L50.0396 215.4H51.1356V221H50.2636L50.2556 216.72L48.4156 220.416H47.8156L45.9596 216.72V221H45.0876V215.4ZM53.339 219.152C53.339 219.483 53.427 219.744 53.603 219.936C53.779 220.123 54.0217 220.216 54.331 220.216C54.699 220.205 54.9843 220.069 55.187 219.808C55.395 219.547 55.499 219.224 55.499 218.84H55.747C55.747 219.363 55.675 219.784 55.531 220.104C55.387 220.424 55.1817 220.659 54.915 220.808C54.6537 220.952 54.3417 221.027 53.979 221.032C53.6537 221.032 53.3737 220.965 53.139 220.832C52.9097 220.699 52.731 220.509 52.603 220.264C52.4803 220.019 52.419 219.728 52.419 219.392V216.752H53.339V219.152ZM55.499 216.752H56.419V221H55.499V216.752ZM60.2056 217.784C60.0189 217.672 59.8136 217.584 59.5896 217.52C59.3709 217.451 59.1682 217.416 58.9816 217.416C58.8002 217.416 58.6509 217.451 58.5336 217.52C58.4162 217.589 58.3576 217.704 58.3576 217.864C58.3576 217.997 58.4109 218.104 58.5176 218.184C58.6296 218.259 58.7709 218.323 58.9416 218.376C59.1122 218.429 59.2936 218.485 59.4856 218.544C59.6776 218.603 59.8589 218.68 60.0296 218.776C60.2056 218.867 60.3469 218.992 60.4536 219.152C60.5602 219.312 60.6136 219.523 60.6136 219.784C60.6136 220.072 60.5362 220.309 60.3816 220.496C60.2322 220.677 60.0322 220.813 59.7816 220.904C59.5362 220.989 59.2696 221.032 58.9816 221.032C58.6722 221.032 58.3629 220.981 58.0536 220.88C57.7442 220.779 57.4829 220.632 57.2696 220.44L57.5976 219.816C57.7842 219.981 58.0109 220.112 58.2776 220.208C58.5442 220.299 58.7922 220.344 59.0216 220.344C59.1549 220.344 59.2722 220.328 59.3736 220.296C59.4802 220.259 59.5629 220.205 59.6216 220.136C59.6856 220.067 59.7176 219.976 59.7176 219.864C59.7176 219.715 59.6642 219.597 59.5576 219.512C59.4509 219.427 59.3122 219.357 59.1416 219.304C58.9709 219.245 58.7896 219.189 58.5976 219.136C58.4056 219.077 58.2242 219.003 58.0536 218.912C57.8882 218.821 57.7522 218.699 57.6456 218.544C57.5389 218.389 57.4856 218.184 57.4856 217.928C57.4856 217.64 57.5602 217.408 57.7096 217.232C57.8589 217.051 58.0509 216.92 58.2856 216.84C58.5256 216.755 58.7816 216.712 59.0536 216.712C59.3202 216.712 59.5869 216.749 59.8536 216.824C60.1202 216.899 60.3496 217.003 60.5416 217.136L60.2056 217.784ZM61.5394 216.752H62.4514V221H61.5394V216.752ZM61.9954 215C62.15 215 62.278 215.051 62.3794 215.152C62.4807 215.253 62.5314 215.381 62.5314 215.536C62.5314 215.685 62.4807 215.813 62.3794 215.92C62.278 216.021 62.15 216.072 61.9954 216.072C61.846 216.072 61.718 216.021 61.6114 215.92C61.51 215.813 61.4594 215.685 61.4594 215.536C61.4594 215.381 61.51 215.253 61.6114 215.152C61.718 215.051 61.846 215 61.9954 215ZM66.8128 217.968C66.6635 217.813 66.4875 217.693 66.2848 217.608C66.0821 217.523 65.8528 217.48 65.5968 217.48C65.3515 217.48 65.1328 217.539 64.9408 217.656C64.7488 217.773 64.5995 217.939 64.4928 218.152C64.3861 218.36 64.3328 218.603 64.3328 218.88C64.3328 219.157 64.3861 219.403 64.4928 219.616C64.5995 219.824 64.7488 219.989 64.9408 220.112C65.1328 220.229 65.3515 220.288 65.5968 220.288C65.8635 220.288 66.1035 220.245 66.3168 220.16C66.5301 220.069 66.7088 219.939 66.8528 219.768L67.3648 220.272C67.1728 220.512 66.9221 220.699 66.6128 220.832C66.3088 220.965 65.9568 221.032 65.5568 221.032C65.1355 221.032 64.7621 220.941 64.4368 220.76C64.1168 220.579 63.8661 220.328 63.6848 220.008C63.5035 219.683 63.4128 219.307 63.4128 218.88C63.4128 218.453 63.5035 218.08 63.6848 217.76C63.8661 217.435 64.1168 217.181 64.4368 217C64.7621 216.813 65.1355 216.72 65.5568 216.72C65.9408 216.72 66.2795 216.779 66.5728 216.896C66.8715 217.008 67.1195 217.168 67.3168 217.376L66.8128 217.968Z" fill="white"/>
<mask id="mask3_109_2" style="mask-type:alpha" maskUnits="userSpaceOnUse" x="22" y="212" width="12" height="12">
<rect x="22" y="212" width="12" height="12" fill="white"/>
</mask>
<g mask="url(#mask3_109_2)">
<path d="M28.25 219.5C28.6 219.5 28.8958 219.379 29.1375 219.138C29.3792 218.896 29.5 218.6 29.5 218.25V215.5H31V214.5H29V217.25C28.8917 217.167 28.775 217.104 28.65 217.062C28.525 217.021 28.3917 217 28.25 217C27.9 217 27.6042 217.121 27.3625 217.363C27.1208 217.604 27 217.9 27 218.25C27 218.6 27.1208 218.896 27.3625 219.138C27.6042 219.379 27.9 219.5 28.25 219.5ZM26 221C25.725 221 25.4896 220.902 25.2938 220.706C25.0979 220.51 25 220.275 25 220V214C25 213.725 25.0979 213.49 25.2938 213.294C25.4896 213.098 25.725 213 26 213H32C32.275 213 32.5104 213.098 32.7063 213.294C32.9021 213.49 33 213.725 33 214V220C33 220.275 32.9021 220.51 32.7063 220.706C32.5104 220.902 32.275 221 32 221H26ZM26 220H32V214H26V220ZM24 223C23.725 223 23.4896 222.902 23.2938 222.706C23.0979 222.51 23 222.275 23 222V215H24V222H31V223H24Z" fill="white"/>
</g>
</g>
<mask id="mask4_109_2" style="mask-type:alpha" maskUnits="userSpaceOnUse" x="106" y="106" width="52" height="52">
<rect x="106" y="106" width="52" height="52" fill="#0A77F3"/>
</mask>
<g mask="url(#mask4_109_2)">
<path d="M145 147.167C144.386 147.167 143.872 146.959 143.456 146.544C143.041 146.129 142.833 145.614 142.833 145C142.833 144.386 143.041 143.872 143.456 143.456C143.872 143.041 144.386 142.833 145 142.833C145.614 142.833 146.129 143.041 146.544 143.456C146.959 143.872 147.167 144.386 147.167 145C147.167 145.614 146.959 146.129 146.544 146.544C146.129 146.959 145.614 147.167 145 147.167ZM121.167 153.667C120.553 153.667 120.038 153.459 119.623 153.044C119.208 152.629 119 152.114 119 151.5C119 150.886 119.208 150.372 119.623 149.956C120.038 149.541 120.553 149.333 121.167 149.333C121.781 149.333 122.295 149.541 122.711 149.956C123.126 150.372 123.333 150.886 123.333 151.5C123.333 152.114 123.126 152.629 122.711 153.044C122.295 153.459 121.781 153.667 121.167 153.667ZM119 147.167C118.386 147.167 117.872 146.959 117.456 146.544C117.041 146.129 116.833 145.614 116.833 145C116.833 144.386 117.041 143.872 117.456 143.456C117.872 143.041 118.386 142.833 119 142.833H138.5C139.114 142.833 139.629 143.041 140.044 143.456C140.459 143.872 140.667 144.386 140.667 145C140.667 145.614 140.459 146.129 140.044 146.544C139.629 146.959 139.114 147.167 138.5 147.167H119ZM127.667 153.667C127.053 153.667 126.538 153.459 126.123 153.044C125.708 152.629 125.5 152.114 125.5 151.5C125.5 150.886 125.708 150.372 126.123 149.956C126.538 149.541 127.053 149.333 127.667 149.333H142.833C143.447 149.333 143.962 149.541 144.377 149.956C144.793 150.372 145 150.886 145 151.5C145 152.114 144.793 152.629 144.377 153.044C143.962 153.459 143.447 153.667 142.833 153.667H127.667ZM122.25 140.667C118.964 140.667 116.156 139.502 113.827 137.173C111.498 134.844 110.333 132.036 110.333 128.75C110.333 125.753 111.327 123.135 113.313 120.896C115.299 118.657 117.754 117.339 120.679 116.942C121.835 114.883 123.415 113.267 125.419 112.094C127.423 110.92 129.617 110.333 132 110.333C135.25 110.333 138.076 111.372 140.477 113.448C142.879 115.524 144.332 118.115 144.838 121.221C147.329 121.438 149.424 122.467 151.121 124.308C152.818 126.15 153.667 128.353 153.667 130.917C153.667 133.625 152.719 135.927 150.823 137.823C148.927 139.719 146.625 140.667 143.917 140.667H122.25Z" fill="#0A77F3"/>
</g>
</g>
<defs>
<clipPath id="clip0_109_2">
<rect width="266" height="266" fill="white"/>
</clipPath>
</defs>
</svg>
