<svg width="266" height="266" viewBox="0 0 266 266" fill="none" xmlns="http://www.w3.org/2000/svg">
<g clip-path="url(#clip0_109_2)">
<mask id="mask0_109_2" style="mask-type:alpha" maskUnits="userSpaceOnUse" x="106" y="106" width="52" height="52">
<rect x="106" y="106" width="52" height="52" fill="#0A77F3"/>
</mask>
<g mask="url(#mask0_109_2)">
<path d="M145 147.167C144.386 147.167 143.872 146.959 143.456 146.544C143.041 146.129 142.833 145.614 142.833 145C142.833 144.386 143.041 143.872 143.456 143.456C143.872 143.041 144.386 142.833 145 142.833C145.614 142.833 146.129 143.041 146.544 143.456C146.959 143.872 147.167 144.386 147.167 145C147.167 145.614 146.959 146.129 146.544 146.544C146.129 146.959 145.614 147.167 145 147.167ZM121.167 153.667C120.553 153.667 120.038 153.459 119.623 153.044C119.208 152.629 119 152.114 119 151.5C119 150.886 119.208 150.372 119.623 149.956C120.038 149.541 120.553 149.333 121.167 149.333C121.781 149.333 122.295 149.541 122.711 149.956C123.126 150.372 123.333 150.886 123.333 151.5C123.333 152.114 123.126 152.629 122.711 153.044C122.295 153.459 121.781 153.667 121.167 153.667ZM119 147.167C118.386 147.167 117.872 146.959 117.456 146.544C117.041 146.129 116.833 145.614 116.833 145C116.833 144.386 117.041 143.872 117.456 143.456C117.872 143.041 118.386 142.833 119 142.833H138.5C139.114 142.833 139.629 143.041 140.044 143.456C140.459 143.872 140.667 144.386 140.667 145C140.667 145.614 140.459 146.129 140.044 146.544C139.629 146.959 139.114 147.167 138.5 147.167H119ZM127.667 153.667C127.053 153.667 126.538 153.459 126.123 153.044C125.708 152.629 125.5 152.114 125.5 151.5C125.5 150.886 125.708 150.372 126.123 149.956C126.538 149.541 127.053 149.333 127.667 149.333H142.833C143.447 149.333 143.962 149.541 144.377 149.956C144.793 150.372 145 150.886 145 151.5C145 152.114 144.793 152.629 144.377 153.044C143.962 153.459 143.447 153.667 142.833 153.667H127.667ZM122.25 140.667C118.964 140.667 116.156 139.502 113.827 137.173C111.498 134.844 110.333 132.036 110.333 128.75C110.333 125.753 111.327 123.135 113.313 120.896C115.299 118.657 117.754 117.339 120.679 116.942C121.835 114.883 123.415 113.267 125.419 112.094C127.423 110.92 129.617 110.333 132 110.333C135.25 110.333 138.076 111.372 140.477 113.448C142.879 115.524 144.332 118.115 144.838 121.221C147.329 121.438 149.424 122.467 151.121 124.308C152.818 126.15 153.667 128.353 153.667 130.917C153.667 133.625 152.719 135.927 150.823 137.823C148.927 139.719 146.625 140.667 143.917 140.667H122.25Z" fill="#0A77F3"/>
</g>
<circle opacity="0.1" cx="133" cy="133" r="133" stroke="#0B77F3" stroke-linecap="round" stroke-dasharray="1 3"/>
<ellipse opacity="0.3" cx="131.258" cy="133.258" rx="109.5" ry="109" stroke="#0B77F3" stroke-linecap="round" stroke-dasharray="1 3"/>
<ellipse opacity="0.5" cx="131.258" cy="133.258" rx="82.5" ry="82" stroke="#0B77F3" stroke-linecap="round" stroke-dasharray="1 3"/>
<circle cx="131.258" cy="133.258" r="53" stroke="#0B77F3" stroke-linecap="round" stroke-dasharray="1 3"/>
</g>
<defs>
<clipPath id="clip0_109_2">
<rect width="266" height="266" fill="white"/>
</clipPath>
</defs>
</svg>
