<svg width="535" height="254" viewBox="0 0 535 254" fill="none" xmlns="http://www.w3.org/2000/svg">
<line x1="150.91" y1="228.433" x2="150.91" y2="186.803" stroke="#0A77F3" stroke-width="2"/>
<line x1="97.1715" y1="119.981" x2="151.61" y2="185.094" stroke="#0A77F3" stroke-width="2"/>
<path d="M156.18 171.859L184.467 76.3241" stroke="#0A77F3" stroke-width="2"/>
<path d="M152.444 187.336L288.008 143.572" stroke="#0A77F3" stroke-width="2"/>
<line x1="300.996" y1="64.084" x2="294.875" y2="136.718" stroke="#0A77F3" stroke-width="2"/>
<path d="M293.345 152.645L281.601 229.548" stroke="#0A77F3" stroke-width="2"/>
<line x1="300.637" y1="145.305" x2="388.166" y2="178.396" stroke="#0A77F3" stroke-width="2"/>
<line x1="441.989" y1="122.282" x2="403.562" y2="174.586" stroke="#0A77F3" stroke-width="2"/>
<line x1="474.926" y1="219.736" x2="402.341" y2="186.645" stroke="#0A77F3" stroke-width="2"/>
<line x1="95.8898" y1="119.765" x2="175.947" y2="71.7303" stroke="#0A77F3" stroke-width="2"/>
<path d="M190.338 69.3857L300.817 60.3127" stroke="#0A77F3" stroke-width="2"/>
<circle cx="301" cy="60" r="4" fill="white" stroke="#0A77F3" stroke-width="2"/>
<circle cx="97" cy="120" r="4" fill="white" stroke="#0A77F3" stroke-width="2"/>
<circle cx="442" cy="122" r="4" fill="white" stroke="#0A77F3" stroke-width="2"/>
<circle cx="151" cy="227" r="4" fill="white" stroke="#0A77F3" stroke-width="2"/>
<circle cx="282" cy="227" r="4" fill="white" stroke="#0A77F3" stroke-width="2"/>
<circle cx="476" cy="220" r="4" fill="white" stroke="#0A77F3" stroke-width="2"/>
</svg>
