<svg width="472" height="237" viewBox="0 0 472 237" fill="none" xmlns="http://www.w3.org/2000/svg">
<line x1="61.9303" y1="108.122" x2="116.126" y2="172.945" stroke="#71C4FF" stroke-width="2"/>
<line x1="115.422" y1="216.093" x2="115.422" y2="174.649" stroke="#71C4FF" stroke-width="2"/>
<path d="M120.673 159.772L148.833 64.6626" stroke="#71C4FF" stroke-width="2"/>
<path d="M116.953 175.18L251.912 131.611" stroke="#71C4FF" stroke-width="2"/>
<line x1="265.129" y1="53.5938" x2="258.753" y2="124.793" stroke="#71C4FF" stroke-width="2"/>
<path d="M257.226 140.644L245.534 217.203" stroke="#71C4FF" stroke-width="2"/>
<line x1="264.487" y1="133.332" x2="351.626" y2="166.275" stroke="#71C4FF" stroke-width="2"/>
<line x1="405.211" y1="110.418" x2="366.955" y2="162.489" stroke="#71C4FF" stroke-width="2"/>
<line x1="437.996" y1="207.439" x2="365.735" y2="174.496" stroke="#71C4FF" stroke-width="2"/>
<line x1="60.6486" y1="107.906" x2="140.349" y2="60.0858" stroke="#71C4FF" stroke-width="2"/>
<path d="M154.678 57.7553L264.665 48.7226" stroke="#71C4FF" stroke-width="2"/>
<circle cx="264.133" cy="48.1912" r="4.87602" fill="#71C4FF" stroke="white" stroke-width="3"/>
<circle cx="61.1633" cy="108.763" r="4.87602" fill="#71C4FF" stroke="white" stroke-width="3"/>
<circle cx="405.469" cy="108.763" r="4.87602" fill="#71C4FF" stroke="white" stroke-width="3"/>
<circle cx="116.422" cy="216.093" r="4.87602" fill="#71C4FF" stroke="white" stroke-width="3"/>
<circle cx="245.005" cy="216.093" r="4.87602" fill="#71C4FF" stroke="white" stroke-width="3"/>
<circle cx="438.411" cy="206.529" r="4.87602" fill="#71C4FF" stroke="white" stroke-width="3"/>
</svg>
