<svg width="266" height="266" viewBox="0 0 266 266" fill="none" xmlns="http://www.w3.org/2000/svg">
<circle cx="132.5" cy="132.5" r="43" stroke="#0B77F3"/>
<circle cx="133" cy="133" r="61.5" stroke="#0B77F3"/>
<path d="M112.958 149.917C108.231 149.917 104.222 148.272 100.933 144.983C97.6444 141.694 96 137.686 96 132.958C96 128.231 97.6444 124.222 100.933 120.933C104.222 117.644 108.231 116 112.958 116C114.86 116 116.684 116.334 118.431 117.002C120.178 117.67 121.746 118.621 123.133 119.854L128.375 124.633L123.75 128.796L118.971 124.479C118.149 123.76 117.224 123.194 116.196 122.783C115.168 122.372 114.089 122.167 112.958 122.167C109.978 122.167 107.434 123.22 105.327 125.327C103.22 127.434 102.167 129.978 102.167 132.958C102.167 135.939 103.22 138.483 105.327 140.59C107.434 142.696 109.978 143.75 112.958 143.75C114.089 143.75 115.168 143.544 116.196 143.133C117.224 142.722 118.149 142.157 118.971 141.437L142.867 119.854C144.254 118.621 145.822 117.67 147.569 117.002C149.316 116.334 151.14 116 153.042 116C157.769 116 161.778 117.644 165.067 120.933C168.356 124.222 170 128.231 170 132.958C170 137.686 168.356 141.694 165.067 144.983C161.778 148.272 157.769 149.917 153.042 149.917C151.14 149.917 149.316 149.583 147.569 148.915C145.822 148.246 144.254 147.296 142.867 146.062L137.625 141.283L142.25 137.121L147.029 141.437C147.851 142.157 148.776 142.722 149.804 143.133C150.832 143.544 151.911 143.75 153.042 143.75C156.022 143.75 158.566 142.696 160.673 140.59C162.78 138.483 163.833 135.939 163.833 132.958C163.833 129.978 162.78 127.434 160.673 125.327C158.566 123.22 156.022 122.167 153.042 122.167C151.911 122.167 150.832 122.372 149.804 122.783C148.776 123.194 147.851 123.76 147.029 124.479L123.133 146.062C121.746 147.296 120.178 148.246 118.431 148.915C116.684 149.583 114.86 149.917 112.958 149.917Z" fill="#0A77F3"/>
</svg>
