<svg width="50" height="50" viewBox="0 0 50 50" fill="none" xmlns="http://www.w3.org/2000/svg">
<path d="M0 16C0 7.16344 7.16344 0 16 0H34C42.8366 0 50 7.16344 50 16V34C50 42.8366 42.8366 50 34 50H16C7.16344 50 0 42.8366 0 34V16Z" fill="#0D3461"/>
<path d="M34 49V50H16V49H34ZM49 34V16C49 7.84502 42.4923 1.21 34.3867 1.00488L34 1H16C7.84502 1 1.21 7.50774 1.00488 15.6133L1 16V34C1 42.2843 7.71573 49 16 49V50L15.5869 49.9951C6.94127 49.776 0 42.6984 0 34V16C0 7.30155 6.94127 0.22398 15.5869 0.00488281L16 0H34C42.8366 0 50 7.16344 50 16V34C50 42.8366 42.8366 50 34 50V49C42.2843 49 49 42.2843 49 34Z" fill="#0A77F3"/>
<path d="M30.7773 12C31.2723 12 31.7557 12.0497 32.2227 12.1445V14.8887H35.1113V13.4443C36.8654 14.7621 38 16.86 38 19.2227V30.7773C38 33.1398 36.8651 35.2369 35.1113 36.5547V35.1113H32.2227V37.8545C31.7556 37.9494 31.2724 38 30.7773 38H19.2227C18.7276 38 18.2444 37.9494 17.7773 37.8545V35.1113H14.8887V36.5547C13.1349 35.2369 12 33.1398 12 30.7773V19.2227C12 16.86 13.1346 14.7621 14.8887 13.4443V14.8887H17.7773V12.1445C18.2443 12.0497 18.7277 12 19.2227 12H30.7773ZM14.8887 32.2227H17.7773V29.333H14.8887V32.2227ZM32.2227 32.2227H35.1113V29.333H32.2227V32.2227ZM14.8887 26.4443H17.7773V23.5557H14.8887V26.4443ZM32.2227 26.4443H35.1113V23.5557H32.2227V26.4443ZM14.8887 20.667H17.7773V17.7773H14.8887V20.667ZM32.2227 20.667H35.1113V17.7773H32.2227V20.667Z" fill="#0A77F3"/>
</svg>
