<svg width="8535" height="157" viewBox="0 0 8535 157" fill="none" xmlns="http://www.w3.org/2000/svg">
<path d="M0.45 22H19.5L47.7 115.9H43.2L71.4 22H88.8L117.15 115.9H112.65L140.7 22H159L123.45 127H105.15L77.55 36.25L82.05 36.4L54 127H35.85L0.45 22ZM219.415 81.4C219.215 76.9 218.165 73.1 216.265 70C214.465 66.8 211.915 64.35 208.615 62.65C205.315 60.85 201.515 59.95 197.215 59.95C192.415 59.95 188.215 61.05 184.615 63.25C181.115 65.45 178.365 68.55 176.365 72.55C174.365 76.45 173.365 81.05 173.365 86.35C173.365 92.05 174.415 97 176.515 101.2C178.715 105.4 181.715 108.65 185.515 110.95C189.415 113.25 193.865 114.4 198.865 114.4C207.765 114.4 215.265 111.25 221.365 104.95L230.515 114.1C226.615 118.4 221.865 121.75 216.265 124.15C210.665 126.45 204.415 127.6 197.515 127.6C189.315 127.6 182.165 125.9 176.065 122.5C169.965 119.1 165.215 114.4 161.815 108.4C158.415 102.3 156.715 95.25 156.715 87.25C156.715 79.25 158.415 72.25 161.815 66.25C165.215 60.15 169.965 55.4 176.065 52C182.165 48.6 189.165 46.85 197.065 46.75C206.465 46.75 214.015 48.7 219.715 52.6C225.415 56.4 229.465 61.8 231.865 68.8C234.265 75.8 235.115 84.1 234.415 93.7H170.665V81.4H219.415ZM253.148 15.7H270.398V127H253.148V15.7ZM352.887 70.15C350.087 67.25 346.787 65 342.987 63.4C339.187 61.8 334.887 61 330.087 61C325.487 61 321.387 62.1 317.787 64.3C314.187 66.5 311.387 69.6 309.387 73.6C307.387 77.5 306.387 82.05 306.387 87.25C306.387 92.45 307.387 97.05 309.387 101.05C311.387 104.95 314.187 108.05 317.787 110.35C321.387 112.55 325.487 113.65 330.087 113.65C335.087 113.65 339.587 112.85 343.587 111.25C347.587 109.55 350.937 107.1 353.637 103.9L363.237 113.35C359.637 117.85 354.937 121.35 349.137 123.85C343.437 126.35 336.837 127.6 329.337 127.6C321.437 127.6 314.437 125.9 308.337 122.5C302.337 119.1 297.637 114.4 294.237 108.4C290.837 102.3 289.137 95.25 289.137 87.25C289.137 79.25 290.837 72.25 294.237 66.25C297.637 60.15 302.337 55.4 308.337 52C314.437 48.5 321.437 46.75 329.337 46.75C336.537 46.75 342.887 47.85 348.387 50.05C353.987 52.15 358.637 55.15 362.337 59.05L352.887 70.15ZM412.282 46.75C420.482 46.75 427.682 48.45 433.882 51.85C440.182 55.25 445.082 60 448.582 66.1C452.082 72.1 453.832 79.1 453.832 87.1C453.832 95.1 452.082 102.15 448.582 108.25C445.082 114.35 440.182 119.1 433.882 122.5C427.682 125.9 420.482 127.6 412.282 127.6C404.082 127.6 396.832 125.9 390.532 122.5C384.232 119.1 379.332 114.35 375.832 108.25C372.332 102.15 370.582 95.1 370.582 87.1C370.582 79.1 372.332 72.1 375.832 66.1C379.332 60 384.232 55.25 390.532 51.85C396.832 48.45 404.082 46.75 412.282 46.75ZM412.282 60.7C407.482 60.7 403.232 61.85 399.532 64.15C395.832 66.35 392.932 69.45 390.832 73.45C388.832 77.45 387.832 82.05 387.832 87.25C387.832 92.55 388.832 97.2 390.832 101.2C392.932 105.2 395.832 108.35 399.532 110.65C403.232 112.85 407.482 113.95 412.282 113.95C417.082 113.95 421.282 112.85 424.882 110.65C428.582 108.35 431.432 105.2 433.432 101.2C435.532 97.2 436.582 92.55 436.582 87.25C436.582 82.05 435.532 77.45 433.432 73.45C431.432 69.45 428.582 66.35 424.882 64.15C421.282 61.85 417.082 60.7 412.282 60.7ZM529.882 82C529.882 75.7 528.232 70.8 524.932 67.3C521.632 63.7 517.032 61.9 511.132 61.9C504.232 62.1 498.782 64.65 494.782 69.55C490.882 74.45 488.932 80.5 488.932 87.7H484.132C484.132 77.9 485.482 70 488.182 64C490.982 58 494.882 53.65 499.882 50.95C504.982 48.15 510.982 46.75 517.882 46.75C523.982 46.75 529.182 48 533.482 50.5C537.882 53 541.232 56.55 543.532 61.15C545.932 65.65 547.132 71.1 547.132 77.5V127H529.882V82ZM587.932 82C587.932 75.7 586.232 70.8 582.832 67.3C579.532 63.7 574.932 61.9 569.032 61.9C562.232 62.1 556.882 64.65 552.982 69.55C549.082 74.45 547.132 80.5 547.132 87.7H542.182C542.182 77.9 543.532 70 546.232 64C549.032 58 552.932 53.65 557.932 50.95C563.032 48.15 569.032 46.75 575.932 46.75C582.032 46.75 587.232 48 591.532 50.5C595.932 53 599.282 56.55 601.582 61.15C603.982 65.65 605.182 71.1 605.182 77.5V127H587.932V82ZM471.832 47.35H488.932V127H471.832V47.35ZM683.477 81.4C683.277 76.9 682.227 73.1 680.327 70C678.527 66.8 675.977 64.35 672.677 62.65C669.377 60.85 665.577 59.95 661.277 59.95C656.477 59.95 652.277 61.05 648.677 63.25C645.177 65.45 642.427 68.55 640.427 72.55C638.427 76.45 637.427 81.05 637.427 86.35C637.427 92.05 638.477 97 640.577 101.2C642.777 105.4 645.777 108.65 649.577 110.95C653.477 113.25 657.927 114.4 662.927 114.4C671.827 114.4 679.327 111.25 685.427 104.95L694.577 114.1C690.677 118.4 685.927 121.75 680.327 124.15C674.727 126.45 668.477 127.6 661.577 127.6C653.377 127.6 646.227 125.9 640.127 122.5C634.027 119.1 629.277 114.4 625.877 108.4C622.477 102.3 620.777 95.25 620.777 87.25C620.777 79.25 622.477 72.25 625.877 66.25C629.277 60.15 634.027 55.4 640.127 52C646.227 48.6 653.227 46.85 661.127 46.75C670.527 46.75 678.077 48.7 683.777 52.6C689.477 56.4 693.527 61.8 695.927 68.8C698.327 75.8 699.177 84.1 698.477 93.7H634.727V81.4H683.477ZM777.141 101.8C777.141 106.1 777.891 109.05 779.391 110.65C780.891 112.15 782.991 112.9 785.691 112.9C787.491 112.9 789.341 112.6 791.241 112C793.241 111.4 795.391 110.5 797.691 109.3L802.041 121.75C798.941 123.65 795.741 125.15 792.441 126.25C789.141 127.25 785.791 127.75 782.391 127.75C778.391 127.75 774.691 127 771.291 125.5C767.891 123.9 765.141 121.4 763.041 118C761.041 114.6 760.041 110.2 760.041 104.8V28.45H777.141V101.8ZM748.791 50.2H800.691V62.5H748.791V50.2ZM851.296 46.75C859.496 46.75 866.696 48.45 872.896 51.85C879.196 55.25 884.096 60 887.596 66.1C891.096 72.1 892.846 79.1 892.846 87.1C892.846 95.1 891.096 102.15 887.596 108.25C884.096 114.35 879.196 119.1 872.896 122.5C866.696 125.9 859.496 127.6 851.296 127.6C843.096 127.6 835.846 125.9 829.546 122.5C823.246 119.1 818.346 114.35 814.846 108.25C811.346 102.15 809.596 95.1 809.596 87.1C809.596 79.1 811.346 72.1 814.846 66.1C818.346 60 823.246 55.25 829.546 51.85C835.846 48.45 843.096 46.75 851.296 46.75ZM851.296 60.7C846.496 60.7 842.246 61.85 838.546 64.15C834.846 66.35 831.946 69.45 829.846 73.45C827.846 77.45 826.846 82.05 826.846 87.25C826.846 92.55 827.846 97.2 829.846 101.2C831.946 105.2 834.846 108.35 838.546 110.65C842.246 112.85 846.496 113.95 851.296 113.95C856.096 113.95 860.296 112.85 863.896 110.65C867.596 108.35 870.446 105.2 872.446 101.2C874.546 97.2 875.596 92.55 875.596 87.25C875.596 82.05 874.546 77.45 872.446 73.45C870.446 69.45 867.596 66.35 863.896 64.15C860.296 61.85 856.096 60.7 851.296 60.7ZM1016.23 46.3C1012.43 43.9 1008.68 42 1004.98 40.6C1001.28 39.2 997.775 38.2 994.475 37.6C991.175 37 988.175 36.7 985.475 36.7C980.275 36.7 976.125 37.7 973.025 39.7C969.925 41.7 968.375 44.6 968.375 48.4C968.375 51.8 969.375 54.6 971.375 56.8C973.475 58.9 976.175 60.65 979.475 62.05C982.875 63.35 986.575 64.6 990.575 65.8C994.675 67 998.725 68.35 1002.73 69.85C1006.73 71.25 1010.43 73.1 1013.83 75.4C1017.23 77.7 1019.93 80.65 1021.93 84.25C1023.93 87.75 1024.93 92.2 1024.93 97.6C1024.93 103.8 1023.23 109.2 1019.83 113.8C1016.43 118.3 1011.73 121.8 1005.73 124.3C999.825 126.8 993.025 128.05 985.325 128.05C979.825 128.05 974.475 127.35 969.275 125.95C964.075 124.45 959.175 122.45 954.575 119.95C950.075 117.45 946.025 114.55 942.425 111.25L950.075 96.7C953.675 100 957.475 102.8 961.475 105.1C965.575 107.4 969.675 109.15 973.775 110.35C977.975 111.55 981.925 112.15 985.625 112.15C991.825 112.15 996.625 110.95 1000.03 108.55C1003.53 106.15 1005.28 102.8 1005.28 98.5C1005.28 95 1004.23 92.2 1002.13 90.1C1000.13 87.9 997.425 86.1 994.025 84.7C990.725 83.3 987.025 82.05 982.925 80.95C978.925 79.85 974.875 78.6 970.775 77.2C966.775 75.7 963.075 73.85 959.675 71.65C956.375 69.45 953.675 66.6 951.575 63.1C949.575 59.6 948.575 55.15 948.575 49.75C948.575 43.85 950.175 38.75 953.375 34.45C956.575 30.05 961.025 26.65 966.725 24.25C972.525 21.85 979.225 20.65 986.825 20.65C993.625 20.65 1000.23 21.65 1006.63 23.65C1013.03 25.65 1018.68 28.25 1023.58 31.45L1016.23 46.3ZM1045.34 15.7H1062.59V127H1045.34V15.7ZM1097.84 47.35H1117.64L1061.24 105.85V85.3L1097.84 47.35ZM1086.44 75.7L1119.89 127H1099.49L1073.69 86.05L1086.44 75.7ZM1164.27 138.25C1161.77 144.35 1158.32 148.95 1153.92 152.05C1149.52 155.25 1144.32 156.85 1138.32 156.85C1134.72 156.85 1131.42 156.3 1128.42 155.2C1125.52 154.1 1122.67 152.45 1119.87 150.25L1127.22 137.5C1130.82 140.1 1134.27 141.4 1137.57 141.4C1140.17 141.4 1142.52 140.65 1144.62 139.15C1146.72 137.65 1148.42 135.35 1149.72 132.25L1152.42 125.95L1119.42 47.35H1137.27L1161.12 108.85L1183.32 47.35H1200.57L1164.27 138.25ZM1442.88 22H1461.93L1490.13 115.9H1485.63L1513.83 22H1531.23L1559.58 115.9H1555.08L1583.13 22H1601.43L1565.88 127H1547.58L1519.98 36.25L1524.48 36.4L1496.43 127H1478.28L1442.88 22ZM1614.7 47.35H1631.8V127H1614.7V47.35ZM1623.25 14.5C1626.15 14.5 1628.55 15.45 1630.45 17.35C1632.35 19.25 1633.3 21.65 1633.3 24.55C1633.3 27.35 1632.35 29.75 1630.45 31.75C1628.55 33.65 1626.15 34.6 1623.25 34.6C1620.45 34.6 1618.05 33.65 1616.05 31.75C1614.15 29.75 1613.2 27.35 1613.2 24.55C1613.2 21.65 1614.15 19.25 1616.05 17.35C1618.05 15.45 1620.45 14.5 1623.25 14.5ZM1658.08 15.7H1675.33V127H1658.08V15.7ZM1702.32 15.7H1719.57V127H1702.32V15.7ZM1746.56 15.7H1763.81V127H1746.56V15.7ZM1799.06 47.35H1818.86L1762.46 105.85V85.3L1799.06 47.35ZM1787.66 75.7L1821.11 127H1800.71L1774.91 86.05L1787.66 75.7ZM1865.41 46.75C1873.61 46.75 1880.81 48.45 1887.01 51.85C1893.31 55.25 1898.21 60 1901.71 66.1C1905.21 72.1 1906.96 79.1 1906.96 87.1C1906.96 95.1 1905.21 102.15 1901.71 108.25C1898.21 114.35 1893.31 119.1 1887.01 122.5C1880.81 125.9 1873.61 127.6 1865.41 127.6C1857.21 127.6 1849.96 125.9 1843.66 122.5C1837.36 119.1 1832.46 114.35 1828.96 108.25C1825.46 102.15 1823.71 95.1 1823.71 87.1C1823.71 79.1 1825.46 72.1 1828.96 66.1C1832.46 60 1837.36 55.25 1843.66 51.85C1849.96 48.45 1857.21 46.75 1865.41 46.75ZM1865.41 60.7C1860.61 60.7 1856.36 61.85 1852.66 64.15C1848.96 66.35 1846.06 69.45 1843.96 73.45C1841.96 77.45 1840.96 82.05 1840.96 87.25C1840.96 92.55 1841.96 97.2 1843.96 101.2C1846.06 105.2 1848.96 108.35 1852.66 110.65C1856.36 112.85 1860.61 113.95 1865.41 113.95C1870.21 113.95 1874.41 112.85 1878.01 110.65C1881.71 108.35 1884.56 105.2 1886.56 101.2C1888.66 97.2 1889.71 92.55 1889.71 87.25C1889.71 82.05 1888.66 77.45 1886.56 73.45C1884.56 69.45 1881.71 66.35 1878.01 64.15C1874.41 61.85 1870.21 60.7 1865.41 60.7ZM1983.01 82C1983.01 75.7 1981.36 70.8 1978.06 67.3C1974.76 63.7 1970.16 61.9 1964.26 61.9C1957.36 62.1 1951.91 64.65 1947.91 69.55C1944.01 74.45 1942.06 80.5 1942.06 87.7H1937.26C1937.26 77.9 1938.61 70 1941.31 64C1944.11 58 1948.01 53.65 1953.01 50.95C1958.11 48.15 1964.11 46.75 1971.01 46.75C1977.11 46.75 1982.31 48 1986.61 50.5C1991.01 53 1994.36 56.55 1996.66 61.15C1999.06 65.65 2000.26 71.1 2000.26 77.5V127H1983.01V82ZM2041.06 82C2041.06 75.7 2039.36 70.8 2035.96 67.3C2032.66 63.7 2028.06 61.9 2022.16 61.9C2015.36 62.1 2010.01 64.65 2006.11 69.55C2002.21 74.45 2000.26 80.5 2000.26 87.7H1995.31C1995.31 77.9 1996.66 70 1999.36 64C2002.16 58 2006.06 53.65 2011.06 50.95C2016.16 48.15 2022.16 46.75 2029.06 46.75C2035.16 46.75 2040.36 48 2044.66 50.5C2049.06 53 2052.41 56.55 2054.71 61.15C2057.11 65.65 2058.31 71.1 2058.31 77.5V127H2041.06V82ZM1924.96 47.35H1942.06V127H1924.96V47.35ZM2139.45 82C2139.45 75.7 2137.8 70.8 2134.5 67.3C2131.2 63.7 2126.6 61.9 2120.7 61.9C2113.8 62.1 2108.35 64.65 2104.35 69.55C2100.45 74.45 2098.5 80.5 2098.5 87.7H2093.7C2093.7 77.9 2095.05 70 2097.75 64C2100.55 58 2104.45 53.65 2109.45 50.95C2114.55 48.15 2120.55 46.75 2127.45 46.75C2133.55 46.75 2138.75 48 2143.05 50.5C2147.45 53 2150.8 56.55 2153.1 61.15C2155.5 65.65 2156.7 71.1 2156.7 77.5V127H2139.45V82ZM2197.5 82C2197.5 75.7 2195.8 70.8 2192.4 67.3C2189.1 63.7 2184.5 61.9 2178.6 61.9C2171.8 62.1 2166.45 64.65 2162.55 69.55C2158.65 74.45 2156.7 80.5 2156.7 87.7H2151.75C2151.75 77.9 2153.1 70 2155.8 64C2158.6 58 2162.5 53.65 2167.5 50.95C2172.6 48.15 2178.6 46.75 2185.5 46.75C2191.6 46.75 2196.8 48 2201.1 50.5C2205.5 53 2208.85 56.55 2211.15 61.15C2213.55 65.65 2214.75 71.1 2214.75 77.5V127H2197.5V82ZM2081.4 47.35H2098.5V127H2081.4V47.35ZM2293.05 81.4C2292.85 76.9 2291.8 73.1 2289.9 70C2288.1 66.8 2285.55 64.35 2282.25 62.65C2278.95 60.85 2275.15 59.95 2270.85 59.95C2266.05 59.95 2261.85 61.05 2258.25 63.25C2254.75 65.45 2252 68.55 2250 72.55C2248 76.45 2247 81.05 2247 86.35C2247 92.05 2248.05 97 2250.15 101.2C2252.35 105.4 2255.35 108.65 2259.15 110.95C2263.05 113.25 2267.5 114.4 2272.5 114.4C2281.4 114.4 2288.9 111.25 2295 104.95L2304.15 114.1C2300.25 118.4 2295.5 121.75 2289.9 124.15C2284.3 126.45 2278.05 127.6 2271.15 127.6C2262.95 127.6 2255.8 125.9 2249.7 122.5C2243.6 119.1 2238.85 114.4 2235.45 108.4C2232.05 102.3 2230.35 95.25 2230.35 87.25C2230.35 79.25 2232.05 72.25 2235.45 66.25C2238.85 60.15 2243.6 55.4 2249.7 52C2255.8 48.6 2262.8 46.85 2270.7 46.75C2280.1 46.75 2287.65 48.7 2293.35 52.6C2299.05 56.4 2303.1 61.8 2305.5 68.8C2307.9 75.8 2308.75 84.1 2308.05 93.7H2244.3V81.4H2293.05ZM2385.13 82C2385.13 75.8 2383.43 70.95 2380.03 67.45C2376.63 63.85 2371.93 62.05 2365.93 62.05C2358.83 62.15 2353.23 64.65 2349.13 69.55C2345.13 74.45 2343.13 80.55 2343.13 87.85H2338.33C2338.33 77.95 2339.73 70 2342.53 64C2345.33 58 2349.28 53.65 2354.38 50.95C2359.58 48.15 2365.68 46.75 2372.68 46.75C2378.88 46.75 2384.18 48 2388.58 50.5C2393.08 53 2396.48 56.55 2398.78 61.15C2401.18 65.65 2402.38 71.1 2402.38 77.5V127H2385.13V82ZM2326.03 47.35H2343.28V127H2326.03V47.35ZM2511.82 46.75C2519.42 46.75 2526.07 48.45 2531.77 51.85C2537.47 55.25 2541.92 60 2545.12 66.1C2548.32 72.2 2549.92 79.3 2549.92 87.4C2549.92 95.3 2548.32 102.3 2545.12 108.4C2542.02 114.4 2537.62 119.1 2531.92 122.5C2526.32 125.9 2519.72 127.6 2512.12 127.6C2504.82 127.6 2498.57 126 2493.37 122.8C2488.27 119.6 2484.37 115 2481.67 109C2478.97 102.9 2477.62 95.7 2477.62 87.4C2477.62 78.8 2478.97 71.5 2481.67 65.5C2484.37 59.4 2488.27 54.75 2493.37 51.55C2498.57 48.35 2504.72 46.75 2511.82 46.75ZM2508.22 60.4C2503.52 60.4 2499.32 61.55 2495.62 63.85C2491.92 66.15 2489.02 69.3 2486.92 73.3C2484.92 77.2 2483.92 81.75 2483.92 86.95C2483.92 92.15 2484.92 96.8 2486.92 100.9C2489.02 104.9 2491.92 108.05 2495.62 110.35C2499.32 112.55 2503.52 113.65 2508.22 113.65C2513.02 113.65 2517.22 112.5 2520.82 110.2C2524.52 107.9 2527.37 104.75 2529.37 100.75C2531.47 96.75 2532.52 92.15 2532.52 86.95C2532.52 81.85 2531.47 77.3 2529.37 73.3C2527.37 69.3 2524.52 66.15 2520.82 63.85C2517.22 61.55 2513.02 60.4 2508.22 60.4ZM2466.67 15.7H2483.92V127H2466.67V15.7ZM2623.08 81.4C2622.88 76.9 2621.83 73.1 2619.93 70C2618.13 66.8 2615.58 64.35 2612.28 62.65C2608.98 60.85 2605.18 59.95 2600.88 59.95C2596.08 59.95 2591.88 61.05 2588.28 63.25C2584.78 65.45 2582.03 68.55 2580.03 72.55C2578.03 76.45 2577.03 81.05 2577.03 86.35C2577.03 92.05 2578.08 97 2580.18 101.2C2582.38 105.4 2585.38 108.65 2589.18 110.95C2593.08 113.25 2597.53 114.4 2602.53 114.4C2611.43 114.4 2618.93 111.25 2625.03 104.95L2634.18 114.1C2630.28 118.4 2625.53 121.75 2619.93 124.15C2614.33 126.45 2608.08 127.6 2601.18 127.6C2592.98 127.6 2585.83 125.9 2579.73 122.5C2573.63 119.1 2568.88 114.4 2565.48 108.4C2562.08 102.3 2560.38 95.25 2560.38 87.25C2560.38 79.25 2562.08 72.25 2565.48 66.25C2568.88 60.15 2573.63 55.4 2579.73 52C2585.83 48.6 2592.83 46.85 2600.73 46.75C2610.13 46.75 2617.68 48.7 2623.38 52.6C2629.08 56.4 2633.13 61.8 2635.53 68.8C2637.93 75.8 2638.78 84.1 2638.08 93.7H2574.33V81.4H2623.08ZM2656.06 47.35H2673.16V127H2656.06V47.35ZM2664.61 14.5C2667.51 14.5 2669.91 15.45 2671.81 17.35C2673.71 19.25 2674.66 21.65 2674.66 24.55C2674.66 27.35 2673.71 29.75 2671.81 31.75C2669.91 33.65 2667.51 34.6 2664.61 34.6C2661.81 34.6 2659.41 33.65 2657.41 31.75C2655.51 29.75 2654.56 27.35 2654.56 24.55C2654.56 21.65 2655.51 19.25 2657.41 17.35C2659.41 15.45 2661.81 14.5 2664.61 14.5ZM2804.07 46.3C2800.27 43.9 2796.52 42 2792.82 40.6C2789.12 39.2 2785.62 38.2 2782.32 37.6C2779.02 37 2776.02 36.7 2773.32 36.7C2768.12 36.7 2763.97 37.7 2760.87 39.7C2757.77 41.7 2756.22 44.6 2756.22 48.4C2756.22 51.8 2757.22 54.6 2759.22 56.8C2761.32 58.9 2764.02 60.65 2767.32 62.05C2770.72 63.35 2774.42 64.6 2778.42 65.8C2782.52 67 2786.57 68.35 2790.57 69.85C2794.57 71.25 2798.27 73.1 2801.67 75.4C2805.07 77.7 2807.77 80.65 2809.77 84.25C2811.77 87.75 2812.77 92.2 2812.77 97.6C2812.77 103.8 2811.07 109.2 2807.67 113.8C2804.27 118.3 2799.57 121.8 2793.57 124.3C2787.67 126.8 2780.87 128.05 2773.17 128.05C2767.67 128.05 2762.32 127.35 2757.12 125.95C2751.92 124.45 2747.02 122.45 2742.42 119.95C2737.92 117.45 2733.87 114.55 2730.27 111.25L2737.92 96.7C2741.52 100 2745.32 102.8 2749.32 105.1C2753.42 107.4 2757.52 109.15 2761.62 110.35C2765.82 111.55 2769.77 112.15 2773.47 112.15C2779.67 112.15 2784.47 110.95 2787.87 108.55C2791.37 106.15 2793.12 102.8 2793.12 98.5C2793.12 95 2792.07 92.2 2789.97 90.1C2787.97 87.9 2785.27 86.1 2781.87 84.7C2778.57 83.3 2774.87 82.05 2770.77 80.95C2766.77 79.85 2762.72 78.6 2758.62 77.2C2754.62 75.7 2750.92 73.85 2747.52 71.65C2744.22 69.45 2741.52 66.6 2739.42 63.1C2737.42 59.6 2736.42 55.15 2736.42 49.75C2736.42 43.85 2738.02 38.75 2741.22 34.45C2744.42 30.05 2748.87 26.65 2754.57 24.25C2760.37 21.85 2767.07 20.65 2774.67 20.65C2781.47 20.65 2788.07 21.65 2794.47 23.65C2800.87 25.65 2806.52 28.25 2811.42 31.45L2804.07 46.3ZM2833.18 15.7H2850.43V127H2833.18V15.7ZM2885.68 47.35H2905.48L2849.08 105.85V85.3L2885.68 47.35ZM2874.28 75.7L2907.73 127H2887.33L2861.53 86.05L2874.28 75.7ZM2952.11 138.25C2949.61 144.35 2946.16 148.95 2941.76 152.05C2937.36 155.25 2932.16 156.85 2926.16 156.85C2922.56 156.85 2919.26 156.3 2916.26 155.2C2913.36 154.1 2910.51 152.45 2907.71 150.25L2915.06 137.5C2918.66 140.1 2922.11 141.4 2925.41 141.4C2928.01 141.4 2930.36 140.65 2932.46 139.15C2934.56 137.65 2936.26 135.35 2937.56 132.25L2940.26 125.95L2907.26 47.35H2925.11L2948.96 108.85L2971.16 47.35H2988.41L2952.11 138.25ZM3278.2 18.25H3327.55V28.45H3278.2V18.25ZM3324.4 18.25H3326.2L3328.15 17.8L3335.05 20.05C3332.75 37.65 3329.1 53.5 3324.1 67.6C3319.1 81.6 3313 93.75 3305.8 104.05C3298.7 114.35 3290.8 122.65 3282.1 128.95C3281.3 127.65 3280.1 126.15 3278.5 124.45C3277 122.65 3275.65 121.3 3274.45 120.4C3280.55 116.4 3286.25 111.15 3291.55 104.65C3296.95 98.15 3301.8 90.6 3306.1 82C3310.5 73.4 3314.25 63.95 3317.35 53.65C3320.55 43.35 3322.9 32.4 3324.4 20.8V18.25ZM3278.65 44.5L3286.6 38.35C3290.9 43.85 3295.3 49.75 3299.8 56.05C3304.3 62.25 3308.65 68.5 3312.85 74.8C3317.05 81.1 3320.8 87.15 3324.1 92.95C3327.5 98.75 3330.2 103.95 3332.2 108.55L3323.2 116.05C3321.2 111.25 3318.55 105.9 3315.25 100C3311.95 94.1 3308.3 87.95 3304.3 81.55C3300.3 75.05 3296.05 68.65 3291.55 62.35C3287.15 56.05 3282.85 50.1 3278.65 44.5ZM3353.05 23.65H3404.05V34H3353.05V23.65ZM3352.75 1.14999L3363.55 2.64999C3361.75 14.75 3359.25 26.15 3356.05 36.85C3352.85 47.45 3348.8 56.45 3343.9 63.85C3343.3 63.25 3342.45 62.55 3341.35 61.75C3340.25 60.85 3339.1 60.05 3337.9 59.35C3336.7 58.55 3335.65 57.9 3334.75 57.4C3337.95 52.9 3340.7 47.7 3343 41.8C3345.4 35.8 3347.35 29.35 3348.85 22.45C3350.45 15.55 3351.75 8.44999 3352.75 1.14999ZM3401.65 23.65H3403.45L3405.25 23.35L3412.75 25.45C3411.45 31.15 3409.85 37.1 3407.95 43.3C3406.15 49.4 3404.35 54.5 3402.55 58.6L3393.55 55.75C3394.55 53.15 3395.55 50.15 3396.55 46.75C3397.55 43.35 3398.5 39.8 3399.4 36.1C3400.3 32.4 3401.05 28.9 3401.65 25.6V23.65ZM3374.95 58.15C3376.75 69.15 3379.3 79.4 3382.6 88.9C3386 98.3 3390.45 106.5 3395.95 113.5C3401.45 120.5 3408.25 125.85 3416.35 129.55C3415.45 130.25 3414.5 131.15 3413.5 132.25C3412.6 133.35 3411.7 134.5 3410.8 135.7C3410 137 3409.3 138.1 3408.7 139C3400.2 134.5 3393.1 128.45 3387.4 120.85C3381.7 113.15 3377.1 104.15 3373.6 93.85C3370.2 83.45 3367.5 72 3365.5 59.5L3374.95 58.15ZM3365.5 43H3376.15V53.65C3376.15 59.95 3375.7 66.75 3374.8 74.05C3374 81.25 3372.15 88.65 3369.25 96.25C3366.45 103.85 3362.1 111.35 3356.2 118.75C3350.3 126.15 3342.3 133 3332.2 139.3C3331.7 138.5 3330.95 137.6 3329.95 136.6C3329.05 135.6 3328.1 134.65 3327.1 133.75C3326.1 132.85 3325.15 132.1 3324.25 131.5C3333.85 125.6 3341.4 119.3 3346.9 112.6C3352.5 105.8 3356.6 98.95 3359.2 92.05C3361.9 85.05 3363.6 78.3 3364.3 71.8C3365.1 65.2 3365.5 59.1 3365.5 53.5V43ZM3456.55 60.25V113.35H3445.9V70.75H3427.45V60.25H3456.55ZM3456.55 108.85C3460.15 114.45 3465.2 118.6 3471.7 121.3C3478.3 124 3486 125.55 3494.8 125.95C3499.1 126.05 3504.3 126.15 3510.4 126.25C3516.5 126.25 3522.9 126.25 3529.6 126.25C3536.4 126.15 3542.9 126 3549.1 125.8C3555.4 125.5 3560.85 125.2 3565.45 124.9C3565.05 125.7 3564.6 126.75 3564.1 128.05C3563.6 129.35 3563.15 130.65 3562.75 131.95C3562.45 133.35 3562.2 134.6 3562 135.7C3557.7 135.9 3552.6 136.05 3546.7 136.15C3540.9 136.25 3534.8 136.3 3528.4 136.3C3522.1 136.4 3516 136.4 3510.1 136.3C3504.3 136.3 3499.3 136.2 3495.1 136C3485.1 135.6 3476.6 134 3469.6 131.2C3462.6 128.4 3456.75 124 3452.05 118C3448.85 121.2 3445.55 124.45 3442.15 127.75C3438.75 131.05 3435.25 134.4 3431.65 137.8L3425.8 127C3429 124.5 3432.5 121.65 3436.3 118.45C3440.1 115.25 3443.7 112.05 3447.1 108.85H3456.55ZM3428.2 10.15L3436.9 4.45C3439.9 6.75 3442.9 9.39999 3445.9 12.4C3449 15.4 3451.8 18.4 3454.3 21.4C3456.8 24.3 3458.75 27 3460.15 29.5L3450.7 35.95C3449.3 33.35 3447.4 30.55 3445 27.55C3442.6 24.45 3439.95 21.4 3437.05 18.4C3434.15 15.4 3431.2 12.65 3428.2 10.15ZM3513.55 12.1H3553.9V21.85H3523.9V119.8H3513.55V12.1ZM3473.2 12.4L3483.55 15.25V95.05H3473.2V12.4ZM3548.05 12.1H3558.55V89.65C3558.55 92.45 3558.2 94.65 3557.5 96.25C3556.8 97.75 3555.5 98.95 3553.6 99.85C3551.8 100.65 3549.35 101.15 3546.25 101.35C3543.15 101.55 3539.35 101.65 3534.85 101.65C3534.55 100.35 3534.05 98.75 3533.35 96.85C3532.75 94.95 3532.05 93.3 3531.25 91.9C3534.65 92 3537.65 92.05 3540.25 92.05C3542.95 92.05 3544.75 92 3545.65 91.9C3547.25 91.9 3548.05 91.1 3548.05 89.5V12.1ZM3503.65 0.69999L3512.05 8.94999C3507.45 11.75 3502.25 14.45 3496.45 17.05C3490.65 19.55 3485.05 21.75 3479.65 23.65C3479.35 22.45 3478.85 21.1 3478.15 19.6C3477.55 18 3476.85 16.65 3476.05 15.55C3479.35 14.15 3482.7 12.65 3486.1 11.05C3489.5 9.34999 3492.75 7.6 3495.85 5.8C3498.95 4 3501.55 2.29999 3503.65 0.69999ZM3463.3 93.55C3468.9 92.05 3475.6 90.25 3483.4 88.15C3491.3 86.05 3499.35 83.8 3507.55 81.4L3508.75 91.15C3501.35 93.45 3493.9 95.65 3486.4 97.75C3479 99.85 3472.3 101.8 3466.3 103.6L3463.3 93.55ZM3579.25 67.6H3712.45V78.4H3579.25V67.6ZM3586.3 19.15H3706.15V29.8H3586.3V19.15ZM3639.7 0.999995H3651.55V138.85H3639.7V0.999995ZM3684.1 32.65L3695.8 36.25C3694.1 39.75 3692.25 43.35 3690.25 47.05C3688.25 50.65 3686.25 54.1 3684.25 57.4C3682.25 60.7 3680.35 63.6 3678.55 66.1L3668.95 62.8C3670.75 60.1 3672.6 57 3674.5 53.5C3676.4 49.9 3678.2 46.3 3679.9 42.7C3681.6 39 3683 35.65 3684.1 32.65ZM3598.45 37L3608.5 33.4C3610.5 36.3 3612.45 39.45 3614.35 42.85C3616.25 46.25 3617.95 49.6 3619.45 52.9C3620.95 56.1 3622.05 59 3622.75 61.6L3612.1 65.8C3611.4 63.3 3610.35 60.4 3608.95 57.1C3607.55 53.7 3605.95 50.25 3604.15 46.75C3602.35 43.25 3600.45 40 3598.45 37ZM3636.7 71.65L3645.85 75.55C3642.25 81.35 3638.1 87.05 3633.4 92.65C3628.7 98.15 3623.6 103.4 3618.1 108.4C3612.6 113.4 3606.95 117.95 3601.15 122.05C3595.35 126.15 3589.6 129.6 3583.9 132.4C3583.3 131.4 3582.5 130.35 3581.5 129.25C3580.6 128.15 3579.65 127.05 3578.65 125.95C3577.65 124.85 3576.7 123.9 3575.8 123.1C3581.5 120.7 3587.25 117.65 3593.05 113.95C3598.85 110.15 3604.45 106 3609.85 101.5C3615.35 96.9 3620.4 92.1 3625 87.1C3629.6 82 3633.5 76.85 3636.7 71.65ZM3654.7 71.8C3658 76.9 3661.95 82 3666.55 87.1C3671.15 92.2 3676.15 97.05 3681.55 101.65C3687.05 106.25 3692.7 110.4 3698.5 114.1C3704.4 117.8 3710.2 120.95 3715.9 123.55C3715.1 124.25 3714.15 125.15 3713.05 126.25C3712.05 127.35 3711.05 128.45 3710.05 129.55C3709.15 130.75 3708.4 131.85 3707.8 132.85C3702.1 130.05 3696.3 126.6 3690.4 122.5C3684.6 118.3 3678.95 113.7 3673.45 108.7C3667.95 103.7 3662.8 98.4 3658 92.8C3653.3 87.1 3649.2 81.35 3645.7 75.55L3654.7 71.8ZM3728.35 10.75H3805.3V21.1H3728.35V10.75ZM3732.7 82.3H3800.95V92.5H3732.7V82.3ZM3761.35 64.3H3772.45V123.1L3761.35 124.75V64.3ZM3726.7 123.25C3733.2 122.45 3740.7 121.55 3749.2 120.55C3757.8 119.45 3766.95 118.25 3776.65 116.95C3786.35 115.65 3796 114.35 3805.6 113.05L3805.9 123.55C3796.6 124.85 3787.25 126.15 3777.85 127.45C3768.55 128.85 3759.65 130.1 3751.15 131.2C3742.65 132.4 3735.05 133.5 3728.35 134.5L3726.7 123.25ZM3727.9 51.55C3733.6 51.35 3740.2 51.1 3747.7 50.8C3755.2 50.5 3763.2 50.15 3771.7 49.75C3780.2 49.35 3788.7 48.9 3797.2 48.4L3797.05 58.3C3788.85 58.8 3780.65 59.3 3772.45 59.8C3764.25 60.3 3756.45 60.75 3749.05 61.15C3741.65 61.55 3734.9 61.9 3728.8 62.2L3727.9 51.55ZM3775.75 33.4L3784.3 28.75C3787.3 32.15 3790.35 35.9 3793.45 40C3796.55 44.1 3799.4 48.1 3802 52C3804.7 55.9 3806.75 59.35 3808.15 62.35L3799.3 67.75C3797.9 64.65 3795.9 61.1 3793.3 57.1C3790.8 53.1 3788 49.05 3784.9 44.95C3781.9 40.75 3778.85 36.9 3775.75 33.4ZM3754.15 16.3L3766.45 18.7C3764.75 23.1 3762.9 27.75 3760.9 32.65C3758.9 37.45 3756.9 42.15 3754.9 46.75C3752.9 51.25 3750.95 55.25 3749.05 58.75L3739.3 56.2C3741.1 52.7 3742.9 48.6 3744.7 43.9C3746.6 39.1 3748.4 34.3 3750.1 29.5C3751.8 24.6 3753.15 20.2 3754.15 16.3ZM3811.75 19H3822.7V102.25H3811.75V19ZM3847.3 5.19999H3858.25V123.85C3858.25 127.75 3857.75 130.65 3856.75 132.55C3855.75 134.55 3854.05 136 3851.65 136.9C3849.15 137.8 3845.65 138.35 3841.15 138.55C3836.75 138.85 3831.5 139 3825.4 139C3825.1 137.5 3824.55 135.6 3823.75 133.3C3823.05 131 3822.25 129 3821.35 127.3C3826.45 127.4 3831.1 127.45 3835.3 127.45C3839.5 127.45 3842.35 127.45 3843.85 127.45C3845.25 127.35 3846.15 127.05 3846.55 126.55C3847.05 126.05 3847.3 125.15 3847.3 123.85V5.19999ZM3948.4 46.3C3944.6 43.9 3940.85 42 3937.15 40.6C3933.45 39.2 3929.95 38.2 3926.65 37.6C3923.35 37 3920.35 36.7 3917.65 36.7C3912.45 36.7 3908.3 37.7 3905.2 39.7C3902.1 41.7 3900.55 44.6 3900.55 48.4C3900.55 51.8 3901.55 54.6 3903.55 56.8C3905.65 58.9 3908.35 60.65 3911.65 62.05C3915.05 63.35 3918.75 64.6 3922.75 65.8C3926.85 67 3930.9 68.35 3934.9 69.85C3938.9 71.25 3942.6 73.1 3946 75.4C3949.4 77.7 3952.1 80.65 3954.1 84.25C3956.1 87.75 3957.1 92.2 3957.1 97.6C3957.1 103.8 3955.4 109.2 3952 113.8C3948.6 118.3 3943.9 121.8 3937.9 124.3C3932 126.8 3925.2 128.05 3917.5 128.05C3912 128.05 3906.65 127.35 3901.45 125.95C3896.25 124.45 3891.35 122.45 3886.75 119.95C3882.25 117.45 3878.2 114.55 3874.6 111.25L3882.25 96.7C3885.85 100 3889.65 102.8 3893.65 105.1C3897.75 107.4 3901.85 109.15 3905.95 110.35C3910.15 111.55 3914.1 112.15 3917.8 112.15C3924 112.15 3928.8 110.95 3932.2 108.55C3935.7 106.15 3937.45 102.8 3937.45 98.5C3937.45 95 3936.4 92.2 3934.3 90.1C3932.3 87.9 3929.6 86.1 3926.2 84.7C3922.9 83.3 3919.2 82.05 3915.1 80.95C3911.1 79.85 3907.05 78.6 3902.95 77.2C3898.95 75.7 3895.25 73.85 3891.85 71.65C3888.55 69.45 3885.85 66.6 3883.75 63.1C3881.75 59.6 3880.75 55.15 3880.75 49.75C3880.75 43.85 3882.35 38.75 3885.55 34.45C3888.75 30.05 3893.2 26.65 3898.9 24.25C3904.7 21.85 3911.4 20.65 3919 20.65C3925.8 20.65 3932.4 21.65 3938.8 23.65C3945.2 25.65 3950.85 28.25 3955.75 31.45L3948.4 46.3ZM3977.51 15.7H3994.76V127H3977.51V15.7ZM4030.01 47.35H4049.81L3993.41 105.85V85.3L4030.01 47.35ZM4018.61 75.7L4052.06 127H4031.66L4005.86 86.05L4018.61 75.7ZM4096.44 138.25C4093.94 144.35 4090.49 148.95 4086.09 152.05C4081.69 155.25 4076.49 156.85 4070.49 156.85C4066.89 156.85 4063.59 156.3 4060.59 155.2C4057.69 154.1 4054.84 152.45 4052.04 150.25L4059.39 137.5C4062.99 140.1 4066.44 141.4 4069.74 141.4C4072.34 141.4 4074.69 140.65 4076.79 139.15C4078.89 137.65 4080.59 135.35 4081.89 132.25L4084.59 125.95L4051.59 47.35H4069.44L4093.29 108.85L4115.49 47.35H4132.74L4096.44 138.25ZM4474.44 22C4481.74 22 4487.99 23.05 4493.19 25.15C4498.49 27.25 4502.54 30.25 4505.34 34.15C4508.24 38.05 4509.69 42.75 4509.69 48.25C4509.69 54.15 4508.04 59.2 4504.74 63.4C4501.44 67.6 4496.94 70.35 4491.24 71.65C4498.24 72.85 4503.74 75.8 4507.74 80.5C4511.74 85.2 4513.74 91.1 4513.74 98.2C4513.74 104.2 4512.19 109.35 4509.09 113.65C4505.99 117.95 4501.59 121.25 4495.89 123.55C4490.19 125.85 4483.39 127 4475.49 127H4428.84V22H4474.44ZM4473.54 65.65C4479.14 65.65 4483.54 64.4 4486.74 61.9C4489.94 59.3 4491.54 55.7 4491.54 51.1C4491.54 46.6 4489.94 43.15 4486.74 40.75C4483.54 38.25 4479.14 37.05 4473.54 37.15H4446.54V65.65H4473.54ZM4473.54 111.85C4480.44 111.95 4485.84 110.65 4489.74 107.95C4493.64 105.15 4495.59 101.2 4495.59 96.1C4495.59 91.3 4493.64 87.55 4489.74 84.85C4485.84 82.05 4480.44 80.7 4473.54 80.8H4446.54V111.85H4473.54ZM4533.7 47.35H4550.8V127H4533.7V47.35ZM4542.25 14.5C4545.15 14.5 4547.55 15.45 4549.45 17.35C4551.35 19.25 4552.3 21.65 4552.3 24.55C4552.3 27.35 4551.35 29.75 4549.45 31.75C4547.55 33.65 4545.15 34.6 4542.25 34.6C4539.45 34.6 4537.05 33.65 4535.05 31.75C4533.15 29.75 4532.2 27.35 4532.2 24.55C4532.2 21.65 4533.15 19.25 4535.05 17.35C4537.05 15.45 4539.45 14.5 4542.25 14.5ZM4631.52 81.4C4631.32 76.9 4630.27 73.1 4628.37 70C4626.57 66.8 4624.02 64.35 4620.72 62.65C4617.42 60.85 4613.62 59.95 4609.32 59.95C4604.52 59.95 4600.32 61.05 4596.72 63.25C4593.22 65.45 4590.47 68.55 4588.47 72.55C4586.47 76.45 4585.47 81.05 4585.47 86.35C4585.47 92.05 4586.52 97 4588.62 101.2C4590.82 105.4 4593.82 108.65 4597.62 110.95C4601.52 113.25 4605.97 114.4 4610.97 114.4C4619.87 114.4 4627.37 111.25 4633.47 104.95L4642.62 114.1C4638.72 118.4 4633.97 121.75 4628.37 124.15C4622.77 126.45 4616.52 127.6 4609.62 127.6C4601.42 127.6 4594.27 125.9 4588.17 122.5C4582.07 119.1 4577.32 114.4 4573.92 108.4C4570.52 102.3 4568.82 95.25 4568.82 87.25C4568.82 79.25 4570.52 72.25 4573.92 66.25C4577.32 60.15 4582.07 55.4 4588.17 52C4594.27 48.6 4601.27 46.85 4609.17 46.75C4618.57 46.75 4626.12 48.7 4631.82 52.6C4637.52 56.4 4641.57 61.8 4643.97 68.8C4646.37 75.8 4647.22 84.1 4646.52 93.7H4582.77V81.4H4631.52ZM4723.61 82C4723.61 75.8 4721.91 70.95 4718.51 67.45C4715.11 63.85 4710.41 62.05 4704.41 62.05C4697.31 62.15 4691.71 64.65 4687.61 69.55C4683.61 74.45 4681.61 80.55 4681.61 87.85H4676.81C4676.81 77.95 4678.21 70 4681.01 64C4683.81 58 4687.76 53.65 4692.86 50.95C4698.06 48.15 4704.16 46.75 4711.16 46.75C4717.36 46.75 4722.66 48 4727.06 50.5C4731.56 53 4734.96 56.55 4737.26 61.15C4739.66 65.65 4740.86 71.1 4740.86 77.5V127H4723.61V82ZM4664.51 47.35H4681.76V127H4664.51V47.35ZM4749.03 47.35H4767.03L4789.23 111.1L4811.13 47.35H4828.38L4797.78 127H4779.93L4749.03 47.35ZM4892.71 81.4C4892.51 76.9 4891.46 73.1 4889.56 70C4887.76 66.8 4885.21 64.35 4881.91 62.65C4878.61 60.85 4874.81 59.95 4870.51 59.95C4865.71 59.95 4861.51 61.05 4857.91 63.25C4854.41 65.45 4851.66 68.55 4849.66 72.55C4847.66 76.45 4846.66 81.05 4846.66 86.35C4846.66 92.05 4847.71 97 4849.81 101.2C4852.01 105.4 4855.01 108.65 4858.81 110.95C4862.71 113.25 4867.16 114.4 4872.16 114.4C4881.06 114.4 4888.56 111.25 4894.66 104.95L4903.81 114.1C4899.91 118.4 4895.16 121.75 4889.56 124.15C4883.96 126.45 4877.71 127.6 4870.81 127.6C4862.61 127.6 4855.46 125.9 4849.36 122.5C4843.26 119.1 4838.51 114.4 4835.11 108.4C4831.71 102.3 4830.01 95.25 4830.01 87.25C4830.01 79.25 4831.71 72.25 4835.11 66.25C4838.51 60.15 4843.26 55.4 4849.36 52C4855.46 48.6 4862.46 46.85 4870.36 46.75C4879.76 46.75 4887.31 48.7 4893.01 52.6C4898.71 56.4 4902.76 61.8 4905.16 68.8C4907.56 75.8 4908.41 84.1 4907.71 93.7H4843.96V81.4H4892.71ZM4984.79 82C4984.79 75.8 4983.09 70.95 4979.69 67.45C4976.29 63.85 4971.59 62.05 4965.59 62.05C4958.49 62.15 4952.89 64.65 4948.79 69.55C4944.79 74.45 4942.79 80.55 4942.79 87.85H4937.99C4937.99 77.95 4939.39 70 4942.19 64C4944.99 58 4948.94 53.65 4954.04 50.95C4959.24 48.15 4965.34 46.75 4972.34 46.75C4978.54 46.75 4983.84 48 4988.24 50.5C4992.74 53 4996.14 56.55 4998.44 61.15C5000.84 65.65 5002.04 71.1 5002.04 77.5V127H4984.79V82ZM4925.69 47.35H4942.94V127H4925.69V47.35ZM5025.15 47.35H5042.25V127H5025.15V47.35ZM5033.7 14.5C5036.6 14.5 5039 15.45 5040.9 17.35C5042.8 19.25 5043.75 21.65 5043.75 24.55C5043.75 27.35 5042.8 29.75 5040.9 31.75C5039 33.65 5036.6 34.6 5033.7 34.6C5030.9 34.6 5028.5 33.65 5026.5 31.75C5024.6 29.75 5023.65 27.35 5023.65 24.55C5023.65 21.65 5024.6 19.25 5026.5 17.35C5028.5 15.45 5030.9 14.5 5033.7 14.5ZM5098.23 46.6C5105.63 46.6 5111.88 48.25 5116.98 51.55C5122.18 54.75 5126.13 59.4 5128.83 65.5C5131.63 71.5 5132.98 78.7 5132.88 87.1C5132.98 95.5 5131.68 102.75 5128.98 108.85C5126.28 114.95 5122.33 119.65 5117.13 122.95C5112.03 126.15 5105.83 127.75 5098.53 127.75C5090.93 127.75 5084.23 126.05 5078.43 122.65C5072.73 119.15 5068.28 114.35 5065.08 108.25C5061.88 102.05 5060.28 94.95 5060.28 86.95C5060.28 78.95 5061.88 71.95 5065.08 65.95C5068.28 59.85 5072.73 55.1 5078.43 51.7C5084.13 48.3 5090.73 46.6 5098.23 46.6ZM5102.13 60.55C5097.33 60.55 5093.08 61.7 5089.38 64C5085.68 66.3 5082.78 69.5 5080.68 73.6C5078.68 77.6 5077.63 82.2 5077.53 87.4C5077.63 92.6 5078.68 97.2 5080.68 101.2C5082.78 105.2 5085.68 108.35 5089.38 110.65C5093.08 112.95 5097.33 114.1 5102.13 114.1C5106.93 114.1 5111.18 112.95 5114.88 110.65C5118.58 108.35 5121.43 105.2 5123.43 101.2C5125.53 97.2 5126.58 92.6 5126.58 87.4C5126.58 82.1 5125.53 77.45 5123.43 73.45C5121.43 69.45 5118.58 66.3 5114.88 64C5111.18 61.7 5106.93 60.55 5102.13 60.55ZM5126.58 15.7H5143.83V127H5126.58V15.7ZM5204.23 46.75C5212.43 46.75 5219.63 48.45 5225.83 51.85C5232.13 55.25 5237.03 60 5240.53 66.1C5244.03 72.1 5245.78 79.1 5245.78 87.1C5245.78 95.1 5244.03 102.15 5240.53 108.25C5237.03 114.35 5232.13 119.1 5225.83 122.5C5219.63 125.9 5212.43 127.6 5204.23 127.6C5196.03 127.6 5188.78 125.9 5182.48 122.5C5176.18 119.1 5171.28 114.35 5167.78 108.25C5164.28 102.15 5162.53 95.1 5162.53 87.1C5162.53 79.1 5164.28 72.1 5167.78 66.1C5171.28 60 5176.18 55.25 5182.48 51.85C5188.78 48.45 5196.03 46.75 5204.23 46.75ZM5204.23 60.7C5199.43 60.7 5195.18 61.85 5191.48 64.15C5187.78 66.35 5184.88 69.45 5182.78 73.45C5180.78 77.45 5179.78 82.05 5179.78 87.25C5179.78 92.55 5180.78 97.2 5182.78 101.2C5184.88 105.2 5187.78 108.35 5191.48 110.65C5195.18 112.85 5199.43 113.95 5204.23 113.95C5209.03 113.95 5213.23 112.85 5216.83 110.65C5220.53 108.35 5223.38 105.2 5225.38 101.2C5227.48 97.2 5228.53 92.55 5228.53 87.25C5228.53 82.05 5227.48 77.45 5225.38 73.45C5223.38 69.45 5220.53 66.35 5216.83 64.15C5213.23 61.85 5209.03 60.7 5204.23 60.7ZM5330.31 91.45C5324.71 91.45 5320.56 92.3 5317.86 94C5315.16 95.7 5313.81 98.5 5313.81 102.4C5313.81 106.1 5315.16 109.05 5317.86 111.25C5320.66 113.45 5324.46 114.55 5329.26 114.55C5333.56 114.55 5337.41 113.8 5340.81 112.3C5344.21 110.8 5346.91 108.8 5348.91 106.3C5350.91 103.7 5351.96 100.8 5352.06 97.6L5355.36 112.15C5352.86 117.35 5349.06 121.25 5343.96 123.85C5338.86 126.45 5332.76 127.75 5325.66 127.75C5319.96 127.75 5315.01 126.65 5310.81 124.45C5306.61 122.25 5303.36 119.3 5301.06 115.6C5298.76 111.8 5297.61 107.6 5297.61 103C5297.61 95.8 5300.21 90.05 5305.41 85.75C5310.71 81.45 5318.16 79.25 5327.76 79.15H5354.16V91.45H5330.31ZM5351.91 76.45C5351.91 71.25 5350.31 67.2 5347.11 64.3C5343.91 61.4 5339.16 59.95 5332.86 59.95C5329.06 59.95 5325.16 60.65 5321.16 62.05C5317.26 63.45 5313.31 65.5 5309.31 68.2L5302.26 57.1C5305.96 54.8 5309.46 52.9 5312.76 51.4C5316.06 49.9 5319.56 48.75 5323.26 47.95C5327.06 47.15 5331.51 46.75 5336.61 46.75C5346.91 46.75 5354.81 49.25 5360.31 54.25C5365.91 59.15 5368.76 65.95 5368.86 74.65L5369.01 127H5352.06L5351.91 76.45ZM5497.48 46.3C5493.68 43.9 5489.93 42 5486.23 40.6C5482.53 39.2 5479.03 38.2 5475.73 37.6C5472.43 37 5469.43 36.7 5466.73 36.7C5461.53 36.7 5457.38 37.7 5454.28 39.7C5451.18 41.7 5449.63 44.6 5449.63 48.4C5449.63 51.8 5450.63 54.6 5452.63 56.8C5454.73 58.9 5457.43 60.65 5460.73 62.05C5464.13 63.35 5467.83 64.6 5471.83 65.8C5475.93 67 5479.98 68.35 5483.98 69.85C5487.98 71.25 5491.68 73.1 5495.08 75.4C5498.48 77.7 5501.18 80.65 5503.18 84.25C5505.18 87.75 5506.18 92.2 5506.18 97.6C5506.18 103.8 5504.48 109.2 5501.08 113.8C5497.68 118.3 5492.98 121.8 5486.98 124.3C5481.08 126.8 5474.28 128.05 5466.58 128.05C5461.08 128.05 5455.73 127.35 5450.53 125.95C5445.33 124.45 5440.43 122.45 5435.83 119.95C5431.33 117.45 5427.28 114.55 5423.68 111.25L5431.33 96.7C5434.93 100 5438.73 102.8 5442.73 105.1C5446.83 107.4 5450.93 109.15 5455.03 110.35C5459.23 111.55 5463.18 112.15 5466.88 112.15C5473.08 112.15 5477.88 110.95 5481.28 108.55C5484.78 106.15 5486.53 102.8 5486.53 98.5C5486.53 95 5485.48 92.2 5483.38 90.1C5481.38 87.9 5478.68 86.1 5475.28 84.7C5471.98 83.3 5468.28 82.05 5464.18 80.95C5460.18 79.85 5456.13 78.6 5452.03 77.2C5448.03 75.7 5444.33 73.85 5440.93 71.65C5437.63 69.45 5434.93 66.6 5432.83 63.1C5430.83 59.6 5429.83 55.15 5429.83 49.75C5429.83 43.85 5431.43 38.75 5434.63 34.45C5437.83 30.05 5442.28 26.65 5447.98 24.25C5453.78 21.85 5460.48 20.65 5468.08 20.65C5474.88 20.65 5481.48 21.65 5487.88 23.65C5494.28 25.65 5499.93 28.25 5504.83 31.45L5497.48 46.3ZM5526.59 15.7H5543.84V127H5526.59V15.7ZM5579.09 47.35H5598.89L5542.49 105.85V85.3L5579.09 47.35ZM5567.69 75.7L5601.14 127H5580.74L5554.94 86.05L5567.69 75.7ZM5645.52 138.25C5643.02 144.35 5639.57 148.95 5635.17 152.05C5630.77 155.25 5625.57 156.85 5619.57 156.85C5615.97 156.85 5612.67 156.3 5609.67 155.2C5606.77 154.1 5603.92 152.45 5601.12 150.25L5608.47 137.5C5612.07 140.1 5615.52 141.4 5618.82 141.4C5621.42 141.4 5623.77 140.65 5625.87 139.15C5627.97 137.65 5629.67 135.35 5630.97 132.25L5633.67 125.95L5600.67 47.35H5618.52L5642.37 108.85L5664.57 47.35H5681.82L5645.52 138.25ZM5983.08 22C5990.38 22 5996.63 23.05 6001.83 25.15C6007.13 27.25 6011.18 30.25 6013.98 34.15C6016.88 38.05 6018.33 42.75 6018.33 48.25C6018.33 54.15 6016.68 59.2 6013.38 63.4C6010.08 67.6 6005.58 70.35 5999.88 71.65C6006.88 72.85 6012.38 75.8 6016.38 80.5C6020.38 85.2 6022.38 91.1 6022.38 98.2C6022.38 104.2 6020.83 109.35 6017.73 113.65C6014.63 117.95 6010.23 121.25 6004.53 123.55C5998.83 125.85 5992.03 127 5984.13 127H5937.48V22H5983.08ZM5982.18 65.65C5987.78 65.65 5992.18 64.4 5995.38 61.9C5998.58 59.3 6000.18 55.7 6000.18 51.1C6000.18 46.6 5998.58 43.15 5995.38 40.75C5992.18 38.25 5987.78 37.05 5982.18 37.15H5955.18V65.65H5982.18ZM5982.18 111.85C5989.08 111.95 5994.48 110.65 5998.38 107.95C6002.28 105.15 6004.23 101.2 6004.23 96.1C6004.23 91.3 6002.28 87.55 5998.38 84.85C5994.48 82.05 5989.08 80.7 5982.18 80.8H5955.18V111.85H5982.18ZM6042.34 47.35H6059.44V127H6042.34V47.35ZM6050.89 14.5C6053.79 14.5 6056.19 15.45 6058.09 17.35C6059.99 19.25 6060.94 21.65 6060.94 24.55C6060.94 27.35 6059.99 29.75 6058.09 31.75C6056.19 33.65 6053.79 34.6 6050.89 34.6C6048.09 34.6 6045.69 33.65 6043.69 31.75C6041.79 29.75 6040.84 27.35 6040.84 24.55C6040.84 21.65 6041.79 19.25 6043.69 17.35C6045.69 15.45 6048.09 14.5 6050.89 14.5ZM6140.17 81.4C6139.97 76.9 6138.92 73.1 6137.02 70C6135.22 66.8 6132.67 64.35 6129.37 62.65C6126.07 60.85 6122.27 59.95 6117.97 59.95C6113.17 59.95 6108.97 61.05 6105.37 63.25C6101.87 65.45 6099.12 68.55 6097.12 72.55C6095.12 76.45 6094.12 81.05 6094.12 86.35C6094.12 92.05 6095.17 97 6097.27 101.2C6099.47 105.4 6102.47 108.65 6106.27 110.95C6110.17 113.25 6114.62 114.4 6119.62 114.4C6128.52 114.4 6136.02 111.25 6142.12 104.95L6151.27 114.1C6147.37 118.4 6142.62 121.75 6137.02 124.15C6131.42 126.45 6125.17 127.6 6118.27 127.6C6110.07 127.6 6102.92 125.9 6096.82 122.5C6090.72 119.1 6085.97 114.4 6082.57 108.4C6079.17 102.3 6077.47 95.25 6077.47 87.25C6077.47 79.25 6079.17 72.25 6082.57 66.25C6085.97 60.15 6090.72 55.4 6096.82 52C6102.92 48.6 6109.92 46.85 6117.82 46.75C6127.22 46.75 6134.77 48.7 6140.47 52.6C6146.17 56.4 6150.22 61.8 6152.62 68.8C6155.02 75.8 6155.87 84.1 6155.17 93.7H6091.42V81.4H6140.17ZM6232.25 82C6232.25 75.8 6230.55 70.95 6227.15 67.45C6223.75 63.85 6219.05 62.05 6213.05 62.05C6205.95 62.15 6200.35 64.65 6196.25 69.55C6192.25 74.45 6190.25 80.55 6190.25 87.85H6185.45C6185.45 77.95 6186.85 70 6189.65 64C6192.45 58 6196.4 53.65 6201.5 50.95C6206.7 48.15 6212.8 46.75 6219.8 46.75C6226 46.75 6231.3 48 6235.7 50.5C6240.2 53 6243.6 56.55 6245.9 61.15C6248.3 65.65 6249.5 71.1 6249.5 77.5V127H6232.25V82ZM6173.15 47.35H6190.4V127H6173.15V47.35ZM6257.67 47.35H6275.67L6297.87 111.1L6319.77 47.35H6337.02L6306.42 127H6288.57L6257.67 47.35ZM6401.35 81.4C6401.15 76.9 6400.1 73.1 6398.2 70C6396.4 66.8 6393.85 64.35 6390.55 62.65C6387.25 60.85 6383.45 59.95 6379.15 59.95C6374.35 59.95 6370.15 61.05 6366.55 63.25C6363.05 65.45 6360.3 68.55 6358.3 72.55C6356.3 76.45 6355.3 81.05 6355.3 86.35C6355.3 92.05 6356.35 97 6358.45 101.2C6360.65 105.4 6363.65 108.65 6367.45 110.95C6371.35 113.25 6375.8 114.4 6380.8 114.4C6389.7 114.4 6397.2 111.25 6403.3 104.95L6412.45 114.1C6408.55 118.4 6403.8 121.75 6398.2 124.15C6392.6 126.45 6386.35 127.6 6379.45 127.6C6371.25 127.6 6364.1 125.9 6358 122.5C6351.9 119.1 6347.15 114.4 6343.75 108.4C6340.35 102.3 6338.65 95.25 6338.65 87.25C6338.65 79.25 6340.35 72.25 6343.75 66.25C6347.15 60.15 6351.9 55.4 6358 52C6364.1 48.6 6371.1 46.85 6379 46.75C6388.4 46.75 6395.95 48.7 6401.65 52.6C6407.35 56.4 6411.4 61.8 6413.8 68.8C6416.2 75.8 6417.05 84.1 6416.35 93.7H6352.6V81.4H6401.35ZM6493.43 82C6493.43 75.8 6491.73 70.95 6488.33 67.45C6484.93 63.85 6480.23 62.05 6474.23 62.05C6467.13 62.15 6461.53 64.65 6457.43 69.55C6453.43 74.45 6451.43 80.55 6451.43 87.85H6446.63C6446.63 77.95 6448.03 70 6450.83 64C6453.63 58 6457.58 53.65 6462.68 50.95C6467.88 48.15 6473.98 46.75 6480.98 46.75C6487.18 46.75 6492.48 48 6496.88 50.5C6501.38 53 6504.78 56.55 6507.08 61.15C6509.48 65.65 6510.68 71.1 6510.68 77.5V127H6493.43V82ZM6434.33 47.35H6451.58V127H6434.33V47.35ZM6533.79 47.35H6550.89V127H6533.79V47.35ZM6542.34 14.5C6545.24 14.5 6547.64 15.45 6549.54 17.35C6551.44 19.25 6552.39 21.65 6552.39 24.55C6552.39 27.35 6551.44 29.75 6549.54 31.75C6547.64 33.65 6545.24 34.6 6542.34 34.6C6539.54 34.6 6537.14 33.65 6535.14 31.75C6533.24 29.75 6532.29 27.35 6532.29 24.55C6532.29 21.65 6533.24 19.25 6535.14 17.35C6537.14 15.45 6539.54 14.5 6542.34 14.5ZM6606.87 46.6C6614.27 46.6 6620.52 48.25 6625.62 51.55C6630.82 54.75 6634.77 59.4 6637.47 65.5C6640.27 71.5 6641.62 78.7 6641.52 87.1C6641.62 95.5 6640.32 102.75 6637.62 108.85C6634.92 114.95 6630.97 119.65 6625.77 122.95C6620.67 126.15 6614.47 127.75 6607.17 127.75C6599.57 127.75 6592.87 126.05 6587.07 122.65C6581.37 119.15 6576.92 114.35 6573.72 108.25C6570.52 102.05 6568.92 94.95 6568.92 86.95C6568.92 78.95 6570.52 71.95 6573.72 65.95C6576.92 59.85 6581.37 55.1 6587.07 51.7C6592.77 48.3 6599.37 46.6 6606.87 46.6ZM6610.77 60.55C6605.97 60.55 6601.72 61.7 6598.02 64C6594.32 66.3 6591.42 69.5 6589.32 73.6C6587.32 77.6 6586.27 82.2 6586.17 87.4C6586.27 92.6 6587.32 97.2 6589.32 101.2C6591.42 105.2 6594.32 108.35 6598.02 110.65C6601.72 112.95 6605.97 114.1 6610.77 114.1C6615.57 114.1 6619.82 112.95 6623.52 110.65C6627.22 108.35 6630.07 105.2 6632.07 101.2C6634.17 97.2 6635.22 92.6 6635.22 87.4C6635.22 82.1 6634.17 77.45 6632.07 73.45C6630.07 69.45 6627.22 66.3 6623.52 64C6619.82 61.7 6615.57 60.55 6610.77 60.55ZM6635.22 15.7H6652.47V127H6635.22V15.7ZM6712.87 46.75C6721.07 46.75 6728.27 48.45 6734.47 51.85C6740.77 55.25 6745.67 60 6749.17 66.1C6752.67 72.1 6754.42 79.1 6754.42 87.1C6754.42 95.1 6752.67 102.15 6749.17 108.25C6745.67 114.35 6740.77 119.1 6734.47 122.5C6728.27 125.9 6721.07 127.6 6712.87 127.6C6704.67 127.6 6697.42 125.9 6691.12 122.5C6684.82 119.1 6679.92 114.35 6676.42 108.25C6672.92 102.15 6671.17 95.1 6671.17 87.1C6671.17 79.1 6672.92 72.1 6676.42 66.1C6679.92 60 6684.82 55.25 6691.12 51.85C6697.42 48.45 6704.67 46.75 6712.87 46.75ZM6712.87 60.7C6708.07 60.7 6703.82 61.85 6700.12 64.15C6696.42 66.35 6693.52 69.45 6691.42 73.45C6689.42 77.45 6688.42 82.05 6688.42 87.25C6688.42 92.55 6689.42 97.2 6691.42 101.2C6693.52 105.2 6696.42 108.35 6700.12 110.65C6703.82 112.85 6708.07 113.95 6712.87 113.95C6717.67 113.95 6721.87 112.85 6725.47 110.65C6729.17 108.35 6732.02 105.2 6734.02 101.2C6736.12 97.2 6737.17 92.55 6737.17 87.25C6737.17 82.05 6736.12 77.45 6734.02 73.45C6732.02 69.45 6729.17 66.35 6725.47 64.15C6721.87 61.85 6717.67 60.7 6712.87 60.7ZM6838.95 91.45C6833.35 91.45 6829.2 92.3 6826.5 94C6823.8 95.7 6822.45 98.5 6822.45 102.4C6822.45 106.1 6823.8 109.05 6826.5 111.25C6829.3 113.45 6833.1 114.55 6837.9 114.55C6842.2 114.55 6846.05 113.8 6849.45 112.3C6852.85 110.8 6855.55 108.8 6857.55 106.3C6859.55 103.7 6860.6 100.8 6860.7 97.6L6864 112.15C6861.5 117.35 6857.7 121.25 6852.6 123.85C6847.5 126.45 6841.4 127.75 6834.3 127.75C6828.6 127.75 6823.65 126.65 6819.45 124.45C6815.25 122.25 6812 119.3 6809.7 115.6C6807.4 111.8 6806.25 107.6 6806.25 103C6806.25 95.8 6808.85 90.05 6814.05 85.75C6819.35 81.45 6826.8 79.25 6836.4 79.15H6862.8V91.45H6838.95ZM6860.55 76.45C6860.55 71.25 6858.95 67.2 6855.75 64.3C6852.55 61.4 6847.8 59.95 6841.5 59.95C6837.7 59.95 6833.8 60.65 6829.8 62.05C6825.9 63.45 6821.95 65.5 6817.95 68.2L6810.9 57.1C6814.6 54.8 6818.1 52.9 6821.4 51.4C6824.7 49.9 6828.2 48.75 6831.9 47.95C6835.7 47.15 6840.15 46.75 6845.25 46.75C6855.55 46.75 6863.45 49.25 6868.95 54.25C6874.55 59.15 6877.4 65.95 6877.5 74.65L6877.65 127H6860.7L6860.55 76.45ZM7006.12 46.3C7002.32 43.9 6998.57 42 6994.87 40.6C6991.17 39.2 6987.67 38.2 6984.37 37.6C6981.07 37 6978.07 36.7 6975.37 36.7C6970.17 36.7 6966.02 37.7 6962.92 39.7C6959.82 41.7 6958.27 44.6 6958.27 48.4C6958.27 51.8 6959.27 54.6 6961.27 56.8C6963.37 58.9 6966.07 60.65 6969.37 62.05C6972.77 63.35 6976.47 64.6 6980.47 65.8C6984.57 67 6988.62 68.35 6992.62 69.85C6996.62 71.25 7000.32 73.1 7003.72 75.4C7007.12 77.7 7009.82 80.65 7011.82 84.25C7013.82 87.75 7014.82 92.2 7014.82 97.6C7014.82 103.8 7013.12 109.2 7009.72 113.8C7006.32 118.3 7001.62 121.8 6995.62 124.3C6989.72 126.8 6982.92 128.05 6975.22 128.05C6969.72 128.05 6964.37 127.35 6959.17 125.95C6953.97 124.45 6949.07 122.45 6944.47 119.95C6939.97 117.45 6935.92 114.55 6932.32 111.25L6939.97 96.7C6943.57 100 6947.37 102.8 6951.37 105.1C6955.47 107.4 6959.57 109.15 6963.67 110.35C6967.87 111.55 6971.82 112.15 6975.52 112.15C6981.72 112.15 6986.52 110.95 6989.92 108.55C6993.42 106.15 6995.17 102.8 6995.17 98.5C6995.17 95 6994.12 92.2 6992.02 90.1C6990.02 87.9 6987.32 86.1 6983.92 84.7C6980.62 83.3 6976.92 82.05 6972.82 80.95C6968.82 79.85 6964.77 78.6 6960.67 77.2C6956.67 75.7 6952.97 73.85 6949.57 71.65C6946.27 69.45 6943.57 66.6 6941.47 63.1C6939.47 59.6 6938.47 55.15 6938.47 49.75C6938.47 43.85 6940.07 38.75 6943.27 34.45C6946.47 30.05 6950.92 26.65 6956.62 24.25C6962.42 21.85 6969.12 20.65 6976.72 20.65C6983.52 20.65 6990.12 21.65 6996.52 23.65C7002.92 25.65 7008.57 28.25 7013.47 31.45L7006.12 46.3ZM7035.23 15.7H7052.48V127H7035.23V15.7ZM7087.73 47.35H7107.53L7051.13 105.85V85.3L7087.73 47.35ZM7076.33 75.7L7109.78 127H7089.38L7063.58 86.05L7076.33 75.7ZM7154.16 138.25C7151.66 144.35 7148.21 148.95 7143.81 152.05C7139.41 155.25 7134.21 156.85 7128.21 156.85C7124.61 156.85 7121.31 156.3 7118.31 155.2C7115.41 154.1 7112.56 152.45 7109.76 150.25L7117.11 137.5C7120.71 140.1 7124.16 141.4 7127.46 141.4C7130.06 141.4 7132.41 140.65 7134.51 139.15C7136.61 137.65 7138.31 135.35 7139.61 132.25L7142.31 125.95L7109.31 47.35H7127.16L7151.01 108.85L7173.21 47.35H7190.46L7154.16 138.25ZM7510.02 46.3C7506.22 43.9 7502.47 42 7498.77 40.6C7495.07 39.2 7491.57 38.2 7488.27 37.6C7484.97 37 7481.97 36.7 7479.27 36.7C7474.07 36.7 7469.92 37.7 7466.82 39.7C7463.72 41.7 7462.17 44.6 7462.17 48.4C7462.17 51.8 7463.17 54.6 7465.17 56.8C7467.27 58.9 7469.97 60.65 7473.27 62.05C7476.67 63.35 7480.37 64.6 7484.37 65.8C7488.47 67 7492.52 68.35 7496.52 69.85C7500.52 71.25 7504.22 73.1 7507.62 75.4C7511.02 77.7 7513.72 80.65 7515.72 84.25C7517.72 87.75 7518.72 92.2 7518.72 97.6C7518.72 103.8 7517.02 109.2 7513.62 113.8C7510.22 118.3 7505.52 121.8 7499.52 124.3C7493.62 126.8 7486.82 128.05 7479.12 128.05C7473.62 128.05 7468.27 127.35 7463.07 125.95C7457.87 124.45 7452.97 122.45 7448.37 119.95C7443.87 117.45 7439.82 114.55 7436.22 111.25L7443.87 96.7C7447.47 100 7451.27 102.8 7455.27 105.1C7459.37 107.4 7463.47 109.15 7467.57 110.35C7471.77 111.55 7475.72 112.15 7479.42 112.15C7485.62 112.15 7490.42 110.95 7493.82 108.55C7497.32 106.15 7499.07 102.8 7499.07 98.5C7499.07 95 7498.02 92.2 7495.92 90.1C7493.92 87.9 7491.22 86.1 7487.82 84.7C7484.52 83.3 7480.82 82.05 7476.72 80.95C7472.72 79.85 7468.67 78.6 7464.57 77.2C7460.57 75.7 7456.87 73.85 7453.47 71.65C7450.17 69.45 7447.47 66.6 7445.37 63.1C7443.37 59.6 7442.37 55.15 7442.37 49.75C7442.37 43.85 7443.97 38.75 7447.17 34.45C7450.37 30.05 7454.82 26.65 7460.52 24.25C7466.32 21.85 7473.02 20.65 7480.62 20.65C7487.42 20.65 7494.02 21.65 7500.42 23.65C7506.82 25.65 7512.47 28.25 7517.37 31.45L7510.02 46.3ZM7539.13 15.7H7556.38V127H7539.13V15.7ZM7591.63 47.35H7611.43L7555.03 105.85V85.3L7591.63 47.35ZM7580.23 75.7L7613.68 127H7593.28L7567.48 86.05L7580.23 75.7ZM7658.06 138.25C7655.56 144.35 7652.11 148.95 7647.71 152.05C7643.31 155.25 7638.11 156.85 7632.11 156.85C7628.51 156.85 7625.21 156.3 7622.21 155.2C7619.31 154.1 7616.46 152.45 7613.66 150.25L7621.01 137.5C7624.61 140.1 7628.06 141.4 7631.36 141.4C7633.96 141.4 7636.31 140.65 7638.41 139.15C7640.51 137.65 7642.21 135.35 7643.51 132.25L7646.21 125.95L7613.21 47.35H7631.06L7654.91 108.85L7677.11 47.35H7694.36L7658.06 138.25ZM7702.05 85.9C7703.95 84.4 7705.7 82.9 7707.3 81.4C7709 79.8 7710.85 78 7712.85 76C7714.85 73.9 7717.05 71.4 7719.45 68.5C7721.95 65.5 7724.5 62.35 7727.1 59.05C7729.8 55.65 7732.45 52.3 7735.05 49C7737.65 45.7 7740.05 42.75 7742.25 40.15C7746.65 35.05 7750.9 32.25 7755 31.75C7759.2 31.25 7763.75 33.5 7768.65 38.5C7771.75 41.6 7775 45.2 7778.4 49.3C7781.8 53.3 7785.25 57.35 7788.75 61.45C7792.35 65.55 7795.7 69.35 7798.8 72.85C7801.1 75.35 7803.7 78.15 7806.6 81.25C7809.5 84.35 7812.6 87.6 7815.9 91C7819.2 94.3 7822.55 97.65 7825.95 101.05C7829.45 104.45 7832.9 107.6 7836.3 110.5L7826.7 121.45C7823 117.85 7819.05 113.9 7814.85 109.6C7810.75 105.2 7806.7 100.75 7802.7 96.25C7798.7 91.75 7794.95 87.6 7791.45 83.8C7788.25 80.1 7784.9 76.2 7781.4 72.1C7778 67.9 7774.7 63.9 7771.5 60.1C7768.4 56.3 7765.7 53.1 7763.4 50.5C7761.2 48.2 7759.35 46.75 7757.85 46.15C7756.35 45.55 7754.9 45.7 7753.5 46.6C7752.2 47.4 7750.65 48.85 7748.85 50.95C7747.15 53.15 7745.15 55.75 7742.85 58.75C7740.55 61.75 7738.15 64.85 7735.65 68.05C7733.15 71.25 7730.7 74.4 7728.3 77.5C7726 80.6 7723.9 83.3 7722 85.6C7720.5 87.6 7718.9 89.65 7717.2 91.75C7715.6 93.75 7714.25 95.55 7713.15 97.15L7702.05 85.9ZM7924.8 9.25C7924.7 10.25 7924.55 11.65 7924.35 13.45C7924.25 15.25 7924.1 17.1 7923.9 19C7923.8 20.9 7923.75 22.6 7923.75 24.1C7923.75 27.5 7923.75 31.65 7923.75 36.55C7923.75 41.45 7923.75 46.45 7923.75 51.55C7923.75 55.65 7923.85 60.45 7924.05 65.95C7924.35 71.35 7924.6 76.9 7924.8 82.6C7925.1 88.3 7925.35 93.7 7925.55 98.8C7925.85 103.8 7926 107.9 7926 111.1C7926 114.2 7925.5 117.15 7924.5 119.95C7923.5 122.65 7921.9 125.05 7919.7 127.15C7917.6 129.25 7914.8 130.9 7911.3 132.1C7907.8 133.3 7903.55 133.9 7898.55 133.9C7891.65 133.9 7885.5 133.1 7880.1 131.5C7874.7 129.9 7870.4 127.4 7867.2 124C7864.1 120.5 7862.55 115.9 7862.55 110.2C7862.55 105.7 7863.9 101.6 7866.6 97.9C7869.3 94.2 7873.45 91.25 7879.05 89.05C7884.65 86.75 7891.75 85.6 7900.35 85.6C7907.75 85.6 7914.9 86.45 7921.8 88.15C7928.8 89.85 7935.35 92.1 7941.45 94.9C7947.65 97.7 7953.3 100.85 7958.4 104.35C7963.6 107.75 7968.1 111.15 7971.9 114.55L7964.7 125.95C7961 122.15 7956.7 118.5 7951.8 115C7947 111.4 7941.75 108.2 7936.05 105.4C7930.35 102.5 7924.35 100.25 7918.05 98.65C7911.85 96.95 7905.45 96.1 7898.85 96.1C7891.05 96.1 7885.05 97.35 7880.85 99.85C7876.65 102.35 7874.55 105.65 7874.55 109.75C7874.55 113.85 7876.55 117.05 7880.55 119.35C7884.55 121.55 7890.15 122.65 7897.35 122.65C7902.85 122.65 7906.95 121.4 7909.65 118.9C7912.35 116.3 7913.7 112.4 7913.7 107.2C7913.7 104.4 7913.6 100.7 7913.4 96.1C7913.2 91.4 7913 86.35 7912.8 80.95C7912.6 75.55 7912.4 70.3 7912.2 65.2C7912 60 7911.9 55.45 7911.9 51.55C7911.9 48.65 7911.9 45.5 7911.9 42.1C7911.9 38.7 7911.9 35.4 7911.9 32.2C7911.9 28.9 7911.85 26.2 7911.75 24.1C7911.75 22.3 7911.7 20.45 7911.6 18.55C7911.5 16.55 7911.35 14.75 7911.15 13.15C7911.05 11.45 7910.85 10.15 7910.55 9.25H7924.8ZM7917.15 39.4C7919.65 39.4 7922.95 39.35 7927.05 39.25C7931.15 39.15 7935.6 39 7940.4 38.8C7945.2 38.6 7950 38.35 7954.8 38.05C7959.6 37.65 7964.05 37.2 7968.15 36.7L7968.6 47.95C7964.5 48.35 7960 48.7 7955.1 49C7950.3 49.3 7945.5 49.6 7940.7 49.9C7935.9 50.1 7931.4 50.25 7927.2 50.35C7923.1 50.45 7919.75 50.5 7917.15 50.5V39.4ZM8101.65 77.05C8101.65 72.85 8100.55 69.15 8098.35 65.95C8096.25 62.65 8093.25 60.1 8089.35 58.3C8085.55 56.4 8081.1 55.45 8076 55.45C8070.2 55.45 8064.75 55.9 8059.65 56.8C8054.55 57.7 8049.9 58.75 8045.7 59.95C8041.6 61.15 8038.05 62.15 8035.05 62.95C8032.75 63.65 8030.5 64.4 8028.3 65.2C8026.2 66 8024.25 66.8 8022.45 67.6L8018.55 53.65C8020.65 53.45 8022.9 53.15 8025.3 52.75C8027.8 52.35 8030.15 51.9 8032.35 51.4C8035.95 50.6 8040.1 49.65 8044.8 48.55C8049.6 47.45 8054.75 46.45 8060.25 45.55C8065.85 44.65 8071.5 44.2 8077.2 44.2C8084.3 44.2 8090.65 45.5 8096.25 48.1C8101.85 50.7 8106.25 54.5 8109.45 59.5C8112.75 64.4 8114.4 70.4 8114.4 77.5C8114.4 85.7 8112.7 93 8109.3 99.4C8105.9 105.7 8101.1 111.2 8094.9 115.9C8088.8 120.5 8081.6 124.35 8073.3 127.45C8065 130.55 8056 132.8 8046.3 134.2L8039.55 122.8C8048.55 121.7 8056.85 119.95 8064.45 117.55C8072.05 115.05 8078.6 111.95 8084.1 108.25C8089.7 104.55 8094 100.1 8097 94.9C8100.1 89.7 8101.65 83.75 8101.65 77.05ZM8038.65 9.54999C8042.75 10.45 8047.65 11.3 8053.35 12.1C8059.15 12.9 8065.1 13.65 8071.2 14.35C8077.4 14.95 8083.2 15.45 8088.6 15.85C8094.1 16.25 8098.7 16.45 8102.4 16.45L8100.6 28C8096.4 27.7 8091.5 27.35 8085.9 26.95C8080.4 26.45 8074.65 25.9 8068.65 25.3C8062.75 24.6 8057 23.9 8051.4 23.2C8045.9 22.4 8041 21.65 8036.7 20.95L8038.65 9.54999ZM8178.9 21.7C8184.3 22.4 8190.35 22.9 8197.05 23.2C8203.85 23.5 8211 23.65 8218.5 23.65C8223.3 23.65 8228.1 23.55 8232.9 23.35C8237.8 23.15 8242.45 22.9 8246.85 22.6C8251.35 22.2 8255.4 21.85 8259 21.55V33.85C8255.6 34.05 8251.65 34.3 8247.15 34.6C8242.65 34.9 8237.9 35.15 8232.9 35.35C8228 35.55 8223.2 35.65 8218.5 35.65C8211 35.65 8204 35.5 8197.5 35.2C8191 34.8 8184.8 34.4 8178.9 34V21.7ZM8184.9 82.15C8183.9 85.15 8183.1 88.05 8182.5 90.85C8182 93.65 8181.75 96.45 8181.75 99.25C8181.75 104.95 8184.7 109.6 8190.6 113.2C8196.5 116.8 8205.45 118.6 8217.45 118.6C8224.35 118.6 8231 118.35 8237.4 117.85C8243.8 117.35 8249.65 116.65 8254.95 115.75C8260.35 114.85 8264.95 113.8 8268.75 112.6L8268.9 125.5C8265.3 126.5 8260.85 127.4 8255.55 128.2C8250.35 129 8244.55 129.6 8238.15 130C8231.75 130.5 8224.95 130.75 8217.75 130.75C8207.65 130.75 8199 129.65 8191.8 127.45C8184.6 125.25 8179.1 122 8175.3 117.7C8171.5 113.4 8169.6 108.1 8169.6 101.8C8169.6 97.9 8169.95 94.2 8170.65 90.7C8171.35 87.2 8172.05 83.95 8172.75 80.95L8184.9 82.15ZM8332.95 14.95C8334.75 15.15 8336.6 15.3 8338.5 15.4C8340.4 15.5 8342.5 15.55 8344.8 15.55C8346.2 15.55 8348.35 15.5 8351.25 15.4C8354.25 15.3 8357.6 15.2 8361.3 15.1C8365.1 14.9 8368.95 14.7 8372.85 14.5C8376.75 14.3 8380.3 14.1 8383.5 13.9C8386.8 13.6 8389.3 13.35 8391 13.15C8392.8 12.95 8394.35 12.75 8395.65 12.55C8397.05 12.25 8398.2 12 8399.1 11.8L8406.75 20.35C8405.75 20.95 8404.4 21.8 8402.7 22.9C8401.1 24 8399.75 25 8398.65 25.9C8396.45 27.8 8393.85 30 8390.85 32.5C8387.95 34.9 8384.85 37.5 8381.55 40.3C8378.25 43 8374.9 45.75 8371.5 48.55C8368.2 51.25 8365.05 53.85 8362.05 56.35C8359.05 58.75 8356.3 60.9 8353.8 62.8C8361.4 62 8369.35 61.3 8377.65 60.7C8385.95 60 8394.15 59.45 8402.25 59.05C8410.35 58.65 8418 58.45 8425.2 58.45V69.55C8417.9 69.15 8410.85 69 8404.05 69.1C8397.25 69.2 8391.6 69.55 8387.1 70.15C8383.5 70.75 8379.95 71.9 8376.45 73.6C8373.05 75.3 8369.95 77.45 8367.15 80.05C8364.45 82.55 8362.3 85.4 8360.7 88.6C8359.1 91.8 8358.3 95.2 8358.3 98.8C8358.3 103.8 8359.5 107.8 8361.9 110.8C8364.3 113.8 8367.45 116.05 8371.35 117.55C8375.35 119.05 8379.6 120.15 8384.1 120.85C8388.6 121.45 8392.65 121.75 8396.25 121.75C8399.85 121.65 8403 121.5 8405.7 121.3L8403.15 133.45C8384.85 134.25 8370.85 131.85 8361.15 126.25C8351.45 120.65 8346.6 112.1 8346.6 100.6C8346.6 96.3 8347.5 92.3 8349.3 88.6C8351.2 84.8 8353.5 81.5 8356.2 78.7C8358.9 75.9 8361.5 73.75 8364 72.25C8356.1 72.85 8347.35 73.75 8337.75 74.95C8328.25 76.05 8319 77.35 8310 78.85L8308.95 67.6C8312.95 67.1 8317.3 66.6 8322 66.1C8326.8 65.5 8331.1 65 8334.9 64.6C8338.9 61.8 8343.25 58.55 8347.95 54.85C8352.75 51.05 8357.45 47.2 8362.05 43.3C8366.75 39.3 8371.05 35.65 8374.95 32.35C8378.85 28.95 8382 26.2 8384.4 24.1C8383.1 24.2 8381.1 24.35 8378.4 24.55C8375.8 24.65 8372.85 24.8 8369.55 25C8366.25 25.1 8362.95 25.25 8359.65 25.45C8356.45 25.55 8353.55 25.7 8350.95 25.9C8348.35 26 8346.35 26.1 8344.95 26.2C8343.05 26.3 8341.05 26.5 8338.95 26.8C8336.95 27 8335.15 27.15 8333.55 27.25L8332.95 14.95Z" fill="#0A77F3"/>
<rect x="1256" y="73" width="140" height="15" fill="#0A77F3"/>
<rect x="3042" y="73" width="140" height="15" fill="#0A77F3"/>
<rect x="4207" y="73" width="140" height="15" fill="#0A77F3"/>
<rect x="5722" y="73" width="140" height="15" fill="#0A77F3"/>
<rect x="7243" y="73" width="140" height="15" fill="#0A77F3"/>
</svg>
