<svg width="9999" height="157" viewBox="0 0 9999 157" fill="none" xmlns="http://www.w3.org/2000/svg">
<path d="M1294.79 22H1313.84L1342.04 115.9H1337.54L1365.74 22H1383.14L1411.49 115.9H1406.99L1435.04 22H1453.34L1417.79 127H1399.49L1371.89 36.25L1376.39 36.4L1348.34 127H1330.19L1294.79 22ZM1513.75 81.4C1513.55 76.9 1512.5 73.1 1510.6 70C1508.8 66.8 1506.25 64.35 1502.95 62.65C1499.65 60.85 1495.85 59.95 1491.55 59.95C1486.75 59.95 1482.55 61.05 1478.95 63.25C1475.45 65.45 1472.7 68.55 1470.7 72.55C1468.7 76.45 1467.7 81.05 1467.7 86.35C1467.7 92.05 1468.75 97 1470.85 101.2C1473.05 105.4 1476.05 108.65 1479.85 110.95C1483.75 113.25 1488.2 114.4 1493.2 114.4C1502.1 114.4 1509.6 111.25 1515.7 104.95L1524.85 114.1C1520.95 118.4 1516.2 121.75 1510.6 124.15C1505 126.45 1498.75 127.6 1491.85 127.6C1483.65 127.6 1476.5 125.9 1470.4 122.5C1464.3 119.1 1459.55 114.4 1456.15 108.4C1452.75 102.3 1451.05 95.25 1451.05 87.25C1451.05 79.25 1452.75 72.25 1456.15 66.25C1459.55 60.15 1464.3 55.4 1470.4 52C1476.5 48.6 1483.5 46.85 1491.4 46.75C1500.8 46.75 1508.35 48.7 1514.05 52.6C1519.75 56.4 1523.8 61.8 1526.2 68.8C1528.6 75.8 1529.45 84.1 1528.75 93.7H1465V81.4H1513.75ZM1547.48 15.7H1564.73V127H1547.48V15.7ZM1647.22 70.15C1644.42 67.25 1641.12 65 1637.32 63.4C1633.52 61.8 1629.22 61 1624.42 61C1619.82 61 1615.72 62.1 1612.12 64.3C1608.52 66.5 1605.72 69.6 1603.72 73.6C1601.72 77.5 1600.72 82.05 1600.72 87.25C1600.72 92.45 1601.72 97.05 1603.72 101.05C1605.72 104.95 1608.52 108.05 1612.12 110.35C1615.72 112.55 1619.82 113.65 1624.42 113.65C1629.42 113.65 1633.92 112.85 1637.92 111.25C1641.92 109.55 1645.27 107.1 1647.97 103.9L1657.57 113.35C1653.97 117.85 1649.27 121.35 1643.47 123.85C1637.77 126.35 1631.17 127.6 1623.67 127.6C1615.77 127.6 1608.77 125.9 1602.67 122.5C1596.67 119.1 1591.97 114.4 1588.57 108.4C1585.17 102.3 1583.47 95.25 1583.47 87.25C1583.47 79.25 1585.17 72.25 1588.57 66.25C1591.97 60.15 1596.67 55.4 1602.67 52C1608.77 48.5 1615.77 46.75 1623.67 46.75C1630.87 46.75 1637.22 47.85 1642.72 50.05C1648.32 52.15 1652.97 55.15 1656.67 59.05L1647.22 70.15ZM1706.62 46.75C1714.82 46.75 1722.02 48.45 1728.22 51.85C1734.52 55.25 1739.42 60 1742.92 66.1C1746.42 72.1 1748.17 79.1 1748.17 87.1C1748.17 95.1 1746.42 102.15 1742.92 108.25C1739.42 114.35 1734.52 119.1 1728.22 122.5C1722.02 125.9 1714.82 127.6 1706.62 127.6C1698.42 127.6 1691.17 125.9 1684.87 122.5C1678.57 119.1 1673.67 114.35 1670.17 108.25C1666.67 102.15 1664.92 95.1 1664.92 87.1C1664.92 79.1 1666.67 72.1 1670.17 66.1C1673.67 60 1678.57 55.25 1684.87 51.85C1691.17 48.45 1698.42 46.75 1706.62 46.75ZM1706.62 60.7C1701.82 60.7 1697.57 61.85 1693.87 64.15C1690.17 66.35 1687.27 69.45 1685.17 73.45C1683.17 77.45 1682.17 82.05 1682.17 87.25C1682.17 92.55 1683.17 97.2 1685.17 101.2C1687.27 105.2 1690.17 108.35 1693.87 110.65C1697.57 112.85 1701.82 113.95 1706.62 113.95C1711.42 113.95 1715.62 112.85 1719.22 110.65C1722.92 108.35 1725.77 105.2 1727.77 101.2C1729.87 97.2 1730.92 92.55 1730.92 87.25C1730.92 82.05 1729.87 77.45 1727.77 73.45C1725.77 69.45 1722.92 66.35 1719.22 64.15C1715.62 61.85 1711.42 60.7 1706.62 60.7ZM1824.22 82C1824.22 75.7 1822.57 70.8 1819.27 67.3C1815.97 63.7 1811.37 61.9 1805.47 61.9C1798.57 62.1 1793.12 64.65 1789.12 69.55C1785.22 74.45 1783.27 80.5 1783.27 87.7H1778.47C1778.47 77.9 1779.82 70 1782.52 64C1785.32 58 1789.22 53.65 1794.22 50.95C1799.32 48.15 1805.32 46.75 1812.22 46.75C1818.32 46.75 1823.52 48 1827.82 50.5C1832.22 53 1835.57 56.55 1837.87 61.15C1840.27 65.65 1841.47 71.1 1841.47 77.5V127H1824.22V82ZM1882.27 82C1882.27 75.7 1880.57 70.8 1877.17 67.3C1873.87 63.7 1869.27 61.9 1863.37 61.9C1856.57 62.1 1851.22 64.65 1847.32 69.55C1843.42 74.45 1841.47 80.5 1841.47 87.7H1836.52C1836.52 77.9 1837.87 70 1840.57 64C1843.37 58 1847.27 53.65 1852.27 50.95C1857.37 48.15 1863.37 46.75 1870.27 46.75C1876.37 46.75 1881.57 48 1885.87 50.5C1890.27 53 1893.62 56.55 1895.92 61.15C1898.32 65.65 1899.52 71.1 1899.52 77.5V127H1882.27V82ZM1766.17 47.35H1783.27V127H1766.17V47.35ZM1977.81 81.4C1977.61 76.9 1976.56 73.1 1974.66 70C1972.86 66.8 1970.31 64.35 1967.01 62.65C1963.71 60.85 1959.91 59.95 1955.61 59.95C1950.81 59.95 1946.61 61.05 1943.01 63.25C1939.51 65.45 1936.76 68.55 1934.76 72.55C1932.76 76.45 1931.76 81.05 1931.76 86.35C1931.76 92.05 1932.81 97 1934.91 101.2C1937.11 105.4 1940.11 108.65 1943.91 110.95C1947.81 113.25 1952.26 114.4 1957.26 114.4C1966.16 114.4 1973.66 111.25 1979.76 104.95L1988.91 114.1C1985.01 118.4 1980.26 121.75 1974.66 124.15C1969.06 126.45 1962.81 127.6 1955.91 127.6C1947.71 127.6 1940.56 125.9 1934.46 122.5C1928.36 119.1 1923.61 114.4 1920.21 108.4C1916.81 102.3 1915.11 95.25 1915.11 87.25C1915.11 79.25 1916.81 72.25 1920.21 66.25C1923.61 60.15 1928.36 55.4 1934.46 52C1940.56 48.6 1947.56 46.85 1955.46 46.75C1964.86 46.75 1972.41 48.7 1978.11 52.6C1983.81 56.4 1987.86 61.8 1990.26 68.8C1992.66 75.8 1993.51 84.1 1992.81 93.7H1929.06V81.4H1977.81ZM2071.48 101.8C2071.48 106.1 2072.23 109.05 2073.73 110.65C2075.23 112.15 2077.33 112.9 2080.03 112.9C2081.83 112.9 2083.68 112.6 2085.58 112C2087.58 111.4 2089.73 110.5 2092.03 109.3L2096.38 121.75C2093.28 123.65 2090.08 125.15 2086.78 126.25C2083.48 127.25 2080.13 127.75 2076.73 127.75C2072.73 127.75 2069.03 127 2065.63 125.5C2062.23 123.9 2059.48 121.4 2057.38 118C2055.38 114.6 2054.38 110.2 2054.38 104.8V28.45H2071.48V101.8ZM2043.13 50.2H2095.03V62.5H2043.13V50.2ZM2145.63 46.75C2153.83 46.75 2161.03 48.45 2167.23 51.85C2173.53 55.25 2178.43 60 2181.93 66.1C2185.43 72.1 2187.18 79.1 2187.18 87.1C2187.18 95.1 2185.43 102.15 2181.93 108.25C2178.43 114.35 2173.53 119.1 2167.23 122.5C2161.03 125.9 2153.83 127.6 2145.63 127.6C2137.43 127.6 2130.18 125.9 2123.88 122.5C2117.58 119.1 2112.68 114.35 2109.18 108.25C2105.68 102.15 2103.93 95.1 2103.93 87.1C2103.93 79.1 2105.68 72.1 2109.18 66.1C2112.68 60 2117.58 55.25 2123.88 51.85C2130.18 48.45 2137.43 46.75 2145.63 46.75ZM2145.63 60.7C2140.83 60.7 2136.58 61.85 2132.88 64.15C2129.18 66.35 2126.28 69.45 2124.18 73.45C2122.18 77.45 2121.18 82.05 2121.18 87.25C2121.18 92.55 2122.18 97.2 2124.18 101.2C2126.28 105.2 2129.18 108.35 2132.88 110.65C2136.58 112.85 2140.83 113.95 2145.63 113.95C2150.43 113.95 2154.63 112.85 2158.23 110.65C2161.93 108.35 2164.78 105.2 2166.78 101.2C2168.88 97.2 2169.93 92.55 2169.93 87.25C2169.93 82.05 2168.88 77.45 2166.78 73.45C2164.78 69.45 2161.93 66.35 2158.23 64.15C2154.63 61.85 2150.43 60.7 2145.63 60.7ZM2310.56 46.3C2306.76 43.9 2303.01 42 2299.31 40.6C2295.61 39.2 2292.11 38.2 2288.81 37.6C2285.51 37 2282.51 36.7 2279.81 36.7C2274.61 36.7 2270.46 37.7 2267.36 39.7C2264.26 41.7 2262.71 44.6 2262.71 48.4C2262.71 51.8 2263.71 54.6 2265.71 56.8C2267.81 58.9 2270.51 60.65 2273.81 62.05C2277.21 63.35 2280.91 64.6 2284.91 65.8C2289.01 67 2293.06 68.35 2297.06 69.85C2301.06 71.25 2304.76 73.1 2308.16 75.4C2311.56 77.7 2314.26 80.65 2316.26 84.25C2318.26 87.75 2319.26 92.2 2319.26 97.6C2319.26 103.8 2317.56 109.2 2314.16 113.8C2310.76 118.3 2306.06 121.8 2300.06 124.3C2294.16 126.8 2287.36 128.05 2279.66 128.05C2274.16 128.05 2268.81 127.35 2263.61 125.95C2258.41 124.45 2253.51 122.45 2248.91 119.95C2244.41 117.45 2240.36 114.55 2236.76 111.25L2244.41 96.7C2248.01 100 2251.81 102.8 2255.81 105.1C2259.91 107.4 2264.01 109.15 2268.11 110.35C2272.31 111.55 2276.26 112.15 2279.96 112.15C2286.16 112.15 2290.96 110.95 2294.36 108.55C2297.86 106.15 2299.61 102.8 2299.61 98.5C2299.61 95 2298.56 92.2 2296.46 90.1C2294.46 87.9 2291.76 86.1 2288.36 84.7C2285.06 83.3 2281.36 82.05 2277.26 80.95C2273.26 79.85 2269.21 78.6 2265.11 77.2C2261.11 75.7 2257.41 73.85 2254.01 71.65C2250.71 69.45 2248.01 66.6 2245.91 63.1C2243.91 59.6 2242.91 55.15 2242.91 49.75C2242.91 43.85 2244.51 38.75 2247.71 34.45C2250.91 30.05 2255.36 26.65 2261.06 24.25C2266.86 21.85 2273.56 20.65 2281.16 20.65C2287.96 20.65 2294.56 21.65 2300.96 23.65C2307.36 25.65 2313.01 28.25 2317.91 31.45L2310.56 46.3ZM2339.67 15.7H2356.92V127H2339.67V15.7ZM2392.17 47.35H2411.97L2355.57 105.85V85.3L2392.17 47.35ZM2380.77 75.7L2414.22 127H2393.82L2368.02 86.05L2380.77 75.7ZM2458.6 138.25C2456.1 144.35 2452.65 148.95 2448.25 152.05C2443.85 155.25 2438.65 156.85 2432.65 156.85C2429.05 156.85 2425.75 156.3 2422.75 155.2C2419.85 154.1 2417 152.45 2414.2 150.25L2421.55 137.5C2425.15 140.1 2428.6 141.4 2431.9 141.4C2434.5 141.4 2436.85 140.65 2438.95 139.15C2441.05 137.65 2442.75 135.35 2444.05 132.25L2446.75 125.95L2413.75 47.35H2431.6L2455.45 108.85L2477.65 47.35H2494.9L2458.6 138.25ZM2737.22 22H2756.27L2784.47 115.9H2779.97L2808.17 22H2825.57L2853.92 115.9H2849.42L2877.47 22H2895.77L2860.22 127H2841.92L2814.32 36.25L2818.82 36.4L2790.77 127H2772.62L2737.22 22ZM2909.04 47.35H2926.14V127H2909.04V47.35ZM2917.59 14.5C2920.49 14.5 2922.89 15.45 2924.79 17.35C2926.69 19.25 2927.64 21.65 2927.64 24.55C2927.64 27.35 2926.69 29.75 2924.79 31.75C2922.89 33.65 2920.49 34.6 2917.59 34.6C2914.79 34.6 2912.39 33.65 2910.39 31.75C2908.49 29.75 2907.54 27.35 2907.54 24.55C2907.54 21.65 2908.49 19.25 2910.39 17.35C2912.39 15.45 2914.79 14.5 2917.59 14.5ZM2952.42 15.7H2969.67V127H2952.42V15.7ZM2996.65 15.7H3013.9V127H2996.65V15.7ZM3040.89 15.7H3058.14V127H3040.89V15.7ZM3093.39 47.35H3113.19L3056.79 105.85V85.3L3093.39 47.35ZM3081.99 75.7L3115.44 127H3095.04L3069.24 86.05L3081.99 75.7ZM3159.74 46.75C3167.94 46.75 3175.14 48.45 3181.34 51.85C3187.64 55.25 3192.54 60 3196.04 66.1C3199.54 72.1 3201.29 79.1 3201.29 87.1C3201.29 95.1 3199.54 102.15 3196.04 108.25C3192.54 114.35 3187.64 119.1 3181.34 122.5C3175.14 125.9 3167.94 127.6 3159.74 127.6C3151.54 127.6 3144.29 125.9 3137.99 122.5C3131.69 119.1 3126.79 114.35 3123.29 108.25C3119.79 102.15 3118.04 95.1 3118.04 87.1C3118.04 79.1 3119.79 72.1 3123.29 66.1C3126.79 60 3131.69 55.25 3137.99 51.85C3144.29 48.45 3151.54 46.75 3159.74 46.75ZM3159.74 60.7C3154.94 60.7 3150.69 61.85 3146.99 64.15C3143.29 66.35 3140.39 69.45 3138.29 73.45C3136.29 77.45 3135.29 82.05 3135.29 87.25C3135.29 92.55 3136.29 97.2 3138.29 101.2C3140.39 105.2 3143.29 108.35 3146.99 110.65C3150.69 112.85 3154.94 113.95 3159.74 113.95C3164.54 113.95 3168.74 112.85 3172.34 110.65C3176.04 108.35 3178.89 105.2 3180.89 101.2C3182.99 97.2 3184.04 92.55 3184.04 87.25C3184.04 82.05 3182.99 77.45 3180.89 73.45C3178.89 69.45 3176.04 66.35 3172.34 64.15C3168.74 61.85 3164.54 60.7 3159.74 60.7ZM3277.34 82C3277.34 75.7 3275.69 70.8 3272.39 67.3C3269.09 63.7 3264.49 61.9 3258.59 61.9C3251.69 62.1 3246.24 64.65 3242.24 69.55C3238.34 74.45 3236.39 80.5 3236.39 87.7H3231.59C3231.59 77.9 3232.94 70 3235.64 64C3238.44 58 3242.34 53.65 3247.34 50.95C3252.44 48.15 3258.44 46.75 3265.34 46.75C3271.44 46.75 3276.64 48 3280.94 50.5C3285.34 53 3288.69 56.55 3290.99 61.15C3293.39 65.65 3294.59 71.1 3294.59 77.5V127H3277.34V82ZM3335.39 82C3335.39 75.7 3333.69 70.8 3330.29 67.3C3326.99 63.7 3322.39 61.9 3316.49 61.9C3309.69 62.1 3304.34 64.65 3300.44 69.55C3296.54 74.45 3294.59 80.5 3294.59 87.7H3289.64C3289.64 77.9 3290.99 70 3293.69 64C3296.49 58 3300.39 53.65 3305.39 50.95C3310.49 48.15 3316.49 46.75 3323.39 46.75C3329.49 46.75 3334.69 48 3338.99 50.5C3343.39 53 3346.74 56.55 3349.04 61.15C3351.44 65.65 3352.64 71.1 3352.64 77.5V127H3335.39V82ZM3219.29 47.35H3236.39V127H3219.29V47.35ZM3433.79 82C3433.79 75.7 3432.14 70.8 3428.84 67.3C3425.54 63.7 3420.94 61.9 3415.04 61.9C3408.14 62.1 3402.69 64.65 3398.69 69.55C3394.79 74.45 3392.84 80.5 3392.84 87.7H3388.04C3388.04 77.9 3389.39 70 3392.09 64C3394.89 58 3398.79 53.65 3403.79 50.95C3408.89 48.15 3414.89 46.75 3421.79 46.75C3427.89 46.75 3433.09 48 3437.39 50.5C3441.79 53 3445.14 56.55 3447.44 61.15C3449.84 65.65 3451.04 71.1 3451.04 77.5V127H3433.79V82ZM3491.84 82C3491.84 75.7 3490.14 70.8 3486.74 67.3C3483.44 63.7 3478.84 61.9 3472.94 61.9C3466.14 62.1 3460.79 64.65 3456.89 69.55C3452.99 74.45 3451.04 80.5 3451.04 87.7H3446.09C3446.09 77.9 3447.44 70 3450.14 64C3452.94 58 3456.84 53.65 3461.84 50.95C3466.94 48.15 3472.94 46.75 3479.84 46.75C3485.94 46.75 3491.14 48 3495.44 50.5C3499.84 53 3503.19 56.55 3505.49 61.15C3507.89 65.65 3509.09 71.1 3509.09 77.5V127H3491.84V82ZM3375.74 47.35H3392.84V127H3375.74V47.35ZM3587.38 81.4C3587.18 76.9 3586.13 73.1 3584.23 70C3582.43 66.8 3579.88 64.35 3576.58 62.65C3573.28 60.85 3569.48 59.95 3565.18 59.95C3560.38 59.95 3556.18 61.05 3552.58 63.25C3549.08 65.45 3546.33 68.55 3544.33 72.55C3542.33 76.45 3541.33 81.05 3541.33 86.35C3541.33 92.05 3542.38 97 3544.48 101.2C3546.68 105.4 3549.68 108.65 3553.48 110.95C3557.38 113.25 3561.83 114.4 3566.83 114.4C3575.73 114.4 3583.23 111.25 3589.33 104.95L3598.48 114.1C3594.58 118.4 3589.83 121.75 3584.23 124.15C3578.63 126.45 3572.38 127.6 3565.48 127.6C3557.28 127.6 3550.13 125.9 3544.03 122.5C3537.93 119.1 3533.18 114.4 3529.78 108.4C3526.38 102.3 3524.68 95.25 3524.68 87.25C3524.68 79.25 3526.38 72.25 3529.78 66.25C3533.18 60.15 3537.93 55.4 3544.03 52C3550.13 48.6 3557.13 46.85 3565.03 46.75C3574.43 46.75 3581.98 48.7 3587.68 52.6C3593.38 56.4 3597.43 61.8 3599.83 68.8C3602.23 75.8 3603.08 84.1 3602.38 93.7H3538.63V81.4H3587.38ZM3679.47 82C3679.47 75.8 3677.77 70.95 3674.37 67.45C3670.97 63.85 3666.27 62.05 3660.27 62.05C3653.17 62.15 3647.57 64.65 3643.47 69.55C3639.47 74.45 3637.47 80.55 3637.47 87.85H3632.67C3632.67 77.95 3634.07 70 3636.87 64C3639.67 58 3643.62 53.65 3648.72 50.95C3653.92 48.15 3660.02 46.75 3667.02 46.75C3673.22 46.75 3678.52 48 3682.92 50.5C3687.42 53 3690.82 56.55 3693.12 61.15C3695.52 65.65 3696.72 71.1 3696.72 77.5V127H3679.47V82ZM3620.37 47.35H3637.62V127H3620.37V47.35ZM3806.16 46.75C3813.76 46.75 3820.41 48.45 3826.11 51.85C3831.81 55.25 3836.26 60 3839.46 66.1C3842.66 72.2 3844.26 79.3 3844.26 87.4C3844.26 95.3 3842.66 102.3 3839.46 108.4C3836.36 114.4 3831.96 119.1 3826.26 122.5C3820.66 125.9 3814.06 127.6 3806.46 127.6C3799.16 127.6 3792.91 126 3787.71 122.8C3782.61 119.6 3778.71 115 3776.01 109C3773.31 102.9 3771.96 95.7 3771.96 87.4C3771.96 78.8 3773.31 71.5 3776.01 65.5C3778.71 59.4 3782.61 54.75 3787.71 51.55C3792.91 48.35 3799.06 46.75 3806.16 46.75ZM3802.56 60.4C3797.86 60.4 3793.66 61.55 3789.96 63.85C3786.26 66.15 3783.36 69.3 3781.26 73.3C3779.26 77.2 3778.26 81.75 3778.26 86.95C3778.26 92.15 3779.26 96.8 3781.26 100.9C3783.36 104.9 3786.26 108.05 3789.96 110.35C3793.66 112.55 3797.86 113.65 3802.56 113.65C3807.36 113.65 3811.56 112.5 3815.16 110.2C3818.86 107.9 3821.71 104.75 3823.71 100.75C3825.81 96.75 3826.86 92.15 3826.86 86.95C3826.86 81.85 3825.81 77.3 3823.71 73.3C3821.71 69.3 3818.86 66.15 3815.16 63.85C3811.56 61.55 3807.36 60.4 3802.56 60.4ZM3761.01 15.7H3778.26V127H3761.01V15.7ZM3917.41 81.4C3917.21 76.9 3916.16 73.1 3914.26 70C3912.46 66.8 3909.91 64.35 3906.61 62.65C3903.31 60.85 3899.51 59.95 3895.21 59.95C3890.41 59.95 3886.21 61.05 3882.61 63.25C3879.11 65.45 3876.36 68.55 3874.36 72.55C3872.36 76.45 3871.36 81.05 3871.36 86.35C3871.36 92.05 3872.41 97 3874.51 101.2C3876.71 105.4 3879.71 108.65 3883.51 110.95C3887.41 113.25 3891.86 114.4 3896.86 114.4C3905.76 114.4 3913.26 111.25 3919.36 104.95L3928.51 114.1C3924.61 118.4 3919.86 121.75 3914.26 124.15C3908.66 126.45 3902.41 127.6 3895.51 127.6C3887.31 127.6 3880.16 125.9 3874.06 122.5C3867.96 119.1 3863.21 114.4 3859.81 108.4C3856.41 102.3 3854.71 95.25 3854.71 87.25C3854.71 79.25 3856.41 72.25 3859.81 66.25C3863.21 60.15 3867.96 55.4 3874.06 52C3880.16 48.6 3887.16 46.85 3895.06 46.75C3904.46 46.75 3912.01 48.7 3917.71 52.6C3923.41 56.4 3927.46 61.8 3929.86 68.8C3932.26 75.8 3933.11 84.1 3932.41 93.7H3868.66V81.4H3917.41ZM3950.4 47.35H3967.5V127H3950.4V47.35ZM3958.95 14.5C3961.85 14.5 3964.25 15.45 3966.15 17.35C3968.05 19.25 3969 21.65 3969 24.55C3969 27.35 3968.05 29.75 3966.15 31.75C3964.25 33.65 3961.85 34.6 3958.95 34.6C3956.15 34.6 3953.75 33.65 3951.75 31.75C3949.85 29.75 3948.9 27.35 3948.9 24.55C3948.9 21.65 3949.85 19.25 3951.75 17.35C3953.75 15.45 3956.15 14.5 3958.95 14.5ZM4098.4 46.3C4094.6 43.9 4090.85 42 4087.15 40.6C4083.45 39.2 4079.95 38.2 4076.65 37.6C4073.35 37 4070.35 36.7 4067.65 36.7C4062.45 36.7 4058.3 37.7 4055.2 39.7C4052.1 41.7 4050.55 44.6 4050.55 48.4C4050.55 51.8 4051.55 54.6 4053.55 56.8C4055.65 58.9 4058.35 60.65 4061.65 62.05C4065.05 63.35 4068.75 64.6 4072.75 65.8C4076.85 67 4080.9 68.35 4084.9 69.85C4088.9 71.25 4092.6 73.1 4096 75.4C4099.4 77.7 4102.1 80.65 4104.1 84.25C4106.1 87.75 4107.1 92.2 4107.1 97.6C4107.1 103.8 4105.4 109.2 4102 113.8C4098.6 118.3 4093.9 121.8 4087.9 124.3C4082 126.8 4075.2 128.05 4067.5 128.05C4062 128.05 4056.65 127.35 4051.45 125.95C4046.25 124.45 4041.35 122.45 4036.75 119.95C4032.25 117.45 4028.2 114.55 4024.6 111.25L4032.25 96.7C4035.85 100 4039.65 102.8 4043.65 105.1C4047.75 107.4 4051.85 109.15 4055.95 110.35C4060.15 111.55 4064.1 112.15 4067.8 112.15C4074 112.15 4078.8 110.95 4082.2 108.55C4085.7 106.15 4087.45 102.8 4087.45 98.5C4087.45 95 4086.4 92.2 4084.3 90.1C4082.3 87.9 4079.6 86.1 4076.2 84.7C4072.9 83.3 4069.2 82.05 4065.1 80.95C4061.1 79.85 4057.05 78.6 4052.95 77.2C4048.95 75.7 4045.25 73.85 4041.85 71.65C4038.55 69.45 4035.85 66.6 4033.75 63.1C4031.75 59.6 4030.75 55.15 4030.75 49.75C4030.75 43.85 4032.35 38.75 4035.55 34.45C4038.75 30.05 4043.2 26.65 4048.9 24.25C4054.7 21.85 4061.4 20.65 4069 20.65C4075.8 20.65 4082.4 21.65 4088.8 23.65C4095.2 25.65 4100.85 28.25 4105.75 31.45L4098.4 46.3ZM4127.51 15.7H4144.76V127H4127.51V15.7ZM4180.01 47.35H4199.81L4143.41 105.85V85.3L4180.01 47.35ZM4168.61 75.7L4202.06 127H4181.66L4155.86 86.05L4168.61 75.7ZM4246.44 138.25C4243.94 144.35 4240.49 148.95 4236.09 152.05C4231.69 155.25 4226.49 156.85 4220.49 156.85C4216.89 156.85 4213.59 156.3 4210.59 155.2C4207.69 154.1 4204.84 152.45 4202.04 150.25L4209.39 137.5C4212.99 140.1 4216.44 141.4 4219.74 141.4C4222.34 141.4 4224.69 140.65 4226.79 139.15C4228.89 137.65 4230.59 135.35 4231.89 132.25L4234.59 125.95L4201.59 47.35H4219.44L4243.29 108.85L4265.49 47.35H4282.74L4246.44 138.25ZM4572.54 18.25H4621.89V28.45H4572.54V18.25ZM4618.74 18.25H4620.54L4622.49 17.8L4629.39 20.05C4627.09 37.65 4623.44 53.5 4618.44 67.6C4613.44 81.6 4607.34 93.75 4600.14 104.05C4593.04 114.35 4585.14 122.65 4576.44 128.95C4575.64 127.65 4574.44 126.15 4572.84 124.45C4571.34 122.65 4569.99 121.3 4568.79 120.4C4574.89 116.4 4580.59 111.15 4585.89 104.65C4591.29 98.15 4596.14 90.6 4600.44 82C4604.84 73.4 4608.59 63.95 4611.69 53.65C4614.89 43.35 4617.24 32.4 4618.74 20.8V18.25ZM4572.99 44.5L4580.94 38.35C4585.24 43.85 4589.64 49.75 4594.14 56.05C4598.64 62.25 4602.99 68.5 4607.19 74.8C4611.39 81.1 4615.14 87.15 4618.44 92.95C4621.84 98.75 4624.54 103.95 4626.54 108.55L4617.54 116.05C4615.54 111.25 4612.89 105.9 4609.59 100C4606.29 94.1 4602.64 87.95 4598.64 81.55C4594.64 75.05 4590.39 68.65 4585.89 62.35C4581.49 56.05 4577.19 50.1 4572.99 44.5ZM4647.39 23.65H4698.39V34H4647.39V23.65ZM4647.09 1.14999L4657.89 2.64999C4656.09 14.75 4653.59 26.15 4650.39 36.85C4647.19 47.45 4643.14 56.45 4638.24 63.85C4637.64 63.25 4636.79 62.55 4635.69 61.75C4634.59 60.85 4633.44 60.05 4632.24 59.35C4631.04 58.55 4629.99 57.9 4629.09 57.4C4632.29 52.9 4635.04 47.7 4637.34 41.8C4639.74 35.8 4641.69 29.35 4643.19 22.45C4644.79 15.55 4646.09 8.44999 4647.09 1.14999ZM4695.99 23.65H4697.79L4699.59 23.35L4707.09 25.45C4705.79 31.15 4704.19 37.1 4702.29 43.3C4700.49 49.4 4698.69 54.5 4696.89 58.6L4687.89 55.75C4688.89 53.15 4689.89 50.15 4690.89 46.75C4691.89 43.35 4692.84 39.8 4693.74 36.1C4694.64 32.4 4695.39 28.9 4695.99 25.6V23.65ZM4669.29 58.15C4671.09 69.15 4673.64 79.4 4676.94 88.9C4680.34 98.3 4684.79 106.5 4690.29 113.5C4695.79 120.5 4702.59 125.85 4710.69 129.55C4709.79 130.25 4708.84 131.15 4707.84 132.25C4706.94 133.35 4706.04 134.5 4705.14 135.7C4704.34 137 4703.64 138.1 4703.04 139C4694.54 134.5 4687.44 128.45 4681.74 120.85C4676.04 113.15 4671.44 104.15 4667.94 93.85C4664.54 83.45 4661.84 72 4659.84 59.5L4669.29 58.15ZM4659.84 43H4670.49V53.65C4670.49 59.95 4670.04 66.75 4669.14 74.05C4668.34 81.25 4666.49 88.65 4663.59 96.25C4660.79 103.85 4656.44 111.35 4650.54 118.75C4644.64 126.15 4636.64 133 4626.54 139.3C4626.04 138.5 4625.29 137.6 4624.29 136.6C4623.39 135.6 4622.44 134.65 4621.44 133.75C4620.44 132.85 4619.49 132.1 4618.59 131.5C4628.19 125.6 4635.74 119.3 4641.24 112.6C4646.84 105.8 4650.94 98.95 4653.54 92.05C4656.24 85.05 4657.94 78.3 4658.64 71.8C4659.44 65.2 4659.84 59.1 4659.84 53.5V43ZM4750.89 60.25V113.35H4740.24V70.75H4721.79V60.25H4750.89ZM4750.89 108.85C4754.49 114.45 4759.54 118.6 4766.04 121.3C4772.64 124 4780.34 125.55 4789.14 125.95C4793.44 126.05 4798.64 126.15 4804.74 126.25C4810.84 126.25 4817.24 126.25 4823.94 126.25C4830.74 126.15 4837.24 126 4843.44 125.8C4849.74 125.5 4855.19 125.2 4859.79 124.9C4859.39 125.7 4858.94 126.75 4858.44 128.05C4857.94 129.35 4857.49 130.65 4857.09 131.95C4856.79 133.35 4856.54 134.6 4856.34 135.7C4852.04 135.9 4846.94 136.05 4841.04 136.15C4835.24 136.25 4829.14 136.3 4822.74 136.3C4816.44 136.4 4810.34 136.4 4804.44 136.3C4798.64 136.3 4793.64 136.2 4789.44 136C4779.44 135.6 4770.94 134 4763.94 131.2C4756.94 128.4 4751.09 124 4746.39 118C4743.19 121.2 4739.89 124.45 4736.49 127.75C4733.09 131.05 4729.59 134.4 4725.99 137.8L4720.14 127C4723.34 124.5 4726.84 121.65 4730.64 118.45C4734.44 115.25 4738.04 112.05 4741.44 108.85H4750.89ZM4722.54 10.15L4731.24 4.45C4734.24 6.75 4737.24 9.39999 4740.24 12.4C4743.34 15.4 4746.14 18.4 4748.64 21.4C4751.14 24.3 4753.09 27 4754.49 29.5L4745.04 35.95C4743.64 33.35 4741.74 30.55 4739.34 27.55C4736.94 24.45 4734.29 21.4 4731.39 18.4C4728.49 15.4 4725.54 12.65 4722.54 10.15ZM4807.89 12.1H4848.24V21.85H4818.24V119.8H4807.89V12.1ZM4767.54 12.4L4777.89 15.25V95.05H4767.54V12.4ZM4842.39 12.1H4852.89V89.65C4852.89 92.45 4852.54 94.65 4851.84 96.25C4851.14 97.75 4849.84 98.95 4847.94 99.85C4846.14 100.65 4843.69 101.15 4840.59 101.35C4837.49 101.55 4833.69 101.65 4829.19 101.65C4828.89 100.35 4828.39 98.75 4827.69 96.85C4827.09 94.95 4826.39 93.3 4825.59 91.9C4828.99 92 4831.99 92.05 4834.59 92.05C4837.29 92.05 4839.09 92 4839.99 91.9C4841.59 91.9 4842.39 91.1 4842.39 89.5V12.1ZM4797.99 0.69999L4806.39 8.94999C4801.79 11.75 4796.59 14.45 4790.79 17.05C4784.99 19.55 4779.39 21.75 4773.99 23.65C4773.69 22.45 4773.19 21.1 4772.49 19.6C4771.89 18 4771.19 16.65 4770.39 15.55C4773.69 14.15 4777.04 12.65 4780.44 11.05C4783.84 9.34999 4787.09 7.6 4790.19 5.8C4793.29 4 4795.89 2.29999 4797.99 0.69999ZM4757.64 93.55C4763.24 92.05 4769.94 90.25 4777.74 88.15C4785.64 86.05 4793.69 83.8 4801.89 81.4L4803.09 91.15C4795.69 93.45 4788.24 95.65 4780.74 97.75C4773.34 99.85 4766.64 101.8 4760.64 103.6L4757.64 93.55ZM4873.59 67.6H5006.79V78.4H4873.59V67.6ZM4880.64 19.15H5000.49V29.8H4880.64V19.15ZM4934.04 0.999995H4945.89V138.85H4934.04V0.999995ZM4978.44 32.65L4990.14 36.25C4988.44 39.75 4986.59 43.35 4984.59 47.05C4982.59 50.65 4980.59 54.1 4978.59 57.4C4976.59 60.7 4974.69 63.6 4972.89 66.1L4963.29 62.8C4965.09 60.1 4966.94 57 4968.84 53.5C4970.74 49.9 4972.54 46.3 4974.24 42.7C4975.94 39 4977.34 35.65 4978.44 32.65ZM4892.79 37L4902.84 33.4C4904.84 36.3 4906.79 39.45 4908.69 42.85C4910.59 46.25 4912.29 49.6 4913.79 52.9C4915.29 56.1 4916.39 59 4917.09 61.6L4906.44 65.8C4905.74 63.3 4904.69 60.4 4903.29 57.1C4901.89 53.7 4900.29 50.25 4898.49 46.75C4896.69 43.25 4894.79 40 4892.79 37ZM4931.04 71.65L4940.19 75.55C4936.59 81.35 4932.44 87.05 4927.74 92.65C4923.04 98.15 4917.94 103.4 4912.44 108.4C4906.94 113.4 4901.29 117.95 4895.49 122.05C4889.69 126.15 4883.94 129.6 4878.24 132.4C4877.64 131.4 4876.84 130.35 4875.84 129.25C4874.94 128.15 4873.99 127.05 4872.99 125.95C4871.99 124.85 4871.04 123.9 4870.14 123.1C4875.84 120.7 4881.59 117.65 4887.39 113.95C4893.19 110.15 4898.79 106 4904.19 101.5C4909.69 96.9 4914.74 92.1 4919.34 87.1C4923.94 82 4927.84 76.85 4931.04 71.65ZM4949.04 71.8C4952.34 76.9 4956.29 82 4960.89 87.1C4965.49 92.2 4970.49 97.05 4975.89 101.65C4981.39 106.25 4987.04 110.4 4992.84 114.1C4998.74 117.8 5004.54 120.95 5010.24 123.55C5009.44 124.25 5008.49 125.15 5007.39 126.25C5006.39 127.35 5005.39 128.45 5004.39 129.55C5003.49 130.75 5002.74 131.85 5002.14 132.85C4996.44 130.05 4990.64 126.6 4984.74 122.5C4978.94 118.3 4973.29 113.7 4967.79 108.7C4962.29 103.7 4957.14 98.4 4952.34 92.8C4947.64 87.1 4943.54 81.35 4940.04 75.55L4949.04 71.8ZM5022.69 10.75H5099.64V21.1H5022.69V10.75ZM5027.04 82.3H5095.29V92.5H5027.04V82.3ZM5055.69 64.3H5066.79V123.1L5055.69 124.75V64.3ZM5021.04 123.25C5027.54 122.45 5035.04 121.55 5043.54 120.55C5052.14 119.45 5061.29 118.25 5070.99 116.95C5080.69 115.65 5090.34 114.35 5099.94 113.05L5100.24 123.55C5090.94 124.85 5081.59 126.15 5072.19 127.45C5062.89 128.85 5053.99 130.1 5045.49 131.2C5036.99 132.4 5029.39 133.5 5022.69 134.5L5021.04 123.25ZM5022.24 51.55C5027.94 51.35 5034.54 51.1 5042.04 50.8C5049.54 50.5 5057.54 50.15 5066.04 49.75C5074.54 49.35 5083.04 48.9 5091.54 48.4L5091.39 58.3C5083.19 58.8 5074.99 59.3 5066.79 59.8C5058.59 60.3 5050.79 60.75 5043.39 61.15C5035.99 61.55 5029.24 61.9 5023.14 62.2L5022.24 51.55ZM5070.09 33.4L5078.64 28.75C5081.64 32.15 5084.69 35.9 5087.79 40C5090.89 44.1 5093.74 48.1 5096.34 52C5099.04 55.9 5101.09 59.35 5102.49 62.35L5093.64 67.75C5092.24 64.65 5090.24 61.1 5087.64 57.1C5085.14 53.1 5082.34 49.05 5079.24 44.95C5076.24 40.75 5073.19 36.9 5070.09 33.4ZM5048.49 16.3L5060.79 18.7C5059.09 23.1 5057.24 27.75 5055.24 32.65C5053.24 37.45 5051.24 42.15 5049.24 46.75C5047.24 51.25 5045.29 55.25 5043.39 58.75L5033.64 56.2C5035.44 52.7 5037.24 48.6 5039.04 43.9C5040.94 39.1 5042.74 34.3 5044.44 29.5C5046.14 24.6 5047.49 20.2 5048.49 16.3ZM5106.09 19H5117.04V102.25H5106.09V19ZM5141.64 5.19999H5152.59V123.85C5152.59 127.75 5152.09 130.65 5151.09 132.55C5150.09 134.55 5148.39 136 5145.99 136.9C5143.49 137.8 5139.99 138.35 5135.49 138.55C5131.09 138.85 5125.84 139 5119.74 139C5119.44 137.5 5118.89 135.6 5118.09 133.3C5117.39 131 5116.59 129 5115.69 127.3C5120.79 127.4 5125.44 127.45 5129.64 127.45C5133.84 127.45 5136.69 127.45 5138.19 127.45C5139.59 127.35 5140.49 127.05 5140.89 126.55C5141.39 126.05 5141.64 125.15 5141.64 123.85V5.19999ZM5242.74 46.3C5238.94 43.9 5235.19 42 5231.49 40.6C5227.79 39.2 5224.29 38.2 5220.99 37.6C5217.69 37 5214.69 36.7 5211.99 36.7C5206.79 36.7 5202.64 37.7 5199.54 39.7C5196.44 41.7 5194.89 44.6 5194.89 48.4C5194.89 51.8 5195.89 54.6 5197.89 56.8C5199.99 58.9 5202.69 60.65 5205.99 62.05C5209.39 63.35 5213.09 64.6 5217.09 65.8C5221.19 67 5225.24 68.35 5229.24 69.85C5233.24 71.25 5236.94 73.1 5240.34 75.4C5243.74 77.7 5246.44 80.65 5248.44 84.25C5250.44 87.75 5251.44 92.2 5251.44 97.6C5251.44 103.8 5249.74 109.2 5246.34 113.8C5242.94 118.3 5238.24 121.8 5232.24 124.3C5226.34 126.8 5219.54 128.05 5211.84 128.05C5206.34 128.05 5200.99 127.35 5195.79 125.95C5190.59 124.45 5185.69 122.45 5181.09 119.95C5176.59 117.45 5172.54 114.55 5168.94 111.25L5176.59 96.7C5180.19 100 5183.99 102.8 5187.99 105.1C5192.09 107.4 5196.19 109.15 5200.29 110.35C5204.49 111.55 5208.44 112.15 5212.14 112.15C5218.34 112.15 5223.14 110.95 5226.54 108.55C5230.04 106.15 5231.79 102.8 5231.79 98.5C5231.79 95 5230.74 92.2 5228.64 90.1C5226.64 87.9 5223.94 86.1 5220.54 84.7C5217.24 83.3 5213.54 82.05 5209.44 80.95C5205.44 79.85 5201.39 78.6 5197.29 77.2C5193.29 75.7 5189.59 73.85 5186.19 71.65C5182.89 69.45 5180.19 66.6 5178.09 63.1C5176.09 59.6 5175.09 55.15 5175.09 49.75C5175.09 43.85 5176.69 38.75 5179.89 34.45C5183.09 30.05 5187.54 26.65 5193.24 24.25C5199.04 21.85 5205.74 20.65 5213.34 20.65C5220.14 20.65 5226.74 21.65 5233.14 23.65C5239.54 25.65 5245.19 28.25 5250.09 31.45L5242.74 46.3ZM5271.85 15.7H5289.1V127H5271.85V15.7ZM5324.35 47.35H5344.15L5287.75 105.85V85.3L5324.35 47.35ZM5312.95 75.7L5346.4 127H5326L5300.2 86.05L5312.95 75.7ZM5390.78 138.25C5388.28 144.35 5384.83 148.95 5380.43 152.05C5376.03 155.25 5370.83 156.85 5364.83 156.85C5361.23 156.85 5357.93 156.3 5354.93 155.2C5352.03 154.1 5349.18 152.45 5346.38 150.25L5353.73 137.5C5357.33 140.1 5360.78 141.4 5364.08 141.4C5366.68 141.4 5369.03 140.65 5371.13 139.15C5373.23 137.65 5374.93 135.35 5376.23 132.25L5378.93 125.95L5345.93 47.35H5363.78L5387.63 108.85L5409.83 47.35H5427.08L5390.78 138.25ZM5768.78 22C5776.08 22 5782.33 23.05 5787.53 25.15C5792.83 27.25 5796.88 30.25 5799.68 34.15C5802.58 38.05 5804.03 42.75 5804.03 48.25C5804.03 54.15 5802.38 59.2 5799.08 63.4C5795.78 67.6 5791.28 70.35 5785.58 71.65C5792.58 72.85 5798.08 75.8 5802.08 80.5C5806.08 85.2 5808.08 91.1 5808.08 98.2C5808.08 104.2 5806.53 109.35 5803.43 113.65C5800.33 117.95 5795.93 121.25 5790.23 123.55C5784.53 125.85 5777.73 127 5769.83 127H5723.18V22H5768.78ZM5767.88 65.65C5773.48 65.65 5777.88 64.4 5781.08 61.9C5784.28 59.3 5785.88 55.7 5785.88 51.1C5785.88 46.6 5784.28 43.15 5781.08 40.75C5777.88 38.25 5773.48 37.05 5767.88 37.15H5740.88V65.65H5767.88ZM5767.88 111.85C5774.78 111.95 5780.18 110.65 5784.08 107.95C5787.98 105.15 5789.93 101.2 5789.93 96.1C5789.93 91.3 5787.98 87.55 5784.08 84.85C5780.18 82.05 5774.78 80.7 5767.88 80.8H5740.88V111.85H5767.88ZM5828.03 47.35H5845.13V127H5828.03V47.35ZM5836.58 14.5C5839.48 14.5 5841.88 15.45 5843.78 17.35C5845.68 19.25 5846.63 21.65 5846.63 24.55C5846.63 27.35 5845.68 29.75 5843.78 31.75C5841.88 33.65 5839.48 34.6 5836.58 34.6C5833.78 34.6 5831.38 33.65 5829.38 31.75C5827.48 29.75 5826.53 27.35 5826.53 24.55C5826.53 21.65 5827.48 19.25 5829.38 17.35C5831.38 15.45 5833.78 14.5 5836.58 14.5ZM5925.86 81.4C5925.66 76.9 5924.61 73.1 5922.71 70C5920.91 66.8 5918.36 64.35 5915.06 62.65C5911.76 60.85 5907.96 59.95 5903.66 59.95C5898.86 59.95 5894.66 61.05 5891.06 63.25C5887.56 65.45 5884.81 68.55 5882.81 72.55C5880.81 76.45 5879.81 81.05 5879.81 86.35C5879.81 92.05 5880.86 97 5882.96 101.2C5885.16 105.4 5888.16 108.65 5891.96 110.95C5895.86 113.25 5900.31 114.4 5905.31 114.4C5914.21 114.4 5921.71 111.25 5927.81 104.95L5936.96 114.1C5933.06 118.4 5928.31 121.75 5922.71 124.15C5917.11 126.45 5910.86 127.6 5903.96 127.6C5895.76 127.6 5888.61 125.9 5882.51 122.5C5876.41 119.1 5871.66 114.4 5868.26 108.4C5864.86 102.3 5863.16 95.25 5863.16 87.25C5863.16 79.25 5864.86 72.25 5868.26 66.25C5871.66 60.15 5876.41 55.4 5882.51 52C5888.61 48.6 5895.61 46.85 5903.51 46.75C5912.91 46.75 5920.46 48.7 5926.16 52.6C5931.86 56.4 5935.91 61.8 5938.31 68.8C5940.71 75.8 5941.56 84.1 5940.86 93.7H5877.11V81.4H5925.86ZM6017.94 82C6017.94 75.8 6016.24 70.95 6012.84 67.45C6009.44 63.85 6004.74 62.05 5998.74 62.05C5991.64 62.15 5986.04 64.65 5981.94 69.55C5977.94 74.45 5975.94 80.55 5975.94 87.85H5971.14C5971.14 77.95 5972.54 70 5975.34 64C5978.14 58 5982.09 53.65 5987.19 50.95C5992.39 48.15 5998.49 46.75 6005.49 46.75C6011.69 46.75 6016.99 48 6021.39 50.5C6025.89 53 6029.29 56.55 6031.59 61.15C6033.99 65.65 6035.19 71.1 6035.19 77.5V127H6017.94V82ZM5958.84 47.35H5976.09V127H5958.84V47.35ZM6043.36 47.35H6061.36L6083.56 111.1L6105.46 47.35H6122.71L6092.11 127H6074.26L6043.36 47.35ZM6187.04 81.4C6186.84 76.9 6185.79 73.1 6183.89 70C6182.09 66.8 6179.54 64.35 6176.24 62.65C6172.94 60.85 6169.14 59.95 6164.84 59.95C6160.04 59.95 6155.84 61.05 6152.24 63.25C6148.74 65.45 6145.99 68.55 6143.99 72.55C6141.99 76.45 6140.99 81.05 6140.99 86.35C6140.99 92.05 6142.04 97 6144.14 101.2C6146.34 105.4 6149.34 108.65 6153.14 110.95C6157.04 113.25 6161.49 114.4 6166.49 114.4C6175.39 114.4 6182.89 111.25 6188.99 104.95L6198.14 114.1C6194.24 118.4 6189.49 121.75 6183.89 124.15C6178.29 126.45 6172.04 127.6 6165.14 127.6C6156.94 127.6 6149.79 125.9 6143.69 122.5C6137.59 119.1 6132.84 114.4 6129.44 108.4C6126.04 102.3 6124.34 95.25 6124.34 87.25C6124.34 79.25 6126.04 72.25 6129.44 66.25C6132.84 60.15 6137.59 55.4 6143.69 52C6149.79 48.6 6156.79 46.85 6164.69 46.75C6174.09 46.75 6181.64 48.7 6187.34 52.6C6193.04 56.4 6197.09 61.8 6199.49 68.8C6201.89 75.8 6202.74 84.1 6202.04 93.7H6138.29V81.4H6187.04ZM6279.13 82C6279.13 75.8 6277.43 70.95 6274.03 67.45C6270.63 63.85 6265.93 62.05 6259.93 62.05C6252.83 62.15 6247.23 64.65 6243.13 69.55C6239.13 74.45 6237.13 80.55 6237.13 87.85H6232.33C6232.33 77.95 6233.73 70 6236.53 64C6239.33 58 6243.28 53.65 6248.38 50.95C6253.58 48.15 6259.68 46.75 6266.68 46.75C6272.88 46.75 6278.18 48 6282.58 50.5C6287.08 53 6290.48 56.55 6292.78 61.15C6295.18 65.65 6296.38 71.1 6296.38 77.5V127H6279.13V82ZM6220.03 47.35H6237.28V127H6220.03V47.35ZM6319.49 47.35H6336.59V127H6319.49V47.35ZM6328.04 14.5C6330.94 14.5 6333.34 15.45 6335.24 17.35C6337.14 19.25 6338.09 21.65 6338.09 24.55C6338.09 27.35 6337.14 29.75 6335.24 31.75C6333.34 33.65 6330.94 34.6 6328.04 34.6C6325.24 34.6 6322.84 33.65 6320.84 31.75C6318.94 29.75 6317.99 27.35 6317.99 24.55C6317.99 21.65 6318.94 19.25 6320.84 17.35C6322.84 15.45 6325.24 14.5 6328.04 14.5ZM6392.57 46.6C6399.97 46.6 6406.22 48.25 6411.32 51.55C6416.52 54.75 6420.47 59.4 6423.17 65.5C6425.97 71.5 6427.32 78.7 6427.22 87.1C6427.32 95.5 6426.02 102.75 6423.32 108.85C6420.62 114.95 6416.67 119.65 6411.47 122.95C6406.37 126.15 6400.17 127.75 6392.87 127.75C6385.27 127.75 6378.57 126.05 6372.77 122.65C6367.07 119.15 6362.62 114.35 6359.42 108.25C6356.22 102.05 6354.62 94.95 6354.62 86.95C6354.62 78.95 6356.22 71.95 6359.42 65.95C6362.62 59.85 6367.07 55.1 6372.77 51.7C6378.47 48.3 6385.07 46.6 6392.57 46.6ZM6396.47 60.55C6391.67 60.55 6387.42 61.7 6383.72 64C6380.02 66.3 6377.12 69.5 6375.02 73.6C6373.02 77.6 6371.97 82.2 6371.87 87.4C6371.97 92.6 6373.02 97.2 6375.02 101.2C6377.12 105.2 6380.02 108.35 6383.72 110.65C6387.42 112.95 6391.67 114.1 6396.47 114.1C6401.27 114.1 6405.52 112.95 6409.22 110.65C6412.92 108.35 6415.77 105.2 6417.77 101.2C6419.87 97.2 6420.92 92.6 6420.92 87.4C6420.92 82.1 6419.87 77.45 6417.77 73.45C6415.77 69.45 6412.92 66.3 6409.22 64C6405.52 61.7 6401.27 60.55 6396.47 60.55ZM6420.92 15.7H6438.17V127H6420.92V15.7ZM6498.56 46.75C6506.76 46.75 6513.96 48.45 6520.16 51.85C6526.46 55.25 6531.36 60 6534.86 66.1C6538.36 72.1 6540.11 79.1 6540.11 87.1C6540.11 95.1 6538.36 102.15 6534.86 108.25C6531.36 114.35 6526.46 119.1 6520.16 122.5C6513.96 125.9 6506.76 127.6 6498.56 127.6C6490.36 127.6 6483.11 125.9 6476.81 122.5C6470.51 119.1 6465.61 114.35 6462.11 108.25C6458.61 102.15 6456.86 95.1 6456.86 87.1C6456.86 79.1 6458.61 72.1 6462.11 66.1C6465.61 60 6470.51 55.25 6476.81 51.85C6483.11 48.45 6490.36 46.75 6498.56 46.75ZM6498.56 60.7C6493.76 60.7 6489.51 61.85 6485.81 64.15C6482.11 66.35 6479.21 69.45 6477.11 73.45C6475.11 77.45 6474.11 82.05 6474.11 87.25C6474.11 92.55 6475.11 97.2 6477.11 101.2C6479.21 105.2 6482.11 108.35 6485.81 110.65C6489.51 112.85 6493.76 113.95 6498.56 113.95C6503.36 113.95 6507.56 112.85 6511.16 110.65C6514.86 108.35 6517.71 105.2 6519.71 101.2C6521.81 97.2 6522.86 92.55 6522.86 87.25C6522.86 82.05 6521.81 77.45 6519.71 73.45C6517.71 69.45 6514.86 66.35 6511.16 64.15C6507.56 61.85 6503.36 60.7 6498.56 60.7ZM6624.64 91.45C6619.04 91.45 6614.89 92.3 6612.19 94C6609.49 95.7 6608.14 98.5 6608.14 102.4C6608.14 106.1 6609.49 109.05 6612.19 111.25C6614.99 113.45 6618.79 114.55 6623.59 114.55C6627.89 114.55 6631.74 113.8 6635.14 112.3C6638.54 110.8 6641.24 108.8 6643.24 106.3C6645.24 103.7 6646.29 100.8 6646.39 97.6L6649.69 112.15C6647.19 117.35 6643.39 121.25 6638.29 123.85C6633.19 126.45 6627.09 127.75 6619.99 127.75C6614.29 127.75 6609.34 126.65 6605.14 124.45C6600.94 122.25 6597.69 119.3 6595.39 115.6C6593.09 111.8 6591.94 107.6 6591.94 103C6591.94 95.8 6594.54 90.05 6599.74 85.75C6605.04 81.45 6612.49 79.25 6622.09 79.15H6648.49V91.45H6624.64ZM6646.24 76.45C6646.24 71.25 6644.64 67.2 6641.44 64.3C6638.24 61.4 6633.49 59.95 6627.19 59.95C6623.39 59.95 6619.49 60.65 6615.49 62.05C6611.59 63.45 6607.64 65.5 6603.64 68.2L6596.59 57.1C6600.29 54.8 6603.79 52.9 6607.09 51.4C6610.39 49.9 6613.89 48.75 6617.59 47.95C6621.39 47.15 6625.84 46.75 6630.94 46.75C6641.24 46.75 6649.14 49.25 6654.64 54.25C6660.24 59.15 6663.09 65.95 6663.19 74.65L6663.34 127H6646.39L6646.24 76.45ZM6791.81 46.3C6788.01 43.9 6784.26 42 6780.56 40.6C6776.86 39.2 6773.36 38.2 6770.06 37.6C6766.76 37 6763.76 36.7 6761.06 36.7C6755.86 36.7 6751.71 37.7 6748.61 39.7C6745.51 41.7 6743.96 44.6 6743.96 48.4C6743.96 51.8 6744.96 54.6 6746.96 56.8C6749.06 58.9 6751.76 60.65 6755.06 62.05C6758.46 63.35 6762.16 64.6 6766.16 65.8C6770.26 67 6774.31 68.35 6778.31 69.85C6782.31 71.25 6786.01 73.1 6789.41 75.4C6792.81 77.7 6795.51 80.65 6797.51 84.25C6799.51 87.75 6800.51 92.2 6800.51 97.6C6800.51 103.8 6798.81 109.2 6795.41 113.8C6792.01 118.3 6787.31 121.8 6781.31 124.3C6775.41 126.8 6768.61 128.05 6760.91 128.05C6755.41 128.05 6750.06 127.35 6744.86 125.95C6739.66 124.45 6734.76 122.45 6730.16 119.95C6725.66 117.45 6721.61 114.55 6718.01 111.25L6725.66 96.7C6729.26 100 6733.06 102.8 6737.06 105.1C6741.16 107.4 6745.26 109.15 6749.36 110.35C6753.56 111.55 6757.51 112.15 6761.21 112.15C6767.41 112.15 6772.21 110.95 6775.61 108.55C6779.11 106.15 6780.86 102.8 6780.86 98.5C6780.86 95 6779.81 92.2 6777.71 90.1C6775.71 87.9 6773.01 86.1 6769.61 84.7C6766.31 83.3 6762.61 82.05 6758.51 80.95C6754.51 79.85 6750.46 78.6 6746.36 77.2C6742.36 75.7 6738.66 73.85 6735.26 71.65C6731.96 69.45 6729.26 66.6 6727.16 63.1C6725.16 59.6 6724.16 55.15 6724.16 49.75C6724.16 43.85 6725.76 38.75 6728.96 34.45C6732.16 30.05 6736.61 26.65 6742.31 24.25C6748.11 21.85 6754.81 20.65 6762.41 20.65C6769.21 20.65 6775.81 21.65 6782.21 23.65C6788.61 25.65 6794.26 28.25 6799.16 31.45L6791.81 46.3ZM6820.92 15.7H6838.17V127H6820.92V15.7ZM6873.42 47.35H6893.22L6836.82 105.85V85.3L6873.42 47.35ZM6862.02 75.7L6895.47 127H6875.07L6849.27 86.05L6862.02 75.7ZM6939.85 138.25C6937.35 144.35 6933.9 148.95 6929.5 152.05C6925.1 155.25 6919.9 156.85 6913.9 156.85C6910.3 156.85 6907 156.3 6904 155.2C6901.1 154.1 6898.25 152.45 6895.45 150.25L6902.8 137.5C6906.4 140.1 6909.85 141.4 6913.15 141.4C6915.75 141.4 6918.1 140.65 6920.2 139.15C6922.3 137.65 6924 135.35 6925.3 132.25L6928 125.95L6895 47.35H6912.85L6936.7 108.85L6958.9 47.35H6976.15L6939.85 138.25ZM7277.42 22C7284.72 22 7290.97 23.05 7296.17 25.15C7301.47 27.25 7305.52 30.25 7308.32 34.15C7311.22 38.05 7312.67 42.75 7312.67 48.25C7312.67 54.15 7311.02 59.2 7307.72 63.4C7304.42 67.6 7299.92 70.35 7294.22 71.65C7301.22 72.85 7306.72 75.8 7310.72 80.5C7314.72 85.2 7316.72 91.1 7316.72 98.2C7316.72 104.2 7315.17 109.35 7312.07 113.65C7308.97 117.95 7304.57 121.25 7298.87 123.55C7293.17 125.85 7286.37 127 7278.47 127H7231.82V22H7277.42ZM7276.52 65.65C7282.12 65.65 7286.52 64.4 7289.72 61.9C7292.92 59.3 7294.52 55.7 7294.52 51.1C7294.52 46.6 7292.92 43.15 7289.72 40.75C7286.52 38.25 7282.12 37.05 7276.52 37.15H7249.52V65.65H7276.52ZM7276.52 111.85C7283.42 111.95 7288.82 110.65 7292.72 107.95C7296.62 105.15 7298.57 101.2 7298.57 96.1C7298.57 91.3 7296.62 87.55 7292.72 84.85C7288.82 82.05 7283.42 80.7 7276.52 80.8H7249.52V111.85H7276.52ZM7336.68 47.35H7353.78V127H7336.68V47.35ZM7345.23 14.5C7348.13 14.5 7350.53 15.45 7352.43 17.35C7354.33 19.25 7355.28 21.65 7355.28 24.55C7355.28 27.35 7354.33 29.75 7352.43 31.75C7350.53 33.65 7348.13 34.6 7345.23 34.6C7342.43 34.6 7340.03 33.65 7338.03 31.75C7336.13 29.75 7335.18 27.35 7335.18 24.55C7335.18 21.65 7336.13 19.25 7338.03 17.35C7340.03 15.45 7342.43 14.5 7345.23 14.5ZM7434.5 81.4C7434.3 76.9 7433.25 73.1 7431.35 70C7429.55 66.8 7427 64.35 7423.7 62.65C7420.4 60.85 7416.6 59.95 7412.3 59.95C7407.5 59.95 7403.3 61.05 7399.7 63.25C7396.2 65.45 7393.45 68.55 7391.45 72.55C7389.45 76.45 7388.45 81.05 7388.45 86.35C7388.45 92.05 7389.5 97 7391.6 101.2C7393.8 105.4 7396.8 108.65 7400.6 110.95C7404.5 113.25 7408.95 114.4 7413.95 114.4C7422.85 114.4 7430.35 111.25 7436.45 104.95L7445.6 114.1C7441.7 118.4 7436.95 121.75 7431.35 124.15C7425.75 126.45 7419.5 127.6 7412.6 127.6C7404.4 127.6 7397.25 125.9 7391.15 122.5C7385.05 119.1 7380.3 114.4 7376.9 108.4C7373.5 102.3 7371.8 95.25 7371.8 87.25C7371.8 79.25 7373.5 72.25 7376.9 66.25C7380.3 60.15 7385.05 55.4 7391.15 52C7397.25 48.6 7404.25 46.85 7412.15 46.75C7421.55 46.75 7429.1 48.7 7434.8 52.6C7440.5 56.4 7444.55 61.8 7446.95 68.8C7449.35 75.8 7450.2 84.1 7449.5 93.7H7385.75V81.4H7434.5ZM7526.59 82C7526.59 75.8 7524.89 70.95 7521.49 67.45C7518.09 63.85 7513.39 62.05 7507.39 62.05C7500.29 62.15 7494.69 64.65 7490.59 69.55C7486.59 74.45 7484.59 80.55 7484.59 87.85H7479.79C7479.79 77.95 7481.19 70 7483.99 64C7486.79 58 7490.74 53.65 7495.84 50.95C7501.04 48.15 7507.14 46.75 7514.14 46.75C7520.34 46.75 7525.64 48 7530.04 50.5C7534.54 53 7537.94 56.55 7540.24 61.15C7542.64 65.65 7543.84 71.1 7543.84 77.5V127H7526.59V82ZM7467.49 47.35H7484.74V127H7467.49V47.35ZM7552.01 47.35H7570.01L7592.21 111.1L7614.11 47.35H7631.36L7600.76 127H7582.91L7552.01 47.35ZM7695.68 81.4C7695.48 76.9 7694.43 73.1 7692.53 70C7690.73 66.8 7688.18 64.35 7684.88 62.65C7681.58 60.85 7677.78 59.95 7673.48 59.95C7668.68 59.95 7664.48 61.05 7660.88 63.25C7657.38 65.45 7654.63 68.55 7652.63 72.55C7650.63 76.45 7649.63 81.05 7649.63 86.35C7649.63 92.05 7650.68 97 7652.78 101.2C7654.98 105.4 7657.98 108.65 7661.78 110.95C7665.68 113.25 7670.13 114.4 7675.13 114.4C7684.03 114.4 7691.53 111.25 7697.63 104.95L7706.78 114.1C7702.88 118.4 7698.13 121.75 7692.53 124.15C7686.93 126.45 7680.68 127.6 7673.78 127.6C7665.58 127.6 7658.43 125.9 7652.33 122.5C7646.23 119.1 7641.48 114.4 7638.08 108.4C7634.68 102.3 7632.98 95.25 7632.98 87.25C7632.98 79.25 7634.68 72.25 7638.08 66.25C7641.48 60.15 7646.23 55.4 7652.33 52C7658.43 48.6 7665.43 46.85 7673.33 46.75C7682.73 46.75 7690.28 48.7 7695.98 52.6C7701.68 56.4 7705.73 61.8 7708.13 68.8C7710.53 75.8 7711.38 84.1 7710.68 93.7H7646.93V81.4H7695.68ZM7787.77 82C7787.77 75.8 7786.07 70.95 7782.67 67.45C7779.27 63.85 7774.57 62.05 7768.57 62.05C7761.47 62.15 7755.87 64.65 7751.77 69.55C7747.77 74.45 7745.77 80.55 7745.77 87.85H7740.97C7740.97 77.95 7742.37 70 7745.17 64C7747.97 58 7751.92 53.65 7757.02 50.95C7762.22 48.15 7768.32 46.75 7775.32 46.75C7781.52 46.75 7786.82 48 7791.22 50.5C7795.72 53 7799.12 56.55 7801.42 61.15C7803.82 65.65 7805.02 71.1 7805.02 77.5V127H7787.77V82ZM7728.67 47.35H7745.92V127H7728.67V47.35ZM7828.13 47.35H7845.23V127H7828.13V47.35ZM7836.68 14.5C7839.58 14.5 7841.98 15.45 7843.88 17.35C7845.78 19.25 7846.73 21.65 7846.73 24.55C7846.73 27.35 7845.78 29.75 7843.88 31.75C7841.98 33.65 7839.58 34.6 7836.68 34.6C7833.88 34.6 7831.48 33.65 7829.48 31.75C7827.58 29.75 7826.63 27.35 7826.63 24.55C7826.63 21.65 7827.58 19.25 7829.48 17.35C7831.48 15.45 7833.88 14.5 7836.68 14.5ZM7901.21 46.6C7908.61 46.6 7914.86 48.25 7919.96 51.55C7925.16 54.75 7929.11 59.4 7931.81 65.5C7934.61 71.5 7935.96 78.7 7935.86 87.1C7935.96 95.5 7934.66 102.75 7931.96 108.85C7929.26 114.95 7925.31 119.65 7920.11 122.95C7915.01 126.15 7908.81 127.75 7901.51 127.75C7893.91 127.75 7887.21 126.05 7881.41 122.65C7875.71 119.15 7871.26 114.35 7868.06 108.25C7864.86 102.05 7863.26 94.95 7863.26 86.95C7863.26 78.95 7864.86 71.95 7868.06 65.95C7871.26 59.85 7875.71 55.1 7881.41 51.7C7887.11 48.3 7893.71 46.6 7901.21 46.6ZM7905.11 60.55C7900.31 60.55 7896.06 61.7 7892.36 64C7888.66 66.3 7885.76 69.5 7883.66 73.6C7881.66 77.6 7880.61 82.2 7880.51 87.4C7880.61 92.6 7881.66 97.2 7883.66 101.2C7885.76 105.2 7888.66 108.35 7892.36 110.65C7896.06 112.95 7900.31 114.1 7905.11 114.1C7909.91 114.1 7914.16 112.95 7917.86 110.65C7921.56 108.35 7924.41 105.2 7926.41 101.2C7928.51 97.2 7929.56 92.6 7929.56 87.4C7929.56 82.1 7928.51 77.45 7926.41 73.45C7924.41 69.45 7921.56 66.3 7917.86 64C7914.16 61.7 7909.91 60.55 7905.11 60.55ZM7929.56 15.7H7946.81V127H7929.56V15.7ZM8007.2 46.75C8015.4 46.75 8022.6 48.45 8028.8 51.85C8035.1 55.25 8040 60 8043.5 66.1C8047 72.1 8048.75 79.1 8048.75 87.1C8048.75 95.1 8047 102.15 8043.5 108.25C8040 114.35 8035.1 119.1 8028.8 122.5C8022.6 125.9 8015.4 127.6 8007.2 127.6C7999 127.6 7991.75 125.9 7985.45 122.5C7979.15 119.1 7974.25 114.35 7970.75 108.25C7967.25 102.15 7965.5 95.1 7965.5 87.1C7965.5 79.1 7967.25 72.1 7970.75 66.1C7974.25 60 7979.15 55.25 7985.45 51.85C7991.75 48.45 7999 46.75 8007.2 46.75ZM8007.2 60.7C8002.4 60.7 7998.15 61.85 7994.45 64.15C7990.75 66.35 7987.85 69.45 7985.75 73.45C7983.75 77.45 7982.75 82.05 7982.75 87.25C7982.75 92.55 7983.75 97.2 7985.75 101.2C7987.85 105.2 7990.75 108.35 7994.45 110.65C7998.15 112.85 8002.4 113.95 8007.2 113.95C8012 113.95 8016.2 112.85 8019.8 110.65C8023.5 108.35 8026.35 105.2 8028.35 101.2C8030.45 97.2 8031.5 92.55 8031.5 87.25C8031.5 82.05 8030.45 77.45 8028.35 73.45C8026.35 69.45 8023.5 66.35 8019.8 64.15C8016.2 61.85 8012 60.7 8007.2 60.7ZM8133.28 91.45C8127.68 91.45 8123.53 92.3 8120.83 94C8118.13 95.7 8116.78 98.5 8116.78 102.4C8116.78 106.1 8118.13 109.05 8120.83 111.25C8123.63 113.45 8127.43 114.55 8132.23 114.55C8136.53 114.55 8140.38 113.8 8143.78 112.3C8147.18 110.8 8149.88 108.8 8151.88 106.3C8153.88 103.7 8154.93 100.8 8155.03 97.6L8158.33 112.15C8155.83 117.35 8152.03 121.25 8146.93 123.85C8141.83 126.45 8135.73 127.75 8128.63 127.75C8122.93 127.75 8117.98 126.65 8113.78 124.45C8109.58 122.25 8106.33 119.3 8104.03 115.6C8101.73 111.8 8100.58 107.6 8100.58 103C8100.58 95.8 8103.18 90.05 8108.38 85.75C8113.68 81.45 8121.13 79.25 8130.73 79.15H8157.13V91.45H8133.28ZM8154.88 76.45C8154.88 71.25 8153.28 67.2 8150.08 64.3C8146.88 61.4 8142.13 59.95 8135.83 59.95C8132.03 59.95 8128.13 60.65 8124.13 62.05C8120.23 63.45 8116.28 65.5 8112.28 68.2L8105.23 57.1C8108.93 54.8 8112.43 52.9 8115.73 51.4C8119.03 49.9 8122.53 48.75 8126.23 47.95C8130.03 47.15 8134.48 46.75 8139.58 46.75C8149.88 46.75 8157.78 49.25 8163.28 54.25C8168.88 59.15 8171.73 65.95 8171.83 74.65L8171.98 127H8155.03L8154.88 76.45ZM8300.45 46.3C8296.65 43.9 8292.9 42 8289.2 40.6C8285.5 39.2 8282 38.2 8278.7 37.6C8275.4 37 8272.4 36.7 8269.7 36.7C8264.5 36.7 8260.35 37.7 8257.25 39.7C8254.15 41.7 8252.6 44.6 8252.6 48.4C8252.6 51.8 8253.6 54.6 8255.6 56.8C8257.7 58.9 8260.4 60.65 8263.7 62.05C8267.1 63.35 8270.8 64.6 8274.8 65.8C8278.9 67 8282.95 68.35 8286.95 69.85C8290.95 71.25 8294.65 73.1 8298.05 75.4C8301.45 77.7 8304.15 80.65 8306.15 84.25C8308.15 87.75 8309.15 92.2 8309.15 97.6C8309.15 103.8 8307.45 109.2 8304.05 113.8C8300.65 118.3 8295.95 121.8 8289.95 124.3C8284.05 126.8 8277.25 128.05 8269.55 128.05C8264.05 128.05 8258.7 127.35 8253.5 125.95C8248.3 124.45 8243.4 122.45 8238.8 119.95C8234.3 117.45 8230.25 114.55 8226.65 111.25L8234.3 96.7C8237.9 100 8241.7 102.8 8245.7 105.1C8249.8 107.4 8253.9 109.15 8258 110.35C8262.2 111.55 8266.15 112.15 8269.85 112.15C8276.05 112.15 8280.85 110.95 8284.25 108.55C8287.75 106.15 8289.5 102.8 8289.5 98.5C8289.5 95 8288.45 92.2 8286.35 90.1C8284.35 87.9 8281.65 86.1 8278.25 84.7C8274.95 83.3 8271.25 82.05 8267.15 80.95C8263.15 79.85 8259.1 78.6 8255 77.2C8251 75.7 8247.3 73.85 8243.9 71.65C8240.6 69.45 8237.9 66.6 8235.8 63.1C8233.8 59.6 8232.8 55.15 8232.8 49.75C8232.8 43.85 8234.4 38.75 8237.6 34.45C8240.8 30.05 8245.25 26.65 8250.95 24.25C8256.75 21.85 8263.45 20.65 8271.05 20.65C8277.85 20.65 8284.45 21.65 8290.85 23.65C8297.25 25.65 8302.9 28.25 8307.8 31.45L8300.45 46.3ZM8329.56 15.7H8346.81V127H8329.56V15.7ZM8382.06 47.35H8401.86L8345.46 105.85V85.3L8382.06 47.35ZM8370.66 75.7L8404.11 127H8383.71L8357.91 86.05L8370.66 75.7ZM8448.49 138.25C8445.99 144.35 8442.54 148.95 8438.14 152.05C8433.74 155.25 8428.54 156.85 8422.54 156.85C8418.94 156.85 8415.64 156.3 8412.64 155.2C8409.74 154.1 8406.89 152.45 8404.09 150.25L8411.44 137.5C8415.04 140.1 8418.49 141.4 8421.79 141.4C8424.39 141.4 8426.74 140.65 8428.84 139.15C8430.94 137.65 8432.64 135.35 8433.94 132.25L8436.64 125.95L8403.64 47.35H8421.49L8445.34 108.85L8467.54 47.35H8484.79L8448.49 138.25ZM8804.36 46.3C8800.56 43.9 8796.81 42 8793.11 40.6C8789.41 39.2 8785.91 38.2 8782.61 37.6C8779.31 37 8776.31 36.7 8773.61 36.7C8768.41 36.7 8764.26 37.7 8761.16 39.7C8758.06 41.7 8756.51 44.6 8756.51 48.4C8756.51 51.8 8757.51 54.6 8759.51 56.8C8761.61 58.9 8764.31 60.65 8767.61 62.05C8771.01 63.35 8774.71 64.6 8778.71 65.8C8782.81 67 8786.86 68.35 8790.86 69.85C8794.86 71.25 8798.56 73.1 8801.96 75.4C8805.36 77.7 8808.06 80.65 8810.06 84.25C8812.06 87.75 8813.06 92.2 8813.06 97.6C8813.06 103.8 8811.36 109.2 8807.96 113.8C8804.56 118.3 8799.86 121.8 8793.86 124.3C8787.96 126.8 8781.16 128.05 8773.46 128.05C8767.96 128.05 8762.61 127.35 8757.41 125.95C8752.21 124.45 8747.31 122.45 8742.71 119.95C8738.21 117.45 8734.16 114.55 8730.56 111.25L8738.21 96.7C8741.81 100 8745.61 102.8 8749.61 105.1C8753.71 107.4 8757.81 109.15 8761.91 110.35C8766.11 111.55 8770.06 112.15 8773.76 112.15C8779.96 112.15 8784.76 110.95 8788.16 108.55C8791.66 106.15 8793.41 102.8 8793.41 98.5C8793.41 95 8792.36 92.2 8790.26 90.1C8788.26 87.9 8785.56 86.1 8782.16 84.7C8778.86 83.3 8775.16 82.05 8771.06 80.95C8767.06 79.85 8763.01 78.6 8758.91 77.2C8754.91 75.7 8751.21 73.85 8747.81 71.65C8744.51 69.45 8741.81 66.6 8739.71 63.1C8737.71 59.6 8736.71 55.15 8736.71 49.75C8736.71 43.85 8738.31 38.75 8741.51 34.45C8744.71 30.05 8749.16 26.65 8754.86 24.25C8760.66 21.85 8767.36 20.65 8774.96 20.65C8781.76 20.65 8788.36 21.65 8794.76 23.65C8801.16 25.65 8806.81 28.25 8811.71 31.45L8804.36 46.3ZM8833.47 15.7H8850.72V127H8833.47V15.7ZM8885.97 47.35H8905.77L8849.37 105.85V85.3L8885.97 47.35ZM8874.57 75.7L8908.02 127H8887.62L8861.82 86.05L8874.57 75.7ZM8952.4 138.25C8949.9 144.35 8946.45 148.95 8942.05 152.05C8937.65 155.25 8932.45 156.85 8926.45 156.85C8922.85 156.85 8919.55 156.3 8916.55 155.2C8913.65 154.1 8910.8 152.45 8908 150.25L8915.35 137.5C8918.95 140.1 8922.4 141.4 8925.7 141.4C8928.3 141.4 8930.65 140.65 8932.75 139.15C8934.85 137.65 8936.55 135.35 8937.85 132.25L8940.55 125.95L8907.55 47.35H8925.4L8949.25 108.85L8971.45 47.35H8988.7L8952.4 138.25ZM8996.39 85.9C8998.29 84.4 9000.04 82.9 9001.64 81.4C9003.34 79.8 9005.19 78 9007.19 76C9009.19 73.9 9011.39 71.4 9013.79 68.5C9016.29 65.5 9018.84 62.35 9021.44 59.05C9024.14 55.65 9026.79 52.3 9029.39 49C9031.99 45.7 9034.39 42.75 9036.59 40.15C9040.99 35.05 9045.24 32.25 9049.34 31.75C9053.54 31.25 9058.09 33.5 9062.99 38.5C9066.09 41.6 9069.34 45.2 9072.74 49.3C9076.14 53.3 9079.59 57.35 9083.09 61.45C9086.69 65.55 9090.04 69.35 9093.14 72.85C9095.44 75.35 9098.04 78.15 9100.94 81.25C9103.84 84.35 9106.94 87.6 9110.24 91C9113.54 94.3 9116.89 97.65 9120.29 101.05C9123.79 104.45 9127.24 107.6 9130.64 110.5L9121.04 121.45C9117.34 117.85 9113.39 113.9 9109.19 109.6C9105.09 105.2 9101.04 100.75 9097.04 96.25C9093.04 91.75 9089.29 87.6 9085.79 83.8C9082.59 80.1 9079.24 76.2 9075.74 72.1C9072.34 67.9 9069.04 63.9 9065.84 60.1C9062.74 56.3 9060.04 53.1 9057.74 50.5C9055.54 48.2 9053.69 46.75 9052.19 46.15C9050.69 45.55 9049.24 45.7 9047.84 46.6C9046.54 47.4 9044.99 48.85 9043.19 50.95C9041.49 53.15 9039.49 55.75 9037.19 58.75C9034.89 61.75 9032.49 64.85 9029.99 68.05C9027.49 71.25 9025.04 74.4 9022.64 77.5C9020.34 80.6 9018.24 83.3 9016.34 85.6C9014.84 87.6 9013.24 89.65 9011.54 91.75C9009.94 93.75 9008.59 95.55 9007.49 97.15L8996.39 85.9ZM9219.14 9.25C9219.04 10.25 9218.89 11.65 9218.69 13.45C9218.59 15.25 9218.44 17.1 9218.24 19C9218.14 20.9 9218.09 22.6 9218.09 24.1C9218.09 27.5 9218.09 31.65 9218.09 36.55C9218.09 41.45 9218.09 46.45 9218.09 51.55C9218.09 55.65 9218.19 60.45 9218.39 65.95C9218.69 71.35 9218.94 76.9 9219.14 82.6C9219.44 88.3 9219.69 93.7 9219.89 98.8C9220.19 103.8 9220.34 107.9 9220.34 111.1C9220.34 114.2 9219.84 117.15 9218.84 119.95C9217.84 122.65 9216.24 125.05 9214.04 127.15C9211.94 129.25 9209.14 130.9 9205.64 132.1C9202.14 133.3 9197.89 133.9 9192.89 133.9C9185.99 133.9 9179.84 133.1 9174.44 131.5C9169.04 129.9 9164.74 127.4 9161.54 124C9158.44 120.5 9156.89 115.9 9156.89 110.2C9156.89 105.7 9158.24 101.6 9160.94 97.9C9163.64 94.2 9167.79 91.25 9173.39 89.05C9178.99 86.75 9186.09 85.6 9194.69 85.6C9202.09 85.6 9209.24 86.45 9216.14 88.15C9223.14 89.85 9229.69 92.1 9235.79 94.9C9241.99 97.7 9247.64 100.85 9252.74 104.35C9257.94 107.75 9262.44 111.15 9266.24 114.55L9259.04 125.95C9255.34 122.15 9251.04 118.5 9246.14 115C9241.34 111.4 9236.09 108.2 9230.39 105.4C9224.69 102.5 9218.69 100.25 9212.39 98.65C9206.19 96.95 9199.79 96.1 9193.19 96.1C9185.39 96.1 9179.39 97.35 9175.19 99.85C9170.99 102.35 9168.89 105.65 9168.89 109.75C9168.89 113.85 9170.89 117.05 9174.89 119.35C9178.89 121.55 9184.49 122.65 9191.69 122.65C9197.19 122.65 9201.29 121.4 9203.99 118.9C9206.69 116.3 9208.04 112.4 9208.04 107.2C9208.04 104.4 9207.94 100.7 9207.74 96.1C9207.54 91.4 9207.34 86.35 9207.14 80.95C9206.94 75.55 9206.74 70.3 9206.54 65.2C9206.34 60 9206.24 55.45 9206.24 51.55C9206.24 48.65 9206.24 45.5 9206.24 42.1C9206.24 38.7 9206.24 35.4 9206.24 32.2C9206.24 28.9 9206.19 26.2 9206.09 24.1C9206.09 22.3 9206.04 20.45 9205.94 18.55C9205.84 16.55 9205.69 14.75 9205.49 13.15C9205.39 11.45 9205.19 10.15 9204.89 9.25H9219.14ZM9211.49 39.4C9213.99 39.4 9217.29 39.35 9221.39 39.25C9225.49 39.15 9229.94 39 9234.74 38.8C9239.54 38.6 9244.34 38.35 9249.14 38.05C9253.94 37.65 9258.39 37.2 9262.49 36.7L9262.94 47.95C9258.84 48.35 9254.34 48.7 9249.44 49C9244.64 49.3 9239.84 49.6 9235.04 49.9C9230.24 50.1 9225.74 50.25 9221.54 50.35C9217.44 50.45 9214.09 50.5 9211.49 50.5V39.4ZM9395.99 77.05C9395.99 72.85 9394.89 69.15 9392.69 65.95C9390.59 62.65 9387.59 60.1 9383.69 58.3C9379.89 56.4 9375.44 55.45 9370.34 55.45C9364.54 55.45 9359.09 55.9 9353.99 56.8C9348.89 57.7 9344.24 58.75 9340.04 59.95C9335.94 61.15 9332.39 62.15 9329.39 62.95C9327.09 63.65 9324.84 64.4 9322.64 65.2C9320.54 66 9318.59 66.8 9316.79 67.6L9312.89 53.65C9314.99 53.45 9317.24 53.15 9319.64 52.75C9322.14 52.35 9324.49 51.9 9326.69 51.4C9330.29 50.6 9334.44 49.65 9339.14 48.55C9343.94 47.45 9349.09 46.45 9354.59 45.55C9360.19 44.65 9365.84 44.2 9371.54 44.2C9378.64 44.2 9384.99 45.5 9390.59 48.1C9396.19 50.7 9400.59 54.5 9403.79 59.5C9407.09 64.4 9408.74 70.4 9408.74 77.5C9408.74 85.7 9407.04 93 9403.64 99.4C9400.24 105.7 9395.44 111.2 9389.24 115.9C9383.14 120.5 9375.94 124.35 9367.64 127.45C9359.34 130.55 9350.34 132.8 9340.64 134.2L9333.89 122.8C9342.89 121.7 9351.19 119.95 9358.79 117.55C9366.39 115.05 9372.94 111.95 9378.44 108.25C9384.04 104.55 9388.34 100.1 9391.34 94.9C9394.44 89.7 9395.99 83.75 9395.99 77.05ZM9332.99 9.54999C9337.09 10.45 9341.99 11.3 9347.69 12.1C9353.49 12.9 9359.44 13.65 9365.54 14.35C9371.74 14.95 9377.54 15.45 9382.94 15.85C9388.44 16.25 9393.04 16.45 9396.74 16.45L9394.94 28C9390.74 27.7 9385.84 27.35 9380.24 26.95C9374.74 26.45 9368.99 25.9 9362.99 25.3C9357.09 24.6 9351.34 23.9 9345.74 23.2C9340.24 22.4 9335.34 21.65 9331.04 20.95L9332.99 9.54999ZM9473.24 21.7C9478.64 22.4 9484.69 22.9 9491.39 23.2C9498.19 23.5 9505.34 23.65 9512.84 23.65C9517.64 23.65 9522.44 23.55 9527.24 23.35C9532.14 23.15 9536.79 22.9 9541.19 22.6C9545.69 22.2 9549.74 21.85 9553.34 21.55V33.85C9549.94 34.05 9545.99 34.3 9541.49 34.6C9536.99 34.9 9532.24 35.15 9527.24 35.35C9522.34 35.55 9517.54 35.65 9512.84 35.65C9505.34 35.65 9498.34 35.5 9491.84 35.2C9485.34 34.8 9479.14 34.4 9473.24 34V21.7ZM9479.24 82.15C9478.24 85.15 9477.44 88.05 9476.84 90.85C9476.34 93.65 9476.09 96.45 9476.09 99.25C9476.09 104.95 9479.04 109.6 9484.94 113.2C9490.84 116.8 9499.79 118.6 9511.79 118.6C9518.69 118.6 9525.34 118.35 9531.74 117.85C9538.14 117.35 9543.99 116.65 9549.29 115.75C9554.69 114.85 9559.29 113.8 9563.09 112.6L9563.24 125.5C9559.64 126.5 9555.19 127.4 9549.89 128.2C9544.69 129 9538.89 129.6 9532.49 130C9526.09 130.5 9519.29 130.75 9512.09 130.75C9501.99 130.75 9493.34 129.65 9486.14 127.45C9478.94 125.25 9473.44 122 9469.64 117.7C9465.84 113.4 9463.94 108.1 9463.94 101.8C9463.94 97.9 9464.29 94.2 9464.99 90.7C9465.69 87.2 9466.39 83.95 9467.09 80.95L9479.24 82.15ZM9627.29 14.95C9629.09 15.15 9630.94 15.3 9632.84 15.4C9634.74 15.5 9636.84 15.55 9639.14 15.55C9640.54 15.55 9642.69 15.5 9645.59 15.4C9648.59 15.3 9651.94 15.2 9655.64 15.1C9659.44 14.9 9663.29 14.7 9667.19 14.5C9671.09 14.3 9674.64 14.1 9677.84 13.9C9681.14 13.6 9683.64 13.35 9685.34 13.15C9687.14 12.95 9688.69 12.75 9689.99 12.55C9691.39 12.25 9692.54 12 9693.44 11.8L9701.09 20.35C9700.09 20.95 9698.74 21.8 9697.04 22.9C9695.44 24 9694.09 25 9692.99 25.9C9690.79 27.8 9688.19 30 9685.19 32.5C9682.29 34.9 9679.19 37.5 9675.89 40.3C9672.59 43 9669.24 45.75 9665.84 48.55C9662.54 51.25 9659.39 53.85 9656.39 56.35C9653.39 58.75 9650.64 60.9 9648.14 62.8C9655.74 62 9663.69 61.3 9671.99 60.7C9680.29 60 9688.49 59.45 9696.59 59.05C9704.69 58.65 9712.34 58.45 9719.54 58.45V69.55C9712.24 69.15 9705.19 69 9698.39 69.1C9691.59 69.2 9685.94 69.55 9681.44 70.15C9677.84 70.75 9674.29 71.9 9670.79 73.6C9667.39 75.3 9664.29 77.45 9661.49 80.05C9658.79 82.55 9656.64 85.4 9655.04 88.6C9653.44 91.8 9652.64 95.2 9652.64 98.8C9652.64 103.8 9653.84 107.8 9656.24 110.8C9658.64 113.8 9661.79 116.05 9665.69 117.55C9669.69 119.05 9673.94 120.15 9678.44 120.85C9682.94 121.45 9686.99 121.75 9690.59 121.75C9694.19 121.65 9697.34 121.5 9700.04 121.3L9697.49 133.45C9679.19 134.25 9665.19 131.85 9655.49 126.25C9645.79 120.65 9640.94 112.1 9640.94 100.6C9640.94 96.3 9641.84 92.3 9643.64 88.6C9645.54 84.8 9647.84 81.5 9650.54 78.7C9653.24 75.9 9655.84 73.75 9658.34 72.25C9650.44 72.85 9641.69 73.75 9632.09 74.95C9622.59 76.05 9613.34 77.35 9604.34 78.85L9603.29 67.6C9607.29 67.1 9611.64 66.6 9616.34 66.1C9621.14 65.5 9625.44 65 9629.24 64.6C9633.24 61.8 9637.59 58.55 9642.29 54.85C9647.09 51.05 9651.79 47.2 9656.39 43.3C9661.09 39.3 9665.39 35.65 9669.29 32.35C9673.19 28.95 9676.34 26.2 9678.74 24.1C9677.44 24.2 9675.44 24.35 9672.74 24.55C9670.14 24.65 9667.19 24.8 9663.89 25C9660.59 25.1 9657.29 25.25 9653.99 25.45C9650.79 25.55 9647.89 25.7 9645.29 25.9C9642.69 26 9640.69 26.1 9639.29 26.2C9637.39 26.3 9635.39 26.5 9633.29 26.8C9631.29 27 9629.49 27.15 9627.89 27.25L9627.29 14.95Z" fill="#0A77F3"/>
<rect x="2558" y="73" width="140" height="15" fill="#0A77F3"/>
<rect x="4344" y="73" width="140" height="15" fill="#0A77F3"/>
<rect x="5509" y="73" width="140" height="15" fill="#0A77F3"/>
<rect x="7024" y="73" width="140" height="15" fill="#0A77F3"/>
<rect x="8545" y="73" width="140" height="15" fill="#0A77F3"/>
</svg>
