<svg width="190" height="240" viewBox="0 0 190 240" fill="none" xmlns="http://www.w3.org/2000/svg">
<ellipse cx="96.6094" cy="224.697" rx="79.5" ry="14.5" fill="#CFE6FF" fill-opacity="0.08"/>
<path d="M176.109 223.756C176.109 232.284 140.516 239.197 96.6094 239.197C52.7027 239.197 17.1094 232.284 17.1094 223.756C17.1094 216.704 48 89.202 48 89.202C48 89.202 86.8023 89.1973 94.401 89.1973C102 89.1973 141.5 86.1973 141.5 86.1973C141.5 86.1973 176.109 216.704 176.109 223.756Z" fill="#64A8F5" fill-opacity="0.14"/>
<path d="M92.6311 34.3746C117.232 31.7957 139.756 33.1275 156.249 37.2734C164.508 39.3496 171.09 42.0915 175.653 45.2715C180.225 48.4579 182.45 51.8427 182.802 55.2004C183.154 58.5581 181.679 62.3308 177.868 66.396C174.064 70.453 168.192 74.4996 160.544 78.2433C145.269 85.7193 123.511 91.694 98.9101 94.2729C74.3088 96.8518 51.784 95.5192 35.2913 91.3732C27.0327 89.2971 20.4497 86.556 15.887 83.3761C11.3152 80.1897 9.08969 76.8049 8.73769 73.4472C8.38571 70.0895 9.86093 66.3168 13.6726 62.2516C17.4766 58.1945 23.3479 54.147 30.9966 50.4033C46.2709 42.9272 68.0298 36.9535 92.6311 34.3746Z" fill="#202F41" stroke="#0A77F3" stroke-width="6" stroke-linejoin="round"/>
<path d="M88.1337 12.6491C110.649 10.2892 130.82 26.5555 133.319 49.0223C133.284 49.0936 133.226 49.2019 133.13 49.3494C132.805 49.8481 132.217 50.537 131.301 51.3773C129.481 53.0467 126.671 55.0332 123.02 57.0156C115.73 60.9727 105.418 64.7345 93.7222 65.9605C82.0265 67.1866 71.1575 65.6452 63.2057 63.2857C59.2224 62.1037 56.0619 60.7431 53.935 59.4874C52.8645 58.8554 52.1468 58.3034 51.7254 57.8828C51.6005 57.7582 51.5207 57.6646 51.4721 57.6021C49.2573 35.1054 65.6185 15.0094 88.1337 12.6491Z" fill="#0C3465" stroke="#0A77F3" stroke-width="6" stroke-linejoin="round"/>
<path d="M36.2609 68.3425C36.5151 70.7676 34.7553 72.9396 32.3302 73.1938C29.9051 73.4481 27.7331 71.6882 27.4789 69.2631C27.2246 66.838 28.9845 64.666 31.4096 64.4118C33.8347 64.1575 36.0067 65.9174 36.2609 68.3425Z" fill="#0A77F3"/>
<path d="M125.775 75.2937C126.029 77.7188 124.269 79.8908 121.844 80.145C119.419 80.3992 117.247 78.6394 116.993 76.2143C116.738 73.7892 118.498 71.6172 120.923 71.3629C123.348 71.1087 125.52 72.8686 125.775 75.2937Z" fill="#0A77F3"/>
<path d="M77.4738 80.3562C77.728 82.7813 75.9682 84.9533 73.5431 85.2075C71.118 85.4617 68.946 83.7019 68.6917 81.2768C68.4375 78.8517 70.1974 76.6797 72.6225 76.4254C75.0476 76.1712 77.2196 77.9311 77.4738 80.3562Z" fill="#0A77F3"/>
<path d="M163.601 54.9939C163.855 57.419 162.095 59.591 159.67 59.8452C157.245 60.0994 155.073 58.3396 154.819 55.9145C154.564 53.4894 156.324 51.3174 158.749 51.0631C161.175 50.8089 163.347 52.5688 163.601 54.9939Z" fill="#0A77F3"/>
<mask id="mask0_1721_253" style="mask-type:alpha" maskUnits="userSpaceOnUse" x="143" y="197" width="35" height="36">
<rect x="143" y="197.195" width="35" height="35" fill="#07CB7D"/>
</mask>
<g mask="url(#mask0_1721_253)">
<path d="M166.332 201.57C170.359 201.57 173.624 204.835 173.624 208.862V220.528C173.624 224.555 170.359 227.82 166.332 227.82H154.665C150.638 227.82 147.374 224.555 147.374 220.528V208.862C147.374 204.835 150.638 201.57 154.665 201.57H166.332ZM157.028 209.025V215.952C156.785 215.804 156.532 215.692 156.269 215.618C156.005 215.544 155.719 215.507 155.408 215.507C154.517 215.507 153.754 215.824 153.119 216.459C152.485 217.094 152.167 217.856 152.167 218.747C152.167 219.638 152.484 220.401 153.119 221.036C153.754 221.671 154.517 221.988 155.408 221.988C156.299 221.988 157.062 221.671 157.696 221.036C158.331 220.401 158.648 219.638 158.648 218.747V212.266L165.13 210.99V214.332C164.887 214.183 164.633 214.072 164.37 213.998C164.107 213.924 163.82 213.887 163.51 213.887C162.619 213.887 161.855 214.203 161.221 214.838C160.586 215.473 160.269 216.236 160.269 217.127C160.269 218.018 160.586 218.781 161.221 219.416C161.855 220.051 162.619 220.368 163.51 220.368C164.401 220.368 165.164 220.051 165.799 219.416C166.433 218.781 166.75 218.018 166.75 217.127V207.404L157.028 209.025Z" fill="#FF3F85"/>
</g>
<mask id="mask1_1721_253" style="mask-type:alpha" maskUnits="userSpaceOnUse" x="110" y="197" width="35" height="36">
<rect x="110" y="197.195" width="35" height="35" fill="#0A77F3"/>
</mask>
<g mask="url(#mask1_1721_253)">
<path d="M131.204 200.695C133.537 200.695 135.728 201.813 137.1 203.699L139.355 206.799C140.261 208.045 140.75 209.546 140.75 211.087V220.821C140.75 224.848 137.485 228.113 133.458 228.113H121.792C117.765 228.113 114.5 224.848 114.5 220.821V207.987C114.5 203.96 117.765 200.695 121.792 200.695H131.204ZM121.792 203.612C119.376 203.612 117.417 205.571 117.417 207.987V220.821C117.417 223.237 119.376 225.196 121.792 225.196H133.458C135.874 225.196 137.833 223.237 137.833 220.821V213.236H134.333C131.917 213.236 129.958 211.278 129.958 208.861V203.612H121.792ZM132.874 208.861C132.874 209.667 133.528 210.319 134.333 210.319H137.763C137.647 209.671 137.388 209.052 136.996 208.514L134.741 205.413C134.26 204.752 133.61 204.248 132.874 203.943V208.861Z" fill="#0A77F3"/>
</g>
<mask id="mask2_1721_253" style="mask-type:alpha" maskUnits="userSpaceOnUse" x="79" y="197" width="35" height="36">
<rect x="79" y="197.195" width="35" height="35" fill="#0A77F3"/>
</mask>
<g mask="url(#mask2_1721_253)">
<path d="M100.08 201.569C102.413 201.57 104.604 202.575 105.976 204.272L108.231 207.062C109.137 208.184 109.626 209.535 109.626 210.922V221.257C109.626 224.881 106.361 227.819 102.334 227.819H90.668C86.6409 227.819 83.3761 224.881 83.376 221.257V208.132C83.3761 204.508 86.641 201.569 90.668 201.569H100.08ZM91.7598 217.275C91.3131 217.275 90.9263 217.39 90.5996 217.616C90.4376 217.728 90.2943 217.865 90.1699 218.027V217.336H88.3896V224.676H90.1699V222.038C90.3002 222.205 90.4501 222.348 90.6201 222.466C90.9534 222.686 91.3466 222.796 91.7998 222.796C92.3063 222.796 92.7428 222.683 93.1094 222.456C93.4826 222.229 93.7697 221.909 93.9697 221.496C94.1764 221.083 94.2793 220.605 94.2793 220.065C94.2793 219.499 94.1732 219.009 93.96 218.596C93.7534 218.176 93.4599 217.853 93.0801 217.626C92.7068 217.393 92.2664 217.275 91.7598 217.275ZM98.874 218.041C98.7414 217.868 98.5885 217.723 98.4141 217.605C98.0875 217.379 97.6942 217.266 97.2344 217.266C96.7411 217.266 96.3038 217.382 95.9238 217.615C95.5505 217.842 95.2604 218.159 95.0537 218.565C94.8537 218.972 94.7539 219.453 94.7539 220.006C94.7539 220.566 94.8569 221.056 95.0635 221.476C95.2701 221.896 95.5643 222.222 95.9443 222.455C96.3242 222.688 96.767 222.806 97.2734 222.806C97.7266 222.806 98.1137 222.692 98.4336 222.466C98.6007 222.35 98.747 222.208 98.874 222.041V222.735H100.654V215.315H98.874V218.041ZM104.46 215.236C104.067 215.236 103.713 215.309 103.399 215.456C103.086 215.596 102.836 215.803 102.649 216.076C102.47 216.349 102.38 216.686 102.38 217.086V217.586H101.649V218.746H102.38V222.736H104.149V218.746H105.35V217.586H104.149V217.216C104.149 217.089 104.176 216.983 104.229 216.896C104.283 216.803 104.353 216.736 104.439 216.696C104.533 216.656 104.64 216.636 104.76 216.636C104.853 216.636 104.95 216.649 105.05 216.676C105.156 216.702 105.259 216.736 105.359 216.776L105.59 215.446C105.423 215.38 105.24 215.329 105.04 215.296C104.847 215.256 104.653 215.236 104.46 215.236ZM97.7139 218.686C97.9472 218.686 98.1509 218.742 98.3242 218.855C98.4975 218.969 98.6303 219.129 98.7236 219.336C98.8236 219.543 98.874 219.782 98.874 220.056C98.874 220.329 98.8236 220.569 98.7236 220.775C98.6303 220.975 98.4975 221.136 98.3242 221.256C98.1509 221.369 97.9472 221.426 97.7139 221.426C97.4806 221.426 97.2737 221.369 97.0938 221.256C96.9204 221.136 96.7836 220.975 96.6836 220.775C96.5903 220.569 96.544 220.329 96.5439 220.056C96.5439 219.783 96.5904 219.543 96.6836 219.336C96.7836 219.129 96.9205 218.969 97.0938 218.855C97.2737 218.742 97.4805 218.686 97.7139 218.686ZM91.3193 218.646C91.5527 218.646 91.7564 218.706 91.9297 218.826C92.1096 218.939 92.2465 219.099 92.3398 219.306C92.4398 219.512 92.4892 219.749 92.4893 220.016C92.4893 220.282 92.4398 220.519 92.3398 220.726C92.2465 220.932 92.1097 221.096 91.9297 221.216C91.7564 221.329 91.5527 221.386 91.3193 221.386C91.0995 221.386 90.8996 221.329 90.7197 221.216C90.5464 221.102 90.4096 220.942 90.3096 220.735C90.2163 220.522 90.1699 220.282 90.1699 220.016C90.1699 219.742 90.2163 219.506 90.3096 219.306C90.4095 219.099 90.5465 218.939 90.7197 218.826C90.8996 218.706 91.0995 218.646 91.3193 218.646ZM100.876 209.444C100.876 210.169 101.529 210.757 102.334 210.757H106.702C106.666 209.983 106.38 209.235 105.872 208.606L103.617 205.815C102.953 204.993 101.967 204.442 100.876 204.26V209.444Z" fill="#FF3535"/>
</g>
<mask id="mask3_1721_253" style="mask-type:alpha" maskUnits="userSpaceOnUse" x="15" y="197" width="35" height="36">
<rect x="15" y="197.195" width="35" height="35" fill="#07CB7D"/>
</mask>
<g mask="url(#mask3_1721_253)">
<path d="M38.333 201.569C42.3601 201.569 45.625 204.834 45.625 208.861V220.527C45.625 224.554 42.3601 227.819 38.333 227.819H26.667C22.6399 227.819 19.375 224.554 19.375 220.527V208.861C19.375 204.834 22.6399 201.569 26.667 201.569H38.333ZM36.0107 212.608C35.72 212.202 35.1151 212.202 34.8242 212.608L30.335 218.892L27.9941 215.548C27.7039 215.133 27.0892 215.134 26.7988 215.548L23.0967 220.838C22.7584 221.321 23.1034 221.986 23.6934 221.986H41.293C41.8851 221.985 42.2288 221.314 41.8848 220.832L36.0107 212.608ZM26.4434 206.619C25.3283 206.619 24.4239 207.523 24.4238 208.638C24.4238 209.753 25.3282 210.657 26.4434 210.657C27.5585 210.657 28.4629 209.753 28.4629 208.638C28.4628 207.523 27.5585 206.619 26.4434 206.619Z" fill="#07CB7D"/>
</g>
<path d="M68.0791 201.57C70.4117 201.57 72.6026 202.576 73.9746 204.273L76.2305 207.063C77.1365 208.185 77.625 209.536 77.625 210.923V221.258C77.6249 224.882 74.36 227.82 70.333 227.82H58.667C54.64 227.82 51.3751 224.882 51.375 221.258L51.375 208.133C51.375 205.024 53.7768 202.422 57.001 201.744V202.654H59.001V201.57H68.0791ZM57.2441 215.654C56.8027 215.654 56.413 215.944 56.2861 216.367L55.334 219.541C55.1205 220.253 55.2008 221.021 55.5566 221.674C56.6117 223.608 59.3892 223.608 60.4443 221.674C60.8002 221.021 60.8805 220.253 60.667 219.541L59.7139 216.367C59.587 215.944 59.1975 215.654 58.7559 215.654H57.2441ZM56.2119 220.048C57.3379 219.485 58.6631 219.485 59.7891 220.048L60 220.153C59.9999 221.258 59.1045 222.153 58 222.153C56.8957 222.153 56.0001 221.258 56 220.153L56.2119 220.048ZM57 212.655V214.655H59V212.655H57ZM68.874 209.445C68.8741 210.17 69.5276 210.758 70.333 210.758H74.7012C74.665 209.984 74.3787 209.236 73.8711 208.607L71.6162 205.816C70.9513 204.994 69.9658 204.443 68.874 204.261V209.445ZM57 210.655H59V208.655H57V210.655ZM57 206.656H59V204.656H57V206.656Z" fill="#FFC506"/>
<mask id="mask4_1721_253" style="mask-type:alpha" maskUnits="userSpaceOnUse" x="47" y="197" width="35" height="36">
<rect x="47" y="197.195" width="35" height="35" fill="#0A77F3"/>
</mask>
<g mask="url(#mask4_1721_253)">
</g>
</svg>
