<svg width="182" height="240" viewBox="0 0 182 240" fill="none" xmlns="http://www.w3.org/2000/svg">
<g filter="url(#filter0_d_1719_248)">
<ellipse cx="92.5" cy="215.5" rx="79.5" ry="14.5" fill="#CFE6FF" fill-opacity="0.24" shape-rendering="crispEdges"/>
</g>
<g filter="url(#filter1_d_1719_248)">
<path d="M172 214.559C172 223.087 136.407 230 92.5 230C48.5934 230 13 223.087 13 214.559C13 207.507 66 80.0038 66 80.0038C66 80.0038 82.6929 80 90.2917 80C97.8904 80 110.167 80.0047 110.167 80.0047C110.167 80.0047 172 207.507 172 214.559Z" fill="#64A8F5" fill-opacity="0.14" shape-rendering="crispEdges"/>
<path d="M172 214.559C172 223.087 136.407 230 92.5 230C48.5934 230 13 223.087 13 214.559C13 207.507 66 80.0038 66 80.0038C66 80.0038 82.6929 80 90.2917 80C97.8904 80 110.167 80.0047 110.167 80.0047C110.167 80.0047 172 207.507 172 214.559Z" stroke="#0A77F3" shape-rendering="crispEdges"/>
</g>
<path d="M90.5098 25.0752C115.246 25.0752 137.508 28.748 153.479 34.5908C161.476 37.5167 167.737 40.93 171.943 44.5684C176.158 48.214 178.019 51.8124 178.019 55.1885C178.019 58.5646 176.158 62.163 171.943 65.8086C167.737 69.4469 161.476 72.8593 153.479 75.7852C137.508 81.628 115.246 85.3017 90.5098 85.3018C65.7737 85.3018 43.5106 81.6281 27.54 75.7852C19.5429 72.8593 13.2815 69.4469 9.0752 65.8086C4.8605 62.163 3.00003 58.5645 3 55.1885C3 51.8124 4.86052 48.214 9.0752 44.5684C13.2815 40.93 19.5427 37.5167 27.54 34.5908C43.5106 28.7479 65.7737 25.0752 90.5098 25.0752Z" fill="#0D3461" stroke="#0A77F3" stroke-width="6" stroke-linejoin="round"/>
<path d="M88.3027 3C110.941 3.00023 129.307 21.2809 129.449 43.8857C129.407 43.953 129.339 44.0547 129.228 44.1914C128.852 44.6536 128.196 45.2774 127.197 46.0176C125.213 47.4881 122.211 49.1709 118.373 50.7617C110.711 53.9373 100.062 56.6035 88.3027 56.6035C76.543 56.6035 65.8939 53.9374 58.2314 50.7617C54.3931 49.1709 51.3916 47.4882 49.4072 46.0176C48.4084 45.2774 47.7522 44.6536 47.377 44.1914C47.2657 44.0544 47.1961 43.953 47.1543 43.8857C47.297 21.2808 65.6642 3 88.3027 3Z" fill="#0D3461" stroke="#0A77F3" stroke-width="6" stroke-linejoin="round"/>
<path d="M30.9054 52.9815C30.9054 55.4199 28.9287 57.3966 26.4903 57.3966C24.0519 57.3966 22.0752 55.4199 22.0752 52.9815C22.0752 50.5431 24.0519 48.5664 26.4903 48.5664C28.9287 48.5664 30.9054 50.5431 30.9054 52.9815Z" fill="#0A77F3"/>
<path d="M119.207 69.2266C119.207 71.665 117.23 73.6417 114.792 73.6417C112.354 73.6417 110.377 71.665 110.377 69.2266C110.377 66.7882 112.354 64.8115 114.792 64.8115C117.23 64.8115 119.207 66.7882 119.207 69.2266Z" fill="#0A77F3"/>
<path d="M70.6417 69.2266C70.6417 71.665 68.665 73.6417 66.2266 73.6417C63.7882 73.6417 61.8115 71.665 61.8115 69.2266C61.8115 66.7882 63.7882 64.8115 66.2266 64.8115C68.665 64.8115 70.6417 66.7882 70.6417 69.2266Z" fill="#0A77F3"/>
<path d="M158.943 52.9815C158.943 55.4199 156.967 57.3966 154.528 57.3966C152.09 57.3966 150.113 55.4199 150.113 52.9815C150.113 50.5431 152.09 48.5664 154.528 48.5664C156.967 48.5664 158.943 50.5431 158.943 52.9815Z" fill="#0A77F3"/>
<path d="M13 216C12.9994 195.999 172 196.001 172 216" stroke="#0B71E6" stroke-linejoin="round"/>
<mask id="mask0_1719_248" style="mask-type:alpha" maskUnits="userSpaceOnUse" x="55" y="112" width="52" height="52">
<rect x="80.8652" y="112" width="36.1838" height="36.1838" transform="rotate(45.6302 80.8652 112)" fill="#07CB7D"/>
</mask>
<g mask="url(#mask0_1719_248)">
<path d="M94.5007 132.406C97.4117 135.382 97.3587 140.155 94.3827 143.067L85.7613 151.5C82.7854 154.412 78.0122 154.36 75.1008 151.384L66.6664 142.762C63.755 139.786 63.8082 135.013 66.7843 132.101L75.4057 123.667C78.3818 120.756 83.1549 120.808 86.0662 123.784L94.5007 132.406ZM82.2634 130.919L77.1444 135.927C77.0784 135.64 76.9779 135.372 76.8424 135.124C76.707 134.876 76.5265 134.636 76.302 134.407C75.6578 133.748 74.8719 133.415 73.9444 133.404C73.0165 133.394 72.2232 133.711 71.5645 134.355C70.906 135 70.5716 135.786 70.5614 136.714C70.5513 137.641 70.8678 138.434 71.5117 139.093C72.1559 139.751 72.9424 140.086 73.8701 140.096C74.7978 140.106 75.5913 139.789 76.2499 139.145L81.0402 134.459L86.6693 138.327L84.1995 140.743C84.1336 140.456 84.0322 140.189 83.8969 139.94C83.7614 139.692 83.581 139.453 83.3564 139.223C82.7122 138.565 81.9265 138.23 80.9988 138.219C80.0711 138.209 79.2782 138.527 78.6197 139.171C77.9612 139.815 77.6262 140.601 77.6159 141.529C77.6057 142.456 77.9228 143.25 78.5669 143.908C79.2112 144.567 79.9974 144.901 80.9252 144.912C81.853 144.922 82.6464 144.605 83.305 143.961L90.4897 136.932L82.2634 130.919Z" fill="#FF3F85"/>
</g>
<mask id="mask1_1719_248" style="mask-type:alpha" maskUnits="userSpaceOnUse" x="77" y="77" width="47" height="46">
<rect x="93.6172" y="77.3945" width="33.5825" height="33.5825" transform="rotate(28.2749 93.6172 77.3945)" fill="#0A77F3"/>
</mask>
<g mask="url(#mask1_1719_248)">
<path d="M110.103 89.4398C112.074 90.5002 113.418 92.44 113.72 94.6577L114.218 98.3029C114.417 99.7677 114.148 101.258 113.447 102.56L108.228 112.264C106.397 115.667 102.154 116.941 98.7516 115.111L88.8929 109.808C85.4905 107.977 84.2155 103.735 86.0456 100.333L92.6742 88.009C94.5045 84.6064 98.7469 83.3318 102.15 85.1617L110.103 89.4398ZM100.824 87.6266C98.7822 86.5289 96.2373 87.2934 95.1391 89.3348L88.5105 101.658C87.4126 103.7 88.1775 106.245 90.2187 107.343L100.077 112.646C102.119 113.744 104.665 112.98 105.763 110.938L109.74 103.543L106.044 101.555C104.002 100.457 103.237 97.9117 104.335 95.87L106.986 90.9411L100.824 87.6266ZM106.8 97.1959C106.434 97.8763 106.689 98.7251 107.369 99.0912L111.06 101.076C111.42 100.333 111.556 99.5001 111.444 98.6794L110.948 95.035C110.802 93.9609 110.248 92.9958 109.418 92.3289L106.8 97.1959Z" fill="#0A77F3"/>
</g>
<mask id="mask2_1719_248" style="mask-type:alpha" maskUnits="userSpaceOnUse" x="97" y="179" width="50" height="50">
<rect x="97" y="196.073" width="37.0735" height="37.0735" transform="rotate(-27.4201 97 196.073)" fill="#0A77F3"/>
</mask>
<g mask="url(#mask2_1719_248)">
<path d="M118.954 189.904C121.147 188.766 123.698 188.642 125.816 189.569L129.298 191.093C130.697 191.705 131.815 192.738 132.491 194.042L137.532 203.758C139.3 207.166 137.664 211.521 133.877 213.485L122.908 219.176C119.122 221.14 114.619 219.97 112.851 216.562L106.449 204.222C104.681 200.814 106.318 196.459 110.104 194.495L118.954 189.904ZM118.792 208.731C118.372 208.949 118.063 209.245 117.867 209.617C117.769 209.801 117.701 210 117.664 210.214L117.327 209.564L115.653 210.432L119.233 217.333L120.907 216.465L119.62 213.985C119.824 214.078 120.034 214.14 120.252 214.168C120.672 214.212 121.096 214.123 121.522 213.902C121.999 213.655 122.354 213.335 122.588 212.943C122.829 212.548 122.942 212.108 122.929 211.621C122.921 211.132 122.786 210.633 122.523 210.126C122.246 209.593 121.907 209.184 121.504 208.899C121.105 208.605 120.671 208.445 120.204 208.417C119.739 208.38 119.268 208.484 118.792 208.731ZM125.855 205.98C125.646 205.883 125.432 205.82 125.211 205.795C124.793 205.741 124.368 205.826 123.935 206.051C123.472 206.291 123.118 206.614 122.874 207.018C122.634 207.413 122.515 207.853 122.519 208.336C122.53 208.816 122.67 209.316 122.94 209.837C123.213 210.363 123.549 210.773 123.948 211.067C124.347 211.361 124.782 211.526 125.253 211.56C125.724 211.594 126.199 211.487 126.675 211.24C127.101 211.019 127.409 210.724 127.6 210.355C127.7 210.164 127.768 209.96 127.807 209.742L128.145 210.394L129.819 209.526L126.199 202.549L124.526 203.418L125.855 205.98ZM129.738 200.618C129.368 200.81 129.071 201.051 128.848 201.341C128.622 201.626 128.487 201.943 128.445 202.291C128.409 202.635 128.489 202.996 128.683 203.372L128.928 203.842L128.242 204.198L128.808 205.289L129.493 204.933L131.44 208.685L133.104 207.821L131.158 204.069L132.286 203.484L131.721 202.393L130.592 202.979L130.411 202.63C130.35 202.512 130.323 202.398 130.331 202.291C130.335 202.177 130.369 202.08 130.431 202C130.499 201.917 130.589 201.846 130.702 201.788C130.79 201.742 130.888 201.708 130.995 201.684C131.108 201.657 131.221 201.638 131.335 201.627L130.902 200.265C130.713 200.283 130.516 200.325 130.312 200.391C130.111 200.448 129.919 200.524 129.738 200.618ZM125.079 207.152C125.298 207.038 125.517 206.991 125.735 207.013C125.954 207.035 126.157 207.121 126.346 207.27C126.541 207.415 126.704 207.617 126.838 207.874C126.971 208.131 127.042 208.381 127.048 208.624C127.058 208.858 127.011 209.073 126.906 209.271C126.799 209.462 126.635 209.614 126.415 209.728C126.196 209.842 125.974 209.889 125.75 209.871C125.529 209.842 125.322 209.758 125.13 209.619C124.941 209.47 124.78 209.268 124.647 209.011C124.514 208.754 124.441 208.505 124.428 208.265C124.421 208.022 124.471 207.804 124.579 207.613C124.693 207.419 124.86 207.265 125.079 207.152ZM119.046 210.234C119.265 210.12 119.487 210.078 119.708 210.106C119.932 210.125 120.139 210.208 120.328 210.357C120.522 210.502 120.684 210.701 120.814 210.952C120.944 211.202 121.014 211.45 121.021 211.693C121.034 211.932 120.984 212.153 120.874 212.353C120.766 212.544 120.602 212.697 120.383 212.81C120.176 212.918 119.961 212.962 119.736 212.943C119.518 212.921 119.311 212.837 119.116 212.692C118.925 212.537 118.763 212.334 118.633 212.083C118.5 211.826 118.429 211.581 118.419 211.347C118.412 211.104 118.463 210.887 118.571 210.696C118.681 210.496 118.839 210.341 119.046 210.234ZM123.544 196.919C123.897 197.601 124.798 197.835 125.555 197.442L129.662 195.312C129.25 194.602 128.615 194.038 127.832 193.695L124.351 192.171C123.325 191.722 122.13 191.685 121.015 192.046L123.544 196.919Z" fill="#FF3535"/>
</g>
<mask id="mask3_1719_248" style="mask-type:alpha" maskUnits="userSpaceOnUse" x="31" y="165" width="56" height="56">
<rect x="31" y="181.521" width="42.0455" height="42.0455" transform="rotate(-23.1371 31 181.521)" fill="#07CB7D"/>
</mask>
<g mask="url(#mask3_1719_248)">
<path d="M58.841 175.34C63.2897 173.439 68.4373 175.505 70.3382 179.953L75.845 192.841C77.7459 197.289 75.6805 202.437 71.2318 204.338L58.3444 209.845C53.8958 211.746 48.7481 209.68 46.8472 205.232L41.3404 192.344C39.4395 187.896 41.505 182.748 45.9536 180.847L58.841 175.34ZM61.486 188.631C60.9728 188.319 60.3052 188.604 60.1758 189.191L58.1827 198.25L54.0182 195.662C53.5019 195.341 52.8233 195.631 52.6981 196.226L51.1049 203.818C50.9594 204.512 51.6542 205.083 52.3059 204.804L71.7479 196.497C72.4014 196.216 72.4655 195.313 71.8581 194.943L61.486 188.631ZM48.09 186.53C46.8582 187.057 46.2861 188.482 46.8125 189.714C47.3389 190.946 48.7645 191.518 49.9963 190.992C51.2282 190.465 51.8001 189.04 51.2738 187.808C50.7474 186.576 49.3219 186.004 48.09 186.53Z" fill="#07CB7D"/>
</g>
<path d="M132.669 149.685C134.48 151.156 135.547 153.318 135.542 155.5L135.534 159.088C135.53 160.53 135.057 161.887 134.183 162.963L127.667 170.986C125.382 173.799 120.996 174.021 117.87 171.482L108.814 164.128C105.688 161.589 105.006 157.25 107.291 154.436L115.566 144.248C117.525 141.836 121.03 141.33 123.961 142.836L123.387 143.543L124.939 144.803L125.623 143.962L132.669 149.685ZM115.38 153.787C115.037 153.509 114.552 153.489 114.187 153.737L111.447 155.6C110.832 156.018 110.41 156.665 110.275 157.396C109.874 159.562 112.031 161.313 114.069 160.477C114.757 160.195 115.303 159.649 115.586 158.962L116.847 155.897C117.016 155.489 116.897 155.019 116.554 154.741L115.38 153.787ZM111.809 156.547C113.037 156.819 114.066 157.655 114.585 158.802L114.683 159.018C113.986 159.875 112.727 160.006 111.869 159.31C111.012 158.613 110.882 157.354 111.578 156.496L111.809 156.547ZM117.082 151.305L115.821 152.857L117.374 154.118L118.635 152.566L117.082 151.305ZM128.322 156.3C127.866 156.863 128.002 157.73 128.627 158.238L132.017 160.992C132.477 160.368 132.727 159.607 132.729 158.799L132.738 155.211C132.741 154.154 132.323 153.105 131.591 152.276L128.322 156.3ZM118.343 149.752L119.896 151.013L121.157 149.461L119.604 148.2L118.343 149.752ZM120.864 146.648L122.417 147.909L123.678 146.357L122.125 145.096L120.864 146.648Z" fill="#FFC506"/>
<mask id="mask4_1719_248" style="mask-type:alpha" maskUnits="userSpaceOnUse" x="97" y="133" width="50" height="50">
<rect x="119.065" y="133" width="35" height="35" transform="rotate(39.083 119.065 133)" fill="#0A77F3"/>
</mask>
<g mask="url(#mask4_1719_248)">
</g>
<defs>
<filter id="filter0_d_1719_248" x="9" y="197" width="167" height="37" filterUnits="userSpaceOnUse" color-interpolation-filters="sRGB">
<feFlood flood-opacity="0" result="BackgroundImageFix"/>
<feColorMatrix in="SourceAlpha" type="matrix" values="0 0 0 0 0 0 0 0 0 0 0 0 0 0 0 0 0 0 127 0" result="hardAlpha"/>
<feOffset/>
<feGaussianBlur stdDeviation="2"/>
<feComposite in2="hardAlpha" operator="out"/>
<feColorMatrix type="matrix" values="0 0 0 0 1 0 0 0 0 1 0 0 0 0 1 0 0 0 0.68 0"/>
<feBlend mode="normal" in2="BackgroundImageFix" result="effect1_dropShadow_1719_248"/>
<feBlend mode="normal" in="SourceGraphic" in2="effect1_dropShadow_1719_248" result="shape"/>
</filter>
<filter id="filter1_d_1719_248" x="3.8" y="70.8" width="177.4" height="168.4" filterUnits="userSpaceOnUse" color-interpolation-filters="sRGB">
<feFlood flood-opacity="0" result="BackgroundImageFix"/>
<feColorMatrix in="SourceAlpha" type="matrix" values="0 0 0 0 0 0 0 0 0 0 0 0 0 0 0 0 0 0 127 0" result="hardAlpha"/>
<feOffset/>
<feGaussianBlur stdDeviation="4.35"/>
<feComposite in2="hardAlpha" operator="out"/>
<feColorMatrix type="matrix" values="0 0 0 0 0.041189 0 0 0 0 0.466198 0 0 0 0 0.951923 0 0 0 1 0"/>
<feBlend mode="normal" in2="BackgroundImageFix" result="effect1_dropShadow_1719_248"/>
<feBlend mode="normal" in="SourceGraphic" in2="effect1_dropShadow_1719_248" result="shape"/>
</filter>
</defs>
</svg>
