<svg width="24" height="24" viewBox="0 0 24 24" fill="none" xmlns="http://www.w3.org/2000/svg">
<mask id="mask0_1388_20" style="mask-type:alpha" maskUnits="userSpaceOnUse" x="0" y="0" width="24" height="24">
<rect width="24" height="24" fill="#0A77F3"/>
</mask>
<g mask="url(#mask0_1388_20)">
<path d="M14.3027 2C18.5534 2.00004 22 5.44658 22 9.69727V14.3027C22 18.5534 18.5534 22 14.3027 22H9.69727C5.44658 22 2.00004 18.5534 2 14.3027V9.69727C2.00004 5.44658 5.44658 2.00004 9.69727 2H14.3027ZM10.8691 9.55176C11.1504 9.57488 11.4343 9.61367 11.7207 9.66504C13.4857 9.98748 14.9183 10.7806 15.7314 11.7607C15.8547 11.9084 15.9639 12.0612 16.0576 12.2178C16.4403 12.8548 16.5685 13.5458 16.376 14.2266C15.8249 16.1753 12.8446 17.2924 9.72168 16.7207C9.47118 16.6745 9.22562 16.6189 8.98926 16.5547C8.4139 16.398 7.88506 16.188 7.41113 15.9414C7.37518 15.9209 7.33638 15.9018 7.29785 15.8838C7.24775 15.862 6.87094 15.7323 6.66797 15.7451C5.8358 15.7992 5.15647 16.4221 5.15625 17.2568C5.15625 17.9017 5.61894 18.4774 6.22656 18.71C6.77758 18.9206 7.40036 18.9982 8.03613 19.083C8.76959 19.1819 9.54052 19.225 10.3369 19.207C15.0604 19.1017 18.8478 16.855 18.79 14.1895C18.7707 13.2582 18.2849 12.3971 17.459 11.6777C17.2575 11.5006 17.0339 11.3327 16.7939 11.1748C15.3488 10.2255 13.2404 9.61217 10.8691 9.55176ZM13.6143 4.78711C8.89089 4.89244 5.10413 7.13958 5.15918 9.80762C5.17845 10.7389 5.66337 11.6 6.48926 12.3193C6.69094 12.4966 6.91505 12.6652 7.15527 12.8232C8.60044 13.7724 10.7089 14.3849 13.0801 14.4453C12.7987 14.4222 12.514 14.3834 12.2275 14.332C10.4629 14.0096 9.0309 13.2172 8.21777 12.2373C8.09445 12.0896 7.98538 11.936 7.8916 11.7793C7.50885 11.1422 7.3796 10.4513 7.57227 9.77051C8.12335 7.82182 11.1038 6.7058 14.2266 7.27734C14.477 7.32358 14.7227 7.37818 14.959 7.44238C15.5345 7.5991 16.0641 7.80902 16.5381 8.05566C16.574 8.07618 16.6129 8.09533 16.6514 8.11328C16.7028 8.13554 17.0777 8.26473 17.2803 8.25195C18.114 8.19672 18.7924 7.57487 18.7949 6.7373C18.7948 6.09256 18.3321 5.51763 17.7246 5.28516C17.1736 5.07452 16.5508 4.99688 15.915 4.91211C15.1816 4.8132 14.4107 4.76913 13.6143 4.78711Z" fill="#0A77F3"/>
</g>
</svg>
