<svg width="24" height="24" viewBox="0 0 24 24" fill="none" xmlns="http://www.w3.org/2000/svg">
<path d="M9.88281 7.10352C7.09953 7.62408 5 10.0576 5 12.9717C5.00001 16.2637 7.67926 18.9433 10.9971 18.9434C13.9615 18.9432 16.4142 16.8039 16.9033 14H18.9258C18.4196 17.9167 15.0638 20.9432 10.9971 20.9434L10.585 20.9326C6.49622 20.7257 3.21799 17.4578 3.01074 13.3818L3 12.9717C3 8.94611 5.99387 5.61875 9.88281 5.07812V7.10352Z" fill="#868686"/>
<rect x="12.9971" y="4" width="7" height="2" fill="#868686"/>
<rect x="9.96582" y="12.124" width="11.6433" height="2.00412" transform="rotate(-43.1944 9.96582 12.124)" fill="#868686"/>
<rect x="17.9971" y="4" width="2" height="7" fill="#868686"/>
</svg>
