<svg width="24" height="24" viewBox="0 0 24 24" fill="none" xmlns="http://www.w3.org/2000/svg">
<mask id="mask0_1365_92" style="mask-type:alpha" maskUnits="userSpaceOnUse" x="0" y="0" width="24" height="24">
<rect width="24" height="24" fill="#FC6D26"/>
</mask>
<g mask="url(#mask0_1365_92)">
<path d="M14.4541 3C16.0537 3.00006 17.5562 3.68926 18.4971 4.85352L20.0439 6.7666C20.6652 7.53558 20.9999 8.46231 21 9.41309V16.5C21 18.9853 18.7614 21 16 21H8C5.23858 21 3 18.9853 3 16.5V7.5C3 5.01472 5.23858 3 8 3H14.4541ZM8.61328 13.7705C8.30713 13.7706 8.04228 13.8485 7.81836 14.0039C7.70732 14.0802 7.60872 14.1737 7.52344 14.2852V13.8115H6.30273V18.8447H7.52344V17.0352C7.61289 17.1498 7.71524 17.2481 7.83203 17.3291C8.06051 17.4799 8.32993 17.5556 8.64062 17.5557C8.98802 17.5557 9.28765 17.4777 9.53906 17.3223C9.79506 17.1668 9.99176 16.9475 10.1289 16.6641C10.2706 16.3807 10.3418 16.0538 10.3418 15.6836C10.3418 15.2951 10.2683 14.9592 10.1221 14.6758C9.98036 14.3878 9.77913 14.1662 9.51855 14.0107C9.26256 13.8508 8.9607 13.7705 8.61328 13.7705ZM13.3145 13.7705C13.0083 13.7706 12.7435 13.8485 12.5195 14.0039C12.4085 14.0802 12.3099 14.1737 12.2246 14.2852V13.8115H11.0039V18.8447H12.2246V17.0352C12.3141 17.1498 12.4164 17.2481 12.5332 17.3291C12.7617 17.4799 13.0311 17.5556 13.3418 17.5557C13.6892 17.5557 13.9888 17.4777 14.2402 17.3223C14.4962 17.1668 14.6929 16.9475 14.8301 16.6641C14.9718 16.3807 15.043 16.0538 15.043 15.6836C15.043 15.2951 14.9695 14.9592 14.8232 14.6758C14.6815 14.3878 14.4803 14.1662 14.2197 14.0107C13.9637 13.8508 13.6619 13.7705 13.3145 13.7705ZM15.8418 13.9824H15.3271V14.7783H15.8418V16.3896C15.8418 16.6455 15.8939 16.8628 15.999 17.041C16.1087 17.2147 16.2579 17.347 16.4453 17.4385C16.6327 17.5253 16.8453 17.5693 17.083 17.5693C17.2657 17.5693 17.4436 17.5479 17.6172 17.5068C17.7955 17.4611 17.9514 17.3977 18.084 17.3154L17.8506 16.4717C17.7638 16.5082 17.6812 16.5377 17.6035 16.5605C17.526 16.5833 17.4555 16.5957 17.3916 16.5957C17.2865 16.6003 17.204 16.5699 17.1445 16.5059C17.0852 16.4418 17.0557 16.3389 17.0557 16.1973V14.7783H18.0156V13.9824H17.0557V12.9609H15.8418V13.9824ZM8.31152 14.71C8.47152 14.71 8.61161 14.7507 8.73047 14.833C8.85382 14.9107 8.94773 15.0205 9.01172 15.1621C9.08029 15.3038 9.11426 15.4666 9.11426 15.6494C9.11425 15.832 9.08011 15.9942 9.01172 16.1357C8.94772 16.2775 8.85389 16.3904 8.73047 16.4727C8.61161 16.5504 8.47152 16.5889 8.31152 16.5889C8.16087 16.5888 8.02368 16.5502 7.90039 16.4727C7.78162 16.395 7.6877 16.2851 7.61914 16.1436C7.55515 15.9973 7.52344 15.8323 7.52344 15.6494C7.52344 15.462 7.55514 15.2993 7.61914 15.1621C7.6877 15.0205 7.78161 14.9107 7.90039 14.833C8.02369 14.7508 8.16086 14.71 8.31152 14.71ZM13.0127 14.71C13.1727 14.71 13.3128 14.7507 13.4316 14.833C13.555 14.9107 13.6489 15.0205 13.7129 15.1621C13.7815 15.3038 13.8154 15.4666 13.8154 15.6494C13.8154 15.832 13.7813 15.9942 13.7129 16.1357C13.6489 16.2775 13.5551 16.3904 13.4316 16.4727C13.3128 16.5504 13.1727 16.5889 13.0127 16.5889C12.862 16.5888 12.7249 16.5502 12.6016 16.4727C12.4828 16.395 12.3889 16.2851 12.3203 16.1436C12.2563 15.9973 12.2246 15.8323 12.2246 15.6494C12.2246 15.462 12.2563 15.2993 12.3203 15.1621C12.3889 15.0205 12.4828 14.9107 12.6016 14.833C12.7249 14.7508 12.862 14.71 13.0127 14.71ZM15 8.40039C15.0002 8.89727 15.4479 9.2998 16 9.2998H18.9951C18.9702 8.76929 18.7739 8.25597 18.4258 7.8252L16.8799 5.91211C16.4241 5.34814 15.7485 4.96952 15 4.84473V8.40039Z" fill="#FC6D26"/>
</g>
</svg>
