<svg width="24" height="24" viewBox="0 0 24 24" fill="none" xmlns="http://www.w3.org/2000/svg">
<mask id="mask0_1006_150" style="mask-type:alpha" maskUnits="userSpaceOnUse" x="0" y="0" width="24" height="24">
<rect width="24" height="24" fill="#EFEFEF"/>
</mask>
<g mask="url(#mask0_1006_150)">
<path d="M14.9996 8L11.9996 5L14.9996 2L17.9996 5L14.9996 8ZM19.9996 11L17.9996 9L19.9996 7L21.9996 9L19.9996 11ZM12.0746 22C10.6746 22 9.36211 21.7333 8.13711 21.2C6.91211 20.6667 5.84544 19.9458 4.93711 19.0375C4.02878 18.1292 3.30794 17.0625 2.77461 15.8375C2.24128 14.6125 1.97461 13.3 1.97461 11.9C1.97461 9.46667 2.74961 7.32083 4.29961 5.4625C5.84961 3.60417 7.82461 2.45 10.2246 2C9.92461 3.65 10.0163 5.2625 10.4996 6.8375C10.9829 8.4125 11.8163 9.79167 12.9996 10.975C14.1829 12.1583 15.5621 12.9917 17.1371 13.475C18.7121 13.9583 20.3246 14.05 21.9746 13.75C21.5413 16.15 20.3913 18.125 18.5246 19.675C16.6579 21.225 14.5079 22 12.0746 22ZM12.0746 20C13.5413 20 14.8996 19.6333 16.1496 18.9C17.3996 18.1667 18.3829 17.1583 19.0996 15.875C17.6663 15.7417 16.3079 15.3792 15.0246 14.7875C13.7413 14.1958 12.5913 13.3917 11.5746 12.375C10.5579 11.3583 9.74961 10.2083 9.14961 8.925C8.54961 7.64167 8.19128 6.28333 8.07461 4.85C6.79128 5.56667 5.78711 6.55417 5.06211 7.8125C4.33711 9.07083 3.97461 10.4333 3.97461 11.9C3.97461 14.15 4.76211 16.0625 6.33711 17.6375C7.91211 19.2125 9.82461 20 12.0746 20Z" fill="#EFEFEF"/>
</g>
</svg>
