<svg width="24" height="24" viewBox="0 0 24 24" fill="none" xmlns="http://www.w3.org/2000/svg">
<mask id="mask0_842_22" style="mask-type:alpha" maskUnits="userSpaceOnUse" x="0" y="0" width="24" height="24">
<rect width="24" height="24" fill="#0A77F3"/>
</mask>
<g mask="url(#mask0_842_22)">
<path d="M20 8V20C20 20.55 19.8038 21.0204 19.4121 21.4121C19.0204 21.8038 18.55 22 18 22H6C5.45 22 4.97956 21.8038 4.58789 21.4121C4.19622 21.0204 4 20.55 4 20V4C4 3.45 4.19622 2.97956 4.58789 2.58789C4.97956 2.19622 5.45 2 6 2H14L20 8ZM15.6846 14.6318C15.3274 14.6318 15.0097 14.7172 14.7324 14.8877C14.4605 15.0583 14.2465 15.2957 14.0918 15.5996C13.9425 15.9036 13.8682 16.2613 13.8682 16.6719C13.8682 17.0932 13.9459 17.4617 14.1006 17.7764C14.2605 18.0854 14.4788 18.328 14.7559 18.5039C15.0384 18.6745 15.3586 18.7597 15.7158 18.7598C16.0678 18.7598 16.367 18.6771 16.6123 18.5117C16.7404 18.4244 16.8522 18.3188 16.9482 18.1953V18.6484C16.9482 18.8243 16.9056 18.9766 16.8203 19.1045C16.7403 19.2324 16.6223 19.3311 16.4678 19.4004C16.3132 19.4696 16.1266 19.5039 15.9082 19.5039C15.6735 19.5039 15.4412 19.4663 15.2119 19.3916C14.9827 19.317 14.7695 19.2133 14.5723 19.0801L14.0762 20.04C14.3215 20.2054 14.6098 20.3416 14.9404 20.4482C15.2762 20.5548 15.6333 20.6084 16.0117 20.6084C16.481 20.6084 16.8922 20.5256 17.2441 20.3604C17.5961 20.2004 17.871 19.9705 18.0684 19.6719C18.2656 19.3733 18.3642 19.0214 18.3643 18.6162V14.6797H16.9482V15.2021C16.8488 15.0747 16.7309 14.9672 16.5957 14.8799C16.3452 14.7095 16.0415 14.6266 15.6846 14.6318ZM7.24902 14.6162C6.90773 14.6162 6.60356 14.6697 6.33691 14.7764C6.07565 14.883 5.86506 15.0401 5.70508 15.248C5.55041 15.4507 5.47266 15.7013 5.47266 16C5.47266 16.2507 5.52615 16.4562 5.63281 16.6162C5.73945 16.7761 5.87577 16.9065 6.04102 17.0078C6.21162 17.1038 6.39304 17.1816 6.58496 17.2402C6.77683 17.2989 6.95835 17.3524 7.12891 17.4004C7.29942 17.443 7.43833 17.4956 7.54492 17.5596C7.6515 17.6182 7.70502 17.6986 7.70508 17.7998C7.70508 17.8638 7.68329 17.9173 7.64062 17.96C7.60329 17.9973 7.5498 18.0265 7.48047 18.0479C7.41658 18.0691 7.33947 18.08 7.24902 18.0801C7.00902 18.0801 6.75495 18.035 6.48828 17.9443C6.22174 17.8484 5.96344 17.7145 5.71289 17.5439L5.26465 18.4482C5.53128 18.6509 5.833 18.803 6.16895 18.9043C6.50483 19.0056 6.85426 19.0557 7.2168 19.0557C7.57407 19.0556 7.88917 19.0022 8.16113 18.8955C8.43819 18.7888 8.65403 18.6317 8.80859 18.4238C8.96856 18.2158 9.04883 17.9652 9.04883 17.6719C9.04882 17.4213 8.99533 17.2156 8.88867 17.0557C8.78206 16.8905 8.64068 16.76 8.46484 16.6641C8.29423 16.5628 8.11283 16.4825 7.9209 16.4238C7.7289 16.3652 7.54416 16.3117 7.36816 16.2637C7.19773 16.2104 7.05622 16.1568 6.94434 16.1035C6.83799 16.0449 6.78422 15.9679 6.78418 15.8721C6.78418 15.7761 6.82193 15.7067 6.89648 15.6641C6.97642 15.6161 7.07517 15.5918 7.19238 15.5918C7.37367 15.5918 7.58181 15.6295 7.81641 15.7041C8.05106 15.7788 8.30171 15.8858 8.56836 16.0244L9.04883 15.1123C8.78216 14.947 8.4939 14.8241 8.18457 14.7441C7.87537 14.6588 7.56355 14.6162 7.24902 14.6162ZM10.7832 19H12.2471L13.8711 14.6797H12.4473L11.5352 17.7041L10.6309 14.6797H9.16699L10.7832 19ZM16.0762 15.6885C16.2468 15.6885 16.3964 15.7311 16.5244 15.8164C16.6575 15.9017 16.7613 16.0214 16.8359 16.1758C16.9106 16.3304 16.9482 16.5093 16.9482 16.7119C16.9482 16.9146 16.9106 17.0934 16.8359 17.248C16.7613 17.4027 16.6577 17.5231 16.5244 17.6084C16.3964 17.6937 16.2468 17.7363 16.0762 17.7363C15.9003 17.7363 15.7456 17.6936 15.6123 17.6084C15.4843 17.5231 15.3833 17.4026 15.3086 17.248C15.2339 17.0934 15.1963 16.9146 15.1963 16.7119C15.1963 16.5093 15.2339 16.3304 15.3086 16.1758C15.3832 16.0213 15.4844 15.9017 15.6123 15.8164C15.7456 15.7311 15.9002 15.6885 16.0762 15.6885ZM13 9H18L13 4V9Z" fill="#0A77F3"/>
</g>
</svg>
