<svg width="34" height="34" viewBox="0 0 34 34" fill="none" xmlns="http://www.w3.org/2000/svg">
<mask id="mask0_607_24" style="mask-type:alpha" maskUnits="userSpaceOnUse" x="0" y="0" width="34" height="34">
<rect width="34" height="34" fill="#0A77F3"/>
</mask>
<g mask="url(#mask0_607_24)">
<path d="M9.20817 28.3334C7.05956 28.3334 5.2238 27.5897 3.70088 26.1022C2.17796 24.6147 1.4165 22.7966 1.4165 20.648C1.4165 18.8063 1.97137 17.1654 3.08109 15.7251C4.19081 14.2848 5.64289 13.364 7.43734 12.9626C8.02761 10.7904 9.20817 9.03133 10.979 7.6855C12.7498 6.33966 14.7568 5.66675 16.9998 5.66675C19.7623 5.66675 22.1057 6.6289 24.03 8.55321C25.9544 10.4775 26.9165 12.8209 26.9165 15.5834C28.5457 15.7723 29.8974 16.4747 30.9717 17.6907C32.046 18.9067 32.5832 20.3292 32.5832 21.9584C32.5832 23.7292 31.9634 25.2345 30.7238 26.474C29.4842 27.7136 27.979 28.3334 26.2082 28.3334H9.20817Z" fill="#0A77F3"/>
</g>
</svg>
