<svg width="24" height="24" viewBox="0 0 24 24" fill="none" xmlns="http://www.w3.org/2000/svg">
<mask id="mask0_679_2" style="mask-type:alpha" maskUnits="userSpaceOnUse" x="0" y="0" width="24" height="24">
<rect width="24" height="24" transform="matrix(-1 0 0 1 24 0)" fill="#0A77F3"/>
</mask>
<g mask="url(#mask0_679_2)">
<path d="M12 21C13.25 21 14.4208 20.7625 15.5125 20.2875C16.6042 19.8125 17.5542 19.1708 18.3625 18.3625C19.1708 17.5542 19.8125 16.6042 20.2875 15.5125C20.7625 14.4208 21 13.25 21 12C21 10.75 20.7625 9.57917 20.2875 8.4875C19.8125 7.39583 19.1708 6.44583 18.3625 5.6375C17.5542 4.82917 16.6042 4.1875 15.5125 3.7125C14.4208 3.2375 13.25 3 12 3V5C13.95 5 15.6042 5.67917 16.9625 7.0375C18.3208 8.39583 19 10.05 19 12C19 13.95 18.3208 15.6042 16.9625 16.9625C15.6042 18.3208 13.95 19 12 19V21ZM10 17L8.6 15.575L11.175 13H3V11H11.175L8.6 8.4L10 7L15 12L10 17Z" fill="white"/>
</g>
</svg>
