<svg width="24" height="24" viewBox="0 0 24 24" fill="none" xmlns="http://www.w3.org/2000/svg">
<mask id="mask0_1365_104" style="mask-type:alpha" maskUnits="userSpaceOnUse" x="0" y="0" width="24" height="24">
<rect width="24" height="24" fill="#0F9F53"/>
</mask>
<g mask="url(#mask0_1365_104)">
<path d="M14.4541 3C16.0537 3.00006 17.5562 3.68926 18.4971 4.85352L20.0439 6.7666C20.6652 7.5356 20.9999 8.4623 21 9.41309V16.5C20.9999 18.9852 18.7614 21 16 21H8C5.23863 21 3.00009 18.9852 3 16.5V7.5C3 5.01475 5.23858 3 8 3H14.4541ZM15.2461 13.7559C14.9538 13.7559 14.6933 13.8012 14.4648 13.8926C14.2408 13.984 14.06 14.1196 13.9229 14.2979C13.7904 14.4715 13.7246 14.6865 13.7246 14.9424C13.7246 15.157 13.7701 15.3327 13.8613 15.4697C13.9527 15.6068 14.0694 15.7188 14.2109 15.8057C14.3572 15.8879 14.5132 15.9546 14.6777 16.0049C14.8422 16.0551 14.9974 16.1015 15.1436 16.1426C15.2897 16.1791 15.4086 16.2245 15.5 16.2793C15.5914 16.3296 15.6377 16.3985 15.6377 16.4854C15.6376 16.5401 15.6185 16.5856 15.582 16.6221C15.5501 16.654 15.5046 16.679 15.4453 16.6973C15.3905 16.7156 15.3238 16.7246 15.2461 16.7246C15.0405 16.7246 14.8232 16.6861 14.5947 16.6084C14.3663 16.5261 14.1445 16.4118 13.9297 16.2656L13.5459 17.04C13.7744 17.2137 14.0324 17.3448 14.3203 17.4316C14.6082 17.5185 14.908 17.5615 15.2188 17.5615C15.525 17.5615 15.7952 17.5162 16.0283 17.4248C16.266 17.3334 16.4514 17.1978 16.584 17.0195C16.7209 16.8413 16.7891 16.6262 16.7891 16.375C16.789 16.1604 16.7436 15.9847 16.6523 15.8477C16.561 15.7061 16.4397 15.594 16.2891 15.5117C16.1428 15.4249 15.9868 15.3559 15.8223 15.3057C15.6578 15.2554 15.5004 15.2091 15.3496 15.168C15.2035 15.1223 15.0823 15.0769 14.9863 15.0312C14.8949 14.981 14.8486 14.9143 14.8486 14.832C14.8487 14.7501 14.8807 14.6908 14.9443 14.6543C15.0129 14.6132 15.0978 14.5928 15.1982 14.5928C15.3537 14.5928 15.5323 14.6245 15.7334 14.6885C15.9345 14.7525 16.1494 14.844 16.3779 14.9629L16.7891 14.1807C16.5606 14.0391 16.3138 13.9338 16.0488 13.8652C15.7837 13.7921 15.5158 13.7559 15.2461 13.7559ZM7.12402 13.8105L8.30371 15.6143L7.04199 17.5137H8.38574L9.12012 16.375L9.77832 17.5137H11.1836L9.92871 15.6143L11.1016 13.8105H9.76465L9.12012 14.8594L8.52344 13.8105H7.12402ZM11.7139 17.5137H12.9346V12.4258H11.7139V17.5137ZM15 8.40039C15.0003 8.89723 15.4479 9.2998 16 9.2998H18.9951C18.9703 8.76928 18.7739 8.25598 18.4258 7.8252L16.8799 5.91211C16.4241 5.34814 15.7485 4.96951 15 4.84473V8.40039Z" fill="#0F9F53"/>
</g>
</svg>
