<svg width="24" height="24" viewBox="0 0 24 24" fill="none" xmlns="http://www.w3.org/2000/svg">
<mask id="mask0_1365_128" style="mask-type:alpha" maskUnits="userSpaceOnUse" x="0" y="0" width="24" height="24">
<rect width="24" height="24" fill="#0A77F3"/>
</mask>
<g mask="url(#mask0_1365_128)">
<path d="M14.4541 3C16.0537 3.00006 17.5562 3.68926 18.4971 4.85352L20.0439 6.7666C20.6652 7.5356 20.9999 8.4623 21 9.41309V16.5C20.9999 18.9852 18.7614 21 16 21H8C5.23863 21 3.00009 18.9852 3 16.5V7.5C3 5.01475 5.23858 3 8 3H14.4541ZM8.74707 13.7705C8.44092 13.7706 8.17607 13.8485 7.95215 14.0039C7.84111 14.0802 7.74251 14.1737 7.65723 14.2852V13.8115H6.43652V18.8447H7.65723V17.0352C7.74668 17.1498 7.84903 17.2481 7.96582 17.3291C8.19429 17.4799 8.46372 17.5556 8.77441 17.5557C9.12181 17.5557 9.42144 17.4777 9.67285 17.3223C9.92885 17.1668 10.1256 16.9475 10.2627 16.6641C10.4044 16.3807 10.4756 16.0538 10.4756 15.6836C10.4756 15.2951 10.4021 14.9592 10.2559 14.6758C10.1141 14.3878 9.91291 14.1662 9.65234 14.0107C9.39635 13.8508 9.09449 13.7705 8.74707 13.7705ZM13.627 14.2969C13.5358 14.1779 13.4316 14.077 13.3115 13.9961C13.0875 13.8407 12.8174 13.7627 12.502 13.7627C12.164 13.7628 11.8649 13.8431 11.6045 14.0029C11.3485 14.1583 11.1495 14.3755 11.0078 14.6543C10.8707 14.9331 10.8018 15.2622 10.8018 15.6416C10.8018 16.0255 10.873 16.3615 11.0146 16.6494C11.1564 16.9374 11.3576 17.1623 11.6182 17.3223C11.8785 17.482 12.1823 17.5615 12.5293 17.5615C12.8401 17.5615 13.1058 17.4844 13.3252 17.3291C13.4395 17.2498 13.54 17.1528 13.627 17.0391V17.5137H14.8477V12.4258H13.627V14.2969ZM17.4561 12.3711C17.1865 12.3711 16.9443 12.4219 16.7295 12.5225C16.5147 12.6185 16.3428 12.7599 16.2148 12.9473C16.0915 13.1346 16.0303 13.3655 16.0303 13.6396V13.9824H15.5293V14.7783H16.0303V17.5137H17.2441V14.7783H18.0664V13.9824H17.2441V13.7285C17.2442 13.6419 17.2624 13.5691 17.2988 13.5098C17.3354 13.4458 17.383 13.3995 17.4424 13.3721C17.5064 13.3446 17.5798 13.3311 17.6621 13.3311C17.7261 13.3311 17.7928 13.3401 17.8613 13.3584C17.9342 13.3766 18.0049 13.3994 18.0732 13.4268L18.2314 12.5156C18.1173 12.4699 17.9915 12.435 17.8545 12.4121C17.7219 12.3847 17.5886 12.3711 17.4561 12.3711ZM12.8311 14.7363C12.9911 14.7363 13.1311 14.7758 13.25 14.8535C13.3687 14.9312 13.4605 15.041 13.5244 15.1826C13.5928 15.3242 13.6269 15.4886 13.627 15.6758C13.627 15.8632 13.593 16.0282 13.5244 16.1699C13.4604 16.307 13.3688 16.4167 13.25 16.499C13.1311 16.5767 12.9911 16.6152 12.8311 16.6152C12.6712 16.6152 12.5296 16.5767 12.4062 16.499C12.2874 16.4167 12.1936 16.307 12.125 16.1699C12.061 16.0282 12.0293 15.8632 12.0293 15.6758C12.0293 15.4886 12.0611 15.3242 12.125 15.1826C12.1935 15.041 12.2875 14.9312 12.4062 14.8535C12.5296 14.7759 12.6712 14.7364 12.8311 14.7363ZM8.44531 14.71C8.60531 14.71 8.7454 14.7507 8.86426 14.833C8.98761 14.9107 9.08152 15.0205 9.14551 15.1621C9.21408 15.3038 9.24805 15.4666 9.24805 15.6494C9.24804 15.832 9.2139 15.9942 9.14551 16.1357C9.08151 16.2775 8.98768 16.3904 8.86426 16.4727C8.7454 16.5504 8.60531 16.5889 8.44531 16.5889C8.29466 16.5888 8.15747 16.5502 8.03418 16.4727C7.91541 16.395 7.82149 16.2851 7.75293 16.1436C7.68894 15.9973 7.65723 15.8323 7.65723 15.6494C7.65723 15.462 7.68893 15.2993 7.75293 15.1621C7.82149 15.0205 7.91539 14.9107 8.03418 14.833C8.15748 14.7508 8.29465 14.71 8.44531 14.71ZM15 8.40039C15.0003 8.89723 15.4479 9.2998 16 9.2998H18.9951C18.9703 8.76928 18.7739 8.25598 18.4258 7.8252L16.8799 5.91211C16.4241 5.34814 15.7485 4.96951 15 4.84473V8.40039Z" fill="#E03838"/>
</g>
</svg>
