<svg width="24" height="19" viewBox="0 0 24 19" fill="none" xmlns="http://www.w3.org/2000/svg">
<path d="M3.66972 1.55593C5.22328 0.829058 6.88442 0.300797 8.6211 0C8.83439 0.385611 9.08357 0.904266 9.25537 1.31685C11.1015 1.03922 12.9307 1.03922 14.7428 1.31685C14.9146 0.904266 15.1694 0.385611 15.3846 0C17.1232 0.300797 18.7862 0.830999 20.3398 1.55978C23.4734 6.29499 24.3228 10.9126 23.8981 15.4646C21.8197 17.0166 19.8056 17.9595 17.8254 18.5764C17.3365 17.9035 16.9005 17.1882 16.5248 16.4344C17.2402 16.1626 17.9255 15.8271 18.5729 15.4376C18.4012 15.3104 18.2331 15.1773 18.0708 15.0404C14.1218 16.8875 9.8311 16.8875 5.92926 15.0404C5.76503 15.1773 5.59705 15.3104 5.42716 15.4376C6.07652 15.829 6.76362 16.1645 7.47904 16.4363C7.1034 17.1882 6.66923 17.9055 6.17844 18.5783C4.19637 17.9614 2.18034 17.0186 0.102005 15.4646C-0.396351 10.1876 0.953335 5.61246 3.66972 1.55593ZM15.9868 12.6651C17.1723 12.6651 18.1444 11.5585 18.1444 10.2108C18.1444 8.86309 17.193 7.75449 15.9868 7.75449C14.7806 7.75449 13.8084 8.86115 13.8292 10.2108C13.8273 11.5585 14.7806 12.6651 15.9868 12.6651ZM8.01326 12.6651C9.19871 12.6651 10.1709 11.5585 10.1709 10.2108C10.1709 8.86309 9.21951 7.75449 8.01326 7.75449C6.80704 7.75449 5.83488 8.86115 5.85564 10.2108C5.85564 11.5585 6.80704 12.6651 8.01326 12.6651Z" fill="#3D3D3D"/>
</svg>
