<svg width="24" height="24" viewBox="0 0 24 24" fill="none" xmlns="http://www.w3.org/2000/svg">
<mask id="mask0_1346_1756" style="mask-type:alpha" maskUnits="userSpaceOnUse" x="0" y="0" width="24" height="24">
<rect width="24" height="24" fill="#0A77F3"/>
</mask>
<g mask="url(#mask0_1346_1756)">
<path d="M16 3C16.3424 3.00002 16.677 3.03405 17 3.09961V5H19V4C20.2143 4.91222 21 6.36433 21 8V16C21 17.6355 20.214 19.0868 19 19.999V19H17V20.8994C16.6769 20.965 16.3424 21 16 21H8C7.65766 21 7.323 20.965 7 20.8994V19H5V19.999C3.78601 19.0868 3 17.6355 3 16V8C3 6.36433 3.78574 4.91222 5 4V5H7V3.09961C7.32294 3.03408 7.65773 3.00002 8 3H16ZM5 17H7V15H5V17ZM17 17H19V15H17V17ZM5 13H7V11H5V13ZM17 13H19V11H17V13ZM5 9H7V7H5V9ZM17 9H19V7H17V9Z" fill="#FF2828"/>
</g>
</svg>
