<svg width="24" height="24" viewBox="0 0 24 24" fill="none" xmlns="http://www.w3.org/2000/svg">
<mask id="mask0_2568_78" style="mask-type:alpha" maskUnits="userSpaceOnUse" x="0" y="0" width="24" height="24">
<rect width="24" height="24" fill="#0A77F3"/>
</mask>
<g mask="url(#mask0_2568_78)">
<path d="M15 9.58333V7.41667C15 5.62174 13.6569 4.16667 12 4.16667C10.3431 4.16667 9 5.62174 9 7.41667V9.58333C9 11.3783 10.3431 12.8333 12 12.8333V15C9.23858 15 7 12.5749 7 9.58333V7.41667C7 4.42512 9.23858 2 12 2C14.7614 2 17 4.42512 17 7.41667V9.58333L16.9932 9.86157C16.8595 12.7238 14.6753 15 12 15V12.8333C13.6569 12.8333 15 11.3783 15 9.58333Z" fill="#0A77F3"/>
<path d="M4 11C4 10.4477 4.44772 10 5 10C5.55228 10 6 10.4477 6 11C6 14.3137 8.68629 17 12 17C15.3137 17 18 14.3137 18 11C18 10.4477 18.4477 10 19 10C19.5523 10 20 10.4477 20 11C20 15.4183 16.4183 19 12 19C7.58172 19 4 15.4183 4 11Z" fill="#0A77F3"/>
<path d="M11 21V18C11 17.4477 11.4477 17 12 17C12.5523 17 13 17.4477 13 18V21C13 21.5523 12.5523 22 12 22C11.4477 22 11 21.5523 11 21Z" fill="#0A77F3"/>
</g>
</svg>
