<svg width="24" height="24" viewBox="0 0 24 24" fill="none" xmlns="http://www.w3.org/2000/svg">
<mask id="mask0_1354_592" style="mask-type:alpha" maskUnits="userSpaceOnUse" x="0" y="0" width="24" height="24">
<rect width="24" height="24" fill="#0A77F3"/>
</mask>
<g mask="url(#mask0_1354_592)">
<path d="M17.4545 17.4995C17.4545 17.847 17.37 18.1487 17.2008 18.4047C17.0317 18.6607 16.7963 18.8573 16.4945 18.9944C16.1928 19.1361 15.8408 19.207 15.4385 19.207C15.114 19.207 14.8077 19.1613 14.5197 19.0698C14.2363 18.9784 13.9894 18.8618 13.7791 18.7201L14.2043 17.8973C14.3734 18.0115 14.5563 18.1007 14.7528 18.1647C14.9494 18.2287 15.1483 18.2607 15.3494 18.2607C15.5368 18.2607 15.6968 18.231 15.8294 18.1715C15.962 18.1121 16.0625 18.0275 16.1311 17.9178C16.2043 17.8081 16.2408 17.6778 16.2408 17.527V14.1258H17.4545V17.4995ZM15.1574 14.0847C15.4637 14.0801 15.7243 14.151 15.9391 14.2973C16.1585 14.439 16.3231 14.6424 16.4328 14.9075C16.5471 15.1681 16.6043 15.479 16.6043 15.8401C16.6043 16.2058 16.5494 16.5235 16.4397 16.7933C16.33 17.0584 16.1677 17.2641 15.9528 17.4104C15.7425 17.5521 15.4865 17.623 15.1848 17.623C14.8785 17.623 14.6043 17.5498 14.362 17.4035C14.1243 17.2527 13.9368 17.0447 13.7997 16.7795C13.6671 16.5098 13.6008 16.1944 13.6008 15.8333C13.6008 15.4813 13.6648 15.175 13.7928 14.9144C13.9254 14.6538 14.1083 14.4504 14.3414 14.3041C14.5791 14.1578 14.8511 14.0847 15.1574 14.0847ZM15.4934 14.9898C15.3425 14.9898 15.21 15.0264 15.0957 15.0995C14.986 15.1727 14.8991 15.2755 14.8351 15.4081C14.7711 15.5407 14.7391 15.6938 14.7391 15.8675C14.7391 16.0413 14.7711 16.1944 14.8351 16.327C14.8991 16.4595 14.986 16.5624 15.0957 16.6355C15.21 16.7087 15.3425 16.7453 15.4934 16.7453C15.6397 16.7453 15.7677 16.7087 15.8774 16.6355C15.9917 16.5624 16.0808 16.4595 16.1448 16.327C16.2088 16.1944 16.2408 16.0413 16.2408 15.8675C16.2408 15.6938 16.2088 15.5407 16.1448 15.4081C16.0808 15.2755 15.9917 15.1727 15.8774 15.0995C15.7677 15.0264 15.6397 14.9898 15.4934 14.9898Z" fill="#0A77F3"/>
<path d="M9.57178 14.1257H10.8266L11.6015 16.7177L12.3832 14.1257H13.6038L12.2118 17.8286H10.9569L9.57178 14.1257Z" fill="#0A77F3"/>
<path d="M9.05881 15.2777C8.83024 15.1588 8.61538 15.0674 8.41424 15.0034C8.21309 14.9394 8.03481 14.9074 7.87938 14.9074C7.77881 14.9074 7.69424 14.9279 7.62566 14.9691C7.56166 15.0057 7.52966 15.0651 7.52966 15.1474C7.52966 15.2297 7.57538 15.2959 7.66681 15.3462C7.76281 15.3919 7.88395 15.4377 8.03024 15.4834C8.18109 15.5245 8.33881 15.5702 8.50338 15.6205C8.66795 15.6708 8.82338 15.7394 8.96966 15.8262C9.12052 15.9085 9.24166 16.0205 9.33309 16.1622C9.42452 16.2994 9.47024 16.4754 9.47024 16.6902C9.47024 16.9417 9.40166 17.1565 9.26452 17.3348C9.13195 17.5131 8.94681 17.6479 8.70909 17.7394C8.47595 17.8308 8.20624 17.8765 7.89995 17.8765C7.58909 17.8765 7.28966 17.8331 7.00166 17.7462C6.71366 17.6594 6.45538 17.5291 6.22681 17.3554L6.61081 16.5805C6.82566 16.7268 7.04738 16.8411 7.27595 16.9234C7.50452 17.0011 7.72166 17.0399 7.92738 17.0399C8.00509 17.0399 8.07138 17.0308 8.12624 17.0125C8.18566 16.9942 8.23138 16.9691 8.26338 16.9371C8.29995 16.9005 8.31824 16.8548 8.31824 16.7999C8.31824 16.7131 8.27252 16.6445 8.18109 16.5942C8.08966 16.5394 7.97081 16.4937 7.82452 16.4571C7.67824 16.4159 7.52281 16.3702 7.35824 16.3199C7.19366 16.2697 7.03824 16.2034 6.89195 16.1211C6.75024 16.0342 6.63366 15.9222 6.54224 15.7851C6.45081 15.6479 6.40509 15.4719 6.40509 15.2571C6.40509 15.0011 6.47138 14.7862 6.60395 14.6125C6.74109 14.4342 6.92166 14.2994 7.14566 14.2079C7.37424 14.1165 7.63481 14.0708 7.92738 14.0708C8.19709 14.0708 8.46452 14.1074 8.72966 14.1805C8.99481 14.2491 9.24166 14.3542 9.47024 14.4959L9.05881 15.2777Z" fill="#0A77F3"/>
<path d="M14.4541 2C16.0537 2.00007 17.5562 2.76591 18.4971 4.05957L20.0439 6.18555C20.6653 7.04006 21 8.06945 21 9.12598V17C21 19.7614 18.7614 22 16 22H8C5.23858 22 3 19.7614 3 17V7C3 4.23858 5.23858 2 8 2H14.4541ZM8 4C6.34315 4 5 5.34315 5 7V17C5 18.6569 6.34315 20 8 20H16C17.6569 20 19 18.6569 19 17V11H16C14.3432 10.9999 13 9.65682 13 8V4H8ZM15 8C15 8.55225 15.4478 8.99994 16 9H18.9951C18.9703 8.41045 18.7739 7.84004 18.4258 7.36133L16.8799 5.23535C16.4241 4.60872 15.7485 4.18846 15 4.0498V8Z" fill="#0A77F3"/>
</g>
</svg>
