<svg width="14" height="15" viewBox="0 0 14 15" fill="none" xmlns="http://www.w3.org/2000/svg">
<path d="M1.0973 13.514C1.6644 13.7303 2.30404 13.8094 2.95555 13.8965C3.7086 13.998 4.50122 14.0429 5.31759 14.0244C10.1683 13.9163 14.0549 11.6096 13.9995 8.87038C13.9797 7.91423 13.4812 7.0306 12.6332 6.29205C12.4261 6.11005 12.198 5.93729 11.95 5.77507C10.4663 4.79913 8.30212 4.17136 5.86754 4.10938C6.15637 4.13311 6.44783 4.17268 6.74193 4.22543C8.55402 4.55778 10.0245 5.3715 10.8593 6.37646C10.986 6.52813 11.0967 6.68507 11.1943 6.84597C11.5873 7.50011 11.7192 8.20965 11.5214 8.90863C10.953 10.9106 7.89328 12.0567 4.68718 11.4698C4.43001 11.4223 4.17811 11.3656 3.93544 11.2997C3.3446 11.1388 2.80124 10.9251 2.31459 10.6706C2.27634 10.6495 2.2381 10.6297 2.19853 10.6113C2.14578 10.5888 1.75936 10.4556 1.5523 10.4688C0.696374 10.5255 2.61898e-05 11.1638 2.61898e-05 12.0211C-0.00129265 12.6831 0.472171 13.2753 1.0973 13.514Z" fill="white"/>
<path d="M12.9015 0.51445C12.3344 0.298161 11.6948 0.219029 11.0433 0.131986C10.2902 0.030435 9.49757 -0.0144037 8.68121 0.0040601C3.83184 0.112205 -0.0560977 2.41885 0.000612371 5.15808C0.020395 6.11424 0.518916 6.99786 1.36693 7.73641C1.57399 7.91841 1.80215 8.09118 2.05009 8.2534C3.53378 9.22934 5.698 9.85711 8.13257 9.91909C7.84375 9.89535 7.55229 9.85579 7.25818 9.80303C5.4461 9.47069 3.97559 8.65696 3.14077 7.65201C3.01416 7.50034 2.90338 7.3434 2.80578 7.1825C2.41277 6.52836 2.28089 5.81882 2.47871 5.11984C3.04449 3.11916 6.1042 1.97309 9.3103 2.55997C9.56747 2.60745 9.81937 2.66416 10.062 2.7301C10.6529 2.891 11.1962 3.10465 11.6829 3.35919C11.7211 3.38029 11.7594 3.40007 11.7989 3.41853C11.8517 3.44095 12.2381 3.57416 12.4452 3.56097C13.3024 3.50294 14.0001 2.8633 14.0001 2.00606C14.0001 1.344 13.5266 0.75316 12.9015 0.51445Z" fill="white"/>
</svg>
