<svg width="24" height="24" viewBox="0 0 24 24" fill="none" xmlns="http://www.w3.org/2000/svg">
<mask id="mask0_1931_19" style="mask-type:alpha" maskUnits="userSpaceOnUse" x="0" y="0" width="24" height="24">
<rect width="24" height="24" fill="#0A77F3"/>
</mask>
<g mask="url(#mask0_1931_19)">
<path d="M3.60722 13.6691C3.60722 14.2238 4.02867 14.6804 4.56883 14.7354L4.6787 14.7406H5.80878C6.1125 14.7406 6.40188 14.8696 6.60507 15.0953L9.23982 18.0231C9.89681 18.7525 11.1076 18.2871 11.1076 17.3053V7.68391C11.1075 6.72947 9.95351 6.2515 9.27854 6.92634L6.06409 10.1408L5.98562 10.2119C5.82214 10.3459 5.62255 10.4286 5.41221 10.4495L5.30652 10.4547H4.6787V8.84747H5.08469L8.14218 5.78998L8.30332 5.64035C10.0067 4.17823 12.7147 5.37202 12.7148 7.68391V17.3053C12.7148 19.7603 9.68717 20.9225 8.04487 19.0977L5.56916 16.3478H4.6787C3.1993 16.3478 2 15.1485 2 13.6691V11.5262C2 10.0468 3.1993 8.84747 4.6787 8.84747V10.4547C4.08694 10.4547 3.60722 10.9344 3.60722 11.5262V13.6691Z" fill="#0A77F3"/>
<path d="M19.9472 12.5977C19.9472 9.65581 18.7476 8.31537 17.6588 7.66201C17.0885 7.31978 16.5111 7.14491 16.0725 7.05721C15.8549 7.01371 15.6754 6.99223 15.5546 6.98187C15.4947 6.97674 15.4495 6.97462 15.4217 6.9735C15.408 6.97295 15.3983 6.97255 15.3935 6.97246C15.3934 6.97353 15.3935 6.97246 15.3935 6.97246C14.9496 6.97246 14.5898 6.61267 14.5898 6.16885C14.5898 5.72502 14.9496 5.36523 15.3935 5.36523V5.85598C15.3936 5.36523 15.393 5.36523 15.3935 5.36523H15.4248C15.4402 5.36554 15.4606 5.36633 15.4855 5.36733C15.5361 5.36935 15.6065 5.37354 15.6927 5.38093C15.8648 5.39569 16.1043 5.42454 16.3886 5.48138C16.9544 5.59459 17.7168 5.82175 18.4855 6.2829C20.0754 7.23683 21.5545 9.11104 21.5545 12.5977C21.5545 16.0844 20.0754 17.9586 18.4855 18.9126C17.7168 19.3737 16.9544 19.6009 16.3886 19.7141C16.1043 19.7709 15.8648 19.7998 15.6927 19.8145C15.6065 19.8219 15.5361 19.8261 15.4855 19.8281C15.4606 19.8291 15.4402 19.8299 15.4248 19.8302H15.3945C14.9507 19.8302 14.5898 19.4704 14.5898 19.0266C14.5898 18.5828 14.9496 18.223 15.3935 18.223L15.4217 18.222C15.4495 18.2208 15.4947 18.2187 15.5546 18.2136C15.6754 18.2032 15.8549 18.1818 16.0725 18.1383C16.5111 18.0506 17.0885 17.8757 17.6588 17.5335C18.7476 16.8801 19.9472 15.5397 19.9472 12.5977Z" fill="#0A77F3"/>
<path d="M16.8663 12.5981C16.8663 11.2825 16.3202 10.7435 15.865 10.4834C15.611 10.3383 15.3492 10.2616 15.1461 10.2229C15.0464 10.2039 14.9652 10.1947 14.9128 10.1904C14.8867 10.1883 14.8681 10.1877 14.8584 10.1873H14.8563C14.8563 10.1873 14.8573 10.1873 14.8573 10.1863C14.4135 10.1863 14.0537 9.82751 14.0537 9.38369C14.0537 8.93987 14.4135 8.58008 14.8573 8.58008V8.99758C14.8575 8.58008 14.858 8.58008 14.8584 8.58008H14.8803C14.8906 8.58027 14.9036 8.58054 14.9191 8.58112C14.9505 8.58232 14.9928 8.58535 15.0436 8.5895C15.1449 8.59776 15.2838 8.61378 15.4475 8.64495C15.7717 8.70673 16.2133 8.83103 16.6623 9.08757C17.6134 9.63098 18.4736 10.6999 18.4736 12.5981C18.4734 14.496 17.6132 15.564 16.6623 16.1077C16.2132 16.3644 15.7717 16.4894 15.4475 16.5513C15.2837 16.5825 15.1449 16.5985 15.0436 16.6068C14.9931 16.6109 14.9514 16.6139 14.9201 16.6151C14.9044 16.6157 14.8908 16.616 14.8803 16.6162H14.8584C14.8579 16.6151 14.8576 16.5859 14.8573 15.8126V16.6162C14.4136 16.6162 14.0539 16.2563 14.0537 15.8126C14.0537 15.3689 14.4136 15.0091 14.8573 15.009H14.8584C14.8682 15.0086 14.8869 15.0079 14.9128 15.0058C14.9653 15.0015 15.0463 14.9914 15.1461 14.9723C15.3492 14.9336 15.611 14.858 15.865 14.7128C16.3203 14.4525 16.8662 13.9135 16.8663 12.5981Z" fill="#0A77F3"/>
</g>
</svg>
