<svg width="24" height="24" viewBox="0 0 24 24" fill="none" xmlns="http://www.w3.org/2000/svg">
<mask id="mask0_2537_24" style="mask-type:alpha" maskUnits="userSpaceOnUse" x="0" y="0" width="24" height="24">
<rect width="24" height="24" fill="#0A77F3"/>
</mask>
<g mask="url(#mask0_2537_24)">
<path d="M19.1048 8.47173C19.1048 6.98928 17.8323 5.78752 16.2627 5.78752H7.73635C6.1667 5.78752 4.89425 6.98928 4.89425 8.47173V15.6296C4.89425 17.1121 6.1667 18.3138 7.73635 18.3138H16.2627C17.8323 18.3138 19.1048 17.1121 19.1048 15.6296V8.47173ZM20.9995 15.6296C20.9995 18.1004 18.8788 20.1033 16.2627 20.1033H7.73635C5.12027 20.1033 2.99951 18.1004 2.99951 15.6296V8.47173C2.99951 6.00098 5.12027 3.99805 7.73635 3.99805H16.2627C18.8788 3.99805 20.9995 6.00098 20.9995 8.47173V15.6296Z" fill="#0A77F3"/>
<path d="M9.59162 9.81461C9.59162 10.5773 8.97332 11.1956 8.2106 11.1956C7.44789 11.1956 6.82959 10.5773 6.82959 9.81461C6.82959 9.0519 7.44789 8.43359 8.2106 8.43359C8.97332 8.43359 9.59162 9.0519 9.59162 9.81461Z" fill="#0A77F3"/>
<path d="M9.59162 14.2882C9.59162 15.051 8.97332 15.6693 8.2106 15.6693C7.44789 15.6693 6.82959 15.051 6.82959 14.2882C6.82959 13.5255 7.44789 12.9072 8.2106 12.9072C8.97332 12.9072 9.59162 13.5255 9.59162 14.2882Z" fill="#0A77F3"/>
<path d="M17.1702 9.81461C17.1702 10.5773 16.5519 11.1956 15.7892 11.1956C15.0265 11.1956 14.4082 10.5773 14.4082 9.81461C14.4082 9.0519 15.0265 8.43359 15.7892 8.43359C16.5519 8.43359 17.1702 9.0519 17.1702 9.81461Z" fill="#0A77F3"/>
<path d="M13.3807 9.81461C13.3807 10.5773 12.7624 11.1956 11.9997 11.1956C11.237 11.1956 10.6187 10.5773 10.6187 9.81461C10.6187 9.0519 11.237 8.43359 11.9997 8.43359C12.7624 8.43359 13.3807 9.0519 13.3807 9.81461Z" fill="#0A77F3"/>
<path d="M17.1702 14.2882C17.1702 15.051 16.5519 15.6693 15.7892 15.6693C15.0265 15.6693 14.4082 15.051 14.4082 14.2882C14.4082 13.5255 15.0265 12.9072 15.7892 12.9072C16.5519 12.9072 17.1702 13.5255 17.1702 14.2882Z" fill="#0A77F3"/>
<path d="M13.3807 14.2882C13.3807 15.051 12.7624 15.6693 11.9997 15.6693C11.237 15.6693 10.6187 15.051 10.6187 14.2882C10.6187 13.5255 11.237 12.9072 11.9997 12.9072C12.7624 12.9072 13.3807 13.5255 13.3807 14.2882Z" fill="#0A77F3"/>
</g>
</svg>
