<svg width="24" height="24" viewBox="0 0 24 24" fill="none" xmlns="http://www.w3.org/2000/svg">
<mask id="mask0_2687_7" style="mask-type:alpha" maskUnits="userSpaceOnUse" x="0" y="0" width="24" height="24">
<rect width="24" height="24" fill="#0A77F3"/>
</mask>
<g mask="url(#mask0_2687_7)">
<path d="M14.4873 6.0083C16.7151 4.39557 20.7112 2.51207 21.2259 3.02825C22.1425 3.94737 19.0002 8.56686 14.2075 13.3462C9.41476 18.1255 4.78649 21.2548 3.86994 20.3356C3.28742 19.7515 4.90915 16.6729 6.9873 14.0083" stroke="#0A77F3" stroke-width="2"/>
<circle cx="12.4873" cy="12.0083" r="6" transform="rotate(-90 12.4873 12.0083)" stroke="#0A77F3" stroke-width="2"/>
<path d="M3 8L4.67614 7.67615L5 6L5.32385 7.67614L7 8L5.32385 8.32385L5 10L4.67615 8.32385L3 8Z" fill="#0A77F3"/>
<path d="M-8.74228e-08 18L1.67614 17.6761L2 16L2.32385 17.6761L4 18L2.32385 18.3239L2 20L1.67615 18.3239L-8.74228e-08 18Z" fill="#0A77F3"/>
<path d="M11 21L12.6761 20.6761L13 19L13.3239 20.6761L15 21L13.3239 21.3239L13 23L12.6761 21.3239L11 21Z" fill="#0A77F3"/>
<path d="M7 3L9.51422 2.51422L10 3.45703e-07L10.4858 2.51422L13 3L10.4858 3.48578L10 6L9.51422 3.48578L7 3Z" fill="#0A77F3"/>
<path d="M17 20L19.5142 19.5142L20 17L20.4858 19.5142L23 20L20.4858 20.4858L20 23L19.5142 20.4858L17 20Z" fill="#0A77F3"/>
<path d="M20 14L21.6761 13.6761L22 12L22.3239 13.6761L24 14L22.3239 14.3239L22 16L21.6761 14.3239L20 14Z" fill="#0A77F3"/>
<circle cx="15" cy="12" r="2" transform="rotate(-90 15 12)" fill="#0A77F3"/>
</g>
</svg>
