<svg width="24" height="24" viewBox="0 0 24 24" fill="none" xmlns="http://www.w3.org/2000/svg">
<mask id="mask0_1925_2" style="mask-type:alpha" maskUnits="userSpaceOnUse" x="0" y="0" width="24" height="24">
<rect width="24" height="24" fill="#0A77F3"/>
</mask>
<g mask="url(#mask0_1925_2)">
<path d="M10.3333 6.66667V17.3333C10.3333 18.2538 9.58714 19 8.66667 19C7.74619 19 7 18.2538 7 17.3333V6.66667C7 5.74619 7.74619 5 8.66667 5C9.58714 5 10.3333 5.74619 10.3333 6.66667Z" fill="#0A77F3"/>
<path d="M17 6.66667V17.3333C17 18.2538 16.2538 19 15.3333 19C14.4129 19 13.6667 18.2538 13.6667 17.3333V6.66667C13.6667 5.74619 14.4129 5 15.3333 5C16.2538 5 17 5.74619 17 6.66667Z" fill="#0A77F3"/>
</g>
</svg>
