<svg width="85" height="85" viewBox="0 0 85 85" fill="none" xmlns="http://www.w3.org/2000/svg">
<path d="M26.1225 26.487C17.0842 35.5253 17.0842 50.1752 26.1225 59.2136C35.1608 68.2519 49.8107 68.2519 58.8491 59.2136C67.8874 50.1752 67.8874 35.5253 58.8491 26.487C49.8107 17.4487 35.1608 17.4487 26.1225 26.487Z" fill="#868686"/>
<path d="M77.9197 13.1188C77.9197 7.39224 73.2798 2.75233 67.5532 2.75233C65.3798 2.75233 63.3675 3.42503 61.7001 4.56345C45.7451 -3.49746 25.7365 -0.881402 12.432 12.4289C-4.14401 29.0049 -4.14401 55.9819 12.432 72.5637C20.7229 80.8546 31.6068 85 42.4965 85C53.3862 85 64.2759 80.8546 72.5611 72.5637C87.5272 57.5975 88.9761 34.1508 76.9192 17.5402C77.5517 16.1948 77.9197 14.6999 77.9197 13.1188ZM67.306 67.3028C53.6277 80.981 31.3711 80.981 17.6929 67.3028C4.01464 53.6246 4.01464 31.368 17.6929 17.6897C24.5349 10.8477 33.5157 7.43248 42.5023 7.43248C47.6252 7.43248 52.7423 8.5479 57.4684 10.7672C57.2902 11.5262 57.1925 12.3081 57.1925 13.1188C57.1925 18.8454 61.8324 23.4853 67.5589 23.4853C68.9446 23.4853 70.267 23.2093 71.4744 22.7149C80.7945 36.3643 79.4146 55.1942 67.306 67.3028Z" fill="#868686"/>
</svg>
