<svg width="26" height="26" viewBox="0 0 26 26" fill="none" xmlns="http://www.w3.org/2000/svg">
<mask id="mask0_1346_1630" style="mask-type:alpha" maskUnits="userSpaceOnUse" x="0" y="0" width="26" height="26">
<rect width="26" height="26" fill="#07CB7D"/>
</mask>
<g mask="url(#mask0_1346_1630)">
<path d="M5.25 17.75C5.25 19.4069 6.59315 20.75 8.25 20.75H10.833V22.75H8.25L7.99316 22.7432C5.43618 22.6138 3.38622 20.5638 3.25684 18.0068L3.25 17.75V15.167H5.25V17.75ZM22.75 17.75C22.75 20.4253 20.6489 22.6095 18.0068 22.7432L17.75 22.75H15.167V20.75H17.75C19.4069 20.75 20.75 19.4069 20.75 17.75V15.167H22.75V17.75ZM14.7764 13.4883C14.9765 13.2381 15.3565 13.2382 15.5566 13.4883L18.8506 17.6045C19.112 17.9318 18.8789 18.4168 18.46 18.417H7.5C7.08798 18.417 6.8524 17.9458 7.09961 17.6162L9.34961 14.6162C9.54961 14.3497 9.95039 14.3497 10.1504 14.6162L11.9521 17.0186L14.7764 13.4883ZM10.833 5.25H8.25C6.59315 5.25 5.25 6.59315 5.25 8.25V10.833H3.25V8.25C3.25 5.48858 5.48858 3.25 8.25 3.25H10.833V5.25ZM17.75 3.25C20.5114 3.25 22.75 5.48858 22.75 8.25V10.833H20.75V8.25C20.75 6.59315 19.4069 5.25 17.75 5.25H15.167V3.25H17.75ZM16.667 7.58301C17.4952 7.58315 18.1668 8.25482 18.167 9.08301C18.167 9.91135 17.4953 10.5829 16.667 10.583C15.8386 10.583 15.167 9.91144 15.167 9.08301C15.1672 8.25473 15.8387 7.58301 16.667 7.58301Z" fill="#07CB7D"/>
</g>
</svg>
