<svg width="24" height="24" viewBox="0 0 24 24" fill="none" xmlns="http://www.w3.org/2000/svg">
<mask id="mask0_1346_1799" style="mask-type:alpha" maskUnits="userSpaceOnUse" x="0" y="0" width="24" height="24">
<rect width="24" height="24" fill="#07CB7D"/>
</mask>
<g mask="url(#mask0_1346_1799)">
<path d="M16 3C18.7614 3 21 5.23858 21 8V16C21 18.7614 18.7614 21 16 21H8C5.23858 21 3 18.7614 3 16V8C3 5.23858 5.23858 3 8 3H16ZM9.61914 8.11133V12.8613C9.45258 12.7595 9.27906 12.6828 9.09863 12.6318C8.91808 12.5809 8.72078 12.5557 8.50781 12.5557C7.89683 12.5557 7.3736 12.773 6.93848 13.208C6.50339 13.6431 6.28624 14.1664 6.28613 14.7773C6.28613 15.3885 6.50329 15.9125 6.93848 16.3477C7.37359 16.7827 7.89685 17 8.50781 17C9.11877 17 9.64203 16.7826 10.0771 16.3477C10.5123 15.9125 10.7305 15.3885 10.7305 14.7773V10.333L15.1748 9.45801V11.75C15.0081 11.6481 14.8339 11.5714 14.6533 11.5205C14.4729 11.4697 14.2762 11.4443 14.0635 11.4443C13.4524 11.4443 12.9293 11.6625 12.4941 12.0977C12.0591 12.5328 11.8408 13.056 11.8408 13.667C11.8409 14.278 12.059 14.8012 12.4941 15.2363C12.9293 15.6714 13.4524 15.8887 14.0635 15.8887C14.6745 15.8887 15.1977 15.6714 15.6328 15.2363C16.0679 14.8012 16.2861 14.278 16.2861 13.667V7L9.61914 8.11133Z" fill="#07CB7D"/>
</g>
</svg>
