<svg width="24" height="24" viewBox="0 0 24 24" fill="none" xmlns="http://www.w3.org/2000/svg">
<path d="M14.4541 3C16.0537 3.00006 17.5562 3.68926 18.4971 4.85352L20.0439 6.7666C20.6652 7.5356 20.9999 8.4623 21 9.41309V16.5C20.9999 18.9852 18.7614 21 16 21H8C5.23863 21 3.00009 18.9852 3 16.5V7.5C3 5.36861 4.64671 3.58434 6.85742 3.11914V3.74316H8.22852V3H14.4541ZM7.02539 12.6572C6.7227 12.6572 6.45529 12.8557 6.36816 13.1455L5.71484 15.3223C5.56835 15.8106 5.62405 16.3376 5.86816 16.7852C6.59165 18.1113 8.49531 18.1113 9.21875 16.7852C9.46287 16.3376 9.51856 15.8106 9.37207 15.3223L8.71875 13.1455C8.63164 12.8556 8.36423 12.6572 8.06152 12.6572H7.02539ZM6.31641 15.6709C7.08853 15.2848 7.99738 15.2849 8.76953 15.6709L8.91504 15.7432C8.91489 16.5005 8.30029 17.1143 7.54297 17.1143C6.78582 17.1141 6.17203 16.5003 6.17188 15.7432L6.31641 15.6709ZM6.85742 10.6006V11.9717H8.22852V10.6006H6.85742ZM15 8.40039C15.0003 8.89723 15.4479 9.2998 16 9.2998H18.9951C18.9703 8.76928 18.7739 8.25598 18.4258 7.8252L16.8799 5.91211C16.4241 5.34814 15.7485 4.96951 15 4.84473V8.40039ZM6.85742 9.22852H8.22852V7.85742H6.85742V9.22852ZM6.85742 6.48633H8.22852V5.11523H6.85742V6.48633Z" fill="#FFC506"/>
<mask id="mask0_1365_44" style="mask-type:alpha" maskUnits="userSpaceOnUse" x="0" y="0" width="24" height="24">
<rect width="24" height="24" fill="#0A77F3"/>
</mask>
<g mask="url(#mask0_1365_44)">
</g>
</svg>
