<svg width="24" height="24" viewBox="0 0 24 24" fill="none" xmlns="http://www.w3.org/2000/svg">
<mask id="mask0_2556_59" style="mask-type:alpha" maskUnits="userSpaceOnUse" x="0" y="0" width="24" height="24">
<rect width="24" height="24" fill="#0A77F3"/>
</mask>
<g mask="url(#mask0_2556_59)">
<path d="M16 8C16 7.44772 15.5523 7 15 7H9C8.44772 7 8 7.44772 8 8V16C8 16.5523 8.44772 17 9 17H15C15.5523 17 16 16.5523 16 16V8ZM18 16C18 17.6569 16.6569 19 15 19H9C7.34315 19 6 17.6569 6 16V8C6 6.34315 7.34315 5 9 5H15C16.6569 5 18 6.34315 18 8V16Z" fill="#0A77F3"/>
<path d="M14 8.25V9.75H9V8.25H14Z" fill="#0A77F3"/>
<path d="M15 11.25V12.75H9V11.25H15Z" fill="#0A77F3"/>
<path d="M14 14.25V15.75H9V14.25H14Z" fill="#0A77F3"/>
<path d="M3 16H5V17C5 18.6569 6.34315 20 8 20H9V22H8C5.32472 22 3.14053 19.8989 3.00684 17.2568L3 17V16ZM21 17L20.9932 17.2568C20.8638 19.8138 18.8137 21.8637 16.2568 21.9932L16 22H15V20H16C17.6568 19.9999 19 18.6568 19 17V16H21V17ZM9 2V4H8C6.34315 4 5 5.34315 5 7V8H3V7C3 4.23858 5.23858 2 8 2H9ZM16.2568 2.00684C18.8988 2.14061 21 4.32477 21 7V8H19V7C19 5.3432 17.6568 4.00009 16 4H15V2H16L16.2568 2.00684Z" fill="#0A77F3"/>
</g>
</svg>
