<svg width="34" height="34" viewBox="0 0 34 34" fill="none" xmlns="http://www.w3.org/2000/svg">
<mask id="mask0_1634_117" style="mask-type:alpha" maskUnits="userSpaceOnUse" x="0" y="0" width="34" height="34">
<rect width="34" height="34" fill="#0A77F3"/>
</mask>
<g mask="url(#mask0_1634_117)">
<path d="M9.20866 28.3337C7.06005 28.3337 5.22428 27.5899 3.70137 26.1024C2.17845 24.6149 1.41699 22.7969 1.41699 20.6482C1.41699 18.8066 1.97185 17.1656 3.08158 15.7253C4.1913 14.285 5.64338 13.3642 7.43783 12.9628C8.0281 10.7906 9.20866 9.03158 10.9795 7.68574C12.7503 6.33991 14.7573 5.66699 17.0003 5.66699C19.7628 5.66699 22.1062 6.62915 24.0305 8.55345C25.9548 10.4778 26.917 12.8212 26.917 15.5837C28.5462 15.7725 29.8979 16.475 30.9722 17.691C32.0465 18.9069 32.5837 20.3295 32.5837 21.9587C32.5837 23.7295 31.9639 25.2347 30.7243 26.4743C29.4847 27.7139 27.9795 28.3337 26.2087 28.3337H9.20866ZM9.20866 25.5003H26.2087C27.2003 25.5003 28.0385 25.158 28.7232 24.4732C29.408 23.7885 29.7503 22.9503 29.7503 21.9587C29.7503 20.967 29.408 20.1288 28.7232 19.4441C28.0385 18.7594 27.2003 18.417 26.2087 18.417H24.0837V15.5837C24.0837 13.6239 23.393 11.9535 22.0118 10.5722C20.6305 9.19095 18.96 8.50033 17.0003 8.50033C15.0406 8.50033 13.3701 9.19095 11.9889 10.5722C10.6076 11.9535 9.91699 13.6239 9.91699 15.5837H9.20866C7.83921 15.5837 6.67046 16.0677 5.70241 17.0357C4.73435 18.0038 4.25033 19.1725 4.25033 20.542C4.25033 21.9114 4.73435 23.0802 5.70241 24.0482C6.67046 25.0163 7.83921 25.5003 9.20866 25.5003Z" fill="#0A77F3"/>
</g>
</svg>
