<svg width="24" height="24" viewBox="0 0 24 24" fill="none" xmlns="http://www.w3.org/2000/svg">
<mask id="mask0_1347_29" style="mask-type:alpha" maskUnits="userSpaceOnUse" x="0" y="0" width="24" height="24">
<rect width="24" height="24" fill="#0A77F3"/>
</mask>
<g mask="url(#mask0_1347_29)">
<path d="M14.4541 2C16.0537 2.00007 17.5562 2.76591 18.4971 4.05957L20.0439 6.18555C20.6653 7.04006 21 8.06945 21 9.12598V17C21 19.7614 18.7614 22 16 22H8C5.23858 22 3 19.7614 3 17V7C3 4.23858 5.23858 2 8 2H14.4541ZM8 4C6.34315 4 5 5.34315 5 7V17C5 18.6569 6.34315 20 8 20H16C17.6569 20 19 18.6569 19 17V11H16C14.3431 11 13 9.65685 13 8V4H8ZM15 8C15 8.55228 15.4477 9 16 9H18.9951C18.9703 8.41045 18.7739 7.84004 18.4258 7.36133L16.8799 5.23535C16.4241 4.60872 15.7485 4.18846 15 4.0498V8Z" fill="#9C4EAF"/>
<path d="M18 17.3256C18 17.6647 17.9122 17.9592 17.7367 18.2091C17.5611 18.459 17.3167 18.6508 17.0036 18.7847C16.6904 18.923 16.325 18.9922 15.9075 18.9922C15.5706 18.9922 15.2527 18.9476 14.9537 18.8583C14.6595 18.7691 14.4033 18.6553 14.1851 18.517L14.6263 17.7138C14.8019 17.8253 14.9917 17.9124 15.1957 17.9748C15.3998 18.0373 15.6062 18.0685 15.8149 18.0685C16.0095 18.0685 16.1756 18.0395 16.3132 17.9815C16.4508 17.9235 16.5552 17.841 16.6263 17.7339C16.7023 17.6268 16.7402 17.4996 16.7402 17.3524V14.0325H18V17.3256ZM15.6157 13.9924C15.9336 13.9879 16.204 14.0571 16.427 14.1999C16.6548 14.3382 16.8256 14.5368 16.9395 14.7956C17.0581 15.0499 17.1174 15.3533 17.1174 15.7058C17.1174 16.0628 17.0605 16.3729 16.9466 16.6362C16.8327 16.895 16.6643 17.0958 16.4413 17.2386C16.223 17.3769 15.9573 17.4461 15.6441 17.4461C15.3262 17.4461 15.0415 17.3747 14.79 17.2319C14.5433 17.0846 14.3488 16.8816 14.2064 16.6228C14.0688 16.3595 14 16.0517 14 15.6991C14 15.3556 14.0664 15.0566 14.1993 14.8023C14.3369 14.5479 14.5267 14.3494 14.7687 14.2066C15.0154 14.0638 15.2977 13.9924 15.6157 13.9924ZM15.9644 14.8759C15.8078 14.8759 15.6702 14.9116 15.5516 14.983C15.4377 15.0544 15.3476 15.1548 15.2811 15.2842C15.2147 15.4136 15.1815 15.5631 15.1815 15.7326C15.1815 15.9022 15.2147 16.0517 15.2811 16.1811C15.3476 16.3105 15.4377 16.4109 15.5516 16.4822C15.6702 16.5536 15.8078 16.5893 15.9644 16.5893C16.1163 16.5893 16.2491 16.5536 16.363 16.4822C16.4816 16.4109 16.5741 16.3105 16.6406 16.1811C16.707 16.0517 16.7402 15.9022 16.7402 15.7326C16.7402 15.5631 16.707 15.4136 16.6406 15.2842C16.5741 15.1548 16.4816 15.0544 16.363 14.983C16.2491 14.9116 16.1163 14.8759 15.9644 14.8759Z" fill="#9C4EAF"/>
<path d="M9 13.9922H10.5561L11.517 16.7922L12.4864 13.9922H14L12.2738 17.9922H10.7177L9 13.9922Z" fill="#9C4EAF"/>
<path d="M8.61945 15.2607C8.40803 15.1357 8.2093 15.0396 8.02326 14.9724C7.83721 14.9051 7.6723 14.8715 7.52854 14.8715C7.43552 14.8715 7.35729 14.8931 7.29387 14.9363C7.23467 14.9748 7.20507 15.0372 7.20507 15.1237C7.20507 15.2102 7.24736 15.2799 7.33192 15.3327C7.42072 15.3808 7.53277 15.4288 7.66808 15.4769C7.80761 15.5201 7.95349 15.5682 8.10571 15.621C8.25793 15.6739 8.40169 15.7459 8.537 15.8372C8.67653 15.9237 8.78859 16.0414 8.87315 16.1904C8.95772 16.3345 9 16.5195 9 16.7453C9 17.0096 8.93658 17.2354 8.80973 17.4228C8.68711 17.6102 8.51586 17.7519 8.29598 17.848C8.08034 17.9441 7.83087 17.9922 7.54757 17.9922C7.26004 17.9922 6.98309 17.9465 6.7167 17.8553C6.45032 17.764 6.21142 17.627 6 17.4444L6.35518 16.63C6.55391 16.7838 6.75898 16.9039 6.9704 16.9904C7.18182 17.0721 7.38266 17.1129 7.57294 17.1129C7.64482 17.1129 7.70613 17.1033 7.75687 17.0841C7.81184 17.0649 7.85412 17.0384 7.88372 17.0048C7.91755 16.9664 7.93446 16.9183 7.93446 16.8607C7.93446 16.7694 7.89218 16.6973 7.80761 16.6444C7.72305 16.5868 7.61311 16.5387 7.4778 16.5003C7.3425 16.4571 7.19873 16.409 7.04651 16.3562C6.89429 16.3033 6.75053 16.2336 6.61522 16.1471C6.48414 16.0559 6.37632 15.9381 6.29175 15.794C6.20719 15.6498 6.16491 15.4649 6.16491 15.239C6.16491 14.97 6.22622 14.7441 6.34884 14.5616C6.47569 14.3742 6.64271 14.2324 6.8499 14.1363C7.06131 14.0402 7.30233 13.9922 7.57294 13.9922C7.82241 13.9922 8.06977 14.0306 8.31501 14.1075C8.56025 14.1796 8.78858 14.2901 9 14.439L8.61945 15.2607Z" fill="#9C4EAF"/>
</g>
</svg>
