<svg width="24" height="24" viewBox="0 0 24 24" fill="none" xmlns="http://www.w3.org/2000/svg">
<mask id="mask0_2557_92" style="mask-type:alpha" maskUnits="userSpaceOnUse" x="0" y="0" width="24" height="24">
<rect width="24" height="24" fill="#868686"/>
</mask>
<g mask="url(#mask0_2557_92)">
<path d="M3 15.5859V14.5859C3 14.0337 3.44772 13.5859 4 13.5859C4.55228 13.5859 5 14.0337 5 14.5859V15.5859C5 17.2428 6.34315 18.5859 8 18.5859H16C17.6569 18.5859 19 17.2428 19 15.5859V14.5859C19 14.0337 19.4477 13.5859 20 13.5859C20.5523 13.5859 21 14.0337 21 14.5859V15.5859C21 18.3474 18.7614 20.5859 16 20.5859H8C5.23858 20.5859 3 18.3474 3 15.5859Z" fill="#0A77F3"/>
<path d="M11.0001 14.0859L11.0001 6L7.70711 9.29297C7.31658 9.68349 6.68357 9.68349 6.29304 9.29297C5.90252 8.90244 5.90252 8.26943 6.29304 7.8789L10.586 3.58594C11.367 2.80499 12.6331 2.80499 13.4141 3.58594L17.7071 7.87891C18.0976 8.26943 18.0976 8.90245 17.7071 9.29297C17.3166 9.68349 16.6836 9.68349 16.293 9.29297L13.0001 6L13.0001 14.0859C13.0001 14.6382 12.5524 15.0859 12.0001 15.0859C11.4478 15.0859 11.0001 14.6382 11.0001 14.0859Z" fill="#0A77F3"/>
</g>
</svg>
