<svg width="24" height="24" viewBox="0 0 24 24" fill="none" xmlns="http://www.w3.org/2000/svg">
<mask id="mask0_1365_116" style="mask-type:alpha" maskUnits="userSpaceOnUse" x="0" y="0" width="24" height="24">
<rect width="24" height="24" fill="#2E71D3"/>
</mask>
<g mask="url(#mask0_1365_116)">
<path d="M14.4541 3C16.0537 3.00006 17.5562 3.68926 18.4971 4.85352L20.0439 6.7666C20.6652 7.53558 20.9999 8.46231 21 9.41309V16.5C21 18.9853 18.7614 21 16 21H8C5.23858 21 3 18.9853 3 16.5V7.5C3 5.01472 5.23858 3 8 3H14.4541ZM8.52441 13.4258V15.2969C8.43325 15.1779 8.32904 15.077 8.20898 14.9961C7.98498 14.8407 7.71484 14.7627 7.39941 14.7627C7.06142 14.7628 6.76235 14.8431 6.50195 15.0029C6.24601 15.1583 6.04698 15.3755 5.90527 15.6543C5.76815 15.9331 5.69924 16.2622 5.69922 16.6416C5.69922 17.0255 5.77045 17.3615 5.91211 17.6494C6.05382 17.9374 6.25505 18.1623 6.51562 18.3223C6.77597 18.482 7.07975 18.5615 7.42676 18.5615C7.73751 18.5615 8.00327 18.4844 8.22266 18.3291C8.33692 18.2498 8.43751 18.1528 8.52441 18.0391V18.5137H9.74512V13.4258H8.52441ZM12.4297 14.7695C12.023 14.7696 11.6665 14.8476 11.3604 15.0029C11.0587 15.1584 10.8234 15.3777 10.6543 15.6611C10.4897 15.9446 10.4072 16.2759 10.4072 16.6553C10.4072 17.0347 10.4897 17.3683 10.6543 17.6562C10.8234 17.9396 11.0587 18.1613 11.3604 18.3213C11.6665 18.4767 12.023 18.5546 12.4297 18.5547C12.8365 18.5547 13.1914 18.4767 13.4932 18.3213C13.7993 18.1613 14.037 17.9396 14.2061 17.6562C14.3752 17.3683 14.46 17.0347 14.46 16.6553C14.46 16.2759 14.3752 15.9445 14.2061 15.6611C14.037 15.3778 13.7993 15.1583 13.4932 15.0029C13.1914 14.8475 12.8365 14.7695 12.4297 14.7695ZM16.6992 14.7695C16.3153 14.7695 15.9794 14.8498 15.6914 15.0098C15.4034 15.1652 15.1795 15.3868 15.0195 15.6748C14.8595 15.9582 14.7793 16.2918 14.7793 16.6758C14.7793 17.0506 14.8573 17.3797 15.0127 17.6631C15.1727 17.9465 15.3966 18.1659 15.6846 18.3213C15.9726 18.4767 16.3061 18.5547 16.6855 18.5547C17.0786 18.5547 17.4213 18.4789 17.7139 18.3281C18.0064 18.1727 18.2258 17.9556 18.3721 17.6768L17.4746 17.1631C17.3969 17.3092 17.2962 17.4168 17.1729 17.4854C17.054 17.5539 16.9116 17.5879 16.7471 17.5879C16.601 17.5879 16.4706 17.5493 16.3564 17.4717C16.2468 17.394 16.1597 17.2864 16.0957 17.1494C16.0363 17.0123 16.0068 16.8518 16.0068 16.6689C16.0068 16.4861 16.0363 16.3256 16.0957 16.1885C16.1597 16.0515 16.2468 15.9461 16.3564 15.873C16.4706 15.7955 16.601 15.7569 16.7471 15.7568C16.9071 15.7568 17.0472 15.7908 17.166 15.8594C17.2894 15.9234 17.3924 16.0173 17.4746 16.1406L18.3584 15.627C18.1984 15.3527 17.9745 15.1424 17.6865 14.9961C17.3985 14.8453 17.0695 14.7695 16.6992 14.7695ZM7.72852 15.7363C7.88852 15.7363 8.0286 15.7758 8.14746 15.8535C8.26617 15.9312 8.35793 16.041 8.42188 16.1826C8.4903 16.3242 8.52438 16.4886 8.52441 16.6758C8.52441 16.8632 8.49044 17.0282 8.42188 17.1699C8.3579 17.307 8.26626 17.4167 8.14746 17.499C8.0286 17.5767 7.88852 17.6152 7.72852 17.6152C7.56869 17.6152 7.42703 17.5767 7.30371 17.499C7.18487 17.4167 7.09103 17.307 7.02246 17.1699C6.95846 17.0282 6.92676 16.8632 6.92676 16.6758C6.92679 16.4886 6.95858 16.3242 7.02246 16.1826C7.09099 16.041 7.18495 15.9312 7.30371 15.8535C7.42703 15.7759 7.56869 15.7364 7.72852 15.7363ZM12.4297 15.7363C12.5897 15.7363 12.7298 15.7748 12.8486 15.8525C12.972 15.9302 13.0659 16.04 13.1299 16.1816C13.1984 16.3233 13.2324 16.4884 13.2324 16.6758C13.2324 16.8632 13.1985 17.0282 13.1299 17.1699C13.0659 17.307 12.972 17.4145 12.8486 17.4922C12.7298 17.5699 12.5897 17.6084 12.4297 17.6084C12.2699 17.6083 12.1305 17.5698 12.0117 17.4922C11.8929 17.4145 11.799 17.307 11.7305 17.1699C11.6665 17.0282 11.6348 16.8632 11.6348 16.6758C11.6348 16.4884 11.6665 16.3233 11.7305 16.1816C11.799 16.0401 11.8929 15.9302 12.0117 15.8525C12.1304 15.7749 12.2699 15.7364 12.4297 15.7363ZM15 8.40039C15.0002 8.89727 15.4479 9.2998 16 9.2998H18.9951C18.9702 8.76929 18.7739 8.25597 18.4258 7.8252L16.8799 5.91211C16.4241 5.34814 15.7485 4.96952 15 4.84473V8.40039Z" fill="#2E71D3"/>
</g>
</svg>
