<svg width="24" height="24" viewBox="0 0 24 24" fill="none" xmlns="http://www.w3.org/2000/svg">
<mask id="mask0_696_82" style="mask-type:alpha" maskUnits="userSpaceOnUse" x="0" y="0" width="24" height="24">
<rect width="24" height="24" fill="#7F7F7F"/>
</mask>
<g mask="url(#mask0_696_82)">
<path d="M21 7V19C21 19.55 20.8042 20.0208 20.4125 20.4125C20.0208 20.8042 19.55 21 19 21H5C4.45 21 3.97917 20.8042 3.5875 20.4125C3.19583 20.0208 3 19.55 3 19V5C3 4.45 3.19583 3.97917 3.5875 3.5875C3.97917 3.19583 4.45 3 5 3H17L21 7ZM19 7.85L16.15 5H5V19H19V7.85Z" fill="#7F7F7F"/>
</g>
<circle cx="12" cy="14" r="2" stroke="#888888" stroke-width="2"/>
<path d="M9 5V8H15V5" stroke="#888888" stroke-width="2"/>
</svg>
