<svg width="35" height="35" viewBox="0 0 35 35" fill="none" xmlns="http://www.w3.org/2000/svg">
<mask id="mask0_1361_17" style="mask-type:alpha" maskUnits="userSpaceOnUse" x="0" y="0" width="35" height="35">
<rect width="35" height="35" fill="#FC6D26"/>
</mask>
<g mask="url(#mask0_1361_17)">
<path d="M21.0791 2.91602C23.4118 2.91619 25.6026 4.03436 26.9746 5.9209L29.2305 9.02051C30.1363 10.2665 30.6249 11.7681 30.625 13.3086V24.792C30.6247 28.8188 27.3599 32.084 23.333 32.084H11.667C7.64008 32.084 4.37526 28.8188 4.375 24.792V10.209C4.375 6.18191 7.63992 2.91602 11.667 2.91602H21.0791ZM12.5615 21.54C12.1152 21.5401 11.7288 21.6535 11.4023 21.8799C11.2401 21.9915 11.0962 22.129 10.9717 22.292V21.5996H9.19238V28.9404H10.9717V26.3008C11.1022 26.4681 11.2514 26.6122 11.4219 26.7305C11.7551 26.9503 12.1485 27.0595 12.6016 27.0596C13.1082 27.0596 13.5454 26.9464 13.9121 26.7197C14.2853 26.4931 14.5715 26.173 14.7715 25.7598C14.9781 25.3465 15.082 24.87 15.082 24.3301C15.082 23.7635 14.975 23.2736 14.7617 22.8604C14.5551 22.4404 14.2618 22.1163 13.8818 21.8896C13.5085 21.6564 13.0681 21.54 12.5615 21.54ZM19.417 21.54C18.9707 21.5401 18.5843 21.6535 18.2578 21.8799C18.0955 21.9915 17.9517 22.129 17.8271 22.292V21.5996H16.0479V28.9404H17.8271V26.3008C17.9577 26.4681 18.1069 26.6122 18.2773 26.7305C18.6106 26.9503 19.0039 27.0595 19.457 27.0596C19.9637 27.0596 20.4009 26.9464 20.7676 26.7197C21.1408 26.4931 21.427 26.173 21.627 25.7598C21.8336 25.3465 21.9375 24.87 21.9375 24.3301C21.9375 23.7635 21.8305 23.2736 21.6172 22.8604C21.4105 22.4404 21.1173 22.1163 20.7373 21.8896C20.364 21.6564 19.9236 21.54 19.417 21.54ZM23.1025 21.8506H22.3525V23.0098H23.1025V25.3604C23.1026 25.7336 23.1797 26.0506 23.333 26.3105C23.4929 26.5635 23.7095 26.7564 23.9824 26.8896C24.2558 27.0163 24.5664 27.0801 24.9131 27.0801C25.1795 27.0801 25.4393 27.0501 25.6924 26.9902C25.9524 26.9236 26.1797 26.83 26.373 26.71L26.0332 25.4805C25.9065 25.5338 25.7862 25.577 25.6729 25.6104C25.5595 25.6437 25.4556 25.6602 25.3623 25.6602C25.2093 25.6667 25.0895 25.6234 25.0029 25.5303C24.9163 25.4369 24.873 25.2867 24.873 25.0801V23.0098H26.2725V21.8506H24.873V20.3604H23.1025V21.8506ZM12.1221 22.9102C12.3552 22.9102 12.5582 22.9701 12.7314 23.0898C12.9114 23.2032 13.0483 23.3636 13.1416 23.5703C13.2416 23.777 13.292 24.0137 13.292 24.2803C13.292 24.5468 13.2416 24.7836 13.1416 24.9902C13.0483 25.1968 12.9114 25.3605 12.7314 25.4805C12.5583 25.5936 12.3551 25.6504 12.1221 25.6504C11.9021 25.6504 11.7015 25.5938 11.5215 25.4805C11.3482 25.3672 11.2123 25.2066 11.1123 25C11.019 24.7867 10.9717 24.5468 10.9717 24.2803C10.9717 24.007 11.019 23.7703 11.1123 23.5703C11.2123 23.3637 11.3482 23.2032 11.5215 23.0898C11.7015 22.9698 11.9021 22.9102 12.1221 22.9102ZM18.9775 22.9102C19.2106 22.9102 19.4137 22.9701 19.5869 23.0898C19.7669 23.2032 19.9037 23.3636 19.9971 23.5703C20.097 23.777 20.1475 24.0137 20.1475 24.2803C20.1474 24.5468 20.097 24.7836 19.9971 24.9902C19.9037 25.1968 19.7668 25.3605 19.5869 25.4805C19.4137 25.5936 19.2106 25.6504 18.9775 25.6504C18.7575 25.6504 18.557 25.5938 18.377 25.4805C18.2037 25.3672 18.0678 25.2066 17.9678 25C17.8745 24.7867 17.8272 24.5468 17.8271 24.2803C17.8271 24.007 17.8745 23.7703 17.9678 23.5703C18.0677 23.3637 18.2037 23.2032 18.377 23.0898C18.557 22.9698 18.7575 22.9102 18.9775 22.9102ZM21.875 11.667C21.8753 12.472 22.528 13.1257 23.333 13.126H27.7012C27.6651 12.2661 27.3788 11.4336 26.8711 10.7354L24.6162 7.63477C23.9515 6.72119 22.9663 6.10844 21.875 5.90625V11.667Z" fill="#FC6D26"/>
</g>
</svg>
