<svg width="24" height="24" viewBox="0 0 24 24" fill="none" xmlns="http://www.w3.org/2000/svg">
<mask id="mask0_2669_83" style="mask-type:alpha" maskUnits="userSpaceOnUse" x="0" y="0" width="24" height="24">
<rect width="24" height="24" fill="#0A77F3"/>
</mask>
<g mask="url(#mask0_2669_83)">
<path d="M9.40423 13.3831L9.73129 12.0749C9.90712 11.3715 10.2708 10.7292 10.7834 10.2166L16.0858 4.91421C16.8668 4.13317 18.1332 4.13317 18.9142 4.91421L19.0858 5.08579C19.8668 5.86684 19.8668 7.13317 19.0858 7.91421L13.5876 13.4124C13.2031 13.7969 12.7214 14.0697 12.1939 14.2015L10.6169 14.5958C9.88452 14.7789 9.22113 14.1155 9.40423 13.3831Z" stroke="#0A77F3" stroke-width="1.5"/>
<path d="M10.5 5H8C5.79086 5 4 6.79086 4 9V15C4 17.2091 5.79086 19 8 19H16C18.2091 19 20 17.2091 20 15V13.5" stroke="#0A77F3" stroke-width="2" stroke-linecap="round"/>
<path d="M15 6L18 9" stroke="#0A77F3" stroke-width="1.5"/>
</g>
</svg>
