<svg width="24" height="24" viewBox="0 0 24 24" fill="none" xmlns="http://www.w3.org/2000/svg">
<mask id="mask0_1365_70" style="mask-type:alpha" maskUnits="userSpaceOnUse" x="0" y="0" width="24" height="24">
<rect width="24" height="24" fill="#0A77F3"/>
</mask>
<g mask="url(#mask0_1365_70)">
<path d="M14.4541 3C16.0537 3.00006 17.5562 3.68926 18.4971 4.85352L20.0439 6.7666C20.6652 7.53559 20.9999 8.46231 21 9.41309V16.5C21 18.9853 18.7614 21 16 21H8C5.23858 21 3 18.9853 3 16.5V7.5C3 5.01472 5.23858 3 8 3H14.4541ZM8 4.7998C6.34315 4.7998 5 6.00883 5 7.5V16.5C5 17.9912 6.34315 19.2002 8 19.2002H16C17.6569 19.2002 19 17.9912 19 16.5V11.0996H16C14.3433 11.0996 13.0002 9.89138 13 8.40039V4.7998H8ZM15 8.40039C15.0002 8.89727 15.4479 9.2998 16 9.2998H18.9951C18.9702 8.76928 18.7739 8.25598 18.4258 7.8252L16.8799 5.91211C16.4241 5.34814 15.7485 4.96952 15 4.84473V8.40039Z" fill="#9C4EAF"/>
<path d="M18 16.3256C18 16.6647 17.9122 16.9592 17.7367 17.2091C17.5611 17.459 17.3167 17.6508 17.0036 17.7847C16.6904 17.923 16.325 17.9922 15.9075 17.9922C15.5706 17.9922 15.2527 17.9476 14.9537 17.8583C14.6595 17.7691 14.4033 17.6553 14.1851 17.517L14.6263 16.7138C14.8019 16.8253 14.9917 16.9124 15.1957 16.9748C15.3998 17.0373 15.6062 17.0685 15.8149 17.0685C16.0095 17.0685 16.1756 17.0395 16.3132 16.9815C16.4508 16.9235 16.5552 16.841 16.6263 16.7339C16.7023 16.6268 16.7402 16.4996 16.7402 16.3524V13.0325H18V16.3256ZM15.6157 12.9924C15.9336 12.9879 16.204 13.0571 16.427 13.1999C16.6548 13.3382 16.8256 13.5368 16.9395 13.7956C17.0581 14.0499 17.1174 14.3533 17.1174 14.7058C17.1174 15.0628 17.0605 15.3729 16.9466 15.6362C16.8327 15.895 16.6643 16.0958 16.4413 16.2386C16.223 16.3769 15.9573 16.4461 15.6441 16.4461C15.3262 16.4461 15.0415 16.3747 14.79 16.2319C14.5433 16.0846 14.3488 15.8816 14.2064 15.6228C14.0688 15.3595 14 15.0517 14 14.6991C14 14.3556 14.0664 14.0566 14.1993 13.8023C14.3369 13.5479 14.5267 13.3494 14.7687 13.2066C15.0154 13.0638 15.2977 12.9924 15.6157 12.9924ZM15.9644 13.8759C15.8078 13.8759 15.6702 13.9116 15.5516 13.983C15.4377 14.0544 15.3476 14.1548 15.2811 14.2842C15.2147 14.4136 15.1815 14.5631 15.1815 14.7326C15.1815 14.9022 15.2147 15.0517 15.2811 15.1811C15.3476 15.3105 15.4377 15.4109 15.5516 15.4822C15.6702 15.5536 15.8078 15.5893 15.9644 15.5893C16.1163 15.5893 16.2491 15.5536 16.363 15.4822C16.4816 15.4109 16.5741 15.3105 16.6406 15.1811C16.707 15.0517 16.7402 14.9022 16.7402 14.7326C16.7402 14.5631 16.707 14.4136 16.6406 14.2842C16.5741 14.1548 16.4816 14.0544 16.363 13.983C16.2491 13.9116 16.1163 13.8759 15.9644 13.8759Z" fill="#9C4EAF"/>
<path d="M9 12.9922H10.5561L11.517 15.7922L12.4864 12.9922H14L12.2738 16.9922H10.7177L9 12.9922Z" fill="#9C4EAF"/>
<path d="M8.61945 14.2607C8.40803 14.1357 8.2093 14.0396 8.02326 13.9724C7.83721 13.9051 7.6723 13.8715 7.52854 13.8715C7.43552 13.8715 7.35729 13.8931 7.29387 13.9363C7.23467 13.9748 7.20507 14.0372 7.20507 14.1237C7.20507 14.2102 7.24736 14.2799 7.33192 14.3327C7.42072 14.3808 7.53277 14.4288 7.66808 14.4769C7.80761 14.5201 7.95349 14.5682 8.10571 14.621C8.25793 14.6739 8.40169 14.7459 8.537 14.8372C8.67653 14.9237 8.78859 15.0414 8.87315 15.1904C8.95772 15.3345 9 15.5195 9 15.7453C9 16.0096 8.93658 16.2354 8.80973 16.4228C8.68711 16.6102 8.51586 16.7519 8.29598 16.848C8.08034 16.9441 7.83087 16.9922 7.54757 16.9922C7.26004 16.9922 6.98309 16.9465 6.7167 16.8553C6.45032 16.764 6.21142 16.627 6 16.4444L6.35518 15.63C6.55391 15.7838 6.75898 15.9039 6.9704 15.9904C7.18182 16.0721 7.38266 16.1129 7.57294 16.1129C7.64482 16.1129 7.70613 16.1033 7.75687 16.0841C7.81184 16.0649 7.85412 16.0384 7.88372 16.0048C7.91755 15.9664 7.93446 15.9183 7.93446 15.8607C7.93446 15.7694 7.89218 15.6973 7.80761 15.6444C7.72305 15.5868 7.61311 15.5387 7.4778 15.5003C7.3425 15.4571 7.19873 15.409 7.04651 15.3562C6.89429 15.3033 6.75053 15.2336 6.61522 15.1471C6.48414 15.0559 6.37632 14.9381 6.29175 14.794C6.20719 14.6498 6.16491 14.4649 6.16491 14.239C6.16491 13.97 6.22622 13.7441 6.34884 13.5616C6.47569 13.3742 6.64271 13.2324 6.8499 13.1363C7.06131 13.0402 7.30233 12.9922 7.57294 12.9922C7.82241 12.9922 8.06977 13.0306 8.31501 13.1075C8.56025 13.1796 8.78858 13.2901 9 13.439L8.61945 14.2607Z" fill="#9C4EAF"/>
</g>
</svg>
