<svg width="24" height="24" viewBox="0 0 24 24" fill="none" xmlns="http://www.w3.org/2000/svg">
<mask id="mask0_1715_38" style="mask-type:alpha" maskUnits="userSpaceOnUse" x="0" y="0" width="24" height="24">
<rect width="24" height="24" fill="#868686"/>
</mask>
<g mask="url(#mask0_1715_38)">
<path d="M19.9138 19.9144L18.4997 21.3285L2 4.41406L3.41406 3L19.9138 19.9144Z" fill="#868686"/>
<path d="M7.44629 7.56738C7.39219 7.6008 7.33789 7.63423 7.28418 7.66895C5.85236 8.5945 4.75758 9.84295 4 11.4141C4.75758 12.9852 5.85236 14.2336 7.28418 15.1592C8.71597 16.0847 10.2879 16.5479 12 16.5479C13.2917 16.5479 14.5036 16.2837 15.6357 15.7568L17.0234 17.1445C15.4799 17.9897 13.8061 18.4141 12 18.4141C9.78788 18.4141 7.77228 17.7805 5.9541 16.5127C4.136 15.2449 2.81816 13.5451 2 11.4141C2.81816 9.28301 4.136 7.5832 5.9541 6.31543C6.00148 6.28239 6.05001 6.25093 6.09766 6.21875L7.44629 7.56738ZM12 4.41406C14.2121 4.41406 16.2277 5.04765 18.0459 6.31543C19.864 7.5832 21.1818 9.28301 22 11.4141C21.2858 13.2742 20.1899 14.8044 18.7139 16.0068L17.3867 14.6797C18.4937 13.8168 19.3657 12.7295 20 11.4141C19.2424 9.84295 18.1476 8.5945 16.7158 7.66895C15.284 6.74344 13.7121 6.28027 12 6.28027C11.0877 6.28027 10.2155 6.413 9.38281 6.67578L7.92871 5.22168C9.20238 4.68388 10.5592 4.41406 12 4.41406ZM9.92773 10.0488C9.67322 10.448 9.5459 10.9029 9.5459 11.4141C9.5459 12.1141 10.0227 12.4241 10.5 12.9141C10.9773 13.4041 11.3182 13.9336 12 13.9336C12.5209 13.9336 12.9813 13.7899 13.3828 13.5039L14.5713 14.6924C13.8422 15.3065 12.9854 15.6143 12 15.6143C10.8636 15.6143 9.89799 15.2053 9.10254 14.3887C8.30713 13.572 7.90918 12.5807 7.90918 11.4141C7.90918 10.441 8.18595 9.58992 8.73926 8.86035L9.92773 10.0488ZM12 7.21387C13.1364 7.21387 14.102 7.62279 14.8975 8.43945C15.6929 9.25611 16.0908 10.2474 16.0908 11.4141C16.0908 12.0119 15.9853 12.5634 15.7764 13.0693L14.4355 11.7285C14.4468 11.6261 14.4541 11.5214 14.4541 11.4141C14.4541 10.7141 14.2156 10.1189 13.7383 9.62891C13.2611 9.13908 12.6817 8.89453 12 8.89453C11.8726 8.89453 11.7491 8.90478 11.6289 8.92188L10.2881 7.58105C10.8078 7.33661 11.3783 7.21387 12 7.21387Z" fill="#868686"/>
</g>
</svg>
