<svg width="24" height="24" viewBox="0 0 24 24" fill="none" xmlns="http://www.w3.org/2000/svg">
<mask id="mask0_1272_19" style="mask-type:alpha" maskUnits="userSpaceOnUse" x="0" y="0" width="24" height="24">
<rect width="24" height="24" fill="#0A77F3"/>
</mask>
<g mask="url(#mask0_1272_19)">
<path d="M14.901 4C16.3588 4.25223 17.7536 4.69653 19.0563 5.30762C21.6838 9.27819 22.3958 13.1508 22.0397 16.9678C20.297 18.2691 18.6082 19.0598 16.9479 19.5771C16.5379 19.0129 16.172 18.4124 15.857 17.7803C16.4569 17.5523 17.032 17.2709 17.5748 16.9443C17.4308 16.8376 17.289 16.7261 17.1529 16.6113C13.8416 18.16 10.244 18.1601 6.97227 16.6113C6.83464 16.7261 6.69375 16.8377 6.55137 16.9443C7.09588 17.2725 7.67218 17.5543 8.27208 17.7822C7.95711 18.4127 7.59276 19.014 7.18126 19.5781C5.51943 19.0608 3.82906 18.2706 2.08653 16.9678C1.66865 12.5429 2.79999 8.70617 5.07774 5.30469C6.3803 4.69526 7.77303 4.25223 9.22911 4C9.40795 4.32334 9.61728 4.75853 9.76134 5.10449C11.3094 4.87169 12.8433 4.87169 14.3629 5.10449C14.5069 4.75853 14.7205 4.32334 14.901 4ZM9.37071 11.5176C8.11202 11.5177 7.09141 12.5381 7.09141 13.7969C7.09157 14.186 7.40736 14.502 7.79649 14.502C8.18555 14.5019 8.50141 14.1859 8.50157 13.7969C8.50157 13.3166 8.89047 12.9269 9.37071 12.9268C9.85101 12.9269 10.2408 13.3166 10.2408 13.7969C10.241 14.186 10.5568 14.502 10.9459 14.502C11.3348 14.5017 11.6498 14.1858 11.65 13.7969C11.65 12.5381 10.6295 11.5177 9.37071 11.5176ZM15.1549 11.5176C13.8961 11.5176 12.8756 12.538 12.8756 13.7969C12.8758 14.1858 13.1908 14.5017 13.5797 14.502C13.9688 14.502 14.2846 14.186 14.2848 13.7969C14.2848 13.3165 14.6745 12.9268 15.1549 12.9268C15.6352 12.9269 16.025 13.3166 16.025 13.7969C16.0252 14.1858 16.3402 14.5017 16.7291 14.502C17.1181 14.5018 17.434 14.1859 17.4342 13.7969C17.4342 12.5381 16.4136 11.5177 15.1549 11.5176Z" fill="#868686"/>
</g>
</svg>
