<svg width="35" height="35" viewBox="0 0 35 35" fill="none" xmlns="http://www.w3.org/2000/svg">
<mask id="mask0_1354_618" style="mask-type:alpha" maskUnits="userSpaceOnUse" x="0" y="0" width="35" height="35">
<rect width="35" height="35" fill="#0A77F3"/>
</mask>
<g mask="url(#mask0_1354_618)">
<path d="M21.0791 2.91602C23.4118 2.91619 25.6026 4.03436 26.9746 5.9209L29.2305 9.02051C30.1363 10.2665 30.6249 11.7681 30.625 13.3086V24.792C30.6247 28.8188 27.3599 32.084 23.333 32.084H11.667C7.64008 32.084 4.37526 28.8188 4.375 24.792V10.209C4.375 6.18191 7.63992 2.91602 11.667 2.91602H21.0791ZM12.7568 21.54C12.3105 21.5401 11.9242 21.6535 11.5977 21.8799C11.4354 21.9915 11.2916 22.129 11.167 22.292V21.5996H9.3877V28.9404H11.167V26.3008C11.2975 26.4681 11.4467 26.6122 11.6172 26.7305C11.9504 26.9503 12.3438 27.0595 12.7969 27.0596C13.3035 27.0596 13.7408 26.9464 14.1074 26.7197C14.4806 26.4931 14.7668 26.173 14.9668 25.7598C15.1734 25.3465 15.2773 24.87 15.2773 24.3301C15.2773 23.7635 15.1703 23.2736 14.957 22.8604C14.7504 22.4404 14.4571 22.1163 14.0771 21.8896C13.7039 21.6564 13.2634 21.54 12.7568 21.54ZM19.873 22.3057C19.7405 22.1331 19.5875 21.9876 19.4131 21.8701C19.0864 21.6435 18.6924 21.5303 18.2324 21.5303C17.7393 21.5303 17.3027 21.6467 16.9229 21.8799C16.5495 22.1065 16.2594 22.4234 16.0527 22.8301C15.8527 23.2367 15.7529 23.7172 15.7529 24.2705C15.753 24.8303 15.8559 25.3203 16.0625 25.7402C16.2691 26.1601 16.5626 26.4864 16.9424 26.7197C17.3223 26.953 17.7659 27.0703 18.2725 27.0703C18.7257 27.0703 19.1127 26.957 19.4326 26.7305C19.5997 26.6145 19.7461 26.4722 19.873 26.3057V27H21.6523V19.5801H19.873V22.3057ZM25.458 19.5C25.0649 19.5 24.7116 19.5732 24.3984 19.7197C24.0852 19.8597 23.8351 20.0667 23.6484 20.3398C23.4685 20.6131 23.378 20.9498 23.3779 21.3496V21.8496H22.6484V23.0098H23.3779V27H25.1484V23.0098H26.3477V21.8496H25.1484V21.4805C25.1484 21.3539 25.1743 21.2468 25.2275 21.1602C25.2808 21.067 25.351 21 25.4375 20.96C25.5308 20.92 25.6379 20.9004 25.7578 20.9004C25.8511 20.9004 25.9479 20.9138 26.0479 20.9404C26.1545 20.9671 26.2584 21 26.3584 21.04L26.5879 19.71C26.4213 19.6433 26.238 19.5929 26.0381 19.5596C25.8448 19.5196 25.6513 19.5 25.458 19.5ZM18.7129 22.9502C18.946 22.9502 19.149 23.0069 19.3223 23.1201C19.4955 23.2334 19.6293 23.3931 19.7227 23.5996C19.8227 23.8063 19.873 24.047 19.873 24.3203C19.873 24.5935 19.8226 24.8334 19.7227 25.04C19.6293 25.24 19.4956 25.4005 19.3223 25.5205C19.1491 25.6336 18.9459 25.6904 18.7129 25.6904C18.4797 25.6904 18.2727 25.6337 18.0928 25.5205C17.9194 25.4005 17.7826 25.24 17.6826 25.04C17.5893 24.8334 17.543 24.5935 17.543 24.3203C17.543 24.047 17.5893 23.8063 17.6826 23.5996C17.7826 23.3931 17.9195 23.2334 18.0928 23.1201C18.2728 23.0068 18.4796 22.9502 18.7129 22.9502ZM12.3174 22.9102C12.5505 22.9102 12.7536 22.9701 12.9268 23.0898C13.1068 23.2032 13.2436 23.3636 13.3369 23.5703C13.4369 23.777 13.4873 24.0137 13.4873 24.2803C13.4873 24.5468 13.4369 24.7836 13.3369 24.9902C13.2436 25.1968 13.1067 25.3605 12.9268 25.4805C12.7536 25.5936 12.5504 25.6504 12.3174 25.6504C12.0974 25.6504 11.8968 25.5938 11.7168 25.4805C11.5435 25.3672 11.4076 25.2066 11.3076 25C11.2143 24.7867 11.167 24.5468 11.167 24.2803C11.167 24.007 11.2143 23.7703 11.3076 23.5703C11.4076 23.3637 11.5436 23.2032 11.7168 23.0898C11.8968 22.9698 12.0974 22.9102 12.3174 22.9102ZM21.875 11.667C21.8753 12.472 22.528 13.1257 23.333 13.126H27.7012C27.6651 12.2661 27.3788 11.4336 26.8711 10.7354L24.6162 7.63477C23.9515 6.72119 22.9663 6.10844 21.875 5.90625V11.667Z" fill="#E03838"/>
</g>
</svg>
