<svg width="24" height="24" viewBox="0 0 24 24" fill="none" xmlns="http://www.w3.org/2000/svg">
<mask id="mask0_2568_25" style="mask-type:alpha" maskUnits="userSpaceOnUse" x="0" y="0" width="24" height="24">
<rect width="24" height="24" fill="#0A77F3"/>
</mask>
<g mask="url(#mask0_2568_25)">
<path d="M10.9975 17.167H6.48299C6.08179 17.167 5.84772 16.6473 6.06108 16.2633C6.07406 16.2399 6.09067 16.2188 6.10852 16.1989L8.31212 13.7405C8.32997 13.7206 8.34586 13.699 8.36178 13.6775C8.56085 13.4089 8.9196 13.4089 9.11866 13.6775C9.13459 13.699 9.15048 13.7206 9.16833 13.7405L11.3719 16.1989C11.3898 16.2188 11.4064 16.2399 11.4194 16.2633C11.6327 16.6473 11.3987 17.167 10.9975 17.167Z" fill="#0A77F3"/>
<path d="M17.4779 17.167H10.8707C10.4501 17.167 10.2163 16.5983 10.479 16.2143L13.7826 11.3871C13.9834 11.0936 14.3652 11.0936 14.566 11.3871L17.8696 16.2143C18.1324 16.5983 17.8985 17.167 17.4779 17.167Z" fill="#0A77F3"/>
<path d="M7 8.5C7 7.67157 7.67157 7 8.5 7V7C9.32843 7 10 7.67157 10 8.5V8.5C10 9.32843 9.32843 10 8.5 10V10C7.67157 10 7 9.32843 7 8.5V8.5Z" fill="#0A77F3"/>
<path d="M2 17V7C2 4.23858 4.23858 2 7 2H12C12.5523 2 13 2.44772 13 3C13 3.55228 12.5523 4 12 4H7C5.34315 4 4 5.34315 4 7V17C4 18.6569 5.34315 20 7 20H17C18.6569 20 20 18.6569 20 17V12C20 11.4477 20.4477 11 21 11C21.5523 11 22 11.4477 22 12V17C22 19.7614 19.7614 22 17 22H7C4.23858 22 2 19.7614 2 17Z" fill="#0A77F3"/>
<path d="M16.9996 9.50017V5.20232L15.7584 6.65057C15.3989 7.06989 14.7685 7.11839 14.3492 6.75896C13.9299 6.39954 13.8814 5.76911 14.2408 5.34978L16.481 2.73553C17.2792 1.8043 18.7199 1.8043 19.5181 2.73553L21.7584 5.34978C22.1178 5.76911 22.0693 6.39954 21.65 6.75896C21.2306 7.11839 20.6002 7.06989 20.2408 6.65057L18.9996 5.20232V9.50017C18.9996 10.0525 18.5519 10.5002 17.9996 10.5002C17.4473 10.5002 16.9996 10.0525 16.9996 9.50017Z" fill="#0A77F3"/>
</g>
</svg>
