<svg width="24" height="24" viewBox="0 0 24 24" fill="none" xmlns="http://www.w3.org/2000/svg">
<mask id="mask0_695_74" style="mask-type:alpha" maskUnits="userSpaceOnUse" x="0" y="0" width="24" height="24">
<rect x="24" y="24" width="24" height="24" transform="rotate(-180 24 24)" fill="#7F7F7F"/>
</mask>
<g mask="url(#mask0_695_74)">
<path d="M12 16L17 11L15.6 9.6L13 12.175L13 2L11 2L11 12.175L8.4 9.6L7 11L12 16ZM20.35 6.5C20.8833 7.31667 21.2917 8.19167 21.575 9.125C21.8583 10.0583 22 11.0167 22 12C22 13.3833 21.7375 14.6833 21.2125 15.9C20.6875 17.1167 19.975 18.175 19.075 19.075C18.175 19.975 17.1167 20.6875 15.9 21.2125C14.6833 21.7375 13.3833 22 12 22C10.6167 22 9.31667 21.7375 8.1 21.2125C6.88333 20.6875 5.825 19.975 4.925 19.075C4.025 18.175 3.3125 17.1167 2.7875 15.9C2.2625 14.6833 2 13.3833 2 12C2 11.0167 2.14167 10.0583 2.425 9.125C2.70833 8.19167 3.11667 7.31667 3.65 6.5L5.1 7.95C4.73333 8.56667 4.45833 9.21667 4.275 9.9C4.09167 10.5833 4 11.2833 4 12C4 14.2333 4.775 16.125 6.325 17.675C7.875 19.225 9.76667 20 12 20C14.2333 20 16.125 19.225 17.675 17.675C19.225 16.125 20 14.2333 20 12C20 11.2833 19.9083 10.5833 19.725 9.9C19.5417 9.21667 19.2667 8.56667 18.9 7.95L20.35 6.5Z" fill="#7F7F7F"/>
</g>
</svg>
