<svg width="24" height="24" viewBox="0 0 24 24" fill="none" xmlns="http://www.w3.org/2000/svg">
<mask id="mask0_1590_14" style="mask-type:alpha" maskUnits="userSpaceOnUse" x="0" y="0" width="24" height="24">
<rect width="24" height="24" fill="#0A77F3"/>
</mask>
<g mask="url(#mask0_1590_14)">
<path d="M10 4V6H8C6.34315 6 5 7.34315 5 9V15C5 16.6569 6.34315 18 8 18H16C17.6568 17.9999 19 16.6568 19 15V13H21V15C21 17.6752 18.8988 19.8594 16.2568 19.9932L16 20H8C5.23858 20 3 17.7614 3 15V9C3 6.23858 5.23858 4 8 4H10Z" fill="#868686"/>
<path d="M9.40423 13.3831L10 11L16.0858 4.91421C16.8668 4.13317 18.1332 4.13317 18.9142 4.91421L19.0858 5.08579C19.8668 5.86684 19.8668 7.13317 19.0858 7.91421L13 14L10.6169 14.5958C9.88452 14.7789 9.22113 14.1155 9.40423 13.3831Z" stroke="#868686" stroke-width="1.5"/>
</g>
</svg>
