<svg width="35" height="35" viewBox="0 0 35 35" fill="none" xmlns="http://www.w3.org/2000/svg">
<path d="M21.0791 2.91602C23.4118 2.91619 25.6026 4.03436 26.9746 5.9209L29.2305 9.02051C30.1363 10.2665 30.6249 11.7681 30.625 13.3086V24.792C30.6247 28.8188 27.3599 32.084 23.333 32.084H11.667C7.64008 32.084 4.37526 28.8188 4.375 24.792V10.209C4.375 6.75559 6.77637 3.86372 10 3.10938V4H12V2.91602H21.0791ZM10.2441 17C9.80263 17.0001 9.41301 17.29 9.28613 17.7129L8.33398 20.8867C8.1204 21.5987 8.20079 22.3669 8.55664 23.0195C9.61164 24.9537 12.3893 24.9537 13.4443 23.0195C13.8001 22.367 13.8796 21.5986 13.666 20.8867L12.7139 17.7129C12.587 17.2899 12.1975 17 11.7559 17H10.2441ZM9.21094 21.3945C10.337 20.8315 11.663 20.8315 12.7891 21.3945L13 21.5C13 22.6046 12.1046 23.5 11 23.5C9.89554 23.4999 9 22.6045 9 21.5L9.21094 21.3945ZM10 14V16H12V14H10ZM21.875 11.667C21.8753 12.472 22.528 13.1257 23.333 13.126H27.7012C27.6651 12.2661 27.3788 11.4336 26.8711 10.7354L24.6162 7.63477C23.9515 6.72119 22.9663 6.10844 21.875 5.90625V11.667ZM10 12H12V10H10V12ZM10 8H12V6H10V8Z" fill="#FFC506"/>
<mask id="mask0_1355_698" style="mask-type:alpha" maskUnits="userSpaceOnUse" x="0" y="0" width="35" height="35">
<rect width="35" height="35" fill="#0A77F3"/>
</mask>
<g mask="url(#mask0_1355_698)">
</g>
</svg>
