<svg width="23" height="18" viewBox="0 0 23 18" fill="none" xmlns="http://www.w3.org/2000/svg">
<path d="M2.25 18C1.63125 18 1.10156 17.7797 0.660938 17.3391C0.220313 16.8984 0 16.3688 0 15.75V2.25C0 1.63125 0.220313 1.10156 0.660938 0.660938C1.10156 0.220313 1.63125 0 2.25 0H20.25C20.8688 0 21.3984 0.220313 21.8391 0.660938C22.2797 1.10156 22.5 1.63125 22.5 2.25V15.75C22.5 16.3688 22.2797 16.8984 21.8391 17.3391C21.3984 17.7797 20.8688 18 20.25 18H2.25ZM11.25 10.125L20.25 4.5V2.25L11.25 7.875L2.25 2.25V4.5L11.25 10.125Z" fill="#3D3D3D"/>
</svg>
