<svg width="24" height="24" viewBox="0 0 24 24" fill="none" xmlns="http://www.w3.org/2000/svg">
<mask id="mask0_1390_53" style="mask-type:alpha" maskUnits="userSpaceOnUse" x="0" y="0" width="24" height="24">
<rect width="24" height="24" fill="white"/>
</mask>
<g mask="url(#mask0_1390_53)">
<path d="M12 15.6L16.5 11.1L15.24 9.84L12.9 12.1575L12.9 3L11.1 3L11.1 12.1575L8.76 9.84L7.5 11.1L12 15.6ZM19.515 7.05C19.995 7.785 20.3625 8.5725 20.6175 9.4125C20.8725 10.2525 21 11.115 21 12C21 13.245 20.7638 14.415 20.2913 15.51C19.8188 16.605 19.1775 17.5575 18.3675 18.3675C17.5575 19.1775 16.605 19.8187 15.51 20.2912C14.415 20.7637 13.245 21 12 21C10.755 21 9.585 20.7637 8.49 20.2912C7.395 19.8187 6.4425 19.1775 5.6325 18.3675C4.8225 17.5575 4.18125 16.605 3.70875 15.51C3.23625 14.415 3 13.245 3 12C3 11.115 3.1275 10.2525 3.3825 9.4125C3.6375 8.5725 4.005 7.785 4.485 7.05L5.79 8.355C5.46 8.91 5.2125 9.495 5.0475 10.11C4.8825 10.725 4.8 11.355 4.8 12C4.8 14.01 5.4975 15.7125 6.8925 17.1075C8.2875 18.5025 9.99 19.2 12 19.2C14.01 19.2 15.7125 18.5025 17.1075 17.1075C18.5025 15.7125 19.2 14.01 19.2 12C19.2 11.355 19.1175 10.725 18.9525 10.11C18.7875 9.495 18.54 8.91 18.21 8.355L19.515 7.05Z" fill="white"/>
</g>
</svg>
