<svg width="35" height="35" viewBox="0 0 35 35" fill="none" xmlns="http://www.w3.org/2000/svg">
<mask id="mask0_1355_767" style="mask-type:alpha" maskUnits="userSpaceOnUse" x="0" y="0" width="35" height="35">
<rect width="35" height="35" fill="#0F9F53"/>
</mask>
<g mask="url(#mask0_1355_767)">
<path d="M21.0791 2.91602C23.4118 2.91619 25.6026 4.03436 26.9746 5.9209L29.2305 9.02051C30.1363 10.2665 30.6249 11.7681 30.625 13.3086V24.792C30.6247 28.8188 27.3599 32.084 23.333 32.084H11.667C7.64008 32.084 4.37526 28.8188 4.375 24.792V10.209C4.375 6.18191 7.63992 2.91602 11.667 2.91602H21.0791ZM22.2344 21.5205C21.8079 21.5205 21.4279 21.5865 21.0947 21.7197C20.7682 21.853 20.5047 22.0497 20.3047 22.3096C20.1114 22.5629 20.0147 22.8767 20.0146 23.25C20.0146 23.5633 20.0815 23.8205 20.2148 24.0205C20.3481 24.2203 20.5182 24.3832 20.7246 24.5098C20.9378 24.6297 21.1644 24.7265 21.4043 24.7998C21.6443 24.8731 21.8716 24.94 22.085 25C22.2981 25.0533 22.4712 25.1202 22.6045 25.2002C22.7378 25.2735 22.8047 25.3733 22.8047 25.5C22.8047 25.58 22.7779 25.6469 22.7246 25.7002C22.6779 25.7468 22.611 25.7829 22.5244 25.8096C22.4444 25.8362 22.3477 25.8496 22.2344 25.8496C21.9345 25.8496 21.6174 25.793 21.2842 25.6797C20.951 25.5597 20.6276 25.3929 20.3145 25.1797L19.7549 26.3096C20.0882 26.5629 20.4648 26.7532 20.8848 26.8799C21.3046 27.0065 21.7411 27.0703 22.1943 27.0703C22.641 27.0703 23.035 27.0035 23.375 26.8701C23.7214 26.7368 23.9913 26.5401 24.1846 26.2803C24.3846 26.0203 24.4844 25.7065 24.4844 25.3398C24.4843 25.0266 24.4175 24.7703 24.2842 24.5703C24.1509 24.3637 23.9748 24.2001 23.7549 24.0801C23.5415 23.9534 23.3142 23.8536 23.0742 23.7803C22.8344 23.707 22.6046 23.64 22.3848 23.5801C22.1714 23.5134 21.9945 23.4465 21.8545 23.3799C21.7213 23.3066 21.6543 23.2098 21.6543 23.0898C21.6543 22.9699 21.7016 22.8834 21.7949 22.8301C21.8949 22.7702 22.0185 22.7402 22.165 22.7402C22.3915 22.7403 22.6513 22.7867 22.9443 22.8799C23.2377 22.9732 23.5514 23.1069 23.8848 23.2803L24.4844 22.1396C24.1511 21.9331 23.7908 21.7797 23.4043 21.6797C23.0178 21.5731 22.6276 21.5205 22.2344 21.5205ZM10.3896 21.6006L12.1094 24.2305L10.2695 27H12.2295L13.2988 25.3398L14.2598 27H16.3096L14.4795 24.2305L16.1895 21.6006H14.2393L13.2988 23.1299L12.4297 21.6006H10.3896ZM17.083 27H18.8623V19.5801H17.083V27ZM21.875 11.667C21.8753 12.472 22.528 13.1257 23.333 13.126H27.7012C27.6651 12.2661 27.3788 11.4336 26.8711 10.7354L24.6162 7.63477C23.9515 6.72119 22.9663 6.10844 21.875 5.90625V11.667Z" fill="#0F9F53"/>
</g>
</svg>
