<svg width="65" height="30" viewBox="0 0 65 30" fill="none" xmlns="http://www.w3.org/2000/svg">
<path d="M23.25 0C28.4941 0 33.1393 2.56329 36.002 6.50488C38.026 5.22144 40.4269 4.47852 43.001 4.47852C48.9201 4.47865 53.9193 8.40891 55.5361 13.8018L52.8096 19.2158L48.791 11.5215H42.207L49.5039 25.4395V30H41.5303L34.8906 19.5098L42.0527 11.5215H34.4424L28.4863 18.8174V11.5215H21.874V30H18.0352C18.3881 29.715 18.7079 29.3979 18.9941 29.0488C19.773 28.0799 20.163 26.8454 20.1631 25.3447C20.1631 24.2997 19.9728 23.4154 19.5928 22.6934C19.2318 21.9715 18.7373 21.3827 18.1104 20.9268C17.5024 20.4708 16.8278 20.1004 16.0869 19.8154C15.365 19.5115 14.6335 19.2642 13.8926 19.0742C13.1516 18.8652 12.4678 18.6749 11.8408 18.5039C11.2328 18.3329 10.7384 18.1333 10.3584 17.9053C9.99765 17.6583 9.81738 17.3447 9.81738 16.9648C9.81745 16.642 9.93129 16.4142 10.1592 16.2812C10.3872 16.1482 10.682 16.082 11.043 16.082C11.6319 16.0821 12.3252 16.1959 13.123 16.4238C13.94 16.6518 14.7759 16.9466 15.6309 17.3076C16.4858 17.6686 17.2461 18.0483 17.9111 18.4473L20.3057 13.4023C19.1847 12.6804 17.845 12.1011 16.2871 11.6641C14.7481 11.2271 13.1893 11.0088 11.6123 11.0088C10.3168 11.0088 9.14388 11.1574 8.09375 11.4561C9.96288 4.84467 16.0402 8.85947e-05 23.25 0ZM33.6748 30H28.4863V26.6553L30.3691 24.5537L33.6748 30ZM60.8945 16.0889C63.0568 17.4049 64.5009 19.7838 64.501 22.5C64.501 26.6421 61.143 29.9999 57.001 30H56.1152V25.2822L60.8945 16.0889ZM3.16504 16.3809C3.09648 16.7669 3.06252 17.1706 3.0625 17.5918C3.0625 18.6178 3.24349 19.4732 3.60449 20.1572C3.98446 20.8411 4.47805 21.4112 5.08594 21.8672C5.71287 22.3041 6.38746 22.6652 7.10938 22.9502C7.85038 23.2162 8.592 23.4438 9.33301 23.6338C10.0739 23.8048 10.7485 23.9765 11.3564 24.1475C11.9832 24.3184 12.477 24.5275 12.8379 24.7744C13.2179 25.0024 13.4082 25.3065 13.4082 25.6865C13.4081 26.0664 13.2654 26.3511 12.9805 26.541C12.6955 26.712 12.3063 26.7978 11.8125 26.7979C11.1475 26.7979 10.349 26.6551 9.41797 26.3701C8.48704 26.0851 7.55593 25.7054 6.625 25.2305C5.694 24.7555 4.88615 24.2228 4.20215 23.6338L2.16797 27.7734C0.827914 26.4186 0 24.5562 0 22.5C0.000102332 19.9734 1.25037 17.7398 3.16504 16.3809Z" fill="#0A77F3"/>
</svg>
