<svg width="24" height="24" viewBox="0 0 24 24" fill="none" xmlns="http://www.w3.org/2000/svg">
<mask id="mask0_1361_8" style="mask-type:alpha" maskUnits="userSpaceOnUse" x="0" y="0" width="24" height="24">
<rect width="24" height="24" fill="#0A77F3"/>
</mask>
<g mask="url(#mask0_1361_8)">
<path d="M14.4541 2C16.0537 2.00007 17.5562 2.76591 18.4971 4.05957L20.0439 6.18555C20.6653 7.04006 21 8.06945 21 9.12598V17C21 19.7614 18.7614 22 16 22H8C5.23858 22 3 19.7614 3 17V7C3 4.23858 5.23858 2 8 2H14.4541ZM8 4C6.34315 4 5 5.34315 5 7V17C5 18.6569 6.34315 20 8 20H16C17.6569 20 19 18.6569 19 17V11H16C14.3431 11 13 9.65685 13 8V4H8ZM15 8C15 8.55228 15.4477 9 16 9H18.9951C18.9703 8.41045 18.7739 7.84004 18.4258 7.36133L16.8799 5.23535C16.4241 4.60872 15.7485 4.18846 15 4.0498V8Z" fill="#0A77F3"/>
</g>
</svg>
