<svg width="24" height="24" viewBox="0 0 24 24" fill="none" xmlns="http://www.w3.org/2000/svg">
<mask id="mask0_756_19" style="mask-type:alpha" maskUnits="userSpaceOnUse" x="0" y="0" width="24" height="24">
<rect width="24" height="24" fill="white"/>
</mask>
<g mask="url(#mask0_756_19)">
<path d="M10.9496 16.5501L16.5996 10.9001L15.1746 9.4751L10.9496 13.7001L8.82461 11.5751L7.39961 13.0001L10.9496 16.5501ZM11.9996 22.0001C10.7496 22.0001 9.57878 21.7626 8.48711 21.2876C7.39544 20.8126 6.44544 20.1709 5.63711 19.3626C4.82878 18.5543 4.18711 17.6043 3.71211 16.5126C3.23711 15.4209 2.99961 14.2501 2.99961 13.0001C2.99961 11.7501 3.23711 10.5793 3.71211 9.4876C4.18711 8.39593 4.82878 7.44593 5.63711 6.6376C6.44544 5.82926 7.39544 5.1876 8.48711 4.7126C9.57878 4.2376 10.7496 4.0001 11.9996 4.0001C13.2496 4.0001 14.4204 4.2376 15.5121 4.7126C16.6038 5.1876 17.5538 5.82926 18.3621 6.6376C19.1704 7.44593 19.8121 8.39593 20.2871 9.4876C20.7621 10.5793 20.9996 11.7501 20.9996 13.0001C20.9996 14.2501 20.7621 15.4209 20.2871 16.5126C19.8121 17.6043 19.1704 18.5543 18.3621 19.3626C17.5538 20.1709 16.6038 20.8126 15.5121 21.2876C14.4204 21.7626 13.2496 22.0001 11.9996 22.0001ZM5.59961 2.3501L6.99961 3.7501L2.74961 8.0001L1.34961 6.6001L5.59961 2.3501ZM18.3996 2.3501L22.6496 6.6001L21.2496 8.0001L16.9996 3.7501L18.3996 2.3501ZM11.9996 20.0001C13.9496 20.0001 15.6038 19.3209 16.9621 17.9626C18.3204 16.6043 18.9996 14.9501 18.9996 13.0001C18.9996 11.0501 18.3204 9.39593 16.9621 8.0376C15.6038 6.67926 13.9496 6.0001 11.9996 6.0001C10.0496 6.0001 8.39544 6.67926 7.03711 8.0376C5.67878 9.39593 4.99961 11.0501 4.99961 13.0001C4.99961 14.9501 5.67878 16.6043 7.03711 17.9626C8.39544 19.3209 10.0496 20.0001 11.9996 20.0001Z" fill="white"/>
</g>
</svg>
