<svg width="24" height="24" viewBox="0 0 24 24" fill="none" xmlns="http://www.w3.org/2000/svg">
<mask id="mask0_922_111" style="mask-type:alpha" maskUnits="userSpaceOnUse" x="0" y="0" width="24" height="24">
<rect width="23.989" height="23.989" fill="#D9D9D9"/>
</mask>
<g mask="url(#mask0_922_111)">
<path d="M3.99805 18.9912V16.9922H5.99713V9.99536C5.99713 8.61266 6.41361 7.38406 7.24656 6.30955C8.07951 5.23504 9.16235 4.5312 10.4951 4.19802V3.49834C10.4951 3.08186 10.6408 2.72786 10.9324 2.43632C11.2239 2.14479 11.5779 1.99902 11.9944 1.99902C12.4109 1.99902 12.7649 2.14479 13.0564 2.43632C13.3479 2.72786 13.4937 3.08186 13.4937 3.49834V4.19802C14.8264 4.5312 15.9093 5.23504 16.7422 6.30955C17.5752 7.38406 17.9916 8.61266 17.9916 9.99536V16.9922H19.9907V18.9912H3.99805ZM11.9944 21.9899C11.4446 21.9899 10.974 21.7941 10.5825 21.4026C10.191 21.0112 9.9953 20.5405 9.9953 19.9908H13.9935C13.9935 20.5405 13.7977 21.0112 13.4062 21.4026C13.0148 21.7941 12.5441 21.9899 11.9944 21.9899ZM7.99622 16.9922H15.9926V9.99536C15.9926 8.89586 15.6011 7.95463 14.8181 7.17165C14.0351 6.38868 13.0939 5.99719 11.9944 5.99719C10.8949 5.99719 9.95365 6.38868 9.17068 7.17165C8.3877 7.95463 7.99622 8.89586 7.99622 9.99536V16.9922Z" fill="#3D3D3D"/>
</g>
</svg>
