<svg width="26" height="27" viewBox="0 0 26 27" fill="none" xmlns="http://www.w3.org/2000/svg">
<path d="M12.5 0C13.8242 0 14.9047 1.02974 14.9912 2.33203C19.0293 3.42667 22 7.11552 22 11.5V15.1006C24.2822 15.5638 26 17.5811 26 20C26 22.6753 23.8989 24.8595 21.2568 24.9932L21 25H14.9502C14.7186 26.1411 13.7095 27 12.5 27C11.2905 27 10.2814 26.1411 10.0498 25H5C2.23858 25 0 22.7614 0 20C0 17.9497 1.23409 16.1876 3 15.416V11.5C3 7.11585 5.97022 3.42698 10.0078 2.33203C10.0943 1.02971 11.1758 0 12.5 0ZM5 17.7002C3.72975 17.7002 2.7002 18.7297 2.7002 20C2.7002 21.2703 3.72975 22.2998 5 22.2998H21C22.2703 22.2998 23.2998 21.2703 23.2998 20C23.2998 18.7297 22.2703 17.7002 21 17.7002H5ZM12.5 4.7002C8.74446 4.7002 5.7002 7.74446 5.7002 11.5V15H19.2998V11.5C19.2998 7.74446 16.2555 4.7002 12.5 4.7002Z" fill="#7F7F7F"/>
</svg>
