<svg width="24" height="24" viewBox="0 0 24 24" fill="none" xmlns="http://www.w3.org/2000/svg">
<mask id="mask0_2586_101" style="mask-type:alpha" maskUnits="userSpaceOnUse" x="0" y="0" width="24" height="24">
<rect width="24" height="24" fill="#0A77F3"/>
</mask>
<g mask="url(#mask0_2586_101)">
<path d="M8 3H7C4.79086 3 3 4.79086 3 7V8" stroke="#0A77F3" stroke-width="2" stroke-linecap="round"/>
<path d="M16 3H17C19.2091 3 21 4.79086 21 7V8" stroke="#0A77F3" stroke-width="2" stroke-linecap="round"/>
<path d="M16 21L17 21C19.2091 21 21 19.2091 21 17L21 16" stroke="#0A77F3" stroke-width="2" stroke-linecap="round"/>
<path d="M8 21L7 21C4.79086 21 3 19.2091 3 17L3 16" stroke="#0A77F3" stroke-width="2" stroke-linecap="round"/>
<rect x="6" y="6" width="12" height="12" rx="2" stroke="#0A77F3" stroke-width="2"/>
<path d="M9 9H14" stroke="#0A77F3" stroke-width="1.5" stroke-linecap="round"/>
<path d="M9 12H15" stroke="#0A77F3" stroke-width="1.5" stroke-linecap="round"/>
<path d="M9 15H15" stroke="#0A77F3" stroke-width="1.5" stroke-linecap="round"/>
</g>
</svg>
