<svg width="24" height="24" viewBox="0 0 24 24" fill="none" xmlns="http://www.w3.org/2000/svg">
<mask id="mask0_1931_28" style="mask-type:alpha" maskUnits="userSpaceOnUse" x="0" y="0" width="24" height="24">
<rect width="24" height="24" fill="#0A77F3"/>
</mask>
<g mask="url(#mask0_1931_28)">
<path d="M8.00781 8.19531L6.06445 10.1406L5.98535 10.2119C5.82194 10.3458 5.62231 10.4284 5.41211 10.4492L5.30664 10.4541H4.67871C4.08709 10.4541 3.60765 10.9338 3.60742 11.5254V13.6689C3.60751 14.2234 4.02846 14.6802 4.56836 14.7354L4.67871 14.7402H5.80859C6.11231 14.7402 6.40228 14.869 6.60547 15.0947L9.24023 18.0225C9.89724 18.7518 11.1074 18.2865 11.1074 17.3047V11.5596L12.7148 13.3047V17.3047C12.7148 19.7596 9.68726 20.9221 8.04492 19.0977L5.56934 16.3477H4.67871C3.19936 16.3477 2.00009 15.1483 2 13.6689V11.5254C2.00023 10.0462 3.19945 8.84668 4.67871 8.84668H5.08496L6.91895 7.0127L8.00781 8.19531ZM8.76074 5.32324C10.4507 4.39137 12.7147 5.56945 12.7148 7.68359V9.61621L11.1074 7.87109V7.68359C11.1073 7.0072 10.5281 6.57232 9.9502 6.61523L8.76074 5.32324Z" fill="#0A77F3"/>
<path d="M1.82218 2.26456C2.22833 1.89047 2.86108 1.91617 3.23526 2.32218L20.7353 21.3222C21.1094 21.7283 21.0836 22.3611 20.6776 22.7353C20.2715 23.1094 19.6387 23.0836 19.2646 22.6776L1.76456 3.67765C1.39047 3.27149 1.41617 2.63875 1.82218 2.26456Z" fill="#0A77F3"/>
<path d="M18.0811 19.1328C17.4542 19.4482 16.8551 19.6205 16.3887 19.7139C16.1045 19.7707 15.8644 19.7997 15.6924 19.8145C15.6063 19.8218 15.5359 19.8261 15.4854 19.8281C15.4605 19.8291 15.4402 19.8298 15.4248 19.8301H15.3945C14.9507 19.8301 14.5898 19.4702 14.5898 19.0264C14.59 18.5827 14.9498 18.2227 15.3936 18.2227L15.4219 18.2217C15.4497 18.2206 15.4949 18.219 15.5547 18.2139C15.6754 18.2035 15.8548 18.1821 16.0723 18.1387C16.3229 18.0885 16.6185 18.0078 16.9326 17.8857L18.0811 19.1328ZM15.4854 5.36719C15.5359 5.36921 15.6063 5.37349 15.6924 5.38086C15.8644 5.39562 16.1045 5.4246 16.3887 5.48145C16.9545 5.59467 17.7167 5.82209 18.4854 6.2832C20.0752 7.23713 21.5547 9.11105 21.5547 12.5977C21.5547 14.8801 20.9171 16.4688 20.0332 17.5635L18.9287 16.3643C19.5112 15.5546 19.9473 14.3664 19.9473 12.5977C19.9472 9.65605 18.7478 8.31553 17.6592 7.66211C17.0888 7.31988 16.5108 7.14532 16.0723 7.05762C15.8548 7.01414 15.6755 6.9918 15.5547 6.98145C15.4949 6.97633 15.4497 6.97475 15.4219 6.97363C15.4082 6.97309 15.3984 6.97275 15.3936 6.97266C14.9498 6.97266 14.5899 6.61272 14.5898 6.16895C14.5898 5.72512 14.9497 5.36523 15.3936 5.36523H15.4248C15.4402 5.36553 15.4605 5.36619 15.4854 5.36719Z" fill="#0A77F3"/>
<path d="M15.6592 16.5029C15.5842 16.5214 15.5134 16.5391 15.4473 16.5518C15.2839 16.5829 15.1451 16.5981 15.0439 16.6064C14.9934 16.6106 14.9513 16.614 14.9199 16.6152C14.9043 16.6158 14.8903 16.616 14.8799 16.6162H14.8584C14.8579 16.6151 14.8577 16.5858 14.8574 15.8125V16.6162C14.4137 16.6162 14.0539 16.2562 14.0537 15.8125C14.0537 15.5347 14.1948 15.2898 14.4092 15.1455L15.6592 16.5029ZM14.9189 8.58105C14.9504 8.58225 14.9932 8.5857 15.0439 8.58984C15.1451 8.59812 15.2839 8.61343 15.4473 8.64453C15.7715 8.70631 16.2131 8.83136 16.6621 9.08789C17.6131 9.63126 18.4735 10.6998 18.4736 12.5977C18.4735 13.6868 18.1888 14.5023 17.7676 15.1025L16.6289 13.8672C16.7709 13.5534 16.8662 13.1422 16.8662 12.5977C16.8661 11.2825 16.3203 10.7435 15.8652 10.4834C15.6114 10.3384 15.3496 10.2614 15.1465 10.2227C15.0469 10.2037 14.9655 10.1947 14.9131 10.1904C14.8871 10.1883 14.8682 10.1879 14.8584 10.1875H14.8564L14.8574 10.1865C14.4136 10.1865 14.0538 9.82756 14.0537 9.38379C14.0537 8.93997 14.4136 8.58008 14.8574 8.58008V8.99805C14.8576 8.58055 14.858 8.58008 14.8584 8.58008H14.8799C14.8901 8.58027 14.9035 8.58047 14.9189 8.58105Z" fill="#0A77F3"/>
</g>
</svg>
