<svg width="35" height="35" viewBox="0 0 35 35" fill="none" xmlns="http://www.w3.org/2000/svg">
<mask id="mask0_1355_664" style="mask-type:alpha" maskUnits="userSpaceOnUse" x="0" y="0" width="35" height="35">
<rect width="35" height="35" fill="#2E71D3"/>
</mask>
<g mask="url(#mask0_1355_664)">
<path d="M21.0791 2.91602C23.4118 2.91619 25.6026 4.03436 26.9746 5.9209L29.2305 9.02051C30.1363 10.2665 30.6249 11.7681 30.625 13.3086V24.792C30.6247 28.8188 27.3599 32.084 23.333 32.084H11.667C7.64008 32.084 4.37526 28.8188 4.375 24.792V10.209C4.375 6.18191 7.63992 2.91602 11.667 2.91602H21.0791ZM12.4316 19.5801V22.3057C12.2991 22.1331 12.1461 21.9876 11.9717 21.8701C11.645 21.6435 11.251 21.5303 10.791 21.5303C10.2979 21.5303 9.86133 21.6467 9.48145 21.8799C9.10812 22.1065 8.81799 22.4234 8.61133 22.8301C8.41133 23.2367 8.31152 23.7172 8.31152 24.2705C8.31158 24.8303 8.41448 25.3203 8.62109 25.7402C8.82769 26.1601 9.12118 26.4864 9.50098 26.7197C9.88092 26.953 10.3245 27.0703 10.8311 27.0703C11.2843 27.0703 11.6713 26.957 11.9912 26.7305C12.1583 26.6145 12.3046 26.4722 12.4316 26.3057V27H14.2109V19.5801H12.4316ZM18.127 21.54C17.5336 21.54 17.0131 21.6532 16.5664 21.8799C16.1264 22.1065 15.7828 22.4265 15.5361 22.8398C15.2961 23.2532 15.1768 23.7367 15.1768 24.29C15.1768 24.8433 15.2962 25.33 15.5361 25.75C15.7828 26.1633 16.1265 26.4864 16.5664 26.7197C17.0131 26.9464 17.5336 27.0596 18.127 27.0596C18.7201 27.0595 19.2369 26.9463 19.6768 26.7197C20.1233 26.4864 20.4702 26.1632 20.7168 25.75C20.9634 25.33 21.0869 24.8433 21.0869 24.29C21.0869 23.7367 20.9635 23.2532 20.7168 22.8398C20.4702 22.4266 20.1234 22.1065 19.6768 21.8799C19.2369 21.6533 18.7201 21.5401 18.127 21.54ZM24.3535 21.54C23.7937 21.54 23.3037 21.6565 22.8838 21.8896C22.4638 22.1163 22.1367 22.4404 21.9033 22.8604C21.6701 23.2736 21.5537 23.7604 21.5537 24.3203C21.5537 24.8668 21.667 25.3465 21.8936 25.7598C22.1268 26.1729 22.4533 26.4931 22.873 26.7197C23.2929 26.9463 23.7799 27.0595 24.333 27.0596C24.9061 27.0596 25.4065 26.9503 25.833 26.7305C26.2597 26.5038 26.5806 26.1869 26.7939 25.7803L25.4834 25.0303C25.3702 25.2433 25.2237 25.4 25.0439 25.5C24.8707 25.5999 24.6637 25.6503 24.4238 25.6504C24.2106 25.6504 24.0201 25.5937 23.8535 25.4805C23.6935 25.3671 23.567 25.2098 23.4736 25.0098C23.387 24.8098 23.3438 24.5762 23.3438 24.3096C23.3438 24.0432 23.3871 23.8102 23.4736 23.6104C23.5669 23.4104 23.6936 23.2571 23.8535 23.1504C24.0202 23.0371 24.2105 22.9805 24.4238 22.9805C24.6569 22.9805 24.86 23.03 25.0332 23.1299C25.2132 23.2232 25.3634 23.3601 25.4834 23.54L26.7734 22.79C26.5402 22.3902 26.2137 22.0834 25.7939 21.8701C25.374 21.6501 24.8935 21.54 24.3535 21.54ZM11.2715 22.9502C11.5046 22.9502 11.7076 23.0069 11.8809 23.1201C12.0541 23.2334 12.1879 23.3931 12.2812 23.5996C12.3812 23.8063 12.4316 24.047 12.4316 24.3203C12.4316 24.5935 12.3812 24.8334 12.2812 25.04C12.1879 25.24 12.0542 25.4005 11.8809 25.5205C11.7077 25.6336 11.5045 25.6904 11.2715 25.6904C11.0383 25.6904 10.8313 25.6337 10.6514 25.5205C10.478 25.4005 10.3412 25.24 10.2412 25.04C10.1479 24.8334 10.1016 24.5935 10.1016 24.3203C10.1016 24.047 10.1479 23.8063 10.2412 23.5996C10.3412 23.3931 10.4781 23.2334 10.6514 23.1201C10.8314 23.0068 11.0382 22.9502 11.2715 22.9502ZM18.127 22.9502C18.3601 22.9503 18.5631 23.0069 18.7363 23.1201C18.9162 23.2334 19.0532 23.3931 19.1465 23.5996C19.2465 23.8063 19.2969 24.047 19.2969 24.3203C19.2968 24.5935 19.2465 24.8334 19.1465 25.04C19.0532 25.24 18.9163 25.3964 18.7363 25.5098C18.5631 25.623 18.3601 25.6796 18.127 25.6797C17.8936 25.6797 17.6899 25.6231 17.5166 25.5098C17.3433 25.3964 17.2064 25.24 17.1064 25.04C17.0132 24.8334 16.9668 24.5935 16.9668 24.3203C16.9668 24.047 17.0131 23.8063 17.1064 23.5996C17.2064 23.3931 17.3434 23.2334 17.5166 23.1201C17.6899 23.0068 17.8936 22.9502 18.127 22.9502ZM21.875 11.667C21.8753 12.472 22.528 13.1257 23.333 13.126H27.7012C27.6651 12.2661 27.3788 11.4336 26.8711 10.7354L24.6162 7.63477C23.9515 6.72119 22.9663 6.10844 21.875 5.90625V11.667Z" fill="#2E71D3"/>
</g>
</svg>
