<svg width="20" height="20" viewBox="0 0 20 20" fill="none" xmlns="http://www.w3.org/2000/svg">
<mask id="mask0_641_301" style="mask-type:alpha" maskUnits="userSpaceOnUse" x="0" y="0" width="20" height="20">
<rect width="20" height="20" fill="#7F7F7F"/>
</mask>
<g mask="url(#mask0_641_301)">
<path d="M6.25033 16.6666C5.44477 16.6666 4.75727 16.3819 4.18783 15.8124C3.61838 15.243 3.33366 14.5555 3.33366 13.7499C3.33366 12.9444 3.61838 12.2569 4.18783 11.6874C4.75727 11.118 5.44477 10.8333 6.25033 10.8333H15.417C16.2225 10.8333 16.91 11.118 17.4795 11.6874C18.0489 12.2569 18.3337 12.9444 18.3337 13.7499C18.3337 14.5555 18.0489 15.243 17.4795 15.8124C16.91 16.3819 16.2225 16.6666 15.417 16.6666H6.25033ZM6.25033 14.9999H15.417C15.7642 14.9999 16.0594 14.8784 16.3024 14.6353C16.5455 14.3923 16.667 14.0971 16.667 13.7499C16.667 13.4027 16.5455 13.1076 16.3024 12.8645C16.0594 12.6214 15.7642 12.4999 15.417 12.4999H6.25033C5.9031 12.4999 5.60796 12.6214 5.36491 12.8645C5.12185 13.1076 5.00033 13.4027 5.00033 13.7499C5.00033 14.0971 5.12185 14.3923 5.36491 14.6353C5.60796 14.8784 5.9031 14.9999 6.25033 14.9999ZM4.58366 9.16658C3.7781 9.16658 3.0906 8.88186 2.52116 8.31242C1.95171 7.74297 1.66699 7.05547 1.66699 6.24992C1.66699 5.44436 1.95171 4.75686 2.52116 4.18742C3.0906 3.61797 3.7781 3.33325 4.58366 3.33325H13.7503C14.5559 3.33325 15.2434 3.61797 15.8128 4.18742C16.3823 4.75686 16.667 5.44436 16.667 6.24992C16.667 7.05547 16.3823 7.74297 15.8128 8.31242C15.2434 8.88186 14.5559 9.16658 13.7503 9.16658H4.58366ZM4.58366 7.49992H13.7503C14.0975 7.49992 14.3927 7.37839 14.6357 7.13534C14.8788 6.89228 15.0003 6.59714 15.0003 6.24992C15.0003 5.9027 14.8788 5.60756 14.6357 5.3645C14.3927 5.12145 14.0975 4.99992 13.7503 4.99992H4.58366C4.23644 4.99992 3.9413 5.12145 3.69824 5.3645C3.45519 5.60756 3.33366 5.9027 3.33366 6.24992C3.33366 6.59714 3.45519 6.89228 3.69824 7.13534C3.9413 7.37839 4.23644 7.49992 4.58366 7.49992Z" fill="#7F7F7F"/>
</g>
</svg>
