<svg width="273" height="273" viewBox="0 0 273 273" fill="none" xmlns="http://www.w3.org/2000/svg">
<mask id="mask0_605_317" style="mask-type:alpha" maskUnits="userSpaceOnUse" x="0" y="0" width="273" height="273">
<rect width="272.188" height="272.188" fill="#0A77F3"/>
</mask>
<g mask="url(#mask0_605_317)">
<path d="M73.7174 226.824C56.5165 226.824 41.8203 220.87 29.6285 208.962C17.4367 197.053 11.3408 182.499 11.3408 165.298C11.3408 150.554 15.7828 137.418 24.6667 125.887C33.5506 114.357 45.1754 106.985 59.5409 103.772C64.2664 86.3823 73.7174 72.3003 87.8938 61.5262C102.07 50.7521 118.137 45.365 136.094 45.365C158.209 45.365 176.969 53.0675 192.375 68.4727C207.78 83.8778 215.482 102.638 215.482 124.753C228.525 126.265 239.346 131.889 247.946 141.623C256.547 151.358 260.847 162.746 260.847 175.789C260.847 189.965 255.885 202.015 245.962 211.939C236.038 221.862 223.988 226.824 209.812 226.824H147.435C141.197 226.824 135.858 224.603 131.416 220.161C126.974 215.719 124.753 210.379 124.753 204.142V145.734L106.607 163.313L90.7291 147.436L136.094 102.071L181.459 147.436L165.581 163.313L147.435 145.734V204.142H209.812C217.75 204.142 224.461 201.401 229.942 195.919C235.424 190.438 238.165 183.727 238.165 175.789C238.165 167.85 235.424 161.14 229.942 155.658C224.461 150.176 217.75 147.436 209.812 147.436H192.8V124.753C192.8 109.065 187.271 95.6915 176.213 84.6339C165.156 73.5762 151.783 68.0474 136.094 68.0474C120.405 68.0474 107.032 73.5762 95.9744 84.6339C84.9168 95.6915 79.3879 109.065 79.3879 124.753H73.7174C62.7542 124.753 53.3977 128.628 45.6479 136.378C37.8981 144.128 34.0232 153.484 34.0232 164.447C34.0232 175.411 37.8981 184.767 45.6479 192.517C53.3977 200.267 62.7542 204.142 73.7174 204.142H102.07V226.824H73.7174Z" fill="#0A77F3"/>
</g>
</svg>
