<svg width="24" height="24" viewBox="0 0 24 24" fill="none" xmlns="http://www.w3.org/2000/svg">
<mask id="mask0_2557_92" style="mask-type:alpha" maskUnits="userSpaceOnUse" x="0" y="0" width="24" height="24">
<rect width="24" height="24" fill="#868686"/>
</mask>
<g mask="url(#mask0_2557_92)">
<path d="M3 15.5859V14.5859C3 14.0337 3.44772 13.5859 4 13.5859C4.55228 13.5859 5 14.0337 5 14.5859V15.5859C5 17.2428 6.34315 18.5859 8 18.5859H16C17.6569 18.5859 19 17.2428 19 15.5859V14.5859C19 14.0337 19.4477 13.5859 20 13.5859C20.5523 13.5859 21 14.0337 21 14.5859V15.5859C21 18.3474 18.7614 20.5859 16 20.5859H8C5.23858 20.5859 3 18.3474 3 15.5859Z" fill="#0A77F3"/>
<path d="M12.9999 4L12.9999 12.0859L16.2929 8.79297C16.6834 8.40244 17.3164 8.40244 17.707 8.79297C18.0975 9.18349 18.0975 9.81651 17.707 10.207L13.414 14.5C12.633 15.2809 11.3669 15.2809 10.5859 14.5L6.29289 10.207C5.90237 9.81651 5.90237 9.18349 6.29289 8.79297C6.68342 8.40244 7.31643 8.40244 7.70696 8.79297L10.9999 12.0859L10.9999 4C10.9999 3.44771 11.4476 3 11.9999 3C12.5522 3 12.9999 3.44771 12.9999 4Z" fill="#0A77F3"/>
</g>
</svg>
