<svg width="24" height="24" viewBox="0 0 24 24" fill="none" xmlns="http://www.w3.org/2000/svg">
<mask id="mask0_2557_92" style="mask-type:alpha" maskUnits="userSpaceOnUse" x="0" y="0" width="24" height="24">
<rect width="24" height="24" fill="#868686"/>
</mask>
<g mask="url(#mask0_2557_92)">
<path d="M3 14.1719C3 13.6196 3.44772 13.1719 4 13.1719C4.55228 13.1719 5 13.6196 5 14.1719C5 15.8287 6.34315 17.1719 8 17.1719H16C17.6569 17.1719 19 15.8287 19 14.1719C19 13.6196 19.4477 13.1719 20 13.1719C20.5523 13.1719 21 13.6196 21 14.1719C21 16.9333 18.7614 19.1719 16 19.1719H8C5.23858 19.1719 3 16.9333 3 14.1719Z" fill="#0A77F3"/>
<path d="M13.0001 5.00038L13.0001 12.5863L16.293 9.29335C16.6836 8.90282 17.3166 8.90282 17.7071 9.29335C18.0976 9.68387 18.0976 10.3169 17.7071 10.7074L14.1212 14.2933C12.9496 15.4647 11.0505 15.4647 9.87898 14.2933L6.29304 10.7074C5.90252 10.3169 5.90252 9.68387 6.29304 9.29334C6.68357 8.90282 7.31658 8.90282 7.70711 9.29334L11.0001 12.5863L11.0001 5.00038C11.0001 4.44809 11.4478 4.00038 12.0001 4.00038C12.5524 4.00038 13.0001 4.44809 13.0001 5.00038Z" fill="#0A77F3"/>
</g>
</svg>
