<svg width="24" height="24" viewBox="0 0 24 24" fill="none" xmlns="http://www.w3.org/2000/svg">
<mask id="mask0_1365_128" style="mask-type:alpha" maskUnits="userSpaceOnUse" x="0" y="0" width="24" height="24">
<rect width="24" height="24" fill="#0A77F3"/>
</mask>
<g mask="url(#mask0_1365_128)">
<path d="M14.4541 3C16.0537 3.00006 17.5562 3.68926 18.4971 4.85352L20.0439 6.7666C20.6652 7.5356 20.9999 8.4623 21 9.41309V16.5C20.9999 18.9852 18.7614 21 16 21H8C5.23863 21 3.00009 18.9852 3 16.5V7.5C3 5.01475 5.23858 3 8 3H14.4541ZM8.74707 14.7705C8.44092 14.7706 8.17607 14.8485 7.95215 15.0039C7.84111 15.0802 7.74251 15.1737 7.65723 15.2852V14.8115H6.43652V19.8447H7.65723V18.0352C7.74668 18.1498 7.84903 18.2481 7.96582 18.3291C8.19429 18.4799 8.46372 18.5556 8.77441 18.5557C9.12181 18.5557 9.42144 18.4777 9.67285 18.3223C9.92885 18.1668 10.1256 17.9475 10.2627 17.6641C10.4044 17.3807 10.4756 17.0538 10.4756 16.6836C10.4756 16.2951 10.4021 15.9592 10.2559 15.6758C10.1141 15.3878 9.91291 15.1662 9.65234 15.0107C9.39635 14.8508 9.09449 14.7705 8.74707 14.7705ZM13.627 15.2969C13.5358 15.1779 13.4316 15.077 13.3115 14.9961C13.0875 14.8407 12.8174 14.7627 12.502 14.7627C12.164 14.7628 11.8649 14.8431 11.6045 15.0029C11.3485 15.1583 11.1495 15.3755 11.0078 15.6543C10.8707 15.9331 10.8018 16.2622 10.8018 16.6416C10.8018 17.0255 10.873 17.3615 11.0146 17.6494C11.1564 17.9374 11.3576 18.1623 11.6182 18.3223C11.8785 18.482 12.1823 18.5615 12.5293 18.5615C12.8401 18.5615 13.1058 18.4844 13.3252 18.3291C13.4395 18.2498 13.54 18.1528 13.627 18.0391V18.5137H14.8477V13.4258H13.627V15.2969ZM17.4561 13.3711C17.1865 13.3711 16.9443 13.4219 16.7295 13.5225C16.5147 13.6185 16.3428 13.7599 16.2148 13.9473C16.0915 14.1346 16.0303 14.3655 16.0303 14.6396V14.9824H15.5293V15.7783H16.0303V18.5137H17.2441V15.7783H18.0664V14.9824H17.2441V14.7285C17.2442 14.6419 17.2624 14.5691 17.2988 14.5098C17.3354 14.4458 17.383 14.3995 17.4424 14.3721C17.5064 14.3446 17.5798 14.3311 17.6621 14.3311C17.7261 14.3311 17.7928 14.3401 17.8613 14.3584C17.9342 14.3766 18.0049 14.3994 18.0732 14.4268L18.2314 13.5156C18.1173 13.4699 17.9915 13.435 17.8545 13.4121C17.7219 13.3847 17.5886 13.3711 17.4561 13.3711ZM12.8311 15.7363C12.9911 15.7363 13.1311 15.7758 13.25 15.8535C13.3687 15.9312 13.4605 16.041 13.5244 16.1826C13.5928 16.3242 13.6269 16.4886 13.627 16.6758C13.627 16.8632 13.593 17.0282 13.5244 17.1699C13.4604 17.307 13.3688 17.4167 13.25 17.499C13.1311 17.5767 12.9911 17.6152 12.8311 17.6152C12.6712 17.6152 12.5296 17.5767 12.4062 17.499C12.2874 17.4167 12.1936 17.307 12.125 17.1699C12.061 17.0282 12.0293 16.8632 12.0293 16.6758C12.0293 16.4886 12.0611 16.3242 12.125 16.1826C12.1935 16.041 12.2875 15.9312 12.4062 15.8535C12.5296 15.7759 12.6712 15.7364 12.8311 15.7363ZM8.44531 15.71C8.60531 15.71 8.7454 15.7507 8.86426 15.833C8.98761 15.9107 9.08152 16.0205 9.14551 16.1621C9.21408 16.3038 9.24805 16.4666 9.24805 16.6494C9.24804 16.832 9.2139 16.9942 9.14551 17.1357C9.08151 17.2775 8.98768 17.3904 8.86426 17.4727C8.7454 17.5504 8.60531 17.5889 8.44531 17.5889C8.29466 17.5888 8.15747 17.5502 8.03418 17.4727C7.91541 17.395 7.82149 17.2851 7.75293 17.1436C7.68894 16.9973 7.65723 16.8323 7.65723 16.6494C7.65723 16.462 7.68893 16.2993 7.75293 16.1621C7.82149 16.0205 7.91539 15.9107 8.03418 15.833C8.15748 15.7508 8.29465 15.71 8.44531 15.71ZM15 8.40039C15.0003 8.89723 15.4479 9.2998 16 9.2998H18.9951C18.9703 8.76928 18.7739 8.25598 18.4258 7.8252L16.8799 5.91211C16.4241 5.34814 15.7485 4.96951 15 4.84473V8.40039Z" fill="#E03838"/>
</g>
</svg>
