<svg width="229" height="85" viewBox="0 0 229 85" fill="none" xmlns="http://www.w3.org/2000/svg">
<path d="M52.2863 0H32.7137C14.648 0 0 14.648 0 32.7137V52.2863C0 70.352 14.648 85 32.7137 85H52.2863C70.352 85 85 70.352 85 52.2863V32.7137C85 14.648 70.352 0 52.2863 0ZM34.57 73.1473C31.185 73.2237 27.9093 73.0381 24.7919 72.6177C22.0894 72.2574 19.5125 71.7223 17.0994 71.0344C12.8464 69.8279 11.2303 64.2646 14.0256 60.6339L14.0693 60.5794C15.9037 58.199 19.0266 57.5821 21.5926 58.9906C23.7437 60.1644 26.1841 61.1471 28.8538 61.8678C29.8584 62.1408 30.9011 62.3756 31.9658 62.5721C45.238 65.0016 57.9042 60.2572 60.2463 51.9751C61.0653 49.0815 60.5193 46.1443 58.8923 43.4363C58.4938 42.7702 58.0297 42.1206 57.5111 41.4927C54.0497 37.3271 47.9623 33.953 40.4608 32.5827C39.2434 32.3643 38.0368 32.2005 36.8412 32.1023C46.9195 32.3589 55.8787 34.9631 62.0207 38.9977C63.0416 39.6692 63.9916 40.3844 64.8487 41.1378C68.3592 44.1952 70.423 47.8531 70.5048 51.8113C70.7396 63.1453 54.6503 72.6941 34.57 73.1473ZM70.9744 24.366L70.9307 24.4206C69.0963 26.801 65.9789 27.4179 63.4074 26.0094C61.2563 24.8356 58.8159 23.8528 56.1462 23.1267C55.1416 22.8537 54.0988 22.619 53.0342 22.4224C39.762 19.9929 27.0958 24.7373 24.7537 33.0195C23.9347 35.913 24.4807 38.8503 26.1076 41.5582C26.5062 42.2243 26.9703 42.874 27.4944 43.5018C30.9503 47.6675 37.0377 51.036 44.5391 52.4064C45.7566 52.6248 46.9632 52.7886 48.1588 52.8868C38.0805 52.6302 29.1213 50.026 22.9793 45.9914C21.9584 45.3199 21.0084 44.6047 20.1513 43.8512C16.6408 40.7939 14.577 37.136 14.4951 33.1778C14.2604 21.8383 30.3552 12.2895 50.43 11.8418C53.815 11.7654 57.0907 11.951 60.2081 12.3714C62.9106 12.7317 65.4875 13.2667 67.9006 13.9547C72.1536 15.1776 73.7751 20.7354 70.9744 24.366Z" fill="#0A77F3"/>
<path d="M109 49.586H120.131C120.295 51.4426 121.078 52.9682 122.487 54.171C123.891 55.3738 125.957 55.9731 128.685 55.9731C130.814 55.9731 132.503 55.5372 133.76 54.6613C135.013 53.7896 135.642 52.7377 135.642 51.5055C135.642 50.7134 135.416 50.0596 134.967 49.5399C134.519 49.0203 133.802 48.6054 132.817 48.291C131.837 47.9767 131.049 47.7797 130.454 47.6959C129.858 47.6121 129.058 47.5031 128.056 47.3648C125.357 46.9499 124.008 46.7404 124.008 46.7404C124.008 46.7404 122.692 46.3758 120.064 45.6465C117.436 44.9173 115.546 44.1378 114.402 43.3038C113.258 42.4698 112.231 41.2418 111.334 39.6199C110.433 37.998 109.985 36.1204 109.985 33.9914C109.985 29.7921 111.552 26.4183 114.691 23.8828C117.83 21.3473 122.155 20.0774 127.667 20.0774C133.094 20.0774 137.402 21.3389 140.579 23.8618C143.756 26.3848 145.524 29.7921 145.881 34.0752H135.152C135.043 33.0107 134.846 32.1181 134.557 31.393C134.272 30.6722 133.567 29.989 132.449 29.3478C131.33 28.7066 129.817 28.3881 127.905 28.3881C125.885 28.3881 124.297 28.7192 123.136 29.3814C121.975 30.0435 121.397 30.9278 121.397 32.0384C121.397 32.4156 121.451 32.7635 121.56 33.0736C121.669 33.3837 121.862 33.6603 122.139 33.9034C122.415 34.1465 122.696 34.3686 122.985 34.574C123.274 34.7751 123.673 34.9595 124.184 35.1146C124.691 35.2739 125.123 35.408 125.475 35.5169C125.827 35.6259 126.305 35.76 126.912 35.9109C127.52 36.0618 128.01 36.1707 128.383 36.2378C128.756 36.3048 129.276 36.3929 129.942 36.5102L131.422 36.77C133.878 37.1514 135.944 37.6124 137.62 38.1405C139.297 38.6686 140.96 39.4187 142.612 40.3743C144.263 41.3298 145.495 42.6123 146.316 44.2258C147.138 45.8393 147.544 47.7881 147.544 50.0806C147.544 54.7745 145.809 58.3159 142.348 60.7005C138.882 63.0894 134.272 64.2796 128.513 64.2796C122.482 64.2796 117.776 62.9888 114.394 60.4113C111.02 57.8339 109.218 54.2255 109 49.586Z" fill="#161616"/>
<path d="M151.073 63.3409V6H161.634V33.8323L175.016 20.4882H187.702L171.739 36.8581L189.257 63.3367H176.693L164.044 44.7959L161.63 47.3314V63.3325H151.073V63.3409Z" fill="#161616"/>
<path d="M188.851 20.4883H199.902L208.967 49.8963L218.196 20.4883H229L216.172 60.5498C213.929 67.5362 211.746 72.3348 209.613 74.9416C207.484 77.5484 204.491 78.8518 200.64 78.8518C197.459 78.8518 194.873 78.4578 192.886 77.6657L194.353 67.884C195.686 68.1564 196.977 68.2947 198.226 68.2947C201.118 68.2947 202.563 67.0374 202.563 64.527C202.563 63.4625 201.935 60.8851 200.678 56.7905L188.851 20.4883Z" fill="#161616"/>
</svg>
