<svg width="244" height="88" viewBox="0 0 244 88" fill="none" xmlns="http://www.w3.org/2000/svg">
<path d="M147.325 24.3206C143.496 21.6111 139.139 20.2564 134.247 20.2564C127.611 20.2564 121.992 22.5187 117.392 27.0434C112.792 31.5681 110.49 37.0757 110.49 43.5573C110.49 49.9858 112.81 55.4889 117.45 60.0712C122.09 64.6535 127.681 66.9468 134.225 66.9468C139.069 66.9158 143.434 65.5788 147.325 62.9268V65.9551H158.394V5.38501H147.325V24.3206ZM143.416 52.6864C140.813 55.2808 137.749 56.578 134.221 56.578C130.692 56.578 127.633 55.2808 125.025 52.6864C122.417 50.092 121.12 47.0505 121.12 43.5617C121.12 40.073 122.422 37.0315 125.025 34.437C127.628 31.8426 130.696 30.5454 134.221 30.5454C137.745 30.5454 140.808 31.8426 143.416 34.437C146.024 37.0315 147.321 40.073 147.321 43.5617C147.325 47.0505 146.019 50.092 143.416 52.6864Z" fill="#FDFDFD"/>
<path d="M175.213 20.6902H164.057V65.9595H175.213V20.6902Z" fill="#FDFDFD"/>
<path d="M169.635 5.38501C166.554 5.38501 164.057 7.88202 164.057 10.9634C164.057 14.0448 166.554 16.5418 169.635 16.5418C172.716 16.5418 175.213 14.0448 175.213 10.9634C175.209 7.88202 172.712 5.38501 169.635 5.38501Z" fill="#FDFDFD"/>
<path d="M238.421 5.38501C235.34 5.38501 232.843 7.88202 232.843 10.9634C232.843 14.0448 235.34 16.5418 238.421 16.5418C241.503 16.5418 244 14.0448 244 10.9634C243.995 7.88202 241.498 5.38501 238.421 5.38501Z" fill="#FDFDFD"/>
<path d="M244 20.6902H232.843V65.9595H244V20.6902Z" fill="#FDFDFD"/>
<path d="M207.908 73.2338C205.305 75.8282 202.241 77.1254 198.713 77.1254C195.189 77.1254 192.125 75.8282 189.517 73.2338C188.083 71.8037 187.047 70.2409 186.401 68.5364H175.372C176.213 73.1009 178.396 77.1342 181.933 80.6229C186.573 85.2052 192.165 87.4986 198.713 87.4986C205.261 87.4986 210.853 85.2052 215.492 80.6229C219.03 77.1298 221.212 73.1009 222.054 68.5364H211.025C210.379 70.2409 209.343 71.8037 207.908 73.2338Z" fill="#FDFDFD"/>
<path d="M216.608 23.7008C212.92 21.4074 208.728 20.2563 204.026 20.2563C197.42 20.2563 191.815 22.5187 187.206 27.0434C182.598 31.5681 180.291 37.0757 180.291 43.5573C180.291 49.9858 182.611 55.4889 187.251 60.0712C191.891 64.6535 197.482 66.9468 204.03 66.9468C210.578 66.9468 216.17 64.6535 220.81 60.0712C225.436 55.4978 227.756 50.0079 227.765 43.5971V20.3537H216.608V23.7008ZM213.221 52.6864C210.618 55.2808 207.554 56.578 204.026 56.578C200.502 56.578 197.438 55.2808 194.83 52.6864C192.227 50.092 190.925 47.0505 190.925 43.5617C190.925 40.073 192.227 37.0314 194.83 34.437C197.434 31.8426 200.502 30.5454 204.026 30.5454C207.55 30.5454 210.614 31.8426 213.221 34.437C215.825 37.0314 217.126 40.073 217.126 43.5617C217.126 47.0505 215.825 50.092 213.221 52.6864Z" fill="#FDFDFD"/>
<path d="M25.4259 26.4256C15.9948 35.8567 15.9948 51.1433 25.4259 60.5744C34.857 70.0055 50.1435 70.0055 59.5747 60.5744C69.0058 51.1433 69.0058 35.8567 59.5747 26.4256C50.1435 16.9945 34.857 16.9945 25.4259 26.4256Z" fill="#F83B66"/>
<path d="M77.9281 14.1188C77.9281 8.39224 73.2877 3.75233 67.5605 3.75233C65.3869 3.75233 63.3744 4.42503 61.7068 5.56345C45.75 -2.49746 25.7393 0.118598 12.4334 13.4289C-4.14446 30.0049 -4.14446 56.9819 12.4334 73.5637C20.7252 81.8546 31.6103 86 42.5012 86C53.392 86 64.2829 81.8546 72.5689 73.5637C87.5367 58.5975 88.9858 35.1508 76.9276 18.5402C77.5601 17.1948 77.9281 15.6999 77.9281 14.1188ZM67.3133 68.3028C53.6335 81.981 31.3745 81.981 17.6948 68.3028C4.01508 54.6246 4.01508 32.368 17.6948 18.6897C24.5375 11.8477 33.5193 8.43248 42.5069 8.43248C47.6303 8.43248 52.748 9.5479 57.4747 11.7672C57.2964 12.5262 57.1987 13.3081 57.1987 14.1188C57.1987 19.8454 61.8391 24.4853 67.5663 24.4853C68.9521 24.4853 70.2746 24.2093 71.4822 23.7149C80.8032 37.3643 79.4232 56.1942 67.3133 68.3028Z" fill="#F83B66"/>
</svg>
