<svg width="370" height="85" viewBox="0 0 370 85" fill="none" xmlns="http://www.w3.org/2000/svg">
<path d="M92 34.7952V24.4539H96.408V22.5045C96.408 15.3937 98.2726 10.3948 102.002 7.50314C105.391 4.87141 110.573 3.55786 117.547 3.55786C118.253 3.55786 118.987 3.57179 119.751 3.59963L118.991 14.419C114.022 14.419 110.836 14.9713 109.437 16.0714C108.039 17.1714 107.342 19.3158 107.342 22.4998V24.4539H117.339V34.7952H107.342V64.9464H96.4125V34.7952H92Z" fill="#868686"/>
<path d="M122.965 15.2866V4.07275H133.894V15.282H122.965V15.2866ZM122.965 64.9461V19.4547H133.894V64.9461H122.965Z" fill="#868686"/>
<path d="M139.446 64.9462V19.4549H150.376V23.8271C153.453 20.6802 157.816 19.0789 163.468 19.0232L162.749 30.8405C157.947 30.8405 154.684 31.6945 152.964 33.4072C151.24 35.1199 150.38 37.9188 150.38 41.8037V64.9462H139.446Z" fill="#868686"/>
<path d="M163.128 42.4393C163.128 35.9227 165.382 30.39 169.885 25.8413C174.388 21.2926 179.891 19.0183 186.385 19.0183C193.219 19.0183 198.799 21.3623 203.121 26.0548C207.443 30.7474 209.602 36.4379 209.602 43.1309C209.602 43.855 209.548 44.8668 209.434 46.1711H174.229C175.162 49.1277 176.737 51.4207 178.954 53.0591C181.172 54.6976 183.932 55.5145 187.236 55.5145C189.947 55.5145 192.214 55.0503 194.034 54.122C195.858 53.1937 197.487 51.7316 198.926 49.7358L208.077 54.9064C203.334 62.2632 196.382 65.9439 187.232 65.9439C180.285 65.9439 174.528 63.7114 169.966 59.2509C165.404 54.7904 163.128 49.1881 163.128 42.4393ZM174.483 37.3569H198.08C195.876 32.0284 191.979 29.3642 186.385 29.3642C183.788 29.3642 181.416 30.1022 179.266 31.5782C177.121 33.0542 175.528 34.9804 174.483 37.3569Z" fill="#868686"/>
<path d="M208.383 19.4556H219.312L227.318 48.9152L235.369 19.4556H246.552L254.558 48.9152L262.609 19.4556H273.118L260.555 64.9469H247.964L240.673 37.8777L233.383 64.9469H220.964L208.383 19.4556Z" fill="#868686"/>
<path d="M271.712 42.4393C271.712 35.9227 273.966 30.39 278.469 25.8413C282.972 21.2926 288.475 19.0183 294.969 19.0183C301.803 19.0183 307.383 21.3623 311.705 26.0548C316.027 30.7474 318.186 36.4379 318.186 43.1309C318.186 43.855 318.132 44.8668 318.018 46.1711H282.813C283.746 49.1277 285.321 51.4207 287.538 53.0591C289.756 54.6976 292.516 55.5145 295.82 55.5145C298.531 55.5145 300.798 55.0503 302.618 54.122C304.442 53.1937 306.071 51.7316 307.51 49.7358L316.661 54.9064C311.918 62.2632 304.966 65.9439 295.816 65.9439C288.869 65.9439 283.112 63.7114 278.55 59.2509C273.988 54.7904 271.712 49.1881 271.712 42.4393ZM283.067 37.3569H306.664C304.46 32.0284 300.563 29.3642 294.969 29.3642C292.372 29.3642 290 30.1022 287.85 31.5782C285.705 33.0542 284.112 34.9804 283.067 37.3569Z" fill="#868686"/>
<path d="M322.383 64.9461V4.07275H333.226V23.1029C336.983 20.3784 341.259 19.0184 346.061 19.0184C352.528 19.0184 358.022 21.2927 362.539 25.8414C367.056 30.3901 369.318 35.9228 369.318 42.4394C369.318 48.9004 367.047 54.4331 362.498 59.0375C357.95 63.6418 352.474 65.944 346.061 65.944C341.318 65.944 337.037 64.598 333.226 61.9013V64.9415H322.383V64.9461ZM336.996 33.2725C334.484 35.881 333.226 38.9351 333.226 42.4394C333.226 45.9438 334.484 48.9979 336.996 51.6064C339.508 54.2149 342.531 55.5146 346.061 55.5146C349.591 55.5146 352.614 54.2103 355.126 51.6064C357.638 48.9979 358.896 45.9438 358.896 42.4394C358.896 38.9351 357.638 35.881 355.126 33.2725C352.614 30.6639 349.591 29.3643 346.061 29.3643C342.531 29.3643 339.512 30.6639 336.996 33.2725Z" fill="#868686"/>
<path d="M34.6031 14.4685L31.0566 28.1837L27.3979 0L0 54.288L19.2391 70.7118L27.3979 58.9038L35.7171 70.7118L54.6917 54.2439L34.6031 14.4685Z" fill="#868686"/>
<path d="M7.71094 75.3237H46.9865V85.0001H7.71094V75.3237Z" fill="#868686"/>
</svg>
