<svg width="237" height="88" viewBox="0 0 237 88" fill="none" xmlns="http://www.w3.org/2000/svg">
<path d="M111 51.765H122.688C122.859 53.7144 123.682 55.3162 125.161 56.5791C126.635 57.8421 128.804 58.4713 131.669 58.4713C133.905 58.4713 135.678 58.0137 136.998 57.094C138.314 56.1787 138.974 55.0742 138.974 53.7804C138.974 52.9487 138.736 52.2622 138.266 51.7166C137.795 51.1709 137.042 50.7353 136.008 50.4052C134.978 50.0752 134.151 49.8683 133.526 49.7803C132.901 49.6923 132.061 49.5779 131.009 49.4327C128.175 48.9971 126.758 48.777 126.758 48.777C126.758 48.777 125.376 48.3942 122.617 47.6285C119.858 46.8628 117.874 46.0443 116.672 45.1686C115.471 44.2929 114.393 43.0036 113.451 41.3006C112.505 39.5976 112.034 37.6261 112.034 35.3907C112.034 30.9814 113.68 27.439 116.976 24.7767C120.272 22.1144 124.813 20.781 130.6 20.781C136.299 20.781 140.822 22.1056 144.158 24.7547C147.493 27.4038 149.35 30.9814 149.724 35.4787H138.459C138.345 34.361 138.138 33.4237 137.834 32.6624C137.535 31.9055 136.796 31.1882 135.621 30.5149C134.446 29.8416 132.857 29.5072 130.851 29.5072C128.73 29.5072 127.062 29.8549 125.843 30.5501C124.624 31.2454 124.017 32.1739 124.017 33.3401C124.017 33.7361 124.074 34.1013 124.188 34.427C124.303 34.7526 124.505 35.043 124.796 35.2983C125.086 35.5535 125.381 35.7867 125.684 36.0024C125.988 36.2136 126.406 36.4072 126.943 36.57C127.475 36.7372 127.929 36.8781 128.298 36.9925C128.668 37.1069 129.17 37.2477 129.808 37.4061C130.446 37.5645 130.961 37.679 131.352 37.7494C131.744 37.8198 132.29 37.9122 132.989 38.0354L134.543 38.3082C137.121 38.7087 139.291 39.1927 141.051 39.7472C142.811 40.3017 144.558 41.0893 146.292 42.0927C148.026 43.096 149.32 44.4425 150.182 46.1367C151.045 47.8309 151.471 49.8772 151.471 52.2842C151.471 57.2128 149.65 60.9312 146.015 63.4351C142.376 65.9434 137.535 67.1931 131.489 67.1931C125.156 67.1931 120.215 65.8378 116.663 63.1315C113.121 60.4252 111.229 56.6363 111 51.765Z" fill="#868686"/>
<path d="M155.177 66.2077V6H166.266V35.2238L180.317 21.2125H193.637L176.876 38.4009L195.27 66.2033H182.077L168.796 46.7355L166.262 49.3978V66.1989H155.177V66.2077Z" fill="#868686"/>
<path d="M194.843 21.2124H206.447L215.965 52.0907L225.655 21.2124H237L223.53 63.2768C221.175 70.6125 218.883 75.651 216.643 78.3882C214.407 81.1253 211.265 82.4938 207.221 82.4938C203.881 82.4938 201.166 82.0802 199.08 81.2485L200.621 70.9777C202.02 71.2637 203.375 71.409 204.687 71.409C207.723 71.409 209.241 70.0888 209.241 67.4529C209.241 66.3352 208.581 63.6289 207.261 59.3296L194.843 21.2124Z" fill="#868686"/>
<path d="M52.2863 1H32.7137C14.648 1 0 15.648 0 33.7137V53.2863C0 71.352 14.648 86 32.7137 86H52.2863C70.352 86 85 71.352 85 53.2863V33.7137C85 15.648 70.352 1 52.2863 1ZM35.4326 74.1309C32.0477 74.2073 28.7719 74.0217 25.6545 73.6013C22.952 73.241 20.3041 72.9134 17.962 72.018C15.3796 71.0299 13.4142 68.584 13.4142 65.8433C13.4142 62.2946 16.3023 59.6467 19.8401 59.4174C20.7027 59.3628 22.3023 59.9142 22.5153 60.007C22.679 60.0834 22.8428 60.1653 22.9957 60.2527C25.0103 61.3009 27.2596 62.1908 29.7055 62.8569C30.7101 63.1299 31.7528 63.3646 32.8175 63.5612C46.0897 65.9907 58.7559 61.2463 61.098 52.9642C61.9169 50.0706 61.371 47.1333 59.744 44.4254C59.3455 43.7593 58.8814 43.1096 58.3573 42.4818C54.9014 38.3161 48.814 34.9476 41.3125 33.5772C40.0951 33.3589 38.8885 33.1951 37.6928 33.0968C47.7712 33.3534 56.7304 35.9576 62.8724 39.9922C63.8933 40.6638 64.8433 41.379 65.7004 42.1324C69.2109 45.1897 71.2746 48.8476 71.3565 52.8058C71.6022 64.1344 55.5074 73.6832 35.4326 74.1309ZM64.9415 27.5717C64.0789 27.6263 62.4793 27.0749 62.2664 26.9821C62.1026 26.9056 61.9388 26.8238 61.7859 26.7364C59.7713 25.6882 57.522 24.7983 55.0761 24.1322C54.0715 23.8592 53.0288 23.6244 51.9642 23.4279C38.6919 20.9984 26.0258 25.7428 23.6836 34.0249C22.8647 36.9185 23.4106 39.8557 25.0376 42.5637C25.4361 43.2297 25.9002 43.8794 26.4243 44.5073C29.8802 48.6729 35.9676 52.0415 43.4691 53.4118C44.6866 53.6302 45.8931 53.794 47.0888 53.8923C37.0104 53.6357 28.0513 51.0315 21.9092 46.9968C20.8883 46.3253 19.9383 45.6101 19.0812 44.8567C15.5707 41.7993 13.507 38.1414 13.4251 34.1832C13.1903 22.8437 29.2851 13.2949 49.3599 12.8473C52.7449 12.7708 56.0206 12.9565 59.138 13.3768C61.8405 13.7372 64.4884 14.0647 66.8306 14.9601C69.4129 15.9483 71.3784 18.3942 71.3784 21.1349C71.3675 24.6945 68.4848 27.3369 64.9415 27.5717Z" fill="#868686"/>
</svg>
