<svg width="244" height="88" viewBox="0 0 244 88" fill="none" xmlns="http://www.w3.org/2000/svg">
<path d="M147.325 24.4903C143.496 21.7808 139.139 20.426 134.247 20.426C127.611 20.426 121.992 22.6884 117.392 27.2131C112.792 31.7378 110.49 37.2454 110.49 43.727C110.49 50.1555 112.81 55.6586 117.45 60.2409C122.09 64.8231 127.681 67.1165 134.225 67.1165C139.069 67.0855 143.434 65.7485 147.325 63.0965V66.1248H158.394V5.55469H147.325V24.4903ZM143.416 52.8561C140.813 55.4505 137.749 56.7477 134.221 56.7477C130.692 56.7477 127.633 55.4505 125.025 52.8561C122.417 50.2617 121.12 47.2201 121.12 43.7314C121.12 40.2427 122.422 37.2011 125.025 34.6067C127.628 32.0123 130.696 30.7151 134.221 30.7151C137.745 30.7151 140.808 32.0123 143.416 34.6067C146.024 37.2011 147.321 40.2427 147.321 43.7314C147.325 47.2201 146.019 50.2617 143.416 52.8561Z" fill="#868686"/>
<path d="M175.213 20.8599H164.057V66.1292H175.213V20.8599Z" fill="#868686"/>
<path d="M169.635 5.55469C166.554 5.55469 164.057 8.05169 164.057 11.1331C164.057 14.2145 166.554 16.7115 169.635 16.7115C172.716 16.7115 175.213 14.2145 175.213 11.1331C175.209 8.05169 172.712 5.55469 169.635 5.55469Z" fill="#868686"/>
<path d="M238.421 5.55469C235.34 5.55469 232.843 8.05169 232.843 11.1331C232.843 14.2145 235.34 16.7115 238.421 16.7115C241.503 16.7115 244 14.2145 244 11.1331C243.995 8.05169 241.498 5.55469 238.421 5.55469Z" fill="#868686"/>
<path d="M244 20.8599H232.843V66.1292H244V20.8599Z" fill="#868686"/>
<path d="M207.908 73.4034C205.305 75.9978 202.241 77.295 198.713 77.295C195.189 77.295 192.125 75.9978 189.517 73.4034C188.083 71.9734 187.047 70.4106 186.401 68.7061H175.372C176.213 73.2706 178.396 77.3039 181.933 80.7926C186.573 85.3749 192.165 87.6682 198.713 87.6682C205.261 87.6682 210.853 85.3749 215.492 80.7926C219.03 77.2995 221.212 73.2706 222.054 68.7061H211.025C210.379 70.4106 209.343 71.9734 207.908 73.4034Z" fill="#868686"/>
<path d="M216.608 23.8702C212.92 21.5769 208.728 20.4258 204.026 20.4258C197.42 20.4258 191.815 22.6881 187.206 27.2129C182.598 31.7376 180.291 37.2452 180.291 43.7267C180.291 50.1552 182.611 55.6583 187.251 60.2406C191.891 64.8229 197.482 67.1162 204.03 67.1162C210.578 67.1162 216.17 64.8229 220.81 60.2406C225.436 55.6672 227.756 50.1773 227.765 43.7666V20.5232H216.608V23.8702ZM213.221 52.8559C210.618 55.4503 207.554 56.7475 204.026 56.7475C200.502 56.7475 197.438 55.4503 194.83 52.8559C192.227 50.2615 190.925 47.2199 190.925 43.7312C190.925 40.2424 192.227 37.2009 194.83 34.6065C197.434 32.0121 200.502 30.7149 204.026 30.7149C207.55 30.7149 210.614 32.0121 213.221 34.6065C215.825 37.2009 217.126 40.2424 217.126 43.7312C217.126 47.2199 215.825 50.2615 213.221 52.8559Z" fill="#868686"/>
<path d="M26.1242 27.4894C17.0849 36.5288 17.0849 51.1803 26.1242 60.2196C35.1635 69.2589 49.815 69.2589 58.8543 60.2196C67.8937 51.1803 67.8937 36.5288 58.8543 27.4894C49.815 18.4501 35.1635 18.4501 26.1242 27.4894Z" fill="#868686"/>
<path d="M77.9281 14.1202C77.9281 8.39304 73.2877 3.75263 67.5605 3.75263C65.3869 3.75263 63.3744 4.4254 61.7068 5.56394C45.75 -2.49784 25.7393 0.118503 12.4334 13.4302C-4.14446 30.008 -4.14446 56.988 12.4334 73.5715C20.7252 81.8633 31.6103 86.0092 42.5012 86.0092C53.392 86.0092 64.2829 81.8633 72.5689 73.5715C87.5367 58.6038 88.9858 35.1545 76.9276 18.5421C77.5601 17.1966 77.9281 15.7015 77.9281 14.1202ZM67.3133 68.3101C53.6335 81.9898 31.3745 81.9898 17.6948 68.3101C4.01508 54.6304 4.01508 32.3714 17.6948 18.6916C24.5375 11.8489 33.5193 8.43329 42.5069 8.43329C47.6303 8.43329 52.748 9.54883 57.4747 11.7684C57.2964 12.5274 57.1987 13.3095 57.1987 14.1202C57.1987 19.8474 61.8391 24.4878 67.5663 24.4878C68.9521 24.4878 70.2746 24.2118 71.4822 23.7173C80.8032 37.3683 79.4232 56.2002 67.3133 68.3101Z" fill="#868686"/>
</svg>
