<svg width="280" height="88" viewBox="0 0 280 88" fill="none" xmlns="http://www.w3.org/2000/svg">
<path d="M27.8699 1.0045C27.771 1 27.6675 1 27.5686 1C27.4652 1 27.3662 1 27.2628 1.0045C22.2663 1.17989 18.3761 5.3669 18.3761 10.287V19.4121H9.30047C4.3759 19.4121 0.179893 23.2932 0.00449733 28.2853C0 28.3842 0 28.4877 0 28.5866C0 28.6855 0 28.789 0.00449733 28.8924C0.179893 33.8844 4.3759 37.7656 9.30047 37.7656H21.7626H27.5686H29.8667H33.3791C35.2455 37.7656 36.7611 36.277 36.7611 34.4376V10.287C36.7566 5.3669 32.8665 1.17989 27.8699 1.0045Z" fill="#F41752"/>
<path d="M84.9958 28.8924C85.0003 28.789 85.0003 28.69 85.0003 28.5866C85.0003 28.4876 85.0003 28.3842 84.9958 28.2808C84.8204 23.2887 80.6244 19.4075 75.6998 19.4075H66.5657V10.3409C66.5657 5.42086 62.6755 1.23385 57.679 1.05845C57.5756 1.05396 57.4766 1.05396 57.3732 1.05396C57.2698 1.05396 57.1708 1.05396 57.0674 1.05845C52.0709 1.23385 48.1807 5.42086 48.1807 10.3409V22.785V28.5866V30.8802V34.3881C48.1807 36.2545 49.6738 37.7656 51.5087 37.7656H75.6908C80.6289 37.7656 84.8204 33.8799 84.9958 28.8924Z" fill="#07CBB4"/>
<path d="M27.8699 85.9953C27.771 85.9998 27.6675 85.9998 27.5686 85.9998C27.4652 85.9998 27.3662 85.9998 27.2628 85.9953C22.2663 85.8199 18.3761 81.6329 18.3761 76.7128V67.5877H9.30047C4.3759 67.5877 0.179893 63.7065 0.00449733 58.7145C0 58.6156 0 58.5121 0 58.4132C0 58.3142 0 58.2108 0.00449733 58.1074C0.179893 53.1153 4.3759 49.2341 9.30047 49.2341H21.7626H27.5686H29.8667H33.3791C35.2455 49.2341 36.7611 50.7227 36.7611 52.5622V76.7128C36.7566 81.6329 32.8665 85.8199 27.8699 85.9953Z" fill="#07CBB4"/>
<path d="M84.9958 58.1074C85.0003 58.2108 85.0003 58.3097 85.0003 58.4132C85.0003 58.5121 85.0003 58.6156 84.9958 58.719C84.8204 63.711 80.6244 67.5922 75.6998 67.5922H66.5657V76.6588C66.5657 81.5789 62.6755 85.7659 57.679 85.9413C57.5756 85.9458 57.4766 85.9458 57.3732 85.9458C57.2698 85.9458 57.1708 85.9458 57.0674 85.9413C52.0709 85.7659 48.1807 81.5789 48.1807 76.6588V64.2147V58.4132V56.1195V52.6116C48.1807 50.7452 49.6738 49.2341 51.5087 49.2341H75.6908C80.6289 49.2341 84.8204 53.1198 84.9958 58.1074Z" fill="#07CBB4"/>
<path d="M111 43.7348C111 37.2845 113.294 31.8117 117.877 27.3119C122.465 22.8077 128.057 20.5579 134.648 20.5579C143.449 20.5579 150.129 24.1682 154.686 31.3934L145.356 36.5977C142.604 32.7275 139.033 30.7946 134.648 30.7946C131.121 30.7946 128.061 32.0847 125.468 34.6648C122.875 37.2449 121.576 40.2697 121.576 43.7392C121.576 47.2087 122.87 50.2335 125.468 52.8136C128.061 55.3937 131.121 56.6837 134.648 56.6837C139.179 56.6837 142.745 54.7773 145.356 50.9644L154.602 56.0805C149.957 63.363 143.309 66.9998 134.652 66.9998C128.145 66.9998 122.575 64.719 117.948 60.162C113.316 55.6006 111 50.1278 111 43.7348Z" fill="#161616"/>
<path d="M155.157 43.7348C155.157 37.2845 157.447 31.8117 162.021 27.3119C166.6 22.8077 172.188 20.5579 178.788 20.5579C183.653 20.5579 187.99 21.9052 191.794 24.5997V20.9893H202.801V66.0091H191.794V62.9975C187.924 65.6348 183.582 66.9689 178.766 66.9953C172.258 66.9953 166.697 64.7146 162.083 60.1576C157.464 55.6006 155.157 50.1278 155.157 43.7348ZM169.621 34.6604C167.032 37.2405 165.737 40.2653 165.737 43.7348C165.737 47.2043 167.032 50.2291 169.621 52.8092C172.21 55.3893 175.261 56.6793 178.766 56.6793C182.27 56.6793 185.317 55.3893 187.91 52.8092C190.504 50.2291 191.794 47.2043 191.794 43.7348C191.794 40.2653 190.499 37.2405 187.91 34.6604C185.322 32.0803 182.275 30.7902 178.766 30.7902C175.257 30.7902 172.21 32.0803 169.621 34.6604Z" fill="#161616"/>
<path d="M208.432 66.0047V20.9893H219.527V25.313C222.653 22.2001 227.078 20.6151 232.815 20.5579L232.08 32.252C227.206 32.252 223.895 33.0973 222.147 34.7925C220.399 36.4876 219.523 39.257 219.523 43.1008V66.0047H208.432Z" fill="#161616"/>
<path d="M232.467 43.7348C232.467 37.2845 234.752 31.8117 239.327 27.3119C243.897 22.8077 249.48 20.5579 256.071 20.5579C263.005 20.5579 268.668 22.8782 273.053 27.5233C277.438 32.1683 279.631 37.7997 279.631 44.4216C279.631 45.1393 279.574 46.1432 279.459 47.4332H243.729C244.676 50.3568 246.274 52.6287 248.524 54.2489C250.774 55.8692 253.574 56.6793 256.929 56.6793C259.681 56.6793 261.979 56.2214 263.829 55.3056C265.678 54.3898 267.333 52.9413 268.795 50.9644L278.081 56.0805C273.264 63.363 266.215 66.9998 256.925 66.9998C249.871 66.9998 244.033 64.7939 239.406 60.3778C234.783 55.9573 232.467 50.414 232.467 43.7348ZM243.989 38.7023H267.937C265.7 33.4276 261.746 30.7902 256.071 30.7902C253.433 30.7902 251.025 31.5211 248.846 32.9829C246.671 34.4446 245.05 36.3511 243.989 38.7023Z" fill="#161616"/>
</svg>
